<?xml version="1.0" encoding="utf-8"?>
<!-- Generator: Adobe Illustrator 19.1.0, SVG Export Plug-In . SVG Version: 6.00 Build 0)  -->
<svg version="1.1" xmlns="http://www.w3.org/2000/svg" xmlns:xlink="http://www.w3.org/1999/xlink" x="0px" y="0px" width="24px"
	 height="24px" viewBox="0 0 24 24" enable-background="new 0 0 24 24" xml:space="preserve">
<g id="Bounding_Boxes">
	<path fill="none" d="M0,0h24v24H0V0z"/>
</g>
<g id="Rounded">
	<path d="M12,7C6.48,7,2,9.24,2,12c0,2.24,2.94,4.13,7,4.77v2.02c0,0.45,0.54,0.67,0.85,0.35l2.79-2.79c0.2-0.2,0.2-0.51,0-0.71
		l-2.79-2.79C9.54,12.54,9,12.76,9,13.21v1.52c-3.15-0.56-5-1.9-5-2.73c0-1.06,3.04-3,8-3s8,1.94,8,3c0,0.66-1.2,1.68-3.32,2.34
		C16.27,14.47,16,14.85,16,15.28v0c0,0.67,0.65,1.16,1.28,0.96C20.11,15.36,22,13.79,22,12C22,9.24,17.52,7,12,7z"/>
</g>
</svg>
