<?xml version="1.0" encoding="utf-8"?>
<!-- Generator: Adobe Illustrator 19.1.0, SVG Export Plug-In . SVG Version: 6.00 Build 0)  -->
<svg version="1.1" xmlns="http://www.w3.org/2000/svg" xmlns:xlink="http://www.w3.org/1999/xlink" x="0px" y="0px" width="24px"
	 height="24px" viewBox="0 0 24 24" enable-background="new 0 0 24 24" xml:space="preserve">
<g id="Bounding_Boxes" display="none">
	<path display="inline" fill="none" d="M0,0h24v24H0V0z"/>
</g>
<g id="Rounded">
	<path d="M21,3H3C1.9,3,1,3.9,1,5v12c0,1.1,0.9,2,2,2h5v1c0,0.55,0.45,1,1,1h6c0.55,0,1-0.45,1-1v-1h5c1.1,0,2-0.9,2-2V5
		C23,3.89,22.1,3,21,3z M20,17H4c-0.55,0-1-0.45-1-1V6c0-0.55,0.45-1,1-1h16c0.55,0,1,0.45,1,1v10C21,16.55,20.55,17,20,17z M16,11
		L16,11c0,0.55-0.45,1-1,1h-2v2c0,0.55-0.45,1-1,1h0c-0.55,0-1-0.45-1-1v-2H9c-0.55,0-1-0.45-1-1v0c0-0.55,0.45-1,1-1h2V8
		c0-0.55,0.45-1,1-1h0c0.55,0,1,0.45,1,1v2h2C15.55,10,16,10.45,16,11z"/>
</g>
</svg>
