<?xml version="1.0" encoding="utf-8"?>
<!-- Generator: Adobe Illustrator 19.1.0, SVG Export Plug-In . SVG Version: 6.00 Build 0)  -->
<svg version="1.1" xmlns="http://www.w3.org/2000/svg" xmlns:xlink="http://www.w3.org/1999/xlink" x="0px" y="0px" width="24px"
	 height="24px" viewBox="0 0 24 24" enable-background="new 0 0 24 24" xml:space="preserve">
<g id="Bounding_Boxes">
	<g id="ui_x5F_spec_x5F_header_copy_3" display="none">
	</g>
	<path fill="none" d="M0,0h24v24H0V0z"/>
</g>
<g id="Rounded_1_">
	<g id="ui_x5F_spec_x5F_header_copy_6" display="none">
	</g>
	<path d="M19,3H5C3.89,3,3,3.9,3,5v14c0,1.1,0.89,2,2,2h14c1.1,0,2-0.9,2-2V5C21,3.9,20.1,3,19,3z M16,13h-3v3c0,0.55-0.45,1-1,1h0
		c-0.55,0-1-0.45-1-1v-3H8c-0.55,0-1-0.45-1-1v0c0-0.55,0.45-1,1-1h3V8c0-0.55,0.45-1,1-1h0c0.55,0,1,0.45,1,1v3h3
		c0.55,0,1,0.45,1,1v0C17,12.55,16.55,13,16,13z"/>
</g>
</svg>
