<?xml version="1.0" encoding="utf-8"?>
<!-- Generator: Adobe Illustrator 19.1.0, SVG Export Plug-In . SVG Version: 6.00 Build 0)  -->
<svg version="1.1" xmlns="http://www.w3.org/2000/svg" xmlns:xlink="http://www.w3.org/1999/xlink" x="0px" y="0px" width="24px"
	 height="24px" viewBox="0 0 24 24" enable-background="new 0 0 24 24" xml:space="preserve">
<g id="Bounding_Boxes" display="none">
	<g id="ui_x5F_spec_x5F_header_copy_3" display="inline">
	</g>
	<path display="inline" fill="none" d="M0,0h24v24H0V0z"/>
</g>
<g id="Rounded">
	<g id="ui_x5F_spec_x5F_header_copy_5">
	</g>
	<g>
		<path d="M12,23c1.1,0,1.99-0.89,1.99-1.99h-3.98C10.01,22.11,10.9,23,12,23z"/>
		<g>
			<path d="M19,17v-6c0-3.35-2.36-6.15-5.5-6.83V3c0-0.83-0.67-1.5-1.5-1.5S10.5,2.17,10.5,3v1.17C7.36,4.85,5,7.65,5,11v6
				l-1.29,1.29C3.08,18.92,3.52,20,4.41,20h15.17c0.89,0,1.34-1.08,0.71-1.71L19,17z M15,13.01h-2v2c0,0.55-0.45,1-1,1h0
				c-0.55,0-1-0.45-1-1v-2H9c-0.55,0-1-0.45-1-1V12c0-0.55,0.45-1,1-1h2V9c0-0.55,0.45-1,1-1h0c0.55,0,1,0.45,1,1v2h2
				c0.55,0,1,0.45,1,1v0.01C16,12.56,15.55,13.01,15,13.01z"/>
		</g>
	</g>
</g>
</svg>
