<?xml version="1.0" encoding="utf-8"?>
<!-- Generator: Adobe Illustrator 19.1.0, SVG Export Plug-In . SVG Version: 6.00 Build 0)  -->
<svg version="1.1" xmlns="http://www.w3.org/2000/svg" xmlns:xlink="http://www.w3.org/1999/xlink" x="0px" y="0px" width="24px"
	 height="24px" viewBox="0 0 24 24" enable-background="new 0 0 24 24" xml:space="preserve">
<g id="Bounding_Boxes">
	<path fill="none" d="M0,0h24v24H0V0z"/>
</g>
<g id="Rounded">
	<path d="M12,2C8.14,2,5,5.14,5,9c0,4.17,4.42,9.92,6.24,12.11c0.4,0.48,1.13,0.48,1.53,0C14.58,18.92,19,13.17,19,9
		C19,5.14,15.86,2,12,2z M15,10h-2v2c0,0.55-0.45,1-1,1h0c-0.55,0-1-0.45-1-1v-2H9c-0.55,0-1-0.45-1-1v0c0-0.55,0.45-1,1-1h2V6
		c0-0.55,0.45-1,1-1h0c0.55,0,1,0.45,1,1v2h2c0.55,0,1,0.45,1,1v0C16,9.55,15.55,10,15,10z"/>
</g>
</svg>
