<?xml version="1.0" encoding="utf-8"?>
<!-- Generator: Adobe Illustrator 19.1.0, SVG Export Plug-In . SVG Version: 6.00 Build 0)  -->
<svg version="1.1" xmlns="http://www.w3.org/2000/svg" xmlns:xlink="http://www.w3.org/1999/xlink" x="0px" y="0px" width="24px"
	 height="24px" viewBox="0 0 24 24" enable-background="new 0 0 24 24" xml:space="preserve">
<g id="Bounding_Boxes">
	<g id="ui_x5F_spec_x5F_header_copy_3">
	</g>
	<path fill="none" d="M0,0h24v24H0V0z"/>
</g>
<g id="Rounded">
	<g id="ui_x5F_spec_x5F_header_copy_6">
	</g>
	<path d="M22,4c0-1.1-0.9-2-2-2H4C2.9,2,2,2.9,2,4v12c0,1.1,0.9,2,2,2h14l4,4V4z M16,11h-3v3c0,0.55-0.45,1-1,1h0
		c-0.55,0-1-0.45-1-1v-3H8c-0.55,0-1-0.45-1-1v0c0-0.55,0.45-1,1-1h3V6c0-0.55,0.45-1,1-1h0c0.55,0,1,0.45,1,1v3h3
		c0.55,0,1,0.45,1,1v0C17,10.55,16.55,11,16,11z"/>
</g>
</svg>
