<?xml version="1.0" encoding="utf-8"?>
<!-- Generator: Adobe Illustrator 19.1.0, SVG Export Plug-In . SVG Version: 6.00 Build 0)  -->
<svg version="1.1" xmlns="http://www.w3.org/2000/svg" xmlns:xlink="http://www.w3.org/1999/xlink" x="0px" y="0px" width="24px"
	 height="24px" viewBox="0 0 24 24" enable-background="new 0 0 24 24" xml:space="preserve">
<g id="Bounding_Boxes">
	<g id="ui_x5F_spec_x5F_header_copy_2">
	</g>
	<path fill="none" d="M0,0h24v24H0V0z"/>
</g>
<g id="Rounded_1_">
	<path d="M7,13c1.65,0,3-1.35,3-3S8.65,7,7,7s-3,1.35-3,3S5.35,13,7,13z M19,7h-6c-1.1,0-2,0.9-2,2v5H3V8c0-0.55-0.45-1-1-1h0
		C1.45,7,1,7.45,1,8v7c0,1.1,0.9,2,2,2h18c1.1,0,2-0.9,2-2v-4C23,8.79,21.21,7,19,7z"/>
</g>
</svg>
