<?xml version="1.0" encoding="utf-8"?>
<!-- Generator: Adobe Illustrator 19.1.0, SVG Export Plug-In . SVG Version: 6.00 Build 0)  -->
<svg version="1.1" xmlns="http://www.w3.org/2000/svg" xmlns:xlink="http://www.w3.org/1999/xlink" x="0px" y="0px" width="24px"
	 height="24px" viewBox="0 0 24 24" enable-background="new 0 0 24 24" xml:space="preserve">
<g id="Bounding_Boxes">
	<g id="ui_x5F_spec_x5F_header_copy_2">
	</g>
	<path fill="none" d="M0,0h24v24H0V0z"/>
</g>
<g id="Rounded_1_">
	<path d="M22.25,14.29l-0.69,1.89L9.2,11.71l1.39-3.79c0.38-1.03,1.52-1.56,2.56-1.19l6.69,2.41C21.94,9.9,23.02,12.2,22.25,14.29z
		 M2.45,12.48l5.55,2V18c0,0.55,0.45,1,1,1h6c0.55,0,1-0.45,1-1v-0.63l3.58,1.29c0.52,0.19,1.1-0.08,1.29-0.6l0,0
		c0.19-0.52-0.08-1.1-0.6-1.29L3.13,10.59c-0.52-0.19-1.1,0.08-1.29,0.6l0,0C1.66,11.71,1.93,12.29,2.45,12.48z M7.3,10.2
		c1.49-0.72,2.12-2.51,1.41-4C7.99,4.71,6.2,4.08,4.7,4.8c-1.49,0.71-2.12,2.5-1.4,4C4.01,10.29,5.8,10.92,7.3,10.2z"/>
</g>
</svg>
