<?xml version="1.0" encoding="utf-8"?>
<!-- Generator: Adobe Illustrator 19.1.0, SVG Export Plug-In . SVG Version: 6.00 Build 0)  -->
<svg version="1.1" xmlns="http://www.w3.org/2000/svg" xmlns:xlink="http://www.w3.org/1999/xlink" x="0px" y="0px" width="24px"
	 height="24px" viewBox="0 0 24 24" enable-background="new 0 0 24 24" xml:space="preserve">
<g id="Bounding_Boxes">
	<g id="ui_x5F_spec_x5F_header_copy_2">
	</g>
	<path fill="none" d="M0,0h24v24H0V0z"/>
</g>
<g id="Rounded_1_">
	<path d="M5,12V4c0-0.55-0.45-1-1-1h0C3.45,3,3,3.45,3,4v8c0,2.76,2.24,5,5,5h5c0.55,0,1-0.45,1-1v0c0-0.55-0.45-1-1-1H8
		C6.34,15,5,13.66,5,12z M20.5,18H19v-7c0-1.1-0.9-2-2-2h-5V3H6v8c0,1.65,1.35,3,3,3h7v5c0,1.1,0.9,2,2,2h2.5
		c0.83,0,1.5-0.67,1.5-1.5S21.33,18,20.5,18z"/>
</g>
</svg>
