<?xml version="1.0" encoding="utf-8"?>
<!-- Generator: Adobe Illustrator 19.1.0, SVG Export Plug-In . SVG Version: 6.00 Build 0)  -->
<svg version="1.1" xmlns="http://www.w3.org/2000/svg" xmlns:xlink="http://www.w3.org/1999/xlink" x="0px" y="0px" width="24px"
	 height="24px" viewBox="0 0 24 24" enable-background="new 0 0 24 24" xml:space="preserve">
<g id="Bounding_Boxes">
	<g id="ui_x5F_spec_x5F_header_copy_2">
	</g>
	<path fill="none" d="M0,0h24v24H0V0z"/>
</g>
<g id="Rounded_1_">
	<path d="M22,11v2H9V9c0-1.1,0.9-2,2-2h7C20.21,7,22,8.79,22,11z M2,15L2,15c0,0.55,0.45,1,1,1h5v1c0,0.55,0.45,1,1,1h6
		c0.55,0,1-0.45,1-1v-1h5c0.55,0,1-0.45,1-1v0c0-0.55-0.45-1-1-1H3C2.45,14,2,14.45,2,15z M7.14,12.1C8.3,10.91,8.28,9.02,7.1,7.86
		C5.91,6.7,4.02,6.72,2.86,7.9C1.7,9.09,1.72,10.98,2.9,12.14C4.09,13.3,5.98,13.28,7.14,12.1z"/>
</g>
</svg>
