<?xml version="1.0" encoding="utf-8"?>
<!-- Generator: Adobe Illustrator 19.1.0, SVG Export Plug-In . SVG Version: 6.00 Build 0)  -->
<svg version="1.1" xmlns="http://www.w3.org/2000/svg" xmlns:xlink="http://www.w3.org/1999/xlink" x="0px" y="0px" width="24px"
	 height="24px" viewBox="0 0 24 24" enable-background="new 0 0 24 24" xml:space="preserve">
<g id="Bounding_Boxes" display="none">
	<rect display="inline" fill="none" width="24" height="24"/>
	<rect display="inline" fill="none" width="24" height="24"/>
	<rect display="inline" fill="none" width="24" height="24"/>
</g>
<g id="Rounded">
	<path d="M8.41,22h7.17c0.89,0,1.34-1.08,0.71-1.71l-3.59-3.59c-0.39-0.39-1.02-0.39-1.41,0l-3.59,3.59C7.08,20.92,7.52,22,8.41,22z
		 M21,3H3C1.9,3,1,3.9,1,5v12c0,1.1,0.9,2,2,2h3c0.55,0,1-0.45,1-1v0c0-0.55-0.45-1-1-1H4c-0.55,0-1-0.45-1-1V6c0-0.55,0.45-1,1-1
		h16c0.55,0,1,0.45,1,1v10c0,0.55-0.45,1-1,1h-2c-0.55,0-1,0.45-1,1v0c0,0.55,0.45,1,1,1h3c1.1,0,2-0.9,2-2V5C23,3.9,22.1,3,21,3z"
		/>
</g>
</svg>
