<?xml version="1.0" encoding="utf-8"?>
<!-- Generator: Adobe Illustrator 19.1.0, SVG Export Plug-In . SVG Version: 6.00 Build 0)  -->
<svg version="1.1" xmlns="http://www.w3.org/2000/svg" xmlns:xlink="http://www.w3.org/1999/xlink" x="0px" y="0px" width="24px"
	 height="24px" viewBox="0 0 24 24" enable-background="new 0 0 24 24" xml:space="preserve">
<g id="Bounding_Boxes">
	<g id="ui_x5F_spec_x5F_header_copy_3">
	</g>
	<path fill="none" d="M0,0h24v24H0V0z"/>
</g>
<g id="Rounded">
	<g id="ui_x5F_spec_x5F_header_copy_6">
	</g>
	<path d="M21,14.58L21,14.58c0-0.36-0.19-0.69-0.49-0.89L13,9V3.5C13,2.67,12.33,2,11.5,2S10,2.67,10,3.5V9l-7.51,4.69
		C2.19,13.88,2,14.22,2,14.58v0c0,0.7,0.68,1.21,1.36,1L10,13.5V19l-1.8,1.35C8.07,20.44,8,20.59,8,20.75v0.59
		c0,0.33,0.32,0.57,0.64,0.48L11.5,21l2.86,0.82c0.32,0.09,0.64-0.15,0.64-0.48v-0.59c0-0.16-0.07-0.31-0.2-0.4L13,19v-5.5
		l6.64,2.08C20.32,15.79,21,15.28,21,14.58z"/>
</g>
</svg>
