<?xml version="1.0" encoding="utf-8"?>
<!-- Generator: Adobe Illustrator 19.1.0, SVG Export Plug-In . SVG Version: 6.00 Build 0)  -->
<svg version="1.1" xmlns="http://www.w3.org/2000/svg" xmlns:xlink="http://www.w3.org/1999/xlink" x="0px" y="0px" width="24px"
	 height="24px" viewBox="0 0 24 24" enable-background="new 0 0 24 24" xml:space="preserve">
<g id="Bounding_Boxes" display="none">
	<path display="inline" fill="none" d="M0,0h24v24H0V0z"/>
</g>
<g id="Rounded">
	<path d="M12,2C6.48,2,2,6.48,2,12s4.48,10,10,10s10-4.48,10-10S17.52,2,12,2z M12,16.5c-2.49,0-4.5-2.01-4.5-4.5S9.51,7.5,12,7.5
		s4.5,2.01,4.5,4.5S14.49,16.5,12,16.5z M12,11c-0.55,0-1,0.45-1,1s0.45,1,1,1s1-0.45,1-1S12.55,11,12,11z"/>
</g>
</svg>
