<?xml version="1.0" encoding="utf-8"?>
<!-- Generator: Adobe Illustrator 19.1.0, SVG Export Plug-In . SVG Version: 6.00 Build 0)  -->
<svg version="1.1" xmlns="http://www.w3.org/2000/svg" xmlns:xlink="http://www.w3.org/1999/xlink" x="0px" y="0px" width="24px"
	 height="24px" viewBox="0 0 24 24" enable-background="new 0 0 24 24" xml:space="preserve">
<g id="Bounding_Boxes">
	<path fill="none" d="M0,0h24v24H0V0z"/>
</g>
<g id="Rounded">
	<path d="M13,19V7.83l4.88,4.88c0.39,0.39,1.03,0.39,1.42,0l0,0c0.39-0.39,0.39-1.02,0-1.41l-6.59-6.59c-0.39-0.39-1.02-0.39-1.41,0
		L4.7,11.29c-0.39,0.39-0.39,1.02,0,1.41l0,0c0.39,0.39,1.02,0.39,1.41,0L11,7.83V19c0,0.55,0.45,1,1,1h0C12.55,20,13,19.55,13,19z"
		/>
</g>
</svg>
