<?xml version="1.0" encoding="utf-8"?>
<!-- Generator: Adobe Illustrator 19.1.0, SVG Export Plug-In . SVG Version: 6.00 Build 0)  -->
<svg version="1.1" xmlns="http://www.w3.org/2000/svg" xmlns:xlink="http://www.w3.org/1999/xlink" x="0px" y="0px" width="24px"
	 height="24px" viewBox="0 0 24 24" enable-background="new 0 0 24 24" xml:space="preserve">
<g id="Bounding_Boxes">
	<path fill="none" d="M0,0h24v24H0V0z"/>
</g>
<g id="Rounded">
	<path d="M11,5v11.17l-4.88-4.88c-0.39-0.39-1.03-0.39-1.42,0l0,0c-0.39,0.39-0.39,1.02,0,1.41l6.59,6.59
		c0.39,0.39,1.02,0.39,1.41,0l6.59-6.59c0.39-0.39,0.39-1.02,0-1.41l0,0c-0.39-0.39-1.02-0.39-1.41,0L13,16.17V5c0-0.55-0.45-1-1-1
		h0C11.45,4,11,4.45,11,5z"/>
</g>
</svg>
