<?xml version="1.0" encoding="utf-8"?>
<!-- Generator: Adobe Illustrator 19.1.0, SVG Export Plug-In . SVG Version: 6.00 Build 0)  -->
<svg version="1.1" xmlns="http://www.w3.org/2000/svg" xmlns:xlink="http://www.w3.org/1999/xlink" x="0px" y="0px" width="24px"
	 height="24px" viewBox="0 0 24 24" enable-background="new 0 0 24 24" xml:space="preserve">
<g id="Bounding_Boxes">
	<g id="ui_x5F_spec_x5F_header_copy_3">
	</g>
	<path fill="none" d="M0,0h24v24H0V0z"/>
</g>
<g id="Rounded">
	<g id="ui_x5F_spec_x5F_header_copy_7">
	</g>
	<path d="M14.4,6l-0.24-1.2C14.07,4.34,13.66,4,13.18,4H6C5.45,4,5,4.45,5,5v15c0,0.55,0.45,1,1,1h0c0.55,0,1-0.45,1-1v-6h5.6
		l0.24,1.2c0.09,0.47,0.5,0.8,0.98,0.8H19c0.55,0,1-0.45,1-1V7c0-0.55-0.45-1-1-1H14.4z"/>
</g>
</svg>
