<?xml version="1.0" encoding="utf-8"?>
<!-- Generator: Adobe Illustrator 19.1.0, SVG Export Plug-In . SVG Version: 6.00 Build 0)  -->
<svg version="1.1" xmlns="http://www.w3.org/2000/svg" xmlns:xlink="http://www.w3.org/1999/xlink" x="0px" y="0px" width="24px"
	 height="24px" viewBox="0 0 24 24" enable-background="new 0 0 24 24" xml:space="preserve">
<g id="Bounding_Boxes">
	<g id="ui_x5F_spec_x5F_header_copy_3">
	</g>
	<path fill="none" d="M0,0h24v24H0V0z"/>
</g>
<g id="Rounded">
	<g id="ui_x5F_spec_x5F_header_copy_7">
	</g>
	<path d="M12,5v8.55c-0.94-0.54-2.1-0.75-3.33-0.32C7.33,13.71,6.3,14.9,6.06,16.3c-0.46,2.74,1.86,5.08,4.59,4.65
		c1.96-0.31,3.35-2.11,3.35-4.1L14,7h2c1.1,0,2-0.9,2-2v0c0-1.1-0.9-2-2-2h-2C12.9,3,12,3.9,12,5z"/>
</g>
</svg>
