<?xml version="1.0" encoding="utf-8"?>
<!-- Generator: Adobe Illustrator 19.1.0, SVG Export Plug-In . SVG Version: 6.00 Build 0)  -->
<svg version="1.1" xmlns="http://www.w3.org/2000/svg" xmlns:xlink="http://www.w3.org/1999/xlink" x="0px" y="0px" width="24px"
	 height="24px" viewBox="0 0 24 24" enable-background="new 0 0 24 24" xml:space="preserve">
<g id="Bounding_Boxes" display="none">
	<path display="inline" fill="none" d="M0,0h24v24H0V0z"/>
</g>
<g id="Rounded">
	<g>
		<circle cx="12" cy="17" r="1"/>
		<circle cx="7" cy="12" r="1"/>
		<circle cx="17" cy="12" r="1"/>
		<path d="M12,3c-0.55,0-1,0.45-1,1v2c0,0.55,0.45,1,1,1s1-0.45,1-1V5.08c3.31,0.48,5.87,3.25,6,6.66c0.14,3.85-3.03,7.2-6.88,7.26
			C8.19,19.06,5,15.91,5,12c0-1.68,0.59-3.22,1.58-4.42l4.71,4.72c0.39,0.39,1.02,0.39,1.41,0c0.39-0.39,0.39-1.02,0-1.41L7.26,5.46
			c-0.38-0.38-1-0.39-1.4-0.02C4.1,7.07,3,9.4,3,12c0,5.04,4.14,9.12,9.21,9c4.7-0.11,8.63-4.01,8.78-8.71C21.16,7.19,17.07,3,12,3z
			"/>
	</g>
</g>
</svg>
