<?xml version="1.0" encoding="utf-8"?>
<!-- Generator: Adobe Illustrator 19.1.0, SVG Export Plug-In . SVG Version: 6.00 Build 0)  -->
<svg version="1.1" xmlns="http://www.w3.org/2000/svg" xmlns:xlink="http://www.w3.org/1999/xlink" x="0px" y="0px" width="24px"
	 height="24px" viewBox="0 0 24 24" enable-background="new 0 0 24 24" xml:space="preserve">
<g id="Bounding_Boxes">
	<g id="ui_x5F_spec_x5F_header_copy_3">
	</g>
	<path fill="none" d="M0,0h24v24H0V0z"/>
</g>
<g id="Rounded">
	<g id="ui_x5F_spec_x5F_header_copy_6">
	</g>
	<path d="M15.67,4H14V3c0-0.55-0.45-1-1-1h-2c-0.55,0-1,0.45-1,1v1H8.33C7.6,4,7,4.6,7,5.33v15.33C7,21.4,7.6,22,8.34,22h7.32
		C16.4,22,17,21.4,17,20.67V5.33C17,4.6,16.4,4,15.67,4z M14.61,13.24l-2.67,5C11.7,18.69,11,18.52,11,18v-3.5H9.83
		c-0.38,0-0.62-0.4-0.44-0.74l2.67-5C12.3,8.31,13,8.48,13,9v3.5h1.17C14.54,12.5,14.79,12.9,14.61,13.24z"/>
</g>
</svg>
