<?xml version="1.0" encoding="utf-8"?>
<!-- Generator: Adobe Illustrator 19.1.0, SVG Export Plug-In . SVG Version: 6.00 Build 0)  -->
<svg version="1.1" xmlns="http://www.w3.org/2000/svg" xmlns:xlink="http://www.w3.org/1999/xlink" x="0px" y="0px" width="24px"
	 height="24px" viewBox="0 0 24 24" enable-background="new 0 0 24 24" xml:space="preserve">
<g id="Bounding_Boxes">
	<path fill="none" d="M0,0h24v24H0V0z"/>
</g>
<g id="Rounded">
	<path d="M13.13,14.56l1.43-1.43l5.73,5.73c0.39,0.39,0.39,1.03,0,1.43l0,0c-0.39,0.39-1.03,0.39-1.43,0L13.13,14.56z M17.42,8.83
		l1.27-1.27c0.89-0.89,0.77-2.43-0.31-3.08C14.49,2.1,9.35,2.59,5.98,5.95C9.91,4.65,14.29,5.7,17.42,8.83z M5.95,5.98
		c-3.36,3.37-3.85,8.51-1.48,12.4c0.66,1.08,2.19,1.21,3.08,0.31l1.27-1.27C5.7,14.29,4.65,9.91,5.95,5.98z M5.97,5.96L5.96,5.97
		c-0.38,3.01,1.17,6.88,4.3,10.02l5.73-5.73C12.86,7.13,8.98,5.58,5.97,5.96z"/>
</g>
</svg>
