<?xml version="1.0" encoding="utf-8"?>
<!-- Generator: Adobe Illustrator 19.1.0, SVG Export Plug-In . SVG Version: 6.00 Build 0)  -->
<svg version="1.1" xmlns="http://www.w3.org/2000/svg" xmlns:xlink="http://www.w3.org/1999/xlink" x="0px" y="0px" width="24px"
	 height="24px" viewBox="0 0 24 24" enable-background="new 0 0 24 24" xml:space="preserve">
<g id="Bounding_Boxes">
	<path fill="none" d="M0,0h24v24H0V0z"/>
</g>
<g id="Rounded">
	<path d="M19,1H5C3.9,1,3.01,1.9,3.01,3L3,15.93c0,0.69,0.35,1.3,0.88,1.66l7.57,5.04c0.34,0.22,0.77,0.22,1.11,0l7.56-5.04
		c0.53-0.36,0.88-0.97,0.88-1.66L21,3C21,1.9,20.1,1,19,1z M18.3,7.7l-7.59,7.59c-0.39,0.39-1.02,0.39-1.41,0l-3.59-3.59
		c-0.39-0.39-0.39-1.02,0-1.41s1.02-0.39,1.41,0L10,13.17l6.88-6.88c0.39-0.39,1.02-0.39,1.41,0S18.69,7.31,18.3,7.7z"/>
</g>
</svg>
