<?xml version="1.0" encoding="utf-8"?>
<!-- Generator: Adobe Illustrator 19.1.0, SVG Export Plug-In . SVG Version: 6.00 Build 0)  -->
<svg version="1.1" xmlns="http://www.w3.org/2000/svg" xmlns:xlink="http://www.w3.org/1999/xlink" x="0px" y="0px" width="24px"
	 height="24px" viewBox="0 0 24 24" enable-background="new 0 0 24 24" xml:space="preserve">
<g id="Bounding_Boxes">
	<g id="ui_x5F_spec_x5F_header_copy_3">
	</g>
	<path fill="none" d="M0,0h24v24H0V0z"/>
</g>
<g id="Rounded">
	<g id="ui_x5F_spec_x5F_header_copy_6">
	</g>
	<path d="M3,5v14c0,1.1,0.9,2,2,2h14c1.1,0,2-0.9,2-2V5c0-1.1-0.9-2-2-2H5C3.9,3,3,3.9,3,5z M11,19H6c-0.55,0-1-0.45-1-1v-5h5
		c0.55,0,1,0.45,1,1V19z M10,11H5V6c0-0.55,0.45-1,1-1h5v5C11,10.55,10.55,11,10,11z M18,19h-5v-5c0-0.55,0.45-1,1-1h5v5
		C19,18.55,18.55,19,18,19z M19,11h-5c-0.55,0-1-0.45-1-1V5h5c0.55,0,1,0.45,1,1V11z"/>
</g>
</svg>
