<?xml version="1.0" encoding="utf-8"?>
<!-- Generator: Adobe Illustrator 19.1.0, SVG Export Plug-In . SVG Version: 6.00 Build 0)  -->
<svg version="1.1" xmlns="http://www.w3.org/2000/svg" xmlns:xlink="http://www.w3.org/1999/xlink" x="0px" y="0px" width="24px"
	 height="24px" viewBox="0 0 24 24" enable-background="new 0 0 24 24" xml:space="preserve">
<g id="Bounding_Boxes">
	<g id="ui_x5F_spec_x5F_header_copy_3">
	</g>
	<path fill="none" d="M0,0h24v24H0V0z"/>
</g>
<g id="Rounded">
	<g>
		<path d="M17.75,7L14,3.25L4.15,13.1C4.05,13.2,4,13.32,4,13.46v3.04C4,16.78,4.22,17,4.5,17h3.04c0.13,0,0.26-0.05,0.35-0.15
			L17.75,7z M20.71,4.04c0.39-0.39,0.39-1.02,0-1.41l-2.34-2.34c-0.39-0.39-1.02-0.39-1.41,0L15,2.25L18.75,6L20.71,4.04z"/>
		<path fill-opacity="0.36" d="M2,20h20c1.1,0,2,0.9,2,2v0c0,1.1-0.9,2-2,2H2c-1.1,0-2-0.9-2-2v0C0,20.9,0.9,20,2,20z"/>
	</g>
	<g id="ui_x5F_spec_x5F_header_copy_6">
	</g>
</g>
</svg>
