<?xml version="1.0" encoding="utf-8"?>
<!-- Generator: Adobe Illustrator 19.1.0, SVG Export Plug-In . SVG Version: 6.00 Build 0)  -->
<svg version="1.1" xmlns="http://www.w3.org/2000/svg" xmlns:xlink="http://www.w3.org/1999/xlink" x="0px" y="0px" width="24px"
	 height="24px" viewBox="0 0 24 24" enable-background="new 0 0 24 24" xml:space="preserve">
<g id="Bounding_Boxes">
	<g id="ui_x5F_spec_x5F_header_copy_3">
	</g>
	<path fill="none" d="M0,0h24v24H0V0z"/>
</g>
<g id="Rounded">
	<g id="ui_x5F_spec_x5F_header_copy_6">
	</g>
	<path d="M20,15.31l1.9-1.9c0.78-0.78,0.78-2.05,0-2.83L20,8.69V6c0-1.1-0.9-2-2-2h-2.69l-1.9-1.9c-0.78-0.78-2.05-0.78-2.83,0
		L8.69,4H6C4.9,4,4,4.9,4,6v2.69l-1.9,1.9c-0.78,0.78-0.78,2.05,0,2.83l1.9,1.9V18c0,1.1,0.9,2,2,2h2.69l1.9,1.9
		c0.78,0.78,2.05,0.78,2.83,0l1.9-1.9H18c1.1,0,2-0.9,2-2V15.31z M12,18c-3.31,0-6-2.69-6-6s2.69-6,6-6s6,2.69,6,6S15.31,18,12,18z"
		/>
</g>
</svg>
