<?xml version="1.0" encoding="utf-8"?>
<!-- Generator: Adobe Illustrator 19.1.0, SVG Export Plug-In . SVG Version: 6.00 Build 0)  -->
<svg version="1.1" xmlns="http://www.w3.org/2000/svg" xmlns:xlink="http://www.w3.org/1999/xlink" x="0px" y="0px" width="24px"
	 height="24px" viewBox="0 0 24 24" enable-background="new 0 0 24 24" xml:space="preserve">
<g id="Bounding_Boxes">
	<g id="ui_x5F_spec_x5F_header_copy_3">
	</g>
	<path fill="none" d="M0,0h24v24H0V0z"/>
</g>
<g id="Rounded">
	<g id="ui_x5F_spec_x5F_header_copy_7">
	</g>
	<path d="M12.43,2.3C10.05,1.71,7.75,2.03,5.8,2.94C5.45,3.1,5.39,3.58,5.7,3.8C8.3,5.6,10,8.6,10,12c0,3.4-1.7,6.4-4.3,8.2
		c-0.32,0.22-0.26,0.7,0.09,0.86C7.07,21.66,8.5,22,10,22c6.05,0,10.85-5.38,9.87-11.6C19.26,6.48,16.28,3.24,12.43,2.3z"/>
</g>
</svg>
