<?xml version="1.0" encoding="utf-8"?>
<!-- Generator: Adobe Illustrator 19.1.0, SVG Export Plug-In . SVG Version: 6.00 Build 0)  -->
<svg version="1.1" xmlns="http://www.w3.org/2000/svg" xmlns:xlink="http://www.w3.org/1999/xlink" x="0px" y="0px" width="24px"
	 height="24px" viewBox="0 0 24 24" enable-background="new 0 0 24 24" xml:space="preserve">
<g id="Bounding_Boxes">
	<g id="ui_x5F_spec_x5F_header_copy_3">
	</g>
	<path fill="none" d="M0,0h24v24H0V0z"/>
</g>
<g id="Rounded">
	<g id="ui_x5F_spec_x5F_header_copy_7">
	</g>
	<path d="M18.87,10.37c-0.75-4.76-5-8.35-9.82-8.37C8.56,2,8.08,2.03,7.61,2.1c-0.5,0.07-0.6,0.73-0.14,0.96
		C10.75,4.69,13,8.08,13,12s-2.25,7.31-5.53,8.95c-0.45,0.23-0.36,0.89,0.14,0.96C8.08,21.97,8.56,22,9.05,22
		c4.82-0.02,9.07-3.61,9.82-8.37c0.09-0.55,0.11-1.09,0.11-1.63C18.98,11.46,18.96,10.92,18.87,10.37z"/>
</g>
</svg>
