<?xml version="1.0" encoding="utf-8"?>
<!-- Generator: Adobe Illustrator 19.1.0, SVG Export Plug-In . SVG Version: 6.00 Build 0)  -->
<svg version="1.1" xmlns="http://www.w3.org/2000/svg" xmlns:xlink="http://www.w3.org/1999/xlink" x="0px" y="0px" width="24px"
	 height="24px" viewBox="0 0 24 24" enable-background="new 0 0 24 24" xml:space="preserve">
<g id="Bounding_Boxes">
	<g id="ui_x5F_spec_x5F_header_copy_3">
	</g>
	<path fill="none" d="M0,0h24v24H0V0z"/>
</g>
<g id="Rounded">
	<g id="ui_x5F_spec_x5F_header_copy_7">
	</g>
	<path d="M20,15.31l2.6-2.6c0.39-0.39,0.39-1.02,0-1.41L20,8.69V5c0-0.55-0.45-1-1-1h-3.69l-2.6-2.6c-0.39-0.39-1.02-0.39-1.41,0
		L8.69,4H5C4.45,4,4,4.45,4,5v3.69l-2.6,2.6c-0.39,0.39-0.39,1.02,0,1.41l2.6,2.6V19c0,0.55,0.45,1,1,1h3.69l2.6,2.6
		c0.39,0.39,1.02,0.39,1.41,0l2.6-2.6H19c0.55,0,1-0.45,1-1V15.31z M12,18c-3.31,0-6-2.69-6-6s2.69-6,6-6s6,2.69,6,6S15.31,18,12,18
		z"/>
</g>
</svg>
