<?xml version="1.0" encoding="utf-8"?>
<!-- Generator: Adobe Illustrator 19.1.0, SVG Export Plug-In . SVG Version: 6.00 Build 0)  -->
<svg version="1.1" xmlns="http://www.w3.org/2000/svg" xmlns:xlink="http://www.w3.org/1999/xlink" x="0px" y="0px" width="24px"
	 height="24px" viewBox="0 0 24 24" enable-background="new 0 0 24 24" xml:space="preserve">
<g id="Bounding_Boxes">
	<g id="ui_x5F_spec_x5F_header_copy_3">
	</g>
	<path fill="none" d="M0,0h24v24H0V0z"/>
</g>
<g id="Rounded">
	<g id="ui_x5F_spec_x5F_header_copy_7">
	</g>
	<path d="M21,5v6.59l-2.29-2.3c-0.39-0.39-1.03-0.39-1.42,0L14,12.59L10.71,9.3c-0.39-0.39-1.02-0.39-1.41,0L6,12.59L3,9.58V5
		c0-1.1,0.9-2,2-2h14C20.1,3,21,3.9,21,5z M18,11.42l3,3.01V19c0,1.1-0.9,2-2,2H5c-1.1,0-2-0.9-2-2v-6.58l2.29,2.29
		c0.39,0.39,1.02,0.39,1.41,0L10,11.41l3.29,3.29c0.39,0.39,1.02,0.39,1.41,0L18,11.42z"/>
</g>
</svg>
