<?xml version="1.0" encoding="utf-8"?>
<!-- Generator: Adobe Illustrator 19.1.0, SVG Export Plug-In . SVG Version: 6.00 Build 0)  -->
<svg version="1.1" xmlns="http://www.w3.org/2000/svg" xmlns:xlink="http://www.w3.org/1999/xlink" x="0px" y="0px" width="24px"
	 height="24px" viewBox="0 0 24 24" enable-background="new 0 0 24 24" xml:space="preserve">
<g id="Bounding_Boxes">
	<g id="ui_x5F_spec_x5F_header_copy_3">
	</g>
	<path fill="none" d="M0,0h24v24H0V0z"/>
</g>
<g id="Rounded">
	<g id="ui_x5F_spec_x5F_header_copy_7">
	</g>
	<path d="M7,14c-1.66,0-3,1.34-3,3c0,1.31-1.16,2-2,2c0.92,1.22,2.49,2,4,2c2.21,0,4-1.79,4-4C10,15.34,8.66,14,7,14z M20.71,4.63
		l-1.34-1.34c-0.39-0.39-1.02-0.39-1.41,0L9,12.25L11.75,15l8.96-8.96C21.1,5.65,21.1,5.02,20.71,4.63z"/>
</g>
</svg>
