<?xml version="1.0" encoding="utf-8"?>
<!-- Generator: Adobe Illustrator 19.1.0, SVG Export Plug-In . SVG Version: 6.00 Build 0)  -->
<svg version="1.1" xmlns="http://www.w3.org/2000/svg" xmlns:xlink="http://www.w3.org/1999/xlink" x="0px" y="0px" width="24px"
	 height="24px" viewBox="0 0 24 24" enable-background="new 0 0 24 24" xml:space="preserve">
<g id="Bounding_Boxes">
	<path fill="none" d="M0,0h24v24H0V0z"/>
</g>
<g id="Rounded">
	<g>
		<path d="M13,16h-2c-0.55,0-1-0.45-1-1H3.01v4c0,1.1,0.9,2,2,2H19c1.1,0,2-0.9,2-2v-4h-7C14,15.55,13.55,16,13,16z"/>
		<path d="M20,7h-4c0-2.21-1.79-4-4-4C9.79,3,8,4.79,8,7H4C2.9,7,2,7.9,2,9v3c0,1.11,0.89,2,2,2h6v-1c0-0.55,0.45-1,1-1h2
			c0.55,0,1,0.45,1,1v1h6c1.1,0,2-0.9,2-2V9C22,7.9,21.1,7,20,7z M10,7c0-1.1,0.9-2,2-2c1.1,0,2,0.9,2,2l-0.01,0h-4L10,7z"/>
	</g>
</g>
</svg>
