<?xml version="1.0" encoding="utf-8"?>
<!-- Generator: Adobe Illustrator 19.1.0, SVG Export Plug-In . SVG Version: 6.00 Build 0)  -->
<svg version="1.1" xmlns="http://www.w3.org/2000/svg" xmlns:xlink="http://www.w3.org/1999/xlink" x="0px" y="0px" width="24px"
	 height="24px" viewBox="0 0 24 24" enable-background="new 0 0 24 24" xml:space="preserve">
<g id="Bounding_Boxes">
	<g id="ui_x5F_spec_x5F_header_copy_2">
	</g>
	<path fill="none" d="M0,0h24v24H0V0z"/>
</g>
<g id="Rounded_1_">
	<g id="ui_x5F_spec_x5F_header_copy_6">
	</g>
	<path d="M18.89,7.7L12,14.59L6.41,9H10c0.55,0,1-0.45,1-1v0c0-0.55-0.45-1-1-1H4C3.45,7,3,7.45,3,8v6c0,0.55,0.45,1,1,1h0
		c0.55,0,1-0.45,1-1v-3.59l6.29,6.29c0.39,0.39,1.02,0.39,1.41,0l7.59-7.59c0.39-0.39,0.39-1.02,0-1.41v0
		C19.91,7.32,19.27,7.32,18.89,7.7z"/>
</g>
</svg>
