<?xml version="1.0" encoding="utf-8"?>
<!-- Generator: Adobe Illustrator 19.1.0, SVG Export Plug-In . SVG Version: 6.00 Build 0)  -->
<svg version="1.1" xmlns="http://www.w3.org/2000/svg" xmlns:xlink="http://www.w3.org/1999/xlink" x="0px" y="0px" width="24px"
	 height="24px" viewBox="0 0 24 24" enable-background="new 0 0 24 24" xml:space="preserve">
<g id="Bounding_Boxes">
	<g id="ui_x5F_spec_x5F_header_copy_2">
	</g>
	<path fill="none" d="M0,0h24v24H0V0z"/>
</g>
<g id="Rounded_1_">
	<g id="ui_x5F_spec_x5F_header_copy_6">
	</g>
	<path d="M4.51,15.48l2-1.59c0.48-0.38,0.76-0.96,0.76-1.57l0-2.6c3.02-0.98,6.29-0.99,9.32,0l0,2.61c0,0.61,0.28,1.19,0.76,1.57
		l1.99,1.58c0.8,0.63,1.94,0.57,2.66-0.15l1.22-1.22c0.8-0.8,0.8-2.13-0.05-2.88c-6.41-5.66-16.07-5.66-22.48,0
		c-0.85,0.75-0.85,2.08-0.05,2.88l1.22,1.22C2.57,16.05,3.71,16.11,4.51,15.48z"/>
</g>
</svg>
