<?xml version="1.0" encoding="utf-8"?>
<!-- Generator: Adobe Illustrator 19.1.0, SVG Export Plug-In . SVG Version: 6.00 Build 0)  -->
<svg version="1.1" xmlns="http://www.w3.org/2000/svg" xmlns:xlink="http://www.w3.org/1999/xlink" x="0px" y="0px" width="24px"
	 height="24px" viewBox="0 0 24 24" enable-background="new 0 0 24 24" xml:space="preserve">
<g id="Bounding_Boxes">
	<g id="ui_x5F_spec_x5F_header_copy_2">
	</g>
	<path fill="none" d="M0,0h24v24H0V0z"/>
</g>
<g id="Rounded_1_">
	<g id="ui_x5F_spec_x5F_header_copy_6">
	</g>
	<path d="M19.3,4.71L19.3,4.71c-0.39-0.39-1.02-0.39-1.41,0L7,15.59V10c0-0.55-0.45-1-1-1H6c-0.55,0-1,0.45-1,1V18
		c0,0.55,0.45,1,1,1H14c0.55,0,1-0.45,1-1V18c0-0.55-0.45-1-1-1H8.41L19.3,6.11C19.68,5.73,19.68,5.09,19.3,4.71z"/>
</g>
</svg>
