<?xml version="1.0" encoding="utf-8"?>
<!-- Generator: Adobe Illustrator 19.1.0, SVG Export Plug-In . SVG Version: 6.00 Build 0)  -->
<svg version="1.1" xmlns="http://www.w3.org/2000/svg" xmlns:xlink="http://www.w3.org/1999/xlink" x="0px" y="0px" width="24px"
	 height="24px" viewBox="0 0 24 24" enable-background="new 0 0 24 24" xml:space="preserve">
<g id="Bounding_Boxes">
	<g id="ui_x5F_spec_x5F_header_copy_3">
	</g>
	<path fill="none" d="M0,0h24v24H0V0z"/>
</g>
<g id="Rounded">
	<g id="ui_x5F_spec_x5F_header_copy_7">
	</g>
	<path d="M14,5c0-1.1-0.9-2-2-2h-1V2c0-0.55-0.45-1-1-1H6C5.45,1,5,1.45,5,2v1H4C2.9,3,2,3.9,2,5v15c0,1.1,0.9,2,2,2h8
		c1.1,0,2-0.9,2-2h6c1.1,0,2-0.9,2-2V7c0-1.1-0.9-2-2-2H14z M12,18h-2v-2h2V18z M12,9h-2V7h2V9z M16,18h-2v-2h2V18z M16,9h-2V7h2V9z
		 M20,18h-2v-2h2V18z M20,9h-2V7h2V9z"/>
</g>
</svg>
