<?xml version="1.0" encoding="utf-8"?>
<!-- Generator: Adobe Illustrator 19.1.0, SVG Export Plug-In . SVG Version: 6.00 Build 0)  -->
<svg version="1.1" xmlns="http://www.w3.org/2000/svg" xmlns:xlink="http://www.w3.org/1999/xlink" x="0px" y="0px" width="24px"
	 height="24px" viewBox="0 0 24 24" enable-background="new 0 0 24 24" xml:space="preserve">
<g id="Bounding_Boxes">
	<g id="ui_x5F_spec_x5F_header_copy_2">
	</g>
	<path fill="none" d="M0,0h24v24H0V0z"/>
</g>
<g id="Rounded_1_">
	<g id="ui_x5F_spec_x5F_header_copy_6">
	</g>
	<path d="M6,13h12c0.55,0,1-0.45,1-1v0c0-0.55-0.45-1-1-1H6c-0.55,0-1,0.45-1,1v0C5,12.55,5.45,13,6,13z M4,17h12c0.55,0,1-0.45,1-1
		v0c0-0.55-0.45-1-1-1H4c-0.55,0-1,0.45-1,1v0C3,16.55,3.45,17,4,17z M7,8L7,8c0,0.55,0.45,1,1,1h12c0.55,0,1-0.45,1-1v0
		c0-0.55-0.45-1-1-1H8C7.45,7,7,7.45,7,8z"/>
</g>
</svg>
