<?xml version="1.0" encoding="utf-8"?>
<!-- Generator: Adobe Illustrator 19.1.0, SVG Export Plug-In . SVG Version: 6.00 Build 0)  -->
<svg version="1.1" xmlns="http://www.w3.org/2000/svg" xmlns:xlink="http://www.w3.org/1999/xlink" x="0px" y="0px" width="24px"
	 height="24px" viewBox="0 0 24 24" enable-background="new 0 0 24 24" xml:space="preserve">
<g id="Header_x2F_BG" display="none">
	<rect x="-358" y="-226" display="inline" fill="#F1F1F2" width="520" height="520"/>
</g>
<g id="Bounding_Boxes">
	<g id="ui_x5F_spec_x5F_header_copy_3">
	</g>
	<path fill="none" d="M0,0h24v24H0V0z"/>
</g>
<g id="Rounded">
	<g id="ui_x5F_spec_x5F_header_copy_5">
	</g>
	<path d="M8.7,15.9L4.8,12l3.9-3.9c0.39-0.39,0.39-1.01,0-1.4l0,0c-0.39-0.39-1.01-0.39-1.4,0l-4.59,4.59
		c-0.39,0.39-0.39,1.02,0,1.41L7.3,17.3c0.39,0.39,1.01,0.39,1.4,0l0,0C9.09,16.91,9.09,16.29,8.7,15.9z M15.3,15.9l3.9-3.9
		l-3.9-3.9c-0.39-0.39-0.39-1.01,0-1.4l0,0c0.39-0.39,1.01-0.39,1.4,0l4.59,4.59c0.39,0.39,0.39,1.02,0,1.41L16.7,17.3
		c-0.39,0.39-1.01,0.39-1.4,0l0,0C14.91,16.91,14.91,16.29,15.3,15.9z"/>
</g>
<g id="Sharp" display="none">
	<g id="ui_x5F_spec_x5F_header_copy_4" display="inline">
	</g>
	<path display="inline" d="M9.4,16.6L4.8,12l4.6-4.6L8,6l-6,6l6,6L9.4,16.6z M14.6,16.6l4.6-4.6l-4.6-4.6L16,6l6,6l-6,6L14.6,16.6z"
		/>
</g>
<g id="Outline" display="none">
	<g id="ui_x5F_spec_x5F_header" display="inline">
	</g>
	<path display="inline" d="M9.4,16.6L4.8,12l4.6-4.6L8,6l-6,6l6,6L9.4,16.6z M14.6,16.6l4.6-4.6l-4.6-4.6L16,6l6,6l-6,6L14.6,16.6z"
		/>
</g>
<g id="Duotone" display="none">
	<g id="ui_x5F_spec_x5F_header_copy_2" display="inline">
	</g>
	<path display="inline" d="M9.4,16.6L4.8,12l4.6-4.6L8,6l-6,6l6,6L9.4,16.6z M14.6,16.6l4.6-4.6l-4.6-4.6L16,6l6,6l-6,6L14.6,16.6z"
		/>
</g>
<g id="Fill" display="none">
	<g id="ui_x5F_spec_x5F_header_copy" display="inline">
	</g>
	<path display="inline" d="M9.4,16.6L4.8,12l4.6-4.6L8,6l-6,6l6,6L9.4,16.6z M14.6,16.6l4.6-4.6l-4.6-4.6L16,6l6,6l-6,6L14.6,16.6z"
		/>
</g>
<g id="nyt_x5F_exporter_x5F_info" display="none">
</g>
</svg>
