<?xml version="1.0" encoding="utf-8"?>
<!-- Generator: Adobe Illustrator 19.1.0, SVG Export Plug-In . SVG Version: 6.00 Build 0)  -->
<svg version="1.1" xmlns="http://www.w3.org/2000/svg" xmlns:xlink="http://www.w3.org/1999/xlink" x="0px" y="0px" width="24px"
	 height="24px" viewBox="0 0 24 24" enable-background="new 0 0 24 24" xml:space="preserve">
<g id="Bounding_Boxes">
	<g id="ui_x5F_spec_x5F_header_copy_2">
	</g>
	<path fill="none" d="M0,0h24v24H0V0z"/>
</g>
<g id="Rounded_1_">
	<g id="ui_x5F_spec_x5F_header_copy_6">
	</g>
	<path d="M21.99,4c0-1.1-0.89-2-1.99-2H4C2.9,2,2,2.9,2,4v12c0,1.1,0.9,2,2,2h14l4,4L21.99,4z M17,14H7c-0.55,0-1-0.45-1-1v0
		c0-0.55,0.45-1,1-1h10c0.55,0,1,0.45,1,1v0C18,13.55,17.55,14,17,14z M17,11H7c-0.55,0-1-0.45-1-1v0c0-0.55,0.45-1,1-1h10
		c0.55,0,1,0.45,1,1v0C18,10.55,17.55,11,17,11z M17,8H7C6.45,8,6,7.55,6,7v0c0-0.55,0.45-1,1-1h10c0.55,0,1,0.45,1,1v0
		C18,7.55,17.55,8,17,8z"/>
</g>
</svg>
