<?xml version="1.0" encoding="utf-8"?>
<!-- Generator: Adobe Illustrator 19.1.0, SVG Export Plug-In . SVG Version: 6.00 Build 0)  -->
<svg version="1.1" xmlns="http://www.w3.org/2000/svg" xmlns:xlink="http://www.w3.org/1999/xlink" x="0px" y="0px" width="24px"
	 height="24px" viewBox="0 0 24 24" enable-background="new 0 0 24 24" xml:space="preserve">
<g id="Bounding_Boxes">
	<path fill="none" d="M0,0h24v24H0V0z"/>
</g>
<g id="Rounded">
	<g>
		<circle cx="12" cy="17" r="4"/>
		<path d="M12,3C8.49,3,5.28,4.29,2.8,6.41C2.36,6.79,2.32,7.47,2.74,7.89l3.6,3.6c0.36,0.36,0.92,0.39,1.32,0.08
			c1.2-0.94,2.71-1.5,4.34-1.5c1.64,0,3.14,0.56,4.34,1.49c0.4,0.31,0.96,0.28,1.31-0.08l3.6-3.6c0.42-0.42,0.38-1.1-0.07-1.48
			C18.72,4.28,15.51,3,12,3z"/>
	</g>
</g>
</svg>
