<?xml version="1.0" encoding="utf-8"?>
<!-- Generator: Adobe Illustrator 19.1.0, SVG Export Plug-In . SVG Version: 6.00 Build 0)  -->
<svg version="1.1" xmlns="http://www.w3.org/2000/svg" xmlns:xlink="http://www.w3.org/1999/xlink" x="0px" y="0px" width="24px"
	 height="24px" viewBox="0 0 24 24" enable-background="new 0 0 24 24" xml:space="preserve">
<g id="Bounding_Boxes">
	<g id="ui_x5F_spec_x5F_header_copy_2">
	</g>
	<rect fill="none" width="24" height="24"/>
</g>
<g id="Rounded_1_">
	<g>
		<path d="M22,8.54V6c0-1.1-0.9-2-2-2H4C2.9,4,2.01,4.89,2.01,6v2.54c0,0.69,0.33,1.37,0.94,1.69C3.58,10.58,4,11.24,4,12
			c0,0.76-0.43,1.43-1.06,1.76C2.34,14.09,2,14.77,2,15.46V18c0,1.1,0.9,2,2,2h16c1.1,0,2-0.9,2-2v-2.54c0-0.69-0.34-1.37-0.94-1.7
			C20.43,13.42,20,12.76,20,12s0.43-1.42,1.06-1.76C21.66,9.91,22,9.23,22,8.54z M13,17.5h-2v-2h2V17.5z M13,13h-2v-2h2V13z M13,8.5
			h-2v-2h2V8.5z"/>
	</g>
</g>
</svg>
