<?xml version="1.0" encoding="utf-8"?>
<!-- Generator: Adobe Illustrator 19.1.0, SVG Export Plug-In . SVG Version: 6.00 Build 0)  -->
<svg version="1.1" xmlns="http://www.w3.org/2000/svg" xmlns:xlink="http://www.w3.org/1999/xlink" x="0px" y="0px" width="24px"
	 height="24px" viewBox="0 0 24 24" enable-background="new 0 0 24 24" xml:space="preserve">
<g id="Bounding_Boxes">
	<g id="ui_x5F_spec_x5F_header_copy_3">
	</g>
	<path fill="none" d="M0,0h24v24H0V0z"/>
</g>
<g id="Rounded">
	<g id="ui_x5F_spec_x5F_header_copy_7">
	</g>
	<path d="M19,5H5C3.9,5,3,5.9,3,7v10c0,1.1,0.9,2,2,2h14c1.1,0,2-0.9,2-2V7C21,5.9,20.1,5,19,5z M18,17H6c-0.55,0-1-0.45-1-1V8
		c0-0.55,0.45-1,1-1h12c0.55,0,1,0.45,1,1v8C19,16.55,18.55,17,18,17z"/>
</g>
</svg>
