<?xml version="1.0" encoding="utf-8"?>
<!-- Generator: Adobe Illustrator 19.1.0, SVG Export Plug-In . SVG Version: 6.00 Build 0)  -->
<svg version="1.1" xmlns="http://www.w3.org/2000/svg" xmlns:xlink="http://www.w3.org/1999/xlink" x="0px" y="0px" width="24px"
	 height="24px" viewBox="0 0 24 24" enable-background="new 0 0 24 24" xml:space="preserve">
<g id="Bounding_Boxes">
	<g id="ui_x5F_spec_x5F_header_copy_3">
	</g>
	<path fill="none" d="M0,0h24v24H0V0z"/>
</g>
<g id="Rounded">
	<g id="ui_x5F_spec_x5F_header_copy_7">
	</g>
	<path d="M17,15h2V7c0-1.1-0.9-2-2-2H9v2h7c0.55,0,1,0.45,1,1V15z M8,17c-0.55,0-1-0.45-1-1V2c0-0.55-0.45-1-1-1h0
		C5.45,1,5,1.45,5,2v3H2C1.45,5,1,5.45,1,6v0c0,0.55,0.45,1,1,1h3v10c0,1.1,0.9,2,2,2h10v3c0,0.55,0.45,1,1,1h0c0.55,0,1-0.45,1-1
		v-3h3c0.55,0,1-0.45,1-1v0c0-0.55-0.45-1-1-1H8z"/>
</g>
</svg>
