<?xml version="1.0" encoding="utf-8"?>
<!-- Generator: Adobe Illustrator 19.1.0, SVG Export Plug-In . SVG Version: 6.00 Build 0)  -->
<svg version="1.1" xmlns="http://www.w3.org/2000/svg" xmlns:xlink="http://www.w3.org/1999/xlink" x="0px" y="0px" width="24px"
	 height="24px" viewBox="0 0 24 24" enable-background="new 0 0 24 24" xml:space="preserve">
<g id="Bounding_Boxes">
	<g id="ui_x5F_spec_x5F_header_copy_3" display="none">
	</g>
	<path fill="none" d="M0,0h24v24H0V0z"/>
</g>
<g id="Rounded_1_">
	<g id="ui_x5F_spec_x5F_header_copy_6" display="none">
	</g>
	<path d="M16,16h2c0.55,0,1,0.45,1,1v0c0,0.55-0.45,1-1,1h-2c-0.55,0-1-0.45-1-1v0C15,16.45,15.45,16,16,16z M16,8h5
		c0.55,0,1,0.45,1,1v0c0,0.55-0.45,1-1,1h-5c-0.55,0-1-0.45-1-1v0C15,8.45,15.45,8,16,8z M16,12h4c0.55,0,1,0.45,1,1v0
		c0,0.55-0.45,1-1,1h-4c-0.55,0-1-0.45-1-1v0C15,12.45,15.45,12,16,12z M3,18c0,1.1,0.9,2,2,2h6c1.1,0,2-0.9,2-2V8H3V18z M13,5h-2
		l-0.71-0.71C10.11,4.11,9.85,4,9.59,4H6.41C6.15,4,5.89,4.11,5.71,4.29L5,5H3C2.45,5,2,5.45,2,6v0c0,0.55,0.45,1,1,1h10
		c0.55,0,1-0.45,1-1v0C14,5.45,13.55,5,13,5z"/>
</g>
</svg>
