<?xml version="1.0" encoding="utf-8"?>
<!-- Generator: Adobe Illustrator 19.1.0, SVG Export Plug-In . SVG Version: 6.00 Build 0)  -->
<svg version="1.1" xmlns="http://www.w3.org/2000/svg" xmlns:xlink="http://www.w3.org/1999/xlink" x="0px" y="0px" width="24px"
	 height="24px" viewBox="0 0 24 24" enable-background="new 0 0 24 24" xml:space="preserve">
<g id="Bounding_Boxes">
	<g id="ui_x5F_spec_x5F_header_copy_2">
	</g>
	<path fill="none" d="M0,0h24v24H0V0z"/>
</g>
<g id="Rounded_1_">
	<g id="ui_x5F_spec_x5F_header_copy_6">
	</g>
	<g>
		<path d="M0.31,2L0.31,2c-0.39,0.39-0.39,1.02,0,1.41L1,4.09V16c0,1.1,0.9,2,2,2h7v2H9c-0.55,0-1,0.45-1,1v0c0,0.55,0.45,1,1,1h6
			c0.55,0,1-0.45,1-1v0c0-0.55-0.45-1-1-1h-1v-2h0.9l5.29,5.29c0.39,0.39,1.02,0.39,1.41,0l0,0c0.39-0.39,0.39-1.02,0-1.41L1.72,2
			C1.33,1.61,0.7,1.61,0.31,2z M2.99,15V6.09L12.9,16H3.99C3.44,16,2.99,15.55,2.99,15z"/>
		<path d="M4.55,2l2,2H20c0.55,0,1,0.45,1,1v10c0,0.55-0.45,1-1,1h-1.45l2,2h0.44c1.1,0,2-0.9,2-2V4c0-1.1-0.9-2-2-2H4.55z"/>
	</g>
</g>
</svg>
