<?xml version="1.0" encoding="utf-8"?>
<!-- Generator: Adobe Illustrator 19.1.0, SVG Export Plug-In . SVG Version: 6.00 Build 0)  -->
<svg version="1.1" xmlns="http://www.w3.org/2000/svg" xmlns:xlink="http://www.w3.org/1999/xlink" x="0px" y="0px" width="24px"
	 height="24px" viewBox="0 0 24 24" enable-background="new 0 0 24 24" xml:space="preserve">
<g id="Bounding_Boxes" display="none">
	<g id="ui_x5F_spec_x5F_header_copy_3" display="inline">
	</g>
	<path display="inline" fill="none" d="M0,0h24v24H0V0z M0,0h24v24H0V0z"/>
</g>
<g id="Rounded">
	<g id="ui_x5F_spec_x5F_header_copy_6">
	</g>
	<path d="M22,8L22,8c0-0.55-0.45-1-1-1h-1V5c0-1.1-0.9-2-2-2H4C2.9,3,2,3.9,2,5v14c0,1.1,0.9,2,2,2h14c1.1,0,2-0.9,2-2v-2h1
		c0.55,0,1-0.45,1-1v0c0-0.55-0.45-1-1-1h-1v-2h1c0.55,0,1-0.45,1-1v0c0-0.55-0.45-1-1-1h-1V9h1C21.55,9,22,8.55,22,8z M17,19H5
		c-0.55,0-1-0.45-1-1V6c0-0.55,0.45-1,1-1h12c0.55,0,1,0.45,1,1v12C18,18.55,17.55,19,17,19z M6.5,13h4c0.28,0,0.5,0.22,0.5,0.5v3
		c0,0.28-0.22,0.5-0.5,0.5h-4C6.22,17,6,16.78,6,16.5v-3C6,13.22,6.22,13,6.5,13z M12.5,7h3C15.78,7,16,7.22,16,7.5v2
		c0,0.28-0.22,0.5-0.5,0.5h-3C12.22,10,12,9.78,12,9.5v-2C12,7.22,12.22,7,12.5,7z M6.5,7h4C10.78,7,11,7.22,11,7.5v4
		c0,0.28-0.22,0.5-0.5,0.5h-4C6.22,12,6,11.78,6,11.5v-4C6,7.22,6.22,7,6.5,7z M12.5,11h3c0.28,0,0.5,0.22,0.5,0.5v5
		c0,0.28-0.22,0.5-0.5,0.5h-3c-0.28,0-0.5-0.22-0.5-0.5v-5C12,11.22,12.22,11,12.5,11z"/>
</g>
</svg>
