<?xml version="1.0" encoding="utf-8"?>
<!-- Generator: Adobe Illustrator 19.1.0, SVG Export Plug-In . SVG Version: 6.00 Build 0)  -->
<svg version="1.1" xmlns="http://www.w3.org/2000/svg" xmlns:xlink="http://www.w3.org/1999/xlink" x="0px" y="0px" width="24px"
	 height="24px" viewBox="0 0 24 24" enable-background="new 0 0 24 24" xml:space="preserve">
<g id="Bounding_Boxes" display="none">
	<g id="ui_x5F_spec_x5F_header_copy_3" display="inline">
	</g>
	<path display="inline" fill="none" d="M0,0h24v24H0V0z"/>
</g>
<g id="Rounded">
	<g id="ui_x5F_spec_x5F_header_copy_6">
	</g>
	<path d="M3,7c0-0.55,0.45-1,1-1h16c0.55,0,1-0.45,1-1v0c0-0.55-0.45-1-1-1H3C1.9,4,1,4.9,1,6v12c0,1.1,0.9,2,2,2h3
		c0.55,0,1-0.45,1-1v0c0-0.55-0.45-1-1-1H4c-0.55,0-1-0.45-1-1V7z M12,12h-2c-0.55,0-1,0.45-1,1v0.78C8.39,14.33,8,15.11,8,16
		c0,0.89,0.39,1.67,1,2.22V19c0,0.55,0.45,1,1,1h2c0.55,0,1-0.45,1-1v-0.78c0.61-0.55,1-1.34,1-2.22s-0.39-1.67-1-2.22V13
		C13,12.45,12.55,12,12,12z M11,17.5c-0.83,0-1.5-0.67-1.5-1.5s0.67-1.5,1.5-1.5s1.5,0.67,1.5,1.5S11.83,17.5,11,17.5z M22,8h-6
		c-0.5,0-1,0.5-1,1v10c0,0.5,0.5,1,1,1h6c0.5,0,1-0.5,1-1V9C23,8.5,22.5,8,22,8z M21,18h-4v-8h4V18z"/>
</g>
</svg>
