<?xml version="1.0" encoding="utf-8"?>
<!-- Generator: Adobe Illustrator 19.1.0, SVG Export Plug-In . SVG Version: 6.00 Build 0)  -->
<svg version="1.1" xmlns="http://www.w3.org/2000/svg" xmlns:xlink="http://www.w3.org/1999/xlink" x="0px" y="0px" width="24px"
	 height="24px" viewBox="0 0 24 24" enable-background="new 0 0 24 24" xml:space="preserve">
<g id="Bounding_Boxes">
	<g id="ui_x5F_spec_x5F_header_copy_3">
	</g>
	<path fill="none" d="M0,0h24v24H0V0z"/>
</g>
<g id="Rounded">
	<g id="ui_x5F_spec_x5F_header_copy_6">
	</g>
	<path d="M4,7c0-0.55,0.45-1,1-1h16c0.55,0,1-0.45,1-1v0c0-0.55-0.45-1-1-1H4C2.9,4,2,4.9,2,6v11H1.5C0.67,17,0,17.67,0,18.5v0
		C0,19.33,0.67,20,1.5,20H14v-3H4V7z M23,8h-6c-0.55,0-1,0.45-1,1v10c0,0.55,0.45,1,1,1h6c0.55,0,1-0.45,1-1V9C24,8.45,23.55,8,23,8
		z M22,17h-4v-7h4V17z"/>
</g>
</svg>
