<?xml version="1.0" encoding="utf-8"?>
<!-- Generator: Adobe Illustrator 19.1.0, SVG Export Plug-In . SVG Version: 6.00 Build 0)  -->
<svg version="1.1" xmlns="http://www.w3.org/2000/svg" xmlns:xlink="http://www.w3.org/1999/xlink" x="0px" y="0px" width="24px"
	 height="24px" viewBox="0 0 24 24" enable-background="new 0 0 24 24" xml:space="preserve">
<g id="Bounding_Boxes" display="none">
	<g id="ui_x5F_spec_x5F_header_copy_3" display="inline">
	</g>
	<path display="inline" fill="none" d="M0,0h24v24H0V0z"/>
	<path display="inline" fill="none" d="M0,0h24v24H0V0z"/>
</g>
<g id="Rounded">
	<g id="ui_x5F_spec_x5F_header_copy_6">
	</g>
	<g>
		<path d="M17,16l-4-4V8.82c1.35-0.49,2.26-1.89,1.93-3.46c-0.25-1.18-1.23-2.12-2.42-2.32C10.63,2.73,9,4.17,9,6
			c0,1.3,0.84,2.4,2,2.82V12l-4,4H4c-0.55,0-1,0.45-1,1v3c0,0.55,0.45,1,1,1h3c0.55,0,1-0.45,1-1v-2.05l4-4.2l4,4.2V20
			c0,0.55,0.45,1,1,1h3c0.55,0,1-0.45,1-1v-3c0-0.55-0.45-1-1-1H17z"/>
	</g>
</g>
</svg>
