<?xml version="1.0" encoding="utf-8"?>
<!-- Generator: Adobe Illustrator 19.1.0, SVG Export Plug-In . SVG Version: 6.00 Build 0)  -->
<svg version="1.1" xmlns="http://www.w3.org/2000/svg" xmlns:xlink="http://www.w3.org/1999/xlink" x="0px" y="0px" width="24px"
	 height="24px" viewBox="0 0 24 24" enable-background="new 0 0 24 24" xml:space="preserve">
<g id="Bounding_Boxes">
	<path fill="none" d="M0,0h24v24H0V0z"/>
</g>
<g id="Rounded">
	<path d="M21.71,11.29l-9-9c-0.39-0.39-1.02-0.39-1.41,0l-9,9c-0.39,0.39-0.39,1.02,0,1.41l9,9c0.39,0.39,1.02,0.39,1.41,0l9-9
		C22.1,12.32,22.1,11.69,21.71,11.29z M14,14.5V12h-4v2c0,0.55-0.45,1-1,1h0c-0.55,0-1-0.45-1-1v-3c0-0.55,0.45-1,1-1h5V7.5
		l3.15,3.15c0.2,0.2,0.2,0.51,0,0.71L14,14.5z"/>
</g>
</svg>
