<?xml version="1.0" encoding="utf-8"?>
<!-- Generator: Adobe Illustrator 19.1.0, SVG Export Plug-In . SVG Version: 6.00 Build 0)  -->
<svg version="1.1" xmlns="http://www.w3.org/2000/svg" xmlns:xlink="http://www.w3.org/1999/xlink" x="0px" y="0px" width="24px"
	 height="24px" viewBox="0 0 24 24" enable-background="new 0 0 24 24" xml:space="preserve">
<g id="Bounding_Boxes">
	<path fill="none" d="M0,0h24v24H0V0z"/>
</g>
<g id="Rounded">
	<path d="M15.5,5.5c1.1,0,2-0.9,2-2s-0.9-2-2-2s-2,0.9-2,2S14.4,5.5,15.5,5.5z M5,12c-2.8,0-5,2.2-5,5s2.2,5,5,5s5-2.2,5-5
		S7.8,12,5,12z M5,20.5c-1.9,0-3.5-1.6-3.5-3.5s1.6-3.5,3.5-3.5s3.5,1.6,3.5,3.5S6.9,20.5,5,20.5z M10.8,10.5l2.4-2.4L14,8.9
		c1.06,1.06,2.38,1.78,3.96,2.02c0.6,0.09,1.14-0.39,1.14-1v0c0-0.49-0.37-0.91-0.85-0.99c-1.11-0.18-2.02-0.71-2.75-1.43l-1.9-1.9
		C13.1,5.2,12.6,5,12,5s-1.1,0.2-1.4,0.6L7.8,8.4C7.4,8.8,7.2,9.3,7.2,9.8c0,0.6,0.2,1.1,0.6,1.4L11,14v4c0,0.55,0.45,1,1,1h0
		c0.55,0,1-0.45,1-1v-4.4c0-0.52-0.2-1.01-0.55-1.38L10.8,10.5z M19,12c-2.8,0-5,2.2-5,5s2.2,5,5,5s5-2.2,5-5S21.8,12,19,12z
		 M19,20.5c-1.9,0-3.5-1.6-3.5-3.5s1.6-3.5,3.5-3.5s3.5,1.6,3.5,3.5S20.9,20.5,19,20.5z"/>
</g>
</svg>
