<?xml version="1.0" encoding="utf-8"?>
<!-- Generator: Adobe Illustrator 19.1.0, SVG Export Plug-In . SVG Version: 6.00 Build 0)  -->
<svg version="1.1" xmlns="http://www.w3.org/2000/svg" xmlns:xlink="http://www.w3.org/1999/xlink" x="0px" y="0px" width="24px"
	 height="24px" viewBox="0 0 24 24" enable-background="new 0 0 24 24" xml:space="preserve">
<g id="Bounding_Boxes">
	<path fill="none" d="M0,0h24v24H0V0z"/>
</g>
<g id="Rounded">
	<path d="M4,15.5C4,17.43,5.57,19,7.5,19L6,20.5V21h12v-0.5L16.5,19c1.93,0,3.5-1.57,3.5-3.5V5c0-3.5-3.58-4-8-4S4,1.5,4,5V15.5z
		 M12,17c-1.1,0-2-0.9-2-2s0.9-2,2-2s2,0.9,2,2S13.1,17,12,17z M18,10H6V5h12V10z"/>
	<path d="M4,15.5C4,17.43,5.57,19,7.5,19l-1.14,1.15C6.04,20.46,6.26,21,6.71,21l10.58,0c0.45,0,0.67-0.54,0.35-0.85L16.5,19
		c1.93,0,3.5-1.57,3.5-3.5V5c0-3.5-3.58-4-8-4S4,1.5,4,5V15.5z M12,17c-1.1,0-2-0.9-2-2s0.9-2,2-2s2,0.9,2,2S13.1,17,12,17z M18,10
		H6V5h12V10z"/>
</g>
</svg>
