<?xml version="1.0" encoding="utf-8"?>
<!-- Generator: Adobe Illustrator 19.1.0, SVG Export Plug-In . SVG Version: 6.00 Build 0)  -->
<svg version="1.1" xmlns="http://www.w3.org/2000/svg" xmlns:xlink="http://www.w3.org/1999/xlink" x="0px" y="0px" width="24px"
	 height="24px" viewBox="0 0 24 24" enable-background="new 0 0 24 24" xml:space="preserve">
<g id="Bounding_Boxes">
	<g id="ui_x5F_spec_x5F_header_copy_2">
	</g>
	<path fill="none" d="M0,0h24v24H0V0z"/>
</g>
<g id="Rounded_1_">
	<g id="ui_x5F_spec_x5F_header_copy_6">
	</g>
	<g>
		<path d="M0.71,2.39L0.71,2.39c-0.39,0.39-0.39,1.02,0,1.41L2,5.1V19c0,1.1,0.9,2,2,2h13.9l2.29,2.29c0.39,0.39,1.02,0.39,1.41,0
			l0,0c0.39-0.39,0.39-1.02,0-1.41L2.12,2.39C1.73,2,1.1,2,0.71,2.39z M6,19H4v-2h2V19z M6,15H4v-2h2V15z M4,11V9h2v2H4z M10,19H8
			v-2h2V19z M8,15v-2h2v2H8z M12,19v-2h1.9l2,2H12z"/>
		<path d="M8,5h2v2H9.55L12,9.45V9h7c0.55,0,1,0.45,1,1v7.45l2,2V9c0-1.1-0.9-2-2-2h-8V5c0-1.1-0.9-2-2-2H5.55L8,5.45V5z"/>
		<rect x="16" y="11" width="2" height="2"/>
	</g>
</g>
</svg>
