<?xml version="1.0" encoding="utf-8"?>
<!-- Generator: Adobe Illustrator 19.1.0, SVG Export Plug-In . SVG Version: 6.00 Build 0)  -->
<svg version="1.1" xmlns="http://www.w3.org/2000/svg" xmlns:xlink="http://www.w3.org/1999/xlink" x="0px" y="0px" width="24px"
	 height="24px" viewBox="0 0 24 24" enable-background="new 0 0 24 24" xml:space="preserve">
<g id="Bounding_Boxes">
	<g id="ui_x5F_spec_x5F_header_copy_2">
	</g>
	<path fill="none" d="M0,0h24v24H0V0z"/>
	<path fill="none" d="M0,0h24v24H0V0z"/>
</g>
<g id="Rounded_1_">
	<path d="M18,8h-1V6c0-2.76-2.24-5-5-5S7,3.24,7,6v2H6c-1.1,0-2,0.9-2,2v10c0,1.1,0.9,2,2,2h12c1.1,0,2-0.9,2-2V10
		C20,8.9,19.1,8,18,8z M8.9,6c0-1.71,1.39-3.1,3.1-3.1s3.1,1.39,3.1,3.1v2H8.9V6z M15,16h-2v2c0,0.55-0.45,1-1,1h0
		c-0.55,0-1-0.45-1-1v-2H9c-0.55,0-1-0.45-1-1v0c0-0.55,0.45-1,1-1h2v-2c0-0.55,0.45-1,1-1h0c0.55,0,1,0.45,1,1v2h2
		c0.55,0,1,0.45,1,1v0C16,15.55,15.55,16,15,16z"/>
</g>
</svg>
