<?xml version="1.0" encoding="utf-8"?>
<!-- Generator: Adobe Illustrator 19.1.0, SVG Export Plug-In . SVG Version: 6.00 Build 0)  -->
<svg version="1.1" xmlns="http://www.w3.org/2000/svg" xmlns:xlink="http://www.w3.org/1999/xlink" x="0px" y="0px" width="24px"
	 height="24px" viewBox="0 0 24 24" enable-background="new 0 0 24 24" xml:space="preserve">
<g id="Bounding_Boxes" display="none">
	<path display="inline" fill="none" d="M0,0h24v24H0V0z"/>
</g>
<g id="Rounded">
	<path d="M12,20L12,20c1.1,0,2-0.9,2-2V6c0-1.1-0.9-2-2-2h0c-1.1,0-2,0.9-2,2v12C10,19.1,10.9,20,12,20z M6,20L6,20c1.1,0,2-0.9,2-2
		v-4c0-1.1-0.9-2-2-2h0c-1.1,0-2,0.9-2,2v4C4,19.1,4.9,20,6,20z M16,11v7c0,1.1,0.9,2,2,2h0c1.1,0,2-0.9,2-2v-7c0-1.1-0.9-2-2-2h0
		C16.9,9,16,9.9,16,11z"/>
</g>
</svg>
