<?xml version="1.0" encoding="utf-8"?>
<!-- Generator: Adobe Illustrator 19.1.0, SVG Export Plug-In . SVG Version: 6.00 Build 0)  -->
<svg version="1.1" xmlns="http://www.w3.org/2000/svg" xmlns:xlink="http://www.w3.org/1999/xlink" x="0px" y="0px" width="24px"
	 height="24px" viewBox="0 0 24 24" enable-background="new 0 0 24 24" xml:space="preserve">
<g id="Bounding_Boxes" display="none">
	<rect display="inline" fill="none" width="24" height="24"/>
	<rect display="inline" fill="none" width="24" height="24"/>
	<rect display="inline" fill="none" width="24" height="24"/>
</g>
<g id="Rounded">
	<path d="M5.58,16.89l5.77-4.07c0.56-0.4,0.56-1.24,0-1.63L5.58,7.11C4.91,6.65,4,7.12,4,7.93v8.14C4,16.88,4.91,17.35,5.58,16.89z
		 M13,7.93v8.14c0,0.81,0.91,1.28,1.58,0.82l5.77-4.07c0.56-0.4,0.56-1.24,0-1.63l-5.77-4.07C13.91,6.65,13,7.12,13,7.93z"/>
</g>
</svg>
