<?xml version="1.0" encoding="utf-8"?>
<!-- Generator: Adobe Illustrator 19.1.0, SVG Export Plug-In . SVG Version: 6.00 Build 0)  -->
<svg version="1.1" xmlns="http://www.w3.org/2000/svg" xmlns:xlink="http://www.w3.org/1999/xlink" x="0px" y="0px" width="24px"
	 height="24px" viewBox="0 0 24 24" enable-background="new 0 0 24 24" xml:space="preserve">
<g id="Bounding_Boxes" display="none">
	<path display="inline" fill="none" d="M0,0h24v24H0V0z"/>
</g>
<g id="Rounded">
	<path d="M11,16.07V7.93c0-0.81-0.91-1.28-1.58-0.82l-5.77,4.07c-0.56,0.4-0.56,1.24,0,1.63l5.77,4.07
		C10.09,17.35,11,16.88,11,16.07z M12.66,12.82l5.77,4.07c0.66,0.47,1.58-0.01,1.58-0.82V7.93c0-0.81-0.91-1.28-1.58-0.82
		l-5.77,4.07C12.09,11.58,12.09,12.42,12.66,12.82z"/>
</g>
</svg>
