<?xml version="1.0" encoding="utf-8"?>
<!-- Generator: Adobe Illustrator 19.1.0, SVG Export Plug-In . SVG Version: 6.00 Build 0)  -->
<svg version="1.1" xmlns="http://www.w3.org/2000/svg" xmlns:xlink="http://www.w3.org/1999/xlink" x="0px" y="0px" width="24px"
	 height="24px" viewBox="0 0 24 24" enable-background="new 0 0 24 24" xml:space="preserve">
<g id="Bounding_Boxes">
	<g id="ui_x5F_spec_x5F_header_copy_3" display="none">
	</g>
	<path fill="none" d="M0,0h24v24H0V0z"/>
</g>
<g id="Rounded_1_">
	<g id="ui_x5F_spec_x5F_header_copy_6" display="none">
	</g>
	<path d="M11,18h2c0.55,0,1-0.45,1-1v0c0-0.55-0.45-1-1-1h-2c-0.55,0-1,0.45-1,1v0C10,17.55,10.45,18,11,18z M3,7L3,7
		c0,0.55,0.45,1,1,1h16c0.55,0,1-0.45,1-1v0c0-0.55-0.45-1-1-1H4C3.45,6,3,6.45,3,7z M7,13h10c0.55,0,1-0.45,1-1v0
		c0-0.55-0.45-1-1-1H7c-0.55,0-1,0.45-1,1v0C6,12.55,6.45,13,7,13z"/>
</g>
</svg>
