<?xml version="1.0" encoding="utf-8"?>
<!-- Generator: Adobe Illustrator 19.1.0, SVG Export Plug-In . SVG Version: 6.00 Build 0)  -->
<svg version="1.1" xmlns="http://www.w3.org/2000/svg" xmlns:xlink="http://www.w3.org/1999/xlink" x="0px" y="0px" width="24px"
	 height="24px" viewBox="0 0 24 24" enable-background="new 0 0 24 24" xml:space="preserve">
<g id="Bounding_Boxes">
	<g id="ui_x5F_spec_x5F_header_copy_3">
	</g>
	<path fill="none" d="M0,0h24v24H0V0z"/>
</g>
<g id="Rounded">
	<g id="ui_x5F_spec_x5F_header_copy_7">
	</g>
	<path d="M13.2,7.07L10.25,11l2.25,3c0.33,0.44,0.24,1.07-0.2,1.4l0,0c-0.44,0.33-1.07,0.25-1.4-0.2c-1.05-1.4-2.31-3.07-3.1-4.14
		c-0.4-0.53-1.2-0.53-1.6,0l-4,5.33C1.71,17.06,2.18,18,3,18h18c0.82,0,1.29-0.94,0.8-1.6l-7-9.33C14.4,6.53,13.6,6.53,13.2,7.07z"
		/>
</g>
</svg>
