<?xml version="1.0" encoding="utf-8"?>
<!-- Generator: Adobe Illustrator 19.1.0, SVG Export Plug-In . SVG Version: 6.00 Build 0)  -->
<svg version="1.1" xmlns="http://www.w3.org/2000/svg" xmlns:xlink="http://www.w3.org/1999/xlink" x="0px" y="0px" width="24px"
	 height="24px" viewBox="0 0 24 24" enable-background="new 0 0 24 24" xml:space="preserve">
<g id="Bounding_Boxes">
	<g id="ui_x5F_spec_x5F_header_copy_3">
	</g>
	<rect fill="none" width="24" height="24"/>
</g>
<g id="Rounded">
	<g id="ui_x5F_spec_x5F_header_copy_7">
	</g>
	<path d="M20,4h-4l-3.29-3.29c-0.39-0.39-1.02-0.39-1.41,0L8,4H4C2.9,4,2,4.9,2,6v14c0,1.1,0.9,2,2,2h16c1.1,0,2-0.9,2-2V6
		C22,4.9,21.1,4,20,4z M19,20H5c-0.55,0-1-0.45-1-1V7c0-0.55,0.45-1,1-1h3.52l3.52-3.5L15.52,6H19c0.55,0,1,0.45,1,1v12
		C20,19.55,19.55,20,19,20z M17,8H7C6.45,8,6,8.45,6,9v8c0,0.55,0.45,1,1,1h10c0.55,0,1-0.45,1-1V9C18,8.45,17.55,8,17,8z"/>
</g>
</svg>
