<?xml version="1.0" encoding="utf-8"?>
<!-- Generator: Adobe Illustrator 19.1.0, SVG Export Plug-In . SVG Version: 6.00 Build 0)  -->
<svg version="1.1" xmlns="http://www.w3.org/2000/svg" xmlns:xlink="http://www.w3.org/1999/xlink" x="0px" y="0px" width="24px"
	 height="24px" viewBox="0 0 24 24" enable-background="new 0 0 24 24" xml:space="preserve">
<g id="Bounding_Boxes">
	<g id="ui_x5F_spec_x5F_header_copy_3">
	</g>
	<path fill="none" d="M0,0h24v24H0V0z"/>
</g>
<g id="Rounded">
	<g id="ui_x5F_spec_x5F_header_copy_7">
	</g>
	<path d="M4,15L4,15c-0.55,0-1,0.45-1,1v3c0,1.1,0.9,2,2,2h3c0.55,0,1-0.45,1-1v0c0-0.55-0.45-1-1-1H6c-0.55,0-1-0.45-1-1v-2
		C5,15.45,4.55,15,4,15z M5,6c0-0.55,0.45-1,1-1h2c0.55,0,1-0.45,1-1v0c0-0.55-0.45-1-1-1H5C3.9,3,3,3.9,3,5v3c0,0.55,0.45,1,1,1h0
		c0.55,0,1-0.45,1-1V6z M19,3h-3c-0.55,0-1,0.45-1,1v0c0,0.55,0.45,1,1,1h2c0.55,0,1,0.45,1,1v2c0,0.55,0.45,1,1,1h0
		c0.55,0,1-0.45,1-1V5C21,3.9,20.1,3,19,3z M19,18c0,0.55-0.45,1-1,1h-2c-0.55,0-1,0.45-1,1v0c0,0.55,0.45,1,1,1h3c1.1,0,2-0.9,2-2
		v-3c0-0.55-0.45-1-1-1h0c-0.55,0-1,0.45-1,1V18z M12,9c-1.66,0-3,1.34-3,3s1.34,3,3,3s3-1.34,3-3S13.66,9,12,9z"/>
</g>
</svg>
