<?xml version="1.0" encoding="utf-8"?>
<!-- Generator: Adobe Illustrator 19.1.0, SVG Export Plug-In . SVG Version: 6.00 Build 0)  -->
<svg version="1.1" xmlns="http://www.w3.org/2000/svg" xmlns:xlink="http://www.w3.org/1999/xlink" x="0px" y="0px" width="24px"
	 height="24px" viewBox="0 0 24 24" enable-background="new 0 0 24 24" xml:space="preserve">
<g id="Bounding_Boxes">
	<g id="ui_x5F_spec_x5F_header_copy_3">
	</g>
	<path fill="none" d="M0,0h24v24H0V0z"/>
</g>
<g id="Rounded">
	<g id="ui_x5F_spec_x5F_header_copy_7">
	</g>
	<path d="M2,5L2,5C1.45,5,1,5.45,1,6v15c0,1.1,0.9,2,2,2h15c0.55,0,1-0.45,1-1v0c0-0.55-0.45-1-1-1H4c-0.55,0-1-0.45-1-1V6
		C3,5.45,2.55,5,2,5z M21,1H7C5.9,1,5,1.9,5,3v14c0,1.1,0.9,2,2,2h14c1.1,0,2-0.9,2-2V3C23,1.9,22.1,1,21,1z M20,17H8
		c-0.55,0-1-0.45-1-1V4c0-0.55,0.45-1,1-1h12c0.55,0,1,0.45,1,1v12C21,16.55,20.55,17,20,17z M13,15h2c1.1,0,2-0.9,2-2v-2
		c0-1.1-0.9-2-2-2h-2V7h3c0.55,0,1-0.45,1-1v0c0-0.55-0.45-1-1-1h-3c-1.1,0-2,0.9-2,2v6C11,14.1,11.9,15,13,15z M13,11h2v2h-2V11z"
		/>
</g>
</svg>
