<?xml version="1.0" encoding="utf-8"?>
<!-- Generator: Adobe Illustrator 19.1.0, SVG Export Plug-In . SVG Version: 6.00 Build 0)  -->
<svg version="1.1" xmlns="http://www.w3.org/2000/svg" xmlns:xlink="http://www.w3.org/1999/xlink" x="0px" y="0px" width="24px"
	 height="24px" viewBox="0 0 24 24" enable-background="new 0 0 24 24" xml:space="preserve">
<g id="Bounding_Boxes">
	<path opacity="0.87" fill="none" d="M24,0v24H0V0H24z"/>
</g>
<g id="Rounded">
	<path d="M17.7,15.89L13.82,12l3.89-3.89c0.39-0.39,0.39-1.02,0-1.41v0c-0.39-0.39-1.02-0.39-1.41,0l-4.59,4.59
		c-0.39,0.39-0.39,1.02,0,1.41l4.59,4.59c0.39,0.39,1.02,0.39,1.41,0l0,0C18.09,16.91,18.09,16.27,17.7,15.89z M7,6L7,6
		c0.55,0,1,0.45,1,1v10c0,0.55-0.45,1-1,1h0c-0.55,0-1-0.45-1-1V7C6,6.45,6.45,6,7,6z"/>
</g>
</svg>
