<?xml version="1.0" encoding="utf-8"?>
<!-- Generator: Adobe Illustrator 19.1.0, SVG Export Plug-In . SVG Version: 6.00 Build 0)  -->
<svg version="1.1" xmlns="http://www.w3.org/2000/svg" xmlns:xlink="http://www.w3.org/1999/xlink" x="0px" y="0px" width="24px"
	 height="24px" viewBox="0 0 24 24" enable-background="new 0 0 24 24" xml:space="preserve">
<g id="Bounding_Boxes">
	<path fill="none" d="M0,0h24v24H0V0z"/>
</g>
<g id="Rounded">
	<path d="M20.57,14.86l0.72-0.72c0.39-0.39,0.39-1.02,0-1.41l-0.02-0.02c-0.39-0.39-1.02-0.39-1.41,0L17,15.57L8.43,7l2.86-2.86
		c0.39-0.39,0.39-1.02,0-1.41l-0.02-0.02c-0.39-0.39-1.02-0.39-1.41,0L9.14,3.43L8.42,2.71C8.03,2.32,7.39,2.32,7,2.71L5.57,4.14
		L4.85,3.42c-0.39-0.39-1.04-0.39-1.43,0l0,0c-0.39,0.39-0.39,1.04,0,1.43l0.72,0.72L2.71,7c-0.39,0.39-0.39,1.02,0,1.41l0.72,0.72
		L2.71,9.86c-0.39,0.39-0.39,1.02,0,1.41l0.02,0.02c0.39,0.39,1.02,0.39,1.41,0L7,8.43L15.57,17l-2.86,2.86
		c-0.39,0.39-0.39,1.02,0,1.41l0.02,0.02c0.39,0.39,1.02,0.39,1.41,0l0.72-0.72l0.72,0.72c0.39,0.39,1.02,0.39,1.41,0l1.43-1.43
		l0.72,0.72c0.39,0.39,1.04,0.39,1.43,0l0,0c0.39-0.39,0.39-1.04,0-1.43l-0.72-0.72L21.29,17c0.39-0.39,0.39-1.02,0-1.41
		L20.57,14.86z"/>
</g>
</svg>
