<?xml version="1.0" encoding="utf-8"?>
<!-- Generator: Adobe Illustrator 19.1.0, SVG Export Plug-In . SVG Version: 6.00 Build 0)  -->
<svg version="1.1" xmlns="http://www.w3.org/2000/svg" xmlns:xlink="http://www.w3.org/1999/xlink" x="0px" y="0px" width="24px"
	 height="24px" viewBox="0 0 24 24" enable-background="new 0 0 24 24" xml:space="preserve">
<g id="Bounding_Boxes">
	<g id="ui_x5F_spec_x5F_header_copy_3">
	</g>
	<path fill="none" d="M0,0h24v24H0V0z"/>
</g>
<g id="Rounded">
	<g id="ui_x5F_spec_x5F_header_copy_7">
	</g>
	<g>
		<path d="M16.12,11.5c0.39-0.67-0.09-1.5-0.86-1.5h-1.87l2.28,2.28L16.12,11.5z"/>
		<path d="M16.28,3.45C16.61,2.78,16.13,2,15.38,2H8C7.45,2,7,2.45,7,3v0.61l6.13,6.13L16.28,3.45z"/>
		<path d="M18.44,17.88L4.12,3.56c-0.39-0.39-1.02-0.39-1.41,0c-0.39,0.39-0.39,1.02,0,1.41L7,9.27V12c0,0.55,0.45,1,1,1h2v7.15
			c0,0.51,0.67,0.69,0.93,0.25l2.65-4.55l3.44,3.44c0.39,0.39,1.02,0.39,1.41,0v0C18.83,18.9,18.83,18.27,18.44,17.88z"/>
	</g>
</g>
</svg>
