<?xml version="1.0" encoding="utf-8"?>
<!-- Generator: Adobe Illustrator 19.1.0, SVG Export Plug-In . SVG Version: 6.00 Build 0)  -->
<svg version="1.1" xmlns="http://www.w3.org/2000/svg" xmlns:xlink="http://www.w3.org/1999/xlink" x="0px" y="0px" width="24px"
	 height="24px" viewBox="0 0 24 24" enable-background="new 0 0 24 24" xml:space="preserve">
<g id="Bounding_Boxes">
	<g id="ui_x5F_spec_x5F_header_copy_3">
	</g>
	<path fill="none" d="M0,0h24v24H0V0z"/>
</g>
<g id="Rounded">
	<g id="ui_x5F_spec_x5F_header_copy_7">
	</g>
	<path d="M15,21h2v-2h-2V21z M19,9h2V7h-2V9z M3,5v14c0,1.1,0.9,2,2,2h3c0.55,0,1-0.45,1-1v0c0-0.55-0.45-1-1-1H6
		c-0.55,0-1-0.45-1-1V6c0-0.55,0.45-1,1-1h2c0.55,0,1-0.45,1-1v0c0-0.55-0.45-1-1-1H5C3.9,3,3,3.9,3,5z M19,3v2h2
		C21,3.9,20.1,3,19,3z M12,23L12,23c0.55,0,1-0.45,1-1V2c0-0.55-0.45-1-1-1h0c-0.55,0-1,0.45-1,1v20C11,22.55,11.45,23,12,23z
		 M19,17h2v-2h-2V17z M15,5h2V3h-2V5z M19,13h2v-2h-2V13z M19,21c1.1,0,2-0.9,2-2h-2V21z"/>
</g>
</svg>
