<?xml version="1.0" encoding="utf-8"?>
<!-- Generator: Adobe Illustrator 19.1.0, SVG Export Plug-In . SVG Version: 6.00 Build 0)  -->
<svg version="1.1" xmlns="http://www.w3.org/2000/svg" xmlns:xlink="http://www.w3.org/1999/xlink" x="0px" y="0px" width="24px"
	 height="24px" viewBox="0 0 24 24" enable-background="new 0 0 24 24" xml:space="preserve">
<g id="Bounding_Boxes">
	<g id="ui_x5F_spec_x5F_header_copy_3">
	</g>
	<path fill="none" d="M0,0h24v24H0V0z"/>
</g>
<g id="Rounded">
	<g id="ui_x5F_spec_x5F_header_copy_6">
	</g>
	<g>
		<path fill-opacity="0.36" d="M2,20h20c1.1,0,2,0.9,2,2v0c0,1.1-0.9,2-2,2H2c-1.1,0-2-0.9-2-2v0C0,20.9,0.9,20,2,20z"/>
		<path d="M10.63,3.93L6.06,15.58C5.79,16.26,6.29,17,7.03,17h0c0.43,0,0.82-0.27,0.98-0.68L8.87,14h6.25l0.87,2.32
			c0.15,0.41,0.54,0.68,0.98,0.68h0c0.73,0,1.24-0.74,0.97-1.42L13.37,3.93C13.14,3.37,12.6,3,12,3h0C11.4,3,10.85,3.37,10.63,3.93z
			 M9.62,12L12,5.67L14.38,12H9.62z"/>
	</g>
</g>
</svg>
