<?xml version="1.0" encoding="utf-8"?>
<!-- Generator: Adobe Illustrator 19.1.0, SVG Export Plug-In . SVG Version: 6.00 Build 0)  -->
<svg version="1.1" xmlns="http://www.w3.org/2000/svg" xmlns:xlink="http://www.w3.org/1999/xlink" x="0px" y="0px" width="24px"
	 height="24px" viewBox="0 0 24 24" enable-background="new 0 0 24 24" xml:space="preserve">
<g id="Bounding_Boxes">
	<g id="ui_x5F_spec_x5F_header_copy_3">
	</g>
	<path fill="none" d="M0,0h24v24H0V0z"/>
</g>
<g id="Rounded">
	<g id="ui_x5F_spec_x5F_header_copy_6">
	</g>
	<path d="M9,10v4c0,0.55,0.45,1,1,1h0c0.55,0,1-0.45,1-1V4h2v10c0,0.55,0.45,1,1,1h0c0.55,0,1-0.45,1-1V4h1c0.55,0,1-0.45,1-1v0
		c0-0.55-0.45-1-1-1L9.17,2C7.08,2,5.22,3.53,5.02,5.61C4.79,7.99,6.66,10,9,10z M20.65,17.65l-2.79-2.79
		C17.54,14.54,17,14.76,17,15.21V17H6c-0.55,0-1,0.45-1,1v0c0,0.55,0.45,1,1,1h11v1.79c0,0.45,0.54,0.67,0.85,0.35l2.79-2.79
		C20.84,18.16,20.84,17.84,20.65,17.65z"/>
</g>
</svg>
