<?xml version="1.0" encoding="utf-8"?>
<!-- Generator: Adobe Illustrator 19.1.0, SVG Export Plug-In . SVG Version: 6.00 Build 0)  -->
<svg version="1.1" xmlns="http://www.w3.org/2000/svg" xmlns:xlink="http://www.w3.org/1999/xlink" x="0px" y="0px" width="24px"
	 height="24px" viewBox="0 0 24 24" enable-background="new 0 0 24 24" xml:space="preserve">
<g id="Bounding_Boxes">
	<g id="ui_x5F_spec_x5F_header_copy_3">
	</g>
	<path fill="none" d="M0,0h24v24H0V0z"/>
</g>
<g id="Rounded">
	<g id="ui_x5F_spec_x5F_header_copy_6">
	</g>
	<path d="M9,5.5L9,5.5C9,6.33,9.67,7,10.5,7H14v10.5c0,0.83,0.67,1.5,1.5,1.5h0c0.83,0,1.5-0.67,1.5-1.5V7h3.5
		C21.33,7,22,6.33,22,5.5v0C22,4.67,21.33,4,20.5,4h-10C9.67,4,9,4.67,9,5.5z M4.5,12H6v5.5C6,18.33,6.67,19,7.5,19h0
		C8.33,19,9,18.33,9,17.5V12h1.5c0.83,0,1.5-0.67,1.5-1.5v0C12,9.67,11.33,9,10.5,9h-6C3.67,9,3,9.67,3,10.5v0
		C3,11.33,3.67,12,4.5,12z"/>
</g>
</svg>
