<?xml version="1.0" encoding="utf-8"?>
<!-- Generator: Adobe Illustrator 19.1.0, SVG Export Plug-In . SVG Version: 6.00 Build 0)  -->
<svg version="1.1" xmlns="http://www.w3.org/2000/svg" xmlns:xlink="http://www.w3.org/1999/xlink" x="0px" y="0px" width="24px"
	 height="24px" viewBox="0 0 24 24" enable-background="new 0 0 24 24" xml:space="preserve">
<g id="Bounding_Boxes">
	<g id="ui_x5F_spec_x5F_header_copy_3">
	</g>
	<path fill="none" d="M0,0h24v24H0V0z"/>
</g>
<g id="Rounded">
	<g id="ui_x5F_spec_x5F_header_copy_6">
	</g>
	<g>
		<path d="M18.5,8C19.33,8,20,7.33,20,6.5S19.33,5,18.5,5H6.39l3,3h1.83l-0.55,1.28l2.09,2.09L14.21,8H18.5z"/>
		<path d="M17.44,18.88L4.12,5.56c-0.39-0.39-1.02-0.39-1.41,0c-0.39,0.39-0.39,1.02,0,1.41l6.26,6.26l-1.65,3.84
			C6.93,17.99,7.6,19,8.59,19c0.55,0,1.05-0.33,1.27-0.84l1.21-2.83l4.95,4.95c0.39,0.39,1.02,0.39,1.41,0v0
			C17.83,19.9,17.83,19.27,17.44,18.88z"/>
	</g>
</g>
</svg>
