<?xml version="1.0" encoding="utf-8"?>
<!-- Generator: Adobe Illustrator 19.1.0, SVG Export Plug-In . SVG Version: 6.00 Build 0)  -->
<svg version="1.1" xmlns="http://www.w3.org/2000/svg" xmlns:xlink="http://www.w3.org/1999/xlink" x="0px" y="0px" width="24px"
	 height="24px" viewBox="0 0 24 24" enable-background="new 0 0 24 24" xml:space="preserve">
<g id="Bounding_Boxes">
	<g id="ui_x5F_spec_x5F_header_copy_2">
	</g>
	<path fill="none" d="M0,0h24v24H0V0z"/>
</g>
<g id="Rounded_1_">
	<g id="ui_x5F_spec_x5F_header_copy_6">
	</g>
	<path d="M20,6h-1v8c0,0.55-0.45,1-1,1H6v1c0,1.1,0.9,2,2,2h10l4,4V8C22,6.9,21.1,6,20,6z M17,11V4c0-1.1-0.9-2-2-2H4
		C2.9,2,2,2.9,2,4v13l4-4h9C16.1,13,17,12.1,17,11z"/>
</g>
</svg>
