<?xml version="1.0" encoding="utf-8"?>
<!-- Generator: Adobe Illustrator 19.1.0, SVG Export Plug-In . SVG Version: 6.00 Build 0)  -->
<svg version="1.1" xmlns="http://www.w3.org/2000/svg" xmlns:xlink="http://www.w3.org/1999/xlink" x="0px" y="0px" width="24px"
	 height="24px" viewBox="0 0 24 24" enable-background="new 0 0 24 24" xml:space="preserve">
<g id="Bounding_Boxes">
	<path fill="none" d="M0,0h24v24H0V0z"/>
</g>
<g id="Rounded">
	<g>
		<circle cx="19.5" cy="19.5" r="1.5"/>
		<path d="M11,18.03V8.98l4.22-2.15c0.73-0.37,0.73-1.43-0.01-1.79l-4.76-2.33C9.78,2.38,9,2.86,9,3.6V19c0,0.55-0.45,1-1,1
			s-1-0.45-1-1v-0.73C5.21,18.62,4,19.26,4,20c0,1.1,2.69,2,6,2s6-0.9,6-2C16,19.01,13.84,18.19,11,18.03z"/>
	</g>
</g>
</svg>
