<?xml version="1.0" encoding="utf-8"?>
<!-- Generator: Adobe Illustrator 19.1.0, SVG Export Plug-In . SVG Version: 6.00 Build 0)  -->
<svg version="1.1" xmlns="http://www.w3.org/2000/svg" xmlns:xlink="http://www.w3.org/1999/xlink" x="0px" y="0px" width="24px"
	 height="24px" viewBox="0 0 24 24" enable-background="new 0 0 24 24" xml:space="preserve">
<g id="Bounding_Boxes">
	<g id="ui_x5F_spec_x5F_header_copy_3">
	</g>
	<path fill="none" d="M0,0h24v24H0V0z"/>
</g>
<g id="Rounded">
	<g id="ui_x5F_spec_x5F_header_copy_6">
	</g>
	<path d="M20.94,11C20.48,6.83,17.17,3.52,13,3.06V2c0-0.55-0.45-1-1-1h0c-0.55,0-1,0.45-1,1v1.06C6.83,3.52,3.52,6.83,3.06,11H2
		c-0.55,0-1,0.45-1,1v0c0,0.55,0.45,1,1,1h1.06c0.46,4.17,3.77,7.48,7.94,7.94V22c0,0.55,0.45,1,1,1h0c0.55,0,1-0.45,1-1v-1.06
		c4.17-0.46,7.48-3.77,7.94-7.94H22c0.55,0,1-0.45,1-1v0c0-0.55-0.45-1-1-1H20.94z M12,19c-3.87,0-7-3.13-7-7s3.13-7,7-7s7,3.13,7,7
		S15.87,19,12,19z"/>
</g>
</svg>
