<?xml version="1.0" encoding="utf-8"?>
<!-- Generator: Adobe Illustrator 19.1.0, SVG Export Plug-In . SVG Version: 6.00 Build 0)  -->
<svg version="1.1" xmlns="http://www.w3.org/2000/svg" xmlns:xlink="http://www.w3.org/1999/xlink" x="0px" y="0px" width="24px"
	 height="24px" viewBox="0 0 24 24" enable-background="new 0 0 24 24" xml:space="preserve">
<g id="Bounding_Boxes">
	<g id="ui_x5F_spec_x5F_header_copy_3">
	</g>
	<path fill="none" d="M0,0h24v24H0V0z"/>
</g>
<g id="Rounded">
	<g id="ui_x5F_spec_x5F_header_copy_7">
	</g>
	<g>
		<path d="M8,4v0.89l2,2V4h4v4h-2.89l2,2H14v0.89l2,2V10h4v4h-2.89l2,2H20v0.89l2,2V4c0-1.1-0.9-2-2-2H5.11l2,2H8z M16,4h3
			c0.55,0,1,0.45,1,1v3h-4V4z"/>
		<path d="M22.16,21.88L2.12,1.84c-0.39-0.39-1.02-0.39-1.41,0c-0.39,0.39-0.39,1.02,0,1.41L2,4.55V20c0,1.1,0.9,2,2,2h15.45
			l1.3,1.3c0.39,0.39,1.02,0.39,1.41,0C22.55,22.91,22.55,22.27,22.16,21.88z M10,12.55L11.45,14H10V12.55z M4,6.55L5.45,8H4V6.55z
			 M8,20H5c-0.55,0-1-0.45-1-1v-3h4V20z M8,14H4v-4h3.45L8,10.55V14z M14,20h-4v-4h3.45L14,16.55V20z M16,20v-1.45L17.45,20H16z"/>
	</g>
</g>
</svg>
