<?xml version="1.0" encoding="utf-8"?>
<!-- Generator: Adobe Illustrator 19.1.0, SVG Export Plug-In . SVG Version: 6.00 Build 0)  -->
<svg version="1.1" xmlns="http://www.w3.org/2000/svg" xmlns:xlink="http://www.w3.org/1999/xlink" x="0px" y="0px" width="24px"
	 height="24px" viewBox="0 0 24 24" enable-background="new 0 0 24 24" xml:space="preserve">
<g id="Bounding_Boxes" display="none">
	<g id="ui_x5F_spec_x5F_header_copy_3" display="inline">
	</g>
	<path display="inline" fill="none" d="M0,0h24v24H0V0z"/>
</g>
<g id="Rounded">
	<g id="ui_x5F_spec_x5F_header_copy_6">
	</g>
	<path d="M11.4,1.02C6.62,1.33,3,5.52,3,10.31L3,17c0,1.66,1.34,3,3,3h1c1.1,0,2-0.9,2-2v-4c0-1.1-0.9-2-2-2H5l0-1.71
		C5,6.45,7.96,3.11,11.79,3C15.76,2.89,19,6.06,19,10v2h-2c-1.1,0-2,0.9-2,2v4c0,1.1,0.9,2,2,2h1c1.66,0,3-1.34,3-3v-7
		C21,4.83,16.64,0.68,11.4,1.02z"/>
</g>
</svg>
