<?xml version="1.0" encoding="utf-8"?>
<!-- Generator: Adobe Illustrator 19.1.0, SVG Export Plug-In . SVG Version: 6.00 Build 0)  -->
<svg version="1.1" xmlns="http://www.w3.org/2000/svg" xmlns:xlink="http://www.w3.org/1999/xlink" x="0px" y="0px" width="24px"
	 height="24px" viewBox="0 0 24 24" enable-background="new 0 0 24 24" xml:space="preserve">
<g id="Bounding_Boxes">
	<path fill="none" d="M0,0h24v24H0V0z"/>
</g>
<g id="Rounded">
	<path d="M7,13c1.66,0,3-1.34,3-3S8.66,7,7,7s-3,1.34-3,3S5.34,13,7,13z M19,7h-6c-1.1,0-2,0.9-2,2v5H3V6c0-0.55-0.45-1-1-1h0
		C1.45,5,1,5.45,1,6v13c0,0.55,0.45,1,1,1h0c0.55,0,1-0.45,1-1v-2h18v2c0,0.55,0.45,1,1,1h0c0.55,0,1-0.45,1-1v-8
		C23,8.79,21.21,7,19,7z"/>
</g>
</svg>
