<?xml version="1.0" encoding="utf-8"?>
<!-- Generator: Adobe Illustrator 19.1.0, SVG Export Plug-In . SVG Version: 6.00 Build 0)  -->
<svg version="1.1" xmlns="http://www.w3.org/2000/svg" xmlns:xlink="http://www.w3.org/1999/xlink" x="0px" y="0px" width="24px"
	 height="24px" viewBox="0 0 24 24" enable-background="new 0 0 24 24" xml:space="preserve">
<g id="Bounding_Boxes">
	<g id="ui_x5F_spec_x5F_header_copy_2">
	</g>
	<path fill="none" d="M0,0h24v24H0V0z"/>
</g>
<g id="Rounded_1_">
	<g id="ui_x5F_spec_x5F_header_copy_6">
	</g>
	<path d="M8.65,3.35L5.86,6.14C5.54,6.45,5.76,6.99,6.21,6.99H8V13c0,0.55,0.45,1,1,1h0c0.55,0,1-0.45,1-1V6.99h1.79
		c0.45,0,0.67-0.54,0.35-0.85L9.35,3.35C9.16,3.16,8.84,3.16,8.65,3.35z M16,17.01V11c0-0.55-0.45-1-1-1h0c-0.55,0-1,0.45-1,1v6.01
		h-1.79c-0.45,0-0.67,0.54-0.35,0.85l2.79,2.78c0.2,0.19,0.51,0.19,0.71,0l2.79-2.78c0.32-0.31,0.09-0.85-0.35-0.85H16z"/>
</g>
</svg>
