<?xml version="1.0" encoding="utf-8"?>
<!-- Generator: Adobe Illustrator 19.1.0, SVG Export Plug-In . SVG Version: 6.00 Build 0)  -->
<svg version="1.1" xmlns="http://www.w3.org/2000/svg" xmlns:xlink="http://www.w3.org/1999/xlink" x="0px" y="0px" width="24px"
	 height="24px" viewBox="0 0 24 24" enable-background="new 0 0 24 24" xml:space="preserve">
<g id="Bounding_Boxes">
	<g id="ui_x5F_spec_x5F_header_copy_3">
	</g>
	<path fill="none" d="M0,0h24v24H0V0z"/>
</g>
<g id="Rounded">
	<g id="ui_x5F_spec_x5F_header_copy_6">
	</g>
	<path d="M16,12h-3c-0.55,0-1,0.45-1,1v3c0,0.55,0.45,1,1,1h3c0.55,0,1-0.45,1-1v-3C17,12.45,16.55,12,16,12z M16,2v1H8V2
		c0-0.55-0.45-1-1-1h0C6.45,1,6,1.45,6,2v1H5C3.89,3,3.01,3.9,3.01,5L3,19c0,1.1,0.89,2,2,2h14c1.1,0,2-0.9,2-2V5c0-1.1-0.9-2-2-2
		h-1V2c0-0.55-0.45-1-1-1h0C16.45,1,16,1.45,16,2z M18,19H6c-0.55,0-1-0.45-1-1V8h14v10C19,18.55,18.55,19,18,19z"/>
</g>
</svg>
