<?xml version="1.0" encoding="utf-8"?>
<!-- Generator: Adobe Illustrator 19.1.0, SVG Export Plug-In . SVG Version: 6.00 Build 0)  -->
<svg version="1.1" xmlns="http://www.w3.org/2000/svg" xmlns:xlink="http://www.w3.org/1999/xlink" x="0px" y="0px" width="24px"
	 height="24px" viewBox="0 0 24 24" enable-background="new 0 0 24 24" xml:space="preserve">
<g id="Bounding_Boxes">
	<g id="ui_x5F_spec_x5F_header_copy_3">
	</g>
	<path fill="none" d="M0,0h24v24H0V0z"/>
</g>
<g id="Rounded">
	<g id="ui_x5F_spec_x5F_header_copy_6">
	</g>
	<path d="M19,3H5C3.9,3,3,3.9,3,5v14c0,1.1,0.9,2,2,2h14c1.1,0,2-0.9,2-2V5C21,3.9,20.1,3,19,3z M8,17L8,17c-0.55,0-1-0.45-1-1v-5
		c0-0.55,0.45-1,1-1h0c0.55,0,1,0.45,1,1v5C9,16.55,8.55,17,8,17z M12,17L12,17c-0.55,0-1-0.45-1-1V8c0-0.55,0.45-1,1-1h0
		c0.55,0,1,0.45,1,1v8C13,16.55,12.55,17,12,17z M16,17L16,17c-0.55,0-1-0.45-1-1v-2c0-0.55,0.45-1,1-1h0c0.55,0,1,0.45,1,1v2
		C17,16.55,16.55,17,16,17z"/>
</g>
</svg>
