<?xml version="1.0" encoding="utf-8"?>
<!-- Generator: Adobe Illustrator 19.1.0, SVG Export Plug-In . SVG Version: 6.00 Build 0)  -->
<svg version="1.1" xmlns="http://www.w3.org/2000/svg" xmlns:xlink="http://www.w3.org/1999/xlink" x="0px" y="0px" width="24px"
	 height="24px" viewBox="0 0 24 24" enable-background="new 0 0 24 24" xml:space="preserve">
<g id="Bounding_Boxes">
	<g id="ui_x5F_spec_x5F_header_copy_3">
	</g>
	<path fill="none" d="M0,0h24v24H0V0z"/>
</g>
<g id="Rounded">
	<g id="ui_x5F_spec_x5F_header_copy_7">
	</g>
	<path d="M19,3H5C3.9,3,3,3.9,3,5v14c0,1.1,0.9,2,2,2h14c1.1,0,2-0.9,2-2V5C21,3.9,20.1,3,19,3z M6.25,7.5H7.5V6.25
		c0-0.41,0.34-0.75,0.75-0.75h0C8.66,5.5,9,5.84,9,6.25V7.5h1.25C10.66,7.5,11,7.84,11,8.25v0C11,8.66,10.66,9,10.25,9H9v1.25
		C9,10.66,8.66,11,8.25,11h0c-0.41,0-0.75-0.34-0.75-0.75V9H6.25C5.84,9,5.5,8.66,5.5,8.25v0C5.5,7.84,5.84,7.5,6.25,7.5z M18,19H5
		L19,5v13C19,18.55,18.55,19,18,19z M17,16.25L17,16.25c0-0.41-0.34-0.75-0.75-0.75h-3.5c-0.41,0-0.75,0.34-0.75,0.75l0,0
		c0,0.41,0.34,0.75,0.75,0.75h3.5C16.66,17,17,16.66,17,16.25z"/>
</g>
</svg>
