<?xml version="1.0" encoding="utf-8"?>
<!-- Generator: Adobe Illustrator 19.1.0, SVG Export Plug-In . SVG Version: 6.00 Build 0)  -->
<svg version="1.1" xmlns="http://www.w3.org/2000/svg" xmlns:xlink="http://www.w3.org/1999/xlink" x="0px" y="0px" width="24px"
	 height="24px" viewBox="0 0 24 24" enable-background="new 0 0 24 24" xml:space="preserve">
<g id="Bounding_Boxes" display="none">
	<g id="ui_x5F_spec_x5F_header_copy_3" display="inline">
	</g>
	<path display="inline" fill="none" d="M0,0h24v24H0V0z"/>
</g>
<g id="Rounded">
	<g id="ui_x5F_spec_x5F_header_copy_6">
	</g>
	<path d="M12,8.41l3.89,3.89c0.39,0.39,1.02,0.39,1.41,0v0c0.39-0.39,0.39-1.02,0-1.41L12.71,6.3c-0.39-0.39-1.02-0.39-1.41,0
		L6.7,10.89c-0.39,0.39-0.39,1.02,0,1.41l0,0c0.39,0.39,1.02,0.39,1.41,0L12,8.41z M7,18h10c0.55,0,1-0.45,1-1v0c0-0.55-0.45-1-1-1
		H7c-0.55,0-1,0.45-1,1v0C6,17.55,6.45,18,7,18z"/>
</g>
</svg>
