<?xml version="1.0" encoding="utf-8"?>
<!-- Generator: Adobe Illustrator 19.1.0, SVG Export Plug-In . SVG Version: 6.00 Build 0)  -->
<svg version="1.1" xmlns="http://www.w3.org/2000/svg" xmlns:xlink="http://www.w3.org/1999/xlink" x="0px" y="0px" width="24px"
	 height="24px" viewBox="0 0 24 24" enable-background="new 0 0 24 24" xml:space="preserve">
<g id="Bounding_Boxes" display="none">
	<g id="ui_x5F_spec_x5F_header_copy_3" display="inline">
	</g>
	<path display="inline" fill="none" d="M0,0h24v24H0V0z"/>
</g>
<g id="Rounded">
	<g id="ui_x5F_spec_x5F_header_copy_6">
	</g>
	<path d="M20,3H4C2.9,3,2.01,3.9,2.01,5L2,15c0,1.1,0.9,2,2,2h16c1.1,0,2-0.9,2-2V5C22,3.9,21.1,3,20,3z M11,6h2v2h-2V6z M11,9h2v2
		h-2V9z M8,6h2v2H8V6z M8,9h2v2H8V9z M7,11H5V9h2V11z M7,8H5V6h2V8z M15,15H9c-0.55,0-1-0.45-1-1v0c0-0.55,0.45-1,1-1h6
		c0.55,0,1,0.45,1,1v0C16,14.55,15.55,15,15,15z M16,11h-2V9h2V11z M16,8h-2V6h2V8z M19,11h-2V9h2V11z M19,8h-2V6h2V8z M12.35,22.65
		l2.79-2.79c0.31-0.31,0.09-0.85-0.35-0.85H9.21c-0.45,0-0.67,0.54-0.35,0.85l2.79,2.79C11.84,22.84,12.16,22.84,12.35,22.65z"/>
</g>
</svg>
