<?xml version="1.0" encoding="utf-8"?>
<!-- Generator: Adobe Illustrator 19.1.0, SVG Export Plug-In . SVG Version: 6.00 Build 0)  -->
<svg version="1.1" xmlns="http://www.w3.org/2000/svg" xmlns:xlink="http://www.w3.org/1999/xlink" x="0px" y="0px" width="24px"
	 height="24px" viewBox="0 0 24 24" enable-background="new 0 0 24 24" xml:space="preserve">
<g id="Bounding_Boxes" display="none">
	<g id="ui_x5F_spec_x5F_header_copy_3" display="inline">
	</g>
	<path display="inline" fill="none" d="M0,0h24v24H0V0z"/>
</g>
<g id="Rounded">
	<g id="ui_x5F_spec_x5F_header_copy_6">
	</g>
	<path d="M20,18c1.1,0,1.99-0.9,1.99-2L22,5c0-1.1-0.9-2-2-2H4C2.9,3,2,3.9,2,5v11c0,1.1,0.9,2,2,2H0c0,1.1,0.9,2,2,2h20
		c1.1,0,2-0.9,2-2H20z M5,5h14c0.55,0,1,0.45,1,1v9c0,0.55-0.45,1-1,1H5c-0.55,0-1-0.45-1-1V6C4,5.45,4.45,5,5,5z M12,19
		c-0.55,0-1-0.45-1-1s0.45-1,1-1s1,0.45,1,1S12.55,19,12,19z"/>
</g>
</svg>
