<?xml version="1.0" encoding="utf-8"?>
<!-- Generator: Adobe Illustrator 19.1.0, SVG Export Plug-In . SVG Version: 6.00 Build 0)  -->
<svg version="1.1" xmlns="http://www.w3.org/2000/svg" xmlns:xlink="http://www.w3.org/1999/xlink" x="0px" y="0px" width="24px"
	 height="24px" viewBox="0 0 24 24" enable-background="new 0 0 24 24" xml:space="preserve">
<g id="Bounding_Boxes" display="none">
	<g id="ui_x5F_spec_x5F_header_copy_3" display="inline">
	</g>
	<path display="inline" fill="none" d="M0,0h24v24H0V0z"/>
</g>
<g id="Rounded">
	<g id="ui_x5F_spec_x5F_header_copy_6">
	</g>
	<path d="M23,18h-1V5c0-1.1-0.9-2-2-2H4C2.9,3,2,3.9,2,5v13H1c-0.55,0-1,0.45-1,1c0,0.55,0.45,1,1,1h22c0.55,0,1-0.45,1-1
		C24,18.45,23.55,18,23,18z M13.5,18h-3c-0.28,0-0.5-0.22-0.5-0.5c0-0.28,0.22-0.5,0.5-0.5h3c0.28,0,0.5,0.22,0.5,0.5
		C14,17.78,13.78,18,13.5,18z M20,15H4V6c0-0.55,0.45-1,1-1h14c0.55,0,1,0.45,1,1V15z"/>
</g>
</svg>
