<?xml version="1.0" encoding="utf-8"?>
<!-- Generator: Adobe Illustrator 19.1.0, SVG Export Plug-In . SVG Version: 6.00 Build 0)  -->
<svg version="1.1" xmlns="http://www.w3.org/2000/svg" xmlns:xlink="http://www.w3.org/1999/xlink" x="0px" y="0px" width="24px"
	 height="24px" viewBox="0 0 24 24" enable-background="new 0 0 24 24" xml:space="preserve">
<g id="Bounding_Boxes">
	<path opacity="0.87" fill="none" d="M0,0h24v24H0V0z"/>
</g>
<g id="Rounded">
	<path d="M6.29,8.11L10.18,12l-3.89,3.89c-0.39,0.39-0.39,1.02,0,1.41h0c0.39,0.39,1.02,0.39,1.41,0l4.59-4.59
		c0.39-0.39,0.39-1.02,0-1.41L7.7,6.7c-0.39-0.39-1.02-0.39-1.41,0l0,0C5.91,7.09,5.91,7.73,6.29,8.11z M17,6L17,6
		c0.55,0,1,0.45,1,1v10c0,0.55-0.45,1-1,1h0c-0.55,0-1-0.45-1-1V7C16,6.45,16.45,6,17,6z"/>
</g>
</svg>
