<?xml version="1.0" encoding="utf-8"?>
<!-- Generator: Adobe Illustrator 19.1.0, SVG Export Plug-In . SVG Version: 6.00 Build 0)  -->
<svg version="1.1" xmlns="http://www.w3.org/2000/svg" xmlns:xlink="http://www.w3.org/1999/xlink" x="0px" y="0px" width="24px"
	 height="24px" viewBox="0 0 24 24" enable-background="new 0 0 24 24" xml:space="preserve">
<g id="Bounding_Boxes">
	<path fill="none" d="M0,0h24v24H0V0z"/>
</g>
<g id="Rounded">
	<path d="M18.89,5h-0.53l0.71-1.97c0.24-0.65-0.1-1.37-0.75-1.6l0,0c-0.65-0.24-1.37,0.1-1.61,0.75L15.69,5H5.1
		c-1.37,0-2.33,1.34-1.9,2.63L5,13l-1.79,5.37C2.77,19.66,3.74,21,5.1,21h13.78c1.36,0,2.33-1.34,1.9-2.63L19,13l1.78-5.37
		C21.21,6.34,20.25,5,18.89,5z M15,14h-2v2c0,0.55-0.45,1-1,1h0c-0.55,0-1-0.45-1-1v-2H9c-0.55,0-1-0.45-1-1v0c0-0.55,0.45-1,1-1h2
		v-2c0-0.55,0.45-1,1-1h0c0.55,0,1,0.45,1,1v2h2c0.55,0,1,0.45,1,1v0C16,13.55,15.55,14,15,14z"/>
</g>
</svg>
