<?xml version="1.0" encoding="utf-8"?>
<!-- Generator: Adobe Illustrator 19.1.0, SVG Export Plug-In . SVG Version: 6.00 Build 0)  -->
<svg version="1.1" xmlns="http://www.w3.org/2000/svg" xmlns:xlink="http://www.w3.org/1999/xlink" x="0px" y="0px" width="24px"
	 height="24px" viewBox="0 0 24 24" enable-background="new 0 0 24 24" xml:space="preserve">
<g id="Bounding_Boxes">
	<path fill="none" d="M0,0h24v24H0V0z"/>
</g>
<g id="Rounded">
	<path d="M19.5,8H17V6c0-1.1-0.9-2-2-2H3C1.9,4,1,4.9,1,6v9c0,1.1,0.9,2,2,2h0c0,1.66,1.34,3,3,3s3-1.34,3-3h6c0,1.66,1.34,3,3,3
		s3-1.34,3-3h1c0.55,0,1-0.45,1-1v-3.33c0-0.43-0.14-0.85-0.4-1.2L20.3,8.4C20.11,8.15,19.81,8,19.5,8z M6,18c-0.55,0-1-0.45-1-1
		s0.45-1,1-1s1,0.45,1,1S6.55,18,6,18z M19.5,9.5l1.96,2.5H17V9.5H19.5z M18,18c-0.55,0-1-0.45-1-1s0.45-1,1-1s1,0.45,1,1
		S18.55,18,18,18z"/>
</g>
</svg>
