<?xml version="1.0" encoding="utf-8"?>
<!-- Generator: Adobe Illustrator 19.1.0, SVG Export Plug-In . SVG Version: 6.00 Build 0)  -->
<svg version="1.1" xmlns="http://www.w3.org/2000/svg" xmlns:xlink="http://www.w3.org/1999/xlink" x="0px" y="0px" width="24px"
	 height="24px" viewBox="0 0 24 24" enable-background="new 0 0 24 24" xml:space="preserve">
<g id="Bounding_Boxes">
	<path fill="none" d="M0,0h24v24H0V0z"/>
</g>
<g id="Rounded">
	<path d="M21,7h-2V5c0-0.55-0.45-1-1-1H6C5.45,4,5,4.45,5,5v2H3C2.45,7,2,7.45,2,8v11c0,0.55,0.45,1,1,1h6c0.55,0,1-0.45,1-1v-3h4v3
		c0,0.55,0.45,1,1,1h6c0.55,0,1-0.45,1-1V8C22,7.45,21.55,7,21,7z M11,9c0,0.55-0.45,1-1,1H9v1h1.5c0.28,0,0.5,0.22,0.5,0.5v0
		c0,0.28-0.22,0.5-0.5,0.5H9c-0.55,0-1-0.45-1-1v-1c0-0.55,0.45-1,1-1h1V8H8.5C8.22,8,8,7.78,8,7.5v0C8,7.22,8.22,7,8.5,7H10
		c0.55,0,1,0.45,1,1V9z M16,11.5c0,0.28-0.22,0.5-0.5,0.5h0c-0.28,0-0.5-0.22-0.5-0.5V10h-1c-0.55,0-1-0.45-1-1V7.5
		C13,7.22,13.22,7,13.5,7h0C13.78,7,14,7.22,14,7.5V9h1V7.5C15,7.22,15.22,7,15.5,7h0C15.78,7,16,7.22,16,7.5V11.5z"/>
</g>
</svg>
