<?xml version="1.0" encoding="utf-8"?>
<!-- Generator: Adobe Illustrator 19.1.0, SVG Export Plug-In . SVG Version: 6.00 Build 0)  -->
<svg version="1.1" xmlns="http://www.w3.org/2000/svg" xmlns:xlink="http://www.w3.org/1999/xlink" x="0px" y="0px" width="24px"
	 height="24px" viewBox="0 0 24 24" enable-background="new 0 0 24 24" xml:space="preserve">
<g id="Bounding_Boxes">
	<path fill="none" d="M0,0h24v24H0V0z"/>
</g>
<g id="Rounded">
	<path d="M19,3H5C3.9,3,3.01,3.9,3.01,5L3,19c0,1.1,0.9,2,2,2h14c1.1,0,2-0.9,2-2V5C21,3.9,20.1,3,19,3z M17,14h-3v3
		c0,0.55-0.45,1-1,1h-2c-0.55,0-1-0.45-1-1v-3H7c-0.55,0-1-0.45-1-1v-2c0-0.55,0.45-1,1-1h3V7c0-0.55,0.45-1,1-1h2
		c0.55,0,1,0.45,1,1v3h3c0.55,0,1,0.45,1,1v2C18,13.55,17.55,14,17,14z"/>
</g>
</svg>
