<?xml version="1.0" encoding="utf-8"?>
<!-- Generator: Adobe Illustrator 19.1.0, SVG Export Plug-In . SVG Version: 6.00 Build 0)  -->
<svg version="1.1" xmlns="http://www.w3.org/2000/svg" xmlns:xlink="http://www.w3.org/1999/xlink" x="0px" y="0px" width="24px"
	 height="24px" viewBox="0 0 24 24" enable-background="new 0 0 24 24" xml:space="preserve">
<g id="Bounding_Boxes">
	<g id="ui_x5F_spec_x5F_header_copy_2">
	</g>
	<path fill="none" d="M0,0h24v24H0V0z"/>
</g>
<g id="Rounded_1_">
	<g id="ui_x5F_spec_x5F_header_copy_6">
	</g>
	<g>
		<path d="M2.71,3.56L2.71,3.56c-0.39,0.39-0.39,1.02,0,1.41l2.47,2.47C5.07,7.95,5,8.47,5,9c0,4.17,4.42,9.92,6.23,12.11
			c0.4,0.48,1.13,0.48,1.53,0c0.65-0.78,1.62-2.01,2.61-3.46l2.65,2.65c0.39,0.39,1.02,0.39,1.41,0l0,0c0.39-0.39,0.39-1.02,0-1.41
			L4.12,3.56C3.73,3.17,3.1,3.17,2.71,3.56z"/>
		<path d="M12,2c-1.84,0-3.5,0.71-4.75,1.86l3.19,3.19C10.87,6.71,11.41,6.5,12,6.5c1.38,0,2.5,1.12,2.5,2.5
			c0,0.59-0.21,1.13-0.56,1.56l3.55,3.55C18.37,12.36,19,10.57,19,9C19,5.13,15.87,2,12,2z"/>
	</g>
</g>
</svg>
