<?xml version="1.0" encoding="utf-8"?>
<!-- Generator: Adobe Illustrator 19.1.0, SVG Export Plug-In . SVG Version: 6.00 Build 0)  -->
<svg version="1.1" xmlns="http://www.w3.org/2000/svg" xmlns:xlink="http://www.w3.org/1999/xlink" x="0px" y="0px" width="24px"
	 height="24px" viewBox="0 0 24 24" enable-background="new 0 0 24 24" xml:space="preserve">
<g id="Bounding_Boxes">
	<path fill="none" d="M0,0h24v24H0V0z"/>
</g>
<g id="Rounded">
	<path d="M20,3H6C4.9,3,4,3.9,4,5v8c0,2.21,1.79,4,4,4h6c2.21,0,4-1.79,4-4v-3h2c1.1,0,2-0.9,2-2V5C22,3.9,21.1,3,20,3z M20,8h-2V5
		h2V8z M3,21h16c0.55,0,1-0.45,1-1v0c0-0.55-0.45-1-1-1H3c-0.55,0-1,0.45-1,1v0C2,20.55,2.45,21,3,21z"/>
</g>
</svg>
