<?xml version="1.0" encoding="utf-8"?>
<!-- Generator: Adobe Illustrator 19.1.0, SVG Export Plug-In . SVG Version: 6.00 Build 0)  -->
<svg version="1.1" xmlns="http://www.w3.org/2000/svg" xmlns:xlink="http://www.w3.org/1999/xlink" x="0px" y="0px" width="24px"
	 height="24px" viewBox="0 0 24 24" enable-background="new 0 0 24 24" xml:space="preserve">
<g id="Bounding_Boxes">
	<path fill="none" d="M0,0h24v24H0V0z"/>
</g>
<g id="Rounded">
	<path d="M8.1,13.34l2.83-2.83L4.74,4.33C4.26,3.85,3.43,3.98,3.13,4.6C2.42,6.09,2.68,7.92,3.91,9.16L8.1,13.34z M14.88,11.53
		c1.53,0.71,3.68,0.21,5.27-1.38c1.91-1.91,2.28-4.65,0.81-6.12c-1.46-1.46-4.2-1.1-6.12,0.81c-1.59,1.59-2.09,3.74-1.38,5.27
		l-9.05,9.05c-0.39,0.39-0.39,1.02,0,1.41l0,0c0.39,0.39,1.02,0.39,1.41,0L12,14.41l6.18,6.18c0.39,0.39,1.02,0.39,1.41,0l0,0
		c0.39-0.39,0.39-1.02,0-1.41L13.41,13L14.88,11.53z"/>
</g>
</svg>
