<?xml version="1.0" encoding="utf-8"?>
<!-- Generator: Adobe Illustrator 19.1.0, SVG Export Plug-In . SVG Version: 6.00 Build 0)  -->
<svg version="1.1" xmlns="http://www.w3.org/2000/svg" xmlns:xlink="http://www.w3.org/1999/xlink" x="0px" y="0px" width="24px"
	 height="24px" viewBox="0 0 24 24" enable-background="new 0 0 24 24" xml:space="preserve">
<g id="Bounding_Boxes">
	<path fill="none" d="M0,0h24v24H0V0z"/>
</g>
<g id="Rounded">
	<path d="M5.23,2C4.04,2,3.11,3.04,3.24,4.22l1.77,16.01C5.13,21.23,5.97,22,7,22h10c1.03,0,1.87-0.77,1.99-1.77l1.77-16.01
		C20.89,3.04,19.96,2,18.77,2H5.23z M12,19c-1.66,0-3-1.34-3-3c0-1.55,1.81-3.95,2.62-4.94c0.2-0.25,0.57-0.25,0.77,0
		c0.81,1,2.62,3.39,2.62,4.94C15,17.66,13.66,19,12,19z M18.33,8H5.67L5.35,5.11C5.29,4.52,5.75,4,6.35,4h11.3
		c0.59,0,1.06,0.52,0.99,1.11L18.33,8z"/>
</g>
</svg>
