<?xml version="1.0" encoding="utf-8"?>
<!-- Generator: Adobe Illustrator 19.1.0, SVG Export Plug-In . SVG Version: 6.00 Build 0)  -->
<svg version="1.1" xmlns="http://www.w3.org/2000/svg" xmlns:xlink="http://www.w3.org/1999/xlink" x="0px" y="0px" width="24px"
	 height="24px" viewBox="0 0 24 24" enable-background="new 0 0 24 24" xml:space="preserve">
<g id="Bounding_Boxes">
	<path fill="none" d="M0,0h24v24H0V0z"/>
</g>
<g id="Rounded">
	<path d="M19,8H5c-1.66,0-3,1.34-3,3v4c0,1.1,0.9,2,2,2h2v2c0,1.1,0.9,2,2,2h8c1.1,0,2-0.9,2-2v-2h2c1.1,0,2-0.9,2-2v-4
		C22,9.34,20.66,8,19,8z M15,19H9c-0.55,0-1-0.45-1-1v-4h8v4C16,18.55,15.55,19,15,19z M19,12c-0.55,0-1-0.45-1-1s0.45-1,1-1
		s1,0.45,1,1S19.55,12,19,12z M17,3H7C6.45,3,6,3.45,6,4v2c0,0.55,0.45,1,1,1h10c0.55,0,1-0.45,1-1V4C18,3.45,17.55,3,17,3z"/>
</g>
</svg>
