<?xml version="1.0" encoding="utf-8"?>
<!-- Generator: Adobe Illustrator 19.1.0, SVG Export Plug-In . SVG Version: 6.00 Build 0)  -->
<svg version="1.1" xmlns="http://www.w3.org/2000/svg" xmlns:xlink="http://www.w3.org/1999/xlink" x="0px" y="0px" width="24px"
	 height="24px" viewBox="0 0 24 24" enable-background="new 0 0 24 24" xml:space="preserve">
<g id="Bounding_Boxes">
	<path fill="none" d="M0,0h24v24H0V0z"/>
</g>
<g id="Rounded">
	<g>
		<path d="M20,4H4C2.89,4,2.01,4.89,2.01,6L2,18c0,1.11,0.89,2,2,2h16c1.11,0,2-0.89,2-2V6C22,4.89,21.11,4,20,4z M20,17
			c0,0.55-0.45,1-1,1H5c-0.55,0-1-0.45-1-1V7c0-0.55,0.45-1,1-1h14c0.55,0,1,0.45,1,1V17z"/>
		<path d="M14,10c0.55,0,1-0.45,1-1c0-0.55-0.45-1-1-1h-1V7.99c0-0.55-0.45-1-1-1s-1,0.45-1,1V8h-1C9.45,8,9,8.45,9,9v3
			c0,0.55,0.45,1,1,1h3v1h-3c-0.55,0-1,0.45-1,1c0,0.55,0.45,1,1,1h1v0c0,0.55,0.45,1,1,1s1-0.45,1-1v0h1c0.55,0,1-0.45,1-1v-3
			c0-0.55-0.45-1-1-1h-3v-1H14z"/>
	</g>
</g>
</svg>
