<?xml version="1.0" encoding="utf-8"?>
<!-- Generator: Adobe Illustrator 19.1.0, SVG Export Plug-In . SVG Version: 6.00 Build 0)  -->
<svg version="1.1" xmlns="http://www.w3.org/2000/svg" xmlns:xlink="http://www.w3.org/1999/xlink" x="0px" y="0px" width="24px"
	 height="24px" viewBox="0 0 24 24" enable-background="new 0 0 24 24" xml:space="preserve">
<g id="Bounding_Boxes">
	<path fill="none" d="M0,0h24v24H0V0z"/>
</g>
<g id="Rounded">
	<path d="M7,18c-1.1,0-1.99,0.9-1.99,2S5.9,22,7,22s2-0.9,2-2S8.1,18,7,18z M2,4h1l3.6,7.59l-1.35,2.44C4.52,15.37,5.48,17,7,17h11
		c0.55,0,1-0.45,1-1v0c0-0.55-0.45-1-1-1H7l1.1-2h7.45c0.75,0,1.41-0.41,1.75-1.03l3.58-6.49C21.25,4.82,20.77,4,20.01,4H5.21
		L4.54,2.57C4.38,2.22,4.02,2,3.64,2H2C1.45,2,1,2.45,1,3v0C1,3.55,1.45,4,2,4z M17,18c-1.1,0-1.99,0.9-1.99,2s0.89,2,1.99,2
		s2-0.9,2-2S18.1,18,17,18z"/>
</g>
</svg>
