<?xml version="1.0" encoding="utf-8"?>
<!-- Generator: Adobe Illustrator 19.1.0, SVG Export Plug-In . SVG Version: 6.00 Build 0)  -->
<svg version="1.1" xmlns="http://www.w3.org/2000/svg" xmlns:xlink="http://www.w3.org/1999/xlink" x="0px" y="0px" width="24px"
	 height="24px" viewBox="0 0 24 24" enable-background="new 0 0 24 24" xml:space="preserve">
<g id="Bounding_Boxes">
	<path fill="none" d="M0,0h24v24H0V0z"/>
</g>
<g id="Rounded">
	<path d="M12,2C9.01,2,6.28,3.08,4.17,4.88c-0.71,0.61-0.86,1.65-0.4,2.46l7.36,13.11c0.38,0.68,1.36,0.68,1.74,0l7.36-13.11
		c0.46-0.81,0.31-1.86-0.4-2.46C17.73,3.09,14.99,2,12,2z M7,7c0-1.1,0.9-2,2-2s2,0.9,2,2s-0.9,2-2,2S7,8.1,7,7z M12,15
		c-1.1,0-2-0.9-2-2s0.9-2,2-2s2,0.9,2,2S13.1,15,12,15z"/>
</g>
</svg>
