<?xml version="1.0" encoding="utf-8"?>
<!-- Generator: Adobe Illustrator 19.1.0, SVG Export Plug-In . SVG Version: 6.00 Build 0)  -->
<svg version="1.1" xmlns="http://www.w3.org/2000/svg" xmlns:xlink="http://www.w3.org/1999/xlink" x="0px" y="0px" width="24px"
	 height="24px" viewBox="0 0 24 24" enable-background="new 0 0 24 24" xml:space="preserve">
<g id="Bounding_Boxes">
	<g id="ui_x5F_spec_x5F_header_copy_2">
	</g>
	<path fill="none" d="M0,0h24v24H0V0z"/>
</g>
<g id="Rounded">
	<path d="M15,11V5.83c0-0.53-0.21-1.04-0.59-1.41l-1.71-1.71c-0.39-0.39-1.02-0.39-1.41,0L9.59,4.41C9.21,4.79,9,5.3,9,5.83V7H5
		C3.9,7,3,7.9,3,9v10c0,1.1,0.9,2,2,2h14c1.1,0,2-0.9,2-2v-6c0-1.1-0.9-2-2-2H15z M7,19H5v-2h2V19z M7,15H5v-2h2V15z M7,11H5V9h2V11
		z M13,19h-2v-2h2V19z M13,15h-2v-2h2V15z M13,11h-2V9h2V11z M13,7h-2V5h2V7z M19,19h-2v-2h2V19z M19,15h-2v-2h2V15z"/>
</g>
</svg>
