<?xml version="1.0" encoding="utf-8"?>
<!-- Generator: Adobe Illustrator 19.1.0, SVG Export Plug-In . SVG Version: 6.00 Build 0)  -->
<svg version="1.1" xmlns="http://www.w3.org/2000/svg" xmlns:xlink="http://www.w3.org/1999/xlink" x="0px" y="0px" width="24px"
	 height="24px" viewBox="0 0 24 24" enable-background="new 0 0 24 24" xml:space="preserve">
<g id="Bounding_Boxes">
	<g id="ui_x5F_spec_x5F_header_copy_3">
	</g>
	<path fill="none" d="M0.04,0h24v24h-24V0z"/>
</g>
<g id="Rounded">
	<g id="ui_x5F_spec_x5F_header_copy_7">
	</g>
	<path d="M19.04,3h-14c-1.1,0-2,0.9-2,2v14c0,1.1,0.9,2,2,2h14c1.1,0,2-0.9,2-2V5C21.04,3.9,20.14,3,19.04,3z M14.04,17L14.04,17
		c-0.55,0-1-0.45-1-1v-3h-3c-0.55,0-1-0.45-1-1V8c0-0.55,0.45-1,1-1h0c0.55,0,1,0.45,1,1v3h2V8c0-0.55,0.45-1,1-1h0
		c0.55,0,1,0.45,1,1v8C15.04,16.55,14.59,17,14.04,17z"/>
</g>
</svg>
