<?xml version="1.0" encoding="utf-8"?>
<!-- Generator: Adobe Illustrator 19.1.0, SVG Export Plug-In . SVG Version: 6.00 Build 0)  -->
<svg version="1.1" xmlns="http://www.w3.org/2000/svg" xmlns:xlink="http://www.w3.org/1999/xlink" x="0px" y="0px" width="24px"
	 height="24px" viewBox="0 0 24 24" enable-background="new 0 0 24 24" xml:space="preserve">
<g id="Bounding_Boxes">
	<g id="ui_x5F_spec_x5F_header_copy_3" display="none">
	</g>
	<path fill="none" d="M0,0h24v24H0V0z"/>
</g>
<g id="Rounded_1_">
	<g id="ui_x5F_spec_x5F_header_copy_6" display="none">
	</g>
	<path d="M15,5h6c0.55,0,1,0.45,1,1v0c0,0.55-0.45,1-1,1h-6c-0.55,0-1-0.45-1-1v0C14,5.45,14.45,5,15,5z M15,10.5h6
		c0.55,0,1,0.45,1,1v0c0,0.55-0.45,1-1,1h-6c-0.55,0-1-0.45-1-1v0C14,10.95,14.45,10.5,15,10.5z M15,16h6c0.55,0,1,0.45,1,1v0
		c0,0.55-0.45,1-1,1h-6c-0.55,0-1-0.45-1-1v0C14,16.45,14.45,16,15,16z M9.85,19.15l1.79-1.79c0.2-0.2,0.2-0.51,0-0.71l-1.79-1.79
		C9.54,14.54,9,14.76,9,15.21v3.59C9,19.24,9.54,19.46,9.85,19.15z M9,16H8.7c-2.35,0-4.45-1.71-4.68-4.05C3.76,9.27,5.87,7,8.5,7
		H11c0.55,0,1-0.45,1-1v0c0-0.55-0.45-1-1-1H8.5c-3.86,0-6.96,3.4-6.44,7.36C2.48,15.64,5.43,18,8.73,18H9"/>
</g>
</svg>
