<?xml version="1.0" encoding="utf-8"?>
<!-- Generator: Adobe Illustrator 19.1.0, SVG Export Plug-In . SVG Version: 6.00 Build 0)  -->
<svg version="1.1" xmlns="http://www.w3.org/2000/svg" xmlns:xlink="http://www.w3.org/1999/xlink" x="0px" y="0px" width="24px"
	 height="24px" viewBox="0 0 24 24" enable-background="new 0 0 24 24" xml:space="preserve">
<g id="Bounding_Boxes">
	<path fill="none" d="M0,0h24v24H0V0z"/>
</g>
<g id="Rounded">
	<path d="M20,19h-1V5c0-0.55-0.45-1-1-1h-4c0-0.55-0.45-1-1-1H6C5.45,3,5,3.45,5,4v15H4c-0.55,0-1,0.45-1,1c0,0.55,0.45,1,1,1h9
		c0.55,0,1-0.45,1-1V6h3v14c0,0.55,0.45,1,1,1h2c0.55,0,1-0.45,1-1C21,19.45,20.55,19,20,19z M12,13h-2v-2h2V13z"/>
</g>
</svg>
