<?xml version="1.0" encoding="utf-8"?>
<!-- Generator: Adobe Illustrator 19.1.0, SVG Export Plug-In . SVG Version: 6.00 Build 0)  -->
<svg version="1.1" xmlns="http://www.w3.org/2000/svg" xmlns:xlink="http://www.w3.org/1999/xlink" x="0px" y="0px" width="24px"
	 height="24px" viewBox="0 0 24 24" enable-background="new 0 0 24 24" xml:space="preserve">
<g id="Bounding_Boxes" display="none">
	<g id="ui_x5F_spec_x5F_header_copy_3" display="inline">
	</g>
	<path display="inline" fill="none" d="M0,0h24v24H0V0z"/>
</g>
<g id="Rounded">
	<g id="ui_x5F_spec_x5F_header_copy_6">
	</g>
	<path d="M14,9h-4c-0.55,0-1,0.45-1,1v4c0,0.55,0.45,1,1,1h4c0.55,0,1-0.45,1-1v-4C15,9.45,14.55,9,14,9z M13,13h-2v-2h2V13z M21,10
		L21,10c0-0.55-0.45-1-1-1h-1V7c0-1.1-0.9-2-2-2h-2V4c0-0.55-0.45-1-1-1h0c-0.55,0-1,0.45-1,1v1h-2V4c0-0.55-0.45-1-1-1h0
		C9.45,3,9,3.45,9,4v1H7C5.9,5,5,5.9,5,7v2H4c-0.55,0-1,0.45-1,1v0c0,0.55,0.45,1,1,1h1v2H4c-0.55,0-1,0.45-1,1v0c0,0.55,0.45,1,1,1
		h1v2c0,1.1,0.9,2,2,2h2v1c0,0.55,0.45,1,1,1h0c0.55,0,1-0.45,1-1v-1h2v1c0,0.55,0.45,1,1,1h0c0.55,0,1-0.45,1-1v-1h2
		c1.1,0,2-0.9,2-2v-2h1c0.55,0,1-0.45,1-1v0c0-0.55-0.45-1-1-1h-1v-2h1C20.55,11,21,10.55,21,10z M16,17H8c-0.55,0-1-0.45-1-1V8
		c0-0.55,0.45-1,1-1h8c0.55,0,1,0.45,1,1v8C17,16.55,16.55,17,16,17z"/>
</g>
</svg>
