<?xml version="1.0" encoding="utf-8"?>
<!-- Generator: Adobe Illustrator 19.1.0, SVG Export Plug-In . SVG Version: 6.00 Build 0)  -->
<svg version="1.1" xmlns="http://www.w3.org/2000/svg" xmlns:xlink="http://www.w3.org/1999/xlink" x="0px" y="0px" width="24px"
	 height="24px" viewBox="0 0 24 24" enable-background="new 0 0 24 24" xml:space="preserve">
<g id="Bounding_Boxes">
	<g id="ui_x5F_spec_x5F_header_copy_3">
	</g>
	<path fill="none" d="M0,0h24v24H0V0z"/>
</g>
<g id="Rounded">
	<g id="ui_x5F_spec_x5F_header_copy_6">
	</g>
	<path d="M17.7,19.7L17.7,19.7c0.39-0.39,0.39-1.02,0-1.41l-2.7-2.7L13.59,17l2.7,2.7C16.68,20.09,17.32,20.09,17.7,19.7z M8.71,8
		H11v5.59l-4.71,4.7c-0.39,0.39-0.39,1.02,0,1.41h0c0.39,0.39,1.02,0.39,1.41,0L12.41,15c0.38-0.38,0.59-0.88,0.59-1.41V8h2.29
		c0.45,0,0.67-0.54,0.35-0.85l-3.29-3.29c-0.2-0.2-0.51-0.2-0.71,0L8.35,7.15C8.04,7.46,8.26,8,8.71,8z"/>
</g>
</svg>
