<?xml version="1.0" encoding="utf-8"?>
<!-- Generator: Adobe Illustrator 19.1.0, SVG Export Plug-In . SVG Version: 6.00 Build 0)  -->
<svg version="1.1" xmlns="http://www.w3.org/2000/svg" xmlns:xlink="http://www.w3.org/1999/xlink" x="0px" y="0px" width="24px"
	 height="24px" viewBox="0 0 24 24" enable-background="new 0 0 24 24" xml:space="preserve">
<g id="Header_x2F_BG" display="none">
	<rect x="-226" y="-138" display="inline" fill="#F1F1F2" width="520" height="520"/>
</g>
<g id="Bounding_Boxes">
	<g id="ui_x5F_spec_x5F_header_copy_3" display="none">
	</g>
	<g>
		<path fill="none" d="M0,0h24v24H0V0z"/>
	</g>
</g>
<g id="Rounded">
	<g id="ui_x5F_spec_x5F_header_copy_5" display="none">
	</g>
	<path d="M7,19h10c0.55,0,1,0.45,1,1v0c0,0.55-0.45,1-1,1H7c-0.55,0-1-0.45-1-1v0C6,19.45,6.45,19,7,19z"/>
</g>
<g id="Sharp" display="none">
	<g id="ui_x5F_spec_x5F_header_copy_4">
	</g>
	<path display="inline" d="M6,19h12v2H6V19z"/>
</g>
<g id="Outline" display="none">
	<g id="ui_x5F_spec_x5F_header">
	</g>
	<g display="inline">
		<path d="M6,19h12v2H6V19z"/>
	</g>
</g>
<g id="Duotone" display="none">
	<g id="ui_x5F_spec_x5F_header_copy_2">
	</g>
	<g display="inline">
		<path d="M6,19h12v2H6V19z"/>
	</g>
</g>
<g id="Material" display="none">
	<g id="ui_x5F_spec_x5F_header_copy">
	</g>
	<path display="inline" d="M6,19h12v2H6V19z"/>
</g>
</svg>
