<?xml version="1.0" encoding="utf-8"?>
<!-- Generator: Adobe Illustrator 19.1.0, SVG Export Plug-In . SVG Version: 6.00 Build 0)  -->
<svg version="1.1" xmlns="http://www.w3.org/2000/svg" xmlns:xlink="http://www.w3.org/1999/xlink" x="0px" y="0px" width="24px"
	 height="24px" viewBox="0 0 24 24" enable-background="new 0 0 24 24" xml:space="preserve">
<g id="Bounding_Boxes" display="none">
	<path display="inline" fill="none" d="M0,0h24v24H0V0z"/>
</g>
<g id="Rounded">
	<path d="M17,10.5V7c0-0.55-0.45-1-1-1H4C3.45,6,3,6.45,3,7v10c0,0.55,0.45,1,1,1h12c0.55,0,1-0.45,1-1v-3.5l2.29,2.29
		c0.63,0.63,1.71,0.18,1.71-0.71V8.91c0-0.89-1.08-1.34-1.71-0.71L17,10.5z M10.71,14.29c-0.39,0.39-1.02,0.39-1.41,0l-3.18-3.18
		v2.55H5V9.72c0-0.28,0.22-0.5,0.5-0.5h3.94v1.11H6.89l3.11,3.1l4.22-4.22L15,10L10.71,14.29z"/>
</g>
</svg>
