<?xml version="1.0" encoding="utf-8"?>
<!-- Generator: Adobe Illustrator 19.1.0, SVG Export Plug-In . SVG Version: 6.00 Build 0)  -->
<svg version="1.1" xmlns="http://www.w3.org/2000/svg" xmlns:xlink="http://www.w3.org/1999/xlink" x="0px" y="0px" width="24px"
	 height="24px" viewBox="0 0 24 24" enable-background="new 0 0 24 24" xml:space="preserve">
<g id="Bounding_Boxes">
	<g id="ui_x5F_spec_x5F_header_copy_2">
	</g>
	<path fill="none" d="M0,0h24v24H0V0z"/>
</g>
<g id="Rounded_1_">
	<path d="M20,2H4C2.9,2,2,2.9,2,4v18l4-4h14c1.1,0,2-0.9,2-2V4C22,2.9,21.1,2,20,2z M5.63,13.19l2.49-3.2
		c0.2-0.25,0.58-0.26,0.78-0.01l2.1,2.53l3.1-3.99c0.2-0.26,0.6-0.26,0.8,0.01l3.51,4.68c0.25,0.33,0.01,0.8-0.4,0.8H6.02
		C5.61,14,5.37,13.52,5.63,13.19z"/>
</g>
</svg>
