<?xml version="1.0" encoding="utf-8"?>
<!-- Generator: Adobe Illustrator 19.1.0, SVG Export Plug-In . SVG Version: 6.00 Build 0)  -->
<svg version="1.1" xmlns="http://www.w3.org/2000/svg" xmlns:xlink="http://www.w3.org/1999/xlink" x="0px" y="0px" width="24px"
	 height="24px" viewBox="0 0 24 24" enable-background="new 0 0 24 24" xml:space="preserve">
<g id="Bounding_Boxes">
	<g id="ui_x5F_spec_x5F_header_copy_3">
	</g>
	<path fill="none" d="M0,0h24v24H0V0z"/>
</g>
<g id="Rounded">
	<g id="ui_x5F_spec_x5F_header_copy_6">
	</g>
	<g>
		<path d="M17,16.44L3.61,3.05c-0.39-0.39-1.02-0.39-1.41,0c-0.39,0.39-0.39,1.02,0,1.41L5,7.27V21c0,1.1,0.9,2,2,2h10
			c1.02,0,1.85-0.77,1.98-1.75l1.02,1.02c0.39,0.39,1.02,0.39,1.41,0s0.39-1.02,0-1.41L19,18.44L17,16.44z M7,19V9.27L16.73,19H7z"
			/>
		<path d="M17,5v8.61l2,2V3c0-1.1-0.9-2-2-2H7C6.29,1,5.67,1.37,5.32,1.93L8.39,5H17z"/>
	</g>
</g>
</svg>
