<?xml version="1.0" encoding="utf-8"?>
<!-- Generator: Adobe Illustrator 19.1.0, SVG Export Plug-In . SVG Version: 6.00 Build 0)  -->
<svg version="1.1" xmlns="http://www.w3.org/2000/svg" xmlns:xlink="http://www.w3.org/1999/xlink" x="0px" y="0px" width="24px"
	 height="24px" viewBox="0 0 24 24" enable-background="new 0 0 24 24" xml:space="preserve">
<g id="Bounding_Boxes">
	<g id="ui_x5F_spec_x5F_header_copy_2">
	</g>
	<path fill="none" d="M0,0h24v24H0V0z"/>
</g>
<g id="Rounded_1_">
	<g id="ui_x5F_spec_x5F_header_copy_6">
	</g>
	<path d="M17,1H7C5.9,1,5.01,1.9,5.01,3v18c0,1.1,0.89,2,1.99,2h10c1.1,0,2-0.9,2-2V3C19,1.9,18.1,1,17,1z M17,19H7V5h10V19z
		 M12.8,13.22v1.75l2.81-2.62c0.21-0.2,0.21-0.53,0-0.73L12.8,9v1.7c-3.11,0.43-4.35,2.56-4.8,4.7C9.11,13.9,10.58,13.22,12.8,13.22
		z"/>
</g>
</svg>
