<?xml version="1.0" encoding="utf-8"?>
<!-- Generator: Adobe Illustrator 19.1.0, SVG Export Plug-In . SVG Version: 6.00 Build 0)  -->
<svg version="1.1" xmlns="http://www.w3.org/2000/svg" xmlns:xlink="http://www.w3.org/1999/xlink" x="0px" y="0px" width="24px"
	 height="24px" viewBox="0 0 24 24" enable-background="new 0 0 24 24" xml:space="preserve">
<g id="Bounding_Boxes">
	<g id="ui_x5F_spec_x5F_header_copy_2">
	</g>
	<path fill="none" d="M0,0h24v24H0V0z"/>
</g>
<g id="Rounded">
	<path d="M11.99,2C6.47,2,2,6.48,2,12s4.47,10,9.99,10C17.52,22,22,17.52,22,12S17.52,2,11.99,2z M12,20c-4.42,0-8-3.58-8-8
		s3.58-8,8-8s8,3.58,8,8S16.42,20,12,20z M15.5,11c0.83,0,1.5-0.67,1.5-1.5S16.33,8,15.5,8S14,8.67,14,9.5S14.67,11,15.5,11z
		 M8.5,11c0.83,0,1.5-0.67,1.5-1.5S9.33,8,8.5,8S7,8.67,7,9.5S7.67,11,8.5,11z M12,17.5c2.03,0,3.8-1.11,4.75-2.75
		c0.19-0.33-0.05-0.75-0.44-0.75H7.69c-0.38,0-0.63,0.42-0.44,0.75C8.2,16.39,9.97,17.5,12,17.5z"/>
</g>
</svg>
