<?xml version="1.0" encoding="utf-8"?>
<!-- Generator: Adobe Illustrator 19.1.0, SVG Export Plug-In . SVG Version: 6.00 Build 0)  -->
<svg version="1.1" xmlns="http://www.w3.org/2000/svg" xmlns:xlink="http://www.w3.org/1999/xlink" x="0px" y="0px" width="24px"
	 height="24px" viewBox="0 0 24 24" enable-background="new 0 0 24 24" xml:space="preserve">
<g id="Bounding_Boxes">
	<g id="ui_x5F_spec_x5F_header_copy_3" display="none">
	</g>
	<path fill="none" d="M0,0h24v24H0V0z"/>
</g>
<g id="Rounded_1_">
	<g id="ui_x5F_spec_x5F_header_copy_6" display="none">
	</g>
	<path d="M19,3H4.99C3.88,3,3,3.9,3,5v14c0,1.1,0.88,2,1.99,2H19c1.1,0,2-0.9,2-2V5C21,3.9,20.1,3,19,3z M19,15l-3.13,0
		c-0.47,0-0.85,0.34-0.98,0.8C14.54,17.07,13.37,18,12,18s-2.54-0.93-2.89-2.2C8.98,15.34,8.6,15,8.13,15l-3.14,0V6
		c0-0.55,0.45-1,1-1H18c0.55,0,1,0.45,1,1V15z M16,10h-2V7h-4v3H8l3.65,3.65c0.2,0.2,0.51,0.2,0.71,0L16,10z"/>
</g>
</svg>
