<?xml version="1.0" encoding="utf-8"?>
<!-- Generator: Adobe Illustrator 19.1.0, SVG Export Plug-In . SVG Version: 6.00 Build 0)  -->
<svg version="1.1" xmlns="http://www.w3.org/2000/svg" xmlns:xlink="http://www.w3.org/1999/xlink" x="0px" y="0px" width="24px"
	 height="24px" viewBox="0 0 24 24" enable-background="new 0 0 24 24" xml:space="preserve">
<g id="Bounding_Boxes" display="none">
	<path display="inline" fill="none" d="M0,0h24v24H0V0z"/>
</g>
<g id="Rounded">
	<path d="M18,4l1.82,3.64C19.9,7.8,19.78,8,19.6,8h-1.98c-0.38,0-0.73-0.21-0.89-0.55L15,4h-2l1.82,3.64C14.9,7.8,14.78,8,14.6,8
		h-1.98c-0.38,0-0.73-0.21-0.89-0.55L10,4H8l1.82,3.64C9.9,7.8,9.78,8,9.6,8H7.62C7.24,8,6.89,7.79,6.72,7.45L5,4H4C2.9,4,2,4.9,2,6
		v12c0,1.1,0.9,2,2,2h16c1.1,0,2-0.9,2-2V5c0-0.55-0.45-1-1-1H18z"/>
</g>
</svg>
