<?xml version="1.0" encoding="utf-8"?>
<!-- Generator: Adobe Illustrator 19.1.0, SVG Export Plug-In . SVG Version: 6.00 Build 0)  -->
<svg version="1.1" xmlns="http://www.w3.org/2000/svg" xmlns:xlink="http://www.w3.org/1999/xlink" x="0px" y="0px" width="24px"
	 height="24px" viewBox="0 0 24 24" enable-background="new 0 0 24 24" xml:space="preserve">
<g id="Bounding_Boxes">
	<g id="ui_x5F_spec_x5F_header_copy_2">
	</g>
	<path fill="none" d="M0,0h24v24H0V0z M0,0h24v24H0V0z"/>
</g>
<g id="Rounded_1_">
	<g>
		<path d="M22,16v-0.5c0-1.38-1.12-2.5-2.5-2.5S17,14.12,17,15.5V16c-0.55,0-1,0.45-1,1v4c0,0.55,0.45,1,1,1h5c0.55,0,1-0.45,1-1v-4
			C23,16.45,22.55,16,22,16z M21,16h-3v-0.5c0-0.83,0.67-1.5,1.5-1.5s1.5,0.67,1.5,1.5V16z"/>
		<path d="M19.5,11c0.17,0,0.33,0.03,0.5,0.05V3.41c0-0.89-1.08-1.34-1.71-0.71L2.71,18.29C2.08,18.92,2.52,20,3.41,20H14v-3
			c0-0.92,0.42-1.74,1.07-2.3C15.45,12.6,17.29,11,19.5,11z"/>
	</g>
</g>
</svg>
