<?xml version="1.0" encoding="utf-8"?>
<!-- Generator: Adobe Illustrator 19.1.0, SVG Export Plug-In . SVG Version: 6.00 Build 0)  -->
<svg version="1.1" xmlns="http://www.w3.org/2000/svg" xmlns:xlink="http://www.w3.org/1999/xlink" x="0px" y="0px" width="24px"
	 height="24px" viewBox="0 0 24 24" enable-background="new 0 0 24 24" xml:space="preserve">
<g id="Bounding_Boxes">
	<g id="ui_x5F_spec_x5F_header_copy_3">
	</g>
	<path fill="none" d="M0,0h24v24H0V0z"/>
</g>
<g id="Rounded">
	<g id="ui_x5F_spec_x5F_header_copy_6">
	</g>
	<path d="M20,2H4C2.9,2,2,2.9,2,4v16c0,1.1,0.9,2,2,2h16c1.1,0,2-0.9,2-2V4C22,2.9,21.1,2,20,2z M19,20H5c-0.55,0-1-0.45-1-1V5
		c0-0.55,0.45-1,1-1h14c0.55,0,1,0.45,1,1v14C20,19.55,19.55,20,19,20z M16,6h-3c-1.1,0-2,0.9-2,2v2.28c-0.6,0.35-1,0.98-1,1.72
		c0,1.1,0.9,2,2,2s2-0.9,2-2c0-0.74-0.4-1.38-1-1.72V8h3v7c0,0.55-0.45,1-1,1H9c-0.55,0-1-0.45-1-1V8h1c0.55,0,1-0.45,1-1v0
		c0-0.55-0.45-1-1-1H8C6.9,6,6,6.9,6,8v8c0,1.1,0.9,2,2,2h8c1.1,0,2-0.9,2-2V8C18,6.9,17.1,6,16,6z"/>
</g>
</svg>
