<?xml version="1.0" encoding="utf-8"?>
<!-- Generator: Adobe Illustrator 19.1.0, SVG Export Plug-In . SVG Version: 6.00 Build 0)  -->
<svg version="1.1" xmlns="http://www.w3.org/2000/svg" xmlns:xlink="http://www.w3.org/1999/xlink" x="0px" y="0px" width="24px"
	 height="24px" viewBox="0 0 24 24" enable-background="new 0 0 24 24" xml:space="preserve">
<g id="Bounding_Boxes">
	<g id="ui_x5F_spec_x5F_header_copy_2">
	</g>
	<path fill="none" d="M0,0h24v24H0V0z M0,0h24v24H0V0z M0,0h24v24H0V0z M0,0h24v24H0V0z"/>
</g>
<g id="Rounded_1_">
	<g>
		<path d="M8.9,6c0-1.71,1.39-3.1,3.1-3.1s3.1,1.39,3.1,3.1v2h-4.66L20,17.56V10c0-1.1-0.9-2-2-2h-1V6c0-2.76-2.24-5-5-5
			C9.68,1,7.74,2.59,7.18,4.74L8.9,6.46V6z"/>
		<path d="M5.12,5.51c-0.39-0.39-1.02-0.39-1.41,0c-0.39,0.39-0.39,1.02,0,1.41l1.33,1.33C4.42,8.6,4,9.25,4,10v10c0,1.1,0.9,2,2,2
			h12.78l0.29,0.29c0.39,0.39,1.02,0.39,1.41,0c0.39-0.39,0.39-1.02,0-1.41L5.12,5.51z"/>
	</g>
</g>
</svg>
