<?xml version="1.0" encoding="utf-8"?>
<!-- Generator: Adobe Illustrator 19.1.0, SVG Export Plug-In . SVG Version: 6.00 Build 0)  -->
<svg version="1.1" xmlns="http://www.w3.org/2000/svg" xmlns:xlink="http://www.w3.org/1999/xlink" x="0px" y="0px" width="24px"
	 height="24px" viewBox="0 0 24 24" enable-background="new 0 0 24 24" xml:space="preserve">
<g id="Bounding_Boxes">
	<path fill="none" d="M0,0h24v24H0V0z"/>
</g>
<g id="Rounded">
	<g>
		<path d="M14,6h3v7.88l2,2V5c0-0.55-0.45-1-1-1h-4c0-0.55-0.45-1-1-1H6.12L14,10.88V6z"/>
		<path d="M21.17,20.88L12,11.71V13h-2v-2h1.29L3.12,2.83c-0.39-0.39-1.02-0.39-1.41,0c-0.39,0.39-0.39,1.02,0,1.41L5,7.54V19H4
			c-0.55,0-1,0.45-1,1c0,0.55,0.45,1,1,1h9c0.55,0,1-0.45,1-1v-3.46l5.75,5.75c0.39,0.39,1.02,0.39,1.41,0v0
			C21.56,21.9,21.56,21.27,21.17,20.88z"/>
	</g>
</g>
</svg>
