<?xml version="1.0" encoding="utf-8"?>
<!-- Generator: Adobe Illustrator 19.1.0, SVG Export Plug-In . SVG Version: 6.00 Build 0)  -->
<svg version="1.1" xmlns="http://www.w3.org/2000/svg" xmlns:xlink="http://www.w3.org/1999/xlink" x="0px" y="0px" width="24px"
	 height="24px" viewBox="0 0 24 24" enable-background="new 0 0 24 24" xml:space="preserve">
<g id="Bounding_Boxes">
	<g id="ui_x5F_spec_x5F_header_copy_2">
	</g>
	<path fill="none" d="M0,0h24v24H0V0z"/>
</g>
<g id="Rounded">
	<g>
		<path d="M12,22c1.1,0,2-0.9,2-2h-4C10,21.1,10.89,22,12,22z"/>
		<path d="M18,11c0-3.07-1.64-5.64-4.5-6.32V4c0-0.83-0.67-1.5-1.5-1.5S10.5,3.17,10.5,4v0.68c-0.24,0.06-0.47,0.15-0.69,0.23
			L18,13.1V11z"/>
		<path d="M5.41,3.35L4,4.76l2.81,2.81C6.29,8.57,6,9.73,6,11v5l-1.29,1.29C4.08,17.92,4.52,19,5.41,19h12.83l1.74,1.74l1.41-1.41
			L5.41,3.35z"/>
	</g>
</g>
</svg>
