<?xml version="1.0" encoding="utf-8"?>
<!-- Generator: Adobe Illustrator 19.1.0, SVG Export Plug-In . SVG Version: 6.00 Build 0)  -->
<svg version="1.1" xmlns="http://www.w3.org/2000/svg" xmlns:xlink="http://www.w3.org/1999/xlink" x="0px" y="0px" width="24px"
	 height="24px" viewBox="0 0 24 24" enable-background="new 0 0 24 24" xml:space="preserve">
<g id="Bounding_Boxes">
	<g id="ui_x5F_spec_x5F_header_copy_3" display="none">
	</g>
	<path fill="none" d="M0,0h24v24H0V0z"/>
</g>
<g id="Rounded_1_">
	<g id="ui_x5F_spec_x5F_header_copy_6" display="none">
	</g>
	<path d="M14,6l-0.72-1.45C13.11,4.21,12.76,4,12.38,4H6C5.45,4,5,4.45,5,5v15c0,0.55,0.45,1,1,1h0c0.55,0,1-0.45,1-1v-6h5
		l0.72,1.45c0.17,0.34,0.52,0.55,0.89,0.55H19c0.55,0,1-0.45,1-1V7c0-0.55-0.45-1-1-1H14z M18,14h-4l-1-2H7V6h5l1,2h5V14z"/>
</g>
</svg>
