<?xml version="1.0" encoding="utf-8"?>
<!-- Generator: Adobe Illustrator 19.1.0, SVG Export Plug-In . SVG Version: 6.00 Build 0)  -->
<svg version="1.1" xmlns="http://www.w3.org/2000/svg" xmlns:xlink="http://www.w3.org/1999/xlink" x="0px" y="0px" width="24px"
	 height="24px" viewBox="0 0 24 24" enable-background="new 0 0 24 24" xml:space="preserve">
<g id="Bounding_Boxes">
	<g id="ui_x5F_spec_x5F_header_copy_2">
	</g>
	<path fill="none" d="M0,0h24v24H0V0z"/>
</g>
<g id="Rounded">
	<path d="M3,5v6h5L7.4,8.62C7.22,7.88,7.88,7.22,8.62,7.4L11,8V3H5C3.9,3,3,3.9,3,5z M8,13H3v6c0,1.1,0.9,2,2,2h6v-5l-2.38,0.6
		c-0.73,0.18-1.4-0.48-1.21-1.21L8,13z M15.38,16.6L13,16v5h6c1.1,0,2-0.9,2-2v-6h-5l0.6,2.38C16.78,16.12,16.12,16.78,15.38,16.6z
		 M19,3h-6v5l2.38-0.6c0.73-0.18,1.4,0.48,1.21,1.21L16,11h5V5C21,3.9,20.1,3,19,3z"/>
</g>
</svg>
