<?xml version="1.0" encoding="utf-8"?>
<!-- Generator: Adobe Illustrator 19.1.0, SVG Export Plug-In . SVG Version: 6.00 Build 0)  -->
<svg version="1.1" xmlns="http://www.w3.org/2000/svg" xmlns:xlink="http://www.w3.org/1999/xlink" x="0px" y="0px" width="24px"
	 height="24px" viewBox="0 0 24 24" enable-background="new 0 0 24 24" xml:space="preserve">
<g id="Bounding_Boxes" display="none">
	<rect display="inline" fill="none" width="24" height="24"/>
	<rect display="inline" fill="none" width="24" height="24"/>
	<rect display="inline" fill="none" width="24" height="24"/>
</g>
<g id="Rounded">
	<path d="M12,2C6.48,2,2,6.48,2,12s4.48,10,10,10s10-4.48,10-10S17.52,2,12,2z M10,16L10,16c-0.55,0-1-0.45-1-1V9c0-0.55,0.45-1,1-1
		h0c0.55,0,1,0.45,1,1v6C11,15.55,10.55,16,10,16z M14,16L14,16c-0.55,0-1-0.45-1-1V9c0-0.55,0.45-1,1-1h0c0.55,0,1,0.45,1,1v6
		C15,15.55,14.55,16,14,16z"/>
</g>
</svg>
