<?xml version="1.0" encoding="utf-8"?>
<!-- Generator: Adobe Illustrator 19.1.0, SVG Export Plug-In . SVG Version: 6.00 Build 0)  -->
<svg version="1.1" xmlns="http://www.w3.org/2000/svg" xmlns:xlink="http://www.w3.org/1999/xlink" x="0px" y="0px" width="24px"
	 height="24px" viewBox="0 0 24 24" enable-background="new 0 0 24 24" xml:space="preserve">
<g id="Bounding_Boxes" display="none">
	<path display="inline" fill="none" d="M0,0h24v24H0V0z"/>
</g>
<g id="Rounded">
	<path d="M8,19L8,19c1.1,0,2-0.9,2-2V7c0-1.1-0.9-2-2-2h0C6.9,5,6,5.9,6,7v10C6,18.1,6.9,19,8,19z M14,7v10c0,1.1,0.9,2,2,2h0
		c1.1,0,2-0.9,2-2V7c0-1.1-0.9-2-2-2h0C14.9,5,14,5.9,14,7z"/>
</g>
</svg>
