<?xml version="1.0" encoding="utf-8"?>
<!-- Generator: Adobe Illustrator 19.1.0, SVG Export Plug-In . SVG Version: 6.00 Build 0)  -->
<svg version="1.1" xmlns="http://www.w3.org/2000/svg" xmlns:xlink="http://www.w3.org/1999/xlink" x="0px" y="0px" width="24px"
	 height="24px" viewBox="0 0 24 24" enable-background="new 0 0 24 24" xml:space="preserve">
<g id="Bounding_Boxes">
	<g id="ui_x5F_spec_x5F_header_copy_2">
	</g>
	<path fill="none" d="M0,0h24v24H0V0z"/>
</g>
<g id="Rounded_1_">
	<g id="ui_x5F_spec_x5F_header_copy_6">
	</g>
	<g>
		<path d="M21,3H3C1.9,3,1,3.9,1,5v14c0,1.1,0.9,2,2,2h18c1.1,0,2-0.9,2-2V5C23,3.9,22.1,3,21,3z M21,18c0,0.55-0.45,1-1,1H4
			c-0.55,0-1-0.45-1-1V6c0-0.55,0.45-1,1-1h16c0.55,0,1,0.45,1,1V18z"/>
		<path d="M10,8C9.45,8,9,8.45,9,9v6c0,0.55,0.45,1,1,1s1-0.45,1-1V9C11,8.45,10.55,8,10,8z"/>
		<path d="M14,8c-0.55,0-1,0.45-1,1v6c0,0.55,0.45,1,1,1s1-0.45,1-1V9C15,8.45,14.55,8,14,8z"/>
	</g>
</g>
</svg>
