<?xml version="1.0" encoding="utf-8"?>
<!-- Generator: Adobe Illustrator 19.1.0, SVG Export Plug-In . SVG Version: 6.00 Build 0)  -->
<svg version="1.1" xmlns="http://www.w3.org/2000/svg" xmlns:xlink="http://www.w3.org/1999/xlink" x="0px" y="0px" width="24px"
	 height="24px" viewBox="0 0 24 24" enable-background="new 0 0 24 24" xml:space="preserve">
<g id="Bounding_Boxes">
	<path fill="none" d="M0,0h24v24H0V0z"/>
</g>
<g id="Rounded">
	<path d="M19,2H5C3.89,2,3,2.9,3,4v14c0,1.1,0.9,2,2,2h4l2.29,2.29c0.39,0.39,1.02,0.39,1.41,0L15,20h4c1.1,0,2-0.9,2-2V4
		C21,2.9,20.1,2,19,2z M12,5.3c1.49,0,2.7,1.21,2.7,2.7s-1.21,2.7-2.7,2.7S9.3,9.49,9.3,8S10.51,5.3,12,5.3z M18,16H6v-0.9
		c0-2,4-3.1,6-3.1s6,1.1,6,3.1V16z"/>
</g>
</svg>
