<?xml version="1.0" encoding="utf-8"?>
<!-- Generator: Adobe Illustrator 19.1.0, SVG Export Plug-In . SVG Version: 6.00 Build 0)  -->
<svg version="1.1" xmlns="http://www.w3.org/2000/svg" xmlns:xlink="http://www.w3.org/1999/xlink" x="0px" y="0px" width="24px"
	 height="24px" viewBox="0 0 24 24" enable-background="new 0 0 24 24" xml:space="preserve">
<g id="Bounding_Boxes">
	<g id="ui_x5F_spec_x5F_header_copy_2">
	</g>
	<path fill="none" d="M0,0h24v24H0V0z"/>
</g>
<g id="Rounded">
	<path d="M15,12c2.21,0,4-1.79,4-4s-1.79-4-4-4s-4,1.79-4,4S12.79,12,15,12z M6,10V8c0-0.55-0.45-1-1-1h0C4.45,7,4,7.45,4,8v2H2
		c-0.55,0-1,0.45-1,1v0c0,0.55,0.45,1,1,1h2v2c0,0.55,0.45,1,1,1h0c0.55,0,1-0.45,1-1v-2h2c0.55,0,1-0.45,1-1v0c0-0.55-0.45-1-1-1H6
		z M15,14c-2.67,0-8,1.34-8,4v1c0,0.55,0.45,1,1,1h14c0.55,0,1-0.45,1-1v-1C23,15.34,17.67,14,15,14z"/>
</g>
</svg>
