<?xml version="1.0" encoding="utf-8"?>
<!-- Generator: Adobe Illustrator 19.1.0, SVG Export Plug-In . SVG Version: 6.00 Build 0)  -->
<svg version="1.1" xmlns="http://www.w3.org/2000/svg" xmlns:xlink="http://www.w3.org/1999/xlink" x="0px" y="0px" width="24px"
	 height="24px" viewBox="0 0 24 24" enable-background="new 0 0 24 24" xml:space="preserve">
<g id="Bounding_Boxes">
	<g id="ui_x5F_spec_x5F_header_copy_2">
	</g>
	<path fill="none" d="M0,0h24v24H0V0z"/>
</g>
<g id="Rounded_1_">
	<g id="ui_x5F_spec_x5F_header_copy_6">
	</g>
	<path d="M12.5,7.7L12.5,7.7c-0.28-0.28-0.72-0.28-1,0L8,11.2L4.5,7.7c-0.28-0.28-0.72-0.28-1,0l0,0c-0.28,0.28-0.28,0.72,0,1
		L7,12.2l-3.5,3.5c-0.28,0.28-0.28,0.72,0,1h0c0.28,0.28,0.72,0.28,1,0L8,13.2l3.5,3.5c0.28,0.28,0.72,0.28,1,0h0
		c0.28-0.28,0.28-0.72,0-1L9,12.2l3.5-3.5C12.78,8.42,12.78,7.98,12.5,7.7z M19,1H9C7.9,1,7,1.9,7,3v2c0,0.55,0.45,1,1,1h0
		c0.55,0,1-0.45,1-1V4h10v16H9v-1c0-0.55-0.45-1-1-1h0c-0.55,0-1,0.45-1,1v2c0,1.1,0.9,2,2,2h10c1.1,0,2-0.9,2-2V3
		C21,1.9,20.1,1,19,1z"/>
</g>
</svg>
