<?xml version="1.0" encoding="utf-8"?>
<!-- Generator: Adobe Illustrator 19.1.0, SVG Export Plug-In . SVG Version: 6.00 Build 0)  -->
<svg version="1.1" xmlns="http://www.w3.org/2000/svg" xmlns:xlink="http://www.w3.org/1999/xlink" x="0px" y="0px" width="24px"
	 height="24px" viewBox="0 0 24 24" enable-background="new 0 0 24 24" xml:space="preserve">
<g id="Bounding_Boxes" display="none">
	<g id="ui_x5F_spec_x5F_header_copy_3" display="inline">
	</g>
	<path display="inline" fill="none" d="M0,0h24v24H0V0z"/>
</g>
<g id="Rounded">
	<path d="M16,1H8C6.34,1,5,2.34,5,4v16c0,1.66,1.34,3,3,3h8c1.66,0,3-1.34,3-3V4C19,2.34,17.66,1,16,1z M13.5,21h-3
		c-0.28,0-0.5-0.22-0.5-0.5c0-0.28,0.22-0.5,0.5-0.5h3c0.28,0,0.5,0.22,0.5,0.5C14,20.78,13.78,21,13.5,21z M17,18H7V4h10V18z"/>
	<g id="ui_x5F_spec_x5F_header_copy_6">
	</g>
</g>
</svg>
