<?xml version="1.0" encoding="utf-8"?>
<!-- Generator: Adobe Illustrator 19.1.0, SVG Export Plug-In . SVG Version: 6.00 Build 0)  -->
<svg version="1.1" xmlns="http://www.w3.org/2000/svg" xmlns:xlink="http://www.w3.org/1999/xlink" x="0px" y="0px" width="24px"
	 height="24px" viewBox="0 0 24 24" enable-background="new 0 0 24 24" xml:space="preserve">
<g id="Bounding_Boxes">
	<g id="ui_x5F_spec_x5F_header_copy_2">
	</g>
	<path fill="none" d="M0,0h24v24H0V0z"/>
</g>
<g id="Rounded">
	<g id="ui_x5F_spec_x5F_header_copy_6">
	</g>
	<path d="M23,15h-2v2h2V15z M23,11h-2v2h2V11z M23,19h-2v2C22,21,23,20,23,19z M15,3h-2v2h2V3z M23,7h-2v2h2V7z M21,3v2h2
		C23,4,22,3,21,3z M3,21h8v-4c0-1.1-0.9-2-2-2H1v4C1,20.1,1.9,21,3,21z M3,7H1v2h2V7z M15,19h-2v2h2V19z M19,3h-2v2h2V3z M19,19h-2
		v2h2V19z M3,3C2,3,1,4,1,5h2V3z M3,11H1v2h2V11z M11,3H9v2h2V3z M7,3H5v2h2V3z"/>
</g>
</svg>
