<?xml version="1.0" encoding="utf-8"?>
<!-- Generator: Adobe Illustrator 19.1.0, SVG Export Plug-In . SVG Version: 6.00 Build 0)  -->
<svg version="1.1" xmlns="http://www.w3.org/2000/svg" xmlns:xlink="http://www.w3.org/1999/xlink" x="0px" y="0px" width="24px"
	 height="24px" viewBox="0 0 24 24" enable-background="new 0 0 24 24" xml:space="preserve">
<g id="Bounding_Boxes">
	<g id="ui_x5F_spec_x5F_header_copy_2">
	</g>
	<path fill="none" d="M0,0h24v24H0V0z"/>
</g>
<g id="Rounded">
	<g id="ui_x5F_spec_x5F_header_copy_6">
	</g>
	<path d="M19.02,10.99V18c0,0.55-0.45,1-1,1H6c-0.55,0-1-0.45-1-1V6c0-0.55,0.45-1,1-1h7c0.55,0,1-0.45,1-1v0c0-0.55-0.45-1-1-1
		H5.02c-1.1,0-2,0.9-2,2v14c0,1.1,0.9,2,2,2H19c1.1,0,2-0.89,2-2l0-8.01c0-0.55-0.44-0.99-0.99-0.99h0
		C19.46,10,19.02,10.44,19.02,10.99z M13.25,10.75L12.46,9c-0.18-0.39-0.73-0.39-0.91,0l-0.79,1.75L9,11.54
		c-0.39,0.18-0.39,0.73,0,0.91l1.75,0.79L11.54,15c0.18,0.39,0.73,0.39,0.91,0l0.79-1.75L15,12.46c0.39-0.18,0.39-0.73,0-0.91
		L13.25,10.75z M17.94,6.06l-0.6-1.32c-0.13-0.29-0.55-0.29-0.69,0l-0.6,1.32l-1.32,0.6c-0.29,0.13-0.29,0.55,0,0.69l1.32,0.6
		l0.6,1.32c0.13,0.29,0.55,0.29,0.69,0l0.6-1.32l1.32-0.6c0.29-0.13,0.29-0.55,0-0.69L17.94,6.06z"/>
</g>
</svg>
