<?xml version="1.0" encoding="utf-8"?>
<!-- Generator: Adobe Illustrator 19.1.0, SVG Export Plug-In . SVG Version: 6.00 Build 0)  -->
<svg version="1.1" xmlns="http://www.w3.org/2000/svg" xmlns:xlink="http://www.w3.org/1999/xlink" x="0px" y="0px" width="24px"
	 height="24px" viewBox="0 0 24 24" enable-background="new 0 0 24 24" xml:space="preserve">
<g id="Bounding_Boxes">
	<g id="ui_x5F_spec_x5F_header_copy_3">
	</g>
	<path fill="none" d="M0,0h24v24H0V0z"/>
</g>
<g id="Rounded">
	<g id="ui_x5F_spec_x5F_header_copy_6">
	</g>
	<path d="M11,3.18v17.64c0,0.64-0.59,1.12-1.21,0.98C5.32,20.8,2,16.79,2,12s3.32-8.8,7.79-9.8C10.41,2.06,11,2.54,11,3.18z
		 M13.03,3.18v6.81c0,0.55,0.45,1,1,1h6.79c0.64,0,1.12-0.59,0.98-1.22C20.95,6.01,18,3.05,14.25,2.2
		C13.62,2.06,13.03,2.54,13.03,3.18z M13.03,14.01v6.81c0,0.64,0.59,1.12,1.22,0.98c3.76-0.85,6.71-3.82,7.56-7.58
		c0.14-0.62-0.35-1.22-0.98-1.22h-6.79C13.48,13.01,13.03,13.46,13.03,14.01z"/>
</g>
</svg>
