<?xml version="1.0" encoding="utf-8"?>
<!-- Generator: Adobe Illustrator 19.1.0, SVG Export Plug-In . SVG Version: 6.00 Build 0)  -->
<svg version="1.1" xmlns="http://www.w3.org/2000/svg" xmlns:xlink="http://www.w3.org/1999/xlink" x="0px" y="0px" width="24px"
	 height="24px" viewBox="0 0 24 24" enable-background="new 0 0 24 24" xml:space="preserve">
<g id="Header_x2F_BG" display="none">
	<rect x="-358" y="-226" display="inline" fill="#F1F1F2" width="520" height="520"/>
</g>
<g id="Bounding_Boxes">
	<g id="ui_x5F_spec_x5F_header_copy_3" display="none">
	</g>
	<path fill="none" d="M0,0h24v24H0V0z"/>
</g>
<g id="Rounded">
	<g id="ui_x5F_spec_x5F_header_copy_5" display="none">
	</g>
	<path d="M11,6v4.59H8.71c-0.45,0-0.67,0.54-0.35,0.85l3.29,3.29c0.2,0.2,0.51,0.2,0.71,0l3.29-3.29c0.31-0.31,0.09-0.85-0.35-0.85
		H13V6c0-0.55-0.45-1-1-1h0C11.45,5,11,5.45,11,6z M7.1,14c-0.61,0-1.11,0.55-0.99,1.15C6.65,17.91,9.08,20,12,20
		s5.35-2.09,5.89-4.85c0.12-0.6-0.38-1.15-0.99-1.15h0c-0.49,0-0.88,0.35-0.98,0.83C15.53,16.64,13.93,18,12,18
		s-3.53-1.36-3.91-3.17C7.99,14.35,7.59,14,7.1,14L7.1,14z"/>
</g>
<g id="Sharp" display="none">
	<g id="ui_x5F_spec_x5F_header_copy_4">
	</g>
	<path display="inline" d="M11,5v5.59H7.5l4.5,4.5l4.5-4.5H13V5H11z M6,14c0,3.31,2.69,6,6,6s6-2.69,6-6h-2c0,2.21-1.79,4-4,4
		s-4-1.79-4-4H6z"/>
</g>
<g id="Outline" display="none">
	<g id="ui_x5F_spec_x5F_header">
	</g>
	<path display="inline" d="M11,5v5.59H7.5l4.5,4.5l4.5-4.5H13V5H11z M6,14c0,3.31,2.69,6,6,6s6-2.69,6-6h-2c0,2.21-1.79,4-4,4
		s-4-1.79-4-4H6z"/>
</g>
<g id="Duotone" display="none">
	<g id="ui_x5F_spec_x5F_header_copy_2">
	</g>
	<path display="inline" d="M11,5v5.59H7.5l4.5,4.5l4.5-4.5H13V5H11z M6,14c0,3.31,2.69,6,6,6s6-2.69,6-6h-2c0,2.21-1.79,4-4,4
		s-4-1.79-4-4H6z"/>
</g>
<g id="Material" display="none">
	<g id="ui_x5F_spec_x5F_header_copy">
	</g>
	<path display="inline" d="M11,5v5.59H7.5l4.5,4.5l4.5-4.5H13V5H11z M6,14c0,3.31,2.69,6,6,6s6-2.69,6-6h-2c0,2.21-1.79,4-4,4
		s-4-1.79-4-4H6z"/>
</g>
</svg>
