<?xml version="1.0" encoding="utf-8"?>
<!-- Generator: Adobe Illustrator 19.1.0, SVG Export Plug-In . SVG Version: 6.00 Build 0)  -->
<svg version="1.1" xmlns="http://www.w3.org/2000/svg" xmlns:xlink="http://www.w3.org/1999/xlink" x="0px" y="0px" width="24px"
	 height="24px" viewBox="0 0 24 24" enable-background="new 0 0 24 24" xml:space="preserve">
<g id="Bounding_Boxes" display="none">
	<path display="inline" fill="none" d="M0,0h24v24H0V0z"/>
</g>
<g id="Rounded">
	<path d="M13,10H3c-0.55,0-1,0.45-1,1v0c0,0.55,0.45,1,1,1h10c0.55,0,1-0.45,1-1v0C14,10.45,13.55,10,13,10z M13,6H3
		C2.45,6,2,6.45,2,7v0c0,0.55,0.45,1,1,1h10c0.55,0,1-0.45,1-1v0C14,6.45,13.55,6,13,6z M3,16h6c0.55,0,1-0.45,1-1v0
		c0-0.55-0.45-1-1-1H3c-0.55,0-1,0.45-1,1v0C2,15.55,2.45,16,3,16z M22.21,12.21l0.09,0.09c0.39,0.39,0.39,1.02,0,1.41l-5.58,5.59
		c-0.39,0.39-1.02,0.39-1.41,0l-3.09-3.09c-0.39-0.39-0.39-1.02,0-1.41l0.09-0.09c0.39-0.39,1.02-0.39,1.41,0l2.3,2.3l4.78-4.79
		C21.18,11.82,21.82,11.82,22.21,12.21z"/>
</g>
</svg>
