<?xml version="1.0" encoding="utf-8"?>
<!-- Generator: Adobe Illustrator 19.1.0, SVG Export Plug-In . SVG Version: 6.00 Build 0)  -->
<svg version="1.1" xmlns="http://www.w3.org/2000/svg" xmlns:xlink="http://www.w3.org/1999/xlink" x="0px" y="0px" width="24px"
	 height="24px" viewBox="0 0 24 24" enable-background="new 0 0 24 24" xml:space="preserve">
<g id="Bounding_Boxes">
	<g id="ui_x5F_spec_x5F_header_copy_2">
	</g>
	<path fill="none" d="M0,0h24v24H0V0z"/>
</g>
<g id="Rounded">
	<path d="M9,8L9,8C8.45,8,8,8.45,8,9v3H5c-0.55,0-1,0.45-1,1v0c0,0.55,0.45,1,1,1h3v3c0,0.55,0.45,1,1,1h0c0.55,0,1-0.45,1-1v-3h3
		c0.55,0,1-0.45,1-1v0c0-0.55-0.45-1-1-1h-3V9C10,8.45,9.55,8,9,8z M14.5,6.79L14.5,6.79c0,0.57,0.52,1,1.08,0.89L17,7.4V17
		c0,0.55,0.45,1,1,1h0c0.55,0,1-0.45,1-1V6.27c0-0.65-0.6-1.12-1.23-0.97l-2.57,0.62C14.79,6.01,14.5,6.38,14.5,6.79z"/>
</g>
</svg>
