<?xml version="1.0" encoding="utf-8"?>
<!-- Generator: Adobe Illustrator 19.1.0, SVG Export Plug-In . SVG Version: 6.00 Build 0)  -->
<svg version="1.1" xmlns="http://www.w3.org/2000/svg" xmlns:xlink="http://www.w3.org/1999/xlink" x="0px" y="0px" width="24px"
	 height="24px" viewBox="0 0 24 24" enable-background="new 0 0 24 24" xml:space="preserve">
<g id="Bounding_Boxes">
	<g id="ui_x5F_spec_x5F_header_copy_2">
	</g>
	<path fill="none" d="M0,0h24v24H0V0z"/>
</g>
<g id="Rounded">
	<g id="ui_x5F_spec_x5F_header_copy_6">
	</g>
	<path d="M12,12.25c1.24,0,2.25-1.01,2.25-2.25S13.24,7.75,12,7.75S9.75,8.76,9.75,10S10.76,12.25,12,12.25z M16.5,16.25
		c0-1.5-3-2.25-4.5-2.25s-4.5,0.75-4.5,2.25V17h9V16.25z M19,3H5C3.9,3,3,3.9,3,5v14c0,1.1,0.9,2,2,2h14c1.1,0,2-0.9,2-2V5
		C21,3.9,20.1,3,19,3z M18,19H6c-0.55,0-1-0.45-1-1V6c0-0.55,0.45-1,1-1h12c0.55,0,1,0.45,1,1v12C19,18.55,18.55,19,18,19z"/>
</g>
</svg>
