<?xml version="1.0" encoding="utf-8"?>
<!-- Generator: Adobe Illustrator 19.1.0, SVG Export Plug-In . SVG Version: 6.00 Build 0)  -->
<svg version="1.1" xmlns="http://www.w3.org/2000/svg" xmlns:xlink="http://www.w3.org/1999/xlink" x="0px" y="0px" width="24px"
	 height="24px" viewBox="0 0 24 24" enable-background="new 0 0 24 24" xml:space="preserve">
<g id="Bounding_Boxes" display="none">
	<g id="ui_x5F_spec_x5F_header_copy_3" display="inline">
	</g>
	<path display="inline" fill="none" d="M0,0h24v24H0V0z"/>
</g>
<g id="Rounded">
	<g id="ui_x5F_spec_x5F_header_copy_6">
	</g>
	<path d="M2,10L2,10c0,0.55,0.45,1,1,1h17c0.55,0,1-0.45,1-1v0c0-0.55-0.45-1-1-1H3C2.45,9,2,9.45,2,10z M3,15h3c0.55,0,1-0.45,1-1
		v0c0-0.55-0.45-1-1-1H3c-0.55,0-1,0.45-1,1v0C2,14.55,2.45,15,3,15z M10,15h3c0.55,0,1-0.45,1-1v0c0-0.55-0.45-1-1-1h-3
		c-0.55,0-1,0.45-1,1v0C9,14.55,9.45,15,10,15z M17,15h3c0.55,0,1-0.45,1-1v0c0-0.55-0.45-1-1-1h-3c-0.55,0-1,0.45-1,1v0
		C16,14.55,16.45,15,17,15z"/>
</g>
</svg>
