<?xml version="1.0" encoding="utf-8"?>
<!-- Generator: Adobe Illustrator 19.1.0, SVG Export Plug-In . SVG Version: 6.00 Build 0)  -->
<svg version="1.1" xmlns="http://www.w3.org/2000/svg" xmlns:xlink="http://www.w3.org/1999/xlink" x="0px" y="0px" width="24px"
	 height="24px" viewBox="0 0 24 24" enable-background="new 0 0 24 24" xml:space="preserve">
<g id="Bounding_Boxes">
	<g id="ui_x5F_spec_x5F_header_copy_2">
	</g>
	<path fill="none" d="M0,0h24v24H0V0z"/>
</g>
<g id="Rounded_1_">
	<g id="ui_x5F_spec_x5F_header_copy_6">
	</g>
	<path d="M21,3H3C1.89,3,1,3.89,1,5v14c0,1.11,0.89,2,2,2h18c1.11,0,2-0.89,2-2V5C23,3.89,22.11,3,21,3z M20,19.02H4
		c-0.55,0-1-0.45-1-1V5.98c0-0.55,0.45-1,1-1h16c0.55,0,1,0.45,1,1v12.04C21,18.57,20.55,19.02,20,19.02z M10,12H8l3.65-3.65
		c0.2-0.2,0.51-0.2,0.71,0L16,12h-2v4h-4V12z"/>
</g>
</svg>
