<?xml version="1.0" encoding="utf-8"?>
<!-- Generator: Adobe Illustrator 19.1.0, SVG Export Plug-In . SVG Version: 6.00 Build 0)  -->
<svg version="1.1" xmlns="http://www.w3.org/2000/svg" xmlns:xlink="http://www.w3.org/1999/xlink" x="0px" y="0px" width="24px"
	 height="24px" viewBox="0 0 24 24" enable-background="new 0 0 24 24" xml:space="preserve">
<g id="Bounding_Boxes">
	<path fill="none" d="M0,0h24v24H0V0z"/>
	<g id="ui_x5F_spec_x5F_header_copy_2">
	</g>
</g>
<g id="Rounded">
	<path d="M12,2C6.48,2,2,6.48,2,12s4.48,10,10,10s10-4.48,10-10S17.52,2,12,2z M11,19.93C7.05,19.44,4,16.08,4,12
		c0-0.62,0.08-1.21,0.21-1.79L9,15v1c0,1.1,0.9,2,2,2V19.93z M17.9,17.39C17.64,16.58,16.9,16,16,16h-1v-3c0-0.55-0.45-1-1-1H8v-2h2
		c0.55,0,1-0.45,1-1V7h2c1.1,0,2-0.9,2-2V4.59c2.93,1.19,5,4.06,5,7.41C20,14.08,19.2,15.97,17.9,17.39z"/>
</g>
</svg>
