<?xml version="1.0" encoding="utf-8"?>
<!-- Generator: Adobe Illustrator 19.1.0, SVG Export Plug-In . SVG Version: 6.00 Build 0)  -->
<svg version="1.1" xmlns="http://www.w3.org/2000/svg" xmlns:xlink="http://www.w3.org/1999/xlink" x="0px" y="0px" width="24px"
	 height="24px" viewBox="0 0 24 24" enable-background="new 0 0 24 24" xml:space="preserve">
<g id="Bounding_Boxes">
	<g id="ui_x5F_spec_x5F_header_copy_3">
	</g>
	<path fill="none" d="M0,0h24v24H0V0z"/>
</g>
<g id="Rounded">
	<g id="ui_x5F_spec_x5F_header_copy_6">
	</g>
	<path d="M5,5L5,5c0,0.55,0.45,1,1,1h12c0.55,0,1-0.45,1-1v0c0-0.55-0.45-1-1-1H6C5.45,4,5,4.45,5,5z M7.41,14H9v5
		c0,0.55,0.45,1,1,1h4c0.55,0,1-0.45,1-1v-5h1.59c0.89,0,1.34-1.08,0.71-1.71l-4.59-4.59c-0.39-0.39-1.02-0.39-1.41,0l-4.59,4.59
		C6.08,12.92,6.52,14,7.41,14z"/>
</g>
</svg>
