<?xml version="1.0" encoding="utf-8"?>
<!-- Generator: Adobe Illustrator 19.1.0, SVG Export Plug-In . SVG Version: 6.00 Build 0)  -->
<svg version="1.1" xmlns="http://www.w3.org/2000/svg" xmlns:xlink="http://www.w3.org/1999/xlink" x="0px" y="0px" width="24px"
	 height="24px" viewBox="0 0 24 24" enable-background="new 0 0 24 24" xml:space="preserve">
<g id="Bounding_Boxes" display="none">
	<rect display="inline" fill="none" width="24" height="24"/>
	<rect display="inline" fill="none" width="24" height="24"/>
	<rect display="inline" fill="none" width="24" height="24"/>
</g>
<g id="Rounded">
	<path d="M14,6H4C3.45,6,3,6.45,3,7v0c0,0.55,0.45,1,1,1h10c0.55,0,1-0.45,1-1v0C15,6.45,14.55,6,14,6z M14,10H4c-0.55,0-1,0.45-1,1
		v0c0,0.55,0.45,1,1,1h10c0.55,0,1-0.45,1-1v0C15,10.45,14.55,10,14,10z M4,16h6c0.55,0,1-0.45,1-1v0c0-0.55-0.45-1-1-1H4
		c-0.55,0-1,0.45-1,1v0C3,15.55,3.45,16,4,16z M19,6c-1.1,0-2,0.9-2,2v6.18C16.69,14.07,16.35,14,16,14c-1.84,0-3.28,1.64-2.95,3.54
		c0.21,1.21,1.2,2.2,2.41,2.41C17.36,20.28,19,18.84,19,17V8h2c0.55,0,1-0.45,1-1v0c0-0.55-0.45-1-1-1H19z"/>
</g>
</svg>
