<?xml version="1.0" encoding="utf-8"?>
<!-- Generator: Adobe Illustrator 19.1.0, SVG Export Plug-In . SVG Version: 6.00 Build 0)  -->
<svg version="1.1" xmlns="http://www.w3.org/2000/svg" xmlns:xlink="http://www.w3.org/1999/xlink" x="0px" y="0px" width="24px"
	 height="24px" viewBox="0 0 24 24" enable-background="new 0 0 24 24" xml:space="preserve">
<g id="Bounding_Boxes">
	<path fill="none" d="M0,0h24v24H0V0z"/>
</g>
<g id="Rounded">
	<path d="M20,2H4C2.9,2,2,2.9,2,4v18l4-4h14c1.1,0,2-0.9,2-2V4C22,2.9,21.1,2,20,2z M6,14v-2.47l6.88-6.88c0.2-0.2,0.51-0.2,0.71,0
		l1.77,1.77c0.2,0.2,0.2,0.51,0,0.71L8.47,14H6z M17,14h-6.5l2-2H17c0.55,0,1,0.45,1,1v0C18,13.55,17.55,14,17,14z"/>
</g>
</svg>
