<?xml version="1.0" encoding="utf-8"?>
<!-- Generator: Adobe Illustrator 19.1.0, SVG Export Plug-In . SVG Version: 6.00 Build 0)  -->
<svg version="1.1" xmlns="http://www.w3.org/2000/svg" xmlns:xlink="http://www.w3.org/1999/xlink" x="0px" y="0px" width="24px"
	 height="24px" viewBox="0 0 24 24" enable-background="new 0 0 24 24" xml:space="preserve">
<g id="Bounding_Boxes" display="none">
	<path display="inline" fill="none" d="M0,0h24v24H0V0z"/>
</g>
<g id="Rounded">
	<path d="M7,7h10v1.79c0,0.45,0.54,0.67,0.85,0.35l2.79-2.79c0.2-0.2,0.2-0.51,0-0.71l-2.79-2.79C17.54,2.54,17,2.76,17,3.21V5H6
		C5.45,5,5,5.45,5,6v4c0,0.55,0.45,1,1,1h0c0.55,0,1-0.45,1-1V7z M17,17H7v-1.79c0-0.45-0.54-0.67-0.85-0.35l-2.79,2.79
		c-0.2,0.2-0.2,0.51,0,0.71l2.79,2.79C6.46,21.46,7,21.24,7,20.79V19h11c0.55,0,1-0.45,1-1v-4c0-0.55-0.45-1-1-1h0
		c-0.55,0-1,0.45-1,1V17z"/>
</g>
</svg>
