<?xml version="1.0" encoding="utf-8"?>
<!-- Generator: Adobe Illustrator 19.1.0, SVG Export Plug-In . SVG Version: 6.00 Build 0)  -->
<svg version="1.1" xmlns="http://www.w3.org/2000/svg" xmlns:xlink="http://www.w3.org/1999/xlink" x="0px" y="0px" width="24px"
	 height="24px" viewBox="0 0 24 24" enable-background="new 0 0 24 24" xml:space="preserve">
<g id="Bounding_Boxes" display="none">
	<rect display="inline" fill="none" width="24" height="24"/>
	<rect display="inline" fill="none" width="24" height="24"/>
	<rect display="inline" fill="none" width="24" height="24"/>
</g>
<g id="Rounded">
	<path d="M12,5V2.21c0-0.45-0.54-0.67-0.85-0.35L7.35,5.65c-0.2,0.2-0.2,0.51,0,0.71l3.79,3.79C11.46,10.46,12,10.24,12,9.79V7
		c3.73,0,6.68,3.42,5.86,7.29c-0.47,2.27-2.31,4.1-4.57,4.57c-3.57,0.75-6.75-1.7-7.23-5.01C5.99,13.37,5.57,13,5.08,13h0
		c-0.6,0-1.08,0.53-1,1.13c0.62,4.39,4.8,7.64,9.53,6.72c3.12-0.61,5.63-3.12,6.24-6.24C20.84,9.48,16.94,5,12,5z"/>
</g>
</svg>
