<?xml version="1.0" encoding="utf-8"?>
<!-- Generator: Adobe Illustrator 19.1.0, SVG Export Plug-In . SVG Version: 6.00 Build 0)  -->
<svg version="1.1" xmlns="http://www.w3.org/2000/svg" xmlns:xlink="http://www.w3.org/1999/xlink" x="0px" y="0px" width="24px"
	 height="24px" viewBox="0 0 24 24" enable-background="new 0 0 24 24" xml:space="preserve">
<g id="Bounding_Boxes">
	<path fill="none" d="M0,0h24v24H0V0z"/>
</g>
<g id="Rounded">
	<path d="M3,17h18c0.55,0,1,0.45,1,1v0c0,0.55-0.45,1-1,1H3c-0.55,0-1-0.45-1-1v0C2,17.45,2.45,17,3,17z M13.84,7.79
		C13.94,7.55,14,7.28,14,7c0-1.1-0.9-2-2-2s-2,0.9-2,2c0,0.28,0.06,0.55,0.16,0.79C6.25,8.6,3.27,11.93,3,16h18
		C20.73,11.93,17.75,8.6,13.84,7.79z"/>
</g>
</svg>
