<?xml version="1.0" encoding="utf-8"?>
<!-- Generator: Adobe Illustrator 19.1.0, SVG Export Plug-In . SVG Version: 6.00 Build 0)  -->
<svg version="1.1" xmlns="http://www.w3.org/2000/svg" xmlns:xlink="http://www.w3.org/1999/xlink" x="0px" y="0px" width="24px"
	 height="24px" viewBox="0 0 24 24" enable-background="new 0 0 24 24" xml:space="preserve">
<g id="Bounding_Boxes">
	<g id="ui_x5F_spec_x5F_header_copy_2">
	</g>
	<path fill="none" d="M0,0h24v24H0V0z"/>
</g>
<g id="Rounded_1_">
	<g id="ui_x5F_spec_x5F_header_copy_6">
	</g>
	<g>
		<circle cx="6.18" cy="17.82" r="2.18"/>
		<path d="M5.59,10.23C4.75,10.09,4,10.78,4,11.63c0,0.71,0.53,1.28,1.23,1.4c2.92,0.51,5.22,2.82,5.74,5.74
			c0.12,0.7,0.69,1.23,1.4,1.23h0c0.85,0,1.54-0.75,1.41-1.59C13.1,14.21,9.79,10.9,5.59,10.23z"/>
		<path d="M5.56,4.52C4.73,4.43,4,5.1,4,5.93c0,0.73,0.55,1.33,1.27,1.4c6.01,0.6,10.79,5.38,11.39,11.39
			c0.07,0.73,0.67,1.28,1.4,1.28c0.84,0,1.5-0.73,1.42-1.56C18.75,11.1,12.91,5.25,5.56,4.52z"/>
	</g>
</g>
</svg>
