<?xml version="1.0" encoding="utf-8"?>
<!-- Generator: Adobe Illustrator 19.1.0, SVG Export Plug-In . SVG Version: 6.00 Build 0)  -->
<svg version="1.1" xmlns="http://www.w3.org/2000/svg" xmlns:xlink="http://www.w3.org/1999/xlink" x="0px" y="0px" width="24px"
	 height="24px" viewBox="0 0 24 24" enable-background="new 0 0 24 24" xml:space="preserve">
<g id="Bounding_Boxes">
	<path fill="none" d="M0,0h24v24H0V0z"/>
</g>
<g id="Rounded">
	<g>
		<path d="M21,17h-1v-6c0-1.1-0.9-2-2-2H7V8.26c0-0.46-0.56-0.7-0.89-0.37L4.37,9.63c-0.2,0.2-0.2,0.53,0,0.74l1.74,1.74
			C6.44,12.44,7,12.21,7,11.74V11h4v3H5c-0.55,0-1,0.45-1,1v2c0,1.1,0.9,2,2,2h2c0,1.66,1.34,3,3,3s3-1.34,3-3h7c0.55,0,1-0.45,1-1
			C22,17.45,21.55,17,21,17z M11,20c-0.55,0-1-0.45-1-1s0.45-1,1-1s1,0.45,1,1S11.55,20,11,20z M18,14h-4v-3l0,0c0,0,0,0,0,0H17
			c0.55,0,1,0.45,1,1V14z"/>
		<path d="M10,6h7l0,0.74c0,0.46,0.56,0.7,0.89,0.37l1.74-1.74c0.2-0.2,0.2-0.53,0-0.74l-1.74-1.74C17.56,2.56,17,2.79,17,3.26L17,4
			h-7C9.45,4,9,4.45,9,5C9,5.55,9.45,6,10,6z"/>
	</g>
</g>
</svg>
