<?xml version="1.0" encoding="utf-8"?>
<!-- Generator: Adobe Illustrator 19.1.0, SVG Export Plug-In . SVG Version: 6.00 Build 0)  -->
<svg version="1.1" xmlns="http://www.w3.org/2000/svg" xmlns:xlink="http://www.w3.org/1999/xlink" x="0px" y="0px" width="24px"
	 height="24px" viewBox="0 0 24 24" enable-background="new 0 0 24 24" xml:space="preserve">
<g id="Bounding_Boxes">
	<g id="ui_x5F_spec_x5F_header_copy_3" display="none">
	</g>
	<path fill="none" d="M0,0h24v24H0V0z"/>
</g>
<g id="Rounded_1_">
	<g id="ui_x5F_spec_x5F_header_copy_6" display="none">
	</g>
	<path d="M17.59,3.59C17.21,3.21,16.7,3,16.17,3H5C3.89,3,3,3.9,3,5v14c0,1.1,0.9,2,2,2h14c1.1,0,2-0.9,2-2V7.83
		c0-0.53-0.21-1.04-0.59-1.41L17.59,3.59z M12,19c-1.66,0-3-1.34-3-3s1.34-3,3-3s3,1.34,3,3S13.66,19,12,19z M13,9H7
		C5.9,9,5,8.1,5,7v0c0-1.1,0.9-2,2-2h6c1.1,0,2,0.9,2,2v0C15,8.1,14.1,9,13,9z"/>
</g>
</svg>
