<?xml version="1.0" encoding="utf-8"?>
<!-- Generator: Adobe Illustrator 19.1.0, SVG Export Plug-In . SVG Version: 6.00 Build 0)  -->
<svg version="1.1" xmlns="http://www.w3.org/2000/svg" xmlns:xlink="http://www.w3.org/1999/xlink" x="0px" y="0px" width="24px"
	 height="24px" viewBox="0 0 24 24" enable-background="new 0 0 24 24" xml:space="preserve">
<g id="Bounding_Boxes">
	<g id="ui_x5F_spec_x5F_header_copy_3" display="none">
	</g>
	<path fill="none" d="M0,0h24v24H0V0z"/>
</g>
<g id="Rounded_1_">
	<g id="ui_x5F_spec_x5F_header_copy_6" display="none">
	</g>
	<path d="M19,13v5c0,0.55-0.45,1-1,1H6c-0.55,0-1-0.45-1-1v-5c0-0.55-0.45-1-1-1h0c-0.55,0-1,0.45-1,1v6c0,1.1,0.9,2,2,2h14
		c1.1,0,2-0.9,2-2v-6c0-0.55-0.45-1-1-1h0C19.45,12,19,12.45,19,13z M13,12.67l1.88-1.88c0.39-0.39,1.02-0.39,1.41,0l0,0
		c0.39,0.39,0.39,1.02,0,1.41l-3.59,3.59c-0.39,0.39-1.02,0.39-1.41,0l-3.59-3.59c-0.39-0.39-0.39-1.02,0-1.41l0,0
		c0.39-0.39,1.02-0.39,1.41,0L11,12.67V4c0-0.55,0.45-1,1-1h0c0.55,0,1,0.45,1,1V12.67z"/>
</g>
</svg>
