<?xml version="1.0" encoding="utf-8"?>
<!-- Generator: Adobe Illustrator 19.1.0, SVG Export Plug-In . SVG Version: 6.00 Build 0)  -->
<svg version="1.1" xmlns="http://www.w3.org/2000/svg" xmlns:xlink="http://www.w3.org/1999/xlink" x="0px" y="0px" width="24px"
	 height="24px" viewBox="0 0 24 24" enable-background="new 0 0 24 24" xml:space="preserve">
<g id="Bounding_Boxes" display="none">
	<g id="ui_x5F_spec_x5F_header_copy_3" display="inline">
	</g>
	<path display="inline" fill="none" d="M0,0h24v24H0V0z"/>
</g>
<g id="Rounded">
	<g id="ui_x5F_spec_x5F_header_copy_6">
	</g>
	<path d="M19.8,10.7L5.15,5.35c-0.52-0.19-1.1,0.08-1.3,0.6l0,0c-0.19,0.53,0.08,1.11,0.6,1.3L17.6,12H5c-1.1,0-2,0.9-2,2v4
		c0,1.1,0.9,2,2,2h14c1.1,0,2-0.9,2-2v-5.5C21,11.7,20.5,10.9,19.8,10.7z M7,17H5v-2h2V17z M18,17h-8c-0.55,0-1-0.45-1-1v0
		c0-0.55,0.45-1,1-1h8c0.55,0,1,0.45,1,1v0C19,16.55,18.55,17,18,17z"/>
</g>
</svg>
