<?xml version="1.0" encoding="utf-8"?>
<!-- Generator: Adobe Illustrator 19.1.0, SVG Export Plug-In . SVG Version: 6.00 Build 0)  -->
<svg version="1.1" xmlns="http://www.w3.org/2000/svg" xmlns:xlink="http://www.w3.org/1999/xlink" x="0px" y="0px" width="24px"
	 height="24px" viewBox="0 0 24 24" enable-background="new 0 0 24 24" xml:space="preserve">
<g id="Bounding_Boxes">
	<g id="ui_x5F_spec_x5F_header_copy_2">
	</g>
	<path fill="none" d="M0,0h24v24H0V0z"/>
</g>
<g id="Rounded">
	<path d="M5,13.18v2.81c0,0.73,0.4,1.41,1.04,1.76l5,2.73c0.6,0.33,1.32,0.33,1.92,0l5-2.73C18.6,17.4,19,16.72,19,15.99v-2.81
		l-6.04,3.3c-0.6,0.33-1.32,0.33-1.92,0L5,13.18z M11.04,3.52l-8.43,4.6c-0.69,0.38-0.69,1.38,0,1.76l8.43,4.6
		c0.6,0.33,1.32,0.33,1.92,0L21,10.09V16c0,0.55,0.45,1,1,1h0c0.55,0,1-0.45,1-1V9.59c0-0.37-0.2-0.7-0.52-0.88l-9.52-5.19
		C12.36,3.2,11.64,3.2,11.04,3.52z"/>
</g>
</svg>
