<?xml version="1.0" encoding="utf-8"?>
<!-- Generator: Adobe Illustrator 19.1.0, SVG Export Plug-In . SVG Version: 6.00 Build 0)  -->
<svg version="1.1" xmlns="http://www.w3.org/2000/svg" xmlns:xlink="http://www.w3.org/1999/xlink" x="0px" y="0px" width="24px"
	 height="24px" viewBox="0 0 24 24" enable-background="new 0 0 24 24" xml:space="preserve">
<g id="Bounding_Boxes">
	<g id="ui_x5F_spec_x5F_header_copy_2">
	</g>
	<path fill="none" d="M0,0h24v24H0V0z"/>
</g>
<g id="Rounded_1_">
	<g id="ui_x5F_spec_x5F_header_copy_6">
	</g>
	<path d="M20,18c1.1,0,2-0.9,2-2V6c0-1.1-0.9-2-2-2H4C2.9,4,2,4.9,2,6v10c0,1.1,0.89,2,2,2H1c-0.55,0-1,0.45-1,1v0
		c0,0.55,0.45,1,1,1h22c0.55,0,1-0.45,1-1v0c0-0.55-0.45-1-1-1H20z M13,14.47v-2.19c-2.78,0-4.61,0.85-6,2.72
		c0.56-2.67,2.11-5.33,6-5.87V7l3.61,3.36c0.21,0.2,0.21,0.53,0,0.73L13,14.47z"/>
</g>
</svg>
