<?xml version="1.0" encoding="utf-8"?>
<!-- Generator: Adobe Illustrator 19.1.0, SVG Export Plug-In . SVG Version: 6.00 Build 0)  -->
<svg version="1.1" xmlns="http://www.w3.org/2000/svg" xmlns:xlink="http://www.w3.org/1999/xlink" x="0px" y="0px" width="24px"
	 height="24px" viewBox="0 0 24 24" enable-background="new 0 0 24 24" xml:space="preserve">
<g id="Bounding_Boxes">
	<g id="ui_x5F_spec_x5F_header_copy_3">
	</g>
	<path fill="none" d="M0,0h24v24H0V0z"/>
</g>
<g id="Rounded">
	<g id="ui_x5F_spec_x5F_header_copy_6">
	</g>
	<g>
		<path d="M22.3,13.77l-1.86-1.87c-0.39-0.39-1.02-0.39-1.41,0l0,0c-0.39,0.39-0.39,1.02,0,1.41l1.51,1.52l-5.66,5.66L3.56,9.17
			l5.66-5.66l1.4,1.4c0.39,0.39,1.02,0.39,1.41,0l0,0c0.39-0.39,0.39-1.02,0-1.41l-1.75-1.75c-0.59-0.59-1.54-0.59-2.12,0L1.8,8.11
			c-0.59,0.59-0.59,1.54,0,2.12l12.02,12.02c0.59,0.59,1.54,0.59,2.12,0l6.36-6.36C22.89,15.3,22.89,14.35,22.3,13.77z M15.05,10h5
			c0.55,0,1-0.45,1-1V5c0-0.55-0.45-1-1-1V3.5c0-1.38-1.12-2.5-2.5-2.5s-2.5,1.12-2.5,2.5V4c-0.55,0-1,0.45-1,1v4
			C14.05,9.55,14.5,10,15.05,10z M15.85,3.5c0-0.94,0.76-1.7,1.7-1.7s1.7,0.76,1.7,1.7V4h-3.4L15.85,3.5z"/>
		<g>
			<path d="M8.85,20.15l-1.33,1.33c-3.09-1.46-5.34-4.37-5.89-7.86C1.57,13.21,1.19,12.93,0.77,13c-0.41,0.06-0.69,0.45-0.62,0.86
				c0.6,3.81,2.96,7.01,6.24,8.75l0,0c1.57,0.83,3.55,1.43,5.8,1.38c0.18,0,0.26-0.22,0.14-0.35L8.85,20.15z"/>
		</g>
	</g>
</g>
</svg>
