<?xml version="1.0" encoding="utf-8"?>
<!-- Generator: Adobe Illustrator 19.1.0, SVG Export Plug-In . SVG Version: 6.00 Build 0)  -->
<svg version="1.1" xmlns="http://www.w3.org/2000/svg" xmlns:xlink="http://www.w3.org/1999/xlink" x="0px" y="0px" width="24px"
	 height="24px" viewBox="0 0 24 24" enable-background="new 0 0 24 24" xml:space="preserve">
<g id="Bounding_Boxes">
	<g id="ui_x5F_spec_x5F_header_copy_3">
	</g>
	<path fill="none" d="M0,0h24v24H0V0z"/>
</g>
<g id="Rounded">
	<g id="ui_x5F_spec_x5F_header_copy_6">
	</g>
	<g>
		<path d="M10.23,1.75c-0.59-0.59-1.54-0.59-2.12,0L1.75,8.11c-0.59,0.59-0.59,1.54,0,2.12l12.02,12.02c0.59,0.59,1.54,0.59,2.12,0
			l6.36-6.36c0.59-0.59,0.59-1.54,0-2.12L10.23,1.75z M14.12,20.48L3.52,9.88c-0.39-0.39-0.39-1.02,0-1.41l4.95-4.95
			c0.39-0.39,1.02-0.39,1.41,0l10.61,10.61c0.39,0.39,0.39,1.02,0,1.41l-4.95,4.95C15.15,20.87,14.51,20.87,14.12,20.48z"/>
		<path d="M17.61,1.4c-1.57-0.83-3.55-1.43-5.8-1.38c-0.18,0-0.26,0.22-0.14,0.35l3.48,3.48l1.33-1.33
			c3.09,1.46,5.34,4.37,5.89,7.86c0.06,0.41,0.44,0.69,0.86,0.62c0.41-0.06,0.69-0.45,0.62-0.86C23.25,6.34,20.89,3.14,17.61,1.4z"
			/>
		<path d="M8.85,20.16l-1.33,1.33c-3.09-1.46-5.34-4.37-5.89-7.86c-0.06-0.41-0.44-0.69-0.86-0.62c-0.41,0.06-0.69,0.45-0.62,0.86
			c0.6,3.81,2.96,7.01,6.24,8.75c1.57,0.83,3.55,1.43,5.8,1.38c0.18,0,0.26-0.22,0.14-0.35L8.85,20.16z"/>
	</g>
</g>
</svg>
