<?xml version="1.0" encoding="utf-8"?>
<!-- Generator: Adobe Illustrator 19.1.0, SVG Export Plug-In . SVG Version: 6.00 Build 0)  -->
<svg version="1.1" xmlns="http://www.w3.org/2000/svg" xmlns:xlink="http://www.w3.org/1999/xlink" x="0px" y="0px" width="24px"
	 height="24px" viewBox="0 0 24 24" enable-background="new 0 0 24 24" xml:space="preserve">
<g id="Bounding_Boxes" display="none">
	<g id="ui_x5F_spec_x5F_header_copy_3" display="inline">
	</g>
	<path display="inline" fill="none" d="M0,0h24v24H0V0z"/>
</g>
<g id="Rounded">
	<g id="ui_x5F_spec_x5F_header_copy_6">
	</g>
	<path d="M11.19,1.36l-7,3.11C3.47,4.79,3,5.51,3,6.3V11c0,5.55,3.84,10.74,9,12c5.16-1.26,9-6.45,9-12V6.3
		c0-0.79-0.47-1.51-1.19-1.83l-7-3.11C12.3,1.13,11.7,1.13,11.19,1.36z M12,11.99h7c-0.53,4.12-3.28,7.79-7,8.94V12H5V6.3l7-3.11
		V11.99z"/>
</g>
</svg>
