<?xml version="1.0" encoding="utf-8"?>
<!-- Generator: Adobe Illustrator 19.1.0, SVG Export Plug-In . SVG Version: 6.00 Build 0)  -->
<svg version="1.1" xmlns="http://www.w3.org/2000/svg" xmlns:xlink="http://www.w3.org/1999/xlink" x="0px" y="0px" width="24px"
	 height="24px" viewBox="0 0 24 24" enable-background="new 0 0 24 24" xml:space="preserve">
<g id="Bounding_Boxes">
	<g id="ui_x5F_spec_x5F_header_copy_3">
	</g>
	<path fill="none" d="M0,0h24v24H0V0z"/>
</g>
<g id="Rounded">
	<g id="ui_x5F_spec_x5F_header_copy_6">
	</g>
	<path d="M9,16h6.5c1.38,0,2.5-1.12,2.5-2.5S16.88,11,15.5,11h-0.05C15.21,9.31,13.76,8,12,8c-1.4,0-2.6,0.83-3.16,2.02H8.68
		C7.17,10.18,6,11.45,6,13C6,14.66,7.34,16,9,16z M21,3H3C1.9,3,1,3.9,1,5v14c0,1.1,0.9,2,2,2h18c1.1,0,2-0.9,2-2V5
		C23,3.9,22.1,3,21,3z M20,19.01H4c-0.55,0-1-0.45-1-1V5.99c0-0.55,0.45-1,1-1h16c0.55,0,1,0.45,1,1v12.02
		C21,18.56,20.55,19.01,20,19.01z"/>
</g>
</svg>
