<?xml version="1.0" encoding="utf-8"?>
<!-- Generator: Adobe Illustrator 19.1.0, SVG Export Plug-In . SVG Version: 6.00 Build 0)  -->
<svg version="1.1" xmlns="http://www.w3.org/2000/svg" xmlns:xlink="http://www.w3.org/1999/xlink" x="0px" y="0px" width="24px"
	 height="24px" viewBox="0 0 24 24" enable-background="new 0 0 24 24" xml:space="preserve">
<g id="Bounding_Boxes">
	<g id="ui_x5F_spec_x5F_header_copy_3">
	</g>
	<rect fill="none" width="24" height="24"/>
</g>
<g id="Rounded">
	<g id="ui_x5F_spec_x5F_header_copy_6">
	</g>
	<path d="M5,9h14c0.55,0,1,0.45,1,1v0c0,0.55-0.45,1-1,1H5c-0.55,0-1-0.45-1-1v0C4,9.45,4.45,9,5,9z M5,13h8c0.55,0,1,0.45,1,1v0
		c0,0.55-0.45,1-1,1H5c-0.55,0-1-0.45-1-1v0C4,13.45,4.45,13,5,13z"/>
</g>
</svg>
