<?xml version="1.0" encoding="utf-8"?>
<!-- Generator: Adobe Illustrator 19.1.0, SVG Export Plug-In . SVG Version: 6.00 Build 0)  -->
<svg version="1.1" xmlns="http://www.w3.org/2000/svg" xmlns:xlink="http://www.w3.org/1999/xlink" x="0px" y="0px" width="24px"
	 height="24px" viewBox="0 0 24 24" enable-background="new 0 0 24 24" xml:space="preserve">
<g id="Bounding_Boxes">
	<g id="ui_x5F_spec_x5F_header_copy_3">
	</g>
	<path fill="none" d="M0,0h24v24H0V0z"/>
</g>
<g id="Rounded">
	<g id="ui_x5F_spec_x5F_header_copy_6">
	</g>
	<path d="M4.2,17.78l5.3-5.3l3.25,3.25c0.41,0.41,1.07,0.39,1.45-0.04l7.17-8.07c0.35-0.39,0.33-0.99-0.04-1.37l0,0
		c-0.4-0.4-1.07-0.39-1.45,0.04l-6.39,7.18l-3.29-3.29c-0.39-0.39-1.02-0.39-1.41,0l-6.09,6.1c-0.39,0.39-0.39,1.02,0,1.41
		l0.09,0.09C3.18,18.17,3.82,18.17,4.2,17.78z"/>
</g>
</svg>
