<?xml version="1.0" encoding="utf-8"?>
<!-- Generator: Adobe Illustrator 19.1.0, SVG Export Plug-In . SVG Version: 6.00 Build 0)  -->
<svg version="1.1" xmlns="http://www.w3.org/2000/svg" xmlns:xlink="http://www.w3.org/1999/xlink" x="0px" y="0px" width="24px"
	 height="24px" viewBox="0 0 24 24" enable-background="new 0 0 24 24" xml:space="preserve">
<g id="Bounding_Boxes">
	<g id="ui_x5F_spec_x5F_header_copy_3">
	</g>
	<path fill="none" d="M0,0h24v24H0V0z"/>
</g>
<g id="Rounded">
	<g id="ui_x5F_spec_x5F_header_copy_6">
	</g>
	<g>
		<path fill-opacity="0.3" d="M22,8V4.41c0-0.89-1.08-1.34-1.71-0.71L3.71,20.29C3.08,20.92,3.52,22,4.41,22H18V11
			c0-1.66,1.34-3,3-3H22z"/>
		<path d="M20,22h2v-2h-2V22z M20,11v6c0,0.55,0.45,1,1,1h0c0.55,0,1-0.45,1-1v-6c0-0.55-0.45-1-1-1h0C20.45,10,20,10.45,20,11z"/>
	</g>
</g>
</svg>
