<?xml version="1.0" encoding="utf-8"?>
<!-- Generator: Adobe Illustrator 19.1.0, SVG Export Plug-In . SVG Version: 6.00 Build 0)  -->
<svg version="1.1" xmlns="http://www.w3.org/2000/svg" xmlns:xlink="http://www.w3.org/1999/xlink" x="0px" y="0px" width="24px"
	 height="24px" viewBox="0 0 24 24" enable-background="new 0 0 24 24" xml:space="preserve">
<g id="Bounding_Boxes">
	<g id="ui_x5F_spec_x5F_header_copy_3">
	</g>
	<path fill="none" d="M0,0h24v24H0V0z"/>
</g>
<g id="Rounded">
	<g id="ui_x5F_spec_x5F_header_copy_6">
	</g>
	<g>
		<path d="M19,5c0-1.1-0.9-2-2-2h-6.17C10.3,3,9.79,3.21,9.41,3.59L7.95,5.06L19,16.11V5z"/>
		<path d="M3.09,4.44c-0.39,0.39-0.39,1.02,0,1.41L5,7.78v2.29V19c0,1.11,0.9,2,2,2h11.23l0.91,0.91c0.39,0.39,1.02,0.39,1.41,0
			c0.39-0.39,0.39-1.02,0-1.41L4.5,4.44C4.11,4.05,3.48,4.05,3.09,4.44z"/>
	</g>
</g>
</svg>
