<?xml version="1.0" encoding="utf-8"?>
<!-- Generator: Adobe Illustrator 19.1.0, SVG Export Plug-In . SVG Version: 6.00 Build 0)  -->
<svg version="1.1" xmlns="http://www.w3.org/2000/svg" xmlns:xlink="http://www.w3.org/1999/xlink" x="0px" y="0px" width="24px"
	 height="24px" viewBox="0 0 24 24" enable-background="new 0 0 24 24" xml:space="preserve">
<g id="Bounding_Boxes">
	<g id="ui_x5F_spec_x5F_header_copy_3">
	</g>
	<path fill="none" d="M0,0h24v24H0V0z"/>
</g>
<g id="Rounded">
	<g id="ui_x5F_spec_x5F_header_copy_6">
	</g>
	<g>
		<path d="M21,3.41c0-0.89-1.08-1.34-1.71-0.71l-6.6,6.6L21,17.61V3.41z"/>
		<path d="M21.44,20.88L5.62,5.06c-0.39-0.39-1.02-0.39-1.41,0c-0.39,0.39-0.39,1.02,0,1.41l5.66,5.66l-7.16,7.16
			C2.08,19.92,2.52,21,3.41,21h15.32l1.29,1.29c0.39,0.39,1.02,0.39,1.41,0v0C21.83,21.9,21.83,21.27,21.44,20.88z"/>
	</g>
</g>
</svg>
