<?xml version="1.0" encoding="utf-8"?>
<!-- Generator: Adobe Illustrator 19.1.0, SVG Export Plug-In . SVG Version: 6.00 Build 0)  -->
<svg version="1.1" xmlns="http://www.w3.org/2000/svg" xmlns:xlink="http://www.w3.org/1999/xlink" x="0px" y="0px" width="24px"
	 height="24px" viewBox="0 0 24 24" enable-background="new 0 0 24 24" xml:space="preserve">
<g id="Bounding_Boxes" display="none">
	<g id="ui_x5F_spec_x5F_header_copy_3" display="inline">
	</g>
	<path display="inline" fill="none" d="M0,0h24v24H0V0z"/>
</g>
<g id="Rounded">
	<g id="ui_x5F_spec_x5F_header_copy_6">
	</g>
	<path d="M19.99,4c0-1.1-0.89-2-1.99-2h-7.17C10.3,2,9.79,2.21,9.41,2.59L4.59,7.41C4.21,7.79,4,8.3,4,8.83V20c0,1.1,0.9,2,2,2
		h12.01c1.1,0,1.99-0.9,1.99-2L19.99,4z M8,19L8,19c-0.55,0-1-0.45-1-1v0c0-0.55,0.45-1,1-1h0c0.55,0,1,0.45,1,1v0
		C9,18.55,8.55,19,8,19z M16,19L16,19c-0.55,0-1-0.45-1-1v0c0-0.55,0.45-1,1-1h0c0.55,0,1,0.45,1,1v0C17,18.55,16.55,19,16,19z
		 M8,15L8,15c-0.55,0-1-0.45-1-1v-2c0-0.55,0.45-1,1-1h0c0.55,0,1,0.45,1,1v2C9,14.55,8.55,15,8,15z M12,19L12,19
		c-0.55,0-1-0.45-1-1v-2c0-0.55,0.45-1,1-1h0c0.55,0,1,0.45,1,1v2C13,18.55,12.55,19,12,19z M12,13L12,13c-0.55,0-1-0.45-1-1v0
		c0-0.55,0.45-1,1-1h0c0.55,0,1,0.45,1,1v0C13,12.55,12.55,13,12,13z M16,15L16,15c-0.55,0-1-0.45-1-1v-2c0-0.55,0.45-1,1-1h0
		c0.55,0,1,0.45,1,1v2C17,14.55,16.55,15,16,15z"/>
</g>
</svg>
