<?xml version="1.0" encoding="utf-8"?>
<!-- Generator: Adobe Illustrator 19.1.0, SVG Export Plug-In . SVG Version: 6.00 Build 0)  -->
<svg version="1.1" xmlns="http://www.w3.org/2000/svg" xmlns:xlink="http://www.w3.org/1999/xlink" x="0px" y="0px" width="24px"
	 height="24px" viewBox="0 0 24 24" enable-background="new 0 0 24 24" xml:space="preserve">
<g id="Bounding_Boxes" display="none">
	<path display="inline" fill="none" d="M0,0h24v24H0V0z"/>
</g>
<g id="Rounded">
	<g>
		<path d="M12.93,2.65c-0.2-0.2-0.51-0.2-0.71,0l-2.01,2.01h4.72L12.93,2.65z"/>
		<path d="M12.23,21.35c0.2,0.2,0.51,0.2,0.71,0l1.98-1.98h-4.66L12.23,21.35z"/>
		<path d="M10.98,17.73L10.98,17.73c0.6,0,1.01-0.6,0.79-1.16L8.04,7.03C7.86,6.57,7.41,6.27,6.92,6.27c-0.49,0-0.94,0.3-1.12,0.76
			l-3.74,9.53c-0.22,0.56,0.19,1.16,0.79,1.16c0.35,0,0.67-0.22,0.8-0.55l0.71-1.9h5.11l0.71,1.9
			C10.31,17.51,10.63,17.73,10.98,17.73z M4.97,13.64l1.94-5.18l1.94,5.18H4.97z"/>
		<path d="M21.05,16.14h-5.33l5.72-8.29c0.46-0.66-0.02-1.57-0.82-1.57h-6.48c-0.44,0-0.79,0.36-0.79,0.8v0.01
			c0,0.44,0.36,0.8,0.79,0.8h5.09l-5.73,8.28c-0.46,0.66,0.02,1.57,0.82,1.57h6.72c0.44,0,0.79-0.36,0.79-0.79
			C21.85,16.5,21.49,16.14,21.05,16.14z"/>
	</g>
</g>
</svg>
