<?xml version="1.0" encoding="utf-8"?>
<!-- Generator: Adobe Illustrator 19.1.0, SVG Export Plug-In . SVG Version: 6.00 Build 0)  -->
<svg version="1.1" xmlns="http://www.w3.org/2000/svg" xmlns:xlink="http://www.w3.org/1999/xlink" x="0px" y="0px" width="24px"
	 height="24px" viewBox="0 0 24 24" enable-background="new 0 0 24 24" xml:space="preserve">
<g id="Bounding_Boxes" display="none">
	<g id="ui_x5F_spec_x5F_header_copy_3" display="inline">
	</g>
	<path display="inline" fill="none" d="M0,0h24v24H0V0z"/>
</g>
<g id="Rounded">
	<g id="ui_x5F_spec_x5F_header_copy_6">
	</g>
	<g>
		<path d="M18.2,1H9.8C8.81,1,8,1.81,8,2.8v14.4c0,0.99,0.81,1.79,1.8,1.79L18.2,19c0.99,0,1.8-0.81,1.8-1.8V2.8
			C20,1.81,19.19,1,18.2,1z M14,3c1.1,0,2,0.89,2,2s-0.9,2-2,2s-2-0.89-2-2S12.9,3,14,3z M14,16.5c-2.21,0-4-1.79-4-4
			c0-2.21,1.79-4,4-4s4,1.79,4,4C18,14.71,16.21,16.5,14,16.5z"/>
		<circle cx="14" cy="12.5" r="2.5"/>
		<path d="M5,5L5,5C4.45,5,4,5.45,4,6v15c0,1.1,0.89,2,2,2h9c0.55,0,1-0.45,1-1v0c0-0.55-0.45-1-1-1H7c-0.55,0-1-0.45-1-1V6
			C6,5.45,5.55,5,5,5z"/>
	</g>
</g>
</svg>
