<?xml version="1.0" encoding="utf-8"?>
<!-- Generator: Adobe Illustrator 19.1.0, SVG Export Plug-In . SVG Version: 6.00 Build 0)  -->
<svg version="1.1" xmlns="http://www.w3.org/2000/svg" xmlns:xlink="http://www.w3.org/1999/xlink" x="0px" y="0px" width="24px"
	 height="24px" viewBox="0 0 24 24" enable-background="new 0 0 24 24" xml:space="preserve">
<g id="Bounding_Boxes">
	<g id="ui_x5F_spec_x5F_header_copy_3">
	</g>
	<path fill="none" d="M0,0h24v24H0V0z"/>
</g>
<g id="Rounded">
	<g id="ui_x5F_spec_x5F_header_copy_6">
	</g>
	<path d="M4,20h16c1.1,0,2-0.9,2-2v0c0-1.1-0.9-2-2-2H4c-1.1,0-2,0.9-2,2v0C2,19.1,2.9,20,4,20z M4,17h2v2H4V17z M2,6L2,6
		c0,1.1,0.9,2,2,2h16c1.1,0,2-0.9,2-2v0c0-1.1-0.9-2-2-2H4C2.9,4,2,4.9,2,6z M6,7H4V5h2V7z M4,14h16c1.1,0,2-0.9,2-2v0
		c0-1.1-0.9-2-2-2H4c-1.1,0-2,0.9-2,2v0C2,13.1,2.9,14,4,14z M4,11h2v2H4V11z"/>
</g>
</svg>
