<?xml version="1.0" encoding="utf-8"?>
<!-- Generator: Adobe Illustrator 19.1.0, SVG Export Plug-In . SVG Version: 6.00 Build 0)  -->
<svg version="1.1" xmlns="http://www.w3.org/2000/svg" xmlns:xlink="http://www.w3.org/1999/xlink" x="0px" y="0px" width="24px"
	 height="24px" viewBox="0 0 24 24" enable-background="new 0 0 24 24" xml:space="preserve">
<g id="Bounding_Boxes">
	<g id="ui_x5F_spec_x5F_header_copy_2">
	</g>
	<path fill="none" d="M0,0h24v24H0V0z"/>
</g>
<g id="Rounded">
	<g id="ui_x5F_spec_x5F_header_copy_6">
	</g>
	<path d="M2.53,19.65l1.34,0.56v-9.03l-2.43,5.86C1.03,18.06,1.52,19.23,2.53,19.65z M22.03,15.95L17.07,3.98
		c-0.31-0.75-1.04-1.21-1.81-1.23c-0.26,0-0.53,0.04-0.79,0.15L7.1,5.95c-0.75,0.31-1.21,1.03-1.23,1.8
		c-0.01,0.27,0.04,0.54,0.15,0.8l4.96,11.97c0.31,0.76,1.05,1.22,1.83,1.23c0.26,0,0.52-0.05,0.77-0.15l7.36-3.05
		C21.96,18.13,22.45,16.96,22.03,15.95z M7.88,8.75c-0.55,0-1-0.45-1-1s0.45-1,1-1s1,0.45,1,1S8.43,8.75,7.88,8.75z M5.88,19.75
		c0,1.1,0.9,2,2,2h1.45l-3.45-8.34V19.75z"/>
</g>
</svg>
