<?xml version="1.0" encoding="utf-8"?>
<!-- Generator: Adobe Illustrator 19.1.0, SVG Export Plug-In . SVG Version: 6.00 Build 0)  -->
<svg version="1.1" xmlns="http://www.w3.org/2000/svg" xmlns:xlink="http://www.w3.org/1999/xlink" x="0px" y="0px" width="24px"
	 height="24px" viewBox="0 0 24 24" enable-background="new 0 0 24 24" xml:space="preserve">
<g id="Bounding_Boxes">
	<path fill="none" d="M0,0h24v24H0V0z"/>
</g>
<g id="Rounded">
	<path d="M5.71,15.71l4.58,4.58c0.39,0.39,1.03,0.39,1.42,0h0c0.39-0.39,0.39-1.03,0-1.42L8.83,16H19c0.55,0,1-0.45,1-1V5
		c0-0.55-0.45-1-1-1h0c-0.55,0-1,0.45-1,1v9H8.83l2.88-2.87c0.39-0.39,0.39-1.03,0-1.42l0,0c-0.39-0.39-1.03-0.39-1.42,0l-4.58,4.58
		C5.32,14.68,5.32,15.32,5.71,15.71z"/>
</g>
</svg>
