<?xml version="1.0" encoding="utf-8"?>
<!-- Generator: Adobe Illustrator 19.1.0, SVG Export Plug-In . SVG Version: 6.00 Build 0)  -->
<svg version="1.1" xmlns="http://www.w3.org/2000/svg" xmlns:xlink="http://www.w3.org/1999/xlink" x="0px" y="0px" width="24px"
	 height="24px" viewBox="0 0 24 24" enable-background="new 0 0 24 24" xml:space="preserve">
<g id="Bounding_Boxes" display="none">
	<path display="inline" fill="none" d="M0,0h24v24H0V0z"/>
</g>
<g id="Rounded">
	<path d="M20,4H4C2.9,4,2,4.9,2,6v12c0,1.1,0.9,2,2,2h16c1.1,0,2-0.9,2-2V6C22,4.9,21.1,4,20,4z M5,12h2c0.55,0,1,0.45,1,1v0
		c0,0.55-0.45,1-1,1H5c-0.55,0-1-0.45-1-1v0C4,12.45,4.45,12,5,12z M13,18H5c-0.55,0-1-0.45-1-1v0c0-0.55,0.45-1,1-1h8
		c0.55,0,1,0.45,1,1v0C14,17.55,13.55,18,13,18z M19,18h-2c-0.55,0-1-0.45-1-1v0c0-0.55,0.45-1,1-1h2c0.55,0,1,0.45,1,1v0
		C20,17.55,19.55,18,19,18z M19,14h-8c-0.55,0-1-0.45-1-1v0c0-0.55,0.45-1,1-1h8c0.55,0,1,0.45,1,1v0C20,13.55,19.55,14,19,14z"/>
</g>
</svg>
