<?xml version="1.0" encoding="utf-8"?>
<!-- Generator: Adobe Illustrator 19.1.0, SVG Export Plug-In . SVG Version: 6.00 Build 0)  -->
<svg version="1.1" xmlns="http://www.w3.org/2000/svg" xmlns:xlink="http://www.w3.org/1999/xlink" x="0px" y="0px" width="24px"
	 height="24px" viewBox="0 0 24 24" enable-background="new 0 0 24 24" xml:space="preserve">
<g id="Bounding_Boxes">
	<g id="ui_x5F_spec_x5F_header_copy_3">
	</g>
	<path fill="none" d="M0,0h24v24H0V0z"/>
</g>
<g id="Rounded">
	<g id="ui_x5F_spec_x5F_header_copy_5">
	</g>
	<path d="M12,2C6.48,2,2,6.48,2,12s4.48,10,10,10c5.52,0,10-4.48,10-10S17.52,2,12,2z M6.5,9l3.15-3.15c0.2-0.2,0.51-0.2,0.71,0
		L13.5,9H11v4H9V9H6.5z M14.35,18.15c-0.2,0.2-0.51,0.2-0.71,0L10.5,15H13v-4h2v4h2.5L14.35,18.15z"/>
</g>
</svg>
