<?xml version="1.0" encoding="utf-8"?>
<!-- Generator: Adobe Illustrator 19.1.0, SVG Export Plug-In . SVG Version: 6.00 Build 0)  -->
<svg version="1.1" xmlns="http://www.w3.org/2000/svg" xmlns:xlink="http://www.w3.org/1999/xlink" x="0px" y="0px" width="24px"
	 height="24px" viewBox="0 0 24 24" enable-background="new 0 0 24 24" xml:space="preserve">
<g id="Bounding_Boxes">
	<g id="ui_x5F_spec_x5F_header_copy_2">
	</g>
	<path fill="none" d="M0,0h24v24H0V0z"/>
</g>
<g id="Rounded_1_">
	<g id="ui_x5F_spec_x5F_header_copy_6">
	</g>
	<path d="M17.65,4.35l-2.79,2.79C14.54,7.46,14.76,8,15.21,8H17l0,6.88c0,1-0.67,1.93-1.66,2.09C14.09,17.18,13,16.21,13,15l0-6.83
		c0-2.09-1.53-3.95-3.61-4.15C7.01,3.79,5,5.66,5,8v7H3.21c-0.45,0-0.67,0.54-0.35,0.85l2.79,2.79c0.2,0.2,0.51,0.2,0.71,0
		l2.79-2.79C9.46,15.54,9.24,15,8.79,15H7l0-6.88c0-1,0.67-1.93,1.66-2.09C9.91,5.82,11,6.79,11,8l0,6.83
		c0,2.09,1.53,3.95,3.61,4.15C16.99,19.21,19,17.34,19,15V8h1.79c0.45,0,0.67-0.54,0.35-0.85l-2.79-2.79
		C18.16,4.16,17.84,4.16,17.65,4.35z"/>
</g>
</svg>
