<?xml version="1.0" encoding="utf-8"?>
<!-- Generator: Adobe Illustrator 19.1.0, SVG Export Plug-In . SVG Version: 6.00 Build 0)  -->
<svg version="1.1" xmlns="http://www.w3.org/2000/svg" xmlns:xlink="http://www.w3.org/1999/xlink" x="0px" y="0px" width="24px"
	 height="24px" viewBox="0 0 24 24" enable-background="new 0 0 24 24" xml:space="preserve">
<g id="Bounding_Boxes">
	<g id="ui_x5F_spec_x5F_header_copy_2">
	</g>
	<path fill="none" d="M0,0h24v24H0V0z"/>
</g>
<g id="Rounded">
	<g id="ui_x5F_spec_x5F_header_copy_6">
	</g>
	<path d="M20,4h-3.17l-1.24-1.35C15.22,2.24,14.68,2,14.12,2H9.88c-0.56,0-1.1,0.24-1.48,0.65L7.17,4H4C2.9,4,2,4.9,2,6v12
		c0,1.1,0.9,2,2,2h16c1.1,0,2-0.9,2-2V6C22,4.9,21.1,4,20,4z M15,15.5V13H9v2.5l-3.15-3.15c-0.2-0.2-0.2-0.51,0-0.71L9,8.5V11h6V8.5
		l3.15,3.15c0.2,0.2,0.2,0.51,0,0.71L15,15.5z"/>
</g>
</svg>
