<?xml version="1.0" encoding="utf-8"?>
<!-- Generator: Adobe Illustrator 19.1.0, SVG Export Plug-In . SVG Version: 6.00 Build 0)  -->
<svg version="1.1" xmlns="http://www.w3.org/2000/svg" xmlns:xlink="http://www.w3.org/1999/xlink" x="0px" y="0px" width="24px"
	 height="24px" viewBox="0 0 24 24" enable-background="new 0 0 24 24" xml:space="preserve">
<g id="Bounding_Boxes">
	<g id="ui_x5F_spec_x5F_header_copy_2">
	</g>
	<path fill="none" d="M0,0h24v24H0V0z"/>
</g>
<g id="Rounded">
	<g id="ui_x5F_spec_x5F_header_copy_6">
	</g>
	<path d="M18,9.5V6c0-0.55-0.45-1-1-1H3C2.45,5,2,5.45,2,6v12c0,0.55,0.45,1,1,1h14c0.55,0,1-0.45,1-1v-3.5l2.29,2.29
		c0.63,0.63,1.71,0.18,1.71-0.71V7.91c0-0.89-1.08-1.34-1.71-0.71L18,9.5z M13,15.5V13H7v2.5l-3.15-3.15c-0.2-0.2-0.2-0.51,0-0.71
		L7,8.5V11h6V8.5l3.15,3.15c0.2,0.2,0.2,0.51,0,0.71L13,15.5z"/>
</g>
</svg>
