<?xml version="1.0" encoding="utf-8"?>
<!-- Generator: Adobe Illustrator 19.1.0, SVG Export Plug-In . SVG Version: 6.00 Build 0)  -->
<svg version="1.1" xmlns="http://www.w3.org/2000/svg" xmlns:xlink="http://www.w3.org/1999/xlink" x="0px" y="0px" width="24px"
	 height="24px" viewBox="0 0 24 24" enable-background="new 0 0 24 24" xml:space="preserve">
<g id="Bounding_Boxes">
	<g id="ui_x5F_spec_x5F_header_copy_2">
	</g>
	<path fill="none" d="M0,0h24v24H0V0z"/>
</g>
<g id="Rounded_1_">
	<path d="M3,12c0,2.21,0.91,4.2,2.36,5.64l-1.51,1.51C3.54,19.46,3.76,20,4.21,20H8.5C8.78,20,9,19.78,9,19.5v-4.29
		c0-0.45-0.54-0.67-0.85-0.35l-1.39,1.39C5.68,15.15,5,13.66,5,12c0-2.39,1.4-4.46,3.43-5.42C8.77,6.42,9,6.11,9,5.74V5.55
		c0-0.68-0.71-1.11-1.32-0.82C4.92,5.99,3,8.77,3,12z M11,17h2v-2h-2V17z M19.79,4H15.5C15.22,4,15,4.22,15,4.5v4.29
		c0,0.45,0.54,0.67,0.85,0.35l1.39-1.39C18.32,8.85,19,10.34,19,12c0,2.39-1.4,4.46-3.43,5.42C15.23,17.58,15,17.89,15,18.26v0.18
		c0,0.68,0.71,1.11,1.32,0.82C19.08,18.01,21,15.23,21,12c0-2.21-0.91-4.2-2.36-5.64l1.51-1.51C20.46,4.54,20.24,4,19.79,4z M12,13
		L12,13c0.55,0,1-0.45,1-1V8c0-0.55-0.45-1-1-1h0c-0.55,0-1,0.45-1,1v4C11,12.55,11.45,13,12,13z"/>
</g>
</svg>
