<?xml version="1.0" encoding="utf-8"?>
<!-- Generator: Adobe Illustrator 19.1.0, SVG Export Plug-In . SVG Version: 6.00 Build 0)  -->
<svg version="1.1" xmlns="http://www.w3.org/2000/svg" xmlns:xlink="http://www.w3.org/1999/xlink" x="0px" y="0px" width="24px"
	 height="24px" viewBox="0 0 24 24" enable-background="new 0 0 24 24" xml:space="preserve">
<g id="Bounding_Boxes">
	<g id="ui_x5F_spec_x5F_header_copy_2">
	</g>
	<path fill="none" d="M0,0h24v24H0V0z"/>
</g>
<g id="Rounded">
	<g id="ui_x5F_spec_x5F_header_copy_6">
	</g>
	<path d="M19.58,3.08L3.15,19.51c0.09,0.34,0.27,0.65,0.51,0.9c0.25,0.24,0.56,0.42,0.9,0.51L21,4.49
		C20.81,3.8,20.27,3.26,19.58,3.08z M11.95,3l-8.88,8.88v2.83L14.78,3H11.95z M5.07,3c-1.1,0-2,0.9-2,2v2l4-4H5.07z M19.07,21
		c0.55,0,1.05-0.22,1.41-0.59c0.37-0.36,0.59-0.86,0.59-1.41v-2l-4,4H19.07z M9.36,21h2.83l8.88-8.88V9.29L9.36,21z"/>
</g>
</svg>
