<?xml version="1.0" encoding="utf-8"?>
<!-- Generator: Adobe Illustrator 19.1.0, SVG Export Plug-In . SVG Version: 6.00 Build 0)  -->
<svg version="1.1" xmlns="http://www.w3.org/2000/svg" xmlns:xlink="http://www.w3.org/1999/xlink" x="0px" y="0px" width="24px"
	 height="24px" viewBox="0 0 24 24" enable-background="new 0 0 24 24" xml:space="preserve">
<g id="Bounding_Boxes">
	<g id="ui_x5F_spec_x5F_header_copy_3">
	</g>
	<path fill="none" d="M0,0h24v24H0V0z"/>
	<path fill="none" d="M0,0h24v24H0V0z"/>
	<path fill="none" d="M0,0h24v24H0V0z"/>
</g>
<g id="Rounded">
	<g id="ui_x5F_spec_x5F_header_copy_5">
	</g>
	<path d="M18.35,4.35c-0.2-0.2-0.51-0.2-0.71,0l-1.79,1.79C15.54,6.46,15.76,7,16.21,7H17v12c0,0.55,0.45,1,1,1h0c0.55,0,1-0.45,1-1
		V7h0.79c0.45,0,0.67-0.54,0.35-0.85L18.35,4.35z M11.8,15.5v-5l1.6-0.66C13.76,9.7,14,9.35,14,8.96v0c0-0.69-0.71-1.15-1.34-0.88
		l-8.97,3.88C3.27,12.13,3,12.54,3,13v0c0,0.46,0.27,0.87,0.69,1.05l8.97,3.88C13.29,18.2,14,17.73,14,17.04v0
		c0-0.39-0.24-0.74-0.6-0.89L11.8,15.5z M4.98,13L10,11.13v3.74L4.98,13z"/>
</g>
</svg>
