<?xml version="1.0" encoding="utf-8"?>
<!-- Generator: Adobe Illustrator 19.1.0, SVG Export Plug-In . SVG Version: 6.00 Build 0)  -->
<svg version="1.1" xmlns="http://www.w3.org/2000/svg" xmlns:xlink="http://www.w3.org/1999/xlink" x="0px" y="0px" width="24px"
	 height="24px" viewBox="0 0 24 24" enable-background="new 0 0 24 24" xml:space="preserve">
<g id="Bounding_Boxes">
	<g id="ui_x5F_spec_x5F_header_copy_3">
	</g>
	<rect fill="none" width="24" height="24"/>
</g>
<g id="Rounded">
	<g id="ui_x5F_spec_x5F_header_copy_6">
	</g>
	<path d="M2.5,5.5L2.5,5.5C2.5,6.33,3.17,7,4,7h3.5v10.5C7.5,18.33,8.17,19,9,19h0c0.83,0,1.5-0.67,1.5-1.5V7H14
		c0.83,0,1.5-0.67,1.5-1.5v0C15.5,4.67,14.83,4,14,4H4C3.17,4,2.5,4.67,2.5,5.5z M20,9h-6c-0.83,0-1.5,0.67-1.5,1.5v0
		c0,0.83,0.67,1.5,1.5,1.5h1.5v5.5c0,0.83,0.67,1.5,1.5,1.5h0c0.83,0,1.5-0.67,1.5-1.5V12H20c0.83,0,1.5-0.67,1.5-1.5v0
		C21.5,9.67,20.83,9,20,9z"/>
</g>
</svg>
