<?xml version="1.0" encoding="utf-8"?>
<!-- Generator: Adobe Illustrator 19.1.0, SVG Export Plug-In . SVG Version: 6.00 Build 0)  -->
<svg version="1.1" xmlns="http://www.w3.org/2000/svg" xmlns:xlink="http://www.w3.org/1999/xlink" x="0px" y="0px" width="24px"
	 height="24px" viewBox="0 0 24 24" enable-background="new 0 0 24 24" xml:space="preserve">
<g id="Bounding_Boxes">
	<g id="ui_x5F_spec_x5F_header_copy_3">
	</g>
	<path fill="none" d="M0,0h24v24H0V0z"/>
</g>
<g id="Rounded">
	<g id="ui_x5F_spec_x5F_header_copy_5">
	</g>
	<path d="M20.65,17.65l-1.79-1.79C18.54,15.54,18,15.76,18,16.21V17H6c-0.55,0-1,0.45-1,1v0c0,0.55,0.45,1,1,1h12v0.79
		c0,0.45,0.54,0.67,0.85,0.35l1.79-1.79C20.84,18.16,20.84,17.84,20.65,17.65z M9.5,11.8h5l0.66,1.6c0.15,0.36,0.5,0.6,0.89,0.6h0
		c0.69,0,1.15-0.71,0.88-1.34l-3.88-8.97C12.87,3.27,12.46,3,12,3h0c-0.46,0-0.87,0.27-1.05,0.69l-3.88,8.97
		C6.8,13.29,7.27,14,7.96,14h0c0.39,0,0.74-0.24,0.89-0.6L9.5,11.8z M12,4.98L13.87,10h-3.74L12,4.98z"/>
</g>
</svg>
