<?xml version="1.0" encoding="utf-8"?>
<!-- Generator: Adobe Illustrator 19.1.0, SVG Export Plug-In . SVG Version: 6.00 Build 0)  -->
<svg version="1.1" xmlns="http://www.w3.org/2000/svg" xmlns:xlink="http://www.w3.org/1999/xlink" x="0px" y="0px" width="24px"
	 height="24px" viewBox="0 0 24 24" enable-background="new 0 0 24 24" xml:space="preserve">
<g id="Bounding_Boxes">
	<g id="ui_x5F_spec_x5F_header_copy_3">
	</g>
	<path fill="none" d="M0,0h24v24H0V0z"/>
</g>
<g id="Rounded">
	<g id="ui_x5F_spec_x5F_header_copy_5">
	</g>
	<path d="M18,4v1h-2V4c0-0.55-0.45-1-1-1H9C8.45,3,8,3.45,8,4v1H6V4c0-0.55-0.45-1-1-1h0C4.45,3,4,3.45,4,4v16c0,0.55,0.45,1,1,1h0
		c0.55,0,1-0.45,1-1v-1h2v1c0,0.55,0.45,1,1,1h6c0.55,0,1-0.45,1-1v-1h2v1c0,0.55,0.45,1,1,1h0c0.55,0,1-0.45,1-1V4
		c0-0.55-0.45-1-1-1h0C18.45,3,18,3.45,18,4z M8,17H6v-2h2V17z M8,13H6v-2h2V13z M8,9H6V7h2V9z M18,17h-2v-2h2V17z M18,13h-2v-2h2
		V13z M18,9h-2V7h2V9z"/>
</g>
</svg>
