<?xml version="1.0" encoding="utf-8"?>
<!-- Generator: Adobe Illustrator 19.1.0, SVG Export Plug-In . SVG Version: 6.00 Build 0)  -->
<svg version="1.1" xmlns="http://www.w3.org/2000/svg" xmlns:xlink="http://www.w3.org/1999/xlink" x="0px" y="0px" width="24px"
	 height="24px" viewBox="0 0 24 24" enable-background="new 0 0 24 24" xml:space="preserve">
<g id="Bounding_Boxes">
	<g id="ui_x5F_spec_x5F_header_copy_2">
	</g>
	<path fill="none" d="M0,0h24v24H0V0z"/>
</g>
<g id="Rounded_1_">
	<path d="M18.92,5.01C18.72,4.42,18.16,4,17.5,4h-11C5.84,4,5.29,4.42,5.08,5.01l-1.97,5.67C3.04,10.89,3,11.11,3,11.34v7.16
		C3,19.33,3.67,20,4.5,20h0C5.33,20,6,19.33,6,18.5V18h12v0.5c0,0.82,0.67,1.5,1.5,1.5h0c0.82,0,1.5-0.67,1.5-1.5v-7.16
		c0-0.22-0.04-0.45-0.11-0.66L18.92,5.01z M6.5,15C5.67,15,5,14.33,5,13.5S5.67,12,6.5,12S8,12.67,8,13.5S7.33,15,6.5,15z M17.5,15
		c-0.83,0-1.5-0.67-1.5-1.5s0.67-1.5,1.5-1.5s1.5,0.67,1.5,1.5S18.33,15,17.5,15z M5,10l1.27-3.82C6.41,5.78,6.79,5.5,7.22,5.5h9.56
		c0.43,0,0.81,0.28,0.95,0.68L19,10H5z"/>
</g>
</svg>
