<?xml version="1.0" encoding="utf-8"?>
<!-- Generator: Adobe Illustrator 19.1.0, SVG Export Plug-In . SVG Version: 6.00 Build 0)  -->
<svg version="1.1" xmlns="http://www.w3.org/2000/svg" xmlns:xlink="http://www.w3.org/1999/xlink" x="0px" y="0px" width="24px"
	 height="24px" viewBox="0 0 24 24" enable-background="new 0 0 24 24" xml:space="preserve">
<g id="Bounding_Boxes">
	<g id="ui_x5F_spec_x5F_header_copy_3">
	</g>
	<path fill="none" d="M0,0h24v24H0V0z"/>
</g>
<g id="Rounded">
	<g id="ui_x5F_spec_x5F_header_copy_5">
	</g>
	<path d="M19,3h-1V2c0-0.55-0.45-1-1-1h0c-0.55,0-1,0.45-1,1v1H8V2c0-0.55-0.45-1-1-1h0C6.45,1,6,1.45,6,2v1H5
		C3.89,3,3.01,3.9,3.01,5L3,19c0,1.1,0.89,2,2,2h14c1.1,0,2-0.9,2-2V5C21,3.9,20.1,3,19,3z M18,19H6c-0.55,0-1-0.45-1-1V8h14v10
		C19,18.55,18.55,19,18,19z M8,10h3c0.55,0,1,0.45,1,1v3c0,0.55-0.45,1-1,1H8c-0.55,0-1-0.45-1-1v-3C7,10.45,7.45,10,8,10z"/>
</g>
</svg>
