<?xml version="1.0" encoding="utf-8"?>
<!-- Generator: Adobe Illustrator 19.1.0, SVG Export Plug-In . SVG Version: 6.00 Build 0)  -->
<svg version="1.1" xmlns="http://www.w3.org/2000/svg" xmlns:xlink="http://www.w3.org/1999/xlink" x="0px" y="0px" width="24px"
	 height="24px" viewBox="0 0 24 24" enable-background="new 0 0 24 24" xml:space="preserve">
<g id="Bounding_Boxes">
	<g id="ui_x5F_spec_x5F_header_copy_2">
	</g>
	<path fill="none" d="M0,0h24v24H0V0z"/>
</g>
<g id="Rounded">
	<g id="ui_x5F_spec_x5F_header_copy_6">
	</g>
	<path d="M12,2C6.48,2,2,6.48,2,12s4.48,10,10,10s10-4.48,10-10S17.52,2,12,2z M11,19.93C7.06,19.44,4,16.08,4,12s3.05-7.44,7-7.93
		V19.93z M13,4.07C14.03,4.2,15,4.52,15.87,5H13V4.07z M13,7h5.24c0.25,0.31,0.48,0.65,0.68,1H13V7z M13,10h6.74
		c0.08,0.33,0.15,0.66,0.19,1H13V10z M13,19.93V19h2.87C15,19.48,14.03,19.8,13,19.93z M18.24,17H13v-1h5.92
		C18.72,16.35,18.49,16.69,18.24,17z M19.74,14H13v-1h6.93C19.89,13.34,19.82,13.67,19.74,14z"/>
</g>
</svg>
