<?xml version="1.0" encoding="utf-8"?>
<!-- Generator: Adobe Illustrator 19.1.0, SVG Export Plug-In . SVG Version: 6.00 Build 0)  -->
<svg version="1.1" xmlns="http://www.w3.org/2000/svg" xmlns:xlink="http://www.w3.org/1999/xlink" x="0px" y="0px" width="24px"
	 height="24px" viewBox="0 0 24 24" enable-background="new 0 0 24 24" xml:space="preserve">
<g id="Bounding_Boxes" display="none">
	<g id="ui_x5F_spec_x5F_header_copy_3" display="inline">
	</g>
	<path display="inline" fill="none" d="M0,0h24v24H0V0z"/>
	<path display="inline" fill="none" d="M0,0h24v24H0V0z"/>
</g>
<g id="Rounded">
	<g id="ui_x5F_spec_x5F_header_copy_6">
	</g>
	<path d="M12,12c0-3,2.5-5.5,5.5-5.5c2.57,0,4.77,1.83,5.35,4.24C23,11.38,22.53,12,21.88,12H12z M12,12c0,3-2.5,5.5-5.5,5.5
		c-2.57,0-4.77-1.83-5.35-4.24C1,12.62,1.47,12,2.12,12H12z M12,12c-3,0-5.5-2.5-5.5-5.5c0-2.57,1.83-4.77,4.24-5.35
		C11.38,1,12,1.47,12,2.12V12z M12,12c3,0,5.5,2.5,5.5,5.5c0,2.57-1.83,4.77-4.24,5.35C12.62,23,12,22.53,12,21.88V12z"/>
</g>
</svg>
