<?xml version="1.0" encoding="utf-8"?>
<!-- Generator: Adobe Illustrator 19.1.0, SVG Export Plug-In . SVG Version: 6.00 Build 0)  -->
<svg version="1.1" xmlns="http://www.w3.org/2000/svg" xmlns:xlink="http://www.w3.org/1999/xlink" x="0px" y="0px" width="24px"
	 height="24px" viewBox="0 0 24 24" enable-background="new 0 0 24 24" xml:space="preserve">
<g id="Bounding_Boxes">
	<path fill="none" d="M0,0h24v24H0V0z"/>
</g>
<g id="Rounded">
	<path d="M13,5L13,5l0.75-1.5H17V2H7v1.5h4.75L11,5C7.87,5.09,5,5.73,5,8.5V17c0,1.5,1.11,2.73,2.55,2.95l-1.19,1.19
		C6.04,21.46,6.26,22,6.71,22h1.09c0.13,0,0.26-0.05,0.35-0.15L10,20h4l1.85,1.85c0.09,0.09,0.22,0.15,0.35,0.15h1.09
		c0.45,0,0.67-0.54,0.35-0.85l-1.19-1.19C17.89,19.73,19,18.5,19,17V8.5C19,5.73,16.13,5.09,13,5z M12,18.5
		c-0.83,0-1.5-0.67-1.5-1.5c0-0.83,0.67-1.5,1.5-1.5s1.5,0.67,1.5,1.5C13.5,17.83,12.83,18.5,12,18.5z M17,14H7V9h10V14z"/>
</g>
</svg>
