<?xml version="1.0" encoding="utf-8"?>
<!-- Generator: Adobe Illustrator 19.1.0, SVG Export Plug-In . SVG Version: 6.00 Build 0)  -->
<svg version="1.1" xmlns="http://www.w3.org/2000/svg" xmlns:xlink="http://www.w3.org/1999/xlink" x="0px" y="0px" width="24px"
	 height="24px" viewBox="0 0 24 24" enable-background="new 0 0 24 24" xml:space="preserve">
<g id="Bounding_Boxes">
	<path fill="none" d="M0,0h24v24H0V0z"/>
</g>
<g id="Rounded">
	<path d="M14.5,18H8c-1.1,0-2-0.9-2-2V9.5C6,8.67,6.67,8,7.5,8h0C8.33,8,9,8.67,9,9.5v3.27L14.95,7c0.57-0.55,1.48-0.54,2.04,0.02
		l0,0c0.56,0.56,0.56,1.47,0.01,2.04L11.15,15h3.35c0.83,0,1.5,0.67,1.5,1.5v0C16,17.33,15.33,18,14.5,18z"/>
</g>
</svg>
