<?xml version="1.0" encoding="utf-8"?>
<!-- Generator: Adobe Illustrator 19.1.0, SVG Export Plug-In . SVG Version: 6.00 Build 0)  -->
<svg version="1.1" xmlns="http://www.w3.org/2000/svg" xmlns:xlink="http://www.w3.org/1999/xlink" x="0px" y="0px" width="24px"
	 height="24px" viewBox="0 0 24 24" enable-background="new 0 0 24 24" xml:space="preserve">
<g id="Bounding_Boxes">
	<g id="ui_x5F_spec_x5F_header_copy_2">
	</g>
	<path fill="none" d="M0,0h24v24H0V0z"/>
</g>
<g id="Rounded">
	<g id="ui_x5F_spec_x5F_header_copy_6">
	</g>
	<g>
		<path d="M21,16H9c-0.55,0-1-0.45-1-1V4h0.79c0.45,0,0.67-0.54,0.35-0.85L7.35,1.35c-0.2-0.2-0.51-0.2-0.71,0L4.85,3.15
			C4.54,3.46,4.76,4,5.21,4H6v2H3C2.45,6,2,6.45,2,7c0,0.55,0.45,1,1,1h3v8c0,1.1,0.9,2,2,2h8v2h-0.79c-0.45,0-0.67,0.54-0.35,0.85
			l1.79,1.79c0.2,0.2,0.51,0.2,0.71,0l1.79-1.79c0.32-0.31,0.09-0.85-0.35-0.85H18v-2h3c0.55,0,1-0.45,1-1C22,16.45,21.55,16,21,16z
			"/>
		<path d="M16,14h2V8c0-1.1-0.9-2-2-2h-6v2h5c0.55,0,1,0.45,1,1V14z"/>
	</g>
</g>
</svg>
