<?xml version="1.0" encoding="utf-8"?>
<!-- Generator: Adobe Illustrator 19.1.0, SVG Export Plug-In . SVG Version: 6.00 Build 0)  -->
<svg version="1.1" xmlns="http://www.w3.org/2000/svg" xmlns:xlink="http://www.w3.org/1999/xlink" x="0px" y="0px" width="24px"
	 height="24px" viewBox="0 0 24 24" enable-background="new 0 0 24 24" xml:space="preserve">
<g id="Bounding_Boxes">
	<path fill="none" d="M0,0h24v24H0V0z"/>
</g>
<g id="Rounded">
	<path d="M22,15.5h-5.52v-0.77c0-0.36-0.44-0.54-0.69-0.29l-1.51,1.52c-0.16,0.16-0.16,0.41,0,0.57l1.51,1.52
		c0.26,0.26,0.69,0.08,0.69-0.29V17H22V15.5z"/>
	<path d="M21.72,20.21l-1.51-1.52c-0.26-0.26-0.69-0.08-0.69,0.29v0.77H14v1.5h5.52v0.77c0,0.36,0.44,0.54,0.69,0.29l1.51-1.52
		C21.88,20.63,21.88,20.37,21.72,20.21z"/>
	<g>
		<g>
			<path d="M9.5,5.5c1.1,0,2-0.9,2-2s-0.9-2-2-2s-2,0.9-2,2S8.4,5.5,9.5,5.5z M5.75,8.9L3.23,21.81C3.11,22.43,3.58,23,4.21,23H4.3
				c0.47,0,0.88-0.33,0.98-0.79L6.85,15L9,17v5c0,0.55,0.45,1,1,1h0c0.55,0,1-0.45,1-1v-5.72c0-0.53-0.21-1.04-0.59-1.41L8.95,13.4
				l0.6-3c1.07,1.32,2.58,2.23,4.31,2.51c0.6,0.1,1.14-0.39,1.14-1v0c0-0.49-0.36-0.9-0.84-0.98c-1.49-0.25-2.75-1.15-3.51-2.38
				L9.7,6.95C9.35,6.35,8.7,6,8,6C7.75,6,7.5,6.05,7.25,6.15L3.24,7.79C2.49,8.1,2,8.83,2,9.64V12c0,0.55,0.45,1,1,1h0
				c0.55,0,1-0.45,1-1V9.65L5.75,8.9"/>
		</g>
	</g>
</g>
</svg>
