<?xml version="1.0" encoding="utf-8"?>
<!-- Generator: Adobe Illustrator 19.1.0, SVG Export Plug-In . SVG Version: 6.00 Build 0)  -->
<svg version="1.1" xmlns="http://www.w3.org/2000/svg" xmlns:xlink="http://www.w3.org/1999/xlink" x="0px" y="0px" width="24px"
	 height="24px" viewBox="0 0 24 24" enable-background="new 0 0 24 24" xml:space="preserve">
<g id="Bounding_Boxes">
	<g id="ui_x5F_spec_x5F_header_copy_3">
	</g>
	<path fill="none" d="M0,0h24v24H0V0z"/>
</g>
<g id="Rounded">
	<g id="ui_x5F_spec_x5F_header_copy_5">
	</g>
	<path d="M16.85,17.15l1.44-1.44l-4.88-4.88l-3.29,3.29c-0.39,0.39-1.02,0.39-1.41,0l-6-6.01c-0.39-0.39-0.39-1.02,0-1.41l0,0
		c0.39-0.39,1.02-0.39,1.41,0L9.41,12l3.29-3.29c0.39-0.39,1.02-0.39,1.41,0l5.59,5.58l1.44-1.44c0.31-0.31,0.85-0.09,0.85,0.35
		v4.29c0,0.28-0.22,0.5-0.5,0.5h-4.29C16.76,18,16.54,17.46,16.85,17.15z"/>
</g>
</svg>
