<?xml version="1.0" encoding="utf-8"?>
<!-- Generator: Adobe Illustrator 19.1.0, SVG Export Plug-In . SVG Version: 6.00 Build 0)  -->
<svg version="1.1" xmlns="http://www.w3.org/2000/svg" xmlns:xlink="http://www.w3.org/1999/xlink" x="0px" y="0px" width="24px"
	 height="24px" viewBox="0 0 24 24" enable-background="new 0 0 24 24" xml:space="preserve">
<g id="Bounding_Boxes">
	<g id="ui_x5F_spec_x5F_header_copy_2">
	</g>
	<path fill="none" d="M0,0h24v24H0V0z"/>
</g>
<g id="Rounded_1_">
	<g>
		<path d="M21,8v9.88l1.85,1.85C22.95,19.51,23,19.26,23,19V7c0-1.11-0.9-2-2-2h-7.59l2.94-2.94c0.2-0.2,0.2-0.51,0-0.71
			s-0.51-0.2-0.71,0L12,4.99L8.36,1.35c-0.2-0.2-0.51-0.2-0.71,0s-0.2,0.51,0,0.71L10.59,5H8.12l2,2H20C20.55,7,21,7.45,21,8z"/>
		<path d="M3.12,2.83c-0.39-0.39-1.02-0.39-1.41,0c-0.39,0.39-0.39,1.02,0,1.41l0.82,0.82C1.65,5.28,1,6.06,1,7v12c0,1.1,0.9,2,2,2
			h15.46l1.29,1.29c0.39,0.39,1.02,0.39,1.41,0c0.36-0.36,0.37-0.92,0.07-1.31c0.01,0,0.02,0,0.03,0L3.12,2.83z M3,18V8
			c0-0.55,0.45-1,1-1h0.46l12,12H4C3.45,19,3,18.55,3,18z"/>
	</g>
</g>
</svg>
