<?xml version="1.0" encoding="utf-8"?>
<!-- Generator: Adobe Illustrator 19.1.0, SVG Export Plug-In . SVG Version: 6.00 Build 0)  -->
<svg version="1.1" xmlns="http://www.w3.org/2000/svg" xmlns:xlink="http://www.w3.org/1999/xlink" x="0px" y="0px" width="24px"
	 height="24px" viewBox="0 0 24 24" enable-background="new 0 0 24 24" xml:space="preserve">
<g id="Bounding_Boxes">
	<g id="ui_x5F_spec_x5F_header_copy_3" display="none">
	</g>
	<path fill="none" d="M0,0h24v24H0V0z"/>
</g>
<g id="Rounded_1_">
	<g id="ui_x5F_spec_x5F_header_copy_6" display="none">
	</g>
	<path d="M20.55,5.22l-1.39-1.68C18.88,3.21,18.47,3,18,3H6C5.53,3,5.12,3.21,4.85,3.55L3.46,5.22C3.17,5.57,3,6.01,3,6.5V19
		c0,1.1,0.89,2,2,2h14c1.1,0,2-0.9,2-2V6.5C21,6.01,20.83,5.57,20.55,5.22z M12.35,9.85L17.5,15H14v2h-4v-2H6.5l5.15-5.15
		C11.84,9.66,12.16,9.66,12.35,9.85z M5.12,5l0.82-1h12l0.93,1H5.12z"/>
</g>
</svg>
