<?xml version="1.0" encoding="utf-8"?>
<!-- Generator: Adobe Illustrator 19.1.0, SVG Export Plug-In . SVG Version: 6.00 Build 0)  -->
<svg version="1.1" xmlns="http://www.w3.org/2000/svg" xmlns:xlink="http://www.w3.org/1999/xlink" x="0px" y="0px" width="24px"
	 height="24px" viewBox="0 0 24 24" enable-background="new 0 0 24 24" xml:space="preserve">
<g id="Bounding_Boxes">
	<g id="ui_x5F_spec_x5F_header_copy_3">
	</g>
	<path fill="none" d="M0,0h24v24H0V0z"/>
</g>
<g id="Rounded">
	<g id="ui_x5F_spec_x5F_header_copy_5">
	</g>
	<path d="M11.19,1.36l-7,3.11C3.47,4.79,3,5.51,3,6.3V11c0,5.55,3.84,10.74,9,12c5.16-1.26,9-6.45,9-12V6.3
		c0-0.79-0.47-1.51-1.19-1.83l-7-3.11C12.3,1.13,11.7,1.13,11.19,1.36z M9.29,16.29l-2.59-2.59c-0.39-0.39-0.39-1.02,0-1.41l0,0
		c0.39-0.39,1.02-0.39,1.41,0L10,14.17l5.88-5.88c0.39-0.39,1.02-0.39,1.41,0l0,0c0.39,0.39,0.39,1.02,0,1.41l-6.59,6.59
		C10.32,16.68,9.68,16.68,9.29,16.29z"/>
</g>
</svg>
