<?xml version="1.0" encoding="utf-8"?>
<!-- Generator: Adobe Illustrator 19.1.0, SVG Export Plug-In . SVG Version: 6.00 Build 0)  -->
<svg version="1.1" xmlns="http://www.w3.org/2000/svg" xmlns:xlink="http://www.w3.org/1999/xlink" x="0px" y="0px" width="24px"
	 height="24px" viewBox="0 0 24 24" enable-background="new 0 0 24 24" xml:space="preserve">
<g id="Bounding_Boxes">
	<g id="ui_x5F_spec_x5F_header_copy_3">
	</g>
	<path fill="none" d="M0,0h24v24H0V0z"/>
</g>
<g id="Rounded">
	<g id="ui_x5F_spec_x5F_header_copy_6">
	</g>
	<path d="M9.21,11H11v9c0,0.55,0.45,1,1,1h0c0.55,0,1-0.45,1-1v-9h1.79c0.45,0,0.67-0.54,0.35-0.85l-2.79-2.79
		c-0.2-0.2-0.51-0.2-0.71,0l-2.79,2.79C8.54,10.46,8.76,11,9.21,11z M4,4L4,4c0,0.55,0.45,1,1,1h14c0.55,0,1-0.45,1-1v0
		c0-0.55-0.45-1-1-1H5C4.45,3,4,3.45,4,4z"/>
</g>
</svg>
