<?xml version="1.0" encoding="utf-8"?>
<!-- Generator: Adobe Illustrator 19.1.0, SVG Export Plug-In . SVG Version: 6.00 Build 0)  -->
<svg version="1.1" xmlns="http://www.w3.org/2000/svg" xmlns:xlink="http://www.w3.org/1999/xlink" x="0px" y="0px" width="24px"
	 height="24px" viewBox="0 0 24 24" enable-background="new 0 0 24 24" xml:space="preserve">
<g id="Bounding_Boxes" display="none">
	<path display="inline" fill="none" d="M0,0h24v24H0V0z"/>
</g>
<g id="Rounded">
	<g>
		<path d="M21,14.2V8.91c0-0.89-1.08-1.34-1.71-0.71L17,10.5V7c0-0.55-0.45-1-1-1h-5.61l8.91,8.91C19.92,15.54,21,15.09,21,14.2z"/>
		<path d="M2.71,2.56L2.71,2.56c-0.39,0.39-0.39,1.02,0,1.41L4.73,6H4C3.45,6,3,6.45,3,7v10c0,0.55,0.45,1,1,1h12
			c0.21,0,0.39-0.08,0.55-0.18l2.48,2.48c0.39,0.39,1.02,0.39,1.41,0l0,0c0.39-0.39,0.39-1.02,0-1.41L4.12,2.56
			C3.73,2.17,3.1,2.17,2.71,2.56z"/>
	</g>
</g>
</svg>
