<?xml version="1.0" encoding="utf-8"?>
<!-- Generator: Adobe Illustrator 19.1.0, SVG Export Plug-In . SVG Version: 6.00 Build 0)  -->
<svg version="1.1" xmlns="http://www.w3.org/2000/svg" xmlns:xlink="http://www.w3.org/1999/xlink" x="0px" y="0px" width="24px"
	 height="24px" viewBox="0 0 24 24" enable-background="new 0 0 24 24" xml:space="preserve">
<g id="Bounding_Boxes" display="none">
	<g id="ui_x5F_spec_x5F_header_copy_3" display="inline">
	</g>
	<path display="inline" fill="none" d="M0,0h24v24H0V0z"/>
</g>
<g id="Rounded">
	<g id="ui_x5F_spec_x5F_header_copy_6">
	</g>
	<path d="M21,6H3C1.9,6,1,6.9,1,8v8c0,1.1,0.9,2,2,2h18c1.1,0,2-0.9,2-2V8C23,6.9,22.1,6,21,6z M10,13H8v2c0,0.55-0.45,1-1,1h0
		c-0.55,0-1-0.45-1-1v-2H4c-0.55,0-1-0.45-1-1v0c0-0.55,0.45-1,1-1h2V9c0-0.55,0.45-1,1-1h0c0.55,0,1,0.45,1,1v2h2
		c0.55,0,1,0.45,1,1v0C11,12.55,10.55,13,10,13z M15.5,15c-0.83,0-1.5-0.67-1.5-1.5s0.67-1.5,1.5-1.5s1.5,0.67,1.5,1.5
		S16.33,15,15.5,15z M19.5,12c-0.83,0-1.5-0.67-1.5-1.5S18.67,9,19.5,9S21,9.67,21,10.5S20.33,12,19.5,12z"/>
</g>
</svg>
