<?xml version="1.0" encoding="utf-8"?>
<!-- Generator: Adobe Illustrator 19.1.0, SVG Export Plug-In . SVG Version: 6.00 Build 0)  -->
<svg version="1.1" xmlns="http://www.w3.org/2000/svg" xmlns:xlink="http://www.w3.org/1999/xlink" x="0px" y="0px" width="24px"
	 height="24px" viewBox="0 0 24 24" enable-background="new 0 0 24 24" xml:space="preserve">
<g id="Bounding_Boxes" display="none">
	<path display="inline" fill="none" d="M0,0h24v24H0V0z"/>
</g>
<g id="Rounded">
	<path d="M3,6L3,6C2.45,6,2,6.45,2,7v13c0,1.1,0.9,2,2,2h13c0.55,0,1-0.45,1-1v0c0-0.55-0.45-1-1-1H5c-0.55,0-1-0.45-1-1V7
		C4,6.45,3.55,6,3,6z M20,2H8C6.9,2,6,2.9,6,4v12c0,1.1,0.9,2,2,2h12c1.1,0,2-0.9,2-2V4C22,2.9,21.1,2,20,2z M12,14.5v-9l5.47,4.1
		c0.27,0.2,0.27,0.6,0,0.8L12,14.5z"/>
</g>
</svg>
