<?xml version="1.0" encoding="utf-8"?>
<!-- Generator: Adobe Illustrator 19.1.0, SVG Export Plug-In . SVG Version: 6.00 Build 0)  -->
<svg version="1.1" xmlns="http://www.w3.org/2000/svg" xmlns:xlink="http://www.w3.org/1999/xlink" x="0px" y="0px" width="24px"
	 height="24px" viewBox="0 0 24 24" enable-background="new 0 0 24 24" xml:space="preserve">
<g id="Bounding_Boxes">
	<g id="ui_x5F_spec_x5F_header_copy_2">
	</g>
	<path fill="none" d="M0,0h24v24H0V0z"/>
</g>
<g id="Rounded">
	<g id="ui_x5F_spec_x5F_header_copy_6">
	</g>
	<path d="M3,9h4V5H5C3.9,5,3,5.9,3,7V9z M3,14h4v-4H3V14z M8,14h4v-4H8V14z M13,14h4v-4h-4V14z M8,9h4V5H8V9z M13,5v4h4V5H13z
		 M18,14h4v-4h-4V14z M5,19h2v-4H3v2C3,18.1,3.9,19,5,19z M8,19h4v-4H8V19z M13,19h4v-4h-4V19z M18,19h2c1.1,0,2-0.9,2-2v-2h-4V19z
		 M18,5v4h4V7c0-1.1-0.9-2-2-2H18z"/>
</g>
</svg>
