<?xml version="1.0" encoding="utf-8"?>
<!-- Generator: Adobe Illustrator 19.1.0, SVG Export Plug-In . SVG Version: 6.00 Build 0)  -->
<svg version="1.1" xmlns="http://www.w3.org/2000/svg" xmlns:xlink="http://www.w3.org/1999/xlink" x="0px" y="0px" width="24px"
	 height="24px" viewBox="0 0 24 24" enable-background="new 0 0 24 24" xml:space="preserve">
<g id="Bounding_Boxes">
	<g id="ui_x5F_spec_x5F_header_copy_3">
	</g>
	<path fill="none" d="M0,0h24v24H0V0z"/>
</g>
<g id="Rounded">
	<g id="ui_x5F_spec_x5F_header_copy_5">
	</g>
	<path d="M5,15h14c0.55,0,1-0.45,1-1v0c0-0.55-0.45-1-1-1H5c-0.55,0-1,0.45-1,1v0C4,14.55,4.45,15,5,15z M5,19h14c0.55,0,1-0.45,1-1
		v0c0-0.55-0.45-1-1-1H5c-0.55,0-1,0.45-1,1v0C4,18.55,4.45,19,5,19z M5,11h14c0.55,0,1-0.45,1-1v0c0-0.55-0.45-1-1-1H5
		c-0.55,0-1,0.45-1,1v0C4,10.55,4.45,11,5,11z M4,6L4,6c0,0.55,0.45,1,1,1h14c0.55,0,1-0.45,1-1v0c0-0.55-0.45-1-1-1H5
		C4.45,5,4,5.45,4,6z"/>
</g>
</svg>
