<?xml version="1.0" encoding="utf-8"?>
<!-- Generator: Adobe Illustrator 19.1.0, SVG Export Plug-In . SVG Version: 6.00 Build 0)  -->
<svg version="1.1" xmlns="http://www.w3.org/2000/svg" xmlns:xlink="http://www.w3.org/1999/xlink" x="0px" y="0px" width="24px"
	 height="24px" viewBox="0 0 24 24" enable-background="new 0 0 24 24" xml:space="preserve">
<g id="Bounding_Boxes">
	<g id="ui_x5F_spec_x5F_header_copy_3">
	</g>
	<path opacity="0.87" fill="none" d="M0,0h24v24H0V0z"/>
</g>
<g id="Rounded">
	<g id="ui_x5F_spec_x5F_header_copy_5">
	</g>
	<path d="M4,14h2c0.55,0,1-0.45,1-1v-2c0-0.55-0.45-1-1-1H4c-0.55,0-1,0.45-1,1v2C3,13.55,3.45,14,4,14z M4,19h2c0.55,0,1-0.45,1-1
		v-2c0-0.55-0.45-1-1-1H4c-0.55,0-1,0.45-1,1v2C3,18.55,3.45,19,4,19z M4,9h2c0.55,0,1-0.45,1-1V6c0-0.55-0.45-1-1-1H4
		C3.45,5,3,5.45,3,6v2C3,8.55,3.45,9,4,9z M9,14h10c0.55,0,1-0.45,1-1v-2c0-0.55-0.45-1-1-1H9c-0.55,0-1,0.45-1,1v2
		C8,13.55,8.45,14,9,14z M9,19h10c0.55,0,1-0.45,1-1v-2c0-0.55-0.45-1-1-1H9c-0.55,0-1,0.45-1,1v2C8,18.55,8.45,19,9,19z M8,6v2
		c0,0.55,0.45,1,1,1h10c0.55,0,1-0.45,1-1V6c0-0.55-0.45-1-1-1H9C8.45,5,8,5.45,8,6z"/>
</g>
</svg>
