<?xml version="1.0" encoding="utf-8"?>
<!-- Generator: Adobe Illustrator 19.1.0, SVG Export Plug-In . SVG Version: 6.00 Build 0)  -->
<svg version="1.1" xmlns="http://www.w3.org/2000/svg" xmlns:xlink="http://www.w3.org/1999/xlink" x="0px" y="0px" width="24px"
	 height="24px" viewBox="0 0 24 24" enable-background="new 0 0 24 24" xml:space="preserve">
<g id="Bounding_Boxes">
	<g id="ui_x5F_spec_x5F_header_copy_2">
	</g>
	<path fill="none" d="M0,0h24v24H0V0z"/>
</g>
<g id="Rounded_1_">
	<path d="M20,2H4C2.9,2,2.01,2.9,2.01,4L2,22l4-4h14c1.1,0,2-0.9,2-2V4C22,2.9,21.1,2,20,2z M16.38,12.7L14,10.8V13
		c0,0.55-0.45,1-1,1H7c-0.55,0-1-0.45-1-1V7c0-0.55,0.45-1,1-1h6c0.55,0,1,0.45,1,1v2.2l2.38-1.9C17.03,6.78,18,7.24,18,8.08v3.84
		C18,12.76,17.03,13.22,16.38,12.7z"/>
</g>
</svg>
