<?xml version="1.0" encoding="utf-8"?>
<!-- Generator: Adobe Illustrator 19.1.0, SVG Export Plug-In . SVG Version: 6.00 Build 0)  -->
<svg version="1.1" xmlns="http://www.w3.org/2000/svg" xmlns:xlink="http://www.w3.org/1999/xlink" x="0px" y="0px" width="24px"
	 height="24px" viewBox="0 0 24 24" enable-background="new 0 0 24 24" xml:space="preserve">
<g id="Bounding_Boxes" display="none">
	<path display="inline" fill="none" d="M0,0h24v24H0V0z"/>
</g>
<g id="Rounded">
	<g>
		<path d="M3.63,3.63L3.63,3.63c-0.39,0.39-0.39,1.02,0,1.41l3.66,3.66L7,9H4c-0.55,0-1,0.45-1,1v4c0,0.55,0.45,1,1,1h3l3.29,3.29
			c0.63,0.63,1.71,0.18,1.71-0.71v-4.17l4.18,4.18c-0.49,0.37-1.02,0.68-1.6,0.91C14.22,18.65,14,19.03,14,19.42v0
			c0,0.72,0.73,1.18,1.39,0.91c0.8-0.33,1.55-0.77,2.22-1.31l1.34,1.34c0.39,0.39,1.02,0.39,1.41,0l0,0c0.39-0.39,0.39-1.02,0-1.41
			L5.05,3.63C4.66,3.24,4.03,3.24,3.63,3.63z"/>
		<path d="M19,12c0,0.82-0.15,1.61-0.41,2.34l1.53,1.53C20.68,14.7,21,13.39,21,12c0-3.83-2.4-7.11-5.78-8.4
			C14.63,3.37,14,3.83,14,4.46v0.19c0,0.38,0.25,0.71,0.61,0.85C17.18,6.54,19,9.06,19,12z"/>
		<path d="M10.29,5.71l-0.17,0.17L12,7.76V6.41C12,5.52,10.92,5.08,10.29,5.71z"/>
		<path d="M16.5,12c0-1.77-1.02-3.29-2.5-4.03v1.79l2.48,2.48C16.49,12.16,16.5,12.08,16.5,12z"/>
	</g>
</g>
</svg>
