<?xml version="1.0" encoding="utf-8"?>
<!-- Generator: Adobe Illustrator 19.1.0, SVG Export Plug-In . SVG Version: 6.00 Build 0)  -->
<svg version="1.1" xmlns="http://www.w3.org/2000/svg" xmlns:xlink="http://www.w3.org/1999/xlink" x="0px" y="0px" width="24px"
	 height="24px" viewBox="0 0 24 24" enable-background="new 0 0 24 24" xml:space="preserve">
<g id="Bounding_Boxes">
	<g id="ui_x5F_spec_x5F_header_copy_2">
	</g>
	<path fill="none" d="M0,0h24v24H0V0z"/>
</g>
<g id="Rounded_1_">
	<g id="ui_x5F_spec_x5F_header_copy_6">
	</g>
	<path d="M12.65,10C11.7,7.31,8.9,5.5,5.77,6.12C3.48,6.58,1.62,8.41,1.14,10.7C0.32,14.57,3.26,18,7,18c2.61,0,4.83-1.67,5.65-4H17
		v2c0,1.1,0.9,2,2,2h0c1.1,0,2-0.9,2-2v-2h0c1.1,0,2-0.9,2-2v0c0-1.1-0.9-2-2-2H12.65z M7,14c-1.1,0-2-0.9-2-2s0.9-2,2-2s2,0.9,2,2
		S8.1,14,7,14z"/>
</g>
</svg>
