<?xml version="1.0" encoding="utf-8"?>
<!-- Generator: Adobe Illustrator 19.1.0, SVG Export Plug-In . SVG Version: 6.00 Build 0)  -->
<svg version="1.1" xmlns="http://www.w3.org/2000/svg" xmlns:xlink="http://www.w3.org/1999/xlink" x="0px" y="0px" width="24px"
	 height="24px" viewBox="0 0 24 24" enable-background="new 0 0 24 24" xml:space="preserve">
<g id="Bounding_Boxes" display="none">
	<g id="ui_x5F_spec_x5F_header_copy_3" display="inline">
	</g>
	<path display="inline" fill="none" d="M0,0h24v24H0V0z"/>
</g>
<g id="Rounded">
	<g id="ui_x5F_spec_x5F_header_copy_6">
	</g>
	<path d="M20,12c0-2.54-1.19-4.81-3.04-6.27l-0.68-4.06C16.12,0.71,15.28,0,14.31,0H9.7C8.72,0,7.88,0.71,7.72,1.67L7.05,5.73
		C5.19,7.19,4,9.45,4,12s1.19,4.81,3.05,6.27l0.67,4.06C7.88,23.29,8.72,24,9.7,24h4.61c0.98,0,1.81-0.71,1.97-1.67l0.68-4.06
		C18.81,16.81,20,14.54,20,12z M6,12c0-3.31,2.69-6,6-6s6,2.69,6,6s-2.69,6-6,6S6,15.31,6,12z"/>
</g>
</svg>
