<?xml version="1.0" encoding="utf-8"?>
<!-- Generator: Adobe Illustrator 19.1.0, SVG Export Plug-In . SVG Version: 6.00 Build 0)  -->
<svg version="1.1" xmlns="http://www.w3.org/2000/svg" xmlns:xlink="http://www.w3.org/1999/xlink" x="0px" y="0px" width="24px"
	 height="24px" viewBox="0 0 24 24" enable-background="new 0 0 24 24" xml:space="preserve">
<g id="Bounding_Boxes">
	<g id="ui_x5F_spec_x5F_header_copy_2">
	</g>
	<path fill="none" d="M0,0h24v24H0V0z"/>
</g>
<g id="Rounded">
	<g id="ui_x5F_spec_x5F_header_copy_6">
	</g>
	<g>
		<polygon points="6.85,12.65 9.15,12.65 8,9 		"/>
		<path d="M22.72,7c-0.42,0-0.77,0.3-0.85,0.7l-1.07,5.59l-1.31-5.51C19.38,7.32,18.97,7,18.5,7s-0.88,0.32-0.98,0.78l-1.31,5.51
			L15.14,7.7C15.06,7.3,14.7,7,14.29,7c-0.01,0-0.03,0.01-0.04,0.01C12.78,5.18,10.53,4,8,4c-4.42,0-8,3.58-8,8s3.58,8,8,8
			c3.17,0,5.9-1.85,7.2-4.52c0.2,0.32,0.55,0.52,0.94,0.52c0.51,0,0.95-0.35,1.07-0.84L18.5,9.9l1.29,5.26
			c0.12,0.49,0.57,0.84,1.07,0.84c0.52,0,0.96-0.36,1.08-0.86l1.61-7.08C23.68,7.52,23.27,7,22.72,7z M10.93,16
			c-0.38,0-0.72-0.24-0.84-0.6L9.6,14H6.4l-0.49,1.4C5.78,15.76,5.45,16,5.07,16c-0.62,0-1.05-0.61-0.84-1.19l2.44-6.86
			C6.87,7.38,7.4,7,8,7s1.13,0.38,1.34,0.94l2.44,6.86C11.98,15.39,11.55,16,10.93,16z"/>
	</g>
</g>
</svg>
