<?xml version="1.0" encoding="utf-8"?>
<!-- Generator: Adobe Illustrator 19.1.0, SVG Export Plug-In . SVG Version: 6.00 Build 0)  -->
<svg version="1.1" xmlns="http://www.w3.org/2000/svg" xmlns:xlink="http://www.w3.org/1999/xlink" x="0px" y="0px" width="24px"
	 height="24px" viewBox="0 0 24 24" enable-background="new 0 0 24 24" xml:space="preserve">
<g id="Bounding_Boxes">
	<g id="ui_x5F_spec_x5F_header_copy_3" display="none">
	</g>
	<path fill="none" d="M0,0h24v24H0V0z"/>
</g>
<g id="Rounded_1_">
	<g id="ui_x5F_spec_x5F_header_copy_6" display="none">
	</g>
	<path d="M12,2C8.14,2,5,5.14,5,9c0,4.17,4.42,9.92,6.23,12.11c0.4,0.48,1.13,0.48,1.53,0C14.58,18.92,19,13.17,19,9
		C19,5.14,15.86,2,12,2z M16.31,8.16l-5.13,5.13c-0.39,0.39-1.02,0.39-1.41,0l-2.07-2.07c-0.39-0.39-0.39-1.03,0-1.42h0
		c0.39-0.39,1.03-0.39,1.42,0l1.36,1.36l4.42-4.42c0.39-0.39,1.03-0.39,1.42,0C16.7,7.14,16.7,7.77,16.31,8.16z"/>
</g>
</svg>
