<?xml version="1.0" encoding="utf-8"?>
<!-- Generator: Adobe Illustrator 19.1.0, SVG Export Plug-In . SVG Version: 6.00 Build 0)  -->
<svg version="1.1" xmlns="http://www.w3.org/2000/svg" xmlns:xlink="http://www.w3.org/1999/xlink" x="0px" y="0px" width="24px"
	 height="24px" viewBox="0 0 24 24" enable-background="new 0 0 24 24" xml:space="preserve">
<g id="Bounding_Boxes">
	<g id="ui_x5F_spec_x5F_header_copy_3">
	</g>
	<path fill="none" d="M0,0h24v24H0V0z"/>
</g>
<g id="Rounded">
	<g id="ui_x5F_spec_x5F_header_copy_6">
	</g>
	<path d="M13,14v6c0,0.55,0.45,1,1,1h6c0.55,0,1-0.45,1-1v-6c0-0.55-0.45-1-1-1h-6C13.45,13,13,13.45,13,14z M4,21h6
		c0.55,0,1-0.45,1-1v-6c0-0.55-0.45-1-1-1H4c-0.55,0-1,0.45-1,1v6C3,20.55,3.45,21,4,21z M3,4v6c0,0.55,0.45,1,1,1h6
		c0.55,0,1-0.45,1-1V4c0-0.55-0.45-1-1-1H4C3.45,3,3,3.45,3,4z M15.95,2.4l-4.25,4.24c-0.39,0.39-0.39,1.02,0,1.41l4.25,4.25
		c0.39,0.39,1.02,0.39,1.41,0l4.25-4.25c0.39-0.39,0.39-1.02,0-1.41L17.37,2.4C16.98,2.01,16.34,2.01,15.95,2.4z"/>
</g>
</svg>
