<?xml version="1.0" encoding="utf-8"?>
<!-- Generator: Adobe Illustrator 19.1.0, SVG Export Plug-In . SVG Version: 6.00 Build 0)  -->
<svg version="1.1" xmlns="http://www.w3.org/2000/svg" xmlns:xlink="http://www.w3.org/1999/xlink" x="0px" y="0px" width="24px"
	 height="24px" viewBox="0 0 24 24" enable-background="new 0 0 24 24" xml:space="preserve">
<g id="Bounding_Boxes">
	<g id="ui_x5F_spec_x5F_header_copy_3">
	</g>
	<path fill="none" d="M0,0h24v24H0V0z"/>
</g>
<g id="Rounded">
	<g id="ui_x5F_spec_x5F_header_copy_6">
	</g>
	<g>
		<g>
			<path d="M21.31,9.58L24,6c-3.34-2.51-7.5-4-12-4S3.34,3.49,0,6l10.4,13.87c0.8,1.07,2.4,1.07,3.2,0l1.9-2.53V14.5
				c0-2.76,2.24-5,5-5C20.78,9.5,21.05,9.54,21.31,9.58z"/>
		</g>
		<g>
			<path d="M23,16v-1.5c0-1.38-1.12-2.5-2.5-2.5S18,13.12,18,14.5V16c-0.55,0-1,0.45-1,1v4c0,0.55,0.45,1,1,1h5c0.55,0,1-0.45,1-1
				v-4C24,16.45,23.55,16,23,16z M22,16h-3v-1.5c0-0.83,0.67-1.5,1.5-1.5s1.5,0.67,1.5,1.5V16z"/>
		</g>
	</g>
</g>
</svg>
