<?xml version="1.0" encoding="utf-8"?>
<!-- Generator: Adobe Illustrator 19.1.0, SVG Export Plug-In . SVG Version: 6.00 Build 0)  -->
<svg version="1.1" xmlns="http://www.w3.org/2000/svg" xmlns:xlink="http://www.w3.org/1999/xlink" x="0px" y="0px" width="24px"
	 height="24px" viewBox="0 0 24 24" enable-background="new 0 0 24 24" xml:space="preserve">
<g id="Bounding_Boxes">
	<g id="ui_x5F_spec_x5F_header_copy_3">
	</g>
	<path fill="none" d="M0,0h24v24H0V0z"/>
</g>
<g id="Rounded">
	<g id="ui_x5F_spec_x5F_header_copy_5">
	</g>
	<path d="M14,6V4h-4v2H14z M4,9v9c0,0.55,0.45,1,1,1h14c0.55,0,1-0.45,1-1V9c0-0.55-0.45-1-1-1H5C4.45,8,4,8.45,4,9z M20,6
		c1.11,0,2,0.89,2,2v11c0,1.11-0.89,2-2,2H4c-1.11,0-2-0.89-2-2L2.01,8c0-1.11,0.88-2,1.99-2h4V4c0-1.11,0.89-2,2-2h4
		c1.11,0,2,0.89,2,2v2H20z"/>
</g>
</svg>
