<?xml version="1.0" encoding="utf-8"?>
<!-- Generator: Adobe Illustrator 19.1.0, SVG Export Plug-In . SVG Version: 6.00 Build 0)  -->
<svg version="1.1" xmlns="http://www.w3.org/2000/svg" xmlns:xlink="http://www.w3.org/1999/xlink" x="0px" y="0px" width="24px"
	 height="24px" viewBox="0 0 24 24" enable-background="new 0 0 24 24" xml:space="preserve">
<g id="Bounding_Boxes">
	<g id="ui_x5F_spec_x5F_header_copy_3">
	</g>
	<path fill="none" d="M0,0h24v24H0V0z"/>
</g>
<g id="Rounded">
	<g id="ui_x5F_spec_x5F_header_copy_5">
	</g>
	<g>
		<path d="M4.11,2.54c-0.39-0.39-1.02-0.39-1.41,0l0,0c-0.39,0.39-0.39,1.02,0,1.41L4.74,6H4C2.89,6,2.01,6.89,2.01,8L2,19
			c0,1.11,0.89,2,2,2h15.74l1.29,1.29c0.39,0.39,1.02,0.39,1.41,0l0,0c0.39-0.39,0.39-1.02,0-1.41L4.11,2.54z"/>
		<path d="M10,4h4v2h-3.6L22,17.6V8c0-1.11-0.89-2-2-2h-4V4c0-1.11-0.89-2-2-2h-4C9.01,2,8.2,2.7,8.04,3.64L10,5.6V4z"/>
	</g>
</g>
</svg>
