<?xml version="1.0" encoding="utf-8"?>
<!-- Generator: Adobe Illustrator 19.1.0, SVG Export Plug-In . SVG Version: 6.00 Build 0)  -->
<svg version="1.1" xmlns="http://www.w3.org/2000/svg" xmlns:xlink="http://www.w3.org/1999/xlink" x="0px" y="0px" width="24px"
	 height="24px" viewBox="0 0 24 24" enable-background="new 0 0 24 24" xml:space="preserve">
<g id="Bounding_Boxes">
	<g id="ui_x5F_spec_x5F_header_copy_3">
	</g>
	<path fill="none" d="M0,0h24v24H0V0z"/>
</g>
<g id="Outline">
	<g id="ui_x5F_spec_x5F_header">
	</g>
	<path d="M22,5.72l-4.6-3.86l-1.29,1.53l4.6,3.86L22,5.72z M7.88,3.39L6.6,1.86L2,5.71l1.29,1.53L7.88,3.39z M12.5,8H11v6l4.75,2.85
		l0.75-1.23l-4-2.37V8z M12,4c-4.97,0-9,4.03-9,9s4.02,9,9,9c4.97,0,9-4.03,9-9S16.97,4,12,4z M12,20c-3.87,0-7-3.13-7-7s3.13-7,7-7
		s7,3.13,7,7S15.87,20,12,20z"/>
</g>
</svg>
