<?xml version="1.0" encoding="utf-8"?>
<!-- Generator: Adobe Illustrator 19.1.0, SVG Export Plug-In . SVG Version: 6.00 Build 0)  -->
<svg version="1.1" xmlns="http://www.w3.org/2000/svg" xmlns:xlink="http://www.w3.org/1999/xlink" x="0px" y="0px" width="24px"
	 height="24px" viewBox="0 0 24 24" enable-background="new 0 0 24 24" xml:space="preserve">
<g id="Bounding_Boxes">
	<g id="ui_x5F_spec_x5F_header_copy_3">
	</g>
	<rect fill="none" width="24" height="24"/>
</g>
<g id="Outline_1_">
	<g id="ui_x5F_spec_x5F_header_copy_4">
	</g>
	<g>
		<path d="M21,6h-3.17L16,4h-6v2h5.12l1.83,2H21v12H5v-9H3v9c0,1.1,0.9,2,2,2h16c1.1,0,2-0.9,2-2V8C23,6.9,22.1,6,21,6z"/>
		<path d="M8,14c0,2.76,2.24,5,5,5s5-2.24,5-5s-2.24-5-5-5S8,11.24,8,14z M13,11c1.65,0,3,1.35,3,3c0,1.65-1.35,3-3,3s-3-1.35-3-3
			C10,12.35,11.35,11,13,11z"/>
		<polygon points="5,6 8,6 8,4 5,4 5,1 3,1 3,4 0,4 0,6 3,6 3,9 5,9 		"/>
	</g>
</g>
</svg>
