<?xml version="1.0" encoding="utf-8"?>
<!-- Generator: Adobe Illustrator 19.1.0, SVG Export Plug-In . SVG Version: 6.00 Build 0)  -->
<svg version="1.1" xmlns="http://www.w3.org/2000/svg" xmlns:xlink="http://www.w3.org/1999/xlink" x="0px" y="0px" width="24px"
	 height="24px" viewBox="0 0 24 24" enable-background="new 0 0 24 24" xml:space="preserve">
<g id="Bounding_Boxes">
	<g id="ui_x5F_spec_x5F_header_copy_3">
	</g>
	<path fill="none" d="M0,0h24v24H0V0z"/>
</g>
<g id="Outline_1_">
	<g id="ui_x5F_spec_x5F_header_copy_4">
	</g>
	<g>
		<path d="M18,20H4V6h9V4H4C2.9,4,2,4.9,2,6v14c0,1.1,0.9,2,2,2h14c1.1,0,2-0.9,2-2v-9h-2V20z"/>
		<polygon points="10.21,16.83 8.25,14.47 5.5,18 16.5,18 12.96,13.29 		"/>
		<path d="M20,4V1h-2v3h-3c0.01,0.01,0,2,0,2h3v2.99c0.01,0.01,2,0,2,0V6h3V4H20z"/>
	</g>
</g>
</svg>
