<?xml version="1.0" encoding="utf-8"?>
<!-- Generator: Adobe Illustrator 19.1.0, SVG Export Plug-In . SVG Version: 6.00 Build 0)  -->
<svg version="1.1" xmlns="http://www.w3.org/2000/svg" xmlns:xlink="http://www.w3.org/1999/xlink" x="0px" y="0px" width="24px"
	 height="24px" viewBox="0 0 24 24" enable-background="new 0 0 24 24" xml:space="preserve">
<g id="Bounding_Boxes">
	<g id="ui_x5F_spec_x5F_header_copy_2">
	</g>
	<path fill="none" d="M0,0h24v24H0V0z"/>
</g>
<g id="Outline">
	<g id="ui_x5F_spec_x5F_header">
	</g>
	<g>
		<path d="M7,14c1.66,0,3-1.34,3-3c0-1.66-1.34-3-3-3c-1.66,0-3,1.34-3,3C4,12.66,5.34,14,7,14z M7,10c0.55,0,1,0.45,1,1
			s-0.45,1-1,1s-1-0.45-1-1S6.45,10,7,10z"/>
		<path d="M19,7h-8v8H3V7H1v10h22v-6C23,8.79,21.21,7,19,7z M21,15h-8V9h6c1.1,0,2,0.9,2,2V15z"/>
	</g>
</g>
</svg>
