<?xml version="1.0" encoding="utf-8"?>
<!-- Generator: Adobe Illustrator 19.1.0, SVG Export Plug-In . SVG Version: 6.00 Build 0)  -->
<svg version="1.1" xmlns="http://www.w3.org/2000/svg" xmlns:xlink="http://www.w3.org/1999/xlink" x="0px" y="0px" width="24px"
	 height="24px" viewBox="0 0 24 24" enable-background="new 0 0 24 24" xml:space="preserve">
<g id="Bounding_Boxes">
	<g id="ui_x5F_spec_x5F_header_copy_2">
	</g>
	<path fill="none" d="M0,0h24v24H0V0z"/>
</g>
<g id="Outline">
	<g id="ui_x5F_spec_x5F_header">
	</g>
	<g>
		<path d="M5,13c0.78,0,1.55-0.3,2.14-0.9C8.3,10.91,8.28,9.02,7.1,7.86C6.51,7.29,5.75,7,5,7C4.22,7,3.45,7.3,2.86,7.9
			C1.7,9.09,1.72,10.98,2.9,12.14C3.49,12.71,4.25,13,5,13z M4.29,9.3C4.48,9.11,4.73,9,5,9c0.26,0,0.51,0.1,0.7,0.28
			c0.4,0.39,0.4,1.01,0.02,1.41C5.52,10.89,5.27,11,5,11c-0.26,0-0.51-0.1-0.7-0.28C3.9,10.32,3.9,9.7,4.29,9.3z"/>
		<path d="M18,7H9v6h13v-2C22,8.79,20.21,7,18,7z M11,11V9h7c1.1,0,2,0.9,2,2H11z"/>
		<polygon points="2,16 8,16 8,18 16,18 16,16 22,16 22,14 2,14 		"/>
	</g>
</g>
</svg>
