<?xml version="1.0" encoding="utf-8"?>
<!-- Generator: Adobe Illustrator 19.1.0, SVG Export Plug-In . SVG Version: 6.00 Build 0)  -->
<svg version="1.1" xmlns="http://www.w3.org/2000/svg" xmlns:xlink="http://www.w3.org/1999/xlink" x="0px" y="0px" width="24px"
	 height="24px" viewBox="0 0 24 24" enable-background="new 0 0 24 24" xml:space="preserve">
<g id="Bounding_Boxes">
	<g id="ui_x5F_spec_x5F_header_copy_2">
	</g>
	<path fill="none" d="M0,0h24v24H0V0z"/>
</g>
<g id="Outline">
	<g id="ui_x5F_spec_x5F_header">
	</g>
	<path d="M4,12V3H2v9c0,2.76,2.24,5,5,5h6v-2H7C5.34,15,4,13.66,4,12z M22.83,17.24c-0.38-0.72-1.29-0.97-2.03-0.63l-1.09,0.5
		l-3.41-6.98C15.96,9.45,15.27,9,14.51,9H11V3H5v8c0,1.66,1.34,3,3,3h7l3.41,7l3.72-1.7C22.9,18.94,23.23,18,22.83,17.24z"/>
</g>
</svg>
