<?xml version="1.0" encoding="utf-8"?>
<!-- Generator: Adobe Illustrator 19.1.0, SVG Export Plug-In . SVG Version: 6.00 Build 0)  -->
<svg version="1.1" xmlns="http://www.w3.org/2000/svg" xmlns:xlink="http://www.w3.org/1999/xlink" x="0px" y="0px" width="24px"
	 height="24px" viewBox="0 0 24 24" enable-background="new 0 0 24 24" xml:space="preserve">
<g id="Bounding_Boxes">
	<g id="ui_x5F_spec_x5F_header_copy_2">
	</g>
	<path fill="none" d="M0,0h24v24H0V0z"/>
</g>
<g id="Outline">
	<g id="ui_x5F_spec_x5F_header">
	</g>
	<path fill-opacity="0.9" d="M12,1.95c-5.52,0-10,4.48-10,10s4.48,10,10,10h5v-2h-5c-4.34,0-8-3.66-8-8s3.66-8,8-8s8,3.66,8,8v1.43
		c0,0.79-0.71,1.57-1.5,1.57S17,14.17,17,13.38v-1.43c0-2.76-2.24-5-5-5s-5,2.24-5,5s2.24,5,5,5c1.38,0,2.64-0.56,3.54-1.47
		c0.65,0.89,1.77,1.47,2.96,1.47c1.97,0,3.5-1.6,3.5-3.57v-1.43C22,6.43,17.52,1.95,12,1.95z M12,14.95c-1.66,0-3-1.34-3-3
		s1.34-3,3-3s3,1.34,3,3S13.66,14.95,12,14.95z"/>
</g>
</svg>
