<?xml version="1.0" encoding="utf-8"?>
<!-- Generator: Adobe Illustrator 19.1.0, SVG Export Plug-In . SVG Version: 6.00 Build 0)  -->
<svg version="1.1" xmlns="http://www.w3.org/2000/svg" xmlns:xlink="http://www.w3.org/1999/xlink" x="0px" y="0px" width="24px"
	 height="24px" viewBox="0 0 24 24" enable-background="new 0 0 24 24" xml:space="preserve">
<g id="Bounding_Boxes">
	<path fill="none" d="M0,0h24v24H0V0z"/>
</g>
<g id="Outline">
	<g id="ui_x5F_spec_x5F_header">
	</g>
	<path d="M8,9v1.5h2.25V15h1.5v-4.5H14V9H8z M6,9H3c-0.55,0-1,0.45-1,1v5h1.5v-1.5h2V15H7v-5C7,9.45,6.55,9,6,9z M5.5,12h-2v-1.5h2
		V12z M21,9h-4.5c-0.55,0-1,0.45-1,1v5H17v-4.5h1V14h1.5v-3.51h1V15H22v-5C22,9.45,21.55,9,21,9z"/>
</g>
</svg>
