<?xml version="1.0" encoding="utf-8"?>
<!-- Generator: Adobe Illustrator 19.1.0, SVG Export Plug-In . SVG Version: 6.00 Build 0)  -->
<svg version="1.1" xmlns="http://www.w3.org/2000/svg" xmlns:xlink="http://www.w3.org/1999/xlink" x="0px" y="0px" width="24px"
	 height="24px" viewBox="0 0 24 24" enable-background="new 0 0 24 24" xml:space="preserve">
<g id="Bounding_Boxes">
	<path fill="none" d="M0,0h24v24H0V0z"/>
</g>
<g id="Outline">
	<g id="ui_x5F_spec_x5F_header">
	</g>
	<path d="M11,17c0,0.55,0.45,1,1,1s1-0.45,1-1s-0.45-1-1-1S11,16.45,11,17z M11,3v4h2V5.08c3.39,0.49,6,3.39,6,6.92
		c0,3.87-3.13,7-7,7s-7-3.13-7-7c0-1.68,0.59-3.22,1.58-4.42L12,13l1.41-1.41l-6.8-6.8v0.02C4.42,6.45,3,9.05,3,12
		c0,4.97,4.02,9,9,9c4.97,0,9-4.03,9-9s-4.03-9-9-9H11z M18,12c0-0.55-0.45-1-1-1s-1,0.45-1,1s0.45,1,1,1S18,12.55,18,12z M6,12
		c0,0.55,0.45,1,1,1s1-0.45,1-1s-0.45-1-1-1S6,11.45,6,12z"/>
</g>
</svg>
