<?xml version="1.0" encoding="utf-8"?>
<!-- Generator: Adobe Illustrator 19.1.0, SVG Export Plug-In . SVG Version: 6.00 Build 0)  -->
<svg version="1.1" xmlns="http://www.w3.org/2000/svg" xmlns:xlink="http://www.w3.org/1999/xlink" x="0px" y="0px" width="24px"
	 height="24px" viewBox="0 0 24 24" enable-background="new 0 0 24 24" xml:space="preserve">
<g id="Header_x2F_BG" display="none">
	<rect x="-94" y="-182" display="inline" fill="#F1F1F2" width="520" height="520"/>
</g>
<g id="Bounding_Boxes">
	<g id="ui_x5F_spec_x5F_header_copy_3">
	</g>
	<path fill="none" d="M0,0h24v24H0V0z"/>
</g>
<g id="Rounded" display="none">
	<g id="ui_x5F_spec_x5F_header_copy_5" display="inline">
	</g>
	<path display="inline" d="M17,3H7C5.9,3,5,3.9,5,5v16l7-3l7,3V5C19,3.9,18.1,3,17,3z M17,18l-5-2.18L7,18V6c0-0.55,0.45-1,1-1h8
		c0.55,0,1,0.45,1,1V18z"/>
</g>
<g id="Sharp" display="none">
	<g id="ui_x5F_spec_x5F_header_copy_4" display="inline">
	</g>
	<path display="inline" d="M19,3H5v18l7-3l7,3V3z M17,18l-5-2.18L7,18V5h10V18z"/>
</g>
<g id="Outline">
	<g id="ui_x5F_spec_x5F_header">
	</g>
	<path d="M17,3H7C5.9,3,5,3.9,5,5v16l7-3l7,3V5C19,3.9,18.1,3,17,3z M17,18l-5-2.18L7,18V5h10V18z"/>
</g>
<g id="Duotone" display="none">
	<g id="ui_x5F_spec_x5F_header_copy_2" display="inline">
	</g>
	<path display="inline" d="M17,3H7C5.9,3,5,3.9,5,5v16l7-3l7,3V5C19,3.9,18.1,3,17,3z M17,18l-5-2.18L7,18V5h10V18z"/>
</g>
<g id="Fill" display="none">
	<g id="ui_x5F_spec_x5F_header_copy" display="inline">
	</g>
	<path display="inline" d="M17,3H7C5.9,3,5,3.9,5,5v16l7-3l7,3V5C19,3.9,18.1,3,17,3z M17,18l-5-2.18L7,18V5h10V18z"/>
</g>
<g id="nyt_x5F_exporter_x5F_info" display="none">
</g>
</svg>
