<?xml version="1.0" encoding="utf-8"?>
<!-- Generator: Adobe Illustrator 19.1.0, SVG Export Plug-In . SVG Version: 6.00 Build 0)  -->
<svg version="1.1" xmlns="http://www.w3.org/2000/svg" xmlns:xlink="http://www.w3.org/1999/xlink" x="0px" y="0px" width="24px"
	 height="24px" viewBox="0 0 24 24" enable-background="new 0 0 24 24" xml:space="preserve">
<g id="Bounding_Boxes">
	<g id="ui_x5F_spec_x5F_header_copy_3">
	</g>
	<path fill="none" d="M0,0h24v24H0V0z"/>
</g>
<g id="Outline">
	<g id="ui_x5F_spec_x5F_header">
	</g>
	<path d="M3,21h2v-2H3V21z M7,21h2v-2H7V21z M5,7H3v2h2V7z M3,17h2v-2H3V17z M9,3H7v2h2V3z M5,3H3v2h2V3z M17,3h-2v2h2V3z M19,9h2V7
		h-2V9z M19,3v2h2V3H19z M15,21h2v-2h-2V21z M13,3h-2v8H3v2h8v8h2v-8h8v-2h-8V3z M19,21h2v-2h-2V21z M19,17h2v-2h-2V17z"/>
</g>
</svg>
