<?xml version="1.0" encoding="utf-8"?>
<!-- Generator: Adobe Illustrator 19.1.0, SVG Export Plug-In . SVG Version: 6.00 Build 0)  -->
<svg version="1.1" xmlns="http://www.w3.org/2000/svg" xmlns:xlink="http://www.w3.org/1999/xlink" x="0px" y="0px" width="24px"
	 height="24px" viewBox="0 0 24 24" enable-background="new 0 0 24 24" xml:space="preserve">
<g id="Bounding_Boxes">
	<g id="ui_x5F_spec_x5F_header_copy_3">
	</g>
	<path fill="none" d="M0,0h24v24H0V0z"/>
</g>
<g id="Outline_1_">
	<g id="ui_x5F_spec_x5F_header_copy_4">
	</g>
	<path d="M10,4c4.41,0,8,3.59,8,8s-3.59,8-8,8c-0.34,0-0.68-0.02-1.01-0.07C10.9,17.77,12,14.95,12,12s-1.1-5.77-3.01-7.93
		C9.32,4.02,9.66,4,10,4 M10,2C8.18,2,6.47,2.5,5,3.35C7.99,5.08,10,8.3,10,12s-2.01,6.92-5,8.65C6.47,21.5,8.18,22,10,22
		c5.52,0,10-4.48,10-10S15.52,2,10,2L10,2z"/>
</g>
</svg>
