<?xml version="1.0" encoding="utf-8"?>
<!-- Generator: Adobe Illustrator 19.1.0, SVG Export Plug-In . SVG Version: 6.00 Build 0)  -->
<svg version="1.1" xmlns="http://www.w3.org/2000/svg" xmlns:xlink="http://www.w3.org/1999/xlink" x="0px" y="0px" width="24px"
	 height="24px" viewBox="0 0 24 24" enable-background="new 0 0 24 24" xml:space="preserve">
<g id="Bounding_Boxes">
	<g id="ui_x5F_spec_x5F_header_copy_3">
	</g>
	<path fill="none" d="M0,0h24v24H0V0z"/>
</g>
<g id="Outline_1_">
	<g id="ui_x5F_spec_x5F_header_copy_4">
	</g>
	<g>
		<path d="M20,8.69V4h-4.69L12,0.69L8.69,4H4v4.69L0.69,12L4,15.31V20h4.69L12,23.31L15.31,20H20v-4.69L23.31,12L20,8.69z M18,14.48
			V18h-3.52L12,20.48L9.52,18H6v-3.52L3.52,12L6,9.52V6h3.52L12,3.52L14.48,6H18v3.52L20.48,12L18,14.48z"/>
		<path d="M12.29,7c-0.74,0-1.45,0.17-2.08,0.46c1.72,0.79,2.92,2.53,2.92,4.54s-1.2,3.75-2.92,4.54c0.63,0.29,1.34,0.46,2.08,0.46
			c2.76,0,5-2.24,5-5C17.29,9.24,15.05,7,12.29,7z"/>
	</g>
</g>
</svg>
