<?xml version="1.0" encoding="utf-8"?>
<!-- Generator: Adobe Illustrator 19.1.0, SVG Export Plug-In . SVG Version: 6.00 Build 0)  -->
<svg version="1.1" xmlns="http://www.w3.org/2000/svg" xmlns:xlink="http://www.w3.org/1999/xlink" x="0px" y="0px" width="24px"
	 height="24px" viewBox="0 0 24 24" enable-background="new 0 0 24 24" xml:space="preserve">
<g id="Bounding_Boxes">
	<g id="ui_x5F_spec_x5F_header_copy_3">
	</g>
	<rect fill="none" width="24" height="24"/>
</g>
<g id="Outline_1_">
	<g id="ui_x5F_spec_x5F_header_copy_4">
	</g>
	<g>
		<rect x="1" y="5" width="2" height="14"/>
		<rect x="5" y="5" width="2" height="14"/>
		<path d="M22,5H10C9.45,5,9,5.45,9,6v12c0,0.55,0.45,1,1,1h12c0.55,0,1-0.45,1-1V6C23,5.45,22.55,5,22,5z M21,17H11V7h10V17z"/>
		<polygon points="17.43,12.62 15.43,15.19 14,13.47 12,15.99 20,15.99 		"/>
	</g>
</g>
</svg>
