<?xml version="1.0" encoding="utf-8"?>
<!-- Generator: Adobe Illustrator 19.1.0, SVG Export Plug-In . SVG Version: 6.00 Build 0)  -->
<svg version="1.1" xmlns="http://www.w3.org/2000/svg" xmlns:xlink="http://www.w3.org/1999/xlink" x="0px" y="0px" width="24px"
	 height="24px" viewBox="0 0 24 24" enable-background="new 0 0 24 24" xml:space="preserve">
<g id="Bounding_Boxes">
	<path fill="none" d="M0,0h24v24H0V0z"/>
</g>
<g id="Outline">
	<g id="ui_x5F_spec_x5F_header" display="none">
	</g>
	<path d="M20,7h-4V5l-2-2h-4L8,5v2H4C2.9,7,2,7.9,2,9v5c0,0.75,0.4,1.38,1,1.73V19c0,1.11,0.89,2,2,2h14c1.11,0,2-0.89,2-2v-3.28
		c0.59-0.35,1-0.99,1-1.72V9C22,7.9,21.1,7,20,7z M10,5h4v2h-4V5z M4,9h16v5h-5v-3H9v3H4V9z M13,15h-2v-2h2V15z M19,19H5v-3h4v1h6
		v-1h4V19z"/>
</g>
</svg>
