<?xml version="1.0" encoding="utf-8"?>
<!-- Generator: Adobe Illustrator 19.1.0, SVG Export Plug-In . SVG Version: 6.00 Build 0)  -->
<svg version="1.1" xmlns="http://www.w3.org/2000/svg" xmlns:xlink="http://www.w3.org/1999/xlink" x="0px" y="0px" width="24px"
	 height="24px" viewBox="0 0 24 24" enable-background="new 0 0 24 24" xml:space="preserve">
<g id="Bounding_Boxes">
	<g id="ui_x5F_spec_x5F_header_copy_2">
	</g>
	<path fill="none" d="M0,0h24v24H0V0z"/>
</g>
<g id="Outline">
	<g id="ui_x5F_spec_x5F_header">
	</g>
	<g>
		<path opacity="0.3" d="M20,10.78V20l-9.22,0L20,10.78 M22,5.97L6,22h16V5.97L22,5.97z"/>
		<path d="M18,9.98L6,22h12V9.98z M3.93,5.93l1.29,1.29c3.19-3.19,8.38-3.19,11.57,0l1.29-1.29C14.17,2.02,7.83,2.02,3.93,5.93z
			 M9.07,11.07L11,13l1.93-1.93C11.86,10.01,10.14,10.01,9.07,11.07z M6.5,8.5l1.29,1.29c1.77-1.77,4.65-1.77,6.43,0L15.5,8.5
			C13.02,6.02,8.98,6.02,6.5,8.5z"/>
	</g>
</g>
</svg>
