<?xml version="1.0" encoding="utf-8"?>
<!-- Generator: Adobe Illustrator 19.1.0, SVG Export Plug-In . SVG Version: 6.00 Build 0)  -->
<svg version="1.1" xmlns="http://www.w3.org/2000/svg" xmlns:xlink="http://www.w3.org/1999/xlink" x="0px" y="0px" width="24px"
	 height="24px" viewBox="0 0 24 24" enable-background="new 0 0 24 24" xml:space="preserve">
<g id="Header_x2F_BG" display="none">
	<rect x="-270" y="-226" display="inline" fill="#F1F1F2" width="520" height="520"/>
</g>
<g id="Bounding_Boxes">
	<g id="ui_x5F_spec_x5F_header_copy_3">
	</g>
	<path fill="none" d="M0,0h24v24H0V0z"/>
</g>
<g id="Rounded" display="none">
	<g id="ui_x5F_spec_x5F_header_copy_5" display="inline">
	</g>
	<g display="inline">
		<path d="M21,4H3C1.9,4,1,4.9,1,6v13c0,1.1,0.9,2,2,2h18c1.1,0,2-0.9,2-2V6C23,4.9,22.1,4,21,4z M21,18c0,0.55-0.45,1-1,1h-8V6h8
			c0.55,0,1,0.45,1,1V18z"/>
		<path d="M19.25,9.5h-5.5C13.34,9.5,13,9.84,13,10.25c0,0.41,0.34,0.75,0.75,0.75h5.5c0.41,0,0.75-0.34,0.75-0.75
			C20,9.84,19.66,9.5,19.25,9.5z"/>
		<path d="M19.25,12h-5.5C13.34,12,13,12.34,13,12.75c0,0.41,0.34,0.75,0.75,0.75h5.5c0.41,0,0.75-0.34,0.75-0.75
			C20,12.34,19.66,12,19.25,12z"/>
		<path d="M19.25,14.5h-5.5c-0.41,0-0.75,0.34-0.75,0.75c0,0.41,0.34,0.75,0.75,0.75h5.5c0.41,0,0.75-0.34,0.75-0.75
			C20,14.84,19.66,14.5,19.25,14.5z"/>
	</g>
</g>
<g id="Sharp" display="none">
	<g id="ui_x5F_spec_x5F_header_copy_4" display="inline">
	</g>
	<path display="inline" d="M13,12h7v1.5h-7V12z M13,9.5h7V11h-7V9.5z M13,14.5h7V16h-7V14.5z M23,4H1v17h22V4z M21,19h-9V6h9V19z"/>
</g>
<g id="Outline">
	<g id="ui_x5F_spec_x5F_header">
	</g>
	<g>
		<path d="M21,4H3C1.9,4,1,4.9,1,6v13c0,1.1,0.9,2,2,2h18c1.1,0,2-0.9,2-2V6C23,4.9,22.1,4,21,4z M3,19V6h8v13H3z M21,19h-8V6h8V19z
			"/>
	</g>
	<rect x="14" y="9.5" width="6" height="1.5"/>
	<rect x="14" y="12" width="6" height="1.5"/>
	<rect x="14" y="14.5" width="6" height="1.5"/>
</g>
<g id="Duotone" display="none">
	<g id="ui_x5F_spec_x5F_header_copy_2" display="inline">
	</g>
	<g display="inline">
		<rect x="3" y="6" opacity="0.3" width="8" height="13"/>
		<path d="M21,4H3C1.9,4,1,4.9,1,6v13c0,1.1,0.9,2,2,2h18c1.1,0,2-0.9,2-2V6C23,4.9,22.1,4,21,4z M11,19H3V6h8V19z M21,19h-8V6h8V19
			z"/>
	</g>
	<rect x="14" y="9.5" display="inline" width="6" height="1.5"/>
	<rect x="14" y="12" display="inline" width="6" height="1.5"/>
	<rect x="14" y="14.5" display="inline" width="6" height="1.5"/>
</g>
<g id="Fill" display="none">
	<g id="ui_x5F_spec_x5F_header_copy" display="inline">
	</g>
	<g display="inline">
		<path d="M21,4H3C1.9,4,1,4.9,1,6v13c0,1.1,0.9,2,2,2h18c1.1,0,2-0.9,2-2V6C23,4.9,22.1,4,21,4z M21,19h-9V6h9V19z"/>
		<rect x="13" y="9.5" width="7" height="1.5"/>
		<rect x="13" y="12" width="7" height="1.5"/>
		<rect x="13" y="14.5" width="7" height="1.5"/>
	</g>
</g>
<g id="nyt_x5F_exporter_x5F_info" display="none">
</g>
</svg>
