<?xml version="1.0" encoding="utf-8"?>
<!-- Generator: Adobe Illustrator 19.1.0, SVG Export Plug-In . SVG Version: 6.00 Build 0)  -->
<svg version="1.1" xmlns="http://www.w3.org/2000/svg" xmlns:xlink="http://www.w3.org/1999/xlink" x="0px" y="0px" width="24px"
	 height="24px" viewBox="0 0 24 24" enable-background="new 0 0 24 24" xml:space="preserve">
<g id="Bounding_Boxes">
	<path fill="none" d="M0,0h24v24H0V0z"/>
</g>
<g id="Outline">
	<g id="ui_x5F_spec_x5F_header">
	</g>
	<g>
		<path d="M19.35,10.04C18.67,6.59,15.64,4,12,4C9.11,4,6.6,5.64,5.35,8.04C2.34,8.36,0,10.91,0,14c0,3.31,2.69,6,6,6h13
			c2.76,0,5-2.24,5-5C24,12.36,21.95,10.22,19.35,10.04z M19,18H6c-2.21,0-4-1.79-4-4c0-2.05,1.53-3.76,3.56-3.97l1.07-0.11
			l0.5-0.95C8.08,7.14,9.94,6,12,6c2.62,0,4.88,1.86,5.39,4.43l0.3,1.5l1.53,0.11C20.78,12.14,22,13.45,22,15
			C22,16.65,20.65,18,19,18z"/>
		<polygon points="8,13 10.55,13 10.55,16 13.45,16 13.45,13 16,13 12,9 		"/>
	</g>
</g>
</svg>
