<?xml version="1.0" encoding="utf-8"?>
<!-- Generator: Adobe Illustrator 19.1.0, SVG Export Plug-In . SVG Version: 6.00 Build 0)  -->
<svg version="1.1" xmlns="http://www.w3.org/2000/svg" xmlns:xlink="http://www.w3.org/1999/xlink" x="0px" y="0px" width="24px"
	 height="24px" viewBox="0 0 24 24" enable-background="new 0 0 24 24" xml:space="preserve">
<g id="Bounding_Boxes">
	<g id="ui_x5F_spec_x5F_header_copy_3">
	</g>
	<path fill="none" d="M0,0h24v24H0V0z"/>
</g>
<g id="Outline_1_">
	<g id="ui_x5F_spec_x5F_header_copy_4">
	</g>
	<path d="M17.66,5.41l0.92,0.92l-2.69,2.69l-0.92-0.92L17.66,5.41 M17.67,3c-0.26,0-0.51,0.1-0.71,0.29l-3.12,3.12L11.91,4.5
		L10.5,5.91l1.42,1.42L3,16.25V21h4.75l8.92-8.92l1.42,1.42l1.41-1.41l-1.92-1.92l3.12-3.12c0.4-0.4,0.4-1.03,0.01-1.42l-2.34-2.34
		C18.17,3.1,17.92,3,17.67,3L17.67,3z M6.92,19L5,17.08l8.06-8.06l1.92,1.92L6.92,19L6.92,19z"/>
</g>
</svg>
