<?xml version="1.0" encoding="utf-8"?>
<!-- Generator: Adobe Illustrator 19.1.0, SVG Export Plug-In . SVG Version: 6.00 Build 0)  -->
<svg version="1.1" xmlns="http://www.w3.org/2000/svg" xmlns:xlink="http://www.w3.org/1999/xlink" x="0px" y="0px" width="24px"
	 height="24px" viewBox="0 0 24 24" enable-background="new 0 0 24 24" xml:space="preserve">
<g id="Bounding_Boxes">
	<g id="ui_x5F_spec_x5F_header_copy_2">
	</g>
	<path fill="none" d="M0,0h24v24H0V0z"/>
</g>
<g id="Outline">
	<g id="ui_x5F_spec_x5F_header">
	</g>
	<g>
		<path d="M21.99,4c0-1.1-0.89-2-1.99-2H4C2.9,2,2,2.9,2,4v12c0,1.1,0.9,2,2,2h14l4,4L21.99,4z M20,4v13.17L18.83,16H4V4L20,4L20,4z
			"/>
		<rect x="6" y="12" width="12" height="2"/>
		<rect x="6" y="9" width="12" height="2"/>
		<rect x="6" y="6" width="12" height="2"/>
	</g>
</g>
</svg>
