<?xml version="1.0" encoding="utf-8"?>
<!-- Generator: Adobe Illustrator 19.1.0, SVG Export Plug-In . SVG Version: 6.00 Build 0)  -->
<svg version="1.1" xmlns="http://www.w3.org/2000/svg" xmlns:xlink="http://www.w3.org/1999/xlink" x="0px" y="0px" width="24px"
	 height="24px" viewBox="0 0 24 24" enable-background="new 0 0 24 24" xml:space="preserve">
<g id="Bounding_Boxes">
	<g id="ui_x5F_spec_x5F_header_copy_2">
	</g>
	<rect fill="none" width="24" height="24"/>
</g>
<g id="Outline">
	<g id="ui_x5F_spec_x5F_header">
	</g>
	<g>
		<path d="M22,10V6c0-1.11-0.9-2-2-2H4C2.9,4,2.01,4.89,2.01,6v4C3.11,10,4,10.9,4,12c0,1.1-0.89,2-2,2v4c0,1.1,0.9,2,2,2h16
			c1.1,0,2-0.9,2-2v-4c-1.1,0-2-0.9-2-2C20,10.9,20.9,10,22,10z M20,8.54c-1.19,0.69-2,1.99-2,3.46s0.81,2.77,2,3.46V18H4v-2.54
			c1.19-0.69,2-1.99,2-3.46c0-1.48-0.8-2.77-1.99-3.46L4,6h16V8.54z"/>
		<rect x="11" y="15" width="2" height="2"/>
		<rect x="11" y="11" width="2" height="2"/>
		<rect x="11" y="7" width="2" height="2"/>
	</g>
</g>
</svg>
