<?xml version="1.0" encoding="utf-8"?>
<!-- Generator: Adobe Illustrator 19.1.0, SVG Export Plug-In . SVG Version: 6.00 Build 0)  -->
<svg version="1.1" xmlns="http://www.w3.org/2000/svg" xmlns:xlink="http://www.w3.org/1999/xlink" x="0px" y="0px" width="24px"
	 height="24px" viewBox="0 0 24 24" enable-background="new 0 0 24 24" xml:space="preserve">
<g id="Bounding_Boxes">
	<g id="ui_x5F_spec_x5F_header_copy_2">
	</g>
	<path fill="none" d="M0,0h24v24H0V0z"/>
</g>
<g id="Outline">
	<g id="ui_x5F_spec_x5F_header">
	</g>
	<g>
		<path d="M20,4H4C2.9,4,2,4.9,2,6v12c0,1.1,0.9,2,2,2h16c1.1,0,2-0.9,2-2V6C22,4.9,21.1,4,20,4z M20,18H4V6h16V18z"/>
		<rect x="4" width="16" height="2"/>
		<rect x="4" y="22" width="16" height="2"/>
		<path d="M12,12c1.38,0,2.5-1.12,2.5-2.5C14.5,8.12,13.38,7,12,7S9.5,8.12,9.5,9.5C9.5,10.88,10.62,12,12,12z M12,8.5
			c0.55,0,1,0.45,1,1s-0.45,1-1,1s-1-0.45-1-1S11.45,8.5,12,8.5z"/>
		<path d="M17,15.99C17,13.9,13.69,13,12,13s-5,0.9-5,2.99L7,17h10L17,15.99z M8.81,15.5c0.61-0.52,2.03-1,3.19-1
			c1.17,0,2.59,0.48,3.2,1H8.81z"/>
	</g>
</g>
</svg>
