<?xml version="1.0" encoding="utf-8"?>
<!-- Generator: Adobe Illustrator 19.1.0, SVG Export Plug-In . SVG Version: 6.00 Build 0)  -->
<svg version="1.1" xmlns="http://www.w3.org/2000/svg" xmlns:xlink="http://www.w3.org/1999/xlink" x="0px" y="0px" width="24px"
	 height="24px" viewBox="0 0 24 24" enable-background="new 0 0 24 24" xml:space="preserve">
<g id="Bounding_Boxes">
	<g id="ui_x5F_spec_x5F_header_copy_3">
	</g>
	<path fill="none" d="M0,0h24v24H0V0z"/>
</g>
<g id="Outline_1_">
	<g id="ui_x5F_spec_x5F_header_copy_4">
	</g>
	<path d="M16,8h-2v3h-3v2h3v3h2v-3h3v-2h-3V8z M2,12c0-2.79,1.64-5.2,4.01-6.32V3.52C2.52,4.76,0,8.09,0,12s2.52,7.24,6.01,8.48
		v-2.16C3.64,17.2,2,14.79,2,12z M15,3c-4.96,0-9,4.04-9,9s4.04,9,9,9s9-4.04,9-9S19.96,3,15,3z M15,19c-3.86,0-7-3.14-7-7
		s3.14-7,7-7s7,3.14,7,7S18.86,19,15,19z"/>
</g>
</svg>
