<?xml version="1.0" encoding="utf-8"?>
<!-- Generator: Adobe Illustrator 19.1.0, SVG Export Plug-In . SVG Version: 6.00 Build 0)  -->
<svg version="1.1" xmlns="http://www.w3.org/2000/svg" xmlns:xlink="http://www.w3.org/1999/xlink" x="0px" y="0px" width="24px"
	 height="24px" viewBox="0 0 24 24" enable-background="new 0 0 24 24" xml:space="preserve">
<g id="Bounding_Boxes">
	<g id="ui_x5F_spec_x5F_header_copy_3" display="none">
	</g>
	<path fill="none" d="M0,0h24v24H0V0z"/>
</g>
<g id="Outline">
	<g id="ui_x5F_spec_x5F_header" display="none">
	</g>
	<g>
		<rect x="15" y="16" width="4" height="2"/>
		<rect x="15" y="8" width="7" height="2"/>
		<rect x="15" y="12" width="6" height="2"/>
		<path d="M3,18c0,1.1,0.9,2,2,2h6c1.1,0,2-0.9,2-2V8H3V18z M5,10h6v8H5V10z"/>
		<polygon points="10,4 6,4 5,5 2,5 2,7 14,7 14,5 11,5 		"/>
	</g>
</g>
</svg>
