<?xml version="1.0" encoding="utf-8"?>
<!-- Generator: Adobe Illustrator 19.1.0, SVG Export Plug-In . SVG Version: 6.00 Build 0)  -->
<svg version="1.1" xmlns="http://www.w3.org/2000/svg" xmlns:xlink="http://www.w3.org/1999/xlink" x="0px" y="0px" width="24px"
	 height="24px" viewBox="0 0 24 24" enable-background="new 0 0 24 24" xml:space="preserve">
<g id="Bounding_Boxes">
	<g id="ui_x5F_spec_x5F_header_copy_3">
	</g>
	<path fill="none" d="M0,0h24v24H0V0z"/>
</g>
<g id="Outline">
	<g id="ui_x5F_spec_x5F_header">
	</g>
	<path d="M17,1H7C5.9,1,5,1.9,5,3v18c0,1.1,0.9,2,2,2h10c1.1,0,2-0.9,2-2V3C19,1.9,18.1,1,17,1z M17,19H7V5h10V19z M12,6.72
		c-1.96,0-3.5,1.52-3.5,3.47h1.75c0-0.93,0.82-1.75,1.75-1.75s1.75,0.82,1.75,1.75c0,1.75-2.63,1.57-2.63,4.45h1.76
		c0-1.96,2.62-2.19,2.62-4.45C15.5,8.23,13.96,6.72,12,6.72z M11,16h2v2h-2V16z"/>
</g>
</svg>
