<?xml version="1.0" encoding="utf-8"?>
<!-- Generator: Adobe Illustrator 19.1.0, SVG Export Plug-In . SVG Version: 6.00 Build 0)  -->
<svg version="1.1" xmlns="http://www.w3.org/2000/svg" xmlns:xlink="http://www.w3.org/1999/xlink" x="0px" y="0px" width="24px"
	 height="24px" viewBox="0 0 24 24" enable-background="new 0 0 24 24" xml:space="preserve">
<g id="Bounding_Boxes">
	<path fill="none" d="M0,0h24v24H0V0z"/>
</g>
<g id="Outline">
	<g id="ui_x5F_spec_x5F_header">
	</g>
	<g>
		<path d="M18.92,6.01C18.72,5.42,18.16,5,17.5,5h-11C5.84,5,5.29,5.42,5.08,6.01L3,12v8c0,0.55,0.45,1,1,1h1c0.55,0,1-0.45,1-1v-1
			h12v1c0,0.55,0.45,1,1,1h1c0.55,0,1-0.45,1-1v-8L18.92,6.01z M6.85,7h10.29l1.08,3.11H5.77L6.85,7z M19,17H5v-5h14V17z"/>
		<circle cx="7.5" cy="14.5" r="1.5"/>
		<circle cx="16.5" cy="14.5" r="1.5"/>
	</g>
</g>
</svg>
