<?xml version="1.0" encoding="utf-8"?>
<!-- Generator: Adobe Illustrator 19.1.0, SVG Export Plug-In . SVG Version: 6.00 Build 0)  -->
<svg version="1.1" xmlns="http://www.w3.org/2000/svg" xmlns:xlink="http://www.w3.org/1999/xlink" x="0px" y="0px" width="24px"
	 height="24px" viewBox="0 0 24 24" enable-background="new 0 0 24 24" xml:space="preserve">
<g id="Bounding_Boxes">
	<path fill="none" d="M0,0h24v24H0V0z"/>
</g>
<g id="Outline">
	<g id="ui_x5F_spec_x5F_header">
	</g>
	<g>
		<path d="M12,2C8,2,4,2.5,4,6v9.5C4,17.43,5.57,19,7.5,19L6,20.5V21h12v-0.5L16.5,19c1.93,0,3.5-1.57,3.5-3.5V6
			C20,2.5,16.42,2,12,2z M17.66,5H6.43C7.04,4.48,8.49,4,12,4C15.71,4,17.12,4.46,17.66,5z M11,7v3H6V7H11z M13,7h5v3h-5V7z
			 M16.5,17h-9C6.67,17,6,16.33,6,15.5V12h12v3.5C18,16.33,17.33,17,16.5,17z"/>
		<circle cx="8.5" cy="14.5" r="1.5"/>
		<circle cx="15.5" cy="14.5" r="1.5"/>
	</g>
</g>
</svg>
