<?xml version="1.0" encoding="utf-8"?>
<!-- Generator: Adobe Illustrator 19.1.0, SVG Export Plug-In . SVG Version: 6.00 Build 0)  -->
<svg version="1.1" xmlns="http://www.w3.org/2000/svg" xmlns:xlink="http://www.w3.org/1999/xlink" x="0px" y="0px" width="24px"
	 height="24px" viewBox="0 0 24 24" enable-background="new 0 0 24 24" xml:space="preserve">
<g id="Bounding_Boxes">
	<path fill="none" d="M0,0h24v24H0V0z"/>
</g>
<g id="Outline">
	<g id="ui_x5F_spec_x5F_header">
	</g>
	<g>
		<path d="M22.43,10.59l-9.01-9.01c-0.75-0.75-2.07-0.76-2.83,0l-9,9c-0.78,0.78-0.78,2.04,0,2.82l9,9c0.39,0.39,0.9,0.58,1.41,0.58
			c0.51,0,1.02-0.19,1.41-0.58l8.99-8.99C23.19,12.65,23.2,11.39,22.43,10.59z M12.01,20.99l-9-9l9-9l9,9L12.01,20.99z"/>
		<path d="M8,11v4h2v-3h4v2.5l3.5-3.5L14,7.5V10H9C8.45,10,8,10.45,8,11z"/>
	</g>
</g>
</svg>
