<?xml version="1.0" encoding="utf-8"?>
<!-- Generator: Adobe Illustrator 19.1.0, SVG Export Plug-In . SVG Version: 6.00 Build 0)  -->
<svg version="1.1" xmlns="http://www.w3.org/2000/svg" xmlns:xlink="http://www.w3.org/1999/xlink" x="0px" y="0px" width="24px"
	 height="24px" viewBox="0 0 24 24" enable-background="new 0 0 24 24" xml:space="preserve">
<g id="Bounding_Boxes">
	<g id="ui_x5F_spec_x5F_header_copy_2">
	</g>
	<path fill="none" d="M0,0h24v24H0V0z"/>
</g>
<g id="Outline">
	<g id="ui_x5F_spec_x5F_header">
	</g>
	<g>
		<rect x="20" y="7" width="2" height="5"/>
		<path d="M10,4c-4.42,0-8,3.58-8,8s3.58,8,8,8s8-3.58,8-8S14.42,4,10,4z M10,18c-3.31,0-6-2.69-6-6s2.69-6,6-6s6,2.69,6,6
			S13.31,18,10,18z"/>
		<rect x="20" y="14" width="2" height="2"/>
		<path d="M10,10c-1.1,0-2,0.9-2,2c0,1.1,0.9,2,2,2s2-0.9,2-2C12,10.9,11.1,10,10,10z"/>
	</g>
</g>
</svg>
