<?xml version="1.0" encoding="utf-8"?>
<!-- Generator: Adobe Illustrator 19.1.0, SVG Export Plug-In . SVG Version: 6.00 Build 0)  -->
<svg version="1.1" xmlns="http://www.w3.org/2000/svg" xmlns:xlink="http://www.w3.org/1999/xlink" x="0px" y="0px" width="24px"
	 height="24px" viewBox="0 0 24 24" enable-background="new 0 0 24 24" xml:space="preserve">
<g id="Bounding_Boxes">
	<g id="ui_x5F_spec_x5F_header_copy_2">
	</g>
	<path fill="none" d="M0,0h24v24H0V0z"/>
</g>
<g id="Outline">
	<g id="ui_x5F_spec_x5F_header">
	</g>
	<g>
		<path d="M1.41,1.69L0,3.1l2,2V21h15.9l3,3l1.41-1.41L1.41,1.69z M6,19H4v-2h2V19z M6,15H4v-2h2V15z M4,11V9h2v2H4z M10,19H8v-2h2
			V19z M8,15v-2h2v2H8z M12,19v-2h1.9l2,2H12z"/>
		<polygon points="8,5 10,5 10,7 9.55,7 12,9.45 12,9 20,9 20,17.45 22,19.45 22,7 12,7 12,3 5.55,3 8,5.45 		"/>
		<rect x="16" y="11" width="2" height="2"/>
	</g>
</g>
</svg>
