<?xml version="1.0" encoding="utf-8"?>
<!-- Generator: Adobe Illustrator 19.1.0, SVG Export Plug-In . SVG Version: 6.00 Build 0)  -->
<svg version="1.1" xmlns="http://www.w3.org/2000/svg" xmlns:xlink="http://www.w3.org/1999/xlink" x="0px" y="0px" width="24px"
	 height="24px" viewBox="0 0 24 24" enable-background="new 0 0 24 24" xml:space="preserve">
<g id="Bounding_Boxes">
	<g id="ui_x5F_spec_x5F_header_copy_3" display="none">
	</g>
	<path fill="none" d="M0,0h24v24H0V0z"/>
</g>
<g id="Outline">
	<g id="ui_x5F_spec_x5F_header" display="none">
	</g>
	<path d="M21.99,8c0-0.72-0.37-1.35-0.94-1.7L12,1L2.95,6.3C2.38,6.65,2,7.28,2,8v10c0,1.1,0.9,2,2,2h16c1.1,0,2-0.9,2-2L21.99,8z
		 M19.99,8L19.99,8l0,0.01L12,13L4,8l8-4.68L19.99,8z M4,18v-7.66l8,5.02l7.99-4.99L20,18H4z"/>
</g>
</svg>
