<?xml version="1.0" encoding="utf-8"?>
<!-- Generator: Adobe Illustrator 19.1.0, SVG Export Plug-In . SVG Version: 6.00 Build 0)  -->
<svg version="1.1" xmlns="http://www.w3.org/2000/svg" xmlns:xlink="http://www.w3.org/1999/xlink" x="0px" y="0px" width="24px"
	 height="24px" viewBox="0 0 24 24" enable-background="new 0 0 24 24" xml:space="preserve">
<g id="Header_x2F_BG" display="none">
	<rect x="-270" y="-314" display="inline" fill="#F1F1F2" width="520" height="520"/>
</g>
<g id="Bounding_Boxes">
	<g id="ui_x5F_spec_x5F_header_copy_3">
	</g>
	<path fill="none" d="M0,0h24v24H0V0z"/>
</g>
<g id="Rounded" display="none">
	<g id="ui_x5F_spec_x5F_header_copy_5" display="inline">
	</g>
	<path display="inline" d="M11,18c0,1.1-0.9,2-2,2s-2-0.9-2-2s0.9-2,2-2S11,16.9,11,18z M9,10c-1.1,0-2,0.9-2,2s0.9,2,2,2s2-0.9,2-2
		S10.1,10,9,10z M9,4C7.9,4,7,4.9,7,6s0.9,2,2,2s2-0.9,2-2S10.1,4,9,4z M15,8c1.1,0,2-0.9,2-2s-0.9-2-2-2s-2,0.9-2,2S13.9,8,15,8z
		 M15,10c-1.1,0-2,0.9-2,2s0.9,2,2,2s2-0.9,2-2S16.1,10,15,10z M15,16c-1.1,0-2,0.9-2,2s0.9,2,2,2s2-0.9,2-2S16.1,16,15,16z"/>
</g>
<g id="Sharp" display="none">
	<g id="ui_x5F_spec_x5F_header_copy_4" display="inline">
	</g>
	<path display="inline" d="M11,18c0,1.1-0.9,2-2,2s-2-0.9-2-2s0.9-2,2-2S11,16.9,11,18z M9,10c-1.1,0-2,0.9-2,2s0.9,2,2,2s2-0.9,2-2
		S10.1,10,9,10z M9,4C7.9,4,7,4.9,7,6s0.9,2,2,2s2-0.9,2-2S10.1,4,9,4z M15,8c1.1,0,2-0.9,2-2s-0.9-2-2-2s-2,0.9-2,2S13.9,8,15,8z
		 M15,10c-1.1,0-2,0.9-2,2s0.9,2,2,2s2-0.9,2-2S16.1,10,15,10z M15,16c-1.1,0-2,0.9-2,2s0.9,2,2,2s2-0.9,2-2S16.1,16,15,16z"/>
</g>
<g id="Outline">
	<g id="ui_x5F_spec_x5F_header">
	</g>
	<path d="M11,18c0,1.1-0.9,2-2,2s-2-0.9-2-2s0.9-2,2-2S11,16.9,11,18z M9,10c-1.1,0-2,0.9-2,2s0.9,2,2,2s2-0.9,2-2S10.1,10,9,10z
		 M9,4C7.9,4,7,4.9,7,6s0.9,2,2,2s2-0.9,2-2S10.1,4,9,4z M15,8c1.1,0,2-0.9,2-2s-0.9-2-2-2s-2,0.9-2,2S13.9,8,15,8z M15,10
		c-1.1,0-2,0.9-2,2s0.9,2,2,2s2-0.9,2-2S16.1,10,15,10z M15,16c-1.1,0-2,0.9-2,2s0.9,2,2,2s2-0.9,2-2S16.1,16,15,16z"/>
</g>
<g id="Duotone" display="none">
	<g id="ui_x5F_spec_x5F_header_copy_2" display="inline">
	</g>
	<path display="inline" d="M11,18c0,1.1-0.9,2-2,2s-2-0.9-2-2s0.9-2,2-2S11,16.9,11,18z M9,10c-1.1,0-2,0.9-2,2s0.9,2,2,2s2-0.9,2-2
		S10.1,10,9,10z M9,4C7.9,4,7,4.9,7,6s0.9,2,2,2s2-0.9,2-2S10.1,4,9,4z M15,8c1.1,0,2-0.9,2-2s-0.9-2-2-2s-2,0.9-2,2S13.9,8,15,8z
		 M15,10c-1.1,0-2,0.9-2,2s0.9,2,2,2s2-0.9,2-2S16.1,10,15,10z M15,16c-1.1,0-2,0.9-2,2s0.9,2,2,2s2-0.9,2-2S16.1,16,15,16z"/>
</g>
<g id="Fill" display="none">
	<g id="ui_x5F_spec_x5F_header_copy" display="inline">
	</g>
	<path display="inline" d="M11,18c0,1.1-0.9,2-2,2s-2-0.9-2-2s0.9-2,2-2S11,16.9,11,18z M9,10c-1.1,0-2,0.9-2,2s0.9,2,2,2s2-0.9,2-2
		S10.1,10,9,10z M9,4C7.9,4,7,4.9,7,6s0.9,2,2,2s2-0.9,2-2S10.1,4,9,4z M15,8c1.1,0,2-0.9,2-2s-0.9-2-2-2s-2,0.9-2,2S13.9,8,15,8z
		 M15,10c-1.1,0-2,0.9-2,2s0.9,2,2,2s2-0.9,2-2S16.1,10,15,10z M15,16c-1.1,0-2,0.9-2,2s0.9,2,2,2s2-0.9,2-2S16.1,16,15,16z"/>
</g>
<g id="nyt_x5F_exporter_x5F_info" display="none">
</g>
</svg>
