<?xml version="1.0" encoding="utf-8"?>
<!-- Generator: Adobe Illustrator 19.1.0, SVG Export Plug-In . SVG Version: 6.00 Build 0)  -->
<svg version="1.1" xmlns="http://www.w3.org/2000/svg" xmlns:xlink="http://www.w3.org/1999/xlink" x="0px" y="0px" width="24px"
	 height="24px" viewBox="0 0 24 24" enable-background="new 0 0 24 24" xml:space="preserve">
<g id="Bounding_Boxes">
	<path fill="none" d="M0,0h24v24H0V0z"/>
</g>
<g id="Outline">
	<g id="ui_x5F_spec_x5F_header">
	</g>
	<g>
		<polygon points="11.87,12.43 10.87,9 9.37,9 11.12,15 12.62,15 14.37,9 12.87,9 		"/>
		<path d="M21,11.5v-1C21,9.65,20.35,9,19.5,9H16v6h1.5v-2h1.15l0.85,2H21l-0.9-2.1C20.6,12.65,21,12.1,21,11.5z M19.5,11.5h-2v-1h2
			V11.5z"/>
		<path d="M6.5,9H3v6h3.5C7.35,15,8,14.35,8,13.5v-3C8,9.65,7.35,9,6.5,9z M6.5,13.5h-2v-3h2V13.5z"/>
	</g>
</g>
</svg>
