<?xml version="1.0" encoding="utf-8"?>
<!-- Generator: Adobe Illustrator 19.1.0, SVG Export Plug-In . SVG Version: 6.00 Build 0)  -->
<svg version="1.1" xmlns="http://www.w3.org/2000/svg" xmlns:xlink="http://www.w3.org/1999/xlink" x="0px" y="0px" width="24px"
	 height="24px" viewBox="0 0 24 24" enable-background="new 0 0 24 24" xml:space="preserve">
<g id="Bounding_Boxes">
	<g id="ui_x5F_spec_x5F_header_copy_3">
	</g>
	<path fill="none" d="M0,0h24v24H0V0z"/>
</g>
<g id="Outline_1_">
	<g id="ui_x5F_spec_x5F_header_copy_4">
	</g>
	<path d="M19.35,10.04C18.67,6.59,15.64,4,12,4C9.11,4,6.61,5.64,5.36,8.04C2.35,8.36,0,10.9,0,14c0,3.31,2.69,6,6,6h13
		c2.76,0,5-2.24,5-5C24,12.36,21.95,10.22,19.35,10.04z M19,18H6c-2.21,0-4-1.79-4-4s1.79-4,4-4s4,1.79,4,4h2
		c0-2.76-1.86-5.08-4.4-5.78C8.61,6.88,10.2,6,12,6c3.03,0,5.5,2.47,5.5,5.5V12H19c1.65,0,3,1.35,3,3S20.65,18,19,18z"/>
</g>
</svg>
