<?xml version="1.0" encoding="utf-8"?>
<!-- Generator: Adobe Illustrator 19.1.0, SVG Export Plug-In . SVG Version: 6.00 Build 0)  -->
<svg version="1.1" xmlns="http://www.w3.org/2000/svg" xmlns:xlink="http://www.w3.org/1999/xlink" x="0px" y="0px" width="24px"
	 height="24px" viewBox="0 0 24 24" enable-background="new 0 0 24 24" xml:space="preserve">
<g id="Bounding_Boxes">
	<g id="ui_x5F_spec_x5F_header_copy_3">
	</g>
	<path fill="none" d="M0,0h24v24H0V0z"/>
</g>
<g id="Outline_1_">
	<g id="ui_x5F_spec_x5F_header_copy_4">
	</g>
	<path d="M3,5H1v16c0,1.1,0.9,2,2,2h16v-2H3V5z M14,15h2V5h-4v2h2V15z M21,1H7C5.9,1,5,1.9,5,3v14c0,1.1,0.9,2,2,2h14
		c1.1,0,2-0.9,2-2V3C23,1.9,22.1,1,21,1z M21,17H7V3h14V17z"/>
</g>
</svg>
