<?xml version="1.0" encoding="utf-8"?>
<!-- Generator: Adobe Illustrator 19.1.0, SVG Export Plug-In . SVG Version: 6.00 Build 0)  -->
<svg version="1.1" xmlns="http://www.w3.org/2000/svg" xmlns:xlink="http://www.w3.org/1999/xlink" x="0px" y="0px" width="24px"
	 height="24px" viewBox="0 0 24 24" enable-background="new 0 0 24 24" xml:space="preserve">
<g id="Bounding_Boxes">
	<path fill="none" d="M0,0h24v24H0V0z"/>
</g>
<g id="Outline">
	<g id="ui_x5F_spec_x5F_header">
	</g>
	<g>
		<path d="M20,6h-8l-2-2H4C2.9,4,2.01,4.9,2.01,6L2,18c0,1.1,0.9,2,2,2h16c1.1,0,2-0.9,2-2V8C22,6.9,21.1,6,20,6z M20,18L4,18V6
			h5.17l2,2H20V18z"/>
		<path d="M15,13c1.1,0,2-0.9,2-2c0-1.1-0.9-2-2-2s-2,0.9-2,2C13,12.1,13.9,13,15,13z"/>
		<path d="M11,17h8v-1c0-1.33-2.67-2-4-2s-4,0.67-4,2V17z"/>
	</g>
</g>
</svg>
