<?xml version="1.0" encoding="utf-8"?>
<!-- Generator: Adobe Illustrator 19.1.0, SVG Export Plug-In . SVG Version: 6.00 Build 0)  -->
<svg version="1.1" xmlns="http://www.w3.org/2000/svg" xmlns:xlink="http://www.w3.org/1999/xlink" x="0px" y="0px" width="24px"
	 height="24px" viewBox="0 0 24 24" enable-background="new 0 0 24 24" xml:space="preserve">
<g id="Bounding_Boxes">
	<g id="ui_x5F_spec_x5F_header_copy_3">
	</g>
	<path fill="none" d="M0,0h24v24H0V0z"/>
</g>
<g id="Outline">
	<g id="ui_x5F_spec_x5F_header">
	</g>
	<path d="M18,17h2v0.5h-1v1h1V19h-2v1h3v-4h-3V17z M19,8h1V4h-2v1h1V8z M18,11h1.8L18,13.1V14h3v-1h-1.8l1.8-2.1V10h-3V11z M2,5h14
		v2H2V5z M2,17h14v2H2V17z M2,11h14v2H2V11z"/>
</g>
</svg>
