<?xml version="1.0" encoding="utf-8"?>
<!-- Generator: Adobe Illustrator 19.1.0, SVG Export Plug-In . SVG Version: 6.00 Build 0)  -->
<svg version="1.1" xmlns="http://www.w3.org/2000/svg" xmlns:xlink="http://www.w3.org/1999/xlink" x="0px" y="0px" width="24px"
	 height="24px" viewBox="0 0 24 24" enable-background="new 0 0 24 24" xml:space="preserve">
<g id="Bounding_Boxes">
	<path fill="none" d="M0,0h24v24H0V0z"/>
</g>
<g id="Outline">
	<g id="ui_x5F_spec_x5F_header" display="none">
	</g>
	<g>
		<rect x="4" y="19" width="16" height="2"/>
		<path d="M20,3H4v10c0,2.21,1.79,4,4,4h6c2.21,0,4-1.79,4-4v-3h2c1.11,0,2-0.9,2-2V5C22,3.89,21.11,3,20,3z M16,13c0,1.1-0.9,2-2,2
			H8c-1.1,0-2-0.9-2-2V5h10V13z M20,8h-2V5h2V8z"/>
	</g>
</g>
</svg>
