<?xml version="1.0" encoding="utf-8"?>
<!-- Generator: Adobe Illustrator 19.1.0, SVG Export Plug-In . SVG Version: 6.00 Build 0)  -->
<svg version="1.1" xmlns="http://www.w3.org/2000/svg" xmlns:xlink="http://www.w3.org/1999/xlink" x="0px" y="0px" width="24px"
	 height="24px" viewBox="0 0 24 24" enable-background="new 0 0 24 24" xml:space="preserve">
<g id="Bounding_Boxes">
	<path fill="none" d="M0,0h24v24H0V0z"/>
</g>
<g id="Outline">
	<g id="ui_x5F_spec_x5F_header">
	</g>
	<path d="M13,4v2.67l-1,1l-1-1V4H13 M20,11v2h-2.67l-1-1l1-1H20 M6.67,11l1,1l-1,1H4v-2H6.67 M12,16.33l1,1V20h-2v-2.67L12,16.33
		 M15,2H9v5.5l3,3l3-3V2L15,2z M22,9h-5.5l-3,3l3,3H22V9L22,9z M7.5,9H2v6h5.5l3-3L7.5,9L7.5,9z M12,13.5l-3,3V22h6v-5.5L12,13.5
		L12,13.5z"/>
</g>
</svg>
