<?xml version="1.0" encoding="utf-8"?>
<!-- Generator: Adobe Illustrator 19.1.0, SVG Export Plug-In . SVG Version: 6.00 Build 0)  -->
<svg version="1.1" xmlns="http://www.w3.org/2000/svg" xmlns:xlink="http://www.w3.org/1999/xlink" x="0px" y="0px" width="24px"
	 height="24px" viewBox="0 0 24 24" enable-background="new 0 0 24 24" xml:space="preserve">
<g id="Bounding_Boxes">
	<g id="ui_x5F_spec_x5F_header_copy_3">
	</g>
	<path fill="none" d="M0,0h24v24H0V0z"/>
</g>
<g id="Outline_1_">
	<g id="ui_x5F_spec_x5F_header_copy_4">
	</g>
	<g>
		<path d="M8,4v0.89l2,2V4h4v4h-2.89l2,2H14v0.89l2,2V10h4v4h-2.89l2,2H20v0.89l2,2V4c0-1.1-0.9-2-2-2H5.11l2,2H8z M16,4h4v4h-4V4z"
			/>
		<path d="M1.41,1.14L0,2.55l2,2V20c0,1.1,0.9,2,2,2h15.45l2.01,2.01l1.41-1.41L1.41,1.14z M10,12.55L11.45,14H10V12.55z M4,6.55
			L5.45,8H4V6.55z M8,20H4v-4h4V20z M8,14H4v-4h3.45L8,10.55V14z M14,20h-4v-4h3.45L14,16.55V20z M16,20v-1.45L17.45,20H16z"/>
	</g>
</g>
</svg>
