<?xml version="1.0" encoding="utf-8"?>
<!-- Generator: Adobe Illustrator 19.1.0, SVG Export Plug-In . SVG Version: 6.00 Build 0)  -->
<svg version="1.1" xmlns="http://www.w3.org/2000/svg" xmlns:xlink="http://www.w3.org/1999/xlink" x="0px" y="0px" width="24px"
	 height="24px" viewBox="0 0 24 24" enable-background="new 0 0 24 24" xml:space="preserve">
<g id="Bounding_Boxes">
	<path fill="none" d="M0,0h24v24H0V0z"/>
</g>
<g id="Outline">
	<g id="ui_x5F_spec_x5F_header">
	</g>
	<g>
		<path d="M19,3H5C3.89,3,3,3.9,3,5v14c0,1.1,0.89,2,2,2h14c1.1,0,2-0.9,2-2V5C21,3.9,20.1,3,19,3z M19,19H5V5h14V19z"/>
		<polygon points="7.5,13 9.5,13 9.5,15 11,15 11,9 9.5,9 9.5,11.5 7.5,11.5 7.5,9 6,9 6,15 7.5,15 		"/>
		<path d="M18,14v-4c0-0.55-0.45-1-1-1h-4v6h4C17.55,15,18,14.55,18,14z M16.5,13.5h-2v-3h2V13.5z"/>
	</g>
</g>
</svg>
