<?xml version="1.0" encoding="utf-8"?>
<!-- Generator: Adobe Illustrator 19.1.0, SVG Export Plug-In . SVG Version: 6.00 Build 0)  -->
<svg version="1.1" xmlns="http://www.w3.org/2000/svg" xmlns:xlink="http://www.w3.org/1999/xlink" x="0px" y="0px" width="24px"
	 height="24px" viewBox="0 0 24 24" enable-background="new 0 0 24 24" xml:space="preserve">
<g id="Bounding_Boxes">
	<g id="ui_x5F_spec_x5F_header_copy_3">
	</g>
	<path fill="none" d="M0,0h24v24H0V0z"/>
</g>
<g id="Outline">
	<g id="ui_x5F_spec_x5F_header">
	</g>
	<path d="M19,14v4h-2v-4H19 M7,14v4H6c-0.55,0-1-0.45-1-1v-3H7 M12,1c-4.97,0-9,4.03-9,9v7c0,1.66,1.34,3,3,3h3v-8H5v-2
		c0-3.87,3.13-7,7-7s7,3.13,7,7v2h-4v8h4v1h-7v2h6c1.66,0,3-1.34,3-3V10C21,5.03,16.97,1,12,1L12,1z"/>
</g>
</svg>
