<?xml version="1.0" encoding="utf-8"?>
<!-- Generator: Adobe Illustrator 19.1.0, SVG Export Plug-In . SVG Version: 6.00 Build 0)  -->
<svg version="1.1" xmlns="http://www.w3.org/2000/svg" xmlns:xlink="http://www.w3.org/1999/xlink" x="0px" y="0px" width="24px"
	 height="24px" viewBox="0 0 24 24" enable-background="new 0 0 24 24" xml:space="preserve">
<g id="Bounding_Boxes">
	<path fill="none" d="M0,0h24v24H0V0z"/>
</g>
<g id="Outline">
	<g id="ui_x5F_spec_x5F_header">
	</g>
	<g>
		<path d="M19,4H5C3.89,4,3,4.9,3,6v12c0,1.1,0.89,2,2,2h14c1.1,0,2-0.9,2-2V6C21,4.9,20.1,4,19,4z M19,18H5V6h14V18z"/>
		<polygon points="7.5,13 9.5,13 9.5,15 11,15 11,9 9.5,9 9.5,11.5 7.5,11.5 7.5,9 6,9 6,15 7.5,15 		"/>
		<path d="M14,15h0.75v1.5h1.5V15H17c0.55,0,1-0.45,1-1v-4c0-0.55-0.45-1-1-1h-3c-0.55,0-1,0.45-1,1v4C13,14.55,13.45,15,14,15z
			 M14.5,10.5h2v3h-2V10.5z"/>
	</g>
</g>
</svg>
