<?xml version="1.0" encoding="utf-8"?>
<!-- Generator: Adobe Illustrator 19.1.0, SVG Export Plug-In . SVG Version: 6.00 Build 0)  -->
<svg version="1.1" xmlns="http://www.w3.org/2000/svg" xmlns:xlink="http://www.w3.org/1999/xlink" x="0px" y="0px" width="24px"
	 height="24px" viewBox="0 0 24 24" enable-background="new 0 0 24 24" xml:space="preserve">
<g id="Bounding_Boxes">
	<g id="ui_x5F_spec_x5F_header_copy_3">
	</g>
	<path fill="none" d="M0,0h24v24H0V0z"/>
</g>
<g id="Outline">
	<g id="ui_x5F_spec_x5F_header">
	</g>
	<g>
		<path id="XMLID_641_" d="M20,4v13.17L18.83,16H4V4H20 M20,2H4C2.9,2,2,2.9,2,4v12c0,1.1,0.9,2,2,2h14l4,4V4C22,2.9,21.1,2,20,2
			L20,2z"/>
		<polygon id="XMLID_644_" points="18,12 6,12 6,14 18,14 18,12 		"/>
		<polygon id="XMLID_643_" points="18,9 6,9 6,11 18,11 18,9 		"/>
		<polygon id="XMLID_642_" points="18,6 6,6 6,8 18,8 18,6 		"/>
	</g>
</g>
</svg>
