<?xml version="1.0" encoding="utf-8"?>
<!-- Generator: Adobe Illustrator 19.1.0, SVG Export Plug-In . SVG Version: 6.00 Build 0)  -->
<svg version="1.1" xmlns="http://www.w3.org/2000/svg" xmlns:xlink="http://www.w3.org/1999/xlink" x="0px" y="0px" width="24px"
	 height="24px" viewBox="0 0 24 24" enable-background="new 0 0 24 24" xml:space="preserve">
<g id="Bounding_Boxes">
	<g id="ui_x5F_spec_x5F_header_copy_3">
	</g>
	<path fill="none" d="M0,0h24v24H0V0z"/>
</g>
<g id="Outline">
	<g id="ui_x5F_spec_x5F_header">
	</g>
	<path d="M12,15c1.66,0,2.99-1.34,2.99-3L15,6c0-1.66-1.34-3-3-3S9,4.34,9,6v6C9,13.66,10.34,15,12,15z M10.8,5.9
		c0-0.66,0.54-1.2,1.2-1.2s1.2,0.54,1.2,1.2l-0.01,6.2c0,0.66-0.53,1.2-1.19,1.2s-1.2-0.54-1.2-1.2V5.9z M17.3,12
		c0,3-2.54,5.1-5.3,5.1S6.7,15,6.7,12H5c0,3.41,2.72,6.23,6,6.72V22h2v-3.28c3.28-0.48,6-3.3,6-6.72H17.3z"/>
</g>
</svg>
