<?xml version="1.0" encoding="utf-8"?>
<!-- Generator: Adobe Illustrator 19.1.0, SVG Export Plug-In . SVG Version: 6.00 Build 0)  -->
<svg version="1.1" xmlns="http://www.w3.org/2000/svg" xmlns:xlink="http://www.w3.org/1999/xlink" x="0px" y="0px" width="24px"
	 height="24px" viewBox="0 0 24 24" enable-background="new 0 0 24 24" xml:space="preserve">
<g id="Bounding_Boxes">
	<g id="ui_x5F_spec_x5F_header_copy_3" display="none">
	</g>
	<path fill="none" d="M0,0h24v24H0V0z"/>
</g>
<g id="Rounded" display="none">
	<g id="ui_x5F_spec_x5F_header_copy_5">
	</g>
	<path display="inline" d="M5.94,18.99h9.06c0.65,0,1.26-0.31,1.63-0.84l3.95-5.57c0.25-0.35,0.25-0.81,0-1.16l-3.96-5.58
		C16.26,5.31,15.65,5,15,5H5.94C5.13,5,4.66,5.93,5.13,6.59L9,12l-3.87,5.41C4.66,18.07,5.13,18.99,5.94,18.99z"/>
</g>
<g id="Sharp" display="none">
	<g id="ui_x5F_spec_x5F_header_copy_4">
	</g>
	<path display="inline" d="M4,18.99h12.04L21,12l-4.97-7H4l5,7L4,18.99z"/>
</g>
<g id="Outline">
	<g id="ui_x5F_spec_x5F_header" display="none">
	</g>
	<path d="M4,18.99h11c0.67,0,1.27-0.32,1.63-0.83L21,12l-4.37-6.16C16.27,5.33,15.67,5,15,5H4l5,7L4,18.99z"/>
</g>
<g id="Duotone" display="none">
	<g id="ui_x5F_spec_x5F_header_copy_2">
	</g>
	<g display="inline">
		<polygon opacity="0.3" points="15,7 7.89,7 11.46,12 7.89,17 15,17 18.55,12 		"/>
		<path d="M16.63,5.84C16.27,5.33,15.67,5,15,5H4l5,7l-5,6.99h11c0.67,0,1.27-0.32,1.63-0.83L21,12L16.63,5.84z M15,17H7.89l3.57-5
			L7.89,7H15l3.55,5L15,17z"/>
	</g>
</g>
<g id="Material" display="none">
	<g id="ui_x5F_spec_x5F_header_copy">
	</g>
	<path display="inline" d="M4,18.99h11c0.67,0,1.27-0.32,1.63-0.83L21,12l-4.37-6.16C16.27,5.33,15.67,5,15,5H4l5,7L4,18.99z"/>
</g>
</svg>
