<?xml version="1.0" encoding="utf-8"?>
<!-- Generator: Adobe Illustrator 19.1.0, SVG Export Plug-In . SVG Version: 6.00 Build 0)  -->
<svg version="1.1" xmlns="http://www.w3.org/2000/svg" xmlns:xlink="http://www.w3.org/1999/xlink" x="0px" y="0px" width="24px"
	 height="24px" viewBox="0 0 24 24" enable-background="new 0 0 24 24" xml:space="preserve">
<g id="Bounding_Boxes">
	<path fill="none" d="M0,0h24v24H0V0z"/>
</g>
<g id="Outline">
	<g id="ui_x5F_spec_x5F_header">
	</g>
	<g>
		<path d="M20,2H8C6.9,2,6,2.9,6,4v12c0,1.1,0.9,2,2,2h12c1.1,0,2-0.9,2-2V4C22,2.9,21.1,2,20,2z M20,16H8V4h12V16z"/>
		<path d="M12.5,15c1.38,0,2.5-1.12,2.5-2.5V7h3V5h-4v5.51C13.58,10.19,13.07,10,12.5,10c-1.38,0-2.5,1.12-2.5,2.5S11.12,15,12.5,15
			z"/>
		<path d="M4,6H2v14c0,1.1,0.9,2,2,2h14v-2H4V6z"/>
	</g>
</g>
</svg>
