<?xml version="1.0" encoding="utf-8"?>
<!-- Generator: Adobe Illustrator 19.1.0, SVG Export Plug-In . SVG Version: 6.00 Build 0)  -->
<svg version="1.1" xmlns="http://www.w3.org/2000/svg" xmlns:xlink="http://www.w3.org/1999/xlink" x="0px" y="0px" width="24px"
	 height="24px" viewBox="0 0 24 24" enable-background="new 0 0 24 24" xml:space="preserve">
<g id="Bounding_Boxes">
	<g id="ui_x5F_spec_x5F_header_copy_2">
	</g>
	<path fill="none" d="M0,0h24v24H0V0z"/>
</g>
<g id="Outline">
	<g id="ui_x5F_spec_x5F_header">
	</g>
	<g>
		<polygon points="9,10 9,18 16,14 		"/>
		<path d="M21,6h-7.58l3.29-3.29L16,2l-4,4h-0.03l-4-4L7.28,2.71L10.56,6H3C1.9,6,1,6.9,1,8v12c0,1.1,0.9,2,2,2h18c1.1,0,2-0.9,2-2
			V8C23,6.9,22.1,6,21,6z M21,20H3V8h18V20z"/>
	</g>
</g>
</svg>
