<?xml version="1.0" encoding="utf-8"?>
<!-- Generator: Adobe Illustrator 19.1.0, SVG Export Plug-In . SVG Version: 6.00 Build 0)  -->
<svg version="1.1" xmlns="http://www.w3.org/2000/svg" xmlns:xlink="http://www.w3.org/1999/xlink" x="0px" y="0px" width="24px"
	 height="24px" viewBox="0 0 24 24" enable-background="new 0 0 24 24" xml:space="preserve">
<g id="Bounding_Boxes">
	<g id="ui_x5F_spec_x5F_header_copy_2">
	</g>
	<path fill="none" d="M0,0h24v24H0V0z"/>
</g>
<g id="Outline">
	<g id="ui_x5F_spec_x5F_header">
	</g>
	<g>
		<path d="M19,2H5C3.89,2,3,2.9,3,4v14c0,1.1,0.89,2,2,2h4l3,3l3-3h4c1.1,0,2-0.9,2-2V4C21,2.9,20.1,2,19,2z M19,18h-4h-0.83
			l-0.59,0.59L12,20.17l-1.59-1.59L9.83,18H9H5V4h14V18z"/>
		<rect x="11" y="15" width="2" height="2"/>
		<path d="M12,7c1.1,0,2,0.9,2,2c0,2-3,1.75-3,5h2c0-2.25,3-2.5,3-5c0-2.21-1.79-4-4-4S8,6.79,8,9h2C10,7.9,10.9,7,12,7z"/>
	</g>
</g>
</svg>
