<?xml version="1.0" encoding="utf-8"?>
<!-- Generator: Adobe Illustrator 19.1.0, SVG Export Plug-In . SVG Version: 6.00 Build 0)  -->
<svg version="1.1" xmlns="http://www.w3.org/2000/svg" xmlns:xlink="http://www.w3.org/1999/xlink" x="0px" y="0px" width="24px"
	 height="24px" viewBox="0 0 24 24" enable-background="new 0 0 24 24" xml:space="preserve">
<g id="Bounding_Boxes">
	<path fill="none" d="M0,0h24v24H0V0z"/>
</g>
<g id="Outline">
	<g id="ui_x5F_spec_x5F_header">
	</g>
	<g>
		<path d="M19,7V4H5v3H2v13h8v-4h4v4h8V7H19z M20,18h-4v-2v-2h-2h-4H8v2v2H4V9h1h2V7V6h10v1v2h2h1V18z"/>
		<polygon points="8,8 10,8 10,9 8,9 8,12 11,12 11,11 9,11 9,10 11,10 11,7 8,7 		"/>
		<polygon points="15,9 14,9 14,7 13,7 13,10 15,10 15,12 16,12 16,7 15,7 		"/>
	</g>
</g>
</svg>
