<?xml version="1.0" encoding="utf-8"?>
<!-- Generator: Adobe Illustrator 19.1.0, SVG Export Plug-In . SVG Version: 6.00 Build 0)  -->
<svg version="1.1" xmlns="http://www.w3.org/2000/svg" xmlns:xlink="http://www.w3.org/1999/xlink" x="0px" y="0px" width="24px"
	 height="24px" viewBox="0 0 24 24" enable-background="new 0 0 24 24" xml:space="preserve">
<g id="Bounding_Boxes">
	<path fill="none" d="M0,0h24v24H0V0z"/>
</g>
<g id="Outline">
	<g id="ui_x5F_spec_x5F_header">
	</g>
	<g>
		<path d="M19,8h-1V3H6v5H5c-1.66,0-3,1.34-3,3v6h4v4h12v-4h4v-6C22,9.34,20.66,8,19,8z M8,5h8v3H8V5z M16,19H8v-4h8V19z M18,15v-2
			H6v2H4v-4c0-0.55,0.45-1,1-1h14c0.55,0,1,0.45,1,1v4H18z"/>
		<circle cx="18" cy="11.5" r="1"/>
	</g>
</g>
</svg>
