<?xml version="1.0" encoding="utf-8"?>
<!-- Generator: Adobe Illustrator 19.1.0, SVG Export Plug-In . SVG Version: 6.00 Build 0)  -->
<svg version="1.1" xmlns="http://www.w3.org/2000/svg" xmlns:xlink="http://www.w3.org/1999/xlink" x="0px" y="0px" width="24px"
	 height="24px" viewBox="0 0 24 24" enable-background="new 0 0 24 24" xml:space="preserve">
<g id="Bounding_Boxes">
	<path fill="none" d="M0,0h24v24H0V0z"/>
</g>
<g id="Outline">
	<g id="ui_x5F_spec_x5F_header">
	</g>
	<path d="M14,5v14h-4V5H14 M20,3h-2v2h-2V3H8v2H6V3H4v18h2v-2h2v2h8v-2h2v2h2V3L20,3z M16,9V7h2v2H16L16,9z M6,9V7h2v2H6L6,9z
		 M16,13v-2h2v2H16L16,13z M6,13v-2h2v2H6L6,13z M16,17v-2h2v2H16L16,17z M6,17v-2h2v2H6L6,17z"/>
</g>
</svg>
