<?xml version="1.0" encoding="utf-8"?>
<!-- Generator: Adobe Illustrator 19.1.0, SVG Export Plug-In . SVG Version: 6.00 Build 0)  -->
<svg version="1.1" xmlns="http://www.w3.org/2000/svg" xmlns:xlink="http://www.w3.org/1999/xlink" x="0px" y="0px" width="24px"
	 height="24px" viewBox="0 0 24 24" enable-background="new 0 0 24 24" xml:space="preserve">
<g id="Bounding_Boxes">
	<path fill="none" d="M0,0h24v24H0V0z"/>
</g>
<g id="Outline">
	<g id="ui_x5F_spec_x5F_header">
	</g>
	<g>
		<path d="M20,4h-3.17L15,2H9L7.17,4H4C2.9,4,2,4.9,2,6v12c0,1.1,0.9,2,2,2h16c1.1,0,2-0.9,2-2V6C22,4.9,21.1,4,20,4z M20,18H4V6
			h3.17h0.88l0.59-0.65L9.88,4h4.24l1.24,1.35L15.95,6h0.88H20V18z"/>
		<path d="M12,7c-2.76,0-5,2.24-5,5s2.24,5,5,5s5-2.24,5-5S14.76,7,12,7z M12,15.2c-1.77,0-3.2-1.43-3.2-3.2
			c0-1.77,1.43-3.2,3.2-3.2s3.2,1.43,3.2,3.2C15.2,13.77,13.77,15.2,12,15.2z"/>
	</g>
</g>
</svg>
