<?xml version="1.0" encoding="utf-8"?>
<!-- Generator: Adobe Illustrator 19.1.0, SVG Export Plug-In . SVG Version: 6.00 Build 0)  -->
<svg version="1.1" xmlns="http://www.w3.org/2000/svg" xmlns:xlink="http://www.w3.org/1999/xlink" x="0px" y="0px" width="24px"
	 height="24px" viewBox="0 0 24 24" enable-background="new 0 0 24 24" xml:space="preserve">
<g id="Bounding_Boxes">
	<path fill="none" d="M0,0h24v24H0V0z"/>
</g>
<g id="Outline">
	<g id="ui_x5F_spec_x5F_header">
	</g>
	<g>
		<path d="M21,5h-2.64l1.14-3.14L17.15,1l-1.46,4H3v2l2,6l-2,6v2h18v-2l-2-6l2-6V5z M17.1,13.63L18.89,19H5.11l1.79-5.37L7.11,13
			L6.9,12.37L5.11,7h13.78l-1.79,5.37L16.89,13L17.1,13.63z"/>
		<polygon points="13,9 11,9 11,12 8,12 8,14 11,14 11,17 13,17 13,14 16,14 16,12 13,12 		"/>
	</g>
</g>
</svg>
