<?xml version="1.0" encoding="utf-8"?>
<!-- Generator: Adobe Illustrator 19.1.0, SVG Export Plug-In . SVG Version: 6.00 Build 0)  -->
<svg version="1.1" xmlns="http://www.w3.org/2000/svg" xmlns:xlink="http://www.w3.org/1999/xlink" x="0px" y="0px" width="24px"
	 height="24px" viewBox="0 0 24 24" enable-background="new 0 0 24 24" xml:space="preserve">
<g id="Bounding_Boxes">
	<path fill="none" d="M0,0h24v24H0V0z"/>
</g>
<g id="Outline">
	<g id="ui_x5F_spec_x5F_header">
	</g>
	<g>
		<path d="M18,2.01L6,2C4.89,2,4,2.89,4,4v16c0,1.11,0.89,2,2,2h12c1.11,0,2-0.89,2-2V4C20,2.89,19.11,2.01,18,2.01z M18,20H6
			L5.99,4c0,0,0,0,0.01,0h12V20z"/>
		<circle cx="8" cy="6" r="1"/>
		<circle cx="11" cy="6" r="1"/>
		<path d="M12,19c2.76,0,5-2.24,5-5c0-2.76-2.24-5-5-5c-2.76,0-5,2.24-5,5C7,16.76,9.24,19,12,19z M14.36,11.64
			c1.3,1.3,1.3,3.42,0,4.72c-1.3,1.3-3.42,1.3-4.72,0L14.36,11.64z"/>
	</g>
</g>
</svg>
