<?xml version="1.0" encoding="utf-8"?>
<!-- Generator: Adobe Illustrator 19.1.0, SVG Export Plug-In . SVG Version: 6.00 Build 0)  -->
<svg version="1.1" xmlns="http://www.w3.org/2000/svg" xmlns:xlink="http://www.w3.org/1999/xlink" x="0px" y="0px" width="24px"
	 height="24px" viewBox="0 0 24 24" enable-background="new 0 0 24 24" xml:space="preserve">
<g id="Bounding_Boxes">
	<g id="ui_x5F_spec_x5F_header_copy_3">
	</g>
	<path fill="none" d="M0,0h24v24H0V0z"/>
</g>
<g id="Outline">
	<g id="ui_x5F_spec_x5F_header">
	</g>
	<g>
		<path d="M23,13v-2h-2.06C20.48,6.83,17.17,3.52,13,3.06V1h-2v2.06c-0.98,0.11-1.91,0.38-2.77,0.78l1.53,1.53
			C10.46,5.13,11.22,5,12,5c3.87,0,7,3.13,7,7c0,0.79-0.13,1.54-0.37,2.24l1.53,1.53c0.4-0.86,0.67-1.79,0.78-2.77H23z"/>
		<path d="M4.41,2.86L3,4.27l2.04,2.04C3.97,7.62,3.26,9.23,3.06,11H1v2h2.06c0.46,4.17,3.77,7.48,7.94,7.94V23h2v-2.06
			c1.77-0.2,3.38-0.91,4.69-1.98L19.73,21l1.41-1.41L4.41,2.86z M12,19c-3.87,0-7-3.13-7-7c0-1.61,0.55-3.09,1.46-4.27l9.81,9.81
			C15.09,18.45,13.61,19,12,19z"/>
	</g>
</g>
</svg>
