<?xml version="1.0" encoding="utf-8"?>
<!-- Generator: Adobe Illustrator 19.1.0, SVG Export Plug-In . SVG Version: 6.00 Build 0)  -->
<svg version="1.1" xmlns="http://www.w3.org/2000/svg" xmlns:xlink="http://www.w3.org/1999/xlink" x="0px" y="0px" width="24px"
	 height="24px" viewBox="0 0 24 24" enable-background="new 0 0 24 24" xml:space="preserve">
<g id="Bounding_Boxes">
	<path fill="none" d="M0,0h24v24H0V0z"/>
</g>
<g id="Outline">
	<g id="ui_x5F_spec_x5F_header">
	</g>
	<path d="M20,8h-3V4H3C1.9,4,1,4.9,1,6v11h2c0,1.66,1.34,3,3,3c1.66,0,3-1.34,3-3h6c0,1.66,1.34,3,3,3c1.66,0,3-1.34,3-3h2v-5L20,8z
		 M19.5,9.5l1.96,2.5H17V9.5H19.5z M6,18c-0.55,0-1-0.45-1-1s0.45-1,1-1s1,0.45,1,1S6.55,18,6,18z M8.22,15C7.67,14.39,6.89,14,6,14
		s-1.67,0.39-2.22,1H3V6h12v9H8.22z M18,18c-0.55,0-1-0.45-1-1s0.45-1,1-1s1,0.45,1,1S18.55,18,18,18z"/>
</g>
</svg>
