<?xml version="1.0" encoding="utf-8"?>
<!-- Generator: Adobe Illustrator 19.1.0, SVG Export Plug-In . SVG Version: 6.00 Build 0)  -->
<svg version="1.1" xmlns="http://www.w3.org/2000/svg" xmlns:xlink="http://www.w3.org/1999/xlink" x="0px" y="0px" width="24px"
	 height="24px" viewBox="0 0 24 24" enable-background="new 0 0 24 24" xml:space="preserve">
<g id="Bounding_Boxes">
	<path fill="none" d="M0,0h24v24H0V0z"/>
</g>
<g id="Outline">
	<g id="ui_x5F_spec_x5F_header">
	</g>
	<path d="M20.5,3l-0.16,0.03L15,5.1L9,3L3.36,4.9C3.15,4.97,3,5.15,3,5.38V20.5C3,20.78,3.22,21,3.5,21l0.16-0.03L9,18.9l6,2.1
		l5.64-1.9c0.21-0.07,0.36-0.25,0.36-0.48V3.5C21,3.22,20.78,3,20.5,3z M10,5.47l4,1.4v11.66l-4-1.4V5.47z M5,6.46l3-1.01v11.7
		l-3,1.16V6.46z M19,17.54l-3,1.01V6.86l3-1.16V17.54z"/>
</g>
</svg>
