<?xml version="1.0" encoding="utf-8"?>
<!-- Generator: Adobe Illustrator 19.1.0, SVG Export Plug-In . SVG Version: 6.00 Build 0)  -->
<svg version="1.1" xmlns="http://www.w3.org/2000/svg" xmlns:xlink="http://www.w3.org/1999/xlink" x="0px" y="0px" width="24px"
	 height="24px" viewBox="0 0 24 24" enable-background="new 0 0 24 24" xml:space="preserve">
<g id="Bounding_Boxes">
	<g id="ui_x5F_spec_x5F_header_copy_3">
	</g>
	<path fill="none" d="M0,0h24v24H0V0z"/>
</g>
<g id="Outline">
	<g id="ui_x5F_spec_x5F_header">
	</g>
	<path d="M19,1H9C7.9,1,7,1.9,7,3v3h2V4h10v16H9v-2H7v3c0,1.1,0.9,2,2,2h10c1.1,0,2-0.9,2-2V3C21,1.9,20.1,1,19,1z M7.01,13.47
		l-2.55-2.55l-1.27,1.27L7,16l7.19-7.19l-1.27-1.27L7.01,13.47z"/>
</g>
</svg>
