<?xml version="1.0" encoding="utf-8"?>
<!-- Generator: Adobe Illustrator 19.1.0, SVG Export Plug-In . SVG Version: 6.00 Build 0)  -->
<svg version="1.1" xmlns="http://www.w3.org/2000/svg" xmlns:xlink="http://www.w3.org/1999/xlink" x="0px" y="0px" width="24px"
	 height="24px" viewBox="0 0 24 24" enable-background="new 0 0 24 24" xml:space="preserve">
<g id="Bounding_Boxes">
	<g id="ui_x5F_spec_x5F_header_copy_2">
	</g>
	<path fill="none" d="M0,0h24v24H0V0z"/>
</g>
<g id="Outline">
	<g id="ui_x5F_spec_x5F_header">
	</g>
	<path d="M17,1H7C5.9,1,5.01,1.85,5.01,2.95v18C5.01,22.05,5.9,23,7,23h10c1.1,0,2-0.95,2-2.05v-18C19,1.85,18.1,1,17,1z M17,19H7V5
		h10V19z M12.8,13.24v1.75L16,12l-3.2-2.98v1.7c-3.11,0.43-4.35,2.56-4.8,4.7C9.11,13.92,10.58,13.24,12.8,13.24z"/>
</g>
</svg>
