<?xml version="1.0" encoding="utf-8"?>
<!-- Generator: Adobe Illustrator 19.1.0, SVG Export Plug-In . SVG Version: 6.00 Build 0)  -->
<svg version="1.1" xmlns="http://www.w3.org/2000/svg" xmlns:xlink="http://www.w3.org/1999/xlink" x="0px" y="0px" width="24px"
	 height="24px" viewBox="0 0 24 24" enable-background="new 0 0 24 24" xml:space="preserve">
<g id="Bounding_Boxes">
	<path fill="none" d="M0,0h24v24H0V0z"/>
</g>
<g id="Outline">
	<g id="ui_x5F_spec_x5F_header">
	</g>
	<g>
		<path d="M15,16h3c0.55,0,1-0.45,1-1V9c0-0.55-0.45-1-1-1h-3c-0.55,0-1,0.45-1,1v6C14,15.55,14.45,16,15,16z M16,10h1v4h-1V10z"/>
		<path d="M9,16h3c0.55,0,1-0.45,1-1V9c0-0.55-0.45-1-1-1H9C8.45,8,8,8.45,8,9v6C8,15.55,8.45,16,9,16z M10,10h1v4h-1V10z"/>
		<rect x="5" y="8" width="2" height="8"/>
		<path d="M2,4v16h20V4H2z M20,18H4V6h16V18z"/>
	</g>
</g>
</svg>
