<?xml version="1.0" encoding="utf-8"?>
<!-- Generator: Adobe Illustrator 19.1.0, SVG Export Plug-In . SVG Version: 6.00 Build 0)  -->
<svg version="1.1" xmlns="http://www.w3.org/2000/svg" xmlns:xlink="http://www.w3.org/1999/xlink" x="0px" y="0px" width="24px"
	 height="24px" viewBox="0 0 24 24" enable-background="new 0 0 24 24" xml:space="preserve">
<g id="Bounding_Boxes">
	<g id="ui_x5F_spec_x5F_header_copy_2">
	</g>
	<path fill="none" d="M0,0h24v24H0V0z"/>
</g>
<g id="Outline">
	<g id="ui_x5F_spec_x5F_header">
	</g>
	<g>
		<path d="M22,3H7C6.31,3,5.77,3.35,5.41,3.88L0,12l5.41,8.11C5.77,20.64,6.38,21,7.07,21H22c1.1,0,2-0.9,2-2V5C24,3.9,23.1,3,22,3z
			 M22,19L7.07,19L2.4,12l4.66-7c0,0,0,0,0,0H22V19z"/>
		<circle cx="9" cy="12" r="1.5"/>
		<circle cx="14" cy="12" r="1.5"/>
		<circle cx="19" cy="12" r="1.5"/>
	</g>
</g>
</svg>
