<?xml version="1.0" encoding="utf-8"?>
<!-- Generator: Adobe Illustrator 19.1.0, SVG Export Plug-In . SVG Version: 6.00 Build 0)  -->
<svg version="1.1" xmlns="http://www.w3.org/2000/svg" xmlns:xlink="http://www.w3.org/1999/xlink" x="0px" y="0px" width="24px"
	 height="24px" viewBox="0 0 24 24" enable-background="new 0 0 24 24" xml:space="preserve">
<g id="Bounding_Boxes">
	<g id="ui_x5F_spec_x5F_header_copy_3">
	</g>
	<path fill="none" d="M0,0h24v24H0V0z"/>
</g>
<g id="Outline">
	<g id="ui_x5F_spec_x5F_header">
	</g>
	<path d="M20,9c-0.04-4.39-3.6-7.93-8-7.93S4.04,4.61,4,9h0v0.07V15c0,4.42,3.58,8,8,8s8-3.58,8-8V9.07L20,9L20,9z M18,9h-5V3.16
		C15.81,3.63,17.96,6.06,18,9z M11,3.16V9H6C6.04,6.06,8.19,3.63,11,3.16z M18,15c0,3.31-2.69,6-6,6s-6-2.69-6-6v-4h12V15z"/>
</g>
</svg>
