<?xml version="1.0" encoding="utf-8"?>
<!-- Generator: Adobe Illustrator 19.1.0, SVG Export Plug-In . SVG Version: 6.00 Build 0)  -->
<svg version="1.1" xmlns="http://www.w3.org/2000/svg" xmlns:xlink="http://www.w3.org/1999/xlink" x="0px" y="0px" width="24px"
	 height="24px" viewBox="0 0 24 24" enable-background="new 0 0 24 24" xml:space="preserve">
<g id="Bounding_Boxes">
	<g id="ui_x5F_spec_x5F_header_copy_3" display="none">
	</g>
	<path fill="none" d="M0,0h24v24H0V0z"/>
</g>
<g id="Outline">
	<g id="ui_x5F_spec_x5F_header" display="none">
	</g>
	<g>
		<polygon points="16,9 13.45,9 13.45,6 10.55,6 10.55,9 8,9 12,13 		"/>
		<path d="M19,3H4.99C3.88,3,3,3.9,3,5v14c0,1.1,0.88,2,1.99,2H19c1.1,0,2-0.9,2-2V5C21,3.9,20.1,3,19,3z M19,19L5,19l0-3h3.56
			c0.69,1.19,1.97,2,3.45,2s2.75-0.81,3.45-2H19V19z M19,14h-4.99c0,1.1-0.9,2-2,2s-2-0.9-2-2H5L4.99,5H19V14z"/>
	</g>
</g>
</svg>
