<?xml version="1.0" encoding="utf-8"?>
<!-- Generator: Adobe Illustrator 19.1.0, SVG Export Plug-In . SVG Version: 6.00 Build 0)  -->
<svg version="1.1" xmlns="http://www.w3.org/2000/svg" xmlns:xlink="http://www.w3.org/1999/xlink" x="0px" y="0px" width="24px"
	 height="24px" viewBox="0 0 24 24" enable-background="new 0 0 24 24" xml:space="preserve">
<g id="Bounding_Boxes">
	<g id="ui_x5F_spec_x5F_header_copy_2">
	</g>
	<path fill="none" d="M0,0h24v24H0V0z M0,0h24v24H0V0z"/>
</g>
<g id="Outline">
	<g id="ui_x5F_spec_x5F_header">
	</g>
	<g>
		<path d="M22,16v-0.5c0-1.38-1.12-2.5-2.5-2.5S17,14.12,17,15.5V16c-0.55,0-1,0.45-1,1v4c0,0.55,0.45,1,1,1h5c0.55,0,1-0.45,1-1v-4
			C23,16.45,22.55,16,22,16z M21,16h-3v-0.5c0-0.83,0.67-1.5,1.5-1.5s1.5,0.67,1.5,1.5V16z"/>
		<path d="M18,5.83v5.43C18.47,11.1,18.97,11,19.5,11c0.17,0,0.33,0.03,0.5,0.05V1L1,20h13v-2H5.83L18,5.83z"/>
	</g>
</g>
</svg>
