<?xml version="1.0" encoding="utf-8"?>
<!-- Generator: Adobe Illustrator 19.1.0, SVG Export Plug-In . SVG Version: 6.00 Build 0)  -->
<svg version="1.1" xmlns="http://www.w3.org/2000/svg" xmlns:xlink="http://www.w3.org/1999/xlink" x="0px" y="0px" width="24px"
	 height="24px" viewBox="0 0 24 24" enable-background="new 0 0 24 24" xml:space="preserve">
<g id="Bounding_Boxes">
	<g id="ui_x5F_spec_x5F_header_copy_3" display="none">
	</g>
	<path fill="none" d="M0,0h24v24H0V0z"/>
</g>
<g id="Outline">
	<g id="ui_x5F_spec_x5F_header" display="none">
	</g>
	<g>
		<polygon points="11,18.5 15,14.5 11,10.5 10,11.5 13,14.5 10,17.5 		"/>
		<path d="M20,7h-4V5c0-0.55-0.22-1.05-0.59-1.41C15.05,3.22,14.55,3,14,3h-4C8.9,3,8,3.9,8,5v2l0,0H4C2.9,7,2,7.9,2,9v11
			c0,1.1,0.9,2,2,2h16c1.1,0,2-0.9,2-2V9C22,7.9,21.1,7,20,7z M10,5h4v2h-4V5z M20,20H4V9h16V20z"/>
	</g>
</g>
</svg>
