<?xml version="1.0" encoding="utf-8"?>
<!-- Generator: Adobe Illustrator 19.1.0, SVG Export Plug-In . SVG Version: 6.00 Build 0)  -->
<svg version="1.1" xmlns="http://www.w3.org/2000/svg" xmlns:xlink="http://www.w3.org/1999/xlink" x="0px" y="0px" width="24px"
	 height="24px" viewBox="0 0 24 24" enable-background="new 0 0 24 24" xml:space="preserve">
<g id="Bounding_Boxes">
	<g id="ui_x5F_spec_x5F_header_copy_2">
	</g>
	<path fill="none" d="M0,0h24v24H0V0z M0,0h24v24H0V0z M0,0h24v24H0V0z M0,0h24v24H0V0z"/>
</g>
<g id="Outline">
	<g id="ui_x5F_spec_x5F_header">
	</g>
	<g>
		<path d="M8.9,6c0-1.71,1.39-3.1,3.1-3.1s3.1,1.39,3.1,3.1v2h-4.66l2,2H18v5.56l2,2V10c0-1.1-0.9-2-2-2h-1V6c0-2.76-2.24-5-5-5
			C9.68,1,7.74,2.59,7.18,4.74L8.9,6.46V6z"/>
		<path d="M4.41,4.81L3,6.22l2.04,2.04C4.42,8.6,4,9.25,4,10v10c0,1.1,0.9,2,2,2h12.78l1,1l1.41-1.41L4.41,4.81z M6,20V10h0.78
			l10,10H6z"/>
	</g>
</g>
</svg>
