<?xml version="1.0" encoding="utf-8"?>
<!-- Generator: Adobe Illustrator 19.1.0, SVG Export Plug-In . SVG Version: 6.00 Build 0)  -->
<svg version="1.1" xmlns="http://www.w3.org/2000/svg" xmlns:xlink="http://www.w3.org/1999/xlink" x="0px" y="0px" width="24px"
	 height="24px" viewBox="0 0 24 24" enable-background="new 0 0 24 24" xml:space="preserve">
<g id="Bounding_Boxes" display="none">
	<g id="ui_x5F_spec_x5F_header_copy_3" display="inline">
	</g>
	<path display="inline" fill="none" d="M0,0h24v24H0V0z"/>
</g>
<g id="Outline">
	<g id="ui_x5F_spec_x5F_header">
	</g>
	<g>
		<path d="M10.01,21.01c0,1.1,0.89,1.99,1.99,1.99s1.99-0.89,1.99-1.99H10.01z"/>
		<path d="M12,6c2.76,0,5,2.24,5,5v7H7v-7C7,8.24,9.24,6,12,6L12,6z M12,1.5c-0.83,0-1.5,0.67-1.5,1.5v1.17C7.36,4.85,5,7.65,5,11v6
			l-2,2v1h18v-1l-2-2v-6c0-3.35-2.36-6.15-5.5-6.83V3C13.5,2.17,12.83,1.5,12,1.5L12,1.5z"/>
		<rect x="11" y="8" width="2" height="4"/>
		<rect x="11" y="14" width="2" height="2"/>
	</g>
</g>
</svg>
