<?xml version="1.0" encoding="utf-8"?>
<!-- Generator: Adobe Illustrator 19.1.0, SVG Export Plug-In . SVG Version: 6.00 Build 0)  -->
<svg version="1.1" xmlns="http://www.w3.org/2000/svg" xmlns:xlink="http://www.w3.org/1999/xlink" x="0px" y="0px" width="24px"
	 height="24px" viewBox="0 0 24 24" enable-background="new 0 0 24 24" xml:space="preserve">
<g id="Bounding_Boxes">
	<g id="ui_x5F_spec_x5F_header_copy_2">
	</g>
	<path fill="none" d="M0,0h24v24H0V0z"/>
</g>
<g id="Outline">
	<g id="ui_x5F_spec_x5F_header">
	</g>
	<g>
		<path d="M12,22c1.1,0,2-0.9,2-2h-4C10,21.1,10.9,22,12,22z"/>
		<path d="M12,6.5c2.49,0,4,2.02,4,4.5v0.1l2,2V11c0-3.07-1.63-5.64-4.5-6.32V4c0-0.83-0.67-1.5-1.5-1.5S10.5,3.17,10.5,4v0.68
			c-0.24,0.06-0.47,0.15-0.69,0.23l1.64,1.64C11.63,6.53,11.81,6.5,12,6.5z"/>
		<path d="M5.41,3.35L4,4.76l2.81,2.81C6.29,8.57,6,9.74,6,11v5l-2,2v1h14.24l1.74,1.74l1.41-1.41L5.41,3.35z M16,17H8v-6
			c0-0.68,0.12-1.32,0.34-1.9L16,16.76V17z"/>
	</g>
</g>
</svg>
