<?xml version="1.0" encoding="utf-8"?>
<!-- Generator: Adobe Illustrator 19.1.0, SVG Export Plug-In . SVG Version: 6.00 Build 0)  -->
<svg version="1.1" xmlns="http://www.w3.org/2000/svg" xmlns:xlink="http://www.w3.org/1999/xlink" x="0px" y="0px" width="24px"
	 height="24px" viewBox="0 0 24 24" enable-background="new 0 0 24 24" xml:space="preserve">
<g id="Bounding_Boxes">
	<g id="ui_x5F_spec_x5F_header_copy_3" display="none">
	</g>
	<path fill="none" d="M0,0h24v24H0V0z"/>
</g>
<g id="Rounded" display="none">
	<g id="ui_x5F_spec_x5F_header_copy_5">
	</g>
	<g display="inline">
		<path d="M12,12c2.21,0,4-1.79,4-4c0-2.21-1.79-4-4-4C9.79,4,8,5.79,8,8C8,10.21,9.79,12,12,12z M12,6c1.1,0,2,0.9,2,2s-0.9,2-2,2
			c-1.1,0-2-0.9-2-2S10.9,6,12,6z"/>
		<path d="M12,13c-2.67,0-8,1.34-8,4v2c0,0.55,0.45,1,1,1h14c0.55,0,1-0.45,1-1v-2C20,14.34,14.67,13,12,13z M18,18H6l0-0.99
			C6.2,16.29,9.3,15,12,15s5.8,1.29,6,2V18z"/>
	</g>
</g>
<g id="Sharp" display="none">
	<g id="ui_x5F_spec_x5F_header_copy_4">
	</g>
	<g display="inline">
		<path d="M12,12c2.21,0,4-1.79,4-4c0-2.21-1.79-4-4-4C9.79,4,8,5.79,8,8C8,10.21,9.79,12,12,12z M12,6c1.1,0,2,0.9,2,2s-0.9,2-2,2
			c-1.1,0-2-0.9-2-2S10.9,6,12,6z"/>
		<path d="M12,13c-2.67,0-8,1.34-8,4v3h16v-3C20,14.34,14.67,13,12,13z M18,18H6l0-0.99C6.2,16.29,9.3,15,12,15s5.8,1.29,6,2V18z"/>
	</g>
</g>
<g id="Outline">
	<g id="ui_x5F_spec_x5F_header" display="none">
	</g>
	<path d="M12,6c1.1,0,2,0.9,2,2s-0.9,2-2,2s-2-0.9-2-2S10.9,6,12,6 M12,15c2.7,0,5.8,1.29,6,2v1H6l0-0.99C6.2,16.29,9.3,15,12,15
		 M12,4C9.79,4,8,5.79,8,8s1.79,4,4,4s4-1.79,4-4S14.21,4,12,4L12,4z M12,13c-2.67,0-8,1.34-8,4v3h16v-3C20,14.34,14.67,13,12,13
		L12,13z"/>
</g>
<g id="Duotone" display="none">
	<g id="ui_x5F_spec_x5F_header_copy_2">
	</g>
	<g display="inline">
		<circle opacity="0.3" cx="12" cy="8" r="2"/>
		<path opacity="0.3" d="M12,15c-2.7,0-5.8,1.29-6,2.01L6,18h12v-1C17.8,16.29,14.7,15,12,15z"/>
		<path d="M12,12c2.21,0,4-1.79,4-4c0-2.21-1.79-4-4-4C9.79,4,8,5.79,8,8C8,10.21,9.79,12,12,12z M12,6c1.1,0,2,0.9,2,2s-0.9,2-2,2
			c-1.1,0-2-0.9-2-2S10.9,6,12,6z"/>
		<path d="M12,13c-2.67,0-8,1.34-8,4v3h16v-3C20,14.34,14.67,13,12,13z M18,18H6l0-0.99C6.2,16.29,9.3,15,12,15s5.8,1.29,6,2V18z"/>
	</g>
</g>
<g id="Material" display="none">
	<g id="ui_x5F_spec_x5F_header_copy">
	</g>
	<g display="inline">
		<path d="M12,12c2.21,0,4-1.79,4-4c0-2.21-1.79-4-4-4C9.79,4,8,5.79,8,8C8,10.21,9.79,12,12,12z M12,6c1.1,0,2,0.9,2,2s-0.9,2-2,2
			c-1.1,0-2-0.9-2-2S10.9,6,12,6z"/>
		<path d="M12,13c-2.67,0-8,1.34-8,4v3h16v-3C20,14.34,14.67,13,12,13z M18,18H6l0-0.99C6.2,16.29,9.3,15,12,15s5.8,1.29,6,2V18z"/>
	</g>
</g>
</svg>
