<?xml version="1.0" encoding="utf-8"?>
<!-- Generator: Adobe Illustrator 19.1.0, SVG Export Plug-In . SVG Version: 6.00 Build 0)  -->
<svg version="1.1" xmlns="http://www.w3.org/2000/svg" xmlns:xlink="http://www.w3.org/1999/xlink" x="0px" y="0px" width="24px"
	 height="24px" viewBox="0 0 24 24" enable-background="new 0 0 24 24" xml:space="preserve">
<g id="Bounding_Boxes">
	<g id="ui_x5F_spec_x5F_header_copy_2">
	</g>
	<path fill="none" d="M0,0h24v24H0V0z"/>
</g>
<g id="Outline">
	<g id="ui_x5F_spec_x5F_header">
	</g>
	<path d="M13,8.2l-1-1l-4,4l-4-4l-1,1l4,4l-4,4l1,1l4-4l4,4l1-1l-4-4L13,8.2z M19,1H9C7.9,1,7,1.9,7,3v3h2V4h10v16H9v-2H7v3
		c0,1.1,0.9,2,2,2h10c1.1,0,2-0.9,2-2V3C21,1.9,20.1,1,19,1z"/>
</g>
</svg>
