<?xml version="1.0" encoding="utf-8"?>
<!-- Generator: Adobe Illustrator 19.1.0, SVG Export Plug-In . SVG Version: 6.00 Build 0)  -->
<svg version="1.1" xmlns="http://www.w3.org/2000/svg" xmlns:xlink="http://www.w3.org/1999/xlink" x="0px" y="0px" width="24px"
	 height="24px" viewBox="0 0 24 24" enable-background="new 0 0 24 24" xml:space="preserve">
<g id="Bounding_Boxes">
	<g id="ui_x5F_spec_x5F_header_copy_2">
	</g>
	<path fill="none" d="M0,0h24v24H0V0z"/>
</g>
<g id="Outline">
	<g id="ui_x5F_spec_x5F_header">
	</g>
	<path d="M21,15h2v2h-2V15z M21,11h2v2h-2V11z M23,19h-2v2C22,21,23,20,23,19z M13,3h2v2h-2V3z M21,7h2v2h-2V7z M21,3v2h2
		C23,4,22,3,21,3z M1,7h2v2H1V7z M17,3h2v2h-2V3z M17,19h2v2h-2V19z M3,3C2,3,1,4,1,5h2V3z M9,3h2v2H9V3z M5,3h2v2H5V3z M1,11v8
		c0,1.1,0.9,2,2,2h12V11H1z M3,19l2.5-3.21l1.79,2.15l2.5-3.22L13,19H3z"/>
</g>
</svg>
