<?xml version="1.0" encoding="utf-8"?>
<!-- Generator: Adobe Illustrator 19.1.0, SVG Export Plug-In . SVG Version: 6.00 Build 0)  -->
<svg version="1.1" xmlns="http://www.w3.org/2000/svg" xmlns:xlink="http://www.w3.org/1999/xlink" x="0px" y="0px" width="24px"
	 height="24px" viewBox="0 0 24 24" enable-background="new 0 0 24 24" xml:space="preserve">
<g id="Bounding_Boxes">
	<g id="ui_x5F_spec_x5F_header_copy_2">
	</g>
	<path fill="none" d="M0,0h24v24H0V0z"/>
</g>
<g id="Outline">
	<g id="ui_x5F_spec_x5F_header">
	</g>
	<g>
		<path d="M21,3H3C2,3,1,4,1,5v14c0,1.1,0.9,2,2,2h18c1,0,2-1,2-2V5C23,4,22,3,21,3z M21,18.92c-0.02,0.03-0.06,0.06-0.08,0.08H3
			V5.08C3.02,5.06,3.06,5.02,3.08,5h17.83c0.03,0.02,0.06,0.06,0.08,0.08V18.92z"/>
		<polygon points="11,15.51 8.5,12.5 5,17 19,17 14.5,11 		"/>
	</g>
</g>
</svg>
