<?xml version="1.0" encoding="utf-8"?>
<!-- Generator: Adobe Illustrator 19.1.0, SVG Export Plug-In . SVG Version: 6.00 Build 0)  -->
<svg version="1.1" xmlns="http://www.w3.org/2000/svg" xmlns:xlink="http://www.w3.org/1999/xlink" x="0px" y="0px" width="24px"
	 height="24px" viewBox="0 0 24 24" enable-background="new 0 0 24 24" xml:space="preserve">
<g id="Bounding_Boxes">
	<path fill="none" d="M0,0h24v24H0V0z"/>
</g>
<g id="Outline">
	<g id="ui_x5F_spec_x5F_header">
	</g>
	<g>
		<rect x="5" y="20" width="14" height="2"/>
		<path d="M18,8c0-3.31-2.69-6-6-6S6,4.69,6,8c0,4.5,6,11,6,11S18,12.5,18,8z M8,8c0-2.21,1.79-4,4-4s4,1.79,4,4
			c0,2.13-2.08,5.46-4,7.91C10.08,13.47,8,10.13,8,8z"/>
		<path d="M12,6c-1.1,0-2,0.9-2,2c0,1.1,0.9,2,2,2c1.11,0,2-0.9,2-2C14,6.9,13.1,6,12,6z"/>
	</g>
</g>
</svg>
