<?xml version="1.0" encoding="utf-8"?>
<!-- Generator: Adobe Illustrator 19.1.0, SVG Export Plug-In . SVG Version: 6.00 Build 0)  -->
<svg version="1.1" xmlns="http://www.w3.org/2000/svg" xmlns:xlink="http://www.w3.org/1999/xlink" x="0px" y="0px" width="24px"
	 height="24px" viewBox="0 0 24 24" enable-background="new 0 0 24 24" xml:space="preserve">
<g id="Bounding_Boxes">
	<path fill="none" d="M0,0h24v24H0V0z"/>
</g>
<g id="Outline">
	<g id="ui_x5F_spec_x5F_header">
	</g>
	<g>
		<path d="M12,2C6.48,2,2,6.48,2,12s4.48,10,10,10c5.52,0,10-4.48,10-10S17.52,2,12,2z M12,20c-4.41,0-8-3.59-8-8s3.59-8,8-8
			c4.41,0,8,3.59,8,8S16.41,20,12,20z"/>
		<polygon points="10,16.5 16,12 10,7.5 		"/>
	</g>
</g>
</svg>
