<?xml version="1.0" encoding="utf-8"?>
<!-- Generator: Adobe Illustrator 19.1.0, SVG Export Plug-In . SVG Version: 6.00 Build 0)  -->
<svg version="1.1" xmlns="http://www.w3.org/2000/svg" xmlns:xlink="http://www.w3.org/1999/xlink" x="0px" y="0px" width="24px"
	 height="24px" viewBox="0 0 24 24" enable-background="new 0 0 24 24" xml:space="preserve">
<g id="Bounding_Boxes">
	<g id="ui_x5F_spec_x5F_header_copy_2">
	</g>
	<rect fill="none" width="24" height="24"/>
</g>
<g id="Outline">
	<g id="ui_x5F_spec_x5F_header">
	</g>
	<g>
		<path d="M1.41,1.6L0,3.01L5,8c-1.66,0-3,1.34-3,3v6h4v4h12l2.95,2.96l1.41-1.41L1.41,1.6z M6,15H4v-4c0-0.55,0.45-1,1-1h2l3,3H6
			V15z M8,19v-4h4l4,4H8z"/>
		<path d="M8,5h8v3h-5.34l2,2H19c0.55,0,1,0.45,1,1v4l-2,0.01V13h-2.34l4,4H22v-6c0-1.66-1.34-3-3-3h-1V3H6v0.36l2,2V5z"/>
		<circle cx="18" cy="11.51" r="1"/>
	</g>
</g>
</svg>
