<?xml version="1.0" encoding="utf-8"?>
<!-- Generator: Adobe Illustrator 19.1.0, SVG Export Plug-In . SVG Version: 6.00 Build 0)  -->
<svg version="1.1" xmlns="http://www.w3.org/2000/svg" xmlns:xlink="http://www.w3.org/1999/xlink" x="0px" y="0px" width="24px"
	 height="24px" viewBox="0 0 24 24" enable-background="new 0 0 24 24" xml:space="preserve">
<g id="Bounding_Boxes">
	<rect fill="none" width="24" height="24"/>
	<rect fill="none" width="24" height="24"/>
	<rect fill="none" width="24" height="24"/>
</g>
<g id="Outline">
	<g id="ui_x5F_spec_x5F_header">
	</g>
	<g id="XMLID_1588_">
		<g id="XMLID_1589_" transform="translate(144, 120)">
			<path id="XMLID_1590_" d="M-122-114h-5v8.18c-0.31-0.11-0.65-0.18-1-0.18c-1.66,0-3,1.34-3,3s1.34,3,3,3s3-1.34,3-3v-9h3V-114
				L-122-114z M-129-114h-12v2h12V-114L-129-114z M-129-110h-12v2h12V-110L-129-110z M-133-106h-8v2h8V-106L-133-106z M-129-103
				c0-0.55,0.45-1,1-1c0.55,0,1,0.45,1,1s-0.45,1-1,1C-128.55-102-129-102.45-129-103z"/>
		</g>
	</g>
</g>
</svg>
