<?xml version="1.0" encoding="utf-8"?>
<!-- Generator: Adobe Illustrator 19.1.0, SVG Export Plug-In . SVG Version: 6.00 Build 0)  -->
<svg version="1.1" xmlns="http://www.w3.org/2000/svg" xmlns:xlink="http://www.w3.org/1999/xlink" x="0px" y="0px" width="24px"
	 height="24px" viewBox="0 0 24 24" enable-background="new 0 0 24 24" xml:space="preserve">
<g id="Bounding_Boxes">
	<path fill="none" d="M0,0h24v24H0V0z"/>
</g>
<g id="Outline">
	<g id="ui_x5F_spec_x5F_header">
	</g>
	<g>
		<path d="M21,3H3C1.89,3,1,3.89,1,5v12c0,1.1,0.89,2,2,2h5v2h8v-2h2v-2H3V5h18v8h2V5C23,3.89,22.1,3,21,3z M13,10V7h-2v3H8v2h3v3h2
			v-3h3v-2H13z M24,18l-4.5,4.5L18,21l3-3l-3-3l1.5-1.5L24,18z"/>
	</g>
</g>
</svg>
