<?xml version="1.0" encoding="utf-8"?>
<!-- Generator: Adobe Illustrator 19.1.0, SVG Export Plug-In . SVG Version: 6.00 Build 0)  -->
<svg version="1.1" xmlns="http://www.w3.org/2000/svg" xmlns:xlink="http://www.w3.org/1999/xlink" x="0px" y="0px" width="24px"
	 height="24px" viewBox="0 0 24 24" enable-background="new 0 0 24 24" xml:space="preserve">
<g id="Bounding_Boxes">
	<path fill="none" d="M0,0h24v24H0V0z"/>
</g>
<g id="Outline">
	<g id="ui_x5F_spec_x5F_header">
	</g>
	<g>
		<path d="M20,2H4C2.9,2,2.01,2.9,2.01,4L2,22l4-4h14c1.1,0,2-0.9,2-2V4C22,2.9,21.1,2,20,2z M20,16H6H5.17l-0.59,0.59L4,17.17V4h16
			V16z"/>
		<polygon points="10.5,14 18,14 18,12 12.5,12 		"/>
		<path d="M14.36,8.13c0.2-0.2,0.2-0.51,0-0.71l-1.77-1.77c-0.2-0.2-0.51-0.2-0.71,0L6,11.53V14h2.47L14.36,8.13z"/>
	</g>
</g>
</svg>
