<?xml version="1.0" encoding="utf-8"?>
<!-- Generator: Adobe Illustrator 19.1.0, SVG Export Plug-In . SVG Version: 6.00 Build 0)  -->
<svg version="1.1" xmlns="http://www.w3.org/2000/svg" xmlns:xlink="http://www.w3.org/1999/xlink" x="0px" y="0px" width="24px"
	 height="24px" viewBox="0 0 24 24" enable-background="new 0 0 24 24" xml:space="preserve">
<g id="Bounding_Boxes">
	<g id="ui_x5F_spec_x5F_header_copy_2">
	</g>
	<path fill="none" d="M0,0h24v24H0V0z"/>
</g>
<g id="Outline">
	<g id="ui_x5F_spec_x5F_header">
	</g>
	<g>
		<path d="M12,6.5c3.79,0,7.17,2.13,8.82,5.5c-1.65,3.37-5.02,5.5-8.82,5.5S4.83,15.37,3.18,12C4.83,8.63,8.21,6.5,12,6.5 M12,4.5
			C7,4.5,2.73,7.61,1,12c1.73,4.39,6,7.5,11,7.5s9.27-3.11,11-7.5C21.27,7.61,17,4.5,12,4.5L12,4.5z"/>
		<path d="M12,9.5c1.38,0,2.5,1.12,2.5,2.5s-1.12,2.5-2.5,2.5S9.5,13.38,9.5,12S10.62,9.5,12,9.5 M12,7.5c-2.48,0-4.5,2.02-4.5,4.5
			s2.02,4.5,4.5,4.5s4.5-2.02,4.5-4.5S14.48,7.5,12,7.5L12,7.5z"/>
	</g>
</g>
</svg>
