<?xml version="1.0" encoding="utf-8"?>
<!-- Generator: Adobe Illustrator 19.1.0, SVG Export Plug-In . SVG Version: 6.00 Build 0)  -->
<svg version="1.1" xmlns="http://www.w3.org/2000/svg" xmlns:xlink="http://www.w3.org/1999/xlink" x="0px" y="0px" width="24px"
	 height="24px" viewBox="0 0 24 24" enable-background="new 0 0 24 24" xml:space="preserve">
<g id="Bounding_Boxes">
	<g id="ui_x5F_spec_x5F_header_copy_2">
	</g>
	<path fill="none" d="M0,0h24v24H0V0z"/>
</g>
<g id="Outline">
	<g id="ui_x5F_spec_x5F_header">
	</g>
	<path d="M7.11,8.53L5.7,7.11C4.8,8.27,4.24,9.61,4.07,11h2.02C6.23,10.13,6.58,9.28,7.11,8.53z M6.09,13H4.07
		c0.17,1.39,0.72,2.73,1.62,3.89l1.41-1.42C6.58,14.72,6.23,13.88,6.09,13z M7.1,18.32c1.16,0.9,2.51,1.44,3.9,1.61V17.9
		c-0.87-0.15-1.71-0.49-2.46-1.03L7.1,18.32z M13,4.07V1L8.45,5.55L13,10V6.09c2.84,0.48,5,2.94,5,5.91s-2.16,5.43-5,5.91v2.02
		c3.95-0.49,7-3.85,7-7.93S16.95,4.56,13,4.07z"/>
</g>
</svg>
