<?xml version="1.0" encoding="utf-8"?>
<!-- Generator: Adobe Illustrator 19.1.0, SVG Export Plug-In . SVG Version: 6.00 Build 0)  -->
<svg version="1.1" xmlns="http://www.w3.org/2000/svg" xmlns:xlink="http://www.w3.org/1999/xlink" x="0px" y="0px" width="24px"
	 height="24px" viewBox="0 0 24 24" enable-background="new 0 0 24 24" xml:space="preserve">
<g id="Bounding_Boxes">
	<g id="ui_x5F_spec_x5F_header_copy_2">
	</g>
	<path fill="none" d="M0,0h24v24H0V0z"/>
</g>
<g id="Outline">
	<g id="ui_x5F_spec_x5F_header">
	</g>
	<path d="M15.55,5.55L11,1v3.07C7.06,4.56,4,7.92,4,12s3.05,7.44,7,7.93v-2.02C8.16,17.43,6,14.97,6,12s2.16-5.43,5-5.91V10
		L15.55,5.55z M19.93,11c-0.17-1.39-0.72-2.73-1.62-3.89l-1.42,1.42c0.54,0.75,0.88,1.6,1.02,2.47H19.93z M13,17.9v2.02
		c1.39-0.17,2.74-0.71,3.9-1.61l-1.44-1.44C14.71,17.41,13.87,17.76,13,17.9z M16.89,15.48l1.42,1.41c0.9-1.16,1.45-2.5,1.62-3.89
		h-2.02C17.77,13.87,17.43,14.72,16.89,15.48z"/>
</g>
</svg>
