<?xml version="1.0" encoding="utf-8"?>
<!-- Generator: Adobe Illustrator 19.1.0, SVG Export Plug-In . SVG Version: 6.00 Build 0)  -->
<svg version="1.1" xmlns="http://www.w3.org/2000/svg" xmlns:xlink="http://www.w3.org/1999/xlink" x="0px" y="0px" width="24px"
	 height="24px" viewBox="0 0 24 24" enable-background="new 0 0 24 24" xml:space="preserve">
<g id="Bounding_Boxes">
	<path fill="none" d="M0,0h24v24H0V0z"/>
</g>
<g id="Outline">
	<g id="ui_x5F_spec_x5F_header" display="none">
	</g>
	<path d="M20,17v-6c0-1.1-0.9-2-2-2H7V7l-3,3l3,3v-2h4v3H4v3c0,1.1,0.9,2,2,2h2c0,1.66,1.34,3,3,3s3-1.34,3-3h8v-2H20z M11,20
		c-0.55,0-1-0.45-1-1s0.45-1,1-1s1,0.45,1,1S11.55,20,11,20z M18,14h-4v-3h4V14z M17,2v2H9v2h8v2l3-3L17,2z"/>
</g>
</svg>
