<?xml version="1.0" encoding="utf-8"?>
<!-- Generator: Adobe Illustrator 19.1.0, SVG Export Plug-In . SVG Version: 6.00 Build 0)  -->
<svg version="1.1" xmlns="http://www.w3.org/2000/svg" xmlns:xlink="http://www.w3.org/1999/xlink" x="0px" y="0px" width="24px"
	 height="24px" viewBox="0 0 24 24" enable-background="new 0 0 24 24" xml:space="preserve">
<g id="Bounding_Boxes">
	<g id="ui_x5F_spec_x5F_header_copy_3">
	</g>
	<path fill="none" d="M0,0h24v24H0V0z"/>
</g>
<g id="Outline">
	<g id="ui_x5F_spec_x5F_header">
	</g>
	<g>
		<path d="M19,3H5C3.9,3,3,3.9,3,5v14c0,1.1,0.9,2,2,2h14c1.1,0,2-0.9,2-2V5C21,3.9,20.1,3,19,3z M19,19h-6H5l4-4l4,4l6-6V19z
			 M19,10.5l-6,6l-4-4l-4,4V5h14V10.5z"/>
		<polygon points="13.5,9 13.5,6 12,6 12,12 13.5,12 		"/>
		<polygon points="17.2,12 15.2,9 17.2,6 15.5,6 13.5,9 15.5,12 		"/>
		<polygon points="11,10.5 8.5,10.5 8.5,9.75 11,9.75 11,6 7,6 7,7.5 9.5,7.5 9.5,8.25 7,8.25 7,12 11,12 		"/>
	</g>
</g>
</svg>
