<?xml version="1.0" encoding="utf-8"?>
<!-- Generator: Adobe Illustrator 19.1.0, SVG Export Plug-In . SVG Version: 6.00 Build 0)  -->
<svg version="1.1" xmlns="http://www.w3.org/2000/svg" xmlns:xlink="http://www.w3.org/1999/xlink" x="0px" y="0px" width="24px"
	 height="24px" viewBox="0 0 24 24" enable-background="new 0 0 24 24" xml:space="preserve">
<g id="Bounding_Boxes">
	<g id="ui_x5F_spec_x5F_header_copy_3">
	</g>
	<path fill="none" d="M0,0h24v24H0V0z"/>
</g>
<g id="Outline">
	<g id="ui_x5F_spec_x5F_header">
	</g>
	<path d="M21,5H3C1.9,5,1,5.9,1,7v10c0,1.1,0.9,2,2,2h18c1.1,0,2-0.9,2-2V7C23,5.9,22.1,5,21,5z M19,17H5V7h14V17z M10,16h4
		c0.55,0,1-0.45,1-1v-3c0-0.55-0.45-1-1-1v-1c0-1.11-0.9-2-2-2c-1.11,0-2,0.9-2,2v1c-0.55,0-1,0.45-1,1v3C9,15.55,9.45,16,10,16z
		 M10.8,10c0-0.66,0.54-1.2,1.2-1.2s1.2,0.54,1.2,1.2v1h-2.4L10.8,10z"/>
</g>
</svg>
