<?xml version="1.0" encoding="utf-8"?>
<!-- Generator: Adobe Illustrator 19.1.0, SVG Export Plug-In . SVG Version: 6.00 Build 0)  -->
<svg version="1.1" xmlns="http://www.w3.org/2000/svg" xmlns:xlink="http://www.w3.org/1999/xlink" x="0px" y="0px" width="24px"
	 height="24px" viewBox="0 0 24 24" enable-background="new 0 0 24 24" xml:space="preserve">
<g id="Bounding_Boxes">
	<g id="ui_x5F_spec_x5F_header_copy_3">
	</g>
	<path fill="none" d="M0,0h24v24H0V0z"/>
</g>
<g id="Outline">
	<g id="ui_x5F_spec_x5F_header">
	</g>
	<g>
		<path d="M15.5,17H9c-2.21,0-4-1.79-4-4c0-1.93,1.36-3.56,3.22-3.92C9.04,7.8,10.47,7,12,7c1.95,0,3.66,1.28,4.26,3.09
			C17.84,10.45,19,11.84,19,13.5C19,15.43,17.43,17,15.5,17z M8.74,11.02C7.74,11.15,7,11.99,7,13c0,1.1,0.9,2,2,2h6.5
			c0.83,0,1.5-0.67,1.5-1.5S16.33,12,15.5,12h-0.87l-0.17-0.86C14.29,9.92,13.23,9,12,9c-0.96,0-1.84,0.57-2.26,1.45l-0.27,0.57
			H8.74z"/>
		<path d="M21,3H3C1.9,3,1,3.9,1,5v14c0,1.1,0.9,2,2,2h18c1.1,0,2-0.9,2-2V5C23,3.9,22.1,3,21,3z M21,19.01H3V4.99h18V19.01z"/>
	</g>
</g>
</svg>
