<?xml version="1.0" encoding="utf-8"?>
<!-- Generator: Adobe Illustrator 19.1.0, SVG Export Plug-In . SVG Version: 6.00 Build 0)  -->
<svg version="1.1" xmlns="http://www.w3.org/2000/svg" xmlns:xlink="http://www.w3.org/1999/xlink" x="0px" y="0px" width="24px"
	 height="24px" viewBox="0 0 24 24" enable-background="new 0 0 24 24" xml:space="preserve">
<g id="Bounding_Boxes">
	<path fill="none" d="M0,0h24v24H0V0z"/>
</g>
<g id="Outline">
	<g id="ui_x5F_spec_x5F_header">
	</g>
	<path d="M13.05,9.79L10,7.5v9l3.05-2.29L16,12L13.05,9.79z M13.05,9.79L10,7.5v9l3.05-2.29L16,12L13.05,9.79z M13.05,9.79L10,7.5v9
		l3.05-2.29L16,12L13.05,9.79z M11,4.07V2.05c-2.01,0.2-3.84,1-5.32,2.21L7.1,5.69C8.21,4.83,9.54,4.25,11,4.07z M5.69,7.1
		L4.26,5.68C3.05,7.16,2.25,8.99,2.05,11h2.02C4.25,9.54,4.83,8.21,5.69,7.1z M4.07,13H2.05c0.2,2.01,1,3.84,2.21,5.32l1.43-1.43
		C4.83,15.79,4.25,14.46,4.07,13z M5.68,19.74C7.16,20.95,9,21.75,11,21.95v-2.02c-1.46-0.18-2.79-0.76-3.9-1.62L5.68,19.74z M22,12
		c0,5.16-3.92,9.42-8.95,9.95v-2.02C16.97,19.41,20,16.05,20,12s-3.03-7.41-6.95-7.93V2.05C18.08,2.58,22,6.84,22,12z"/>
</g>
</svg>
