<?xml version="1.0" encoding="utf-8"?>
<!-- Generator: Adobe Illustrator 19.1.0, SVG Export Plug-In . SVG Version: 6.00 Build 0)  -->
<svg version="1.1" xmlns="http://www.w3.org/2000/svg" xmlns:xlink="http://www.w3.org/1999/xlink" x="0px" y="0px" width="24px"
	 height="24px" viewBox="0 0 24 24" enable-background="new 0 0 24 24" xml:space="preserve">
<g id="Bounding_Boxes">
	<g id="ui_x5F_spec_x5F_header_copy_2">
	</g>
	<path fill="none" d="M0,0h24v24H0V0z"/>
</g>
<g id="Outline">
	<g id="ui_x5F_spec_x5F_header">
	</g>
	<path d="M7,7.07L8.43,8.5C9.34,7.59,10.61,7.02,12,7.02s2.66,0.57,3.57,1.48L17,7.07C15.72,5.79,13.95,5,12,5S8.28,5.79,7,7.07z
		 M12,1C8.98,1,6.24,2.23,4.25,4.21l1.41,1.41C7.28,4,9.53,3,12,3s4.72,1,6.34,2.62l1.41-1.41C17.76,2.23,15.02,1,12,1z
		 M14.86,10.01L9.14,10C8.51,10,8,10.51,8,11.14v9.71c0,0.63,0.51,1.14,1.14,1.14h5.71c0.63,0,1.14-0.51,1.14-1.14v-9.71
		C16,10.51,15.49,10.01,14.86,10.01z M15,20H9v-8h6V20z"/>
</g>
</svg>
