<?xml version="1.0" encoding="utf-8"?>
<!-- Generator: Adobe Illustrator 19.1.0, SVG Export Plug-In . SVG Version: 6.00 Build 0)  -->
<svg version="1.1" xmlns="http://www.w3.org/2000/svg" xmlns:xlink="http://www.w3.org/1999/xlink" x="0px" y="0px" width="24px"
	 height="24px" viewBox="0 0 24 24" enable-background="new 0 0 24 24" xml:space="preserve">
<g id="Bounding_Boxes">
	<g id="ui_x5F_spec_x5F_header_copy_2">
	</g>
	<rect fill="none" width="24" height="24"/>
</g>
<g id="Outline">
	<g id="ui_x5F_spec_x5F_header">
	</g>
	<g>
		<g>
			<path d="M21.79,18l2,2H24v-2H21.79z M1.11,2.98l1.55,1.56C2.25,4.91,2,5.43,2,6.02V16c0,1.1,0.9,2,2.01,2H0v2h18.13l2.71,2.71
				l1.41-1.41L2.52,1.57L1.11,2.98z M4,6.02h0.13l4.95,4.93C7.94,12.07,7.31,13.52,7,15c0.96-1.29,2.13-2.08,3.67-2.46l3.46,3.48H4
				V6.02z M20,6.02v10.19l1.3,1.3c0.42-0.37,0.7-0.89,0.7-1.49v-10c0-1.11-0.9-2-2-2H7.8l2,2H20z M12.93,9.15l2.79,2.78l1.28-1.2
				L13,7v2.13C13,9.13,12.93,9.15,12.93,9.15z"/>
		</g>
	</g>
</g>
</svg>
