<?xml version="1.0" encoding="utf-8"?>
<!-- Generator: Adobe Illustrator 19.1.0, SVG Export Plug-In . SVG Version: 6.00 Build 0)  -->
<svg version="1.1" xmlns="http://www.w3.org/2000/svg" xmlns:xlink="http://www.w3.org/1999/xlink" x="0px" y="0px" width="24px"
	 height="24px" viewBox="0 0 24 24" enable-background="new 0 0 24 24" xml:space="preserve">
<g id="Bounding_Boxes">
	<g id="ui_x5F_spec_x5F_header_copy_3" display="none">
	</g>
	<path fill="none" d="M0,0h24v24H0V0z"/>
</g>
<g id="Rounded" display="none">
	<g id="ui_x5F_spec_x5F_header_copy_5">
	</g>
	<path display="inline" d="M13,17H5c-0.55,0-1,0.45-1,1v0c0,0.55,0.45,1,1,1h8c0.55,0,1-0.45,1-1v0C14,17.45,13.55,17,13,17z M19,9
		H5c-0.55,0-1,0.45-1,1v0c0,0.55,0.45,1,1,1h14c0.55,0,1-0.45,1-1v0C20,9.45,19.55,9,19,9z M5,15h14c0.55,0,1-0.45,1-1v0
		c0-0.55-0.45-1-1-1H5c-0.55,0-1,0.45-1,1v0C4,14.55,4.45,15,5,15z M4,6L4,6c0,0.55,0.45,1,1,1h14c0.55,0,1-0.45,1-1v0
		c0-0.55-0.45-1-1-1H5C4.45,5,4,5.45,4,6z"/>
</g>
<g id="Sharp" display="none">
	<g id="ui_x5F_spec_x5F_header_copy_4">
	</g>
	<path display="inline" d="M14,17H4v2h10V17z M20,9H4v2h16V9z M4,15h16v-2H4V15z M4,5v2h16V5H4z"/>
</g>
<g id="Outline">
	<g id="ui_x5F_spec_x5F_header" display="none">
	</g>
	<path d="M14,17H4v2h10V17z M20,9H4v2h16V9z M4,15h16v-2H4V15z M4,5v2h16V5H4z"/>
</g>
<g id="Duotone" display="none">
	<g id="ui_x5F_spec_x5F_header_copy_2">
	</g>
	<path display="inline" d="M14,17H4v2h10V17z M20,9H4v2h16V9z M4,15h16v-2H4V15z M4,5v2h16V5H4z"/>
</g>
<g id="Material" display="none">
	<g id="ui_x5F_spec_x5F_header_copy">
	</g>
	<path display="inline" d="M14,17H4v2h10V17z M20,9H4v2h16V9z M4,15h16v-2H4V15z M4,5v2h16V5H4z"/>
</g>
</svg>
