<?xml version="1.0" encoding="utf-8"?>
<!-- Generator: Adobe Illustrator 19.1.0, SVG Export Plug-In . SVG Version: 6.00 Build 0)  -->
<svg version="1.1" xmlns="http://www.w3.org/2000/svg" xmlns:xlink="http://www.w3.org/1999/xlink" x="0px" y="0px" width="24px"
	 height="24px" viewBox="0 0 24 24" enable-background="new 0 0 24 24" xml:space="preserve">
<g id="Bounding_Boxes">
	<path fill="none" d="M0,0h24v24H0V0z"/>
</g>
<g id="Outline">
	<g id="ui_x5F_spec_x5F_header">
	</g>
	<g>
		<rect x="4" y="6" width="16" height="2"/>
		<rect x="6" y="2" width="12" height="2"/>
		<path d="M20,10H4c-1.1,0-2,0.9-2,2v8c0,1.1,0.9,2,2,2h16c1.1,0,2-0.9,2-2v-8C22,10.9,21.1,10,20,10z M20,20H4v-8h16V20z"/>
		<polygon points="10,12.73 10,19.26 16,16 		"/>
	</g>
</g>
</svg>
