<?xml version="1.0" encoding="utf-8"?>
<!-- Generator: Adobe Illustrator 19.1.0, SVG Export Plug-In . SVG Version: 6.00 Build 0)  -->
<svg version="1.1" xmlns="http://www.w3.org/2000/svg" xmlns:xlink="http://www.w3.org/1999/xlink" x="0px" y="0px" width="24px"
	 height="24px" viewBox="0 0 24 24" enable-background="new 0 0 24 24" xml:space="preserve">
<g id="Bounding_Boxes">
	<g id="ui_x5F_spec_x5F_header_copy_2">
	</g>
	<path fill="none" d="M0,0h24v24H0V0z"/>
</g>
<g id="Outline">
	<g id="ui_x5F_spec_x5F_header">
	</g>
	<path d="M18,4l-4,4h3v7c0,1.1-0.9,2-2,2s-2-0.9-2-2V8c0-2.21-1.79-4-4-4S5,5.79,5,8v7H2l4,4l4-4H7V8c0-1.1,0.9-2,2-2s2,0.9,2,2v7
		c0,2.21,1.79,4,4,4s4-1.79,4-4V8h3L18,4z"/>
</g>
</svg>
