<?xml version="1.0" encoding="utf-8"?>
<!-- Generator: Adobe Illustrator 19.1.0, SVG Export Plug-In . SVG Version: 6.00 Build 0)  -->
<svg version="1.1" xmlns="http://www.w3.org/2000/svg" xmlns:xlink="http://www.w3.org/1999/xlink" x="0px" y="0px" width="24px"
	 height="24px" viewBox="0 0 24 24" enable-background="new 0 0 24 24" xml:space="preserve">
<g id="Bounding_Boxes">
	<g id="ui_x5F_spec_x5F_header_copy_2">
	</g>
	<path fill="none" d="M0,0h24v24H0V0z"/>
</g>
<g id="Outline">
	<g id="ui_x5F_spec_x5F_header">
	</g>
	<g>
		<polygon points="8,13 12,13 12,15 15,12 12,9 12,11 8,11 8,9 5,12 8,15 		"/>
		<path d="M18,9.5V6c0-0.55-0.45-1-1-1H3C2.45,5,2,5.45,2,6v12c0,0.55,0.45,1,1,1h14c0.55,0,1-0.45,1-1v-3.5l4,4v-13L18,9.5z M16,17
			H4V7h12V17z"/>
	</g>
</g>
</svg>
