<?xml version="1.0" encoding="utf-8"?>
<!-- Generator: Adobe Illustrator 19.1.0, SVG Export Plug-In . SVG Version: 6.00 Build 0)  -->
<svg version="1.1" xmlns="http://www.w3.org/2000/svg" xmlns:xlink="http://www.w3.org/1999/xlink" x="0px" y="0px" width="24px"
	 height="24px" viewBox="0 0 24 24" enable-background="new 0 0 24 24" xml:space="preserve">
<g id="Bounding_Boxes">
	<g id="ui_x5F_spec_x5F_header_copy_2">
	</g>
	<path fill="none" d="M0,0h24v24H0V0z"/>
</g>
<g id="Outline">
	<g id="ui_x5F_spec_x5F_header">
	</g>
	<path d="M19.51,3.08L3.08,19.51c0.09,0.34,0.27,0.65,0.51,0.9c0.25,0.24,0.56,0.42,0.9,0.51L20.93,4.49
		C20.74,3.8,20.2,3.26,19.51,3.08z M11.88,3L3,11.88v2.83L14.71,3H11.88z M5,3C3.9,3,3,3.9,3,5v2l4-4H5z M19,21
		c0.55,0,1.05-0.22,1.41-0.59C20.78,20.05,21,19.55,21,19v-2l-4,4H19z M9.29,21h2.83L21,12.12V9.29L9.29,21z"/>
</g>
</svg>
