<?xml version="1.0" encoding="utf-8"?>
<!-- Generator: Adobe Illustrator 19.1.0, SVG Export Plug-In . SVG Version: 6.00 Build 0)  -->
<svg version="1.1" xmlns="http://www.w3.org/2000/svg" xmlns:xlink="http://www.w3.org/1999/xlink" x="0px" y="0px" width="24px"
	 height="24px" viewBox="0 0 24 24" enable-background="new 0 0 24 24" xml:space="preserve">
<g id="Bounding_Boxes">
	<g id="ui_x5F_spec_x5F_header_copy_2">
	</g>
	<path opacity="0.87" fill="none" d="M0,0h24v24H0V0z"/>
</g>
<g id="Outline">
	<g id="ui_x5F_spec_x5F_header">
	</g>
	<g>
		<path d="M15,3H6C5.17,3,4.46,3.5,4.16,4.22l-3.02,7.05C1.05,11.5,1,11.74,1,12v2c0,1.1,0.9,2,2,2h6.31l-0.95,4.57l-0.03,0.32
			c0,0.41,0.17,0.79,0.44,1.06L9.83,23l6.58-6.59C16.78,16.05,17,15.55,17,15V5C17,3.9,16.1,3,15,3z M15,15l-4.34,4.34L11.77,14H3
			v-2l3-7h9V15z"/>
		<rect x="19" y="3" width="4" height="12"/>
	</g>
</g>
</svg>
