<?xml version="1.0" encoding="utf-8"?>
<!-- Generator: Adobe Illustrator 19.1.0, SVG Export Plug-In . SVG Version: 6.00 Build 0)  -->
<svg version="1.1" xmlns="http://www.w3.org/2000/svg" xmlns:xlink="http://www.w3.org/1999/xlink" x="0px" y="0px" width="24px"
	 height="24px" viewBox="0 0 24 24" enable-background="new 0 0 24 24" xml:space="preserve">
<g id="Bounding_Boxes">
	<g id="ui_x5F_spec_x5F_header_copy_2">
	</g>
	<path fill="none" d="M0,0h24v24H0V0z"/>
</g>
<g id="Outline">
	<g id="ui_x5F_spec_x5F_header">
	</g>
	<path d="M15.07,1.01h-6v2h6V1.01z M11.07,14.01h2v-6h-2V14.01z M19.1,7.39l1.42-1.42c-0.43-0.51-0.9-0.99-1.41-1.41l-1.42,1.42
		c-1.55-1.24-3.5-1.98-5.62-1.98c-4.97,0-9,4.03-9,9s4.02,9,9,9s9-4.03,9-9C21.07,10.89,20.33,8.94,19.1,7.39z M12.07,20.01
		c-3.87,0-7-3.13-7-7s3.13-7,7-7s7,3.13,7,7S15.94,20.01,12.07,20.01z"/>
</g>
</svg>
