<?xml version="1.0" encoding="utf-8"?>
<!-- Generator: Adobe Illustrator 19.1.0, SVG Export Plug-In . SVG Version: 6.00 Build 0)  -->
<svg version="1.1" xmlns="http://www.w3.org/2000/svg" xmlns:xlink="http://www.w3.org/1999/xlink" x="0px" y="0px" width="24px"
	 height="24px" viewBox="0 0 24 24" enable-background="new 0 0 24 24" xml:space="preserve">
<g id="Bounding_Boxes">
	<path fill="none" d="M0,0h24v24H0V0z"/>
</g>
<g id="Outline_1_">
	<g>
		<path d="M17,6H7c-3.31,0-6,2.69-6,6s2.69,6,6,6h10c3.31,0,6-2.69,6-6S20.31,6,17,6z M17,16H7c-2.21,0-4-1.79-4-4s1.79-4,4-4h10
			c2.21,0,4,1.79,4,4S19.21,16,17,16z"/>
		<path d="M7,9c-1.66,0-3,1.34-3,3c0,1.66,1.34,3,3,3s3-1.34,3-3C10,10.34,8.66,9,7,9z"/>
	</g>
</g>
</svg>
