<?xml version="1.0" encoding="utf-8"?>
<!-- Generator: Adobe Illustrator 19.1.0, SVG Export Plug-In . SVG Version: 6.00 Build 0)  -->
<svg version="1.1" xmlns="http://www.w3.org/2000/svg" xmlns:xlink="http://www.w3.org/1999/xlink" x="0px" y="0px" width="24px"
	 height="24px" viewBox="0 0 24 24" enable-background="new 0 0 24 24" xml:space="preserve">
<g id="Bounding_Boxes">
	<g id="ui_x5F_spec_x5F_header_copy_3">
	</g>
	<path fill="none" d="M0,0h24v24H0V0z"/>
	<path fill="none" d="M0,0h24v24H0V0z"/>
</g>
<g id="Outline">
	<g id="ui_x5F_spec_x5F_header">
	</g>
	<path d="M12,23h-1v-6.57C9.93,17.4,8.52,18,7,18c-3.25,0-6-2.75-6-6v-1h6.57C6.6,9.93,6,8.52,6,7c0-3.25,2.75-6,6-6h1v6.57
		C14.07,6.6,15.48,6,17,6c3.25,0,6,2.75,6,6v1h-6.57C17.4,14.07,18,15.48,18,17C18,20.25,15.25,23,12,23z M13,13.13v7.74
		c1.7-0.46,3-2.04,3-3.87S14.7,13.59,13,13.13z M3.13,13c0.46,1.7,2.04,3,3.87,3s3.41-1.3,3.87-3H3.13z M13.13,11h7.74
		C20.41,9.3,18.82,8,17,8S13.59,9.3,13.13,11z M11,3.13C9.3,3.59,8,5.18,8,7s1.3,3.41,3,3.87V3.13z"/>
</g>
</svg>
