<?xml version="1.0" encoding="utf-8"?>
<!-- Generator: Adobe Illustrator 19.1.0, SVG Export Plug-In . SVG Version: 6.00 Build 0)  -->
<svg version="1.1" xmlns="http://www.w3.org/2000/svg" xmlns:xlink="http://www.w3.org/1999/xlink" x="0px" y="0px" width="24px"
	 height="24px" viewBox="0 0 24 24" enable-background="new 0 0 24 24" xml:space="preserve">
<g id="Bounding_Boxes">
	<g id="ui_x5F_spec_x5F_header_copy_3">
	</g>
	<path fill="none" d="M0,0h24v24H0V0z"/>
</g>
<g id="Outline">
	<g id="ui_x5F_spec_x5F_header">
	</g>
	<path d="M19.07,4.93l-1.41,1.41C19.1,7.79,20,9.79,20,12c0,4.42-3.58,8-8,8s-8-3.58-8-8c0-4.08,3.05-7.44,7-7.93v2.02
		C8.16,6.57,6,9.03,6,12c0,3.31,2.69,6,6,6s6-2.69,6-6c0-1.66-0.67-3.16-1.76-4.24l-1.41,1.41C15.55,9.9,16,10.9,16,12
		c0,2.21-1.79,4-4,4s-4-1.79-4-4c0-1.86,1.28-3.41,3-3.86v2.14c-0.6,0.35-1,0.98-1,1.72c0,1.1,0.9,2,2,2s2-0.9,2-2
		c0-0.74-0.4-1.38-1-1.72V2h-1C6.48,2,2,6.48,2,12s4.48,10,10,10s10-4.48,10-10C22,9.24,20.88,6.74,19.07,4.93z"/>
</g>
</svg>
