<?xml version="1.0" encoding="utf-8"?>
<!-- Generator: Adobe Illustrator 19.1.0, SVG Export Plug-In . SVG Version: 6.00 Build 0)  -->
<svg version="1.1" xmlns="http://www.w3.org/2000/svg" xmlns:xlink="http://www.w3.org/1999/xlink" x="0px" y="0px" width="24px"
	 height="24px" viewBox="0 0 24 24" enable-background="new 0 0 24 24" xml:space="preserve">
<g id="Bounding_Boxes">
	<path fill="none" d="M0,0h24v24H0V0z"/>
</g>
<g id="Outline">
	<g>
		<circle cx="8.5" cy="14.5" r="1.5"/>
		<circle cx="15.5" cy="14.5" r="1.5"/>
		<path d="M12,2C8,2,4,2.5,4,6v9.5C4,17.43,5.57,19,7.5,19L6,20.5V21h2l2-2h4l2,2h2v-0.5L16.5,19c1.93,0,3.5-1.57,3.5-3.5V6
			C20,2.5,16,2,12,2z M12,4c3.51,0,4.96,0.48,5.57,1H6.43C7.04,4.48,8.49,4,12,4z M6,7h5v3H6V7z M18,15.5c0,0.83-0.67,1.5-1.5,1.5
			h-9C6.67,17,6,16.33,6,15.5V12h12V15.5z M18,10h-5V7h5V10z"/>
	</g>
	<g id="ui_x5F_spec_x5F_header">
	</g>
</g>
</svg>
