<?xml version="1.0" encoding="utf-8"?>
<!-- Generator: Adobe Illustrator 19.1.0, SVG Export Plug-In . SVG Version: 6.00 Build 0)  -->
<svg version="1.1" xmlns="http://www.w3.org/2000/svg" xmlns:xlink="http://www.w3.org/1999/xlink" x="0px" y="0px" width="24px"
	 height="24px" viewBox="0 0 24 24" enable-background="new 0 0 24 24" xml:space="preserve">
<g id="Bounding_Boxes">
	<path fill="none" d="M0,0h24v24H0V0z"/>
</g>
<g id="Outline">
	<g id="ui_x5F_spec_x5F_header">
	</g>
	<g>
		<path d="M17,10.5V7c0-0.55-0.45-1-1-1H4C3.45,6,3,6.45,3,7v10c0,0.55,0.45,1,1,1h12c0.55,0,1-0.45,1-1v-3.5l4,4v-11L17,10.5z
			 M15,16H5V8h10V16z"/>
		<polygon points="9,15 11,15 11,13 13,13 13,11 11,11 11,9 9,9 9,11 7,11 7,13 9,13 		"/>
	</g>
</g>
</svg>
