<?xml version="1.0" encoding="utf-8"?>
<!-- Generator: Adobe Illustrator 19.1.0, SVG Export Plug-In . SVG Version: 6.00 Build 0)  -->
<svg version="1.1" xmlns="http://www.w3.org/2000/svg" xmlns:xlink="http://www.w3.org/1999/xlink" x="0px" y="0px" width="24px"
	 height="24px" viewBox="0 0 24 24" enable-background="new 0 0 24 24" xml:space="preserve">
<g id="Bounding_Boxes">
	<path fill="none" d="M0,0h24v24H0V0z"/>
</g>
<g id="Outline">
	<g id="ui_x5F_spec_x5F_header">
	</g>
	<g>
		<path d="M9.56,8L9.56,8l-2-2l0,0L3.41,1.86L2,3.27L4.73,6H4C3.45,6,3,6.45,3,7v10c0,0.55,0.45,1,1,1h12
			c0.21,0,0.39-0.08,0.55-0.18L19.73,21l1.41-1.41l-8.86-8.86L9.56,8z M5,16V8h1.73l8,8H5z"/>
		<path d="M15,8v0.67v1.94l6,6V6.5l-4,4V7c0-0.55-0.45-1-1-1h-5.61l2,2H15z"/>
	</g>
</g>
</svg>
