<?xml version="1.0" encoding="utf-8"?>
<!-- Generator: Adobe Illustrator 19.1.0, SVG Export Plug-In . SVG Version: 6.00 Build 0)  -->
<svg version="1.1" xmlns="http://www.w3.org/2000/svg" xmlns:xlink="http://www.w3.org/1999/xlink" x="0px" y="0px" width="24px"
	 height="24px" viewBox="0 0 24 24" enable-background="new 0 0 24 24" xml:space="preserve">
<g id="Bounding_Boxes">
	<g id="ui_x5F_spec_x5F_header_copy_3">
	</g>
	<path fill="none" d="M0,0h24v24H0V0z"/>
</g>
<g id="Outline">
	<g id="ui_x5F_spec_x5F_header">
	</g>
	<g>
		<path d="M21,6H3C1.9,6,1,6.9,1,8v8c0,1.1,0.9,2,2,2h18c1.1,0,2-0.9,2-2V8C23,6.9,22.1,6,21,6z M21,16H3V8h18V16z"/>
		<polygon points="6,15 8,15 8,13 10,13 10,11 8,11 8,9 6,9 6,11 4,11 4,13 6,13 		"/>
		<circle cx="14.5" cy="13.5" r="1.5"/>
		<circle cx="18.5" cy="10.5" r="1.5"/>
	</g>
</g>
</svg>
