<?xml version="1.0" encoding="utf-8"?>
<!-- Generator: Adobe Illustrator 19.1.0, SVG Export Plug-In . SVG Version: 6.00 Build 0)  -->
<svg version="1.1" xmlns="http://www.w3.org/2000/svg" xmlns:xlink="http://www.w3.org/1999/xlink" x="0px" y="0px" width="24px"
	 height="24px" viewBox="0 0 24 24" enable-background="new 0 0 24 24" xml:space="preserve">
<g id="Bounding_Boxes">
	<g id="ui_x5F_spec_x5F_header_copy_2">
	</g>
	<path fill="none" d="M0,0h24v24H0V0z"/>
</g>
<g id="Outline">
	<g id="ui_x5F_spec_x5F_header">
	</g>
	<path d="M22,19h-6v-4h-2.68c-1.14,2.42-3.6,4-6.32,4c-3.86,0-7-3.14-7-7s3.14-7,7-7c2.72,0,5.17,1.58,6.32,4H24v6h-2V19z M18,17h2
		v-4h2v-2H11.94l-0.23-0.67C11.01,8.34,9.11,7,7,7c-2.76,0-5,2.24-5,5s2.24,5,5,5c2.11,0,4.01-1.34,4.71-3.33L11.94,13H18V17z M7,15
		c-1.65,0-3-1.35-3-3s1.35-3,3-3s3,1.35,3,3S8.65,15,7,15z M7,11c-0.55,0-1,0.45-1,1s0.45,1,1,1s1-0.45,1-1S7.55,11,7,11z"/>
</g>
</svg>
