<?xml version="1.0" encoding="utf-8"?>
<!-- Generator: Adobe Illustrator 19.1.0, SVG Export Plug-In . SVG Version: 6.00 Build 0)  -->
<svg version="1.1" xmlns="http://www.w3.org/2000/svg" xmlns:xlink="http://www.w3.org/1999/xlink" x="0px" y="0px" width="24px"
	 height="24px" viewBox="0 0 24 24" enable-background="new 0 0 24 24" xml:space="preserve">
<g id="Bounding_Boxes">
	<g id="ui_x5F_spec_x5F_header_copy_3">
	</g>
	<path fill="none" d="M0,0h24v24H0V0z"/>
</g>
<g id="Outline">
	<g id="ui_x5F_spec_x5F_header">
	</g>
	<path d="M4,4h7V2H4C2.9,2,2,2.9,2,4v7h2V4z M10,13l-4,5h12l-3-4l-2.03,2.71L10,13z M17,8.5C17,7.67,16.33,7,15.5,7S14,7.67,14,8.5
		s0.67,1.5,1.5,1.5S17,9.33,17,8.5z M20,2h-7v2h7v7h2V4C22,2.9,21.1,2,20,2z M20,20h-7v2h7c1.1,0,2-0.9,2-2v-7h-2V20z M4,13H2v7
		c0,1.1,0.9,2,2,2h7v-2H4V13z"/>
</g>
</svg>
