<?xml version="1.0" encoding="utf-8"?>
<!-- Generator: Adobe Illustrator 19.1.0, SVG Export Plug-In . SVG Version: 6.00 Build 0)  -->
<svg version="1.1" xmlns="http://www.w3.org/2000/svg" xmlns:xlink="http://www.w3.org/1999/xlink" x="0px" y="0px" width="24px"
	 height="24px" viewBox="0 0 24 24" enable-background="new 0 0 24 24" xml:space="preserve">
<g id="Bounding_Boxes">
	<g id="ui_x5F_spec_x5F_header_copy_3">
	</g>
	<path fill="none" d="M0,0h24v24H0V0z"/>
</g>
<g id="Outline">
	<g id="ui_x5F_spec_x5F_header">
	</g>
	<path d="M14.31,2l0.41,2.48C13.87,4.17,12.96,4,12,4c-0.95,0-1.87,0.17-2.71,0.47L9.7,2H14.31 M14.72,19.52L14.31,22H9.7
		l-0.41-2.47C10.13,19.83,11.05,20,12,20C12.96,20,13.87,19.83,14.72,19.52 M16,0H8L7.05,5.73C5.19,7.19,4,9.45,4,12
		s1.19,4.81,3.05,6.27L8,24h8l0.96-5.73C18.81,16.81,20,14.54,20,12s-1.19-4.81-3.04-6.27L16,0L16,0z M12,18c-3.31,0-6-2.69-6-6
		s2.69-6,6-6s6,2.69,6,6S15.31,18,12,18L12,18z"/>
</g>
</svg>
