<?xml version="1.0" encoding="utf-8"?>
<!-- Generator: Adobe Illustrator 19.1.0, SVG Export Plug-In . SVG Version: 6.00 Build 0)  -->
<svg version="1.1" xmlns="http://www.w3.org/2000/svg" xmlns:xlink="http://www.w3.org/1999/xlink" x="0px" y="0px" width="24px"
	 height="24px" viewBox="0 0 24 24" enable-background="new 0 0 24 24" xml:space="preserve">
<g id="Bounding_Boxes">
	<g id="ui_x5F_spec_x5F_header_copy_2">
	</g>
	<path fill="none" d="M0,0h24v24H0V0z"/>
</g>
<g id="Outline">
	<g id="ui_x5F_spec_x5F_header">
	</g>
	<path d="M12.01,6c2.61,0,4.89,1.86,5.4,4.43l0.3,1.5l1.52,0.11c1.56,0.11,2.78,1.41,2.78,2.96c0,1.65-1.35,3-3,3h-13
		c-2.21,0-4-1.79-4-4c0-2.05,1.53-3.76,3.56-3.97l1.07-0.11l0.5-0.95C8.08,7.14,9.95,6,12.01,6 M12.01,4C9.12,4,6.6,5.64,5.35,8.04
		C2.35,8.36,0.01,10.91,0.01,14c0,3.31,2.69,6,6,6h13c2.76,0,5-2.24,5-5c0-2.64-2.05-4.78-4.64-4.96C18.68,6.59,15.65,4,12.01,4
		L12.01,4z"/>
</g>
</svg>
