<?xml version="1.0" encoding="utf-8"?>
<!-- Generator: Adobe Illustrator 19.1.0, SVG Export Plug-In . SVG Version: 6.00 Build 0)  -->
<svg version="1.1" xmlns="http://www.w3.org/2000/svg" xmlns:xlink="http://www.w3.org/1999/xlink" x="0px" y="0px" width="24px"
	 height="24px" viewBox="0 0 24 24" enable-background="new 0 0 24 24" xml:space="preserve">
<g id="Bounding_Boxes">
	<g id="ui_x5F_spec_x5F_header_copy_2">
	</g>
	<path fill="none" d="M0,0h24v24H0V0z"/>
</g>
<g id="Outline">
	<g id="ui_x5F_spec_x5F_header">
	</g>
	<g>
		<polygon points="6.76,4.84 4.96,3.05 3.55,4.46 5.34,6.25 		"/>
		<rect x="1" y="10.5" width="3" height="2"/>
		<rect x="11" y="0.55" width="2" height="2.95"/>
		<rect x="17.85" y="3.38" transform="matrix(0.7071 0.7071 -0.7071 0.7071 8.8087 -11.9668)" width="1.99" height="2.53"/>
		<polygon points="17.24,18.16 19.03,19.96 20.44,18.55 18.64,16.76 		"/>
		<rect x="20" y="10.5" width="3" height="2"/>
		<path d="M12,5.5c-3.31,0-6,2.69-6,6s2.69,6,6,6s6-2.69,6-6S15.31,5.5,12,5.5z M12,15.5c-2.21,0-4-1.79-4-4s1.79-4,4-4
			c2.21,0,4,1.79,4,4S14.21,15.5,12,15.5z"/>
		<rect x="11" y="19.5" width="2" height="2.95"/>
		<polygon points="3.55,18.54 4.96,19.95 6.75,18.15 5.34,16.74 		"/>
	</g>
</g>
</svg>
