<?xml version="1.0" encoding="utf-8"?>
<!-- Generator: Adobe Illustrator 19.1.0, SVG Export Plug-In . SVG Version: 6.00 Build 0)  -->
<svg version="1.1" xmlns="http://www.w3.org/2000/svg" xmlns:xlink="http://www.w3.org/1999/xlink" x="0px" y="0px" width="24px"
	 height="24px" viewBox="0 0 24 24" enable-background="new 0 0 24 24" xml:space="preserve">
<g id="Bounding_Boxes">
	<g id="ui_x5F_spec_x5F_header_copy_3" display="none">
	</g>
	<path fill="none" d="M0,0h24v24H0V0z"/>
</g>
<g id="Outline">
	<g id="ui_x5F_spec_x5F_header" display="none">
	</g>
	<g>
		<path d="M12,1C7.59,1,4,4.59,4,9c0,5.57,6.96,13.34,7.26,13.67L12,23.49l0.74-0.82C13.04,22.34,20,14.57,20,9
			C20,4.59,16.41,1,12,1z M12,20.47C9.82,17.86,6,12.54,6,9c0-3.31,2.69-6,6-6s6,2.69,6,6C18,12.83,13.75,18.36,12,20.47z"/>
		<polygon points="10.47,11.17 8.71,9.4 7.29,10.82 10.47,14 16.48,7.99 15.07,6.57 		"/>
	</g>
</g>
</svg>
