<?xml version="1.0" encoding="utf-8"?>
<!-- Generator: Adobe Illustrator 19.1.0, SVG Export Plug-In . SVG Version: 6.00 Build 0)  -->
<svg version="1.1" xmlns="http://www.w3.org/2000/svg" xmlns:xlink="http://www.w3.org/1999/xlink" x="0px" y="0px" width="24px"
	 height="24px" viewBox="0 0 24 24" enable-background="new 0 0 24 24" xml:space="preserve">
<g id="Bounding_Boxes">
	<g id="ui_x5F_spec_x5F_header_copy_3">
	</g>
	<path fill="none" d="M0,0h24v24H0V0z"/>
</g>
<g id="Outline">
	<g id="ui_x5F_spec_x5F_header">
	</g>
	<path d="M16.66,4.52l2.83,2.83l-2.83,2.83l-2.83-2.83L16.66,4.52 M9,5v4H5V5H9 M19,15v4h-4v-4H19 M9,15v4H5v-4H9 M16.66,1.69
		L11,7.34L16.66,13l5.66-5.66L16.66,1.69L16.66,1.69z M11,3H3v8h8V7.34V3L11,3z M21,13h-4.34H13v8h8V13L21,13z M11,13H3v8h8V13
		L11,13z"/>
</g>
</svg>
