<?xml version="1.0" encoding="utf-8"?>
<!-- Generator: Adobe Illustrator 19.1.0, SVG Export Plug-In . SVG Version: 6.00 Build 0)  -->
<svg version="1.1" xmlns="http://www.w3.org/2000/svg" xmlns:xlink="http://www.w3.org/1999/xlink" x="0px" y="0px" width="24px"
	 height="24px" viewBox="0 0 24 24" enable-background="new 0 0 24 24" xml:space="preserve">
<g id="Bounding_Boxes">
	<g id="ui_x5F_spec_x5F_header_copy_3">
	</g>
	<path fill="none" d="M0,0h24v24H0V0z"/>
</g>
<g id="Outline">
	<g id="ui_x5F_spec_x5F_header">
	</g>
	<path d="M12,11c-1.1,0-2,0.9-2,2s0.9,2,2,2s2-0.9,2-2S13.1,11,12,11z M18,13c0-3.31-2.69-6-6-6s-6,2.69-6,6
		c0,2.22,1.21,4.15,3,5.19l1-1.74c-1.19-0.7-2-1.97-2-3.45c0-2.21,1.79-4,4-4s4,1.79,4,4c0,1.48-0.81,2.75-2,3.45l1,1.74
		C16.79,17.15,18,15.22,18,13z M12,3C6.48,3,2,7.48,2,13c0,3.7,2.01,6.92,4.99,8.65l1-1.73C5.61,18.53,4,15.96,4,13
		c0-4.42,3.58-8,8-8s8,3.58,8,8c0,2.96-1.61,5.53-4,6.92l1,1.73c2.99-1.73,5-4.95,5-8.65C22,7.48,17.52,3,12,3z"/>
</g>
</svg>
