<?xml version="1.0" encoding="utf-8"?>
<!-- Generator: Adobe Illustrator 19.1.0, SVG Export Plug-In . SVG Version: 6.00 Build 0)  -->
<svg version="1.1" xmlns="http://www.w3.org/2000/svg" xmlns:xlink="http://www.w3.org/1999/xlink" x="0px" y="0px" width="24px"
	 height="24px" viewBox="0 0 24 24" enable-background="new 0 0 24 24" xml:space="preserve">
<g id="Bounding_Boxes">
	<g id="ui_x5F_spec_x5F_header_copy_3">
	</g>
	<path fill="none" d="M0,0h24v24H0V0z"/>
</g>
<g id="Outline">
	<g id="ui_x5F_spec_x5F_header">
	</g>
	<g>
		<path d="M20,6h-4V4c0-1.11-0.89-2-2-2h-4C8.89,2,8,2.89,8,4v2H4C2.89,6,2.01,6.89,2.01,8L2,19c0,1.11,0.89,2,2,2h16
			c1.11,0,2-0.89,2-2V8C22,6.89,21.11,6,20,6z M14,6h-4V4h4V6z"/>
	</g>
</g>
</svg>
