<?xml version="1.0" encoding="utf-8"?>
<!-- Generator: Adobe Illustrator 19.1.0, SVG Export Plug-In . SVG Version: 6.00 Build 0)  -->
<svg version="1.1" xmlns="http://www.w3.org/2000/svg" xmlns:xlink="http://www.w3.org/1999/xlink" x="0px" y="0px" width="24px"
	 height="24px" viewBox="0 0 24 24" enable-background="new 0 0 24 24" xml:space="preserve">
<g id="Header_x2F_BG" display="none">
	<rect x="-226" y="-50" display="inline" fill="#F1F1F2" width="520" height="520"/>
</g>
<g id="Bounding_Boxes">
	<g id="ui_x5F_spec_x5F_header_copy_3">
	</g>
	<path fill="none" d="M0,0h24v24H0V0z"/>
</g>
<g id="Rounded" display="none">
	<g id="ui_x5F_spec_x5F_header_copy_5" display="inline">
	</g>
	<g display="inline">
		<circle cx="18" cy="4.54" r="2"/>
		<path d="M15,17h-2c0,1.65-1.35,3-3,3s-3-1.35-3-3s1.35-3,3-3v-2c-2.76,0-5,2.24-5,5s2.24,5,5,5S15,19.76,15,17z M18,13.5h-1.86
			l1.67-3.67C18.42,8.5,17.44,7,15.96,7h-5.2C9.95,7,9.22,7.47,8.89,8.2L8.61,8.96c-0.21,0.56,0.11,1.17,0.68,1.33l0,0
			c0.49,0.14,1-0.11,1.2-0.58L10.79,9H13l-1.83,4.1c-0.6,1.33,0.39,2.9,1.85,2.9H18v4c0,0.55,0.45,1,1,1h0c0.55,0,1-0.45,1-1v-4.5
			C20,14.4,19.1,13.5,18,13.5z"/>
	</g>
</g>
<g id="Sharp" display="none">
	<g id="ui_x5F_spec_x5F_header_copy_4" display="inline">
	</g>
	<g display="inline">
		<circle cx="18" cy="4.54" r="2"/>
		<path d="M15,17h-2c0,1.65-1.35,3-3,3s-3-1.35-3-3s1.35-3,3-3v-2c-2.76,0-5,2.24-5,5s2.24,5,5,5S15,19.76,15,17z M20,13.5h-3.86
			l1.67-3.67C18.42,8.5,17.44,7,15.96,7h-5.2C9.95,7,9.22,7.47,8.89,8.2L8.22,10l1.92,0.53L10.79,9H13l-3.12,7H18v5h2V13.5z"/>
	</g>
</g>
<g id="Outline" display="none">
	<g id="ui_x5F_spec_x5F_header" display="inline">
	</g>
	<g display="inline">
		<circle cx="18" cy="4.54" r="2"/>
		<path d="M15,17h-2c0,1.65-1.35,3-3,3s-3-1.35-3-3s1.35-3,3-3v-2c-2.76,0-5,2.24-5,5s2.24,5,5,5S15,19.76,15,17z M18,13.5h-1.86
			l1.67-3.67C18.42,8.5,17.44,7,15.96,7h-5.2C9.95,7,9.22,7.47,8.89,8.2L8.22,10l1.92,0.53L10.79,9H13l-1.83,4.1
			c-0.6,1.33,0.39,2.9,1.85,2.9H18v5h2v-5.5C20,14.4,19.1,13.5,18,13.5z"/>
	</g>
</g>
<g id="Duotone">
	<g id="ui_x5F_spec_x5F_header_copy_2">
	</g>
	<g>
		<circle cx="18" cy="4.54" r="2"/>
		<path d="M15,17h-2c0,1.65-1.35,3-3,3s-3-1.35-3-3s1.35-3,3-3v-2c-2.76,0-5,2.24-5,5s2.24,5,5,5S15,19.76,15,17z M18,13.5h-1.86
			l1.67-3.67C18.42,8.5,17.44,7,15.96,7h-5.2C9.95,7,9.22,7.47,8.89,8.2L8.22,10l1.92,0.53L10.79,9H13l-1.83,4.1
			c-0.6,1.33,0.39,2.9,1.85,2.9H18v5h2v-5.5C20,14.4,19.1,13.5,18,13.5z"/>
	</g>
</g>
<g id="Fill" display="none">
	<g id="ui_x5F_spec_x5F_header_copy" display="inline">
	</g>
	<g display="inline">
		<circle cx="18" cy="4.54" r="2"/>
		<path d="M15,17h-2c0,1.65-1.35,3-3,3s-3-1.35-3-3s1.35-3,3-3v-2c-2.76,0-5,2.24-5,5s2.24,5,5,5S15,19.76,15,17z M18,13.5h-1.86
			l1.67-3.67C18.42,8.5,17.44,7,15.96,7h-5.2C9.95,7,9.22,7.47,8.89,8.2L8.22,10l1.92,0.53L10.79,9H13l-1.83,4.1
			c-0.6,1.33,0.39,2.9,1.85,2.9H18v5h2v-5.5C20,14.4,19.1,13.5,18,13.5z"/>
	</g>
</g>
<g id="nyt_x5F_exporter_x5F_info" display="none">
	<g display="inline">
	</g>
</g>
</svg>
