<?xml version="1.0" encoding="utf-8"?>
<!-- Generator: Adobe Illustrator 19.1.0, SVG Export Plug-In . SVG Version: 6.00 Build 0)  -->
<svg version="1.1" xmlns="http://www.w3.org/2000/svg" xmlns:xlink="http://www.w3.org/1999/xlink" x="0px" y="0px" width="24px"
	 height="24px" viewBox="0 0 24 24" enable-background="new 0 0 24 24" xml:space="preserve">
<g id="Bounding_Boxes">
	<g id="ui_x5F_spec_x5F_header_copy_3">
	</g>
	<path fill="none" d="M0,0h24v24H0V0z"/>
</g>
<g id="Duotone">
	<g id="ui_x5F_spec_x5F_header_copy_2">
	</g>
	<g>
		<path opacity="0.3" d="M12,6c-3.9,0-7,3.1-7,7c0,3.9,3.1,7,7,7s7-3.1,7-7C19,9.1,15.9,6,12,6z M15.7,16.9L11,14V8h1.5v5.3l4,2.4
			L15.7,16.9z"/>
		<polygon points="22,5.7 17.4,1.8 16.1,3.3 20.7,7.2 		"/>
		<polygon points="12.5,8 11,8 11,14 15.7,16.9 16.5,15.7 12.5,13.3 		"/>
		<path d="M12,4c-5,0-9,4-9,9s4,9,9,9s9-4,9-9S17,4,12,4z M12,20c-3.9,0-7-3.1-7-7c0-3.9,3.1-7,7-7s7,3.1,7,7C19,16.9,15.9,20,12,20
			z"/>
		<polygon points="7.9,3.4 6.6,1.9 2,5.7 3.3,7.2 		"/>
	</g>
</g>
</svg>
