<?xml version="1.0" encoding="utf-8"?>
<!-- Generator: Adobe Illustrator 19.1.0, SVG Export Plug-In . SVG Version: 6.00 Build 0)  -->
<svg version="1.1" xmlns="http://www.w3.org/2000/svg" xmlns:xlink="http://www.w3.org/1999/xlink" x="0px" y="0px" width="24px"
	 height="24px" viewBox="0 0 24 24" enable-background="new 0 0 24 24" xml:space="preserve">
<g id="Bounding_Boxes">
	<path fill="none" d="M0,0h24v24H0V0z"/>
</g>
<g id="Duotone">
	<g id="ui_x5F_spec_x5F_header_copy_2">
	</g>
	<g>
		<path opacity="0.3" d="M17,9c0-2.76-2.24-5-5-5S7,6.24,7,9c0,2.85,2.92,7.21,5,9.88C14.12,16.19,17,11.88,17,9z M9,10V8h2V6h2v2h2
			v2h-2v2h-2v-2H9z"/>
		<path d="M19,9c0-3.86-3.14-7-7-7S5,5.14,5,9c0,5.25,7,13,7,13S19,14.25,19,9z M12,4c2.76,0,5,2.24,5,5c0,2.88-2.88,7.19-5,9.88
			C9.92,16.21,7,11.85,7,9C7,6.24,9.24,4,12,4z"/>
		<polygon points="13,12 13,10 15,10 15,8 13,8 13,6 11,6 11,8 9,8 9,10 11,10 11,12 		"/>
	</g>
</g>
</svg>
