<?xml version="1.0" encoding="utf-8"?>
<!-- Generator: Adobe Illustrator 19.1.0, SVG Export Plug-In . SVG Version: 6.00 Build 0)  -->
<svg version="1.1" xmlns="http://www.w3.org/2000/svg" xmlns:xlink="http://www.w3.org/1999/xlink" x="0px" y="0px" width="24px"
	 height="24px" viewBox="0 0 24 24" enable-background="new 0 0 24 24" xml:space="preserve">
<g id="Bounding_Boxes">
	<g id="ui_x5F_spec_x5F_header_copy_3">
	</g>
	<path fill="none" d="M0,0h24v24H0V0z"/>
</g>
<g id="Duotone">
	<g id="ui_x5F_spec_x5F_header_copy_5">
	</g>
	<g>
		<polygon points="10.21,16.83 8.25,14.47 5.5,18 16.5,18 12.96,13.29 		"/>
		<path opacity="0.3" d="M16.5,18h-11l2.75-3.53l1.96,2.36l2.75-3.54L16.5,18z M17,7h-3V6H4v14h14V10h-1V7z"/>
		<g>
			<polygon points="20,4 20,1 18,1 18,4 15,4 15,6 18,6 18,8.99 20,8.99 20,6 23,6 23,4 			"/>
		</g>
		<path d="M18,20H4V6h10V4H4C2.9,4,2,4.9,2,6v14c0,1.1,0.9,2,2,2h14c1.1,0,2-0.9,2-2V10h-2V20z"/>
	</g>
</g>
</svg>
