<?xml version="1.0" encoding="utf-8"?>
<!-- Generator: Adobe Illustrator 19.1.0, SVG Export Plug-In . SVG Version: 6.00 Build 0)  -->
<svg version="1.1" xmlns="http://www.w3.org/2000/svg" xmlns:xlink="http://www.w3.org/1999/xlink" x="0px" y="0px" width="24px"
	 height="24px" viewBox="0 0 24 24" enable-background="new 0 0 24 24" xml:space="preserve">
<g id="Bounding_Boxes">
	<g id="ui_x5F_spec_x5F_header_copy_3">
	</g>
	<path fill="none" d="M0,0h24v24H0V0z"/>
</g>
<g id="Duotone">
	<g id="ui_x5F_spec_x5F_header_copy_2">
	</g>
	<path d="M18,1.01L8,1C6.9,1,6,1.9,6,3v3h2V5h10v14H8v-1H6v3c0,1.1,0.9,2,2,2h10c1.1,0,2-0.9,2-2V3C20,1.9,19.1,1.01,18,1.01z
		 M10,15h2V8H5v2h3.59L3,15.59L4.41,17L10,11.41V15z"/>
</g>
</svg>
