<?xml version="1.0" encoding="utf-8"?>
<!-- Generator: Adobe Illustrator 19.1.0, SVG Export Plug-In . SVG Version: 6.00 Build 0)  -->
<svg version="1.1" xmlns="http://www.w3.org/2000/svg" xmlns:xlink="http://www.w3.org/1999/xlink" x="0px" y="0px" width="24px"
	 height="24px" viewBox="0 0 24 24" enable-background="new 0 0 24 24" xml:space="preserve">
<g id="Bounding_Boxes">
	<g id="ui_x5F_spec_x5F_header_copy_3">
	</g>
	<path fill="none" d="M0,0h24v24H0V0z"/>
</g>
<g id="Duotone">
	<g id="ui_x5F_spec_x5F_header_copy_2">
	</g>
	<g>
		<path d="M20,2H4C2.9,2,2,2.9,2,4v12c0,1.1,0.9,2,2,2h14l4,4V4C22,2.9,21.1,2,20,2z M20,17.17L18.83,16H4V4h16V17.17z"/>
		<polygon points="13,5 11,5 11,9 7,9 7,11 11,11 11,15 13,15 13,11 17,11 17,9 13,9 		"/>
		<path opacity="0.3" d="M4,4v12h14.83L20,17.17V4H4z M17,11h-4v4h-2v-4H7V9h4V5h2v4h4V11z"/>
	</g>
</g>
</svg>
