<?xml version="1.0" encoding="utf-8"?>
<!-- Generator: Adobe Illustrator 19.1.0, SVG Export Plug-In . SVG Version: 6.00 Build 0)  -->
<svg version="1.1" xmlns="http://www.w3.org/2000/svg" xmlns:xlink="http://www.w3.org/1999/xlink" x="0px" y="0px" width="24px"
	 height="24px" viewBox="0 0 24 24" enable-background="new 0 0 24 24" xml:space="preserve">
<g id="Bounding_Boxes">
	<path fill="none" d="M0,0h24v24H0V0z"/>
</g>
<g id="Duotone">
	<g id="ui_x5F_spec_x5F_header_copy">
	</g>
	<g>
		<path opacity="0.3" d="M3,17h18V5H3V17z M8,10h3V7h2v3h3v2h-3v3h-2v-3H8V10z"/>
		<polygon points="11,15 13,15 13,12 16,12 16,10 13,10 13,7 11,7 11,10 8,10 8,12 11,12 		"/>
		<path d="M21,3H3C1.89,3,1,3.89,1,5v12c0,1.1,0.89,2,2,2h5v2h8v-2h5c1.1,0,2-0.9,2-2V5C23,3.89,22.1,3,21,3z M21,17H3V5h18V17z"/>
	</g>
</g>
</svg>
