<?xml version="1.0" encoding="utf-8"?>
<!-- Generator: Adobe Illustrator 19.1.0, SVG Export Plug-In . SVG Version: 6.00 Build 0)  -->
<svg version="1.1" xmlns="http://www.w3.org/2000/svg" xmlns:xlink="http://www.w3.org/1999/xlink" x="0px" y="0px" width="24px"
	 height="24px" viewBox="0 0 24 24" enable-background="new 0 0 24 24" xml:space="preserve">
<g id="Bounding_Boxes">
	<g id="ui_x5F_spec_x5F_header_copy_3">
	</g>
	<path fill="none" d="M0,0h24v24H0V0z"/>
</g>
<g id="Duotone">
	<g id="ui_x5F_spec_x5F_header_copy_5">
	</g>
	<g>
		<path opacity="0.3" d="M20,4H8v12h12V4z M19,11h-4v4h-2v-4H9V9h4V5h2v4h4V11z"/>
		<path d="M4,22h14v-2H4V6H2v14C2,21.1,2.9,22,4,22z"/>
		<path d="M8,18h12c1.1,0,2-0.9,2-2V4c0-1.1-0.9-2-2-2H8C6.9,2,6,2.9,6,4v12C6,17.1,6.9,18,8,18z M8,4h12v12H8V4z"/>
		<polygon points="15,5 13,5 13,9 9,9 9,11 13,11 13,15 15,15 15,11 19,11 19,9 15,9 		"/>
	</g>
</g>
</svg>
