<?xml version="1.0" encoding="utf-8"?>
<!-- Generator: Adobe Illustrator 19.1.0, SVG Export Plug-In . SVG Version: 6.00 Build 0)  -->
<svg version="1.1" xmlns="http://www.w3.org/2000/svg" xmlns:xlink="http://www.w3.org/1999/xlink" x="0px" y="0px" width="24px"
	 height="24px" viewBox="0 0 24 24" enable-background="new 0 0 24 24" xml:space="preserve">
<g id="Bounding_Boxes">
	<g id="ui_x5F_spec_x5F_header_copy_2">
	</g>
	<path fill="none" d="M0,0h24v24H0V0z"/>
</g>
<g id="Duotone">
	<g id="ui_x5F_spec_x5F_header_copy">
	</g>
	<g>
		<path d="M19.97,19.2c0.18,0.96-0.55,1.8-1.47,1.8H14v-3l1-4H9c-1.65,0-3-1.35-3-3V3h6v6h5c1.1,0,2,0.9,2,2l-2,7h1.44
			C19.17,18,19.83,18.49,19.97,19.2z M5,12V3H3v9c0,2.76,2.24,5,5,5h4v-2H8C6.34,15,5,13.66,5,12z"/>
	</g>
</g>
</svg>
