<?xml version="1.0" encoding="utf-8"?>
<!-- Generator: Adobe Illustrator 19.1.0, SVG Export Plug-In . SVG Version: 6.00 Build 0)  -->
<svg version="1.1" xmlns="http://www.w3.org/2000/svg" xmlns:xlink="http://www.w3.org/1999/xlink" x="0px" y="0px" width="24px"
	 height="24px" viewBox="0 0 24 24" enable-background="new 0 0 24 24" xml:space="preserve">
<g id="Bounding_Boxes">
	<path fill="none" d="M0,0h24v24H0V0z"/>
</g>
<g id="Duotone">
	<g id="ui_x5F_spec_x5F_header_copy" display="none">
	</g>
	<g>
		<path opacity="0.3" d="M3,14h0.78c0.55-0.61,1.34-1,2.22-1s1.67,0.39,2.22,1h7.56c0.55-0.61,1.34-1,2.22-1s1.67,0.39,2.22,1H21v-2
			H3V14z"/>
		<path d="M17,5H3C1.9,5,1,5.89,1,7v9h2c0,1.66,1.34,3,3,3s3-1.34,3-3h6c0,1.66,1.34,3,3,3s3-1.34,3-3h2v-5L17,5z M15,7h1l3,3h-4V7z
			 M9,7h4v3H9V7z M3,7h4v3H3V7z M6,17.25c-0.69,0-1.25-0.56-1.25-1.25S5.31,14.75,6,14.75S7.25,15.31,7.25,16S6.69,17.25,6,17.25z
			 M18,17.25c-0.69,0-1.25-0.56-1.25-1.25s0.56-1.25,1.25-1.25s1.25,0.56,1.25,1.25S18.69,17.25,18,17.25z M21,14h-0.78
			c-0.55-0.61-1.34-1-2.22-1s-1.67,0.39-2.22,1H8.22C7.67,13.39,6.89,13,6,13s-1.67,0.39-2.22,1H3v-2h18V14z"/>
	</g>
</g>
</svg>
