<?xml version="1.0" encoding="utf-8"?>
<!-- Generator: Adobe Illustrator 19.1.0, SVG Export Plug-In . SVG Version: 6.00 Build 0)  -->
<svg version="1.1" xmlns="http://www.w3.org/2000/svg" xmlns:xlink="http://www.w3.org/1999/xlink" x="0px" y="0px" width="24px"
	 height="24px" viewBox="0 0 24 24" enable-background="new 0 0 24 24" xml:space="preserve">
<g id="Bounding_Boxes">
	<path fill="none" d="M0,0h24v24H0V0z"/>
</g>
<g id="Duotone">
	<g id="ui_x5F_spec_x5F_header_copy">
	</g>
	<g>
		<path opacity="0.3" d="M12,4c-4.41,0-8,3.59-8,8c0,4.41,3.59,8,8,8s8-3.59,8-8C20,7.59,16.41,4,12,4z M12,16.5
			c-2.49,0-4.5-2.01-4.5-4.5S9.51,7.5,12,7.5s4.5,2.01,4.5,4.5S14.49,16.5,12,16.5z"/>
		<path d="M12,2C6.48,2,2,6.48,2,12c0,5.52,4.48,10,10,10s10-4.48,10-10C22,6.48,17.52,2,12,2z M12,20c-4.41,0-8-3.59-8-8
			c0-4.41,3.59-8,8-8s8,3.59,8,8C20,16.41,16.41,20,12,20z"/>
		<path d="M12,7.5c-2.49,0-4.5,2.01-4.5,4.5s2.01,4.5,4.5,4.5s4.5-2.01,4.5-4.5S14.49,7.5,12,7.5z M12,13c-0.55,0-1-0.45-1-1
			s0.45-1,1-1s1,0.45,1,1S12.55,13,12,13z"/>
	</g>
</g>
</svg>
