<?xml version="1.0" encoding="utf-8"?>
<!-- Generator: Adobe Illustrator 19.1.0, SVG Export Plug-In . SVG Version: 6.00 Build 0)  -->
<svg version="1.1" xmlns="http://www.w3.org/2000/svg" xmlns:xlink="http://www.w3.org/1999/xlink" x="0px" y="0px" width="24px"
	 height="24px" viewBox="0 0 24 24" enable-background="new 0 0 24 24" xml:space="preserve">
<g id="Bounding_Boxes">
	<path fill="none" d="M0,0h24v24H0V0z"/>
</g>
<g id="Duotone">
	<g id="ui_x5F_spec_x5F_header_copy">
	</g>
	<g>
		<rect x="14" y="7" width="8" height="2"/>
		<rect x="14" y="11" width="8" height="2"/>
		<rect x="14" y="15" width="8" height="2"/>
		<path d="M4,17h6c1.1,0,2-0.9,2-2V9c0-1.1-0.9-2-2-2H4C2.9,7,2,7.9,2,9v6C2,16.1,2.9,17,4,17z M5.25,12.75l1.25,1.51L8.25,12
			l2.25,3h-7L5.25,12.75z"/>
	</g>
</g>
</svg>
