<?xml version="1.0" encoding="utf-8"?>
<!-- Generator: Adobe Illustrator 19.1.0, SVG Export Plug-In . SVG Version: 6.00 Build 0)  -->
<svg version="1.1" xmlns="http://www.w3.org/2000/svg" xmlns:xlink="http://www.w3.org/1999/xlink" x="0px" y="0px" width="24px"
	 height="24px" viewBox="0 0 24 24" enable-background="new 0 0 24 24" xml:space="preserve">
<g id="Bounding_Boxes">
	<g id="ui_x5F_spec_x5F_header_copy_3">
	</g>
	<path fill="none" d="M0,0h24v24H0V0z"/>
</g>
<g id="Duotone">
	<g id="ui_x5F_spec_x5F_header_copy_5">
	</g>
	<g>
		<path opacity="0.3" d="M9.83,18l0.59,0.59L12,20.17l1.59-1.59L14.17,18H15h4V4H5v14h4H9.83z M10.12,9.12L12,5l1.88,4.12L18,11
			l-4.12,1.88L12,17l-1.88-4.12L6,11L10.12,9.12z"/>
		<path d="M5,20h4l3,3l3-3h4c1.1,0,2-0.9,2-2V4c0-1.1-0.9-2-2-2H5C3.9,2,3,2.9,3,4v14C3,19.1,3.9,20,5,20z M5,4h14v14h-4h-0.83
			l-0.59,0.59L12,20.17l-1.59-1.59L9.83,18H9H5V4z"/>
		<polygon points="12,17 13.88,12.88 18,11 13.88,9.12 12,5 10.12,9.12 6,11 10.12,12.88 		"/>
	</g>
</g>
</svg>
