<?xml version="1.0" encoding="utf-8"?>
<!-- Generator: Adobe Illustrator 19.1.0, SVG Export Plug-In . SVG Version: 6.00 Build 0)  -->
<svg version="1.1" xmlns="http://www.w3.org/2000/svg" xmlns:xlink="http://www.w3.org/1999/xlink" x="0px" y="0px" width="24px"
	 height="24px" viewBox="0 0 24 24" enable-background="new 0 0 24 24" xml:space="preserve">
<g id="Bounding_Boxes">
	<path fill="none" d="M0,0h24v24H0V0z"/>
</g>
<g id="Duotone">
	<g id="ui_x5F_spec_x5F_header_copy_2">
	</g>
	<g>
		<path d="M3.5,13.5h2V15H7v-5c0-0.55-0.45-1-1-1H3c-0.55,0-1,0.45-1,1v5h1.5V13.5z M3.5,10.5h2V12h-2V10.5z"/>
		<path d="M17,10.5h1V14h1.5v-3.51h1V15H22v-5c0-0.55-0.45-1-1-1h-4.5c-0.55,0-1,0.45-1,1v5H17V10.5z"/>
		<polygon points="10.25,15 11.75,15 11.75,10.5 14,10.5 14,9 8,9 8,10.5 10.25,10.5 		"/>
	</g>
</g>
</svg>
