<?xml version="1.0" encoding="utf-8"?>
<!-- Generator: Adobe Illustrator 19.1.0, SVG Export Plug-In . SVG Version: 6.00 Build 0)  -->
<svg version="1.1" xmlns="http://www.w3.org/2000/svg" xmlns:xlink="http://www.w3.org/1999/xlink" x="0px" y="0px" width="24px"
	 height="24px" viewBox="0 0 24 24" enable-background="new 0 0 24 24" xml:space="preserve">
<g id="Bounding_Boxes">
	<g id="ui_x5F_spec_x5F_header_copy_3">
	</g>
	<path fill="none" d="M0,0h24v24H0V0z"/>
</g>
<g id="Duotone">
	<g id="ui_x5F_spec_x5F_header_copy_2">
	</g>
	<path d="M12.5,23c3.04,0,5.5-2.46,5.5-5.5V6h-1.5v11.5c0,2.21-1.79,4-4,4s-4-1.79-4-4V5c0-1.38,1.12-2.5,2.5-2.5s2.5,1.12,2.5,2.5
		v10.5c0,0.55-0.45,1-1,1s-1-0.45-1-1V6H10v9.5c0,1.38,1.12,2.5,2.5,2.5s2.5-1.12,2.5-2.5V5c0-2.21-1.79-4-4-4S7,2.79,7,5v12.5
		C7,20.54,9.46,23,12.5,23z"/>
</g>
</svg>
