<?xml version="1.0" encoding="utf-8"?>
<!-- Generator: Adobe Illustrator 19.1.0, SVG Export Plug-In . SVG Version: 6.00 Build 0)  -->
<svg version="1.1" xmlns="http://www.w3.org/2000/svg" xmlns:xlink="http://www.w3.org/1999/xlink" x="0px" y="0px" width="24px"
	 height="24px" viewBox="0 0 24 24" enable-background="new 0 0 24 24" xml:space="preserve">
<g id="Bounding_Boxes">
	<g id="ui_x5F_spec_x5F_header_copy_3">
	</g>
	<path fill="none" d="M0,0h24v24H0V0z"/>
</g>
<g id="Duotone">
	<g id="ui_x5F_spec_x5F_header_copy_5">
	</g>
	<g>
		<circle opacity="0.3" cx="10" cy="17" r="2"/>
		<path d="M10,21c2.21,0,4-1.79,4-4V7h4V3h-6v10.55C11.41,13.21,10.73,13,10,13c-2.21,0-4,1.79-4,4C6,19.21,7.79,21,10,21z M10,15
			c1.1,0,2,0.9,2,2c0,1.1-0.9,2-2,2s-2-0.9-2-2C8,15.9,8.9,15,10,15z"/>
	</g>
</g>
</svg>
