<?xml version="1.0" encoding="utf-8"?>
<!-- Generator: Adobe Illustrator 19.1.0, SVG Export Plug-In . SVG Version: 6.00 Build 0)  -->
<svg version="1.1" xmlns="http://www.w3.org/2000/svg" xmlns:xlink="http://www.w3.org/1999/xlink" x="0px" y="0px" width="24px"
	 height="24px" viewBox="0 0 24 24" enable-background="new 0 0 24 24" xml:space="preserve">
<g id="Bounding_Boxes">
	<g id="ui_x5F_spec_x5F_header_copy_3" display="none">
	</g>
	<path fill="none" d="M0,0h24v24H0V0z"/>
</g>
<g id="Duotone">
	<g id="ui_x5F_spec_x5F_header_copy_2" display="none">
	</g>
	<g>
		<path opacity="0.3" d="M7.06,5L2.4,12l4.67,7L22,19V5L7.06,5C7.07,5,7.07,5,7.06,5z M9,8.41L10.41,7L14,10.59L17.59,7L19,8.41
			L15.41,12L19,15.59L17.59,17L14,13.41L10.41,17L9,15.59L12.59,12L9,8.41z"/>
		<path d="M22,3H7C6.31,3,5.77,3.35,5.41,3.88L0,12l5.41,8.11C5.77,20.64,6.31,21,7,21h15c1.1,0,2-0.9,2-2V5C24,3.9,23.1,3,22,3z
			 M22,19L7.07,19L2.4,12l4.66-7c0,0,0,0,0,0H22V19z"/>
		<polygon points="10.41,17 14,13.41 17.59,17 19,15.59 15.41,12 19,8.41 17.59,7 14,10.59 10.41,7 9,8.41 12.59,12 9,15.59 		"/>
	</g>
</g>
</svg>
