<?xml version="1.0" encoding="utf-8"?>
<!-- Generator: Adobe Illustrator 19.1.0, SVG Export Plug-In . SVG Version: 6.00 Build 0)  -->
<svg version="1.1" xmlns="http://www.w3.org/2000/svg" xmlns:xlink="http://www.w3.org/1999/xlink" x="0px" y="0px" width="24px"
	 height="24px" viewBox="0 0 24 24" enable-background="new 0 0 24 24" xml:space="preserve">
<g id="Bounding_Boxes">
	<g id="ui_x5F_spec_x5F_header_copy_3">
	</g>
	<path fill="none" d="M0,0h24v24H0V0z"/>
</g>
<g id="Duotone">
	<g id="ui_x5F_spec_x5F_header_copy_2">
	</g>
	<g>
		<path d="M11,20v-3H7v3.67C7,21.4,7.6,22,8.33,22h7.33C16.4,22,17,21.4,17,20.67V17h-4.4L11,20z"/>
		<path fill-opacity="0.3" d="M15.67,4H14V2h-4v2H8.33C7.6,4,7,4.6,7,5.33V17h4v-2.5H9L13,7v5.5h2L12.6,17H17V5.33
			C17,4.6,16.4,4,15.67,4z"/>
	</g>
</g>
</svg>
