<?xml version="1.0" encoding="utf-8"?>
<!-- Generator: Adobe Illustrator 19.1.0, SVG Export Plug-In . SVG Version: 6.00 Build 0)  -->
<svg version="1.1" xmlns="http://www.w3.org/2000/svg" xmlns:xlink="http://www.w3.org/1999/xlink" x="0px" y="0px" width="24px"
	 height="24px" viewBox="0 0 24 24" enable-background="new 0 0 24 24" xml:space="preserve">
<g id="Bounding_Boxes">
	<g id="ui_x5F_spec_x5F_header_copy_3">
	</g>
	<path fill="none" d="M0,0h24v24H0V0z"/>
</g>
<g id="Duotone">
	<g id="ui_x5F_spec_x5F_header_copy_2">
	</g>
	<path d="M7,12l-2-2l-2,2l2,2L7,12z M17.71,7.71L12,2h-1v7.59L6.41,5L5,6.41L10.59,12L5,17.59L6.41,19L11,14.41V22h1l5.71-5.71
		L13.41,12L17.71,7.71z M13,5.83l1.88,1.88L13,9.59V5.83z M14.88,16.29L13,18.17v-3.76L14.88,16.29z M19,10l-2,2l2,2l2-2L19,10z"/>
</g>
</svg>
