<?xml version="1.0" encoding="utf-8"?>
<!-- Generator: Adobe Illustrator 19.1.0, SVG Export Plug-In . SVG Version: 6.00 Build 0)  -->
<svg version="1.1" xmlns="http://www.w3.org/2000/svg" xmlns:xlink="http://www.w3.org/1999/xlink" x="0px" y="0px" width="24px"
	 height="24px" viewBox="0 0 24 24" enable-background="new 0 0 24 24" xml:space="preserve">
<g id="Bounding_Boxes">
	<g id="ui_x5F_spec_x5F_header_copy_3">
	</g>
	<path fill="none" d="M0,0h24v24H0V0z"/>
</g>
<g id="Duotone">
	<g id="ui_x5F_spec_x5F_header_copy_5">
	</g>
	<g>
		<path d="M17,16.5c0.28,0,0.5-0.22,0.5-0.5c0-0.28-0.22-0.5-0.5-0.5s-0.5,0.22-0.5,0.5C16.5,16.28,16.72,16.5,17,16.5z"/>
		<circle cx="9" cy="12" r="1"/>
		<circle cx="13" cy="8" r="1"/>
		<circle cx="13" cy="16" r="1"/>
		<path d="M17,12.5c0.28,0,0.5-0.22,0.5-0.5c0-0.28-0.22-0.5-0.5-0.5s-0.5,0.22-0.5,0.5C16.5,12.28,16.72,12.5,17,12.5z"/>
		<circle cx="13" cy="12" r="1"/>
		<rect x="3" y="3" width="18" height="2"/>
		<circle cx="5" cy="8" r="1.5"/>
		<circle cx="5" cy="12" r="1.5"/>
		<circle cx="5" cy="16" r="1.5"/>
		<path d="M17,8.5c0.28,0,0.5-0.22,0.5-0.5c0-0.28-0.22-0.5-0.5-0.5S16.5,7.72,16.5,8C16.5,8.28,16.72,8.5,17,8.5z"/>
		<circle cx="9" cy="16" r="1"/>
		<circle cx="9" cy="8" r="1"/>
		<rect x="3" y="19" width="18" height="2"/>
	</g>
</g>
</svg>
