<?xml version="1.0" encoding="utf-8"?>
<!-- Generator: Adobe Illustrator 19.1.0, SVG Export Plug-In . SVG Version: 6.00 Build 0)  -->
<svg version="1.1" xmlns="http://www.w3.org/2000/svg" xmlns:xlink="http://www.w3.org/1999/xlink" x="0px" y="0px" width="24px"
	 height="24px" viewBox="0 0 24 24" enable-background="new 0 0 24 24" xml:space="preserve">
<g id="Bounding_Boxes">
	<g id="ui_x5F_spec_x5F_header_copy_3">
	</g>
	<path fill="none" d="M0,0h24v24H0V0z"/>
</g>
<g id="Duotone">
	<g id="ui_x5F_spec_x5F_header_copy_2">
	</g>
	<g>
		<g>
			<polygon fill-opacity="0.36" points="14,6.08 6,14.08 6,15 6.92,15 14.92,7 			"/>
			<path d="M14,3.25l-10,10V17h3.75l10-10L14,3.25z M6.92,15H6v-0.92l8-8L14.92,7L6.92,15z"/>
		</g>
		<path d="M20.71,4.04c0.39-0.39,0.39-1.02,0-1.41l-2.34-2.34c-0.39-0.39-1.02-0.39-1.41,0L15,2.25L18.75,6L20.71,4.04z"/>
		<path fill-opacity="0.36" d="M0,20h24v4H0V20z"/>
	</g>
</g>
</svg>
