<?xml version="1.0" encoding="utf-8"?>
<!-- Generator: Adobe Illustrator 19.1.0, SVG Export Plug-In . SVG Version: 6.00 Build 0)  -->
<svg version="1.1" xmlns="http://www.w3.org/2000/svg" xmlns:xlink="http://www.w3.org/1999/xlink" x="0px" y="0px" width="24px"
	 height="24px" viewBox="0 0 24 24" enable-background="new 0 0 24 24" xml:space="preserve">
<g id="Bounding_Boxes">
	<g id="ui_x5F_spec_x5F_header_copy_3">
	</g>
	<path fill="none" d="M0,0h24v24H0V0z"/>
</g>
<g id="Duotone">
	<g id="ui_x5F_spec_x5F_header_copy_2">
	</g>
	<g>
		<rect x="3" y="15" width="2" height="2"/>
		<rect x="3" y="3" width="2" height="2"/>
		<rect x="3" y="19" width="2" height="2"/>
		<polygon points="11,21 13,21 13,13 21,13 21,11 13,11 13,3 11,3 11,11 3,11 3,13 11,13 		"/>
		<rect x="7" y="19" width="2" height="2"/>
		<rect x="19" y="15" width="2" height="2"/>
		<rect x="15" y="19" width="2" height="2"/>
		<rect x="19" y="19" width="2" height="2"/>
		<rect x="3" y="7" width="2" height="2"/>
		<rect x="19" y="7" width="2" height="2"/>
		<rect x="7" y="3" width="2" height="2"/>
		<rect x="15" y="3" width="2" height="2"/>
		<rect x="19" y="3" width="2" height="2"/>
	</g>
</g>
</svg>
