<?xml version="1.0" encoding="utf-8"?>
<!-- Generator: Adobe Illustrator 19.1.0, SVG Export Plug-In . SVG Version: 6.00 Build 0)  -->
<svg version="1.1" xmlns="http://www.w3.org/2000/svg" xmlns:xlink="http://www.w3.org/1999/xlink" x="0px" y="0px" width="24px"
	 height="24px" viewBox="0 0 24 24" enable-background="new 0 0 24 24" xml:space="preserve">
<g id="Bounding_Boxes">
	<g id="ui_x5F_spec_x5F_header_copy_3">
	</g>
	<path fill="none" d="M0,0h24v24H0V0z"/>
</g>
<g id="Duotone">
	<g id="ui_x5F_spec_x5F_header_copy_5">
	</g>
	<g>
		<path opacity="0.3" d="M12.7,4.91c1.46,2,2.3,4.46,2.3,7.09s-0.84,5.09-2.3,7.09C15.25,17.76,17,15.08,17,12S15.25,6.24,12.7,4.91
			z"/>
		<path d="M9,2C7.95,2,6.95,2.16,6,2.46c4.06,1.27,7,5.06,7,9.54c0,4.48-2.94,8.27-7,9.54C6.95,21.84,7.95,22,9,22
			c5.52,0,10-4.48,10-10C19,6.48,14.52,2,9,2z M12.7,19.09c1.46-2,2.3-4.46,2.3-7.09s-0.84-5.09-2.3-7.09C15.25,6.24,17,8.92,17,12
			S15.25,17.76,12.7,19.09z"/>
	</g>
</g>
</svg>
