<?xml version="1.0" encoding="utf-8"?>
<!-- Generator: Adobe Illustrator 19.1.0, SVG Export Plug-In . SVG Version: 6.00 Build 0)  -->
<svg version="1.1" xmlns="http://www.w3.org/2000/svg" xmlns:xlink="http://www.w3.org/1999/xlink" x="0px" y="0px" width="24px"
	 height="24px" viewBox="0 0 24 24" enable-background="new 0 0 24 24" xml:space="preserve">
<g id="Bounding_Boxes">
	<g id="ui_x5F_spec_x5F_header_copy_3">
	</g>
	<path fill="none" d="M0,0h24v24H0V0z"/>
</g>
<g id="Duotone">
	<g id="ui_x5F_spec_x5F_header_copy_5">
	</g>
	<g>
		<polygon opacity="0.3" points="13.99,15.41 9.99,11.41 5.99,15.41 5,14.42 5,19 19,19 19,12.43 17.99,11.42 		"/>
		<polygon opacity="0.3" points="5,11.59 5.99,12.59 9.99,8.59 13.99,12.59 17.99,8.58 19,9.59 19,5 5,5 		"/>
		<path d="M19,3H5C3.9,3,3,3.9,3,5v14c0,1.1,0.9,2,2,2h14c1.1,0,2-0.9,2-2V5C21,3.9,20.1,3,19,3z M19,19H5v-4.58l0.99,0.99l4-4l4,4
			l4-3.99L19,12.43V19z M19,9.59l-1.01-1.01l-4,4.01l-4-4l-4,4l-0.99-1V5h14V9.59z"/>
	</g>
</g>
</svg>
