<?xml version="1.0" encoding="utf-8"?>
<!-- Generator: Adobe Illustrator 19.1.0, SVG Export Plug-In . SVG Version: 6.00 Build 0)  -->
<svg version="1.1" xmlns="http://www.w3.org/2000/svg" xmlns:xlink="http://www.w3.org/1999/xlink" x="0px" y="0px" width="24px"
	 height="24px" viewBox="0 0 24 24" enable-background="new 0 0 24 24" xml:space="preserve">
<g id="Bounding_Boxes">
	<path fill="none" d="M0,0h24v24H0V0z"/>
</g>
<g id="Duotone">
	<g id="ui_x5F_spec_x5F_header_copy" display="none">
	</g>
	<g>
		<polygon opacity="0.3" points="15,17 9,17 9,16 5,16 5,19 19,19 19,16 15,16 		"/>
		<polygon opacity="0.3" points="4,14 9,14 9,11 15,11 15,14 20,14 20,9 4,9 		"/>
		<path d="M20,7h-4V5l-2-2h-4L8,5v2H4C2.9,7,2,7.9,2,9v5c0,0.75,0.4,1.38,1,1.73V19c0,1.11,0.89,2,2,2h14c1.11,0,2-0.89,2-2v-3.28
			c0.59-0.35,1-0.99,1-1.72V9C22,7.9,21.1,7,20,7z M10,5h4v2h-4V5z M19,19H5v-3h4v1h6v-1h4V19z M11,15v-2h2v2H11z M20,14h-5v-3H9v3
			H4V9h16V14z"/>
	</g>
</g>
</svg>
