<?xml version="1.0" encoding="utf-8"?>
<!-- Generator: Adobe Illustrator 19.1.0, SVG Export Plug-In . SVG Version: 6.00 Build 0)  -->
<svg version="1.1" xmlns="http://www.w3.org/2000/svg" xmlns:xlink="http://www.w3.org/1999/xlink" x="0px" y="0px" width="24px"
	 height="24px" viewBox="0 0 24 24" enable-background="new 0 0 24 24" xml:space="preserve">
<g id="Bounding_Boxes">
	<g id="ui_x5F_spec_x5F_header_copy_3">
	</g>
	<path fill="none" d="M0,0h24v24H0V0z"/>
</g>
<g id="Duotone">
	<g id="ui_x5F_spec_x5F_header_copy_5">
	</g>
	<g>
		<path opacity="0.3" d="M7,16h10V2H7V16z M11.99,3c1.1,0,2,0.9,2,2C14,6.1,13.1,7,12,7c-1.11,0-2-0.9-2-2C10,3.9,10.89,3,11.99,3z"
			/>
		<polygon points="5,20 5,22 10,22 10,24 13,21 10,18 10,20 		"/>
		<rect x="14" y="20" width="5" height="2"/>
		<path d="M19,2c0-1.1-0.9-2-2-2H7C5.9,0,5,0.9,5,2v14c0,1.1,0.9,2,2,2h3h7c1.1,0,2-0.9,2-2V2z M17,16H7V2h10V16z"/>
		<path d="M12,7c1.1,0,2-0.9,1.99-2c0-1.1-0.9-2-2-2S10,3.9,10,5C10,6.1,10.89,7,12,7z"/>
	</g>
</g>
</svg>
