<?xml version="1.0" encoding="utf-8"?>
<!-- Generator: Adobe Illustrator 19.1.0, SVG Export Plug-In . SVG Version: 6.00 Build 0)  -->
<svg version="1.1" xmlns="http://www.w3.org/2000/svg" xmlns:xlink="http://www.w3.org/1999/xlink" x="0px" y="0px" width="24px"
	 height="24px" viewBox="0 0 24 24" enable-background="new 0 0 24 24" xml:space="preserve">
<g id="Bounding_Boxes">
	<g id="ui_x5F_spec_x5F_header_copy_2">
	</g>
	<path fill="none" d="M0,0h24v24H0V0z"/>
</g>
<g id="Duotone">
	<g id="ui_x5F_spec_x5F_header_copy_3">
	</g>
	<g>
		<path opacity="0.3" d="M3,19.1h18V4.95H3V19.1z M8,9.36l1.41-1.41L12,10.54l2.59-2.59L16,9.36l-2.59,2.59L16,14.54l-1.41,1.41
			L12,13.36l-2.59,2.59L8,14.54l2.59-2.59L8,9.36z"/>
		<path d="M21,3H3C1.9,3,1,3.9,1,5v14c0,1.1,0.9,2,2,2h18c1.1,0,2-0.9,2-2V5C23,3.9,22.1,3,21,3z M21,19H3V5h18V19z"/>
		<polygon points="9.41,15.95 12,13.36 14.59,15.95 16,14.54 13.41,11.95 16,9.36 14.59,7.95 12,10.54 9.41,7.95 8,9.36 
			10.59,11.95 8,14.54 		"/>
	</g>
</g>
</svg>
