<?xml version="1.0" encoding="utf-8"?>
<!-- Generator: Adobe Illustrator 19.1.0, SVG Export Plug-In . SVG Version: 6.00 Build 0)  -->
<svg version="1.1" xmlns="http://www.w3.org/2000/svg" xmlns:xlink="http://www.w3.org/1999/xlink" x="0px" y="0px" width="24px"
	 height="24px" viewBox="0 0 24 24" enable-background="new 0 0 24 24" xml:space="preserve">
<g id="Bounding_Boxes">
	<g id="ui_x5F_spec_x5F_header_copy_3">
	</g>
	<path fill="none" d="M0,0h24v24H0V0z"/>
	<path fill="none" d="M0,0h24v24H0V0z"/>
</g>
<g id="Duotone">
	<g id="ui_x5F_spec_x5F_header_copy_2">
	</g>
	<g>
		<path opacity="0.3" d="M17,9H5.95c2.83,1.17,5.15,3.3,6.56,6H17V9z"/>
		<g>
			<path d="M1,18v3h3C4,19.34,2.66,18,1,18z"/>
			<path d="M1,14v2c2.76,0,5,2.24,5,5h2C8,17.13,4.87,14,1,14z"/>
			<path d="M1,10v2c4.97,0,9,4.03,9,9h2C12,14.92,7.07,10,1,10z"/>
			<path d="M21,3H3C1.9,3,1,3.9,1,5v3h2V5h18v14h-7v2h7c1.1,0,2-0.9,2-2V5C23,3.9,22.1,3,21,3z"/>
			<path d="M5,7v1.63C5.32,8.73,5.63,8.87,5.95,9l0,0H17v6h-4.49l0,0c0.15,0.29,0.29,0.58,0.42,0.88c0.16,0.36,0.31,0.74,0.44,1.12
				H19V7H5z"/>
		</g>
	</g>
</g>
</svg>
