<?xml version="1.0" encoding="utf-8"?>
<!-- Generator: Adobe Illustrator 19.1.0, SVG Export Plug-In . SVG Version: 6.00 Build 0)  -->
<svg version="1.1" xmlns="http://www.w3.org/2000/svg" xmlns:xlink="http://www.w3.org/1999/xlink" x="0px" y="0px" width="24px"
	 height="24px" viewBox="0 0 24 24" enable-background="new 0 0 24 24" xml:space="preserve">
<g id="Bounding_Boxes">
	<path fill="none" d="M0,0h24v24H0V0z"/>
</g>
<g id="Duotone">
	<g id="ui_x5F_spec_x5F_header_copy_2">
	</g>
	<g>
		<circle opacity="0.3" cx="17.5" cy="17.5" r="2.5"/>
		<rect x="5" y="15.5" opacity="0.3" width="4" height="4"/>
		<polygon opacity="0.3" points="12,5.84 10.07,9 13.93,9 		"/>
		<path d="M12,2l-5.5,9h11L12,2z M12,5.84L13.93,9h-3.87L12,5.84z"/>
		<path d="M17.5,13c-2.49,0-4.5,2.01-4.5,4.5s2.01,4.5,4.5,4.5s4.5-2.01,4.5-4.5S19.99,13,17.5,13z M17.5,20
			c-1.38,0-2.5-1.12-2.5-2.5s1.12-2.5,2.5-2.5s2.5,1.12,2.5,2.5S18.88,20,17.5,20z"/>
		<path d="M11,13.5H3v8h8V13.5z M9,19.5H5v-4h4V19.5z"/>
	</g>
</g>
</svg>
