<?xml version="1.0" encoding="utf-8"?>
<!-- Generator: Adobe Illustrator 19.1.0, SVG Export Plug-In . SVG Version: 6.00 Build 0)  -->
<svg version="1.1" xmlns="http://www.w3.org/2000/svg" xmlns:xlink="http://www.w3.org/1999/xlink" x="0px" y="0px" width="24px"
	 height="24px" viewBox="0 0 24 24" enable-background="new 0 0 24 24" xml:space="preserve">
<g id="Bounding_Boxes">
	<g id="ui_x5F_spec_x5F_header_copy_2">
	</g>
	<path fill="none" d="M0,0h24v24H0V0z"/>
</g>
<g id="Duotone">
	<g id="ui_x5F_spec_x5F_header_copy_3">
	</g>
	<g>
		<polygon opacity="0.3" points="22,5.97 18,9.98 18,12.78 20,10.78 20,20 18,20 18,22 22,22 		"/>
		<path d="M9.07,11.07L11,13l1.93-1.93C11.86,10.01,10.14,10.01,9.07,11.07z"/>
		<path d="M18.08,5.93c-3.91-3.91-10.25-3.91-14.15,0l1.29,1.29c3.19-3.19,8.38-3.19,11.57,0L18.08,5.93z"/>
		<path d="M15.5,8.5c-2.48-2.48-6.52-2.48-9,0l1.29,1.29c1.77-1.77,4.65-1.77,6.43,0L15.5,8.5z"/>
		<polygon points="18,12.78 18,9.98 6,22 18,22 18,19.95 		"/>
	</g>
</g>
</svg>
