<?xml version="1.0" encoding="utf-8"?>
<!-- Generator: Adobe Illustrator 19.1.0, SVG Export Plug-In . SVG Version: 6.00 Build 0)  -->
<svg version="1.1" xmlns="http://www.w3.org/2000/svg" xmlns:xlink="http://www.w3.org/1999/xlink" x="0px" y="0px" width="24px"
	 height="24px" viewBox="0 0 24 24" enable-background="new 0 0 24 24" xml:space="preserve">
<g id="Bounding_Boxes">
	<g id="ui_x5F_spec_x5F_header_copy_3">
	</g>
	<path fill="none" d="M0,0h24v24H0V0z"/>
</g>
<g id="Duotone">
	<g id="ui_x5F_spec_x5F_header_copy_5">
	</g>
	<g>
		<circle opacity="0.3" cx="12" cy="12" r="3"/>
		<path d="M7,12c0,2.76,2.24,5,5,5s5-2.24,5-5s-2.24-5-5-5S7,9.24,7,12z M15,12c0,1.65-1.35,3-3,3s-3-1.35-3-3s1.35-3,3-3
			S15,10.35,15,12z"/>
		<path d="M3,19c0,1.1,0.9,2,2,2h4v-2H5v-4H3V19z"/>
		<path d="M3,5v4h2V5h4V3H5C3.9,3,3,3.9,3,5z"/>
		<path d="M21,5c0-1.1-0.9-2-2-2h-4v2h4v4h2V5z"/>
		<path d="M19,19h-4v2h4c1.1,0,2-0.9,2-2v-4h-2V19z"/>
	</g>
</g>
</svg>
