<?xml version="1.0" encoding="utf-8"?>
<!-- Generator: Adobe Illustrator 19.1.0, SVG Export Plug-In . SVG Version: 6.00 Build 0)  -->
<svg version="1.1" xmlns="http://www.w3.org/2000/svg" xmlns:xlink="http://www.w3.org/1999/xlink" x="0px" y="0px" width="24px"
	 height="24px" viewBox="0 0 24 24" enable-background="new 0 0 24 24" xml:space="preserve">
<g id="Bounding_Boxes">
	<g id="ui_x5F_spec_x5F_header_copy_2">
	</g>
	<path fill="none" d="M0,0h24v24H0V0z"/>
</g>
<g id="Duotone">
	<g id="ui_x5F_spec_x5F_header_copy_3">
	</g>
	<g>
		<path opacity="0.3" d="M20,4H4v0v13.17L5.17,16H20V4z M14,14H6v-2h8V14z M18,11H6V9h12V11z M18,8H6V6h12V8z"/>
		<path d="M20,18c1.1,0,2-0.9,2-2V4c0-1.1-0.9-2-2-2H4C2.9,2,2.01,2.9,2.01,4L2,22l4-4H20z M4,17.17V4v0h16v12H5.17L4,17.17z"/>
		<rect x="6" y="12" width="8" height="2"/>
		<rect x="6" y="9" width="12" height="2"/>
		<rect x="6" y="6" width="12" height="2"/>
	</g>
</g>
</svg>
