<?xml version="1.0" encoding="utf-8"?>
<!-- Generator: Adobe Illustrator 19.1.0, SVG Export Plug-In . SVG Version: 6.00 Build 0)  -->
<svg version="1.1" xmlns="http://www.w3.org/2000/svg" xmlns:xlink="http://www.w3.org/1999/xlink" x="0px" y="0px" width="24px"
	 height="24px" viewBox="0 0 24 24" enable-background="new 0 0 24 24" xml:space="preserve">
<g id="Bounding_Boxes">
	<g id="ui_x5F_spec_x5F_header_copy_3">
	</g>
	<path fill="none" d="M0,0h24v24H0V0z"/>
</g>
<g id="Duotone">
	<g id="ui_x5F_spec_x5F_header_copy_5">
	</g>
	<g>
		<path opacity="0.3" d="M8,16h12V4H8V16z M11.5,11.67l1.69,2.26l2.48-3.09L19,15H9L11.5,11.67z"/>
		<path d="M8,2C6.9,2,6,2.9,6,4v12c0,1.1,0.9,2,2,2h12c1.1,0,2-0.9,2-2V4c0-1.1-0.9-2-2-2H8z M20,16H8V4h12V16z"/>
		<polygon points="15.67,10.83 13.19,13.92 11.5,11.67 9,15 19,15 		"/>
		<path d="M4,22h14v-2H4V6H2v14C2,21.1,2.9,22,4,22z"/>
	</g>
</g>
</svg>
