<?xml version="1.0" encoding="utf-8"?>
<!-- Generator: Adobe Illustrator 19.1.0, SVG Export Plug-In . SVG Version: 6.00 Build 0)  -->
<svg version="1.1" xmlns="http://www.w3.org/2000/svg" xmlns:xlink="http://www.w3.org/1999/xlink" x="0px" y="0px" width="24px"
	 height="24px" viewBox="0 0 24 24" enable-background="new 0 0 24 24" xml:space="preserve">
<g id="Header_x2F_BG" display="none">
	<rect x="-446" y="-226" display="inline" fill="#F1F1F2" width="520" height="520"/>
</g>
<g id="Bounding_Boxes">
	<g id="ui_x5F_spec_x5F_header_copy_3">
	</g>
	<path fill="none" d="M0,0h24v24H0V0z"/>
</g>
<g id="Rounded" display="none">
	<g id="ui_x5F_spec_x5F_header_copy_5" display="inline">
	</g>
	<path display="inline" d="M9.01,14H3c-0.55,0-1,0.45-1,1v0c0,0.55,0.45,1,1,1h6.01v1.79c0,0.45,0.54,0.67,0.85,0.35l2.78-2.79
		c0.19-0.2,0.19-0.51,0-0.71l-2.78-2.79c-0.31-0.32-0.85-0.09-0.85,0.35V14z M14.99,11.79V10H21c0.55,0,1-0.45,1-1v0
		c0-0.55-0.45-1-1-1h-6.01V6.21c0-0.45-0.54-0.67-0.85-0.35l-2.78,2.79c-0.19,0.2-0.19,0.51,0,0.71l2.78,2.79
		C14.45,12.46,14.99,12.24,14.99,11.79z"/>
</g>
<g id="Sharp" display="none">
	<g id="ui_x5F_spec_x5F_header_copy_4" display="inline">
	</g>
	<path display="inline" d="M9.01,14H2v2h7.01v3L13,15l-3.99-4V14z M14.99,13v-3H22V8h-7.01V5L11,9L14.99,13z"/>
</g>
<g id="Outline" display="none">
	<g id="ui_x5F_spec_x5F_header" display="inline">
	</g>
	<path display="inline" d="M9.01,14H2v2h7.01v3L13,15l-3.99-4V14z M14.99,13v-3H22V8h-7.01V5L11,9L14.99,13z"/>
</g>
<g id="Duotone">
	<g id="ui_x5F_spec_x5F_header_copy_2">
	</g>
	<g>
		<path d="M9.01,14H2v2h7.01v3L13,15l-3.99-4V14z M14.99,13v-3H22V8h-7.01V5L11,9L14.99,13z"/>
	</g>
</g>
<g id="Fill" display="none">
	<g id="ui_x5F_spec_x5F_header_copy" display="inline">
	</g>
	<path display="inline" d="M9.01,14H2v2h7.01v3L13,15l-3.99-4V14z M14.99,13v-3H22V8h-7.01V5L11,9L14.99,13z"/>
</g>
<g id="nyt_x5F_exporter_x5F_info" display="none">
</g>
</svg>
