<?xml version="1.0" encoding="utf-8"?>
<!-- Generator: Adobe Illustrator 19.1.0, SVG Export Plug-In . SVG Version: 6.00 Build 0)  -->
<svg version="1.1" xmlns="http://www.w3.org/2000/svg" xmlns:xlink="http://www.w3.org/1999/xlink" x="0px" y="0px" width="24px"
	 height="24px" viewBox="0 0 24 24" enable-background="new 0 0 24 24" xml:space="preserve">
<g id="Bounding_Boxes">
	<g id="ui_x5F_spec_x5F_header_copy_3">
	</g>
	<path fill="none" d="M0,0h24v24H0V0z"/>
</g>
<g id="Duotone">
	<g id="ui_x5F_spec_x5F_header_copy_2">
	</g>
	<path d="M13,2.05v3.03c3.39,0.49,6,3.39,6,6.92c0,0.9-0.18,1.75-0.48,2.54l2.6,1.53C21.68,14.83,22,13.45,22,12
		C22,6.82,18.05,2.55,13,2.05z M12,19c-3.87,0-7-3.13-7-7c0-3.53,2.61-6.43,6-6.92V2.05C5.94,2.55,2,6.81,2,12
		c0,5.52,4.47,10,9.99,10c3.31,0,6.24-1.61,8.06-4.09l-2.6-1.53C16.17,17.98,14.21,19,12,19z"/>
</g>
</svg>
