<?xml version="1.0" encoding="utf-8"?>
<!-- Generator: Adobe Illustrator 19.1.0, SVG Export Plug-In . SVG Version: 6.00 Build 0)  -->
<svg version="1.1" xmlns="http://www.w3.org/2000/svg" xmlns:xlink="http://www.w3.org/1999/xlink" x="0px" y="0px" width="24px"
	 height="24px" viewBox="0 0 24 24" enable-background="new 0 0 24 24" xml:space="preserve">
<g id="Bounding_Boxes">
	<g id="ui_x5F_spec_x5F_header_copy_2">
	</g>
	<path fill="none" d="M0,0h24v24H0V0z"/>
</g>
<g id="Duotone">
	<g id="ui_x5F_spec_x5F_header_copy_3">
	</g>
	<g>
		<g>
			<path d="M1.41,1.69L0,3.1l1,0.99V16c0,1.1,0.89,2,1.99,2H10v2H8v2h8v-2h-2v-2h0.9l6,6l1.41-1.41L1.41,1.69z M2.99,16V6.09
				L12.9,16H2.99z"/>
			<path d="M4.55,2l2,2H21v12h-2.45l2,2h0.44c1.1,0,2-0.9,2-2V4c0-1.1-0.9-2-2-2H4.55z"/>
		</g>
		<polygon opacity="0.3" points="2.99,6.09 2.99,16 12.9,16 		"/>
		<polygon opacity="0.3" points="6.55,4 18.55,16 21,16 21,4 		"/>
	</g>
</g>
</svg>
