<?xml version="1.0" encoding="utf-8"?>
<!-- Generator: Adobe Illustrator 19.1.0, SVG Export Plug-In . SVG Version: 6.00 Build 0)  -->
<svg version="1.1" xmlns="http://www.w3.org/2000/svg" xmlns:xlink="http://www.w3.org/1999/xlink" x="0px" y="0px" width="24px"
	 height="24px" viewBox="0 0 24 24" enable-background="new 0 0 24 24" xml:space="preserve">
<g id="Bounding_Boxes">
	<g id="ui_x5F_spec_x5F_header_copy_3">
	</g>
	<path fill="none" d="M0,0h24v24H0V0z"/>
</g>
<g id="Duotone">
	<g id="ui_x5F_spec_x5F_header_copy_2">
	</g>
	<path d="M7,5h10v2h2V3c0-1.1-0.9-1.99-2-1.99L7,1C5.9,1,5,1.9,5,3v4h2V5z M15.41,16.59L20,12l-4.59-4.59L14,8.83L17.17,12L14,15.17
		L15.41,16.59z M10,15.17L6.83,12L10,8.83L8.59,7.41L4,12l4.59,4.59L10,15.17z M17,19H7v-2H5v4c0,1.1,0.9,2,2,2h10c1.1,0,2-0.9,2-2
		v-4h-2V19z"/>
</g>
</svg>
