<?xml version="1.0" encoding="utf-8"?>
<!-- Generator: Adobe Illustrator 19.1.0, SVG Export Plug-In . SVG Version: 6.00 Build 0)  -->
<svg version="1.1" xmlns="http://www.w3.org/2000/svg" xmlns:xlink="http://www.w3.org/1999/xlink" x="0px" y="0px" width="24px"
	 height="24px" viewBox="0 0 24 24" enable-background="new 0 0 24 24" xml:space="preserve">
<g id="Bounding_Boxes">
	<g id="ui_x5F_spec_x5F_header_copy_3">
	</g>
	<path fill="none" d="M0,0h24v24H0V0z M0,0h24v24H0V0z"/>
</g>
<g id="Duotone">
	<g id="ui_x5F_spec_x5F_header_copy_2">
	</g>
	<g>
		<path opacity="0.3" d="M4,19h14V5H4V19z M12,7h4v3h-4V7z M12,11h4v6h-4V11z M6,7h5v5H6V7z M6,13h5v4H6V13z"/>
		<rect x="6" y="13" width="5" height="4"/>
		<rect x="6" y="7" width="5" height="5"/>
		<rect x="12" y="7" width="4" height="3"/>
		<rect x="12" y="11" width="4" height="6"/>
		<path d="M22,9V7h-2V5c0-1.1-0.9-2-2-2H4C2.9,3,2,3.9,2,5v14c0,1.1,0.9,2,2,2h14c1.1,0,2-0.9,2-2v-2h2v-2h-2v-2h2v-2h-2V9H22z
			 M18,19H4V5h14V19z"/>
	</g>
</g>
</svg>
