<?xml version="1.0" encoding="utf-8"?>
<!-- Generator: Adobe Illustrator 19.1.0, SVG Export Plug-In . SVG Version: 6.00 Build 0)  -->
<svg version="1.1" xmlns="http://www.w3.org/2000/svg" xmlns:xlink="http://www.w3.org/1999/xlink" x="0px" y="0px" width="24px"
	 height="24px" viewBox="0 0 24 24" enable-background="new 0 0 24 24" xml:space="preserve">
<g id="Bounding_Boxes">
	<g id="ui_x5F_spec_x5F_header_copy_3">
	</g>
	<path fill="none" d="M0,0h24v24H0V0z"/>
</g>
<g id="Duotone">
	<g id="ui_x5F_spec_x5F_header_copy_2">
	</g>
	<g>
		<rect x="17" y="10" opacity="0.3" width="4" height="8"/>
		<circle opacity="0.3" cx="11" cy="16" r="1.5"/>
		<path d="M3,6h18V4H3C1.9,4,1,4.9,1,6v12c0,1.1,0.9,2,2,2h4v-2H3V6z"/>
		<path d="M22,8h-6c-0.5,0-1,0.5-1,1v10c0,0.5,0.5,1,1,1h6c0.5,0,1-0.5,1-1V9C23,8.5,22.5,8,22,8z M21,18h-4v-8h4V18z"/>
		<path d="M13,12H9v1.78C8.39,14.33,8,15.11,8,16s0.39,1.67,1,2.22V20h4v-1.78c0.61-0.55,1-1.34,1-2.22s-0.39-1.67-1-2.22V12z
			 M11,17.5c-0.83,0-1.5-0.67-1.5-1.5c0-0.83,0.67-1.5,1.5-1.5s1.5,0.67,1.5,1.5C12.5,16.83,11.83,17.5,11,17.5z"/>
	</g>
</g>
</svg>
