<?xml version="1.0" encoding="utf-8"?>
<!-- Generator: Adobe Illustrator 19.1.0, SVG Export Plug-In . SVG Version: 6.00 Build 0)  -->
<svg version="1.1" xmlns="http://www.w3.org/2000/svg" xmlns:xlink="http://www.w3.org/1999/xlink" x="0px" y="0px" width="24px"
	 height="24px" viewBox="0 0 24 24" enable-background="new 0 0 24 24" xml:space="preserve">
<g id="Bounding_Boxes">
	<g id="ui_x5F_spec_x5F_header_copy_3">
	</g>
	<path fill="none" d="M0,0h24v24H0V0z"/>
</g>
<g id="Duotone">
	<g id="ui_x5F_spec_x5F_header_copy_2">
	</g>
	<g>
		<rect x="18" y="10" opacity="0.3" width="4" height="7"/>
		<path d="M23,8h-6c-0.55,0-1,0.45-1,1v10c0,0.55,0.45,1,1,1h6c0.55,0,1-0.45,1-1V9C24,8.45,23.55,8,23,8z M22,17h-4v-7h4V17z"/>
		<path d="M4,6h18V4H4C2.9,4,2,4.9,2,6v11H0v3h14v-3H4V6z"/>
	</g>
</g>
</svg>
