<?xml version="1.0" encoding="utf-8"?>
<!-- Generator: Adobe Illustrator 19.1.0, SVG Export Plug-In . SVG Version: 6.00 Build 0)  -->
<svg version="1.1" xmlns="http://www.w3.org/2000/svg" xmlns:xlink="http://www.w3.org/1999/xlink" x="0px" y="0px" width="24px"
	 height="24px" viewBox="0 0 24 24" enable-background="new 0 0 24 24" xml:space="preserve">
<g id="Bounding_Boxes">
	<g id="ui_x5F_spec_x5F_header_copy_2">
	</g>
	<path fill="none" d="M0,0h24v24H0V0z"/>
</g>
<g id="Duotone">
	<g id="ui_x5F_spec_x5F_header_copy_3">
	</g>
	<g>
		<path d="M18,7c-1.1,0-2,0.9-2,2c0,1.1,0.9,2,2,2s2-0.9,2-2C20,7.9,19.1,7,18,7z"/>
		<path d="M20,15c0-1.1-0.9-2-2-2s-2,0.9-2,2c0,1.1,0.9,2,2,2S20,16.1,20,15z"/>
		<path d="M12,23c1.1,0,2-0.9,2-2c0-1.1-0.9-2-2-2s-2,0.9-2,2C10,22.1,10.9,23,12,23z"/>
		<path d="M6,5c1.1,0,2-0.9,2-2c0-1.1-0.9-2-2-2S4,1.9,4,3C4,4.1,4.9,5,6,5z"/>
		<path d="M18,1c-1.1,0-2,0.9-2,2c0,1.1,0.9,2,2,2s2-0.9,2-2C20,1.9,19.1,1,18,1z"/>
		<path d="M6,17c1.1,0,2-0.9,2-2c0-1.1-0.9-2-2-2s-2,0.9-2,2C4,16.1,4.9,17,6,17z"/>
		<path d="M6,11c1.1,0,2-0.9,2-2c0-1.1-0.9-2-2-2S4,7.9,4,9C4,10.1,4.9,11,6,11z"/>
		<path d="M12,17c1.1,0,2-0.9,2-2c0-1.1-0.9-2-2-2s-2,0.9-2,2C10,16.1,10.9,17,12,17z"/>
		<path d="M12,11c1.1,0,2-0.9,2-2c0-1.1-0.9-2-2-2s-2,0.9-2,2C10,10.1,10.9,11,12,11z"/>
		<path d="M12,5c1.1,0,2-0.9,2-2c0-1.1-0.9-2-2-2s-2,0.9-2,2C10,4.1,10.9,5,12,5z"/>
	</g>
</g>
</svg>
