<?xml version="1.0" encoding="utf-8"?>
<!-- Generator: Adobe Illustrator 19.1.0, SVG Export Plug-In . SVG Version: 6.00 Build 0)  -->
<svg version="1.1" xmlns="http://www.w3.org/2000/svg" xmlns:xlink="http://www.w3.org/1999/xlink" x="0px" y="0px" width="24px"
	 height="24px" viewBox="0 0 24 24" enable-background="new 0 0 24 24" xml:space="preserve">
<g id="Bounding_Boxes">
	<path fill="none" d="M0,0h24v24H0V0z"/>
</g>
<g id="Duotone">
	<g id="ui_x5F_spec_x5F_header_copy_2">
	</g>
	<g>
		<path opacity="0.3" d="M5,17h14v-5H5V17z M16.5,13c0.83,0,1.5,0.67,1.5,1.5c0,0.83-0.67,1.5-1.5,1.5S15,15.33,15,14.5
			C15,13.67,15.67,13,16.5,13z M7.5,13C8.33,13,9,13.67,9,14.5C9,15.33,8.33,16,7.5,16S6,15.33,6,14.5C6,13.67,6.67,13,7.5,13z"/>
		<path d="M18.92,6.01C18.72,5.42,18.16,5,17.5,5h-11C5.84,5,5.29,5.42,5.08,6.01L3,12v8c0,0.55,0.45,1,1,1h1c0.55,0,1-0.45,1-1v-1
			h12v1c0,0.55,0.45,1,1,1h1c0.55,0,1-0.45,1-1v-8L18.92,6.01z M6.85,7h10.29l1.08,3.11H5.77L6.85,7z M19,17H5v-5h14V17z"/>
		<circle cx="7.5" cy="14.5" r="1.5"/>
		<circle cx="16.5" cy="14.5" r="1.5"/>
	</g>
</g>
</svg>
