<?xml version="1.0" encoding="utf-8"?>
<!-- Generator: Adobe Illustrator 19.1.0, SVG Export Plug-In . SVG Version: 6.00 Build 0)  -->
<svg version="1.1" xmlns="http://www.w3.org/2000/svg" xmlns:xlink="http://www.w3.org/1999/xlink" x="0px" y="0px" width="24px"
	 height="24px" viewBox="0 0 24 24" enable-background="new 0 0 24 24" xml:space="preserve">
<g id="Bounding_Boxes">
	<path fill="none" d="M0,0h24v24H0V0z"/>
</g>
<g id="Duotone">
	<g id="ui_x5F_spec_x5F_header_copy_2">
	</g>
	<g>
		<path opacity="0.3" d="M3.01,12l9,9L21,12l-9-9L3.01,12z M14,7.5l3.5,3.5L14,14.5V12h-4v3H8v-4c0-0.55,0.45-1,1-1h5V7.5z"/>
		<path d="M13.42,1.58c-0.75-0.75-2.07-0.76-2.83,0l-9,9c-0.78,0.78-0.78,2.04,0,2.82l9,9c0.39,0.39,0.9,0.58,1.41,0.58
			c0.51,0,1.02-0.19,1.41-0.58l8.99-8.99c0.78-0.76,0.79-2.03,0.02-2.82L13.42,1.58z M12.01,20.99l-9-9l9-9l9,9L12.01,20.99z"/>
		<path d="M8,11v4h2v-3h4v2.5l3.5-3.5L14,7.5V10H9C8.45,10,8,10.45,8,11z"/>
	</g>
</g>
</svg>
