<?xml version="1.0" encoding="utf-8"?>
<!-- Generator: Adobe Illustrator 19.1.0, SVG Export Plug-In . SVG Version: 6.00 Build 0)  -->
<svg version="1.1" xmlns="http://www.w3.org/2000/svg" xmlns:xlink="http://www.w3.org/1999/xlink" x="0px" y="0px" width="24px"
	 height="24px" viewBox="0 0 24 24" enable-background="new 0 0 24 24" xml:space="preserve">
<g id="Header_x2F_BG" display="none">
	<rect x="-94" y="-314" display="inline" fill="#F1F1F2" width="520" height="520"/>
</g>
<g id="Bounding_Boxes">
	<g id="ui_x5F_spec_x5F_header_copy_3">
	</g>
	<path fill="none" d="M0,0h24v24H0V0z"/>
</g>
<g id="Rounded" display="none">
	<g id="ui_x5F_spec_x5F_header_copy_5" display="inline">
	</g>
	<path display="inline" d="M17.3,6.3L17.3,6.3c-0.39-0.39-1.02-0.39-1.41,0l-5.64,5.64l1.41,1.41L17.3,7.7
		C17.68,7.32,17.68,6.68,17.3,6.3z M21.54,6.29l-9.88,9.88L8.18,12.7c-0.39-0.39-1.02-0.39-1.41,0l0,0c-0.39,0.39-0.39,1.02,0,1.41
		l4.18,4.18c0.39,0.39,1.02,0.39,1.41,0L22.95,7.71c0.39-0.39,0.39-1.02,0-1.41l-0.01,0C22.56,5.9,21.93,5.9,21.54,6.29z
		 M1.12,14.12l4.18,4.18c0.39,0.39,1.02,0.39,1.41,0l0.7-0.7L2.53,12.7c-0.39-0.39-1.02-0.39-1.41,0l0,0
		C0.73,13.09,0.73,13.73,1.12,14.12z"/>
</g>
<g id="Sharp" display="none">
	<g id="ui_x5F_spec_x5F_header_copy_4" display="inline">
	</g>
	<path display="inline" d="M18,7l-1.41-1.41l-6.34,6.34l1.41,1.41L18,7z M22.24,5.59L11.66,16.17L7.48,12l-1.41,1.41L11.66,19l12-12
		L22.24,5.59z M0.41,13.41L6,19l1.41-1.41L1.83,12L0.41,13.41z"/>
</g>
<g id="Outline" display="none">
	<g id="ui_x5F_spec_x5F_header" display="inline">
	</g>
	<path display="inline" d="M18,7l-1.41-1.41l-6.34,6.34l1.41,1.41L18,7z M22.24,5.59L11.66,16.17L7.48,12l-1.41,1.41L11.66,19l12-12
		L22.24,5.59z M0.41,13.41L6,19l1.41-1.41L1.83,12L0.41,13.41z"/>
</g>
<g id="Duotone">
	<g id="ui_x5F_spec_x5F_header_copy_2">
	</g>
	<path d="M18,7l-1.41-1.41l-6.34,6.34l1.41,1.41L18,7z M22.24,5.59L11.66,16.17L7.48,12l-1.41,1.41L11.66,19l12-12L22.24,5.59z
		 M0.41,13.41L6,19l1.41-1.41L1.83,12L0.41,13.41z"/>
</g>
<g id="Fill" display="none">
	<g id="ui_x5F_spec_x5F_header_copy" display="inline">
	</g>
	<path display="inline" d="M18,7l-1.41-1.41l-6.34,6.34l1.41,1.41L18,7z M22.24,5.59L11.66,16.17L7.48,12l-1.41,1.41L11.66,19l12-12
		L22.24,5.59z M0.41,13.41L6,19l1.41-1.41L1.83,12L0.41,13.41z"/>
</g>
<g id="nyt_x5F_exporter_x5F_info" display="none">
</g>
</svg>
