<?xml version="1.0" encoding="utf-8"?>
<!-- Generator: Adobe Illustrator 19.1.0, SVG Export Plug-In . SVG Version: 6.00 Build 0)  -->
<svg version="1.1" xmlns="http://www.w3.org/2000/svg" xmlns:xlink="http://www.w3.org/1999/xlink" x="0px" y="0px" width="24px"
	 height="24px" viewBox="0 0 24 24" enable-background="new 0 0 24 24" xml:space="preserve">
<g id="Bounding_Boxes">
	<g id="ui_x5F_spec_x5F_header_copy_3">
	</g>
	<path fill="none" d="M0,0h24v24H0V0z"/>
</g>
<g id="Duotone">
	<g id="ui_x5F_spec_x5F_header_copy_2">
	</g>
	<g>
		<path opacity="0.3" d="M3,17h18V5H3V17z M8,8h11v2H8V8z M8,12h11v2H8V12z M5,8h2v2H5V8z M5,12h2v2H5V12z"/>
		<rect x="8" y="12" width="11" height="2"/>
		<rect x="8" y="8" width="11" height="2"/>
		<path d="M21,3H3C1.9,3,1,3.9,1,5v12c0,1.1,0.9,2,2,2h5v2h8v-2h5c1.1,0,2-0.9,2-2V5C23,3.9,22.1,3,21,3z M21,17H3V5h18V17z"/>
		<rect x="5" y="12" width="2" height="2"/>
		<rect x="5" y="8" width="2" height="2"/>
	</g>
</g>
</svg>
