<?xml version="1.0" encoding="utf-8"?>
<!-- Generator: Adobe Illustrator 19.1.0, SVG Export Plug-In . SVG Version: 6.00 Build 0)  -->
<svg version="1.1" xmlns="http://www.w3.org/2000/svg" xmlns:xlink="http://www.w3.org/1999/xlink" x="0px" y="0px" width="24px"
	 height="24px" viewBox="0 0 24 24" enable-background="new 0 0 24 24" xml:space="preserve">
<g id="Bounding_Boxes">
	<g id="ui_x5F_spec_x5F_header_copy_3">
	</g>
	<path fill="none" d="M0,0h24v24H0V0z"/>
</g>
<g id="Duotone">
	<g id="ui_x5F_spec_x5F_header_copy_5">
	</g>
	<g>
		<polygon opacity="0.3" points="5,18.08 5,19 5.92,19 14.98,9.94 14.06,9.02 		"/>
		<path d="M20.71,7.04c0.39-0.39,0.39-1.02,0-1.41l-2.34-2.34C18.17,3.09,17.92,3,17.66,3s-0.51,0.1-0.7,0.29l-1.83,1.83l3.75,3.75
			L20.71,7.04z"/>
		<path d="M3,17.25V21h3.75L17.81,9.94l-3.75-3.75L3,17.25z M5.92,19H5v-0.92l9.06-9.06l0.92,0.92L5.92,19z"/>
	</g>
</g>
</svg>
