<?xml version="1.0" encoding="utf-8"?>
<!-- Generator: Adobe Illustrator 19.1.0, SVG Export Plug-In . SVG Version: 6.00 Build 0)  -->
<svg version="1.1" xmlns="http://www.w3.org/2000/svg" xmlns:xlink="http://www.w3.org/1999/xlink" x="0px" y="0px" width="24px"
	 height="24px" viewBox="0 0 24 24" enable-background="new 0 0 24 24" xml:space="preserve">
<g id="Bounding_Boxes">
	<path fill="none" d="M0,0h24v24H0V0z"/>
</g>
<g id="Duotone">
	<g id="ui_x5F_spec_x5F_header_copy_2">
	</g>
	<g>
		<path opacity="0.3" d="M17.63,9H6.37C5.09,9,4,10.37,4,12s1.09,3,2.37,3h11.26c1.28,0,2.37-1.37,2.37-3S18.91,9,17.63,9z
			 M7.24,14.46l-2.57-2.57l0.7-0.7l1.87,1.87l3.52-3.52l0.7,0.7L7.24,14.46z"/>
		<path d="M17.63,7H6.37C3.96,7,2,9.24,2,12s1.96,5,4.37,5h11.26c2.41,0,4.37-2.24,4.37-5S20.04,7,17.63,7z M17.63,15H6.37
			C5.09,15,4,13.63,4,12s1.09-3,2.37-3h11.26C18.91,9,20,10.37,20,12S18.91,15,17.63,15z"/>
		<polygon points="7.24,13.06 5.37,11.19 4.67,11.89 7.24,14.46 11.46,10.24 10.76,9.54 		"/>
	</g>
</g>
</svg>
