<?xml version="1.0" encoding="utf-8"?>
<!-- Generator: Adobe Illustrator 19.1.0, SVG Export Plug-In . SVG Version: 6.00 Build 0)  -->
<svg version="1.1" xmlns="http://www.w3.org/2000/svg" xmlns:xlink="http://www.w3.org/1999/xlink" x="0px" y="0px" width="24px"
	 height="24px" viewBox="0 0 24 24" enable-background="new 0 0 24 24" xml:space="preserve">
<g id="Header_x2F_BG" display="none">
	<rect x="-314" y="-314" display="inline" fill="#F1F1F2" width="520" height="520"/>
</g>
<g id="Bounding_Boxes">
	<g id="ui_x5F_spec_x5F_header_copy_3">
	</g>
	<path fill="none" d="M0,0h24v24H0V0z"/>
</g>
<g id="Rounded" display="none">
	<g id="ui_x5F_spec_x5F_header_copy_5" display="inline">
	</g>
	<path display="inline" d="M6,17h12c0.55,0,1,0.45,1,1v0c0,0.55-0.45,1-1,1H6c-0.55,0-1-0.45-1-1v0C5,17.45,5.45,17,6,17z
		 M11.17,6.25l-4.8,7.2C5.92,14.11,6.4,15,7.2,15h9.6c0.8,0,1.28-0.89,0.83-1.55l-4.8-7.2C12.44,5.65,11.56,5.65,11.17,6.25z"/>
</g>
<g id="Sharp" display="none">
	<g id="ui_x5F_spec_x5F_header_copy_4" display="inline">
	</g>
	<path display="inline" d="M5,17h14v2H5V17z M12,5L5.33,15h13.34L12,5z"/>
</g>
<g id="Outline" display="none">
	<g id="ui_x5F_spec_x5F_header" display="inline">
	</g>
	<g display="inline">
		<rect x="5" y="17" width="14" height="2"/>
		<path d="M12,5L5.33,15h13.34L12,5z M12,8.6l2.93,4.4H9.07L12,8.6z"/>
	</g>
</g>
<g id="Duotone">
	<g id="ui_x5F_spec_x5F_header_copy_2">
	</g>
	<g>
		<polygon opacity="0.3" points="12,8.6 9.07,13 14.93,13 		"/>
		<g>
			<rect x="5" y="17" width="14" height="2"/>
			<path d="M12,5L5.33,15h13.34L12,5z M12,8.6l2.93,4.4H9.07L12,8.6z"/>
		</g>
	</g>
</g>
<g id="Fill" display="none">
	<g id="ui_x5F_spec_x5F_header_copy" display="inline">
	</g>
	<path display="inline" d="M5,17h14v2H5V17z M12,5L5.33,15h13.34L12,5z"/>
</g>
<g id="nyt_x5F_exporter_x5F_info" display="none">
</g>
</svg>
