<?xml version="1.0" encoding="utf-8"?>
<!-- Generator: Adobe Illustrator 19.1.0, SVG Export Plug-In . SVG Version: 6.00 Build 0)  -->
<svg version="1.1" xmlns="http://www.w3.org/2000/svg" xmlns:xlink="http://www.w3.org/1999/xlink" x="0px" y="0px" width="24px"
	 height="24px" viewBox="0 0 24 24" enable-background="new 0 0 24 24" xml:space="preserve">
<g id="Bounding_Boxes" display="none">
	<g id="ui_x5F_spec_x5F_header_copy_3" display="inline">
	</g>
	<path display="inline" fill="none" d="M0,0h24v24H0V0z"/>
</g>
<g id="Duotone">
	<g id="ui_x5F_spec_x5F_header_copy_2">
	</g>
	<g>
		<path opacity="0.3" d="M12,4c-4.42,0-8,3.58-8,8c0,4.42,3.58,8,8,8s8-3.58,8-8C20,7.58,16.42,4,12,4z M13,17h-2v-2h2V17z M13,13
			h-2V7h2V13z"/>
		<path d="M11.99,2C6.47,2,2,6.48,2,12c0,5.52,4.47,10,9.99,10C17.52,22,22,17.52,22,12C22,6.48,17.52,2,11.99,2z M12,20
			c-4.42,0-8-3.58-8-8c0-4.42,3.58-8,8-8s8,3.58,8,8C20,16.42,16.42,20,12,20z"/>
		<rect x="11" y="15" width="2" height="2"/>
		<rect x="11" y="7" width="2" height="6"/>
	</g>
</g>
</svg>
