<?xml version="1.0" encoding="utf-8"?>
<!-- Generator: Adobe Illustrator 19.1.0, SVG Export Plug-In . SVG Version: 6.00 Build 0)  -->
<svg version="1.1" xmlns="http://www.w3.org/2000/svg" xmlns:xlink="http://www.w3.org/1999/xlink" x="0px" y="0px" width="24px"
	 height="24px" viewBox="0 0 24 24" enable-background="new 0 0 24 24" xml:space="preserve">
<g id="Bounding_Boxes">
	<path fill="none" d="M0,0h24v24H0V0z"/>
</g>
<g id="Duotone">
	<g id="ui_x5F_spec_x5F_header_copy">
	</g>
	<g>
		<path opacity="0.3" d="M5,19h14V5H5V19z M9,7h6v2h-4v2h4v2h-4v2h4v2H9V7z"/>
		<path d="M21,19V5c0-1.1-0.9-2-2-2H5C3.9,3,3,3.9,3,5v14c0,1.1,0.9,2,2,2h14C20.1,21,21,20.1,21,19z M19,19H5V5h14V19z"/>
		<polygon points="15,15 11,15 11,13 15,13 15,11 11,11 11,9 15,9 15,7 9,7 9,17 15,17 		"/>
	</g>
</g>
</svg>
