<?xml version="1.0" encoding="utf-8"?>
<!-- Generator: Adobe Illustrator 19.1.0, SVG Export Plug-In . SVG Version: 6.00 Build 0)  -->
<svg version="1.1" xmlns="http://www.w3.org/2000/svg" xmlns:xlink="http://www.w3.org/1999/xlink" x="0px" y="0px" width="24px"
	 height="24px" viewBox="0 0 24 24" enable-background="new 0 0 24 24" xml:space="preserve">
<g id="Bounding_Boxes">
	<g id="ui_x5F_spec_x5F_header_copy_3">
	</g>
	<path fill="none" d="M0,0h24v24H0V0z"/>
</g>
<g id="Duotone">
	<g id="ui_x5F_spec_x5F_header_copy_5">
	</g>
	<g>
		<rect x="13" y="7" opacity="0.3" width="2" height="2"/>
		<path opacity="0.3" d="M7,17h14V3H7V17z M11,13h4v-2h-2c-1.1,0-2-0.89-2-2V7c0-1.11,0.9-2,2-2h2c1.1,0,2,0.89,2,2v6
			c0,1.11-0.9,2-2,2h-4V13z"/>
		<path d="M21,1H7C5.9,1,5,1.9,5,3v14c0,1.1,0.9,2,2,2h14c1.1,0,2-0.9,2-2V3C23,1.9,22.1,1,21,1z M21,17H7V3h14V17z"/>
		<path d="M3,23h16v-2H3V5H1v16C1,22.1,1.9,23,3,23z"/>
		<path d="M17,13V7c0-1.11-0.9-2-2-2h-2c-1.1,0-2,0.89-2,2v2c0,1.11,0.9,2,2,2h2v2h-4v2h4C16.1,15,17,14.11,17,13z M13,9V7h2v2H13z"
			/>
	</g>
</g>
</svg>
