<?xml version="1.0" encoding="utf-8"?>
<!-- Generator: Adobe Illustrator 19.1.0, SVG Export Plug-In . SVG Version: 6.00 Build 0)  -->
<svg version="1.1" xmlns="http://www.w3.org/2000/svg" xmlns:xlink="http://www.w3.org/1999/xlink" x="0px" y="0px" width="24px"
	 height="24px" viewBox="0 0 24 24" enable-background="new 0 0 24 24" xml:space="preserve">
<g id="Bounding_Boxes">
	<g id="ui_x5F_spec_x5F_header_copy_3">
	</g>
	<path fill="none" d="M0,0h24v24H0V0z"/>
</g>
<g id="Duotone">
	<g id="ui_x5F_spec_x5F_header_copy_5">
	</g>
	<g>
		<path opacity="0.3" d="M21,3H7v14h14V3z M17,15h-2v-4h-4V5h2v4h2V5h2V15z"/>
		<path d="M3,23h16v-2H3V5H1v16C1,22.1,1.9,23,3,23z"/>
		<path d="M7,19h14c1.1,0,2-0.9,2-2V3c0-1.1-0.9-2-2-2H7C5.9,1,5,1.9,5,3v14C5,18.1,5.9,19,7,19z M7,3h14v14H7V3z"/>
		<polygon points="15,9 13,9 13,5 11,5 11,11 15,11 15,15 17,15 17,5 15,5 		"/>
	</g>
</g>
</svg>
