<?xml version="1.0" encoding="utf-8"?>
<!-- Generator: Adobe Illustrator 19.1.0, SVG Export Plug-In . SVG Version: 6.00 Build 0)  -->
<svg version="1.1" xmlns="http://www.w3.org/2000/svg" xmlns:xlink="http://www.w3.org/1999/xlink" x="0px" y="0px" width="24px"
	 height="24px" viewBox="0 0 24 24" enable-background="new 0 0 24 24" xml:space="preserve">
<g id="Bounding_Boxes">
	<g id="ui_x5F_spec_x5F_header_copy_3">
	</g>
	<path fill="none" d="M0,0h24v24H0V0z"/>
</g>
<g id="Duotone">
	<g id="ui_x5F_spec_x5F_header_copy_5">
	</g>
	<g>
		<path opacity="0.3" d="M7,17h14v-6h-2v2h-2v-2h-2V9h2V7h2v2h2V3H7V17z M9,12h3v-1h-1c-1.1,0-2-0.89-2-2V8c0-1.11,0.9-2,2-2h1
			c1.1,0,2,0.89,2,2v4c0,1.11-0.9,2-2,2H9V12z"/>
		<path d="M19,21H3V5H1v16c0,1.1,0.9,2,2,2h16V21z"/>
		<rect x="11" y="8" opacity="0.3" width="1" height="1"/>
		<path d="M12,6h-1C9.9,6,9,6.89,9,8v1c0,1.11,0.9,2,2,2h1v1H9v2h3c1.1,0,2-0.89,2-2V8C14,6.89,13.1,6,12,6z M12,9h-1V8h1V9z"/>
		<path d="M21,1H7C5.9,1,5,1.9,5,3v14c0,1.1,0.9,2,2,2h14c1.1,0,2-0.9,2-2V3C23,1.9,22.1,1,21,1z M21,9h-2V7h-2v2h-2v2h2v2h2v-2h2v6
			H7V3h14V9z"/>
	</g>
</g>
</svg>
