<?xml version="1.0" encoding="utf-8"?>
<!-- Generator: Adobe Illustrator 19.1.0, SVG Export Plug-In . SVG Version: 6.00 Build 0)  -->
<svg version="1.1" xmlns="http://www.w3.org/2000/svg" xmlns:xlink="http://www.w3.org/1999/xlink" x="0px" y="0px" width="24px"
	 height="24px" viewBox="0 0 24 24" enable-background="new 0 0 24 24" xml:space="preserve">
<g id="Bounding_Boxes">
	<g id="ui_x5F_spec_x5F_header_copy_3">
	</g>
	<path fill="none" d="M0,0h24v24H0V0z"/>
</g>
<g id="Duotone">
	<g id="ui_x5F_spec_x5F_header_copy_5">
	</g>
	<g>
		<rect x="19" y="7" width="2" height="2"/>
		<path d="M19,21c1.1,0,2-0.9,2-2h-2V21z"/>
		<rect x="19" y="15" width="2" height="2"/>
		<rect x="19" y="11" width="2" height="2"/>
		<path d="M9,5V3H5C3.9,3,3,3.9,3,5v14c0,1.1,0.9,2,2,2h4v-2H5V5H9z"/>
		<path d="M19,3v2h2C21,3.9,20.1,3,19,3z"/>
		<rect x="11" y="1" width="2" height="22"/>
		<rect x="15" y="3" width="2" height="2"/>
		<rect x="15" y="19" width="2" height="2"/>
	</g>
</g>
</svg>
