<?xml version="1.0" encoding="utf-8"?>
<!-- Generator: Adobe Illustrator 19.1.0, SVG Export Plug-In . SVG Version: 6.00 Build 0)  -->
<svg version="1.1" xmlns="http://www.w3.org/2000/svg" xmlns:xlink="http://www.w3.org/1999/xlink" x="0px" y="0px" width="24px"
	 height="24px" viewBox="0 0 24 24" enable-background="new 0 0 24 24" xml:space="preserve">
<g id="Bounding_Boxes">
	<g id="ui_x5F_spec_x5F_header_copy_3">
	</g>
	<path fill="none" d="M0,0h24v24H0V0z"/>
</g>
<g id="Duotone">
	<g id="ui_x5F_spec_x5F_header_copy_2">
	</g>
	<g>
		<polygon opacity="0.3" points="16.62,16 17.38,16 19,12.76 19,8 15,8 15,12 18.62,12 		"/>
		<polygon opacity="0.3" points="6.62,16 7.38,16 9,12.76 9,8 5,8 5,12 8.62,12 		"/>
		<path d="M18.62,18L21,13.24V6h-8v8h2.38l-2,4H18.62z M15,12V8h4v4.76L17.38,16h-0.76l2-4H15z"/>
		<path d="M3.38,18h5.24L11,13.24V6H3v8h2.38L3.38,18z M5,12V8h4v4.76L7.38,16H6.62l2-4H5z"/>
	</g>
</g>
</svg>
