<?xml version="1.0" encoding="utf-8"?>
<!-- Generator: Adobe Illustrator 19.1.0, SVG Export Plug-In . SVG Version: 6.00 Build 0)  -->
<svg version="1.1" xmlns="http://www.w3.org/2000/svg" xmlns:xlink="http://www.w3.org/1999/xlink" x="0px" y="0px" width="24px"
	 height="24px" viewBox="0 0 24 24" enable-background="new 0 0 24 24" xml:space="preserve">
<g id="Bounding_Boxes">
	<g id="ui_x5F_spec_x5F_header_copy_3">
	</g>
	<path fill="none" d="M0,0h24v24H0V0z"/>
</g>
<g id="Duotone">
	<g id="ui_x5F_spec_x5F_header_copy_2">
	</g>
	<g>
		<path opacity="0.3" d="M8,6c0,1.1,0.9,2,2,2V4C8.9,4,8,4.9,8,6z"/>
		<path d="M6,6c0,2.21,1.79,4,4,4v5h2V4h2v11h2V4h2V2h-8C7.79,2,6,3.79,6,6z M10,8C8.9,8,8,7.1,8,6s0.9-2,2-2V8z"/>
		<polygon points="4,18 8,22 8,19 20,19 20,17 8,17 8,14 		"/>
	</g>
</g>
</svg>
