<?xml version="1.0" encoding="utf-8"?>
<!-- Generator: Adobe Illustrator 19.1.0, SVG Export Plug-In . SVG Version: 6.00 Build 0)  -->
<svg version="1.1" xmlns="http://www.w3.org/2000/svg" xmlns:xlink="http://www.w3.org/1999/xlink" x="0px" y="0px" width="24px"
	 height="24px" viewBox="0 0 24 24" enable-background="new 0 0 24 24" xml:space="preserve">
<g id="Bounding_Boxes">
	<g id="ui_x5F_spec_x5F_header_copy_3">
	</g>
	<path fill="none" d="M0,0h24v24H0V0z"/>
</g>
<g id="Duotone">
	<g id="ui_x5F_spec_x5F_header_copy_2">
	</g>
	<g>
		<polygon points="5,13 3.2,13 5,10.9 5,10 2,10 2,11 3.8,11 2,13.1 2,14 5,14 		"/>
		<rect x="7" y="5" width="14" height="2"/>
		<polygon points="5,16 2,16 2,17 4,17 4,17.5 3,17.5 3,18.5 4,18.5 4,19 2,19 2,20 5,20 		"/>
		<rect x="7" y="17" width="14" height="2"/>
		<polygon points="3,8 4,8 4,4 2,4 2,5 3,5 		"/>
		<rect x="7" y="11" width="14" height="2"/>
	</g>
</g>
</svg>
