<?xml version="1.0" encoding="utf-8"?>
<!-- Generator: Adobe Illustrator 19.1.0, SVG Export Plug-In . SVG Version: 6.00 Build 0)  -->
<svg version="1.1" xmlns="http://www.w3.org/2000/svg" xmlns:xlink="http://www.w3.org/1999/xlink" x="0px" y="0px" width="24px"
	 height="24px" viewBox="0 0 24 24" enable-background="new 0 0 24 24" xml:space="preserve">
<g id="Bounding_Boxes">
	<g id="ui_x5F_spec_x5F_header_copy_3">
	</g>
	<path fill="none" d="M0,0h24v24H0V0z"/>
</g>
<g id="Duotone">
	<g id="ui_x5F_spec_x5F_header_copy_2">
	</g>
	<g>
		<path opacity="0.3" d="M9,8V4C7.9,4,7,4.9,7,6S7.9,8,9,8z"/>
		<path d="M9,10v5h2V4h2v11h2V4h2V2H9C6.79,2,5,3.79,5,6S6.79,10,9,10z M9,4v4C7.9,8,7,7.1,7,6S7.9,4,9,4z"/>
		<polygon points="21,18 17,14 17,17 5,17 5,19 17,19 17,22 		"/>
	</g>
</g>
</svg>
