<?xml version="1.0" encoding="utf-8"?>
<!-- Generator: Adobe Illustrator 19.1.0, SVG Export Plug-In . SVG Version: 6.00 Build 0)  -->
<svg version="1.1" xmlns="http://www.w3.org/2000/svg" xmlns:xlink="http://www.w3.org/1999/xlink" x="0px" y="0px" width="24px"
	 height="24px" viewBox="0 0 24 24" enable-background="new 0 0 24 24" xml:space="preserve">
<g id="Bounding_Boxes">
	<g id="ui_x5F_spec_x5F_header_copy_3">
	</g>
	<path fill="none" d="M0,0h24v24H0V0z"/>
</g>
<g id="Duotone">
	<g id="ui_x5F_spec_x5F_header_copy_2">
	</g>
	<g>
		<polygon opacity="0.3" points="10,5.21 5.21,10 14.79,10 		"/>
		<path d="M19,17c1.1,0,2-0.9,2-2c0-1.33-2-3.5-2-3.5s-2,2.17-2,3.5C17,16.1,17.9,17,19,17z"/>
		<path d="M8.94,16.56C9.23,16.85,9.62,17,10,17s0.77-0.15,1.06-0.44l5.5-5.5c0.59-0.58,0.59-1.53,0-2.12L7.62,0L6.21,1.41
			l2.38,2.38L3.44,8.94c-0.59,0.59-0.59,1.54,0,2.12L8.94,16.56z M10,5.21L14.79,10H5.21L10,5.21z"/>
		<rect y="20" fill-opacity="0.36" width="24" height="4"/>
	</g>
</g>
</svg>
