<?xml version="1.0" encoding="utf-8"?>
<!-- Generator: Adobe Illustrator 19.1.0, SVG Export Plug-In . SVG Version: 6.00 Build 0)  -->
<svg version="1.1" xmlns="http://www.w3.org/2000/svg" xmlns:xlink="http://www.w3.org/1999/xlink" x="0px" y="0px" width="24px"
	 height="24px" viewBox="0 0 24 24" enable-background="new 0 0 24 24" xml:space="preserve">
<g id="Bounding_Boxes">
	<g id="ui_x5F_spec_x5F_header_copy_3">
	</g>
	<path fill="none" d="M0,0h24v24H0V0z"/>
</g>
<g id="Duotone">
	<g id="ui_x5F_spec_x5F_header_copy_2">
	</g>
	<path d="M17.25,8c0-2.26-1.75-4-4-4H7v14h7.04c2.09,0,3.71-1.7,3.71-3.79c0-1.52-0.86-2.82-2.15-3.42
		C16.57,10.12,17.25,9.02,17.25,8z M10,6.5h3c0.83,0,1.5,0.67,1.5,1.5c0,0.83-0.67,1.5-1.5,1.5h-3V6.5z M13.5,15.5H10v-3h3.5
		c0.83,0,1.5,0.67,1.5,1.5C15,14.83,14.33,15.5,13.5,15.5z"/>
</g>
</svg>
