<?xml version="1.0" encoding="utf-8"?>
<!-- Generator: Adobe Illustrator 19.1.0, SVG Export Plug-In . SVG Version: 6.00 Build 0)  -->
<svg version="1.1" xmlns="http://www.w3.org/2000/svg" xmlns:xlink="http://www.w3.org/1999/xlink" x="0px" y="0px" width="24px"
	 height="24px" viewBox="0 0 24 24" enable-background="new 0 0 24 24" xml:space="preserve">
<g id="Bounding_Boxes">
	<g id="ui_x5F_spec_x5F_header_copy_3">
	</g>
	<path fill="none" d="M0,0h24v24H0V0z"/>
</g>
<g id="Duotone">
	<g id="ui_x5F_spec_x5F_header_copy_2">
	</g>
	<g>
		<rect x="2" y="11" width="14" height="2"/>
		<polygon points="18,17 20,17 20,17.5 19,17.5 19,18.5 20,18.5 20,19 18,19 18,20 21,20 21,16 18,16 		"/>
		<polygon points="18,11 19.8,11 18,13.1 18,14 21,14 21,13 19.2,13 21,10.9 21,10 18,10 		"/>
		<polygon points="20,8 20,4 18,4 18,5 19,5 19,8 		"/>
		<rect x="2" y="17" width="14" height="2"/>
		<rect x="2" y="5" width="14" height="2"/>
	</g>
</g>
</svg>
