<?xml version="1.0" encoding="utf-8"?>
<!-- Generator: Adobe Illustrator 19.1.0, SVG Export Plug-In . SVG Version: 6.00 Build 0)  -->
<svg version="1.1" xmlns="http://www.w3.org/2000/svg" xmlns:xlink="http://www.w3.org/1999/xlink" x="0px" y="0px" width="24px"
	 height="24px" viewBox="0 0 24 24" enable-background="new 0 0 24 24" xml:space="preserve">
<g id="Bounding_Boxes">
	<g id="ui_x5F_spec_x5F_header_copy_3">
	</g>
	<path fill="none" d="M0,0h24v24H0V0z"/>
</g>
<g id="Duotone">
	<g id="ui_x5F_spec_x5F_header_copy_2">
	</g>
	<g>
		<rect x="6" y="4" opacity="0.3" width="10" height="2"/>
		<path d="M17,2H5C4.45,2,4,2.45,4,3v4c0,0.55,0.45,1,1,1h12c0.55,0,1-0.45,1-1V6h1v4H9v11c0,0.55,0.45,1,1,1h2c0.55,0,1-0.45,1-1
			v-9h8V4h-3V3C18,2.45,17.55,2,17,2z M16,6H6V4h10V6z"/>
	</g>
</g>
</svg>
