<?xml version="1.0" encoding="utf-8"?>
<!-- Generator: Adobe Illustrator 19.1.0, SVG Export Plug-In . SVG Version: 6.00 Build 0)  -->
<svg version="1.1" xmlns="http://www.w3.org/2000/svg" xmlns:xlink="http://www.w3.org/1999/xlink" x="0px" y="0px" width="24px"
	 height="24px" viewBox="0 0 24 24" enable-background="new 0 0 24 24" xml:space="preserve">
<g id="Bounding_Boxes">
	<g id="ui_x5F_spec_x5F_header_copy_3">
	</g>
	<path fill="none" d="M0,0h24v24H0V0z"/>
</g>
<g id="Duotone">
	<g id="ui_x5F_spec_x5F_header_copy_2">
	</g>
	<g>
		<polygon opacity="0.3" points="6.67,11 4,11 4,13 6.67,13 7.67,12 		"/>
		<polygon opacity="0.3" points="13,6.67 13,4 11,4 11,6.67 12,7.67 		"/>
		<polygon opacity="0.3" points="11,17.33 11,20 13,20 13,17.33 12,16.33 		"/>
		<polygon opacity="0.3" points="16.33,12 17.33,13 20,13 20,11 17.33,11 		"/>
		<path d="M9,16.5V22h6v-5.5l-3-3L9,16.5z M13,20h-2v-2.67l1-1l1,1V20z"/>
		<path d="M15,7.5V2H9v5.5l3,3L15,7.5z M11,4h2v2.67l-1,1l-1-1V4z"/>
		<path d="M7.5,9H2v6h5.5l3-3L7.5,9z M6.67,13H4v-2h2.67l1,1L6.67,13z"/>
		<path d="M16.5,9l-3,3l3,3H22V9H16.5z M20,13h-2.67l-1-1l1-1H20V13z"/>
	</g>
</g>
</svg>
