<?xml version="1.0" encoding="utf-8"?>
<!-- Generator: Adobe Illustrator 19.1.0, SVG Export Plug-In . SVG Version: 6.00 Build 0)  -->
<svg version="1.1" xmlns="http://www.w3.org/2000/svg" xmlns:xlink="http://www.w3.org/1999/xlink" x="0px" y="0px" width="24px"
	 height="24px" viewBox="0 0 24 24" enable-background="new 0 0 24 24" xml:space="preserve">
<g id="Bounding_Boxes">
	<path fill="none" d="M0,0h24v24H0V0z"/>
</g>
<g id="Duotone">
	<g id="ui_x5F_spec_x5F_header_copy">
	</g>
	<g>
		<polygon opacity="0.3" points="11,17.33 11,20 13,20 13,17.33 12,16.33 		"/>
		<polygon opacity="0.3" points="13,6.67 13,4 11,4 11,6.67 12,7.67 		"/>
		<polygon opacity="0.3" points="16.33,12 17.33,13 20,13 20,11 17.33,11 		"/>
		<polygon opacity="0.3" points="4,11 4,13 6.67,13 7.67,12 6.67,11 		"/>
		<path d="M2,9v6h5.5l3-3l-3-3H2z M6.67,13H4v-2h2.67l1,1L6.67,13z"/>
		<path d="M22,9h-5.5l-3,3l3,3H22V9z M20,13h-2.67l-1-1l1-1H20V13z"/>
		<path d="M15,16.5l-3-3l-3,3V22h6V16.5z M13,20h-2v-2.67l1-1l1,1V20z"/>
		<path d="M9,7.5l3,3l3-3V2H9V7.5z M11,4h2v2.67l-1,1l-1-1V4z"/>
	</g>
</g>
</svg>
