<?xml version="1.0" encoding="utf-8"?>
<!-- Generator: Adobe Illustrator 19.1.0, SVG Export Plug-In . SVG Version: 6.00 Build 0)  -->
<svg version="1.1" xmlns="http://www.w3.org/2000/svg" xmlns:xlink="http://www.w3.org/1999/xlink" x="0px" y="0px" width="24px"
	 height="24px" viewBox="0 0 24 24" enable-background="new 0 0 24 24" xml:space="preserve">
<g id="Bounding_Boxes">
	<path fill="none" d="M0,0h24v24H0V0z"/>
</g>
<g id="Duotone">
	<g id="ui_x5F_spec_x5F_header_copy" display="none">
	</g>
	<g>
		<circle opacity="0.3" cx="19.5" cy="19.5" r="1.5"/>
		<path opacity="0.3" d="M17,5.92L9,2v18H7v-1.73C5.21,18.62,4,19.26,4,20c0,1.1,2.69,2,6,2s6-0.9,6-2c0-0.99-2.16-1.81-5-1.97V8.98
			L17,5.92z"/>
		<circle cx="19.5" cy="19.5" r="1.5"/>
		<path d="M17,5.92L9,2v18H7v-1.73C5.21,18.62,4,19.26,4,20c0,1.1,2.69,2,6,2s6-0.9,6-2c0-0.99-2.16-1.81-5-1.97V8.98L17,5.92z"/>
	</g>
</g>
</svg>
