<?xml version="1.0" encoding="utf-8"?>
<!-- Generator: Adobe Illustrator 19.1.0, SVG Export Plug-In . SVG Version: 6.00 Build 0)  -->
<svg version="1.1" xmlns="http://www.w3.org/2000/svg" xmlns:xlink="http://www.w3.org/1999/xlink" x="0px" y="0px" width="24px"
	 height="24px" viewBox="0 0 24 24" enable-background="new 0 0 24 24" xml:space="preserve">
<g id="Bounding_Boxes">
	<g id="ui_x5F_spec_x5F_header_copy_3">
	</g>
	<path fill="none" d="M0,0h24v24H0V0z"/>
</g>
<g id="Duotone">
	<g id="ui_x5F_spec_x5F_header_copy_5">
	</g>
	<g>
		<path d="M18,8c1.1,0,2-0.9,2-2c0-1.1-0.9-2-2-2s-2,0.9-2,2C16,7.1,16.9,8,18,8z"/>
		<path d="M18,16c1.1,0,2-0.9,2-2c0-1.1-0.9-2-2-2s-2,0.9-2,2C16,15.1,16.9,16,18,16z"/>
		<path d="M6,8c-1.1,0-2,0.9-2,2c0,1.1,0.9,2,2,2s2-0.9,2-2C8,8.9,7.1,8,6,8z"/>
		<path d="M14,8c-1.1,0-2,0.9-2,2c0,1.1,0.9,2,2,2s2-0.9,2-2C16,8.9,15.1,8,14,8z"/>
		<path d="M10,16c1.1,0,2-0.9,2-2c0-1.1-0.9-2-2-2s-2,0.9-2,2C8,15.1,8.9,16,10,16z"/>
		<path d="M10,4C8.9,4,8,4.9,8,6c0,1.1,0.9,2,2,2s2-0.9,2-2C12,4.9,11.1,4,10,4z"/>
		<path d="M14,16c-1.1,0-2,0.9-2,2c0,1.1,0.9,2,2,2s2-0.9,2-2C16,16.9,15.1,16,14,16z"/>
		<path d="M6,20c1.1,0,2-0.9,2-2c0-1.1-0.9-2-2-2s-2,0.9-2,2C4,19.1,4.9,20,6,20z"/>
	</g>
</g>
</svg>
