<?xml version="1.0" encoding="utf-8"?>
<!-- Generator: Adobe Illustrator 19.1.0, SVG Export Plug-In . SVG Version: 6.00 Build 0)  -->
<svg version="1.1" xmlns="http://www.w3.org/2000/svg" xmlns:xlink="http://www.w3.org/1999/xlink" x="0px" y="0px" width="24px"
	 height="24px" viewBox="0 0 24 24" enable-background="new 0 0 24 24" xml:space="preserve">
<g id="Bounding_Boxes">
	<g id="ui_x5F_spec_x5F_header_copy_3">
	</g>
	<path fill="none" d="M0,0h24v24H0V0z"/>
</g>
<g id="Duotone">
	<g id="ui_x5F_spec_x5F_header_copy_5">
	</g>
	<g>
		<path d="M17,6c-3.31,0-6,2.69-6,6s2.69,6,6,6s6-2.69,6-6S20.31,6,17,6z M17,16c-2.21,0-4-1.79-4-4c0-2.21,1.79-4,4-4s4,1.79,4,4
			C21,14.21,19.21,16,17,16z"/>
		<g>
			<circle opacity="0.3" cx="5" cy="12" r="2"/>
			<path d="M5,8c-2.21,0-4,1.79-4,4c0,2.21,1.79,4,4,4s4-1.79,4-4C9,9.79,7.21,8,5,8z M5,14c-1.1,0-2-0.9-2-2c0-1.1,0.9-2,2-2
				c1.1,0,2,0.9,2,2C7,13.1,6.1,14,5,14z"/>
		</g>
	</g>
</g>
</svg>
