<?xml version="1.0" encoding="utf-8"?>
<!-- Generator: Adobe Illustrator 19.1.0, SVG Export Plug-In . SVG Version: 6.00 Build 0)  -->
<svg version="1.1" xmlns="http://www.w3.org/2000/svg" xmlns:xlink="http://www.w3.org/1999/xlink" x="0px" y="0px" width="24px"
	 height="24px" viewBox="0 0 24 24" enable-background="new 0 0 24 24" xml:space="preserve">
<g id="Bounding_Boxes">
	<g id="ui_x5F_spec_x5F_header_copy_3">
	</g>
	<path fill="none" d="M0,0h24v24H0V0z"/>
</g>
<g id="Duotone">
	<g id="ui_x5F_spec_x5F_header_copy_5">
	</g>
	<g>
		<polygon opacity="0.3" points="13.03,16.72 16.66,20.34 20.28,16.71 16.66,13.09 		"/>
		<polygon opacity="0.3" points="7.29,3.71 3.66,7.34 7.29,10.96 10.91,7.33 		"/>
		<path d="M17.73,12.02l3.98-3.98c0.39-0.39,0.39-1.02,0-1.41l-4.34-4.34c-0.39-0.39-1.02-0.39-1.41,0l-3.98,3.98L8,2.29
			C7.8,2.1,7.55,2,7.29,2c-0.25,0-0.51,0.1-0.7,0.29L2.25,6.63c-0.39,0.39-0.39,1.02,0,1.41l3.98,3.98L2.25,16
			c-0.39,0.39-0.39,1.02,0,1.41l4.34,4.34c0.39,0.39,1.02,0.39,1.41,0l3.98-3.98l3.98,3.98c0.2,0.2,0.45,0.29,0.71,0.29
			s0.51-0.1,0.71-0.29l4.34-4.34c0.39-0.39,0.39-1.02,0-1.41L17.73,12.02z M12,9c0.55,0,1,0.45,1,1s-0.45,1-1,1s-1-0.45-1-1
			S11.45,9,12,9z M7.29,10.96L3.66,7.34l3.63-3.63l3.62,3.62L7.29,10.96z M10,13c-0.55,0-1-0.45-1-1s0.45-1,1-1s1,0.45,1,1
			S10.55,13,10,13z M12,15c-0.55,0-1-0.45-1-1s0.45-1,1-1s1,0.45,1,1S12.55,15,12,15z M14,11c0.55,0,1,0.45,1,1s-0.45,1-1,1
			s-1-0.45-1-1S13.45,11,14,11z M16.66,20.34l-3.63-3.62l3.63-3.63l3.62,3.62L16.66,20.34z"/>
	</g>
</g>
</svg>
