<?xml version="1.0" encoding="utf-8"?>
<!-- Generator: Adobe Illustrator 19.1.0, SVG Export Plug-In . SVG Version: 6.00 Build 0)  -->
<svg version="1.1" xmlns="http://www.w3.org/2000/svg" xmlns:xlink="http://www.w3.org/1999/xlink" x="0px" y="0px" width="24px"
	 height="24px" viewBox="0 0 24 24" enable-background="new 0 0 24 24" xml:space="preserve">
<g id="Bounding_Boxes">
	<g id="ui_x5F_spec_x5F_header_copy_3">
	</g>
	<rect fill="none" width="24" height="24"/>
</g>
<g id="Duotone">
	<g id="ui_x5F_spec_x5F_header_copy_2">
	</g>
	<g>
		<polygon opacity="0.3" points="11,20 13,20 13,16.17 16,13.17 16,11 8,11 8,13.17 11,16.17 		"/>
		<path d="M6,14l3,3v5h6v-5l3-3V9H6V14z M8,11h8v2.17l-3,3V20h-2v-3.83l-3-3V11z"/>
		<rect x="11" y="2" width="2" height="3"/>
		<rect x="3.77" y="5.23" transform="matrix(0.7068 0.7074 -0.7074 0.7068 5.9507 -1.8997)" width="3" height="2"/>
		<rect x="17.73" y="4.73" transform="matrix(-0.7071 -0.7071 0.7071 -0.7071 27.5645 23.8819)" width="2" height="3"/>
	</g>
</g>
</svg>
