<?xml version="1.0" encoding="utf-8"?>
<!-- Generator: Adobe Illustrator 19.1.0, SVG Export Plug-In . SVG Version: 6.00 Build 0)  -->
<svg version="1.1" xmlns="http://www.w3.org/2000/svg" xmlns:xlink="http://www.w3.org/1999/xlink" x="0px" y="0px" width="24px"
	 height="24px" viewBox="0 0 24 24" enable-background="new 0 0 24 24" xml:space="preserve">
<g id="Bounding_Boxes">
	<g id="ui_x5F_spec_x5F_header_copy_3" display="none">
	</g>
	<path fill="none" d="M0,0h24v24H0V0z"/>
</g>
<g id="Duotone">
	<g id="ui_x5F_spec_x5F_header_copy_2" display="none">
	</g>
	<g>
		<rect x="5" y="19" opacity="0.3" width="14" height="1"/>
		<path d="M18,13h-0.68l-2,2h1.91L19,17H5l1.78-2h2.05l-2-2H6l-3,3v4c0,1.1,0.89,2,1.99,2H19c1.1,0,2-0.89,2-2v-4L18,13z M19,20H5
			v-1h14V20z"/>
		<g>
			
				<rect x="10.25" y="5.15" transform="matrix(-0.7071 -0.7071 0.7071 -0.7071 15.6541 23.7942)" opacity="0.3" width="5.01" height="7"/>
			<path d="M19.11,7.25L14.16,2.3c-0.38-0.4-1.01-0.4-1.4-0.01L6.39,8.66C6,9.05,6,9.68,6.39,10.07l4.95,4.95
				c0.39,0.39,1.02,0.39,1.41,0l6.36-6.36C19.5,8.27,19.5,7.64,19.11,7.25z M12.05,12.9L8.51,9.36l4.95-4.95L17,7.95L12.05,12.9z"/>
		</g>
	</g>
</g>
</svg>
