<?xml version="1.0" encoding="utf-8"?>
<!-- Generator: Adobe Illustrator 19.1.0, SVG Export Plug-In . SVG Version: 6.00 Build 0)  -->
<svg version="1.1" xmlns="http://www.w3.org/2000/svg" xmlns:xlink="http://www.w3.org/1999/xlink" x="0px" y="0px" width="24px"
	 height="24px" viewBox="0 0 24 24" enable-background="new 0 0 24 24" xml:space="preserve">
<g id="Bounding_Boxes">
	<g id="ui_x5F_spec_x5F_header_copy_3" display="none">
	</g>
	<path fill="none" d="M0,0h24v24H0V0z"/>
</g>
<g id="Duotone">
	<g id="ui_x5F_spec_x5F_header_copy_2" display="none">
	</g>
	<g>
		<circle opacity="0.3" cx="11" cy="8" r="2"/>
		<path opacity="0.3" d="M5,18h4.99L9,17l0.93-0.94C7.55,16.33,5.2,17.37,5,18z"/>
		<path d="M11,12c2.21,0,4-1.79,4-4c0-2.21-1.79-4-4-4S7,5.79,7,8C7,10.21,8.79,12,11,12z M11,6c1.1,0,2,0.9,2,2c0,1.1-0.9,2-2,2
			S9,9.1,9,8C9,6.9,9.9,6,11,6z"/>
		<path d="M10,18L10,18H5c0.2-0.63,2.55-1.67,4.93-1.94c0.01,0,0.02,0,0.03,0l0.46-0.45L12,14.06C11.61,14.02,11.32,14,11,14
			c-2.67,0-8,1.34-8,4v2h8.97H12L10,18z"/>
		<polygon points="20.6,12.5 15.47,17.67 13.4,15.59 12,17 15.47,20.5 22,13.91 		"/>
	</g>
</g>
</svg>
