<?xml version="1.0" encoding="utf-8"?>
<!-- Generator: Adobe Illustrator 19.1.0, SVG Export Plug-In . SVG Version: 6.00 Build 0)  -->
<svg version="1.1" xmlns="http://www.w3.org/2000/svg" xmlns:xlink="http://www.w3.org/1999/xlink" x="0px" y="0px" width="24px"
	 height="24px" viewBox="0 0 24 24" enable-background="new 0 0 24 24" xml:space="preserve">
<g id="Bounding_Boxes">
	<g id="ui_x5F_spec_x5F_header_copy_3" display="none">
	</g>
	<path opacity="0.87" fill="none" d="M24,24H0V0h24V24z"/>
</g>
<g id="Duotone">
	<g id="ui_x5F_spec_x5F_header_copy_2" display="none">
	</g>
	<path d="M4.5,11h-2V9H1v6h1.5v-2.5h2V15H6V9H4.5V11z M7,10.5h1.5V15H10v-4.5h1.5V9H7V10.5z M12.5,10.5H14V15h1.5v-4.5H17V9h-4.5
		V10.5z M21.5,9H18v6h1.5v-2h2c0.8,0,1.5-0.7,1.5-1.5v-1C23,9.7,22.3,9,21.5,9z M21.5,11.5h-2v-1h2V11.5z"/>
</g>
</svg>
