<?xml version="1.0" encoding="utf-8"?>
<!-- Generator: Adobe Illustrator 19.1.0, SVG Export Plug-In . SVG Version: 6.00 Build 0)  -->
<svg version="1.1" xmlns="http://www.w3.org/2000/svg" xmlns:xlink="http://www.w3.org/1999/xlink" x="0px" y="0px" width="24px"
	 height="24px" viewBox="0 0 24 24" enable-background="new 0 0 24 24" xml:space="preserve">
<g id="Bounding_Boxes">
	<g id="ui_x5F_spec_x5F_header_copy_3" display="none">
	</g>
	<path fill="none" d="M0,0h24v24H0V0z"/>
</g>
<g id="Duotone">
	<g id="ui_x5F_spec_x5F_header_copy_2" display="none">
	</g>
	<g>
		<rect x="18" y="13" opacity="0.3" width="5" height="7"/>
		<path d="M23,11.01L18,11c-0.55,0-1,0.45-1,1v9c0,0.55,0.45,1,1,1h5c0.55,0,1-0.45,1-1v-9C24,11.45,23.55,11.01,23,11.01z M23,20
			h-5v-7h5V20z"/>
		<path d="M2,4h18v5h2V4c0-1.11-0.9-2-2-2H2C0.89,2,0,2.89,0,4v12c0,1.1,0.89,2,2,2h7v2H7v2h8v-2h-2v-2h2v-2H2V4z"/>
		<polygon points="11,6 10.03,9 7,9 9.47,10.76 8.53,13.67 11,11.87 13.47,13.67 12.53,10.76 15,9 11.97,9 		"/>
	</g>
</g>
</svg>
