<?xml version="1.0" encoding="utf-8"?>
<!-- Generator: Adobe Illustrator 19.1.0, SVG Export Plug-In . SVG Version: 6.00 Build 0)  -->
<svg version="1.1" xmlns="http://www.w3.org/2000/svg" xmlns:xlink="http://www.w3.org/1999/xlink" x="0px" y="0px" width="24px"
	 height="24px" viewBox="0 0 24 24" enable-background="new 0 0 24 24" xml:space="preserve">
<g id="Bounding_Boxes">
	<g id="ui_x5F_spec_x5F_header_copy_3" display="none">
	</g>
	<path fill="none" d="M0,0h24v24H0V0z"/>
	<path opacity="0.87" fill="none" d="M0,0h24v24H0V0z"/>
</g>
<g id="Duotone">
	<g id="ui_x5F_spec_x5F_header_copy_2" display="none">
	</g>
	<path d="M21,3.01H3c-1.1,0-2,0.9-2,2V9h2V4.99h18v14.03H3V15H1v4.01c0,1.1,0.9,1.98,2,1.98h18c1.1,0,2-0.88,2-1.98v-14
		C23,3.9,22.1,3.01,21,3.01z M11,16l4-4l-4-4v3H1v2h10V16z"/>
</g>
</svg>
