<?xml version="1.0" encoding="utf-8"?>
<!-- Generator: Adobe Illustrator 19.1.0, SVG Export Plug-In . SVG Version: 6.00 Build 0)  -->
<svg version="1.1" xmlns="http://www.w3.org/2000/svg" xmlns:xlink="http://www.w3.org/1999/xlink" x="0px" y="0px" width="24px"
	 height="24px" viewBox="0 0 24 24" enable-background="new 0 0 24 24" xml:space="preserve">
<g id="Bounding_Boxes">
	<g id="ui_x5F_spec_x5F_header_copy_3">
	</g>
	<path fill="none" d="M0,0h24v24H0V0z M0,0h24v24H0V0z"/>
</g>
<g id="Duotone">
	<g id="ui_x5F_spec_x5F_header_copy_2">
	</g>
	<g>
		<path opacity="0.3" d="M4,17l16,0V7H4V17z M17,8h2v2h-2V8z M17,11h2v2h-2V11z M14,8h2v2h-2V8z M14,11h2v2h-2V11z M11,8h2v2h-2V8z
			 M11,11h2v2h-2V11z M8,8h2v2H8V8z M8,11h2v2H8V11z M8,14h8v2H8V14z M5,8h2v2H5V8z M5,11h2v2H5V11z"/>
		<path d="M20,5H4C2.9,5,2.01,5.9,2.01,7L2,17c0,1.1,0.9,2,2,2h16c1.1,0,2-0.9,2-2V7C22,5.9,21.1,5,20,5z M20,17L4,17V7h16V17z"/>
		<rect x="11" y="8" width="2" height="2"/>
		<rect x="11" y="11" width="2" height="2"/>
		<rect x="8" y="8" width="2" height="2"/>
		<rect x="8" y="11" width="2" height="2"/>
		<rect x="5" y="11" width="2" height="2"/>
		<rect x="5" y="8" width="2" height="2"/>
		<rect x="8" y="14" width="8" height="2"/>
		<rect x="14" y="11" width="2" height="2"/>
		<rect x="14" y="8" width="2" height="2"/>
		<rect x="17" y="11" width="2" height="2"/>
		<rect x="17" y="8" width="2" height="2"/>
	</g>
</g>
</svg>
