<?xml version="1.0" encoding="utf-8"?>
<!-- Generator: Adobe Illustrator 19.1.0, SVG Export Plug-In . SVG Version: 6.00 Build 0)  -->
<svg version="1.1" xmlns="http://www.w3.org/2000/svg" xmlns:xlink="http://www.w3.org/1999/xlink" x="0px" y="0px" width="24px"
	 height="24px" viewBox="0 0 24 24" enable-background="new 0 0 24 24" xml:space="preserve">
<g id="Bounding_Boxes">
	<path fill="none" d="M0,0h24v24H0V0z"/>
</g>
<g id="Duotone">
	<g id="ui_x5F_spec_x5F_header_copy" display="none">
	</g>
	<g>
		<rect x="8" y="5" opacity="0.3" width="2" height="3"/>
		<rect x="8" y="12" opacity="0.3" width="2" height="5"/>
		<path opacity="0.3" d="M6,20h12v-9.02H6V20z M8,12h2v5H8V12z"/>
		<path opacity="0.3" d="M6,9h12V4H6V9z M8,5h2v3H8V5z"/>
		<path d="M18,2.01L6,2C4.9,2,4,2.89,4,4v16c0,1.1,0.9,2,2,2h12c1.1,0,2-0.9,2-2V4C20,2.89,19.1,2.01,18,2.01z M18,20H6v-9.02h12V20
			z M18,9H6V4h12V9z"/>
		<rect x="8" y="5" width="2" height="3"/>
		<rect x="8" y="12" width="2" height="5"/>
	</g>
</g>
</svg>
