<?xml version="1.0" encoding="utf-8"?>
<!-- Generator: Adobe Illustrator 19.1.0, SVG Export Plug-In . SVG Version: 6.00 Build 0)  -->
<svg version="1.1" xmlns="http://www.w3.org/2000/svg" xmlns:xlink="http://www.w3.org/1999/xlink" x="0px" y="0px" width="24px"
	 height="24px" viewBox="0 0 24 24" enable-background="new 0 0 24 24" xml:space="preserve">
<g id="Bounding_Boxes">
	<g id="ui_x5F_spec_x5F_header_copy_3" display="none">
	</g>
	<path fill="none" d="M0,0h24v24H0V0z"/>
</g>
<g id="Duotone">
	<g id="ui_x5F_spec_x5F_header_copy_2" display="none">
	</g>
	<g>
		<polygon opacity="0.3" points="5,7.03 5,17 14.97,17 		"/>
		<polygon opacity="0.3" points="16,7 10.63,7 17.92,14.29 19.55,12 		"/>
		<path d="M16,7l3.55,5l-1.63,2.29l1.43,1.43L22,12l-4.37-6.16C17.27,5.33,16.67,5,16,5L8.63,5.01L10.63,7H16z"/>
		<path d="M2,4.03l1.58,1.58C3.22,5.96,3,6.46,3,7v10c0,1.1,0.9,1.99,2,1.99L16,19c0.28,0,0.55-0.07,0.79-0.18L18.97,21l1.41-1.41
			L3.41,2.62L2,4.03z M5,7.03L14.97,17H5V7.03z"/>
	</g>
</g>
</svg>
