<?xml version="1.0" encoding="utf-8"?>
<!-- Generator: Adobe Illustrator 19.1.0, SVG Export Plug-In . SVG Version: 6.00 Build 0)  -->
<svg version="1.1" xmlns="http://www.w3.org/2000/svg" xmlns:xlink="http://www.w3.org/1999/xlink" x="0px" y="0px" width="24px"
	 height="24px" viewBox="0 0 24 24" enable-background="new 0 0 24 24" xml:space="preserve">
<g id="Bounding_Boxes">
	<g id="ui_x5F_spec_x5F_header_copy_3">
	</g>
	<path fill="none" d="M0,0h24v24H0V0z"/>
</g>
<g id="Duotone">
	<g id="ui_x5F_spec_x5F_header_copy_2">
	</g>
	<g>
		<rect x="4" y="5" opacity="0.3" width="16" height="11"/>
		<path d="M20,18c1.1,0,1.99-0.9,1.99-2L22,5c0-1.1-0.9-2-2-2H4C2.9,3,2,3.9,2,5v11c0,1.1,0.9,2,2,2H0c0,1.1,0.9,2,2,2h20
			c1.1,0,2-0.9,2-2H20z M4,5h16v11H4V5z M12,19c-0.55,0-1-0.45-1-1s0.45-1,1-1s1,0.45,1,1S12.55,19,12,19z"/>
	</g>
</g>
</svg>
