<?xml version="1.0" encoding="utf-8"?>
<!-- Generator: Adobe Illustrator 19.1.0, SVG Export Plug-In . SVG Version: 6.00 Build 0)  -->
<svg version="1.1" xmlns="http://www.w3.org/2000/svg" xmlns:xlink="http://www.w3.org/1999/xlink" x="0px" y="0px" width="24px"
	 height="24px" viewBox="0 0 24 24" enable-background="new 0 0 24 24" xml:space="preserve">
<g id="Bounding_Boxes">
	<path fill="none" d="M0,0h24v24H0V0z"/>
</g>
<g id="Duotone">
	<g id="ui_x5F_spec_x5F_header_copy_2">
	</g>
	<g>
		<path opacity="0.3" d="M5,8v12l14,0V8H5z M12,14c-2.76,0-5-2.24-5-5h2c0,1.66,1.34,3,3,3s3-1.34,3-3h2C17,11.76,14.76,14,12,14z"
			/>
		<path d="M17,6c0-2.76-2.24-5-5-5S7,3.24,7,6H5C3.9,6,3,6.9,3,8v12c0,1.1,0.9,2,2,2h14c1.1,0,2-0.9,2-2V8c0-1.1-0.9-2-2-2H17z
			 M12,3c1.66,0,3,1.34,3,3H9C9,4.34,10.34,3,12,3z M19,20L5,20V8h14V20z"/>
		<path d="M12,12c-1.66,0-3-1.34-3-3H7c0,2.76,2.24,5,5,5s5-2.24,5-5h-2C15,10.66,13.66,12,12,12z"/>
	</g>
</g>
</svg>
