<?xml version="1.0" encoding="utf-8"?>
<!-- Generator: Adobe Illustrator 19.1.0, SVG Export Plug-In . SVG Version: 6.00 Build 0)  -->
<svg version="1.1" xmlns="http://www.w3.org/2000/svg" xmlns:xlink="http://www.w3.org/1999/xlink" x="0px" y="0px" width="24px"
	 height="24px" viewBox="0 0 24 24" enable-background="new 0 0 24 24" xml:space="preserve">
<g id="Bounding_Boxes">
	<path fill="none" d="M0,0h24v24H0V0z"/>
</g>
<g id="Duotone">
	<g id="ui_x5F_spec_x5F_header_copy_2">
	</g>
	<g>
		<path opacity="0.3" d="M8,15h6c1.1,0,2-0.9,2-2V5H6v8C6,14.1,6.9,15,8,15z"/>
		<rect x="2" y="19" width="18" height="2"/>
		<path d="M4,13c0,2.21,1.79,4,4,4h6c2.21,0,4-1.79,4-4v-3h2c1.11,0,2-0.89,2-2V5c0-1.11-0.89-2-2-2H4V13z M18,5h2v3h-2V5z M6,5h10
			v8c0,1.1-0.9,2-2,2H8c-1.1,0-2-0.9-2-2V5z"/>
	</g>
</g>
</svg>
