<?xml version="1.0" encoding="utf-8"?>
<!-- Generator: Adobe Illustrator 19.1.0, SVG Export Plug-In . SVG Version: 6.00 Build 0)  -->
<svg version="1.1" xmlns="http://www.w3.org/2000/svg" xmlns:xlink="http://www.w3.org/1999/xlink" x="0px" y="0px" width="24px"
	 height="24px" viewBox="0 0 24 24" enable-background="new 0 0 24 24" xml:space="preserve">
<g id="Bounding_Boxes">
	<g id="ui_x5F_spec_x5F_header_copy_2">
	</g>
	<path fill="none" d="M0,0h24v24H0V0z"/>
</g>
<g id="Duotone">
	<g id="ui_x5F_spec_x5F_header_copy_3">
	</g>
	<g>
		<path d="M17,9c0,1.06-0.39,2.32-1,3.62l1.49,1.49C18.37,12.36,19,10.57,19,9c0-3.87-3.13-7-7-7c-1.84,0-3.5,0.71-4.75,1.86
			l1.43,1.43C9.56,4.5,10.72,4,12,4C14.76,4,17,6.24,17,9z"/>
		<path d="M12,6.5c-0.59,0-1.13,0.21-1.56,0.56l3.5,3.5C14.29,10.13,14.5,9.59,14.5,9C14.5,7.62,13.38,6.5,12,6.5z"/>
		<path d="M3.41,2.86L2,4.27l3.18,3.18C5.07,7.95,5,8.47,5,9c0,5.25,7,13,7,13s1.67-1.85,3.38-4.35L18.73,21l1.41-1.41L3.41,2.86z
			 M12,18.88C9.99,16.3,7.2,12.14,7.02,9.29l6.92,6.92C13.29,17.19,12.61,18.1,12,18.88z"/>
	</g>
</g>
</svg>
