<?xml version="1.0" encoding="utf-8"?>
<!-- Generator: Adobe Illustrator 19.1.0, SVG Export Plug-In . SVG Version: 6.00 Build 0)  -->
<svg version="1.1" xmlns="http://www.w3.org/2000/svg" xmlns:xlink="http://www.w3.org/1999/xlink" x="0px" y="0px" width="24px"
	 height="24px" viewBox="0 0 24 24" enable-background="new 0 0 24 24" xml:space="preserve">
<g id="Bounding_Boxes">
	<path fill="none" d="M0,0h24v24H0V0z"/>
</g>
<g id="Duotone">
	<g id="ui_x5F_spec_x5F_header_copy_2">
	</g>
	<g>
		<g>
			<path d="M5.11,21.28L12,14.41l6.88,6.88l1.41-1.41L13.41,13l1.47-1.47c1.53,0.71,3.68,0.21,5.27-1.38
				c1.91-1.91,2.28-4.65,0.81-6.12c-1.46-1.46-4.2-1.1-6.12,0.81c-1.59,1.59-2.09,3.74-1.38,5.27L3.7,19.87L5.11,21.28z"/>
		</g>
		<g>
			<path d="M3.91,9.16l4.19,4.18l2.83-2.83L3.91,3.5C2.35,5.06,2.35,7.59,3.91,9.16z"/>
		</g>
	</g>
</g>
</svg>
