<?xml version="1.0" encoding="utf-8"?>
<!-- Generator: Adobe Illustrator 19.1.0, SVG Export Plug-In . SVG Version: 6.00 Build 0)  -->
<svg version="1.1" xmlns="http://www.w3.org/2000/svg" xmlns:xlink="http://www.w3.org/1999/xlink" x="0px" y="0px" width="24px"
	 height="24px" viewBox="0 0 24 24" enable-background="new 0 0 24 24" xml:space="preserve">
<g id="Bounding_Boxes">
	<path fill="none" d="M0,0h24v24H0V0z"/>
</g>
<g id="Duotone">
	<g id="ui_x5F_spec_x5F_header_copy_2">
	</g>
	<g>
		<path opacity="0.3" d="M20,6h-3.17h-0.88l-0.59-0.65L14.12,4H9.88L8.65,5.35L8.05,6H7.17H4v12h16V6z M12,17c-2.76,0-5-2.24-5-5
			s2.24-5,5-5s5,2.24,5,5S14.76,17,12,17z"/>
		<path d="M4,20h16c1.1,0,2-0.9,2-2V6c0-1.1-0.9-2-2-2h-3.17L15,2H9L7.17,4H4C2.9,4,2,4.9,2,6v12C2,19.1,2.9,20,4,20z M4,6h3.17
			h0.88l0.59-0.65L9.88,4h4.24l1.24,1.35L15.95,6h0.88H20v12H4V6z"/>
		<path d="M12,7c-2.76,0-5,2.24-5,5s2.24,5,5,5s5-2.24,5-5S14.76,7,12,7z M12,15.2c-1.77,0-3.2-1.43-3.2-3.2
			c0-1.77,1.43-3.2,3.2-3.2s3.2,1.43,3.2,3.2C15.2,13.77,13.77,15.2,12,15.2z"/>
	</g>
</g>
</svg>
