<?xml version="1.0" encoding="utf-8"?>
<!-- Generator: Adobe Illustrator 19.1.0, SVG Export Plug-In . SVG Version: 6.00 Build 0)  -->
<svg version="1.1" xmlns="http://www.w3.org/2000/svg" xmlns:xlink="http://www.w3.org/1999/xlink" x="0px" y="0px" width="24px"
	 height="24px" viewBox="0 0 24 24" enable-background="new 0 0 24 24" xml:space="preserve">
<g id="Bounding_Boxes">
	<path fill="none" d="M0,0h24v24H0V0z"/>
</g>
<g id="Duotone">
	<g id="ui_x5F_spec_x5F_header_copy_2">
	</g>
	<g>
		<circle opacity="0.3" cx="7" cy="11" r="1"/>
		<path opacity="0.3" d="M19,9h-6v6h8v-4C21,9.9,20.1,9,19,9z"/>
		<path d="M4,11c0,1.66,1.34,3,3,3c1.66,0,3-1.34,3-3c0-1.66-1.34-3-3-3C5.34,8,4,9.34,4,11z M8,11c0,0.55-0.45,1-1,1s-1-0.45-1-1
			s0.45-1,1-1S8,10.45,8,11z"/>
		<path d="M19,7h-8v8H3V5H1v15h2v-3h18v3h2v-9C23,8.79,21.21,7,19,7z M21,15h-8V9h6c1.1,0,2,0.9,2,2V15z"/>
	</g>
</g>
</svg>
