<?xml version="1.0" encoding="utf-8"?>
<!-- Generator: Adobe Illustrator 19.1.0, SVG Export Plug-In . SVG Version: 6.00 Build 0)  -->
<svg version="1.1" xmlns="http://www.w3.org/2000/svg" xmlns:xlink="http://www.w3.org/1999/xlink" x="0px" y="0px" width="24px"
	 height="24px" viewBox="0 0 24 24" enable-background="new 0 0 24 24" xml:space="preserve">
<g id="Bounding_Boxes">
	<path fill="none" d="M0,0h24v24H0V0z"/>
</g>
<g id="Duotone">
	<g id="ui_x5F_spec_x5F_header_copy_2">
	</g>
	<g>
		<rect x="10" y="5" opacity="0.3" width="4" height="14"/>
		<path d="M20,21V3h-2v2h-2V3H8v2H6V3H4v18h2v-2h2v2h8v-2h2v2H20z M8,17H6v-2h2V17z M8,13H6v-2h2V13z M8,9H6V7h2V9z M14,19h-4V5h4
			V19z M16,7h2v2h-2V7z M16,11h2v2h-2V11z M16,17v-2h2v2H16z"/>
	</g>
</g>
</svg>
