<?xml version="1.0" encoding="utf-8"?>
<!-- Generator: Adobe Illustrator 19.1.0, SVG Export Plug-In . SVG Version: 6.00 Build 0)  -->
<svg version="1.1" xmlns="http://www.w3.org/2000/svg" xmlns:xlink="http://www.w3.org/1999/xlink" x="0px" y="0px" width="24px"
	 height="24px" viewBox="0 0 24 24" enable-background="new 0 0 24 24" xml:space="preserve">
<g id="Bounding_Boxes">
	<path fill="none" d="M0,0h24v24H0V0z"/>
</g>
<g id="Duotone">
	<g id="ui_x5F_spec_x5F_header_copy_2">
	</g>
	<g>
		<path opacity="0.3" d="M14,14h2v2v2h4V9h-1h-2V7V6H7v1v2H5H4v9h4v-2v-2h2H14z M13,7h1v2h1V7h1v5h-1v-2h-2V7z M8,9h2V8H8V7h3v3H9v1
			h2v1H8V9z"/>
		<path d="M10,16h4v4h8V7h-3V4H5v3H2v13h8V16z M8,16v2H4V9h1h2V7V6h10v1v2h2h1v9h-4v-2v-2h-2h-4H8V16z"/>
		<polygon points="11,11 9,11 9,10 11,10 11,7 8,7 8,8 10,8 10,9 8,9 8,12 11,12 		"/>
		<polygon points="15,12 16,12 16,7 15,7 15,9 14,9 14,7 13,7 13,10 15,10 		"/>
	</g>
</g>
</svg>
