<?xml version="1.0" encoding="utf-8"?>
<!-- Generator: Adobe Illustrator 19.1.0, SVG Export Plug-In . SVG Version: 6.00 Build 0)  -->
<svg version="1.1" xmlns="http://www.w3.org/2000/svg" xmlns:xlink="http://www.w3.org/1999/xlink" x="0px" y="0px" width="24px"
	 height="24px" viewBox="0 0 24 24" enable-background="new 0 0 24 24" xml:space="preserve">
<g id="Bounding_Boxes">
	<path fill="none" d="M0,0h24v24H0V0z"/>
</g>
<g id="Duotone">
	<g id="ui_x5F_spec_x5F_header_copy_2">
	</g>
	<g>
		<path opacity="0.3" d="M5,19l14,0V5H5V19z M7,10.5h3.5V7h3v3.5H17v3h-3.5V17h-3v-3.5H7V10.5z"/>
		<path d="M21,5c0-1.1-0.9-2-2-2H5C3.9,3,3.01,3.9,3.01,5L3,19c0,1.1,0.9,2,2,2h14c1.1,0,2-0.9,2-2V5z M19,19L5,19V5h14V19z"/>
		<polygon points="10.5,17 13.5,17 13.5,13.5 17,13.5 17,10.5 13.5,10.5 13.5,7 10.5,7 10.5,10.5 7,10.5 7,13.5 10.5,13.5 		"/>
	</g>
</g>
</svg>
