<?xml version="1.0" encoding="utf-8"?>
<!-- Generator: Adobe Illustrator 19.1.0, SVG Export Plug-In . SVG Version: 6.00 Build 0)  -->
<svg version="1.1" xmlns="http://www.w3.org/2000/svg" xmlns:xlink="http://www.w3.org/1999/xlink" x="0px" y="0px" width="24px"
	 height="24px" viewBox="0 0 24 24" enable-background="new 0 0 24 24" xml:space="preserve">
<g id="Bounding_Boxes">
	<path fill="none" d="M0,0h24v24H0V0z"/>
</g>
<g id="Duotone">
	<g id="ui_x5F_spec_x5F_header_copy_2">
	</g>
	<g>
		<path opacity="0.3" d="M4.01,8.54C5.2,9.23,6,10.52,6,12c0,1.48-0.81,2.77-2,3.46V18h16v-2.54c-1.19-0.69-2-1.99-2-3.46
			s0.81-2.77,2-3.46V6H4L4.01,8.54z M10.73,10.22L12,7l1.26,3.23l3.47,0.2l-2.69,2.2L14.93,16L12,14.12L9.07,16l0.88-3.37l-2.69-2.2
			L10.73,10.22z"/>
		<path d="M20,4H4C2.9,4,2.01,4.9,2.01,6v4C3.11,10,4,10.9,4,12c0,1.1-0.89,2-2,2v4c0,1.1,0.9,2,2,2h16c1.1,0,2-0.9,2-2v-4
			c-1.1,0-2-0.9-2-2c0-1.1,0.9-2,2-2V6C22,4.9,21.1,4,20,4z M20,8.54c-1.19,0.69-2,1.99-2,3.46s0.81,2.77,2,3.46V18H4v-2.54
			c1.19-0.69,2-1.99,2-3.46c0-1.48-0.8-2.77-1.99-3.46L4,6h16V8.54z"/>
		<polygon points="9.07,16 12,14.12 14.93,16 14.04,12.64 16.73,10.44 13.26,10.23 12,7 10.73,10.22 7.26,10.43 9.95,12.63 		"/>
	</g>
</g>
</svg>
