<?xml version="1.0" encoding="utf-8"?>
<!-- Generator: Adobe Illustrator 19.1.0, SVG Export Plug-In . SVG Version: 6.00 Build 0)  -->
<svg version="1.1" xmlns="http://www.w3.org/2000/svg" xmlns:xlink="http://www.w3.org/1999/xlink" x="0px" y="0px" width="24px"
	 height="24px" viewBox="0 0 24 24" enable-background="new 0 0 24 24" xml:space="preserve">
<g id="Bounding_Boxes">
	<g id="ui_x5F_spec_x5F_header_copy_2">
	</g>
	<path fill="none" d="M0,0h24v24H0V0z"/>
</g>
<g id="Duotone">
	<g id="ui_x5F_spec_x5F_header_copy_3">
	</g>
	<g>
		<path d="M12,6C5.93,6,1,10.93,1,17h2c0-4.96,4.04-9,9-9s9,4.04,9,9h2C23,10.93,18.07,6,12,6z"/>
		<path d="M12,12c2.76,0,5,2.24,5,5h2c0-3.86-3.14-7-7-7s-7,3.14-7,7h2C7,14.24,9.24,12,12,12z"/>
	</g>
</g>
</svg>
