<?xml version="1.0" encoding="utf-8"?>
<!-- Generator: Adobe Illustrator 19.1.0, SVG Export Plug-In . SVG Version: 6.00 Build 0)  -->
<svg version="1.1" xmlns="http://www.w3.org/2000/svg" xmlns:xlink="http://www.w3.org/1999/xlink" x="0px" y="0px" width="24px"
	 height="24px" viewBox="0 0 24 24" enable-background="new 0 0 24 24" xml:space="preserve">
<g id="Bounding_Boxes">
	<g id="ui_x5F_spec_x5F_header_copy_3">
	</g>
	<path fill="none" d="M0.04,0h24v24h-24V0z"/>
</g>
<g id="Duotone">
	<g id="ui_x5F_spec_x5F_header_copy_5">
	</g>
	<g>
		<path opacity="0.3" d="M5.04,19h14V5h-14V19z M9.04,7h2v4h2V7h2v10h-2v-4h-4V7z"/>
		<path d="M19.04,3h-14c-1.1,0-2,0.9-2,2v14c0,1.1,0.9,2,2,2h14c1.1,0,2-0.9,2-2V5C21.04,3.9,20.14,3,19.04,3z M19.04,19h-14V5h14
			V19z"/>
		<polygon points="13.04,17 15.04,17 15.04,7 13.04,7 13.04,11 11.04,11 11.04,7 9.04,7 9.04,13 13.04,13 		"/>
	</g>
</g>
</svg>
