<?xml version="1.0" encoding="utf-8"?>
<!-- Generator: Adobe Illustrator 19.1.0, SVG Export Plug-In . SVG Version: 6.00 Build 0)  -->
<svg version="1.1" xmlns="http://www.w3.org/2000/svg" xmlns:xlink="http://www.w3.org/1999/xlink" x="0px" y="0px" width="24px"
	 height="24px" viewBox="0 0 24 24" enable-background="new 0 0 24 24" xml:space="preserve">
<g id="Bounding_Boxes">
	<g id="ui_x5F_spec_x5F_header_copy_2">
	</g>
	<path fill="none" d="M0,0h24v24H0V0z"/>
</g>
<g id="Duotone">
	<g id="ui_x5F_spec_x5F_header_copy_3">
	</g>
	<g>
		<path opacity="0.3" d="M12,18v-1.8c-1.8,0-3.2-1.4-3.2-3.2s1.4-3.2,3.2-3.2V8c-2.8,0-5,2.2-5,5S9.2,18,12,18z"/>
		<path opacity="0.3" d="M17,13c0,2.8-2.2,5-5,5v1h8V7h-8v1C14.8,8,17,10.2,17,13z"/>
		<path d="M4,21h16c1.1,0,2-0.9,2-2V7c0-1.1-0.9-2-2-2h-3.2L15,3H9L7.2,5H4C2.9,5,2,5.9,2,7v12C2,20.1,2.9,21,4,21z M12,8V7h8v12h-8
			v-1c-2.8,0-5-2.2-5-5S9.2,8,12,8z"/>
		<path d="M15.2,13c0,1.8-1.4,3.2-3.2,3.2V18c2.8,0,5-2.2,5-5s-2.2-5-5-5v1.8C13.8,9.8,15.2,11.2,15.2,13z"/>
		<path d="M8.8,13c0,1.8,1.4,3.2,3.2,3.2V9.8C10.2,9.8,8.8,11.2,8.8,13z"/>
	</g>
</g>
</svg>
