<?xml version="1.0" encoding="utf-8"?>
<!-- Generator: Adobe Illustrator 19.1.0, SVG Export Plug-In . SVG Version: 6.00 Build 0)  -->
<svg version="1.1" xmlns="http://www.w3.org/2000/svg" xmlns:xlink="http://www.w3.org/1999/xlink" x="0px" y="0px" width="24px"
	 height="24px" viewBox="0 0 24 24" enable-background="new 0 0 24 24" xml:space="preserve">
<g id="Bounding_Boxes">
	<g id="ui_x5F_spec_x5F_header_copy_2">
	</g>
	<path fill="none" d="M0,0h24v24H0V0z"/>
</g>
<g id="Duotone">
	<g id="ui_x5F_spec_x5F_header_copy">
	</g>
	<g>
		<path opacity="0.3" d="M7.06,5L2.4,12l4.67,7L22,19V5L7.06,5C7.07,5,7.07,5,7.06,5z M19,10.5c0.83,0,1.5,0.67,1.5,1.5
			c0,0.83-0.67,1.5-1.5,1.5s-1.5-0.67-1.5-1.5C17.5,11.17,18.17,10.5,19,10.5z M14,10.5c0.83,0,1.5,0.67,1.5,1.5
			c0,0.83-0.67,1.5-1.5,1.5s-1.5-0.67-1.5-1.5C12.5,11.17,13.17,10.5,14,10.5z M9,10.5c0.83,0,1.5,0.67,1.5,1.5
			c0,0.83-0.67,1.5-1.5,1.5S7.5,12.83,7.5,12C7.5,11.17,8.17,10.5,9,10.5z"/>
		<g>
			<path d="M22,3H7C6.31,3,5.77,3.35,5.41,3.88L0,12l5.41,8.11C5.77,20.64,6.38,21,7.07,21H22c1.1,0,2-0.9,2-2V5C24,3.9,23.1,3,22,3
				z M22,19L7.07,19L2.4,12l4.66-7c0,0,0,0,0,0H22V19z"/>
			<circle cx="9" cy="12" r="1.5"/>
			<circle cx="14" cy="12" r="1.5"/>
			<circle cx="19" cy="12" r="1.5"/>
		</g>
	</g>
</g>
</svg>
