<?xml version="1.0" encoding="utf-8"?>
<!-- Generator: Adobe Illustrator 19.1.0, SVG Export Plug-In . SVG Version: 6.00 Build 0)  -->
<svg version="1.1" xmlns="http://www.w3.org/2000/svg" xmlns:xlink="http://www.w3.org/1999/xlink" x="0px" y="0px" width="24px"
	 height="24px" viewBox="0 0 24 24" enable-background="new 0 0 24 24" xml:space="preserve">
<g id="Bounding_Boxes">
	<path fill="none" d="M0,0h24v24H0V0z"/>
</g>
<g id="Duotone">
	<g id="ui_x5F_spec_x5F_header_copy">
	</g>
	<g>
		<polygon opacity="0.3" points="20,10 5.76,10 4,6.47 4,18 20,18 		"/>
		<path d="M2.01,6L2,18c0,1.1,0.9,2,2,2h16c1.1,0,2-0.9,2-2V4h-4l2,4h-3l-2-4h-2l2,4h-3l-2-4H8l2,4H7L5,4H4C2.9,4,2.01,4.9,2.01,6z
			 M4,6.47L5.76,10H20v8L4,18V6.47z"/>
	</g>
</g>
</svg>
