<?xml version="1.0" encoding="utf-8"?>
<!-- Generator: Adobe Illustrator 19.1.0, SVG Export Plug-In . SVG Version: 6.00 Build 0)  -->
<svg version="1.1" xmlns="http://www.w3.org/2000/svg" xmlns:xlink="http://www.w3.org/1999/xlink" x="0px" y="0px" width="24px"
	 height="24px" viewBox="0 0 24 24" enable-background="new 0 0 24 24" xml:space="preserve">
<g id="Bounding_Boxes">
	<g id="ui_x5F_spec_x5F_header_copy_2">
	</g>
	<path fill="none" d="M0,0h24v24H0V0z"/>
</g>
<g id="Duotone">
	<g id="ui_x5F_spec_x5F_header_copy_3">
	</g>
	<g>
		<circle opacity="0.3" cx="10.01" cy="17" r="2"/>
		<path d="M12,3l0.01,10.55c-0.59-0.34-1.27-0.55-2-0.55C7.79,13,6,14.79,6,17c0,2.21,1.79,4,4.01,4S14,19.21,14,17V7h4V3H12z
			 M10.01,19c-1.1,0-2-0.9-2-2c0-1.1,0.9-2,2-2s2,0.9,2,2C12.01,18.1,11.11,19,10.01,19z"/>
	</g>
</g>
</svg>
