<?xml version="1.0" encoding="utf-8"?>
<!-- Generator: Adobe Illustrator 19.1.0, SVG Export Plug-In . SVG Version: 6.00 Build 0)  -->
<svg version="1.1" xmlns="http://www.w3.org/2000/svg" xmlns:xlink="http://www.w3.org/1999/xlink" x="0px" y="0px" width="24px"
	 height="24px" viewBox="0 0 24 24" enable-background="new 0 0 24 24" xml:space="preserve">
<g id="Bounding_Boxes">
	<g id="ui_x5F_spec_x5F_header_copy_2">
	</g>
	<path fill="none" d="M0,0h24v24H0V0z"/>
</g>
<g id="Duotone">
	<g id="ui_x5F_spec_x5F_header_copy_3">
	</g>
	<g>
		<path opacity="0.3" d="M12.17,4.17c-2.76,0-5,2.24-5,5s2.24,5,5,5c2.76,0,5-2.24,5-5S14.92,4.17,12.17,4.17z"/>
		<path d="M19.17,9.17c0-3.87-3.13-7-7-7s-7,3.13-7,7c0,3.47,2.52,6.34,5.83,6.89V20H5v2h14v-2h-6v-3.88l-0.03,0
			C16.46,15.72,19.17,12.76,19.17,9.17z M12.17,14.17c-2.76,0-5-2.24-5-5s2.24-5,5-5c2.76,0,5,2.24,5,5S14.92,14.17,12.17,14.17z"/>
	</g>
</g>
</svg>
