<?xml version="1.0" encoding="utf-8"?>
<!-- Generator: Adobe Illustrator 19.1.0, SVG Export Plug-In . SVG Version: 6.00 Build 0)  -->
<svg version="1.1" xmlns="http://www.w3.org/2000/svg" xmlns:xlink="http://www.w3.org/1999/xlink" x="0px" y="0px" width="24px"
	 height="24px" viewBox="0 0 24 24" enable-background="new 0 0 24 24" xml:space="preserve">
<g id="Bounding_Boxes">
	<g id="ui_x5F_spec_x5F_header_copy_2">
	</g>
	<path fill="none" d="M0,0h24v24H0V0z"/>
</g>
<g id="Duotone">
	<g id="ui_x5F_spec_x5F_header_copy_3">
	</g>
	<g>
		<circle opacity="0.3" cx="15.17" cy="9.17" r="5"/>
		<circle cx="4.5" cy="9.5" r="1.5"/>
		<path d="M15.17,2.17c-3.87,0-7,3.13-7,7c0,3.47,2.52,6.34,5.83,6.89V20H6v-3h1v-4c0-0.55-0.45-1-1-1H3c-0.55,0-1,0.45-1,1v4h1v5
			h16v-2h-3v-3.88c3.47-0.41,6.17-3.36,6.17-6.95C22.17,5.3,19.04,2.17,15.17,2.17z M15.17,14.17c-2.76,0-5-2.24-5-5s2.24-5,5-5
			c2.76,0,5,2.24,5,5S17.93,14.17,15.17,14.17z"/>
	</g>
</g>
</svg>
