<?xml version="1.0" encoding="utf-8"?>
<!-- Generator: Adobe Illustrator 19.1.0, SVG Export Plug-In . SVG Version: 6.00 Build 0)  -->
<svg version="1.1" xmlns="http://www.w3.org/2000/svg" xmlns:xlink="http://www.w3.org/1999/xlink" x="0px" y="0px" width="24px"
	 height="24px" viewBox="0 0 24 24" enable-background="new 0 0 24 24" xml:space="preserve">
<g id="Bounding_Boxes">
	<path fill="none" d="M0,0h24v24H0V0z"/>
</g>
<g id="Duotone">
	<g id="ui_x5F_spec_x5F_header_copy">
	</g>
	<path d="M12,22c5.52,0,10-4.48,10-10c0-5.52-4.48-10-10-10S2,6.48,2,12C2,17.52,6.48,22,12,22z M12,4c4.42,0,8,3.58,8,8
		c0,1.85-0.63,3.55-1.69,4.9L7.1,5.69C8.45,4.63,10.15,4,12,4z M5.69,7.1L16.9,18.31C15.55,19.37,13.85,20,12,20c-4.42,0-8-3.58-8-8
		C4,10.15,4.63,8.45,5.69,7.1z"/>
</g>
</svg>
