<?xml version="1.0" encoding="utf-8"?>
<!-- Generator: Adobe Illustrator 19.1.0, SVG Export Plug-In . SVG Version: 6.00 Build 0)  -->
<svg version="1.1" xmlns="http://www.w3.org/2000/svg" xmlns:xlink="http://www.w3.org/1999/xlink" x="0px" y="0px" width="24px"
	 height="24px" viewBox="0 0 24 24" enable-background="new 0 0 24 24" xml:space="preserve">
<g id="Bounding_Boxes">
	<g id="ui_x5F_spec_x5F_header_copy_3" display="none">
	</g>
	<path fill="none" d="M0,0h24v24H0V0z"/>
</g>
<g id="Duotone">
	<g id="ui_x5F_spec_x5F_header_copy_2" display="none">
	</g>
	<g>
		<path opacity="0.3" d="M13,4H6v16l12,0V9h-5V4z M16,14v2h-3v3h-2v-3H8v-2h3v-3h2v3H16z"/>
		<g>
			<polygon points="13,11 11,11 11,14 8,14 8,16 11,16 11,19 13,19 13,16 16,16 16,14 13,14 			"/>
			<path d="M14,2H6C4.9,2,4,2.9,4,4v16c0,1.1,0.89,2,1.99,2H18c1.1,0,2-0.9,2-2V8L14,2z M18,20L6,20V4h7v5h5V20z"/>
		</g>
	</g>
</g>
</svg>
