<?xml version="1.0" encoding="utf-8"?>
<!-- Generator: Adobe Illustrator 19.1.0, SVG Export Plug-In . SVG Version: 6.00 Build 0)  -->
<svg version="1.1" xmlns="http://www.w3.org/2000/svg" xmlns:xlink="http://www.w3.org/1999/xlink" x="0px" y="0px" width="24px"
	 height="24px" viewBox="0 0 24 24" enable-background="new 0 0 24 24" xml:space="preserve">
<g id="Bounding_Boxes">
	<g id="ui_x5F_spec_x5F_header_copy_2">
	</g>
	<path fill="none" d="M0,0h24v24H0V0z"/>
</g>
<g id="Duotone">
	<g id="ui_x5F_spec_x5F_header_copy">
	</g>
	<g>
		<path opacity="0.3" d="M12,6.5c-2.49,0-4,2.02-4,4.5v6h8v-6C16,8.52,14.49,6.5,12,6.5z M14.5,9.8l-2.8,3.4h2.8V15h-5v-1.8l2.8-3.4
			H9.5V8h5V9.8z"/>
		<polygon points="9.5,9.8 12.3,9.8 9.5,13.2 9.5,15 14.5,15 14.5,13.2 11.7,13.2 14.5,9.8 14.5,8 9.5,8 		"/>
		<path d="M18,16v-5c0-3.07-1.63-5.64-4.5-6.32V4c0-0.83-0.67-1.5-1.5-1.5S10.5,3.17,10.5,4v0.68C7.64,5.36,6,7.92,6,11v5l-2,2v1h16
			v-1L18,16z M16,17H8v-6c0-2.48,1.51-4.5,4-4.5s4,2.02,4,4.5V17z"/>
		<path d="M12,22c1.1,0,2-0.9,2-2h-4C10,21.1,10.9,22,12,22z"/>
	</g>
</g>
</svg>
