<?xml version="1.0" encoding="utf-8"?>
<!-- Generator: Adobe Illustrator 19.1.0, SVG Export Plug-In . SVG Version: 6.00 Build 0)  -->
<svg version="1.1" xmlns="http://www.w3.org/2000/svg" xmlns:xlink="http://www.w3.org/1999/xlink" x="0px" y="0px" width="24px"
	 height="24px" viewBox="0 0 24 24" enable-background="new 0 0 24 24" xml:space="preserve">
<g id="Bounding_Boxes">
	<g id="ui_x5F_spec_x5F_header_copy_2">
	</g>
	<path fill="none" d="M0,0h24v24H0V0z"/>
</g>
<g id="Duotone">
	<g id="ui_x5F_spec_x5F_header_copy">
	</g>
	<g>
		<polygon opacity="0.3" points="7,7 11,8 11,5 5,5 5,11 8,11 		"/>
		<polygon opacity="0.3" points="8,13 5,13 5,19 11,19 11,16 7,17 		"/>
		<polygon opacity="0.3" points="17,17 13,16 13,19 19,19 19,13 16,13 		"/>
		<polygon opacity="0.3" points="13,8 17,7 16,11 19,11 19,5 13,5 		"/>
		<path d="M19,3H5C3.9,3,3,3.9,3,5v14c0,1.1,0.9,2,2,2h14c1.1,0,2-0.9,2-2v-7V5C21,3.9,20.1,3,19,3z M5,5h6v3L7,7l1,4H5V5z M11,19H5
			v-6h3l-1,4l4-1V19z M9.37,14.63L10.28,12L9.37,9.37L12,10.28l2.63-0.91L13.72,12l0.91,2.63L12,13.72L9.37,14.63z M19,19h-6v-3l4,1
			l-1-4h3V19z M19,11h-3l1-4l-4,1V5h6V11z"/>
	</g>
</g>
</svg>
