<?xml version="1.0" encoding="utf-8"?>
<!-- Generator: Adobe Illustrator 19.1.0, SVG Export Plug-In . SVG Version: 6.00 Build 0)  -->
<svg version="1.1" xmlns="http://www.w3.org/2000/svg" xmlns:xlink="http://www.w3.org/1999/xlink" x="0px" y="0px" width="24px"
	 height="24px" viewBox="0 0 24 24" enable-background="new 0 0 24 24" xml:space="preserve">
<g id="Bounding_Boxes">
	<g id="ui_x5F_spec_x5F_header_copy_2">
	</g>
	<path fill="none" d="M0,0h24v24H0V0z"/>
</g>
<g id="Duotone">
	<g id="ui_x5F_spec_x5F_header_copy_3">
	</g>
	<g>
		<path opacity="0.3" d="M3,18h18V6H3V18z M8.5,12.5l2.5,3.01L14.5,11l4.5,6H5L8.5,12.5z"/>
		<path d="M21,4H3C1.9,4,1,4.9,1,6v12c0,1.1,0.9,2,2,2h18c1.1,0,2-0.9,2-2V6C23,4.9,22.1,4,21,4z M21,18H3V6h18V18z"/>
		<polygon points="14.5,11 11,15.51 8.5,12.5 5,17 19,17 		"/>
	</g>
</g>
</svg>
