<?xml version="1.0" encoding="utf-8"?>
<!-- Generator: Adobe Illustrator 19.1.0, SVG Export Plug-In . SVG Version: 6.00 Build 0)  -->
<svg version="1.1" xmlns="http://www.w3.org/2000/svg" xmlns:xlink="http://www.w3.org/1999/xlink" x="0px" y="0px" width="24px"
	 height="24px" viewBox="0 0 24 24" enable-background="new 0 0 24 24" xml:space="preserve">
<g id="Bounding_Boxes">
	<path fill="none" d="M0,0h24v24H0V0z"/>
</g>
<g id="Duotone">
	<g id="ui_x5F_spec_x5F_header_copy">
	</g>
	<g>
		<rect x="13" y="8" width="2" height="8"/>
		<rect x="9" y="8" width="2" height="8"/>
		<path d="M12,22c5.52,0,10-4.48,10-10c0-5.52-4.48-10-10-10S2,6.48,2,12C2,17.52,6.48,22,12,22z M12,4c4.41,0,8,3.59,8,8
			c0,4.41-3.59,8-8,8s-8-3.59-8-8C4,7.59,7.59,4,12,4z"/>
	</g>
</g>
</svg>
