<?xml version="1.0" encoding="utf-8"?>
<!-- Generator: Adobe Illustrator 19.1.0, SVG Export Plug-In . SVG Version: 6.00 Build 0)  -->
<svg version="1.1" xmlns="http://www.w3.org/2000/svg" xmlns:xlink="http://www.w3.org/1999/xlink" x="0px" y="0px" width="24px"
	 height="24px" viewBox="0 0 24 24" enable-background="new 0 0 24 24" xml:space="preserve">
<g id="Bounding_Boxes">
	<g id="ui_x5F_spec_x5F_header_copy_3" display="none">
	</g>
	<path fill="none" d="M0,0h24v24H0V0z"/>
</g>
<g id="Duotone">
	<g id="ui_x5F_spec_x5F_header_copy_2" display="none">
	</g>
	<g>
		<path opacity="0.3" d="M12,5C8.74,5,5.8,5.85,2.92,7.65L12,18.83l9.08-11.16C18.18,5.85,15.25,5,12,5z M13,16h-2v-6h2V16z M11,8V6
			h2v2H11z"/>
		<g>
			<path d="M12,3C6.95,3,3.15,4.85,0,7.23L12,22L24,7.25C20.85,4.87,17.05,3,12,3z M2.92,7.65C5.8,5.85,8.74,5,12,5
				c3.25,0,6.18,0.85,9.08,2.67L12,18.83L2.92,7.65z"/>
			<rect x="11" y="10" width="2" height="6"/>
			<rect x="11" y="6" width="2" height="2"/>
		</g>
	</g>
</g>
</svg>
