<?xml version="1.0" encoding="utf-8"?>
<!-- Generator: Adobe Illustrator 19.1.0, SVG Export Plug-In . SVG Version: 6.00 Build 0)  -->
<svg version="1.1" xmlns="http://www.w3.org/2000/svg" xmlns:xlink="http://www.w3.org/1999/xlink" x="0px" y="0px" width="24px"
	 height="24px" viewBox="0 0 24 24" enable-background="new 0 0 24 24" xml:space="preserve">
<g id="Bounding_Boxes">
	<g id="ui_x5F_spec_x5F_header_copy_3" display="none">
	</g>
	<path fill="none" d="M0,0h24v24H0V0z"/>
</g>
<g id="Duotone">
	<g id="ui_x5F_spec_x5F_header_copy_2" display="none">
	</g>
	<g>
		<path opacity="0.3" d="M13.17,6l-0.59-0.59L11.17,4H6v12l16,0V6h-8H13.17z M17.5,10.5L21,15H7l4.5-6l3.5,4.51L17.5,10.5z"/>
		<g>
			<path d="M2,6H0v5h0.01L0,20c0,1.1,0.9,2,2,2h18v-2H2V6z"/>
			<polygon points="7,15 21,15 17.5,10.5 15,13.51 11.5,9 			"/>
			<path d="M22,4h-8l-2-2H6C4.9,2,4.01,2.9,4.01,4L4,16c0,1.1,0.9,2,2,2h16c1.1,0,2-0.9,2-2V6C24,4.9,23.1,4,22,4z M22,16L6,16V4
				h5.17l1.41,1.41L13.17,6H14h8V16z"/>
		</g>
	</g>
</g>
</svg>
