<?xml version="1.0" encoding="utf-8"?>
<!-- Generator: Adobe Illustrator 19.1.0, SVG Export Plug-In . SVG Version: 6.00 Build 0)  -->
<svg version="1.1" xmlns="http://www.w3.org/2000/svg" xmlns:xlink="http://www.w3.org/1999/xlink" x="0px" y="0px" width="24px"
	 height="24px" viewBox="0 0 24 24" enable-background="new 0 0 24 24" xml:space="preserve">
<g id="Bounding_Boxes">
	<g id="ui_x5F_spec_x5F_header_copy_2">
	</g>
	<path fill="none" d="M0,0h24v24H0V0z"/>
</g>
<g id="Duotone">
	<g id="ui_x5F_spec_x5F_header_copy">
	</g>
	<g>
		<path opacity="0.3" d="M12,16c-2.69,0-5.77,1.28-6,2h12C17.8,17.29,14.7,16,12,16z"/>
		<circle opacity="0.3" cx="12" cy="8" r="2"/>
		<path d="M12,14c-2.67,0-8,1.34-8,4v2h16v-2C20,15.34,14.67,14,12,14z M6,18c0.22-0.72,3.31-2,6-2c2.7,0,5.8,1.29,6,2H6z"/>
		<path d="M12,12c2.21,0,4-1.79,4-4c0-2.21-1.79-4-4-4S8,5.79,8,8C8,10.21,9.79,12,12,12z M12,6c1.1,0,2,0.9,2,2s-0.9,2-2,2
			s-2-0.9-2-2S10.9,6,12,6z"/>
	</g>
</g>
</svg>
