<?xml version="1.0" encoding="utf-8"?>
<!-- Generator: Adobe Illustrator 19.1.0, SVG Export Plug-In . SVG Version: 6.00 Build 0)  -->
<svg version="1.1" xmlns="http://www.w3.org/2000/svg" xmlns:xlink="http://www.w3.org/1999/xlink" x="0px" y="0px" width="24px"
	 height="24px" viewBox="0 0 24 24" enable-background="new 0 0 24 24" xml:space="preserve">
<g id="Bounding_Boxes">
	<path fill="none" d="M0,0h24v24H0V0z"/>
</g>
<g id="Duotone">
	<g id="ui_x5F_spec_x5F_header_copy_2">
	</g>
	<g>
		<path opacity="0.3" d="M9.83,18l0.59,0.59L12,20.17l1.59-1.59L14.17,18H15h4V4H5v14h4H9.83z M12,5c1.65,0,3,1.35,3,3s-1.35,3-3,3
			S9,9.65,9,8S10.35,5,12,5z M6,15.58C6,13.08,9.97,12,12,12s6,1.08,6,3.58V17H6V15.58z"/>
		<path d="M9,20l3,3l3-3h4c1.1,0,2-0.9,2-2V4c0-1.1-0.9-2-2-2H5C3.89,2,3,2.9,3,4v14c0,1.1,0.89,2,2,2H9z M5,4h14v14h-4h-0.83
			l-0.59,0.59L12,20.17l-1.59-1.59L9.83,18H9H5V4z"/>
		<path d="M12,11c1.65,0,3-1.35,3-3s-1.35-3-3-3S9,6.35,9,8S10.35,11,12,11z M12,7c0.55,0,1,0.45,1,1s-0.45,1-1,1s-1-0.45-1-1
			S11.45,7,12,7z"/>
		<path d="M18,15.58c0-2.5-3.97-3.58-6-3.58s-6,1.08-6,3.58V17h12V15.58z M8.48,15c0.74-0.51,2.23-1,3.52-1s2.78,0.49,3.52,1H8.48z"
			/>
	</g>
</g>
</svg>
