<?xml version="1.0" encoding="utf-8"?>
<!-- Generator: Adobe Illustrator 19.1.0, SVG Export Plug-In . SVG Version: 6.00 Build 0)  -->
<svg version="1.1" xmlns="http://www.w3.org/2000/svg" xmlns:xlink="http://www.w3.org/1999/xlink" x="0px" y="0px" width="24px"
	 height="24px" viewBox="0 0 24 24" enable-background="new 0 0 24 24" xml:space="preserve">
<g id="Bounding_Boxes">
	<g id="ui_x5F_spec_x5F_header_copy_2">
	</g>
	<path fill="none" d="M0,0h24v24H0V0z"/>
</g>
<g id="Duotone">
	<g id="ui_x5F_spec_x5F_header_copy_3">
	</g>
	<g>
		<polygon points="4,17.2 8,13.2 12,17.2 13,16.2 9,12.2 13,8.2 12,7.2 8,11.2 4,7.2 3,8.2 7,12.2 3,16.2 		"/>
		<path d="M9,23h10c1.1,0,2-0.9,2-2V3c0-1.1-0.9-2-2-2H9C7.9,1,7,1.9,7,3v3h2V4h10v16H9v-2H7v3C7,22.1,7.9,23,9,23z"/>
	</g>
</g>
</svg>
