<?xml version="1.0" encoding="utf-8"?>
<!-- Generator: Adobe Illustrator 19.1.0, SVG Export Plug-In . SVG Version: 6.00 Build 0)  -->
<svg version="1.1" xmlns="http://www.w3.org/2000/svg" xmlns:xlink="http://www.w3.org/1999/xlink" x="0px" y="0px" width="24px"
	 height="24px" viewBox="0 0 24 24" enable-background="new 0 0 24 24" xml:space="preserve">
<g id="Bounding_Boxes">
	<g id="ui_x5F_spec_x5F_header_copy_2">
	</g>
	<path fill="none" d="M0,0h24v24H0V0z"/>
</g>
<g id="Duotone">
	<g id="ui_x5F_spec_x5F_header_copy_3">
	</g>
	<g>
		<rect x="4" y="4" opacity="0.3" width="10" height="16"/>
		<path d="M14,1H4C2.9,1,2,1.9,2,3v18c0,1.1,0.9,2,2,2h10c1.1,0,2-0.9,2-2V3C16,1.9,15.1,1,14,1z M14,20H4V4h10V20z"/>
		<path d="M20.1,7.7l-1,1c1.8,1.8,1.8,4.6,0,6.5l1,1C22.6,13.9,22.6,10.1,20.1,7.7z"/>
		<path d="M17,10.8c0.5,0.7,0.5,1.6,0,2.3l1,1c1.2-1.2,1.2-3,0-4.3L17,10.8z"/>
	</g>
</g>
</svg>
