<?xml version="1.0" encoding="utf-8"?>
<!-- Generator: Adobe Illustrator 19.1.0, SVG Export Plug-In . SVG Version: 6.00 Build 0)  -->
<svg version="1.1" xmlns="http://www.w3.org/2000/svg" xmlns:xlink="http://www.w3.org/1999/xlink" x="0px" y="0px" width="24px"
	 height="24px" viewBox="0 0 24 24" enable-background="new 0 0 24 24" xml:space="preserve">
<g id="Bounding_Boxes">
	<g id="ui_x5F_spec_x5F_header_copy_3">
	</g>
	<path fill="none" d="M0,0h24v24H0V0z M0,0h24v24H0V0z"/>
</g>
<g id="Duotone">
	<g id="ui_x5F_spec_x5F_header_copy_2">
	</g>
	<g>
		<polygon opacity="0.3" points="22,17 22,10 18,10 18,14.61 20.39,17 		"/>
		<g>
			<path d="M23,8h-6c-0.55,0-1,0.45-1,1v3.61l2,2V10h4v7h-1.61l2.93,2.93C23.71,19.8,24,19.44,24,19V9C24,8.45,23.55,8,23,8z"/>
			<polygon points="22,6 22,4 7.39,4 9.39,6 			"/>
			<path d="M0.65,2.92l1.82,1.82C2.18,5.08,2,5.52,2,6v11H0v3h17.73l2.35,2.35l1.41-1.41L2.06,1.51L0.65,2.92z M4,6.27L14.73,17H4
				V6.27z"/>
		</g>
	</g>
</g>
</svg>
