<?xml version="1.0" encoding="utf-8"?>
<!-- Generator: Adobe Illustrator 19.1.0, SVG Export Plug-In . SVG Version: 6.00 Build 0)  -->
<svg version="1.1" xmlns="http://www.w3.org/2000/svg" xmlns:xlink="http://www.w3.org/1999/xlink" x="0px" y="0px" width="24px"
	 height="24px" viewBox="0 0 24 24" enable-background="new 0 0 24 24" xml:space="preserve">
<g id="Bounding_Boxes">
	<g id="ui_x5F_spec_x5F_header_copy_2">
	</g>
	<path fill="none" d="M0,0h24v24H0V0z"/>
</g>
<g id="Duotone">
	<g id="ui_x5F_spec_x5F_header_copy_3">
	</g>
	<g>
		<path opacity="0.3" d="M13,13l-3-2.25L7,13V4H6v16h12V4h-5V13z M17,19H7l2.5-3.19l1.78,2.15l2.5-3.22L17,19z"/>
		<path d="M18,2H6C4.9,2,4,2.9,4,4v16c0,1.1,0.9,2,2,2h12c1.1,0,2-0.9,2-2V4C20,2.9,19.1,2,18,2z M9,4h2v5l-1-0.75L9,9V4z M18,20H6
			V4h1v9l3-2.25L13,13V4h5V20z"/>
		<polygon points="9.5,15.81 7,19 17,19 13.78,14.74 11.28,17.96 		"/>
	</g>
</g>
</svg>
