<?xml version="1.0" encoding="utf-8"?>
<!-- Generator: Adobe Illustrator 19.1.0, SVG Export Plug-In . SVG Version: 6.00 Build 0)  -->
<svg version="1.1" xmlns="http://www.w3.org/2000/svg" xmlns:xlink="http://www.w3.org/1999/xlink" x="0px" y="0px" width="24px"
	 height="24px" viewBox="0 0 24 24" enable-background="new 0 0 24 24" xml:space="preserve">
<g id="Bounding_Boxes">
	<g id="ui_x5F_spec_x5F_header_copy_2">
	</g>
	<path fill="none" d="M0,0h24v24H0V0z"/>
</g>
<g id="Duotone">
	<g id="ui_x5F_spec_x5F_header_copy_3">
	</g>
	<g>
		<rect x="17" y="19" width="2" height="2"/>
		<rect x="13" y="19" width="2" height="2"/>
		<path d="M1,19c0,1.1,0.9,2,2,2h8v-6H1V19z"/>
		<rect x="9" y="3" width="2" height="2"/>
		<rect x="5" y="3" width="2" height="2"/>
		<rect x="17" y="3" width="2" height="2"/>
		<rect x="1" y="11" width="2" height="2"/>
		<rect x="1" y="7" width="2" height="2"/>
		<path d="M3,3C2,3,1,4,1,5h2V3z"/>
		<rect x="13" y="3" width="2" height="2"/>
		<path d="M21,21c1,0,2-1,2-2h-2V21z"/>
		<rect x="21" y="11" width="2" height="2"/>
		<path d="M21,3v2h2C23,4,22,3,21,3z"/>
		<rect x="21" y="15" width="2" height="2"/>
		<rect x="21" y="7" width="2" height="2"/>
	</g>
</g>
</svg>
