<?xml version="1.0" encoding="utf-8"?>
<!-- Generator: Adobe Illustrator 19.1.0, SVG Export Plug-In . SVG Version: 6.00 Build 0)  -->
<svg version="1.1" xmlns="http://www.w3.org/2000/svg" xmlns:xlink="http://www.w3.org/1999/xlink" x="0px" y="0px" width="24px"
	 height="24px" viewBox="0 0 24 24" enable-background="new 0 0 24 24" xml:space="preserve">
<g id="Bounding_Boxes">
	<g id="ui_x5F_spec_x5F_header_copy_3" display="none">
	</g>
	<path fill="none" d="M0,0h24v24H0V0z"/>
</g>
<g id="Duotone">
	<g id="ui_x5F_spec_x5F_header_copy_2" display="none">
	</g>
	<g>
		<path d="M19,7h-8v6h8V7z M17,11h-4V9h4V11z"/>
		<rect x="13" y="9" opacity="0.3" width="4" height="2"/>
		<path d="M21,3H3C1.9,3,1,3.9,1,5v14c0,1.1,0.9,1.98,2,1.98h18c1.1,0,2-0.88,2-1.98V5C23,3.9,22.1,3,21,3z M21,19.01H3V4.98h18
			V19.01z"/>
	</g>
</g>
</svg>
