<?xml version="1.0" encoding="utf-8"?>
<!-- Generator: Adobe Illustrator 19.1.0, SVG Export Plug-In . SVG Version: 6.00 Build 0)  -->
<svg version="1.1" xmlns="http://www.w3.org/2000/svg" xmlns:xlink="http://www.w3.org/1999/xlink" x="0px" y="0px" width="24px"
	 height="24px" viewBox="0 0 24 24" enable-background="new 0 0 24 24" xml:space="preserve">
<g id="Bounding_Boxes">
	<g id="ui_x5F_spec_x5F_header_copy_3" display="none">
	</g>
	<path fill="none" d="M0,0h24v24H0V0z"/>
</g>
<g id="Duotone">
	<g id="ui_x5F_spec_x5F_header_copy_2" display="none">
	</g>
	<g>
		<path d="M19,11h-8v6h8V11z M17,15h-4v-2h4V15z"/>
		<path d="M21,3H3C1.9,3,1,3.88,1,4.98V19c0,1.1,0.9,2,2,2h18c1.1,0,2-0.9,2-2V4.98C23,3.88,22.1,3,21,3z M21,19.02H3V4.97h18V19.02
			z"/>
		<rect x="13" y="13" opacity="0.3" width="4" height="2"/>
	</g>
</g>
</svg>
