<?xml version="1.0" encoding="utf-8"?>
<!-- Generator: Adobe Illustrator 19.1.0, SVG Export Plug-In . SVG Version: 6.00 Build 0)  -->
<svg version="1.1" xmlns="http://www.w3.org/2000/svg" xmlns:xlink="http://www.w3.org/1999/xlink" x="0px" y="0px" width="24px"
	 height="24px" viewBox="0 0 24 24" enable-background="new 0 0 24 24" xml:space="preserve">
<g id="Bounding_Boxes">
	<g id="ui_x5F_spec_x5F_header_copy_3">
	</g>
	<path fill="none" d="M0,0h24v24H0V0z"/>
</g>
<g id="Duotone">
	<g id="ui_x5F_spec_x5F_header_copy_2">
	</g>
	<g>
		<path opacity="0.3" d="M4,12c0,4.07,3.06,7.44,7,7.93V4.07C7.06,4.56,4,7.93,4,12z"/>
		<path opacity="0.3" d="M13,19.93c3.61-0.45,6.48-3.32,6.93-6.93H13V19.93z"/>
		<path opacity="0.3" d="M13,4.07V11h6.93C19.48,7.39,16.61,4.52,13,4.07z"/>
		<path d="M12,2C6.48,2,2,6.48,2,12c0,5.52,4.48,10,10,10s10-4.48,10-10C22,6.48,17.52,2,12,2z M11,19.93C7.06,19.44,4,16.07,4,12
			c0-4.07,3.06-7.44,7-7.93V19.93z M13,19.93V13h6.93C19.48,16.61,16.61,19.48,13,19.93z M13,11V4.07c3.61,0.45,6.48,3.32,6.93,6.93
			H13z"/>
	</g>
</g>
</svg>
