<?xml version="1.0" encoding="utf-8"?>
<!-- Generator: Adobe Illustrator 19.1.0, SVG Export Plug-In . SVG Version: 6.00 Build 0)  -->
<svg version="1.1" xmlns="http://www.w3.org/2000/svg" xmlns:xlink="http://www.w3.org/1999/xlink" x="0px" y="0px" width="24px"
	 height="24px" viewBox="0 0 24 24" enable-background="new 0 0 24 24" xml:space="preserve">
<g id="Bounding_Boxes">
	<g id="ui_x5F_spec_x5F_header_copy_2">
	</g>
	<path fill="none" d="M0,0h24v24H0V0z"/>
</g>
<g id="Duotone">
	<g id="ui_x5F_spec_x5F_header_copy_3">
	</g>
	<g>
		<path opacity="0.3" d="M5,19h14V5H5V19z M12,6c1.65,0,3,1.35,3,3s-1.35,3-3,3s-3-1.35-3-3S10.35,6,12,6z M6,16.58
			C6,14.08,9.97,13,12,13s6,1.08,6,3.58V18H6V16.58z"/>
		<path d="M12,12c1.65,0,3-1.35,3-3s-1.35-3-3-3S9,7.35,9,9S10.35,12,12,12z M12,8c0.55,0,1,0.45,1,1s-0.45,1-1,1s-1-0.45-1-1
			S11.45,8,12,8z"/>
		<path d="M18,16.58c0-2.5-3.97-3.58-6-3.58s-6,1.08-6,3.58V18h12V16.58z M8.48,16c0.74-0.51,2.23-1,3.52-1s2.78,0.49,3.52,1H8.48z"
			/>
		<path d="M19,3H5C3.89,3,3,3.9,3,5v14c0,1.1,0.89,2,2,2h14c1.1,0,2-0.9,2-2V5C21,3.9,20.1,3,19,3z M19,19H5V5h14V19z"/>
	</g>
</g>
</svg>
