<?xml version="1.0" encoding="utf-8"?>
<!-- Generator: Adobe Illustrator 19.1.0, SVG Export Plug-In . SVG Version: 6.00 Build 0)  -->
<svg version="1.1" xmlns="http://www.w3.org/2000/svg" xmlns:xlink="http://www.w3.org/1999/xlink" x="0px" y="0px" width="24px"
	 height="24px" viewBox="0 0 24 24" enable-background="new 0 0 24 24" xml:space="preserve">
<g id="Bounding_Boxes">
	<g id="ui_x5F_spec_x5F_header_copy_2">
	</g>
	<path fill="none" d="M0,0h24v24H0V0z"/>
</g>
<g id="Duotone">
	<g id="ui_x5F_spec_x5F_header_copy">
	</g>
	<g>
		<polygon opacity="0.3" points="8,13.65 11.5,17.17 11.5,19 12.5,19 12.5,17.17 16,13.66 16,9 8,9 		"/>
		<path d="M16,7L16,7V3h-2v4h-4V3H8v4H7.99l0,0C6.89,7,6,7.89,6,8.98v5.52L9.5,18v3h5v-3l3.5-3.5V9C18,7.9,17.1,7,16,7L16,7z
			 M16,13.66l-3.5,3.51V19h-1v-1.83L8,13.65V9h8V13.66z"/>
	</g>
</g>
</svg>
