<?xml version="1.0" encoding="utf-8"?>
<!-- Generator: Adobe Illustrator 19.1.0, SVG Export Plug-In . SVG Version: 6.00 Build 0)  -->
<svg version="1.1" xmlns="http://www.w3.org/2000/svg" xmlns:xlink="http://www.w3.org/1999/xlink" x="0px" y="0px" width="24px"
	 height="24px" viewBox="0 0 24 24" enable-background="new 0 0 24 24" xml:space="preserve">
<g id="Bounding_Boxes">
	<g id="ui_x5F_spec_x5F_header_copy_3" display="none">
	</g>
	<path fill="none" d="M0,0h24v24H0V0z"/>
</g>
<g id="Duotone">
	<g id="ui_x5F_spec_x5F_header_copy_2" display="none">
	</g>
	<path d="M13,3h-2v10h2V3z M17.83,5.17l-1.42,1.42C17.99,7.86,19,9.81,19,12c0,3.87-3.13,7-7,7s-7-3.13-7-7
		c0-2.19,1.01-4.14,2.58-5.42L6.17,5.17C4.23,6.82,3,9.26,3,12c0,4.97,4.03,9,9,9s9-4.03,9-9C21,9.26,19.77,6.82,17.83,5.17z"/>
</g>
</svg>
