<?xml version="1.0" encoding="utf-8"?>
<!-- Generator: Adobe Illustrator 19.1.0, SVG Export Plug-In . SVG Version: 6.00 Build 0)  -->
<svg version="1.1" xmlns="http://www.w3.org/2000/svg" xmlns:xlink="http://www.w3.org/1999/xlink" x="0px" y="0px" width="24px"
	 height="24px" viewBox="0 0 24 24" enable-background="new 0 0 24 24" xml:space="preserve">
<g id="Bounding_Boxes">
	<g id="ui_x5F_spec_x5F_header_copy_2">
	</g>
	<path fill="none" d="M0,0h24v24H0V0z"/>
</g>
<g id="Duotone">
	<g id="ui_x5F_spec_x5F_header_copy">
	</g>
	<g>
		<polygon opacity="0.3" points="12.12,9 16,12.88 16,9 		"/>
		<polygon opacity="0.3" points="11.5,17.17 11.5,19 12.5,19 12.5,17.17 13.57,16.11 8,10.54 8,13.65 		"/>
		<polygon points="10,3 8,3 8,4.88 10,6.88 		"/>
		<g>
			<path d="M16,9v3.88l1.8,1.8l0.2-0.2V9c0-1.1-0.9-2-2-2h0V3h-2v4h-3.88l2,2H16z"/>
			<path d="M4.12,3.84L2.71,5.25L6,8.54v5.96L9.5,18v3h5v-3l0.48-0.48l4.47,4.47l1.41-1.41L4.12,3.84z M12.5,17.17V19h-1v-1.83
				L8,13.65v-3.11l5.57,5.57L12.5,17.17z"/>
		</g>
	</g>
</g>
</svg>
