<?xml version="1.0" encoding="utf-8"?>
<!-- Generator: Adobe Illustrator 19.1.0, SVG Export Plug-In . SVG Version: 6.00 Build 0)  -->
<svg version="1.1" xmlns="http://www.w3.org/2000/svg" xmlns:xlink="http://www.w3.org/1999/xlink" x="0px" y="0px" width="24px"
	 height="24px" viewBox="0 0 24 24" enable-background="new 0 0 24 24" xml:space="preserve">
<g id="Bounding_Boxes">
	<g id="ui_x5F_spec_x5F_header_copy_2">
	</g>
	<path fill="none" d="M0,0h24v24H0V0z"/>
</g>
<g id="Duotone">
	<g id="ui_x5F_spec_x5F_header_copy_3">
	</g>
	<g>
		<path opacity="0.3" d="M3,19.02h18V4.98H3V19.02z M12,8l4,4h-2v4h-4v-4H8L12,8z"/>
		<polygon points="10,16 14,16 14,12 16,12 12,8 8,12 10,12 		"/>
		<path d="M21,3H3C1.89,3,1,3.89,1,5v14c0,1.11,0.89,2,2,2h18c1.11,0,2-0.89,2-2V5C23,3.89,22.11,3,21,3z M21,19.02H3V4.98h18V19.02
			z"/>
	</g>
</g>
</svg>
