<?xml version="1.0" encoding="utf-8"?>
<!-- Generator: Adobe Illustrator 19.1.0, SVG Export Plug-In . SVG Version: 6.00 Build 0)  -->
<svg version="1.1" xmlns="http://www.w3.org/2000/svg" xmlns:xlink="http://www.w3.org/1999/xlink" x="0px" y="0px" width="24px"
	 height="24px" viewBox="0 0 24 24" enable-background="new 0 0 24 24" xml:space="preserve">
<g id="Bounding_Boxes">
	<rect fill="none" width="24" height="24"/>
	<rect fill="none" width="24" height="24"/>
	<rect fill="none" width="24" height="24"/>
</g>
<g id="Duotone">
	<g id="ui_x5F_spec_x5F_header_copy">
	</g>
	<g>
		<circle opacity="0.3" cx="16" cy="17" r="1"/>
		<rect x="3" y="10" width="12" height="2"/>
		<rect x="3" y="14" width="8" height="2"/>
		<rect x="3" y="6" width="12" height="2"/>
		<path d="M17,14.18C16.69,14.07,16.35,14,16,14c-1.66,0-3,1.34-3,3c0,1.66,1.34,3,3,3s3-1.34,3-3V8h3V6h-5V14.18z M16,18
			c-0.55,0-1-0.45-1-1c0-0.55,0.45-1,1-1s1,0.45,1,1C17,17.55,16.55,18,16,18z"/>
	</g>
</g>
</svg>
