<?xml version="1.0" encoding="utf-8"?>
<!-- Generator: Adobe Illustrator 19.1.0, SVG Export Plug-In . SVG Version: 6.00 Build 0)  -->
<svg version="1.1" xmlns="http://www.w3.org/2000/svg" xmlns:xlink="http://www.w3.org/1999/xlink" x="0px" y="0px" width="24px"
	 height="24px" viewBox="0 0 24 24" enable-background="new 0 0 24 24" xml:space="preserve">
<g id="Bounding_Boxes">
	<path fill="none" d="M0,0h24v24H0V0z"/>
</g>
<g id="Duotone">
	<g id="ui_x5F_spec_x5F_header_copy">
	</g>
	<g>
		<path opacity="0.3" d="M20,13H4v7h16V13z M8,18.98c-1.38,0-2.5-1.12-2.5-2.5c0-1.38,1.12-2.5,2.5-2.5s2.5,1.12,2.5,2.5
			C10.5,17.86,9.38,18.98,8,18.98z"/>
		<path d="M2,20c0,1.1,0.89,2,2,2h16c1.11,0,2-0.9,2-2V8c0-1.11-0.89-2-2-2H8.3l8.26-3.34L15.88,1L3.24,6.15C2.51,6.43,2,7.17,2,8
			V20z M4,8h16v3h-2V9h-2v2H4V8z M4,13h16v7H4V13z"/>
		<circle cx="8" cy="16.48" r="2.5"/>
	</g>
</g>
</svg>
