<?xml version="1.0" encoding="utf-8"?>
<!-- Generator: Adobe Illustrator 19.1.0, SVG Export Plug-In . SVG Version: 6.00 Build 0)  -->
<svg version="1.1" xmlns="http://www.w3.org/2000/svg" xmlns:xlink="http://www.w3.org/1999/xlink" x="0px" y="0px" width="24px"
	 height="24px" viewBox="0 0 24 24" enable-background="new 0 0 24 24" xml:space="preserve">
<g id="Bounding_Boxes">
	<path fill="none" d="M0,0h24v24H0V0z"/>
</g>
<g id="Duotone">
	<g id="ui_x5F_spec_x5F_header_copy">
	</g>
	<g>
		<path opacity="0.3" d="M13,7H3v10h10V7z M8,8c1.07,0,1.95,0.87,1.95,1.95c0,1.07-0.87,1.95-1.95,1.95s-1.95-0.87-1.95-1.95
			C6.05,8.87,6.93,8,8,8z M11.89,16H4.11v-0.65c0-1.3,2.59-1.95,3.89-1.95s3.89,0.65,3.89,1.95V16z"/>
		<rect x="21" y="5" width="2" height="14"/>
		<rect x="17" y="5" width="2" height="14"/>
		<path d="M14,19c0.55,0,1-0.45,1-1V6c0-0.55-0.45-1-1-1H2C1.45,5,1,5.45,1,6v12c0,0.55,0.45,1,1,1H14z M3,7h10v10H3V7z"/>
		<circle cx="8" cy="9.94" r="1.95"/>
		<path d="M8,13.4c-1.3,0-3.89,0.65-3.89,1.95V16h7.78v-0.65C11.89,14.05,9.3,13.4,8,13.4z"/>
	</g>
</g>
</svg>
