<?xml version="1.0" encoding="utf-8"?>
<!-- Generator: Adobe Illustrator 19.1.0, SVG Export Plug-In . SVG Version: 6.00 Build 0)  -->
<svg version="1.1" xmlns="http://www.w3.org/2000/svg" xmlns:xlink="http://www.w3.org/1999/xlink" x="0px" y="0px" width="24px"
	 height="24px" viewBox="0 0 24 24" enable-background="new 0 0 24 24" xml:space="preserve">
<g id="Bounding_Boxes">
	<g id="ui_x5F_spec_x5F_header_copy_3" display="none">
	</g>
	<path fill="none" d="M0,0h24v24H0V0z"/>
</g>
<g id="Duotone">
	<g id="ui_x5F_spec_x5F_header_copy_2" display="none">
	</g>
	<g>
		<polygon opacity="0.3" points="16,14 14,14 14,18 10,18 10,14 8,14 8,19 16,19 		"/>
		<polygon opacity="0.3" points="16,14 16,9 8,9 8,14 12,10 		"/>
		<path d="M6,19c0,1.1,0.9,2,2,2h8c1.1,0,2-0.9,2-2V7H6V19z M8,14V9h8v5v5H8V14z"/>
		<polygon points="15.5,4 14.5,3 9.5,3 8.5,4 5,4 5,6 19,6 19,4 		"/>
		<polygon points="10,18 14,18 14,14 16,14 12,10 8,14 10,14 		"/>
	</g>
</g>
</svg>
