<?xml version="1.0" encoding="utf-8"?>
<!-- Generator: Adobe Illustrator 19.1.0, SVG Export Plug-In . SVG Version: 6.00 Build 0)  -->
<svg version="1.1" xmlns="http://www.w3.org/2000/svg" xmlns:xlink="http://www.w3.org/1999/xlink" x="0px" y="0px" width="24px"
	 height="24px" viewBox="0 0 24 24" enable-background="new 0 0 24 24" xml:space="preserve">
<g id="Bounding_Boxes">
	<g id="ui_x5F_spec_x5F_header_copy_3" display="none">
	</g>
	<path fill="none" d="M0,0h24v24H0V0z"/>
</g>
<g id="Duotone">
	<g id="ui_x5F_spec_x5F_header_copy_2" display="none">
	</g>
	<g>
		<path d="M13,3c-4.97,0-9,4.03-9,9H1l4,3.99L9,12H6c0-3.87,3.13-7,7-7s7,3.13,7,7s-3.13,7-7,7c-1.93,0-3.68-0.79-4.94-2.06
			l-1.42,1.42C8.27,19.99,10.51,21,13,21c4.97,0,9-4.03,9-9C22,7.03,17.97,3,13,3z"/>
		<polygon points="12,8 12,13 16.25,15.52 17.02,14.24 13.5,12.15 13.5,8 		"/>
	</g>
</g>
</svg>
