<?xml version="1.0" encoding="utf-8"?>
<!-- Generator: Adobe Illustrator 19.1.0, SVG Export Plug-In . SVG Version: 6.00 Build 0)  -->
<svg version="1.1" xmlns="http://www.w3.org/2000/svg" xmlns:xlink="http://www.w3.org/1999/xlink" x="0px" y="0px" width="24px"
	 height="24px" viewBox="0 0 24 24" enable-background="new 0 0 24 24" xml:space="preserve">
<g id="Bounding_Boxes">
	<path fill="none" d="M0,0h24v24H0V0z"/>
</g>
<g id="Duotone">
	<g id="ui_x5F_spec_x5F_header_copy" display="none">
	</g>
	<g>
		<path opacity="0.3" d="M12,9.58c-2.95,0-5.47,1.83-6.5,4.41h13C17.47,11.41,14.95,9.58,12,9.58z"/>
		<rect x="2" y="17" width="20" height="2"/>
		<path d="M13.84,7.79C13.94,7.55,14,7.28,14,7c0-1.1-0.9-2-2-2c-1.1,0-2,0.9-2,2c0,0.28,0.06,0.55,0.16,0.79
			C6.25,8.6,3.27,11.93,3,16h18C20.73,11.93,17.75,8.6,13.84,7.79z M12,9.58c2.95,0,5.47,1.83,6.5,4.41h-13
			C6.53,11.41,9.05,9.58,12,9.58z"/>
	</g>
</g>
</svg>
