<?xml version="1.0" encoding="utf-8"?>
<!-- Generator: Adobe Illustrator 19.1.0, SVG Export Plug-In . SVG Version: 6.00 Build 0)  -->
<svg version="1.1" xmlns="http://www.w3.org/2000/svg" xmlns:xlink="http://www.w3.org/1999/xlink" x="0px" y="0px" width="24px"
	 height="24px" viewBox="0 0 24 24" enable-background="new 0 0 24 24" xml:space="preserve">
<g id="Bounding_Boxes">
	<g id="ui_x5F_spec_x5F_header_copy_3" display="none">
	</g>
	<rect fill="none" width="24" height="24"/>
</g>
<g id="Duotone">
	<g id="ui_x5F_spec_x5F_header_copy_2" display="none">
	</g>
	<path d="M19,19h2v2h-2V19z M19,17h2v-2h-2V17z M3,13h2v-2H3V13z M3,17h2v-2H3V17z M3,9h2V7H3V9z M3,5h2V3H3V5z M7,5h2V3H7V5z
		 M15,21h2v-2h-2V21z M11,21h2v-2h-2V21z M15,21h2v-2h-2V21z M7,21h2v-2H7V21z M3,21h2v-2H3V21z M21,8c0-2.76-2.24-5-5-5h-5v2h5
		c1.65,0,3,1.35,3,3v5h2V8z"/>
</g>
</svg>
