<?xml version="1.0" encoding="utf-8"?>
<!-- Generator: Adobe Illustrator 19.1.0, SVG Export Plug-In . SVG Version: 6.00 Build 0)  -->
<svg version="1.1" xmlns="http://www.w3.org/2000/svg" xmlns:xlink="http://www.w3.org/1999/xlink" x="0px" y="0px" width="24px"
	 height="24px" viewBox="0 0 24 24" enable-background="new 0 0 24 24" xml:space="preserve">
<g id="Bounding_Boxes">
	<path fill="none" d="M0,0h24v24H0V0z"/>
</g>
<g id="Duotone">
	<g id="ui_x5F_spec_x5F_header_copy_2">
	</g>
	<g>
		<path opacity="0.3" d="M5,19h14V5H5V19z M6,6h2.57c0,1.42-1.15,2.58-2.57,2.58V6z M6,10.29c2.37,0,4.28-1.93,4.28-4.29H12
			c0,3.31-2.68,6-6,6V10.29z M9,13.15l2.14,2.58l3-3.86L18,17H6L9,13.15z"/>
		<path d="M19,3H5C3.9,3,3,3.9,3,5v14c0,1.1,0.9,2,2,2h14c1.1,0,2-0.9,2-2V5C21,3.9,20.1,3,19,3z M19,19H5V5h14V19z"/>
		<path d="M8.57,6H6v2.58C7.42,8.58,8.57,7.42,8.57,6z"/>
		<path d="M12,6h-1.72c0,2.36-1.91,4.29-4.28,4.29V12C9.32,12,12,9.31,12,6z"/>
		<polygon points="14.14,11.86 11.14,15.73 9,13.15 6,17 18,17 		"/>
	</g>
</g>
</svg>
