<?xml version="1.0" encoding="utf-8"?>
<!-- Generator: Adobe Illustrator 19.1.0, SVG Export Plug-In . SVG Version: 6.00 Build 0)  -->
<svg version="1.1" xmlns="http://www.w3.org/2000/svg" xmlns:xlink="http://www.w3.org/1999/xlink" x="0px" y="0px" width="24px"
	 height="24px" viewBox="0 0 24 24" enable-background="new 0 0 24 24" xml:space="preserve">
<g id="Bounding_Boxes">
	<g id="ui_x5F_spec_x5F_header_copy_3">
	</g>
	<path fill="none" d="M0,0h24v24H0V0z"/>
</g>
<g id="Duotone">
	<g id="ui_x5F_spec_x5F_header_copy_2">
	</g>
	<g>
		<path opacity="0.3" d="M5,14v4h14v-4h-1.4H5z M8,17H6v-2h2V17z M18,17h-8v-2h8V17z"/>
		<path d="M19.8,10.7L4.2,5L3.5,6.9L17.6,12H5c-1.1,0-2,0.9-2,2v4c0,1.1,0.9,2,2,2h14c1.1,0,2-0.9,2-2v-5.5
			C21,11.7,20.5,10.9,19.8,10.7z M19,18H5v-4h12.6H19V18z"/>
		<rect x="6" y="15" width="2" height="2"/>
		<rect x="10" y="15" width="8" height="2"/>
	</g>
</g>
</svg>
