<?xml version="1.0" encoding="utf-8"?>
<!-- Generator: Adobe Illustrator 19.1.0, SVG Export Plug-In . SVG Version: 6.00 Build 0)  -->
<svg version="1.1" xmlns="http://www.w3.org/2000/svg" xmlns:xlink="http://www.w3.org/1999/xlink" x="0px" y="0px" width="24px"
	 height="24px" viewBox="0 0 24 24" enable-background="new 0 0 24 24" xml:space="preserve">
<g id="Bounding_Boxes">
	<g id="ui_x5F_spec_x5F_header_copy_2">
	</g>
	<path fill="none" d="M0,0h24v24H0V0z"/>
</g>
<g id="Duotone">
	<g id="ui_x5F_spec_x5F_header_copy">
	</g>
	<g>
		<polygon opacity="0.3" points="7,12.27 7,15.99 12,18.72 17,15.99 17,12.27 12,15 		"/>
		<polygon opacity="0.3" points="5.18,9 12,12.72 18.82,9 12,5.28 		"/>
		<path d="M12,3L1,9l4,2.18v6L12,21l7-3.82v-6l2-1.09V17h2V9L12,3z M17,15.99l-5,2.73l-5-2.73v-3.72L12,15l5-2.73V15.99z M12,12.72
			L5.18,9L12,5.28L18.82,9L12,12.72z"/>
	</g>
</g>
</svg>
