<?xml version="1.0" encoding="utf-8"?>
<!-- Generator: Adobe Illustrator 19.1.0, SVG Export Plug-In . SVG Version: 6.00 Build 0)  -->
<svg version="1.1" xmlns="http://www.w3.org/2000/svg" xmlns:xlink="http://www.w3.org/1999/xlink" x="0px" y="0px" width="24px"
	 height="24px" viewBox="0 0 24 24" enable-background="new 0 0 24 24" xml:space="preserve">
<g id="Bounding_Boxes">
	<g id="ui_x5F_spec_x5F_header_copy_2">
	</g>
	<path fill="none" d="M0,0h24v24H0V0z"/>
</g>
<g id="Duotone">
	<g id="ui_x5F_spec_x5F_header_copy_3">
	</g>
	<g>
		<path opacity="0.3" d="M20,16V6H4v10v0.01L20,16L20,16z M13,14.47v-2.19c-2.78,0-4.61,0.85-6,2.72c0.56-2.67,2.11-5.33,6-5.87V7
			l4,3.73L13,14.47z"/>
		<g>
			<path d="M20,18c1.1,0,1.99-0.9,1.99-2L22,6c0-1.11-0.9-2-2-2H4C2.89,4,2,4.89,2,6v10c0,1.1,0.89,2,2,2H0v2h24v-2H20z M4,16V6h16
				v10v0.01L4,16L4,16z"/>
			<path d="M13,9.13C9.11,9.67,7.56,12.33,7,15c1.39-1.87,3.22-2.72,6-2.72v2.19l4-3.74L13,7V9.13z"/>
		</g>
	</g>
</g>
</svg>
