<?xml version="1.0" encoding="utf-8"?>
<!-- Generator: Adobe Illustrator 19.1.0, SVG Export Plug-In . SVG Version: 6.00 Build 0)  -->
<svg version="1.1" xmlns="http://www.w3.org/2000/svg" xmlns:xlink="http://www.w3.org/1999/xlink" x="0px" y="0px" width="24px"
	 height="24px" viewBox="0 0 24 24" enable-background="new 0 0 24 24" xml:space="preserve">
<g id="Bounding_Boxes">
	<g id="ui_x5F_spec_x5F_header_copy_3" display="none">
	</g>
	<path fill="none" d="M0,0h24v24H0V0z"/>
</g>
<g id="Duotone">
	<g id="ui_x5F_spec_x5F_header_copy_2" display="none">
	</g>
	<g>
		<path opacity="0.3" d="M10,21h4V11h-4V21z M12,12c0.55,0,1,0.45,1,1s-0.45,1-1,1s-1-0.45-1-1S11.45,12,12,12z"/>
		<g>
			<path d="M15,9H9c-0.55,0-1,0.45-1,1v12c0,0.55,0.45,1,1,1h6c0.55,0,1-0.45,1-1V10C16,9.45,15.55,9,15,9z M14,21h-4V11h4V21z"/>
			<circle cx="12" cy="13" r="1"/>
			<path d="M7.05,6.05l1.41,1.41C9.37,6.56,10.62,6,12,6s2.63,0.56,3.54,1.46l1.41-1.41C15.68,4.78,13.93,4,12,4
				S8.32,4.78,7.05,6.05z"/>
			<path d="M12,0C8.96,0,6.21,1.23,4.22,3.22l1.41,1.41C7.26,3.01,9.51,2,12,2s4.74,1.01,6.36,2.64l1.41-1.41
				C17.79,1.23,15.04,0,12,0z"/>
		</g>
	</g>
</g>
</svg>
