<?xml version="1.0" encoding="utf-8"?>
<!-- Generator: Adobe Illustrator 19.1.0, SVG Export Plug-In . SVG Version: 6.00 Build 0)  -->
<svg version="1.1" xmlns="http://www.w3.org/2000/svg" xmlns:xlink="http://www.w3.org/1999/xlink" x="0px" y="0px" width="24px"
	 height="24px" viewBox="0 0 24 24" enable-background="new 0 0 24 24" xml:space="preserve">
<g id="Bounding_Boxes">
	<g id="ui_x5F_spec_x5F_header_copy_3" display="none">
	</g>
	<path fill="none" d="M0,0h24v24H0V0z"/>
</g>
<g id="Duotone">
	<g id="ui_x5F_spec_x5F_header_copy_2" display="none">
	</g>
	<path d="M11,24h2v-2h-2V24z M7,24h2v-2H7V24z M15,24h2v-2h-2V24z M17.71,5.71L12,0h-1v7.59L6.41,3L5,4.41L10.59,10L5,15.59L6.41,17
		L11,12.41V20h1l5.71-5.71L13.41,10L17.71,5.71z M13,3.83l1.88,1.88L13,7.59V3.83z M14.88,14.29L13,16.17v-3.76L14.88,14.29z"/>
</g>
</svg>
