<?xml version="1.0" encoding="utf-8"?>
<!-- Generator: Adobe Illustrator 19.1.0, SVG Export Plug-In . SVG Version: 6.00 Build 0)  -->
<svg version="1.1" xmlns="http://www.w3.org/2000/svg" xmlns:xlink="http://www.w3.org/1999/xlink" x="0px" y="0px" width="24px"
	 height="24px" viewBox="0 0 24 24" enable-background="new 0 0 24 24" xml:space="preserve">
<g id="Bounding_Boxes">
	<g id="ui_x5F_spec_x5F_header_copy_3" display="none">
	</g>
	<path fill="none" d="M0,0h24v24H0V0z"/>
</g>
<g id="Duotone">
	<g id="ui_x5F_spec_x5F_header_copy_2" display="none">
	</g>
	<g>
		<polygon opacity="0.3" points="8,9 7,9 7,12.53 9.79,18.11 10,18.53 10,19 10,20 14,20 14,19 14,18.53 14.21,18.11 17,12.53 17,9 
			16,9 		"/>
		<path d="M18,7V4c0-1.1-0.9-2-2-2H8C6.9,2,6,2.9,6,4v3H5v2v4l3,6v3h8v-3l3-6V9V7H18z M8,4h8v3h-2.01V5h-1v2H11V5h-1v2H8V4z
			 M17,12.53l-3,6V20h-4v-1.47l-3-6V9h10V12.53z"/>
	</g>
</g>
</svg>
