<?xml version="1.0" encoding="utf-8"?>
<!-- Generator: Adobe Illustrator 19.1.0, SVG Export Plug-In . SVG Version: 6.00 Build 0)  -->
<svg version="1.1" xmlns="http://www.w3.org/2000/svg" xmlns:xlink="http://www.w3.org/1999/xlink" x="0px" y="0px" width="24px"
	 height="24px" viewBox="0 0 24 24" enable-background="new 0 0 24 24" xml:space="preserve">
<g id="Bounding_Boxes">
	<g id="ui_x5F_spec_x5F_header_copy_3" display="none">
	</g>
	<path fill="none" d="M0,0h24v24H0V0z"/>
</g>
<g id="Duotone">
	<g id="ui_x5F_spec_x5F_header_copy_2" display="none">
	</g>
	<g>
		<rect x="8" y="17" opacity="0.3" width="8" height="1"/>
		<rect x="8" y="2" opacity="0.3" width="8" height="1"/>
		<g>
			<rect x="7" y="22" width="2" height="2"/>
			<rect x="11" y="22" width="2" height="2"/>
			<rect x="15" y="22" width="2" height="2"/>
			<path d="M16,0.01L8,0C6.9,0,6,0.9,6,2v16c0,1.1,0.9,2,2,2h8c1.1,0,2-0.9,2-2V2C18,0.9,17.1,0.01,16,0.01z M16,18H8v-1h8V18z
				 M16,15H8V5h8V15z M16,3H8V2h8V3z"/>
		</g>
	</g>
</g>
</svg>
