<?xml version="1.0" encoding="utf-8"?>
<!-- Generator: Adobe Illustrator 19.1.0, SVG Export Plug-In . SVG Version: 6.00 Build 0)  -->
<svg version="1.1" xmlns="http://www.w3.org/2000/svg" xmlns:xlink="http://www.w3.org/1999/xlink" x="0px" y="0px" width="24px"
	 height="24px" viewBox="0 0 24 24" enable-background="new 0 0 24 24" xml:space="preserve">
<g id="Bounding_Boxes">
	<g id="ui_x5F_spec_x5F_header_copy_3" display="none">
	</g>
	<path fill="none" d="M0,0h24v24H0V0z"/>
</g>
<g id="Duotone">
	<g id="ui_x5F_spec_x5F_header_copy_2" display="none">
	</g>
	<g>
		<path opacity="0.3" d="M7,7v9h14V7H7z M12,15V8l5.5,3L12,15z"/>
		<g>
			<g>
				<path d="M3,9H1v11c0,1.11,0.89,2,2,2h14c1.11,0,2-0.89,2-2H3V9z"/>
			</g>
			<g>
				<g>
					<path d="M18,5V3c0-1.11-0.89-2-2-2h-4c-1.11,0-2,0.89-2,2v2H5v11c0,1.11,0.89,2,2,2h14c1.11,0,2-0.89,2-2V5H18z M12,3h4v2h-4V3
						z M21,16H7V7h14V16z"/>
				</g>
			</g>
			<g>
				<polygon points="12,15 17.5,11 12,8 				"/>
			</g>
		</g>
	</g>
</g>
</svg>
