<?xml version="1.0" encoding="utf-8"?>
<!-- Generator: Adobe Illustrator 19.1.0, SVG Export Plug-In . SVG Version: 6.00 Build 0)  -->
<svg version="1.1" xmlns="http://www.w3.org/2000/svg" xmlns:xlink="http://www.w3.org/1999/xlink" x="0px" y="0px" width="24px"
	 height="24px" viewBox="0 0 24 24" enable-background="new 0 0 24 24" xml:space="preserve">
<g id="Bounding_Boxes">
	<g id="ui_x5F_spec_x5F_header_copy_3" display="none">
	</g>
	<path fill="none" d="M0,0h24v24H0V0z"/>
</g>
<g id="Duotone">
	<g id="ui_x5F_spec_x5F_header_copy_2" display="none">
	</g>
	<g>
		<path opacity="0.3" d="M4,19h16V8H4V19z M9,9l7.5,4L9,18V9z"/>
		<g>
			<g>
				<g>
					<path d="M16,6V4c0-1.11-0.89-2-2-2h-4C8.89,2,8,2.89,8,4v2H2v13c0,1.11,0.89,2,2,2h16c1.11,0,2-0.89,2-2V6H16z M10,4h4v2h-4V4z
						 M20,19H4V8h16V19z"/>
				</g>
			</g>
			<g>
				<polygon points="9,9 9,18 16.5,13 				"/>
			</g>
		</g>
	</g>
</g>
</svg>
