<?xml version="1.0" encoding="utf-8"?>
<!-- Generator: Adobe Illustrator 19.1.0, SVG Export Plug-In . SVG Version: 6.00 Build 0)  -->
<svg version="1.1" xmlns="http://www.w3.org/2000/svg" xmlns:xlink="http://www.w3.org/1999/xlink" x="0px" y="0px" width="24px"
	 height="24px" viewBox="0 0 24 24" enable-background="new 0 0 24 24" xml:space="preserve">
<g id="Bounding_Boxes">
	<g id="ui_x5F_spec_x5F_header_copy_3" display="none">
	</g>
	<path fill="none" d="M0,0h24v24H0V0z"/>
</g>
<g id="Duotone">
	<g>
		<polygon opacity="0.3" points="15.55,11 18.31,6 6.16,6 8.53,11 		"/>
		<g>
			<path d="M15.55,13c0.75,0,1.41-0.41,1.75-1.03l3.58-6.49C21.25,4.82,20.77,4,20.01,4H5.21L4.27,2H1v2h2l3.6,7.59l-1.35,2.44
				C4.52,15.37,5.48,17,7,17h12v-2H7l1.1-2H15.55z M6.16,6h12.15l-2.76,5H8.53L6.16,6z"/>
			<path d="M7,18c-1.1,0-1.99,0.9-1.99,2c0,1.1,0.89,2,1.99,2c1.1,0,2-0.9,2-2C9,18.9,8.1,18,7,18z"/>
			<path d="M17,18c-1.1,0-1.99,0.9-1.99,2c0,1.1,0.89,2,1.99,2c1.1,0,2-0.9,2-2C19,18.9,18.1,18,17,18z"/>
		</g>
	</g>
	<g id="ui_x5F_spec_x5F_header_copy_2" display="none">
	</g>
</g>
</svg>
