<?xml version="1.0" encoding="utf-8"?>
<!-- Generator: Adobe Illustrator 19.1.0, SVG Export Plug-In . SVG Version: 6.00 Build 0)  -->
<svg version="1.1" xmlns="http://www.w3.org/2000/svg" xmlns:xlink="http://www.w3.org/1999/xlink" x="0px" y="0px" width="24px"
	 height="24px" viewBox="0 0 24 24" enable-background="new 0 0 24 24" xml:space="preserve">
<g id="Bounding_Boxes">
	<g id="ui_x5F_spec_x5F_header_copy_3">
	</g>
	<path fill="none" d="M0,0h24v24H0V0z"/>
</g>
<g id="Duotone">
	<g id="ui_x5F_spec_x5F_header_copy_2">
	</g>
	<g>
		<path fill-opacity="0.3" d="M15.5,14.5c0-2.8,2.2-5,5-5c0.36,0,0.71,0.04,1.05,0.11L23.64,7C23.19,6.66,18.71,3,12,3
			C5.28,3,0.81,6.66,0.36,7L12,21.5l3.5-4.36V14.5z"/>
		<path d="M15.5,14.5c0-1.34,0.51-2.53,1.34-3.42C15.62,10.51,13.98,10,12,10c-4.1,0-6.8,2.2-7.2,2.5l7.2,9l3.5-4.38V14.5z"/>
		<g>
			<path d="M23,16v-1.5c0-1.4-1.1-2.5-2.5-2.5S18,13.1,18,14.5V16c-0.5,0-1,0.5-1,1v4c0,0.5,0.5,1,1,1h5c0.5,0,1-0.5,1-1v-4
				C24,16.5,23.5,16,23,16z M22,16h-3v-1.5c0-0.8,0.7-1.5,1.5-1.5s1.5,0.7,1.5,1.5V16z"/>
		</g>
	</g>
</g>
</svg>
