<?xml version="1.0" encoding="utf-8"?>
<!-- Generator: Adobe Illustrator 19.1.0, SVG Export Plug-In . SVG Version: 6.00 Build 0)  -->
<svg version="1.1" xmlns="http://www.w3.org/2000/svg" xmlns:xlink="http://www.w3.org/1999/xlink" x="0px" y="0px" width="24px"
	 height="24px" viewBox="0 0 24 24" enable-background="new 0 0 24 24" xml:space="preserve">
<g id="Bounding_Boxes">
	<path fill="none" d="M0,0h24v24H0V0z"/>
</g>
<g id="Duotone">
	<g id="ui_x5F_spec_x5F_header_copy">
	</g>
	<g>
		<polygon points="9,11 12.63,11 9,15.2 9,17 15,17 15,15 11.37,15 15,10.8 15,9 9,9 		"/>
		<rect x="16" y="3.5" transform="matrix(0.7679 0.6406 -0.6406 0.7679 7.2922 -11.1262)" width="6" height="2"/>
		<rect x="4" y="1.5" transform="matrix(0.6406 0.7679 -0.7679 0.6406 5.2528 -2.2221)" width="2" height="6"/>
		<path d="M12,4c-4.97,0-9,4.03-9,9c0,4.97,4.03,9,9,9s9-4.03,9-9C21,8.03,16.97,4,12,4z M12,20c-3.86,0-7-3.14-7-7s3.14-7,7-7
			s7,3.14,7,7S15.86,20,12,20z"/>
	</g>
</g>
</svg>
