<?xml version="1.0" encoding="utf-8"?>
<!-- Generator: Adobe Illustrator 19.1.0, SVG Export Plug-In . SVG Version: 6.00 Build 0)  -->
<svg version="1.1" xmlns="http://www.w3.org/2000/svg" xmlns:xlink="http://www.w3.org/1999/xlink" x="0px" y="0px" width="24px"
	 height="24px" viewBox="0 0 24 24" enable-background="new 0 0 24 24" xml:space="preserve">
<g id="Bounding_Boxes">
	<path fill="none" d="M0,0h24v24H0V0z"/>
</g>
<g id="Duotone">
	<g id="ui_x5F_spec_x5F_header_copy">
	</g>
	<g>
		<polygon points="14.94,4.66 12.58,2.3 10.22,4.66 		"/>
		<path d="M10.39,17.73h1.84L7.74,6.27H6.1L1.6,17.73h1.84l0.92-2.45h5.11L10.39,17.73z M4.97,13.64l1.94-5.18l1.94,5.18H4.97z"/>
		<polygon points="12.58,21.7 14.91,19.37 10.25,19.37 		"/>
		<polygon points="21.66,7.54 21.66,6.28 13.36,6.28 13.36,7.88 19.24,7.88 13.32,16.44 13.32,17.73 21.85,17.73 21.85,16.14 
			15.73,16.14 		"/>
	</g>
</g>
</svg>
