<?xml version="1.0" encoding="utf-8"?>
<!-- Generator: Adobe Illustrator 19.1.0, SVG Export Plug-In . SVG Version: 6.00 Build 0)  -->
<svg version="1.1" xmlns="http://www.w3.org/2000/svg" xmlns:xlink="http://www.w3.org/1999/xlink" x="0px" y="0px" width="24px"
	 height="24px" viewBox="0 0 24 24" enable-background="new 0 0 24 24" xml:space="preserve">
<g id="Bounding_Boxes">
	<path fill="none" d="M0,0h24v24H0V0z"/>
</g>
<g id="Duotone">
	<g id="ui_x5F_spec_x5F_header_copy_2">
	</g>
	<g>
		<path d="M12.56,14.33C12.22,14.6,12,15.03,12,15.5V21h7c1.1,0,2-0.9,2-2v-5.98c-0.94-0.33-1.95-0.52-3-0.52
			C15.97,12.5,14.07,13.2,12.56,14.33z"/>
		<circle cx="18" cy="6" r="5"/>
		<path d="M11.5,6c0-1.08,0.27-2.1,0.74-3H5C3.9,3,3,3.9,3,5v14c0,0.55,0.23,1.05,0.59,1.41l9.82-9.82C12.23,9.42,11.5,7.8,11.5,6z"
			/>
	</g>
</g>
</svg>
