<?xml version="1.0" encoding="utf-8"?>
<!-- Generator: Adobe Illustrator 19.1.0, SVG Export Plug-In . SVG Version: 6.00 Build 0)  -->
<svg version="1.1" xmlns="http://www.w3.org/2000/svg" xmlns:xlink="http://www.w3.org/1999/xlink" x="0px" y="0px" width="24px"
	 height="24px" viewBox="0 0 24 24" enable-background="new 0 0 24 24" xml:space="preserve">
<g id="Bounding_Boxes">
	<g id="ui_x5F_spec_x5F_header_copy_3">
	</g>
	<path fill="none" d="M0,0h24v24H0V0z"/>
</g>
<g id="Duotone">
	<g id="ui_x5F_spec_x5F_header_copy_2">
	</g>
	<g>
		<path opacity="0.3" d="M12,4c-4.41,0-8,3.59-8,8c0,4.41,3.59,8,8,8c4.41,0,8-3.59,8-8C20,7.59,16.41,4,12,4z M6.5,9L10,5.5L13.5,9
			H11v4H9V9H6.5z M14,18.5L10.5,15H13v-4h2v4h2.5L14,18.5z"/>
		<path d="M12,2C6.48,2,2,6.48,2,12s4.48,10,10,10c5.52,0,10-4.48,10-10S17.52,2,12,2z M12,20c-4.41,0-8-3.59-8-8c0-4.41,3.59-8,8-8
			c4.41,0,8,3.59,8,8C20,16.41,16.41,20,12,20z"/>
		<polygon points="11,13 11,9 13.5,9 10,5.5 6.5,9 9,9 9,13 		"/>
		<polygon points="15,11 13,11 13,15 10.5,15 14,18.5 17.5,15 15,15 		"/>
	</g>
</g>
</svg>
