<?xml version="1.0" encoding="utf-8"?>
<!-- Generator: Adobe Illustrator 19.1.0, SVG Export Plug-In . SVG Version: 6.00 Build 0)  -->
<svg version="1.1" xmlns="http://www.w3.org/2000/svg" xmlns:xlink="http://www.w3.org/1999/xlink" x="0px" y="0px" width="24px"
	 height="24px" viewBox="0 0 24 24" enable-background="new 0 0 24 24" xml:space="preserve">
<g id="Bounding_Boxes">
	<g id="ui_x5F_spec_x5F_header_copy_2">
	</g>
	<path fill="none" d="M0.01,0h24v24h-24V0z"/>
</g>
<g id="Duotone">
	<g id="ui_x5F_spec_x5F_header_copy">
	</g>
	<path d="M12.01,4V1l-4,4l4,4V6c3.31,0,6,2.69,6,6c0,1.01-0.25,1.97-0.7,2.8l1.46,1.46c0.78-1.23,1.24-2.69,1.24-4.26
		C20.01,7.58,16.43,4,12.01,4z M12.01,18c-3.31,0-6-2.69-6-6c0-1.01,0.25-1.97,0.7-2.8L5.25,7.74C4.47,8.97,4.01,10.43,4.01,12
		c0,4.42,3.58,8,8,8v3l4-4l-4-4V18z"/>
</g>
</svg>
