<?xml version="1.0" encoding="utf-8"?>
<!-- Generator: Adobe Illustrator 19.1.0, SVG Export Plug-In . SVG Version: 6.00 Build 0)  -->
<svg version="1.1" xmlns="http://www.w3.org/2000/svg" xmlns:xlink="http://www.w3.org/1999/xlink" x="0px" y="0px" width="24px"
	 height="24px" viewBox="0 0 24 24" enable-background="new 0 0 24 24" xml:space="preserve">
<g id="Bounding_Boxes">
	<g id="ui_x5F_spec_x5F_header_copy_3">
	</g>
	<path fill="none" d="M0,0h24v24H0V0z M0,0h24v24H0V0z"/>
</g>
<g id="Duotone">
	<g id="ui_x5F_spec_x5F_header_copy_2">
	</g>
	<g>
		<rect x="4.75" y="3" opacity="0.3" width="14.5" height="16"/>
		<path d="M18,0H6C4.34,0,3,1.34,3,3v18c0,1.66,1.34,3,3,3h12c1.66,0,3-1.34,3-3V3C21,1.34,19.66,0,18,0z M14,22h-4v-1h4V22z
			 M19.25,19H4.75V3h14.5V19z"/>
	</g>
</g>
</svg>
