<?xml version="1.0" encoding="utf-8"?>
<!-- Generator: Adobe Illustrator 19.1.0, SVG Export Plug-In . SVG Version: 6.00 Build 0)  -->
<svg version="1.1" xmlns="http://www.w3.org/2000/svg" xmlns:xlink="http://www.w3.org/1999/xlink" x="0px" y="0px" width="24px"
	 height="24px" viewBox="0 0 24 24" enable-background="new 0 0 24 24" xml:space="preserve">
<g id="Bounding_Boxes">
	<g id="ui_x5F_spec_x5F_header_copy_3">
	</g>
	<path fill="none" d="M0,0h24v24H0V0z"/>
</g>
<g id="Duotone">
	<g id="ui_x5F_spec_x5F_header_copy_2">
	</g>
	<g>
		<rect x="4" y="3" opacity="0.3" width="15" height="16"/>
		<path d="M18.5,0h-14C3.12,0,2,1.12,2,2.5v19C2,22.88,3.12,24,4.5,24h14c1.38,0,2.5-1.12,2.5-2.5v-19C21,1.12,19.88,0,18.5,0z
			 M11.5,23c-0.83,0-1.5-0.67-1.5-1.5c0-0.83,0.67-1.5,1.5-1.5s1.5,0.67,1.5,1.5C13,22.33,12.33,23,11.5,23z M19,19H4V3h15V19z"/>
	</g>
</g>
</svg>
