<?xml version="1.0" encoding="utf-8"?>
<!-- Generator: Adobe Illustrator 19.1.0, SVG Export Plug-In . SVG Version: 6.00 Build 0)  -->
<svg version="1.1" xmlns="http://www.w3.org/2000/svg" xmlns:xlink="http://www.w3.org/1999/xlink" x="0px" y="0px" width="24px"
	 height="24px" viewBox="0 0 24 24" enable-background="new 0 0 24 24" xml:space="preserve">
<g id="Bounding_Boxes">
	<g id="ui_x5F_spec_x5F_header_copy_3">
	</g>
	<path fill="none" d="M0,0h24v24H0V0z"/>
</g>
<g id="Duotone">
	<g id="ui_x5F_spec_x5F_header_copy_2">
	</g>
	<g>
		<path d="M19,3h-1V1h-2v2H8V1H6v2H5C3.89,3,3.01,3.9,3.01,5L3,19c0,1.1,0.89,2,2,2h14c1.1,0,2-0.9,2-2V5C21,3.9,20.1,3,19,3z
			 M19,19L5,19V9h14V19z M19,7H5v0V5h14V7z"/>
		<polygon id="XMLID_72_" points="12,11 7,11 7,16 12,16 12,11 		"/>
		<rect x="5" y="5" opacity="0.3" width="14" height="2"/>
	</g>
</g>
</svg>
