<?xml version="1.0" encoding="utf-8"?>
<!-- Generator: Adobe Illustrator 19.1.0, SVG Export Plug-In . SVG Version: 6.00 Build 0)  -->
<svg version="1.1" xmlns="http://www.w3.org/2000/svg" xmlns:xlink="http://www.w3.org/1999/xlink" x="0px" y="0px" width="24px"
	 height="24px" viewBox="0 0 24 24" enable-background="new 0 0 24 24" xml:space="preserve">
<g id="Bounding_Boxes">
	<path fill="none" d="M0,0h24v24H0V0z"/>
</g>
<g id="Duotone">
	<g id="ui_x5F_spec_x5F_header_copy_2">
	</g>
	<g>
		<path opacity="0.3" d="M9,19h6V5H9V19z M12,6c0.83,0,1.5,0.67,1.5,1.5C13.5,8.33,12.83,9,12,9s-1.5-0.67-1.5-1.5
			C10.5,6.67,11.17,6,12,6z M12,10.5c0.83,0,1.5,0.67,1.5,1.5s-0.67,1.5-1.5,1.5s-1.5-0.67-1.5-1.5S11.17,10.5,12,10.5z M12,15
			c0.83,0,1.5,0.67,1.5,1.5S12.83,18,12,18s-1.5-0.67-1.5-1.5S11.17,15,12,15z"/>
		<path d="M20,5h-3V4c0-0.55-0.45-1-1-1H8C7.45,3,7,3.45,7,4v1H4c0,1.86,1.28,3.41,3,3.86V10H4c0,1.86,1.28,3.41,3,3.86V15H4
			c0,1.86,1.28,3.41,3,3.86V20c0,0.55,0.45,1,1,1h8c0.55,0,1-0.45,1-1v-1.14c1.72-0.45,3-2,3-3.86h-3v-1.14c1.72-0.45,3-2,3-3.86h-3
			V8.86C18.72,8.41,20,6.86,20,5z M15,19H9V5h6V19z"/>
		<path d="M12,18c0.83,0,1.5-0.67,1.5-1.5S12.83,15,12,15c-0.83,0-1.5,0.67-1.5,1.5S11.17,18,12,18z"/>
		<path d="M12,13.5c0.83,0,1.5-0.67,1.5-1.5s-0.67-1.5-1.5-1.5c-0.83,0-1.5,0.67-1.5,1.5S11.17,13.5,12,13.5z"/>
		<path d="M12,9c0.83,0,1.5-0.67,1.5-1.5C13.5,6.67,12.83,6,12,6c-0.83,0-1.5,0.67-1.5,1.5C10.5,8.33,11.17,9,12,9z"/>
	</g>
</g>
</svg>
