<?xml version="1.0" encoding="utf-8"?>
<!-- Generator: Adobe Illustrator 19.1.0, SVG Export Plug-In . SVG Version: 6.00 Build 0)  -->
<svg version="1.1" xmlns="http://www.w3.org/2000/svg" xmlns:xlink="http://www.w3.org/1999/xlink" x="0px" y="0px" width="24px"
	 height="24px" viewBox="0 0 24 24" enable-background="new 0 0 24 24" xml:space="preserve">
<g id="Bounding_Boxes">
	<g id="ui_x5F_spec_x5F_header_copy_2">
	</g>
	<path fill="none" d="M0,0h24v24H0V0z"/>
</g>
<g id="Duotone">
	<g id="ui_x5F_spec_x5F_header_copy_3">
	</g>
	<g>
		<rect x="3" y="5" width="10" height="2"/>
		<polygon points="7,11 3,11 3,13 7,13 7,15 9,15 9,9 7,9 		"/>
		<polygon points="13,15 11,15 11,21 13,21 13,19 21,19 21,17 13,17 		"/>
		<rect x="3" y="17" width="6" height="2"/>
		<rect x="11" y="11" width="10" height="2"/>
		<polygon points="17,3 15,3 15,9 17,9 17,7 21,7 21,5 17,5 		"/>
	</g>
</g>
</svg>
