<?xml version="1.0" encoding="utf-8"?>
<!-- Generator: Adobe Illustrator 19.1.0, SVG Export Plug-In . SVG Version: 6.00 Build 0)  -->
<svg version="1.1" xmlns="http://www.w3.org/2000/svg" xmlns:xlink="http://www.w3.org/1999/xlink" x="0px" y="0px" width="24px"
	 height="24px" viewBox="0 0 24 24" enable-background="new 0 0 24 24" xml:space="preserve">
<g id="Bounding_Boxes">
	<g id="ui_x5F_spec_x5F_header_copy_3">
	</g>
	<path fill="none" d="M0,0h24v24H0V0z"/>
</g>
<g id="Duotone">
	<g id="ui_x5F_spec_x5F_header_copy_2">
	</g>
	<path d="M15,7v4h1v2h-3V5h2l-3-4L9,5h2v8H8v-2.07C8.7,10.56,9.2,9.85,9.2,9c0-1.21-0.99-2.2-2.2-2.2S4.8,7.79,4.8,9
		c0,0.85,0.5,1.56,1.2,1.93V13c0,1.11,0.89,2,2,2h3v3.05c-0.71,0.37-1.2,1.1-1.2,1.95c0,1.22,0.99,2.2,2.2,2.2s2.2-0.98,2.2-2.2
		c0-0.85-0.49-1.58-1.2-1.95V15h3c1.11,0,2-0.89,2-2v-2h1V7H15z"/>
</g>
</svg>
