<?xml version="1.0" encoding="utf-8"?>
<!-- Generator: Adobe Illustrator 19.1.0, SVG Export Plug-In . SVG Version: 6.00 Build 0)  -->
<svg version="1.1" xmlns="http://www.w3.org/2000/svg" xmlns:xlink="http://www.w3.org/1999/xlink" x="0px" y="0px" width="24px"
	 height="24px" viewBox="0 0 24 24" enable-background="new 0 0 24 24" xml:space="preserve">
<g id="Bounding_Boxes">
	<g id="ui_x5F_spec_x5F_header_copy_2">
	</g>
	<path fill="none" d="M0,0h24v24H0V0z"/>
</g>
<g id="Duotone">
	<g id="ui_x5F_spec_x5F_header_copy">
	</g>
	<g>
		<rect x="8" y="5" opacity="0.3" width="8" height="14"/>
		<g>
			<rect x="19" y="7" width="2" height="10"/>
			<rect x="22" y="9" width="2" height="6"/>
			<rect y="9" width="2" height="6"/>
			<path d="M16.5,3h-9C6.67,3,6,3.67,6,4.5v15C6,20.33,6.67,21,7.5,21h9c0.83,0,1.5-0.67,1.5-1.5v-15C18,3.67,17.33,3,16.5,3z
				 M16,19H8V5h8V19z"/>
			<rect x="3" y="7" width="2" height="10"/>
		</g>
	</g>
</g>
</svg>
