<?xml version="1.0" encoding="utf-8"?>
<!-- Generator: Adobe Illustrator 19.1.0, SVG Export Plug-In . SVG Version: 6.00 Build 0)  -->
<svg version="1.1" xmlns="http://www.w3.org/2000/svg" xmlns:xlink="http://www.w3.org/1999/xlink" x="0px" y="0px" width="24px"
	 height="24px" viewBox="0 0 24 24" enable-background="new 0 0 24 24" xml:space="preserve">
<g id="Bounding_Boxes">
	<g id="ui_x5F_spec_x5F_header_copy_3">
	</g>
	<path opacity="0.87" fill="none" d="M0,0h24v24H0V0z"/>
</g>
<g id="Duotone">
	<g id="ui_x5F_spec_x5F_header_copy_2">
	</g>
	<g>
		<rect x="5" y="11" opacity="0.3" width="2" height="2"/>
		<rect x="5" y="15" opacity="0.3" width="2" height="2"/>
		<rect x="5" y="7" opacity="0.3" width="2" height="2"/>
		<rect x="9" y="7" opacity="0.3" width="9" height="2"/>
		<rect x="9" y="15" opacity="0.3" width="9" height="2"/>
		<rect x="9" y="11" opacity="0.3" width="9" height="2"/>
		<path d="M3,5v14h17V5H3z M7,17H5v-2h2V17z M7,13H5v-2h2V13z M7,9H5V7h2V9z M18,17H9v-2h9V17z M18,13H9v-2h9V13z M18,9H9V7h9V9z"/>
	</g>
</g>
</svg>
