<?xml version="1.0" encoding="utf-8"?>
<!-- Generator: Adobe Illustrator 19.1.0, SVG Export Plug-In . SVG Version: 6.00 Build 0)  -->
<svg version="1.1" xmlns="http://www.w3.org/2000/svg" xmlns:xlink="http://www.w3.org/1999/xlink" x="0px" y="0px" width="24px"
	 height="24px" viewBox="0 0 24 24" enable-background="new 0 0 24 24" xml:space="preserve">
<g id="Bounding_Boxes">
	<g id="ui_x5F_spec_x5F_header_copy_3">
	</g>
	<path fill="none" d="M0,0h24v24H0V0z"/>
</g>
<g id="Duotone">
	<g id="ui_x5F_spec_x5F_header_copy_2">
	</g>
	<g>
		<g opacity="0.3">
			<rect x="11" y="12.5" width="3" height="3.5"/>
			<rect x="11" y="7" width="3" height="3.5"/>
			<rect x="6" y="12.5" width="3" height="3.5"/>
			<rect x="6" y="7" width="3" height="3.5"/>
			<rect x="16" y="7" width="3" height="3.5"/>
			<rect x="16" y="12.5" width="3" height="3.5"/>
		</g>
		<path d="M4,5v13h17V5H4z M9,16H6v-3.5h3V16z M9,10.5H6V7h3V10.5z M14,16h-3v-3.5h3V16z M14,10.5h-3V7h3V10.5z M19,16h-3v-3.5h3V16
			z M19,10.5h-3V7h3V10.5z"/>
	</g>
</g>
</svg>
