<?xml version="1.0" encoding="utf-8"?>
<!-- Generator: Adobe Illustrator 19.1.0, SVG Export Plug-In . SVG Version: 6.00 Build 0)  -->
<svg version="1.1" xmlns="http://www.w3.org/2000/svg" xmlns:xlink="http://www.w3.org/1999/xlink" x="0px" y="0px" width="24px"
	 height="24px" viewBox="0 0 24 24" enable-background="new 0 0 24 24" xml:space="preserve">
<g id="Bounding_Boxes">
	<g id="ui_x5F_spec_x5F_header_copy_3">
	</g>
	<path fill="none" d="M0,0h24v24H0V0z"/>
</g>
<g id="Duotone">
	<g id="ui_x5F_spec_x5F_header_copy_2">
	</g>
	<g>
		<path d="M21,4H3C2.45,4,2,4.45,2,5v14c0,0.55,0.45,1,1,1h18c0.55,0,1-0.45,1-1V5C22,4.45,21.55,4,21,4z M8,18H4V6h4V18z M14,18h-4
			V6h4V18z M20,18h-4V6h4V18z"/>
		<g>
			<rect x="10" y="6" opacity="0.3" width="4" height="12"/>
			<rect x="16" y="6" opacity="0.3" width="4" height="12"/>
			<rect x="4" y="6" opacity="0.3" width="4" height="12"/>
		</g>
	</g>
</g>
</svg>
