<?xml version="1.0" encoding="utf-8"?>
<!-- Generator: Adobe Illustrator 19.1.0, SVG Export Plug-In . SVG Version: 6.00 Build 0)  -->
<svg version="1.1" xmlns="http://www.w3.org/2000/svg" xmlns:xlink="http://www.w3.org/1999/xlink" x="0px" y="0px" width="24px"
	 height="24px" viewBox="0 0 24 24" enable-background="new 0 0 24 24" xml:space="preserve">
<g id="Bounding_Boxes">
	<g id="ui_x5F_spec_x5F_header_copy_2">
	</g>
	<path fill="none" d="M0,0h24v24H0V0z"/>
</g>
<g id="Duotone">
	<g id="ui_x5F_spec_x5F_header_copy_3">
	</g>
	<path d="M18.5,6C15.46,6,13,8.46,13,11.5c0,1.33,0.47,2.55,1.26,3.5H9.74c0.79-0.95,1.26-2.17,1.26-3.5C11,8.46,8.54,6,5.5,6
		S0,8.46,0,11.5C0,14.54,2.46,17,5.5,17h13c3.04,0,5.5-2.46,5.5-5.5C24,8.46,21.54,6,18.5,6z M5.5,15C3.57,15,2,13.43,2,11.5
		S3.57,8,5.5,8S9,9.57,9,11.5S7.43,15,5.5,15z M18.5,15c-1.93,0-3.5-1.57-3.5-3.5S16.57,8,18.5,8S22,9.57,22,11.5S20.43,15,18.5,15z
		"/>
</g>
</svg>
