<?xml version="1.0" encoding="utf-8"?>
<!-- Generator: Adobe Illustrator 19.1.0, SVG Export Plug-In . SVG Version: 6.00 Build 0)  -->
<svg version="1.1" xmlns="http://www.w3.org/2000/svg" xmlns:xlink="http://www.w3.org/1999/xlink" x="0px" y="0px" width="24px"
	 height="24px" viewBox="0 0 24 24" enable-background="new 0 0 24 24" xml:space="preserve">
<g id="Bounding_Boxes">
	<path fill="none" d="M0,0h24v24H0V0z"/>
</g>
<g id="Duotone">
	<g id="ui_x5F_spec_x5F_header_copy">
	</g>
	<g>
		<polygon opacity="0.3" points="5,13 7.83,13 10,15.17 10,8.83 7.83,11 5,11 		"/>
		<path d="M3,9v6h4l5,5V4L7,9H3z M10,8.83v6.34L7.83,13H5v-2h2.83L10,8.83z"/>
		<path d="M14,7.97v8.05c1.48-0.73,2.5-2.25,2.5-4.02C16.5,10.23,15.48,8.71,14,7.97z"/>
		<path d="M14,3.23v2.06c2.89,0.86,5,3.54,5,6.71c0,3.17-2.11,5.85-5,6.71v2.06c4.01-0.91,7-4.49,7-8.77C21,7.72,18.01,4.14,14,3.23
			z"/>
	</g>
</g>
</svg>
