<?xml version="1.0" encoding="utf-8"?>
<!-- Generator: Adobe Illustrator 19.1.0, SVG Export Plug-In . SVG Version: 6.00 Build 0)  -->
<svg version="1.1" xmlns="http://www.w3.org/2000/svg" xmlns:xlink="http://www.w3.org/1999/xlink" x="0px" y="0px" width="24px"
	 height="24px" viewBox="0 0 24 24" enable-background="new 0 0 24 24" xml:space="preserve">
<g id="Bounding_Boxes">
	<g id="ui_x5F_spec_x5F_header_copy_3" display="none">
	</g>
	<path fill="none" d="M0,0h24v24H0V0z"/>
</g>
<g id="Duotone">
	<g id="ui_x5F_spec_x5F_header_copy_2" display="none">
	</g>
	<g>
		<path opacity="0.3" d="M21,11c-0.55,0-1,0.45-1,1v4H4v-4c0-0.55-0.45-1-1-1s-1,0.45-1,1v5c0,0.55,0.45,1,1,1h18c0.55,0,1-0.45,1-1
			v-5C22,11.45,21.55,11,21,11z"/>
		<path opacity="0.3" d="M6,14h12v-2c0-0.88,0.39-1.67,1-2.22V7c0-0.55-0.45-1-1-1H6C5.45,6,5,6.45,5,7v2.78
			c0.61,0.55,1,1.34,1,2.22V14z"/>
		<path d="M21,9V7c0-1.65-1.35-3-3-3H6C4.35,4,3,5.35,3,7v2c-1.65,0-3,1.35-3,3v5c0,1.65,1.35,3,3,3h18c1.65,0,3-1.35,3-3v-5
			C24,10.35,22.65,9,21,9z M5,7c0-0.55,0.45-1,1-1h12c0.55,0,1,0.45,1,1v2.78c-0.61,0.55-1,1.34-1,2.22v2H6v-2
			c0-0.88-0.39-1.67-1-2.22V7z M22,17c0,0.55-0.45,1-1,1H3c-0.55,0-1-0.45-1-1v-5c0-0.55,0.45-1,1-1s1,0.45,1,1v4h16v-4
			c0-0.55,0.45-1,1-1s1,0.45,1,1V17z"/>
	</g>
</g>
</svg>
