<?xml version="1.0" encoding="utf-8"?>
<!-- Generator: Adobe Illustrator 19.1.0, SVG Export Plug-In . SVG Version: 6.00 Build 0)  -->
<svg version="1.1" xmlns="http://www.w3.org/2000/svg" xmlns:xlink="http://www.w3.org/1999/xlink" x="0px" y="0px" width="24px"
	 height="24px" viewBox="0 0 24 24" enable-background="new 0 0 24 24" xml:space="preserve">
<g id="Bounding_Boxes">
	<g id="ui_x5F_spec_x5F_header_copy_3">
	</g>
	<path fill="none" d="M0,0h24v24H0V0z"/>
</g>
<g id="Duotone">
	<g id="ui_x5F_spec_x5F_header_copy_2">
	</g>
	<g>
		<rect x="5" y="5" opacity="0.3" width="4" height="4"/>
		<rect x="15" y="15" opacity="0.3" width="4" height="4"/>
		<rect x="5" y="15" opacity="0.3" width="4" height="4"/>
		<polygon opacity="0.3" points="16.66,4.52 13.83,7.34 16.66,10.17 19.49,7.34 		"/>
		<path d="M16.66,1.69L11,7.34L16.66,13l5.66-5.66L16.66,1.69z M13.83,7.34l2.83-2.83l2.83,2.83l-2.83,2.83L13.83,7.34z"/>
		<path d="M3,3v8h8V7.34V3H3z M9,9H5V5h4V9z"/>
		<path d="M3,21h8v-8H3V21z M5,15h4v4H5V15z"/>
		<path d="M13,13v8h8v-8h-4.34H13z M19,19h-4v-4h4V19z"/>
	</g>
</g>
</svg>
