<?xml version="1.0" encoding="utf-8"?>
<!-- Generator: Adobe Illustrator 19.1.0, SVG Export Plug-In . SVG Version: 6.00 Build 0)  -->
<svg version="1.1" xmlns="http://www.w3.org/2000/svg" xmlns:xlink="http://www.w3.org/1999/xlink" x="0px" y="0px" width="24px"
	 height="24px" viewBox="0 0 24 24" enable-background="new 0 0 24 24" xml:space="preserve">
<g id="Bounding_Boxes">
	<g id="ui_x5F_spec_x5F_header_copy_3">
	</g>
	<path fill="none" d="M0,0h24v24H0V0z"/>
</g>
<g id="Duotone">
	<g id="ui_x5F_spec_x5F_header_copy_2">
	</g>
	<g>
		<polygon opacity="0.3" points="4,8 4,19 17.74,19 6.74,8 		"/>
		<polygon opacity="0.3" points="12.4,8 20,15.6 20,8 		"/>
		<path d="M10,4h4v2h-3.6l2,2H20v7.6l2,2V8c0-1.11-0.89-2-2-2h-4V4c0-1.11-0.89-2-2-2h-4C9.01,2,8.2,2.7,8.04,3.64L10,5.6V4z"/>
		<path d="M3.4,1.84L1.99,3.25L4.74,6H4C2.89,6,2.01,6.89,2.01,8L2,19c0,1.11,0.89,2,2,2h15.74l2,2l1.41-1.41L3.4,1.84z M4,19V8
			h2.74l11,11L4,19z"/>
	</g>
</g>
</svg>
