<?xml version="1.0" encoding="utf-8"?>
<!-- Generator: Adobe Illustrator 19.1.0, SVG Export Plug-In . SVG Version: 6.00 Build 0)  -->
<svg version="1.1" xmlns="http://www.w3.org/2000/svg" xmlns:xlink="http://www.w3.org/1999/xlink" x="0px" y="0px" width="24px"
	 height="24px" viewBox="0 0 24 24" enable-background="new 0 0 24 24" xml:space="preserve">
<g id="Bounding_Boxes">
	<path fill="none" d="M0,0h24v24H0V0z"/>
</g>
<g id="Duotone">
	<g id="ui_x5F_spec_x5F_header_copy_2">
	</g>
	<g>
		<polygon points="17.3,5.3 14.41,8.17 15.83,9.59 18.7,6.7 21,9 21,3 15,3 		"/>
		<polygon points="9,3 3,3 3,9 5.3,6.7 8.17,9.59 9.59,8.17 6.7,5.3 		"/>
		<polygon points="8.17,14.41 5.3,17.3 3,15 3,21 9,21 6.7,18.7 9.59,15.83 		"/>
		<polygon points="15.83,14.41 14.41,15.83 17.3,18.7 15,21 21,21 21,15 18.7,17.3 		"/>
	</g>
</g>
</svg>
