<?xml version="1.0" encoding="utf-8"?>
<!-- Generator: Adobe Illustrator 19.1.0, SVG Export Plug-In . SVG Version: 6.00 Build 0)  -->
<svg version="1.1" xmlns="http://www.w3.org/2000/svg" xmlns:xlink="http://www.w3.org/1999/xlink" x="0px" y="0px" width="24px"
	 height="24px" viewBox="0 0 24 24" enable-background="new 0 0 24 24" xml:space="preserve">
<g id="Bounding_Boxes">
	<path fill="none" d="M0,0h24v24H0V0z"/>
</g>
<g id="Sharp">
	<path d="M12,7C6.48,7,2,9.24,2,12c0,2.24,2.94,4.13,7,4.77V20l4-4l-4-4v2.73c-3.15-0.56-5-1.9-5-2.73c0-1.06,3.04-3,8-3s8,1.94,8,3
		c0,0.73-1.46,1.89-4,2.53v2.05c3.53-0.77,6-2.53,6-4.58C22,9.24,17.52,7,12,7z"/>
</g>
</svg>
