<?xml version="1.0" encoding="utf-8"?>
<!-- Generator: Adobe Illustrator 19.1.0, SVG Export Plug-In . SVG Version: 6.00 Build 0)  -->
<svg version="1.1" xmlns="http://www.w3.org/2000/svg" xmlns:xlink="http://www.w3.org/1999/xlink" x="0px" y="0px" width="24px"
	 height="24px" viewBox="0 0 24 24" enable-background="new 0 0 24 24" xml:space="preserve">
<g id="Bounding_Boxes">
	<path fill="none" d="M0,0h24v24H0V0z"/>
</g>
<g id="Sharp">
	<path d="M22,11h-4.17l3.24-3.24l-1.41-1.42L15,11h-2V9l4.66-4.66l-1.42-1.41L13,6.17V2h-2v4.17L7.76,2.93L6.34,4.34L11,9v2H9
		L4.34,6.34L2.93,7.76L6.17,11H2v2h4.17l-3.24,3.24l1.41,1.42L9,13h2v2l-4.66,4.66l1.42,1.41L11,17.83V22h2v-4.17l3.24,3.24
		l1.42-1.41L13,15v-2h2l4.66,4.66l1.41-1.42L17.83,13H22V11z"/>
</g>
</svg>
