<?xml version="1.0" encoding="utf-8"?>
<!-- Generator: Adobe Illustrator 19.1.0, SVG Export Plug-In . SVG Version: 6.00 Build 0)  -->
<svg version="1.1" xmlns="http://www.w3.org/2000/svg" xmlns:xlink="http://www.w3.org/1999/xlink" x="0px" y="0px" width="24px"
	 height="24px" viewBox="0 0 24 24" enable-background="new 0 0 24 24" xml:space="preserve">
<g id="Bounding_Boxes">
	<g id="ui_x5F_spec_x5F_header_copy_3">
	</g>
	<rect fill="none" width="24" height="24"/>
</g>
<g id="Sharp">
	<g id="ui_x5F_spec_x5F_header_copy_2">
	</g>
	<path d="M3,4V1h2v3h3v2H5v3H3V6H0V4H3z M6,10V7h3V4h7l1.83,2H23v16H3V10H6z M13,19c2.76,0,5-2.24,5-5s-2.24-5-5-5s-5,2.24-5,5
		S10.24,19,13,19z M10,14c0,1.66,1.34,3,3,3s3-1.34,3-3s-1.34-3-3-3S10,12.34,10,14z"/>
</g>
</svg>
