<?xml version="1.0" encoding="utf-8"?>
<!-- Generator: Adobe Illustrator 19.1.0, SVG Export Plug-In . SVG Version: 6.00 Build 0)  -->
<svg version="1.1" xmlns="http://www.w3.org/2000/svg" xmlns:xlink="http://www.w3.org/1999/xlink" x="0px" y="0px" width="24px"
	 height="24px" viewBox="0 0 24 24" enable-background="new 0 0 24 24" xml:space="preserve">
<g id="Bounding_Boxes" display="none">
	<g id="ui_x5F_spec_x5F_header_copy_3" display="inline">
	</g>
	<path display="inline" fill="none" d="M0,0h24v24H0V0z"/>
</g>
<g id="Sharp">
	<g id="ui_x5F_spec_x5F_header_copy_4">
	</g>
	<g>
		<path d="M12,23c1.1,0,1.99-0.89,1.99-1.99h-3.98C10.01,22.11,10.9,23,12,23z"/>
		<g>
			<path d="M19,17v-6c0-3.35-2.36-6.15-5.5-6.83V1.5h-3v2.67C7.36,4.85,5,7.65,5,11v6l-2,2v1h18v-1L19,17z M16,13.01h-3v3h-2v-3H8
				V11h3V8h2v3h3V13.01z"/>
		</g>
	</g>
</g>
</svg>
