<?xml version="1.0" encoding="utf-8"?>
<!-- Generator: Adobe Illustrator 19.1.0, SVG Export Plug-In . SVG Version: 6.00 Build 0)  -->
<svg version="1.1" xmlns="http://www.w3.org/2000/svg" xmlns:xlink="http://www.w3.org/1999/xlink" x="0px" y="0px" width="24px"
	 height="24px" viewBox="0 0 24 24" enable-background="new 0 0 24 24" xml:space="preserve">
<g id="Bounding_Boxes">
	<g id="ui_x5F_spec_x5F_header_copy_2">
	</g>
	<path fill="none" d="M0,0h24v24H0V0z"/>
</g>
<g id="Sharp">
	<path d="M21.56,16.18L9.2,11.71l2.08-5.66l12.35,4.47L21.56,16.18z M1.5,12.14L8,14.48V19h8v-1.63L20.52,19l0.69-1.89L2.19,10.25
		L1.5,12.14z M7.3,10.2c1.49-0.72,2.12-2.51,1.41-4C7.99,4.71,6.2,4.08,4.7,4.8c-1.49,0.71-2.12,2.5-1.4,4
		C4.01,10.29,5.8,10.92,7.3,10.2z"/>
</g>
</svg>
