<?xml version="1.0" encoding="utf-8"?>
<!-- Generator: Adobe Illustrator 19.1.0, SVG Export Plug-In . SVG Version: 6.00 Build 0)  -->
<svg version="1.1" xmlns="http://www.w3.org/2000/svg" xmlns:xlink="http://www.w3.org/1999/xlink" x="0px" y="0px" width="24px"
	 height="24px" viewBox="0 0 24 24" enable-background="new 0 0 24 24" xml:space="preserve">
<g id="Bounding_Boxes">
	<g id="ui_x5F_spec_x5F_header_copy_3">
	</g>
	<path fill="none" d="M0,0h24v24H0V0z"/>
</g>
<g id="Sharp">
	<g id="ui_x5F_spec_x5F_header_copy_4">
	</g>
	<g>
		<path d="M21,16v-2l-8-5V3.5C13,2.67,12.33,2,11.5,2S10,2.67,10,3.5v3.11l8.65,8.65L21,16z"/>
		<polygon points="18.73,21 20.14,19.59 4.41,3.86 3,5.27 7.99,10.26 2,14 2,16 10,13.5 10,19 8,20.5 8,22 11.5,21 15,22 15,20.5 
			13,19 13,15.27 		"/>
	</g>
</g>
</svg>
