<?xml version="1.0" encoding="utf-8"?>
<!-- Generator: Adobe Illustrator 19.1.0, SVG Export Plug-In . SVG Version: 6.00 Build 0)  -->
<svg version="1.1" xmlns="http://www.w3.org/2000/svg" xmlns:xlink="http://www.w3.org/1999/xlink" x="0px" y="0px" width="24px"
	 height="24px" viewBox="0 0 24 24" enable-background="new 0 0 24 24" xml:space="preserve">
<g id="Bounding_Boxes">
	<g id="ui_x5F_spec_x5F_header_copy_2">
	</g>
	<path fill="none" d="M0,0h24v24H0V0z"/>
</g>
<g id="Sharp">
	<g id="ui_x5F_spec_x5F_header_copy_4">
	</g>
	<path fill-opacity="0.9" d="M12,2C6.48,2,2,6.48,2,12s4.48,10,10,10h5v-2h-5c-4.34,0-8-3.66-8-8s3.66-8,8-8s8,3.66,8,8v1.43
		c0,0.79-0.71,1.57-1.5,1.57S17,14.22,17,13.43V12c0-2.76-2.24-5-5-5s-5,2.24-5,5s2.24,5,5,5c1.38,0,2.64-0.56,3.54-1.47
		C16.19,16.42,17.31,17,18.5,17c1.97,0,3.5-1.6,3.5-3.57V12C22,6.48,17.52,2,12,2z M12,15c-1.66,0-3-1.34-3-3s1.34-3,3-3s3,1.34,3,3
		S13.66,15,12,15z"/>
</g>
</svg>
