<?xml version="1.0" encoding="utf-8"?>
<!-- Generator: Adobe Illustrator 19.1.0, SVG Export Plug-In . SVG Version: 6.00 Build 0)  -->
<svg version="1.1" xmlns="http://www.w3.org/2000/svg" xmlns:xlink="http://www.w3.org/1999/xlink" x="0px" y="0px" width="24px"
	 height="24px" viewBox="0 0 24 24" enable-background="new 0 0 24 24" xml:space="preserve">
<g id="Bounding_Boxes">
	<path fill="none" d="M0,0h24v24H0V0z"/>
</g>
<g id="Sharp">
	<path d="M18.5,16H7c-2.21,0-4-1.79-4-4s1.79-4,4-4h12.5c1.38,0,2.5,1.12,2.5,2.5S20.88,13,19.5,13H9c-0.55,0-1-0.45-1-1s0.45-1,1-1
		h9.5V9.5H9c-1.38,0-2.5,1.12-2.5,2.5s1.12,2.5,2.5,2.5h10.5c2.21,0,4-1.79,4-4s-1.79-4-4-4H7c-3.04,0-5.5,2.46-5.5,5.5
		s2.46,5.5,5.5,5.5h11.5V16z"/>
</g>
</svg>
