<?xml version="1.0" encoding="utf-8"?>
<!-- Generator: Adobe Illustrator 19.1.0, SVG Export Plug-In . SVG Version: 6.00 Build 0)  -->
<svg version="1.1" xmlns="http://www.w3.org/2000/svg" xmlns:xlink="http://www.w3.org/1999/xlink" x="0px" y="0px" width="24px"
	 height="24px" viewBox="0 0 24 24" enable-background="new 0 0 24 24" xml:space="preserve">
<g id="Bounding_Boxes">
	<path fill="none" d="M0,0h24v24H0V0z"/>
</g>
<g id="Sharp">
	<g>
		<path d="M5.95,5.98c-3.94,3.95-3.93,10.35,0.02,14.3l2.86-2.86C5.7,14.29,4.65,9.91,5.95,5.98z"/>
		<path d="M17.42,8.83l2.86-2.86C16.33,2.02,9.93,2.01,5.98,5.95C9.91,4.65,14.29,5.7,17.42,8.83z"/>
		<path d="M5.97,5.96L5.96,5.97c-0.38,3.01,1.17,6.88,4.3,10.02l5.73-5.73C12.86,7.13,8.98,5.58,5.97,5.96z"/>
		<rect x="16.05" y="12.51" transform="matrix(0.7071 -0.7071 0.7071 0.7071 -7.069 17.0639)" width="2.02" height="9.11"/>
	</g>
</g>
</svg>
