<?xml version="1.0" encoding="utf-8"?>
<!-- Generator: Adobe Illustrator 19.1.0, SVG Export Plug-In . SVG Version: 6.00 Build 0)  -->
<svg version="1.1" xmlns="http://www.w3.org/2000/svg" xmlns:xlink="http://www.w3.org/1999/xlink" x="0px" y="0px" width="24px"
	 height="24px" viewBox="0 0 24 24" enable-background="new 0 0 24 24" xml:space="preserve">
<g id="Bounding_Boxes" display="none">
	<g id="ui_x5F_spec_x5F_header_copy_3" display="inline">
	</g>
	<path display="inline" fill="none" d="M0,0h24v24H0V0z"/>
</g>
<g id="Sharp">
	<g id="ui_x5F_spec_x5F_header_copy_4">
	</g>
	<path d="M9,11H7v2h2V11z M13,15h-2v2h2V15z M9,3H7v2h2V3z M13,11h-2v2h2V11z M5,3H3v2h2V3z M13,7h-2v2h2V7z M17,11h-2v2h2V11z
		 M13,3h-2v2h2V3z M17,3h-2v2h2V3z M19,13h2v-2h-2V13z M19,17h2v-2h-2V17z M5,7H3v2h2V7z M19,3v2h2V3H19z M19,9h2V7h-2V9z M5,11H3v2
		h2V11z M3,21h18v-2H3V21z M5,15H3v2h2V15z"/>
</g>
</svg>
