<?xml version="1.0" encoding="utf-8"?>
<!-- Generator: Adobe Illustrator 19.1.0, SVG Export Plug-In . SVG Version: 6.00 Build 0)  -->
<svg version="1.1" xmlns="http://www.w3.org/2000/svg" xmlns:xlink="http://www.w3.org/1999/xlink" x="0px" y="0px" width="24px"
	 height="24px" viewBox="0 0 24 24" enable-background="new 0 0 24 24" xml:space="preserve">
<g id="Bounding_Boxes">
	<path fill="none" d="M0,0h24v24H0V0z"/>
</g>
<g id="Sharp">
	<path d="M13,2v8h8C21,5.58,17.42,2,13,2z M19.32,15.89C20.37,14.54,21,12.84,21,11H6.44L5.49,9H2v2h2.22c0,0,1.89,4.07,2.12,4.42
		c-1.1,0.59-1.84,1.75-1.84,3.08C4.5,20.43,6.07,22,8,22c1.76,0,3.22-1.3,3.46-3h2.08c0.24,1.7,1.7,3,3.46,3
		c1.93,0,3.5-1.57,3.5-3.5C20.5,17.46,20.04,16.53,19.32,15.89z M8,20c-0.83,0-1.5-0.67-1.5-1.5S7.17,17,8,17s1.5,0.67,1.5,1.5
		S8.83,20,8,20z M17,20c-0.83,0-1.5-0.67-1.5-1.5S16.17,17,17,17s1.5,0.67,1.5,1.5S17.83,20,17,20z"/>
</g>
</svg>
