<?xml version="1.0" encoding="utf-8"?>
<!-- Generator: Adobe Illustrator 19.1.0, SVG Export Plug-In . SVG Version: 6.00 Build 0)  -->
<svg version="1.1" xmlns="http://www.w3.org/2000/svg" xmlns:xlink="http://www.w3.org/1999/xlink" x="0px" y="0px" width="24px"
	 height="24px" viewBox="0 0 24 24" enable-background="new 0 0 24 24" xml:space="preserve">
<g id="Bounding_Boxes">
	<path fill="none" d="M0,0h24v24H0V0z"/>
</g>
<g id="Sharp">
	<g>
		<path d="M24,15c0-2.64-2.05-4.78-4.65-4.96C18.67,6.59,15.64,4,12,4c-1.33,0-2.57,0.36-3.65,0.97l1.49,1.49
			C10.51,6.17,11.23,6,12,6c3.04,0,5.5,2.46,5.5,5.5V12H19c1.66,0,3,1.34,3,3c0,0.99-0.48,1.85-1.21,2.4l1.41,1.41
			C23.29,17.89,24,16.54,24,15z"/>
		<path d="M4.41,3.86L3,5.27l2.77,2.77H5.35C2.34,8.36,0,10.91,0,14c0,3.31,2.69,6,6,6h11.73l2,2l1.41-1.41L4.41,3.86z M6,18
			c-2.21,0-4-1.79-4-4c0-2.21,1.79-4,4-4h1.73l8,8H6z"/>
	</g>
</g>
</svg>
