<?xml version="1.0" encoding="utf-8"?>
<!-- Generator: Adobe Illustrator 19.1.0, SVG Export Plug-In . SVG Version: 6.00 Build 0)  -->
<svg version="1.1" xmlns="http://www.w3.org/2000/svg" xmlns:xlink="http://www.w3.org/1999/xlink" x="0px" y="0px" width="24px"
	 height="24px" viewBox="0 0 24 24" enable-background="new 0 0 24 24" xml:space="preserve">
<g id="Bounding_Boxes">
	<path fill="none" d="M0,0h24v24H0V0z"/>
</g>
<g id="Sharp">
	<g>
		<polygon points="5.54,8.46 2,12 5.54,15.54 7.3,13.77 5.54,12 7.3,10.23 		"/>
		<polygon points="18.46,8.46 16.7,10.23 18.46,12 16.7,13.77 18.46,15.54 22,12 		"/>
		<polygon points="12,18.46 10.23,16.7 8.46,18.46 12,22 15.54,18.46 13.77,16.7 		"/>
		<polygon points="8.46,5.54 10.23,7.3 12,5.54 13.77,7.3 15.54,5.54 12,2 		"/>
		<circle cx="12" cy="12" r="3"/>
	</g>
</g>
</svg>
