<?xml version="1.0" encoding="utf-8"?>
<!-- Generator: Adobe Illustrator 19.1.0, SVG Export Plug-In . SVG Version: 6.00 Build 0)  -->
<svg version="1.1" xmlns="http://www.w3.org/2000/svg" xmlns:xlink="http://www.w3.org/1999/xlink" x="0px" y="0px" width="24px"
	 height="24px" viewBox="0 0 24 24" enable-background="new 0 0 24 24" xml:space="preserve">
<g id="Bounding_Boxes">
	<g id="ui_x5F_spec_x5F_header_copy_2">
	</g>
	<path fill="none" d="M0,0h24v24H0V0z"/>
</g>
<g id="Sharp">
	<g id="ui_x5F_spec_x5F_header_copy_4">
	</g>
	<path d="M23.99,3H0v18h24L23.99,3z M8,6c1.66,0,3,1.34,3,3s-1.34,3-3,3s-3-1.34-3-3S6.34,6,8,6z M14,18H2v-1c0-2,4-3.1,6-3.1
		s6,1.1,6,3.1V18z M17.85,14h1.64L21,16l-1.99,1.99c-1.31-0.98-2.28-2.38-2.73-3.99C16.1,13.36,16,12.69,16,12s0.1-1.36,0.28-2
		c0.45-1.62,1.42-3.01,2.73-3.99L21,8l-1.51,2h-1.64c-0.22,0.63-0.35,1.3-0.35,2S17.63,13.37,17.85,14z"/>
</g>
</svg>
