<?xml version="1.0" encoding="utf-8"?>
<!-- Generator: Adobe Illustrator 19.1.0, SVG Export Plug-In . SVG Version: 6.00 Build 0)  -->
<svg version="1.1" xmlns="http://www.w3.org/2000/svg" xmlns:xlink="http://www.w3.org/1999/xlink" x="0px" y="0px" width="24px"
	 height="24px" viewBox="0 0 24 24" enable-background="new 0 0 24 24" xml:space="preserve">
<g id="Bounding_Boxes">
	<g id="ui_x5F_spec_x5F_header_copy_3">
	</g>
	<path fill="none" d="M0,0h24v24H0V0z"/>
</g>
<g id="Sharp">
	<g id="ui_x5F_spec_x5F_header_copy_4">
	</g>
	<path d="M3,6h18V4H1v16h6v-2H3V6z M13,12H9v1.78C8.39,14.33,8,15.11,8,16c0,0.89,0.39,1.67,1,2.22V20h4v-1.78
		c0.61-0.55,1-1.34,1-2.22s-0.39-1.67-1-2.22V12z M11,17.5c-0.83,0-1.5-0.67-1.5-1.5s0.67-1.5,1.5-1.5s1.5,0.67,1.5,1.5
		S11.83,17.5,11,17.5z M23,8h-8v12h8V8z M21,18h-4v-8h4V18z"/>
</g>
</svg>
