<?xml version="1.0" encoding="utf-8"?>
<!-- Generator: Adobe Illustrator 19.1.0, SVG Export Plug-In . SVG Version: 6.00 Build 0)  -->
<svg version="1.1" xmlns="http://www.w3.org/2000/svg" xmlns:xlink="http://www.w3.org/1999/xlink" x="0px" y="0px" width="24px"
	 height="24px" viewBox="0 0 24 24" enable-background="new 0 0 24 24" xml:space="preserve">
<g id="Bounding_Boxes">
	<g id="ui_x5F_spec_x5F_header_copy_2">
	</g>
	<path fill="none" d="M0,0h24v24H0V0z"/>
</g>
<g id="Sharp">
	<g id="ui_x5F_spec_x5F_header_copy_4">
	</g>
	<path d="M12,19c-1.1,0-2,0.9-2,2s0.9,2,2,2s2-0.9,2-2S13.1,19,12,19z M6,1C4.9,1,4,1.9,4,3s0.9,2,2,2s2-0.9,2-2S7.1,1,6,1z M6,7
		C4.9,7,4,7.9,4,9s0.9,2,2,2s2-0.9,2-2S7.1,7,6,7z M6,13c-1.1,0-2,0.9-2,2s0.9,2,2,2s2-0.9,2-2S7.1,13,6,13z M18,5c1.1,0,2-0.9,2-2
		s-0.9-2-2-2s-2,0.9-2,2S16.9,5,18,5z M12,13c-1.1,0-2,0.9-2,2s0.9,2,2,2s2-0.9,2-2S13.1,13,12,13z M18,13c-1.1,0-2,0.9-2,2
		s0.9,2,2,2s2-0.9,2-2S19.1,13,18,13z M18,7c-1.1,0-2,0.9-2,2s0.9,2,2,2s2-0.9,2-2S19.1,7,18,7z M12,7c-1.1,0-2,0.9-2,2s0.9,2,2,2
		s2-0.9,2-2S13.1,7,12,7z M12,1c-1.1,0-2,0.9-2,2s0.9,2,2,2s2-0.9,2-2S13.1,1,12,1z"/>
</g>
</svg>
