<?xml version="1.0" encoding="utf-8"?>
<!-- Generator: Adobe Illustrator 19.1.0, SVG Export Plug-In . SVG Version: 6.00 Build 0)  -->
<svg version="1.1" xmlns="http://www.w3.org/2000/svg" xmlns:xlink="http://www.w3.org/1999/xlink" x="0px" y="0px" width="24px"
	 height="24px" viewBox="0 0 24 24" enable-background="new 0 0 24 24" xml:space="preserve">
<g id="Bounding_Boxes">
	<g id="ui_x5F_spec_x5F_header_copy_2">
	</g>
	<path fill="none" d="M0,0h24v24H0V0z"/>
</g>
<g id="Sharp">
	<g id="ui_x5F_spec_x5F_header_copy_4">
	</g>
	<g>
		<rect x="16" y="3" width="1" height="5"/>
		<polygon points="15,5 13,5 13,4 15,4 15,3 12,3 12,6 14,6 14,7 12,7 12,8 15,8 		"/>
		<path d="M18,3v5h1V6h2V3H18z M20,5h-1V4h1V5z"/>
		<path d="M21,15.46l-5.27-0.61l-2.52,2.52c-2.83-1.44-5.15-3.75-6.59-6.59l2.53-2.53L8.54,3L3.03,3
			C2.45,13.18,10.82,21.55,21,20.97L21,15.46z"/>
	</g>
</g>
</svg>
