<?xml version="1.0" encoding="utf-8"?>
<!-- Generator: Adobe Illustrator 19.1.0, SVG Export Plug-In . SVG Version: 6.00 Build 0)  -->
<svg version="1.1" xmlns="http://www.w3.org/2000/svg" xmlns:xlink="http://www.w3.org/1999/xlink" x="0px" y="0px" width="24px"
	 height="24px" viewBox="0 0 24 24" enable-background="new 0 0 24 24" xml:space="preserve">
<g id="Bounding_Boxes">
	<path fill="none" d="M0,0h24v24H0V0z"/>
</g>
<g id="Sharp">
	<path d="M20,21c-1.39,0-2.78-0.47-4-1.32c-2.44,1.71-5.56,1.71-8,0C6.78,20.53,5.39,21,4,21H2v2h2c1.38,0,2.74-0.35,4-0.99
		c2.52,1.29,5.48,1.29,8,0c1.26,0.65,2.62,0.99,4,0.99h2v-2H20z M3.95,19H4c1.6,0,3.02-0.88,4-2c0.98,1.12,2.4,2,4,2s3.02-0.88,4-2
		c0.98,1.12,2.4,2,4,2h0.05l2.18-7.65L20,10.62V4h-5V1H9v3H4v6.62l-2.23,0.73L3.95,19z M6,6h12v3.97L12,8L6,9.97V6z"/>
</g>
</svg>
