<?xml version="1.0" encoding="utf-8"?>
<!-- Generator: Adobe Illustrator 19.1.0, SVG Export Plug-In . SVG Version: 6.00 Build 0)  -->
<svg version="1.1" xmlns="http://www.w3.org/2000/svg" xmlns:xlink="http://www.w3.org/1999/xlink" x="0px" y="0px" width="24px"
	 height="24px" viewBox="0 0 24 24" enable-background="new 0 0 24 24" xml:space="preserve">
<g id="Bounding_Boxes">
	<g id="ui_x5F_spec_x5F_header_copy_2">
	</g>
	<path fill="none" d="M0,0h24v24H0V0z"/>
</g>
<g id="Sharp">
	<path d="M20,16h2v-2h-2V16z M20,7v5h2V7H20z M10,4c-4.42,0-8,3.58-8,8s3.58,8,8,8s8-3.58,8-8S14.42,4,10,4z M10,14
		c-1.1,0-2-0.9-2-2s0.9-2,2-2s2,0.9,2,2S11.1,14,10,14z"/>
</g>
</svg>
