<?xml version="1.0" encoding="utf-8"?>
<!-- Generator: Adobe Illustrator 19.1.0, SVG Export Plug-In . SVG Version: 6.00 Build 0)  -->
<svg version="1.1" xmlns="http://www.w3.org/2000/svg" xmlns:xlink="http://www.w3.org/1999/xlink" x="0px" y="0px" width="24px"
	 height="24px" viewBox="0 0 24 24" enable-background="new 0 0 24 24" xml:space="preserve">
<g id="Bounding_Boxes">
	<g id="ui_x5F_spec_x5F_header_copy_2">
	</g>
	<path fill="none" d="M0,0h24v24H0V0z"/>
	<path fill="none" d="M0,0h24v24H0V0z"/>
</g>
<g id="Sharp">
	<path d="M20,8h-3V6.22c0-2.61-1.91-4.94-4.51-5.19C9.51,0.74,7,3.08,7,6v2H4v14h16V8z M8.9,6c0-1.71,1.39-3.1,3.1-3.1
		s3.1,1.39,3.1,3.1v2H8.9V6z M16,16h-3v3h-2v-3H8v-2h3v-3h2v3h3V16z"/>
</g>
</svg>
