<?xml version="1.0" encoding="utf-8"?>
<!-- Generator: Adobe Illustrator 19.1.0, SVG Export Plug-In . SVG Version: 6.00 Build 0)  -->
<svg version="1.1" xmlns="http://www.w3.org/2000/svg" xmlns:xlink="http://www.w3.org/1999/xlink" x="0px" y="0px" width="24px"
	 height="24px" viewBox="0 0 24 24" enable-background="new 0 0 24 24" xml:space="preserve">
<g id="Bounding_Boxes">
	<g id="ui_x5F_spec_x5F_header_copy_3">
	</g>
	<path fill="none" d="M0,0h24v24H0V0z"/>
</g>
<g id="Sharp">
	<g id="ui_x5F_spec_x5F_header_copy_2">
	</g>
	<path d="M3,5H1v18h18v-2H3V5z M23,1H5v18h18V1z M21,17H7V3h14V17z M13,15h2c1.1,0,2-0.89,2-2v-1.5c0-0.83-0.67-1.5-1.5-1.5
		c0.83,0,1.5-0.67,1.5-1.5V7c0-1.11-0.9-2-2-2h-2c-1.1,0-2,0.89-2,2v1.5c0,0.83,0.67,1.5,1.5,1.5c-0.83,0-1.5,0.67-1.5,1.5V13
		C11,14.11,11.9,15,13,15z M13,7h2v2h-2V7z M13,11h2v2h-2V11z"/>
</g>
</svg>
