<?xml version="1.0" encoding="utf-8"?>
<!-- Generator: Adobe Illustrator 19.1.0, SVG Export Plug-In . SVG Version: 6.00 Build 0)  -->
<svg version="1.1" xmlns="http://www.w3.org/2000/svg" xmlns:xlink="http://www.w3.org/1999/xlink" x="0px" y="0px" width="24px"
	 height="24px" viewBox="0 0 24 24" enable-background="new 0 0 24 24" xml:space="preserve">
<g id="Bounding_Boxes">
	<g id="ui_x5F_spec_x5F_header_copy_3">
	</g>
	<path fill="none" d="M0,0h24v24H0V0z"/>
</g>
<g id="Sharp">
	<g id="ui_x5F_spec_x5F_header_copy_2">
	</g>
	<path d="M18.7,12.4c-0.28-0.16-0.57-0.29-0.86-0.4c0.29-0.11,0.58-0.24,0.86-0.4c1.92-1.11,2.99-3.12,3-5.19
		c-1.79-1.03-4.07-1.11-6,0c-0.28,0.16-0.54,0.35-0.78,0.54C14.97,6.64,15,6.32,15,6c0-2.22-1.21-4.15-3-5.19C10.21,1.85,9,3.78,9,6
		c0,0.32,0.03,0.64,0.08,0.95C8.84,6.75,8.58,6.56,8.3,6.4c-1.92-1.11-4.2-1.03-6,0c0,2.07,1.07,4.08,3,5.19
		c0.28,0.16,0.57,0.29,0.86,0.4c-0.29,0.11-0.58,0.24-0.86,0.4c-1.92,1.11-2.99,3.12-3,5.19c1.79,1.03,4.07,1.11,6,0
		c0.28-0.16,0.54-0.35,0.78-0.54C9.03,17.36,9,17.68,9,18c0,2.22,1.21,4.15,3,5.19c1.79-1.04,3-2.97,3-5.19
		c0-0.32-0.03-0.64-0.08-0.95c0.24,0.2,0.5,0.38,0.78,0.54c1.92,1.11,4.2,1.03,6,0C21.69,15.52,20.62,13.51,18.7,12.4z M12,16
		c-2.21,0-4-1.79-4-4s1.79-4,4-4s4,1.79,4,4S14.21,16,12,16z"/>
</g>
</svg>
