<?xml version="1.0" encoding="utf-8"?>
<!-- Generator: Adobe Illustrator 19.1.0, SVG Export Plug-In . SVG Version: 6.00 Build 0)  -->
<svg version="1.1" xmlns="http://www.w3.org/2000/svg" xmlns:xlink="http://www.w3.org/1999/xlink" x="0px" y="0px" width="24px"
	 height="24px" viewBox="0 0 24 24" enable-background="new 0 0 24 24" xml:space="preserve">
<g id="Bounding_Boxes" display="none">
	<g id="ui_x5F_spec_x5F_header_copy_3" display="inline">
	</g>
	<path display="inline" fill="none" d="M0,0h24v24H0V0z M0,0h24v24H0V0z M0,0h24v24H0V0z"/>
</g>
<g id="Sharp">
	<g id="ui_x5F_spec_x5F_header_copy_4">
	</g>
	<g>
		<path d="M18,14c0-3.98-6-10.8-6-10.8s-1.18,1.35-2.5,3.19l8.44,8.44C17.97,14.56,18,14.28,18,14z"/>
		<path d="M5.41,5.14L4,6.55l3.32,3.32C6.55,11.33,6,12.79,6,14c0,3.31,2.69,6,6,6c1.52,0,2.9-0.57,3.95-1.5l2.63,2.63L20,19.72
			L5.41,5.14z"/>
	</g>
</g>
</svg>
