<?xml version="1.0" encoding="utf-8"?>
<!-- Generator: Adobe Illustrator 19.1.0, SVG Export Plug-In . SVG Version: 6.00 Build 0)  -->
<svg version="1.1" xmlns="http://www.w3.org/2000/svg" xmlns:xlink="http://www.w3.org/1999/xlink" x="0px" y="0px" width="24px"
	 height="24px" viewBox="0 0 24 24" enable-background="new 0 0 24 24" xml:space="preserve">
<g id="Bounding_Boxes" display="none">
	<g id="ui_x5F_spec_x5F_header_copy_3" display="inline">
	</g>
	<path display="inline" fill="none" d="M0,0h24v24H0V0z"/>
</g>
<g id="Sharp">
	<g id="ui_x5F_spec_x5F_header_copy_4">
	</g>
	<g>
		<path d="M17.62,10l-10-10L6.21,1.41l2.38,2.38L2.38,10L10,17.62L17.62,10z M5.21,10L10,5.21L14.79,10H5.21z"/>
		<path d="M19,11.5c0,0-2,2.17-2,3.5c0,1.1,0.9,2,2,2s2-0.9,2-2C21,13.67,19,11.5,19,11.5z"/>
		<path fill-opacity="0.36" d="M0,20h24v4H0V20z"/>
	</g>
</g>
</svg>
