<?xml version="1.0" encoding="utf-8"?>
<!-- Generator: Adobe Illustrator 19.1.0, SVG Export Plug-In . SVG Version: 6.00 Build 0)  -->
<svg version="1.1" xmlns="http://www.w3.org/2000/svg" xmlns:xlink="http://www.w3.org/1999/xlink" x="0px" y="0px" width="24px"
	 height="24px" viewBox="0 0 24 24" enable-background="new 0 0 24 24" xml:space="preserve">
<g id="Bounding_Boxes" display="none">
	<g id="ui_x5F_spec_x5F_header_copy_3" display="inline">
	</g>
	<path display="inline" fill="none" d="M0,0h24v24H0V0z"/>
</g>
<g id="Sharp">
	<g id="ui_x5F_spec_x5F_header_copy_4">
	</g>
	<path d="M23,7V1h-6v2H7V1H1v6h2v10H1v6h6v-2h10v2h6v-6h-2V7H23z M3,3h2v2H3V3z M5,21H3v-2h2V21z M17,19H7v-2H5V7h2V5h10v2h2v10h-2
		V19z M21,21h-2v-2h2V21z M19,5V3h2v2H19z M13.73,14h-3.49l-0.73,2H7.89l3.4-9h1.4l3.41,9h-1.63L13.73,14z M10.69,12.74h2.61
		L12,8.91L10.69,12.74z"/>
</g>
</svg>
