<?xml version="1.0" encoding="utf-8"?>
<!-- Generator: Adobe Illustrator 19.1.0, SVG Export Plug-In . SVG Version: 6.00 Build 0)  -->
<svg version="1.1" xmlns="http://www.w3.org/2000/svg" xmlns:xlink="http://www.w3.org/1999/xlink" x="0px" y="0px" width="24px"
	 height="24px" viewBox="0 0 24 24" enable-background="new 0 0 24 24" xml:space="preserve">
<g id="Bounding_Boxes">
	<g id="ui_x5F_spec_x5F_header_copy_3">
	</g>
	<rect fill="none" width="24" height="24"/>
</g>
<g id="Sharp">
	<g id="ui_x5F_spec_x5F_header_copy_2">
	</g>
	<path d="M11,9h2v2h-2V9z M9,11h2v2H9V11z M13,11h2v2h-2V11z M15,9h2v2h-2V9z M7,9h2v2H7V9z M21,3H3v18h18V3z M9,18H7v-2h2V18z
		 M13,18h-2v-2h2V18z M17,18h-2v-2h2V18z M19,11h-2v2h2v2h-2v-2h-2v2h-2v-2h-2v2H9v-2H7v2H5v-2h2v-2H5V5h14V11z"/>
</g>
</svg>
