<?xml version="1.0" encoding="utf-8"?>
<!-- Generator: Adobe Illustrator 19.1.0, SVG Export Plug-In . SVG Version: 6.00 Build 0)  -->
<svg version="1.1" xmlns="http://www.w3.org/2000/svg" xmlns:xlink="http://www.w3.org/1999/xlink" x="0px" y="0px" width="24px"
	 height="24px" viewBox="0 0 24 24" enable-background="new 0 0 24 24" xml:space="preserve">
<g id="Bounding_Boxes">
	<g id="ui_x5F_spec_x5F_header_copy_3">
	</g>
	<path fill="none" d="M0,0h24v24H0V0z"/>
</g>
<g id="Sharp">
	<g id="ui_x5F_spec_x5F_header_copy_2">
	</g>
	<path d="M21,12.9V9h-5v6h1.5v-2h1.1l0.9,2H21l-0.9-2.1H21z M19.5,11.5h-2v-1h2V11.5z M6.5,11h-2V9H3v6h1.5v-2.5h2V15H8V9H6.5V11z
		 M13,9H9.5v6H13c0.8,0,1.5-0.7,1.5-1.5v-3C14.5,9.7,13.8,9,13,9z M13,13.5h-2v-3h2V13.5z"/>
</g>
</svg>
