<?xml version="1.0" encoding="utf-8"?>
<!-- Generator: Adobe Illustrator 19.1.0, SVG Export Plug-In . SVG Version: 6.00 Build 0)  -->
<svg version="1.1" xmlns="http://www.w3.org/2000/svg" xmlns:xlink="http://www.w3.org/1999/xlink" x="0px" y="0px" width="24px"
	 height="24px" viewBox="0 0 24 24" enable-background="new 0 0 24 24" xml:space="preserve">
<g id="Bounding_Boxes">
	<g id="ui_x5F_spec_x5F_header_copy_3">
	</g>
	<path fill="none" d="M0,0h24v24H0V0z"/>
</g>
<g id="Sharp">
	<g id="ui_x5F_spec_x5F_header_copy_2">
	</g>
	<path d="M17.74,12.01l4.68-4.68l-5.75-5.75l-4.68,4.68L7.3,1.58L1.55,7.34l4.68,4.69l-4.68,4.68l5.75,5.75l4.68-4.68l4.69,4.69
		l5.76-5.76L17.74,12.01z M12,9c0.55,0,1,0.45,1,1s-0.45,1-1,1s-1-0.45-1-1S11.45,9,12,9z M7.29,10.96L3.66,7.34l3.63-3.63
		l3.62,3.62L7.29,10.96z M10,13c-0.55,0-1-0.45-1-1s0.45-1,1-1s1,0.45,1,1S10.55,13,10,13z M12,15c-0.55,0-1-0.45-1-1s0.45-1,1-1
		s1,0.45,1,1S12.55,15,12,15z M14,11c0.55,0,1,0.45,1,1s-0.45,1-1,1s-1-0.45-1-1S13.45,11,14,11z M16.66,20.34l-3.63-3.62l3.63-3.63
		l3.62,3.62L16.66,20.34z"/>
</g>
</svg>
