<?xml version="1.0" encoding="utf-8"?>
<!-- Generator: Adobe Illustrator 19.1.0, SVG Export Plug-In . SVG Version: 6.00 Build 0)  -->
<svg version="1.1" xmlns="http://www.w3.org/2000/svg" xmlns:xlink="http://www.w3.org/1999/xlink" x="0px" y="0px" width="24px"
	 height="24px" viewBox="0 0 24 24" enable-background="new 0 0 24 24" xml:space="preserve">
<g id="Bounding_Boxes">
	<g id="ui_x5F_spec_x5F_header_copy_3" display="none">
	</g>
	<path fill="none" d="M0,0h24v24H0V0z"/>
</g>
<g id="Sharp">
	<g id="ui_x5F_spec_x5F_header_copy_4" display="none">
	</g>
	<path d="M24,11.01L17,11v11h7V11.01z M23,20h-5v-7h5V20z M22,2H0v16h9v2H7v2h8v-2h-2v-2h2v-2H2V4h18v5h2V2z M11.97,9L11,6l-0.97,3
		H7l2.47,1.76l-0.94,2.91l2.47-1.8l2.47,1.8l-0.94-2.91L15,9H11.97z"/>
</g>
</svg>
