<?xml version="1.0" encoding="utf-8"?>
<!-- Generator: Adobe Illustrator 19.1.0, SVG Export Plug-In . SVG Version: 6.00 Build 0)  -->
<svg version="1.1" xmlns="http://www.w3.org/2000/svg" xmlns:xlink="http://www.w3.org/1999/xlink" x="0px" y="0px" width="24px"
	 height="24px" viewBox="0 0 24 24" enable-background="new 0 0 24 24" xml:space="preserve">
<g id="Bounding_Boxes">
	<g id="ui_x5F_spec_x5F_header_copy_2">
	</g>
	<path fill="none" d="M0,0h24v24H0V0z"/>
</g>
<g id="Sharp">
	<g id="ui_x5F_spec_x5F_header_copy_4">
	</g>
	<g>
		<path d="M12,5.1v4.05l7.4,7.4c1.15-2.88,0.59-6.28-1.75-8.61L12,2.27L8.56,5.71l1.41,1.41L12,5.1z"/>
		<path d="M4.4,4.37L2.99,5.78l2.78,2.78c-2.54,3.14-2.35,7.75,0.57,10.68C7.9,20.8,9.95,21.58,12,21.58c1.78,0,3.56-0.59,5.02-1.77
			l2.7,2.7l1.41-1.41L4.4,4.37z M12,19.59c-1.6,0-3.11-0.62-4.24-1.76C6.62,16.69,6,15.19,6,13.59c0-1.32,0.43-2.56,1.21-3.59
			L12,14.79V19.59z"/>
	</g>
</g>
</svg>
