<?xml version="1.0" encoding="utf-8"?>
<!-- Generator: Adobe Illustrator 19.1.0, SVG Export Plug-In . SVG Version: 6.00 Build 0)  -->
<svg version="1.1" xmlns="http://www.w3.org/2000/svg" xmlns:xlink="http://www.w3.org/1999/xlink" x="0px" y="0px" width="24px"
	 height="24px" viewBox="0 0 24 24" enable-background="new 0 0 24 24" xml:space="preserve">
<g id="Bounding_Boxes">
	<g id="ui_x5F_spec_x5F_header_copy_3">
	</g>
	<path fill="none" d="M0,0h24v24H0V0z"/>
</g>
<g id="Sharp">
	<g id="ui_x5F_spec_x5F_header_copy_2">
	</g>
	<path d="M6,3H3v3C4.66,6,6,4.66,6,3z M14,3h-2c0,4.97-4.03,9-9,9v2C9.08,14,14,9.07,14,3z M10,3H8c0,2.76-2.24,5-5,5v2
		C6.87,10,10,6.87,10,3z M10,21h2c0-4.97,4.03-9,9-9v-2C14.93,10,10,14.93,10,21z M18,21h3v-3C19.34,18,18,19.34,18,21z M14,21h2
		c0-2.76,2.24-5,5-5v-2C17.13,14,14,17.13,14,21z"/>
</g>
</svg>
