<?xml version="1.0" encoding="utf-8"?>
<!-- Generator: Adobe Illustrator 19.1.0, SVG Export Plug-In . SVG Version: 6.00 Build 0)  -->
<svg version="1.1" xmlns="http://www.w3.org/2000/svg" xmlns:xlink="http://www.w3.org/1999/xlink" x="0px" y="0px" width="24px"
	 height="24px" viewBox="0 0 24 24" enable-background="new 0 0 24 24" xml:space="preserve">
<g id="Bounding_Boxes">
	<g id="ui_x5F_spec_x5F_header_copy_3">
	</g>
	<path fill="none" d="M0,0h24v24H0V0z"/>
</g>
<g id="Sharp">
	<g id="ui_x5F_spec_x5F_header_copy_2">
	</g>
	<g>
		<circle cx="12" cy="14" r="3"/>
		<path d="M18,8h1.33c0-1.84-1.49-3.33-3.33-3.33V6C17.11,6,18,6.89,18,8z"/>
		<path d="M20.67,8H22c0-3.31-2.69-6-6-6v1.33C18.58,3.33,20.67,5.42,20.67,8z"/>
		<path d="M15,7V4H9L7.17,6H2v16h20V9h-5C17,7.9,16.1,7,15,7z M12,19c-2.76,0-5-2.24-5-5s2.24-5,5-5s5,2.24,5,5S14.76,19,12,19z"/>
	</g>
</g>
</svg>
