<?xml version="1.0" encoding="utf-8"?>
<!-- Generator: Adobe Illustrator 19.1.0, SVG Export Plug-In . SVG Version: 6.00 Build 0)  -->
<svg version="1.1" xmlns="http://www.w3.org/2000/svg" xmlns:xlink="http://www.w3.org/1999/xlink" x="0px" y="0px" width="24px"
	 height="24px" viewBox="0 0 24 24" enable-background="new 0 0 24 24" xml:space="preserve">
<g id="Bounding_Boxes">
	<g id="ui_x5F_spec_x5F_header_copy_3" display="none">
	</g>
	<path fill="none" d="M0,0h24v24H0V0z"/>
	<path opacity="0.87" fill="none" d="M0,0h24v24H0V0z"/>
</g>
<g id="Sharp">
	<g id="ui_x5F_spec_x5F_header_copy_4" display="none">
	</g>
	<path d="M3,13h2v-2H3V13z M3,17h2v-2H3V17z M3,9h2V7H3V9z M7,13h14v-2H7V13z M7,17h14v-2H7V17z M7,7v2h14V7H7z"/>
	<path d="M3,13h2v-2H3V13z M3,17h2v-2H3V17z M3,9h2V7H3V9z M7,13h14v-2H7V13z M7,17h14v-2H7V17z M7,7v2h14V7H7z"/>
</g>
</svg>
