<?xml version="1.0" encoding="utf-8"?>
<!-- Generator: Adobe Illustrator 19.1.0, SVG Export Plug-In . SVG Version: 6.00 Build 0)  -->
<svg version="1.1" xmlns="http://www.w3.org/2000/svg" xmlns:xlink="http://www.w3.org/1999/xlink" x="0px" y="0px" width="24px"
	 height="24px" viewBox="0 0 24 24" enable-background="new 0 0 24 24" xml:space="preserve">
<g id="Bounding_Boxes">
	<g id="ui_x5F_spec_x5F_header_copy_2">
	</g>
	<path fill="none" d="M0,0h24v24H0V0z"/>
</g>
<g id="Sharp">
	<g id="ui_x5F_spec_x5F_header_copy_4">
	</g>
	<path d="M21,2H3v18h6l3,3l3-3h6V2z M13,18h-2v-2h2V18z M15.07,10.25l-0.9,0.92C13.45,11.9,13,12.5,13,14h-2v-0.5
		c0-1.1,0.45-2.1,1.17-2.83l1.24-1.26C13.78,9.05,14,8.55,14,8c0-1.1-0.9-2-2-2s-2,0.9-2,2H8c0-2.21,1.79-4,4-4s4,1.79,4,4
		C16,8.88,15.64,9.68,15.07,10.25z"/>
</g>
</svg>
