<?xml version="1.0" encoding="utf-8"?>
<!-- Generator: Adobe Illustrator 19.1.0, SVG Export Plug-In . SVG Version: 6.00 Build 0)  -->
<svg version="1.1" xmlns="http://www.w3.org/2000/svg" xmlns:xlink="http://www.w3.org/1999/xlink" x="0px" y="0px" width="24px"
	 height="24px" viewBox="0 0 24 24" enable-background="new 0 0 24 24" xml:space="preserve">
<g id="Bounding_Boxes">
	<path fill="none" d="M0,0h24v24H0V0z"/>
</g>
<g id="Sharp">
	<path d="M21,6h-4c0-2.76-2.24-5-5-5S7,3.24,7,6H3v16h18V6z M12,3c1.66,0,3,1.34,3,3H9C9,4.34,10.34,3,12,3z M12,13
		c-2.76,0-5-2.24-5-5h2c0,1.66,1.34,3,3,3s3-1.34,3-3h2C17,10.76,14.76,13,12,13z"/>
</g>
</svg>
