<?xml version="1.0" encoding="utf-8"?>
<!-- Generator: Adobe Illustrator 19.1.0, SVG Export Plug-In . SVG Version: 6.00 Build 0)  -->
<svg version="1.1" xmlns="http://www.w3.org/2000/svg" xmlns:xlink="http://www.w3.org/1999/xlink" x="0px" y="0px" width="24px"
	 height="24px" viewBox="0 0 24 24" enable-background="new 0 0 24 24" xml:space="preserve">
<g id="Bounding_Boxes">
	<path fill="none" d="M0,0h24v24H0V0z"/>
</g>
<g id="Sharp">
	<path d="M20,12c0-1.1,0.9-2,2-2V4H2.01v6C3.11,10,4,10.9,4,12s-0.89,2-2,2v6h20v-6C20.9,14,20,13.1,20,12z M15.58,16.8L12,14.5
		l-3.58,2.3l1.08-4.12L6.21,9.99l4.24-0.25L12,5.8l1.54,3.95L17.78,10l-3.29,2.69L15.58,16.8z"/>
</g>
</svg>
