<?xml version="1.0" encoding="utf-8"?>
<!-- Generator: Adobe Illustrator 19.1.0, SVG Export Plug-In . SVG Version: 6.00 Build 0)  -->
<svg version="1.1" xmlns="http://www.w3.org/2000/svg" xmlns:xlink="http://www.w3.org/1999/xlink" x="0px" y="0px" width="24px"
	 height="24px" viewBox="0 0 24 24" enable-background="new 0 0 24 24" xml:space="preserve">
<g id="Bounding_Boxes">
	<path fill="none" d="M0,0h24v24H0V0z"/>
</g>
<g id="Sharp">
	<path d="M7,18c-1.1,0-1.99,0.9-1.99,2S5.9,22,7,22s2-0.9,2-2S8.1,18,7,18z M1,4h2l3.6,7.59L3.62,17H19v-2H7l1.1-2h8.64l4.97-9H5.21
		L4.27,2L1,2V4z M17,18c-1.1,0-1.99,0.9-1.99,2s0.89,2,1.99,2s2-0.9,2-2S18.1,18,17,18z"/>
</g>
</svg>
