<?xml version="1.0" encoding="utf-8"?>
<!-- Generator: Adobe Illustrator 19.1.0, SVG Export Plug-In . SVG Version: 6.00 Build 0)  -->
<svg version="1.1" xmlns="http://www.w3.org/2000/svg" xmlns:xlink="http://www.w3.org/1999/xlink" x="0px" y="0px" width="24px"
	 height="24px" viewBox="0 0 24 24" enable-background="new 0 0 24 24" xml:space="preserve">
<g id="Bounding_Boxes">
	<path fill="none" d="M0,0h24v24H0V0z"/>
</g>
<g id="Sharp">
	<path d="M9.17,16.83c1.56,1.56,4.1,1.56,5.66,0s1.56-4.1,0-5.66L9.17,16.83z M20,2.01L4,2v20h16V2.01z M10,4c0.55,0,1,0.45,1,1
		s-0.45,1-1,1S9,5.55,9,5S9.45,4,10,4z M7,4c0.55,0,1,0.45,1,1S7.55,6,7,6S6,5.55,6,5S6.45,4,7,4z M12,20c-3.31,0-6-2.69-6-6
		s2.69-6,6-6s6,2.69,6,6S15.31,20,12,20z"/>
</g>
</svg>
