<?xml version="1.0" encoding="utf-8"?>
<!-- Generator: Adobe Illustrator 19.1.0, SVG Export Plug-In . SVG Version: 6.00 Build 0)  -->
<svg version="1.1" xmlns="http://www.w3.org/2000/svg" xmlns:xlink="http://www.w3.org/1999/xlink" x="0px" y="0px" width="24px"
	 height="24px" viewBox="0 0 24 24" enable-background="new 0 0 24 24" xml:space="preserve">
<g id="Bounding_Boxes">
	<path fill="none" d="M0,0h24v24H0V0z"/>
</g>
<g id="Sharp">
	<path d="M12,22c4.97,0,9-4.03,9-9C16.03,13,12,17.03,12,22z M5.6,10.25c0,1.38,1.12,2.5,2.5,2.5c0.53,0,1.01-0.16,1.42-0.44
		L9.5,12.5c0,1.38,1.12,2.5,2.5,2.5s2.5-1.12,2.5-2.5l-0.02-0.19c0.4,0.28,0.89,0.44,1.42,0.44c1.38,0,2.5-1.12,2.5-2.5
		c0-1-0.59-1.85-1.43-2.25c0.84-0.4,1.43-1.25,1.43-2.25c0-1.38-1.12-2.5-2.5-2.5c-0.53,0-1.01,0.16-1.42,0.44L14.5,3.5
		C14.5,2.12,13.38,1,12,1S9.5,2.12,9.5,3.5l0.02,0.19C9.12,3.41,8.63,3.25,8.1,3.25c-1.38,0-2.5,1.12-2.5,2.5
		c0,1,0.59,1.85,1.43,2.25C6.19,8.4,5.6,9.25,5.6,10.25z M12,5.5c1.38,0,2.5,1.12,2.5,2.5s-1.12,2.5-2.5,2.5S9.5,9.38,9.5,8
		S10.62,5.5,12,5.5z M3,13c0,4.97,4.03,9,9,9C12,17.03,7.97,13,3,13z"/>
</g>
</svg>
