<?xml version="1.0" encoding="utf-8"?>
<!-- Generator: Adobe Illustrator 19.1.0, SVG Export Plug-In . SVG Version: 6.00 Build 0)  -->
<svg version="1.1" xmlns="http://www.w3.org/2000/svg" xmlns:xlink="http://www.w3.org/1999/xlink" x="0px" y="0px" width="24px"
	 height="24px" viewBox="0 0 24 24" enable-background="new 0 0 24 24" xml:space="preserve">
<g id="Bounding_Boxes">
	<g id="ui_x5F_spec_x5F_header_copy_2">
	</g>
	<path fill="none" d="M0,0h24v24H0V0z"/>
</g>
<g id="Sharp">
	<g id="ui_x5F_spec_x5F_header_copy_4">
	</g>
	<g>
		<path d="M3.41,2.86L2,4.27l3.18,3.18C5.07,7.95,5,8.47,5,9c0,5.25,7,13,7,13s1.67-1.85,3.38-4.35L18.73,21l1.41-1.41L3.41,2.86z"
			/>
		<path d="M12,2c-1.84,0-3.5,0.71-4.75,1.86l3.19,3.19C10.87,6.71,11.41,6.5,12,6.5c1.38,0,2.5,1.12,2.5,2.5
			c0,0.59-0.21,1.13-0.56,1.56l3.55,3.55C18.37,12.36,19,10.57,19,9C19,5.13,15.87,2,12,2z"/>
	</g>
</g>
</svg>
