<?xml version="1.0" encoding="utf-8"?>
<!-- Generator: Adobe Illustrator 19.1.0, SVG Export Plug-In . SVG Version: 6.00 Build 0)  -->
<svg version="1.1" xmlns="http://www.w3.org/2000/svg" xmlns:xlink="http://www.w3.org/1999/xlink" x="0px" y="0px" width="24px"
	 height="24px" viewBox="0 0 24 24" enable-background="new 0 0 24 24" xml:space="preserve">
<g id="Bounding_Boxes">
	<path fill="none" d="M0,0h24v24H0V0z"/>
</g>
<g id="Sharp">
	<g>
		<path d="M18.58,7H5.43L3,14v9h3v-2h12v2h3v-9L18.58,7z M6.5,18C5.67,18,5,17.33,5,16.5S5.67,15,6.5,15S8,15.67,8,16.5
			S7.33,18,6.5,18z M17.5,18c-0.83,0-1.5-0.67-1.5-1.5s0.67-1.5,1.5-1.5s1.5,0.67,1.5,1.5S18.33,18,17.5,18z M5,13l1.5-4.5h11L19,13
			H5z"/>
		<path d="M17,5c0.83,0,1.5-0.67,1.5-1.5c0-1-1.5-2.7-1.5-2.7s-1.5,1.7-1.5,2.7C15.5,4.33,16.17,5,17,5z"/>
		<path d="M12,5c0.83,0,1.5-0.67,1.5-1.5c0-1-1.5-2.7-1.5-2.7s-1.5,1.7-1.5,2.7C10.5,4.33,11.17,5,12,5z"/>
		<path d="M7,5c0.83,0,1.5-0.67,1.5-1.5c0-1-1.5-2.7-1.5-2.7S5.5,2.5,5.5,3.5C5.5,4.33,6.17,5,7,5z"/>
	</g>
</g>
</svg>
