<?xml version="1.0" encoding="utf-8"?>
<!-- Generator: Adobe Illustrator 19.1.0, SVG Export Plug-In . SVG Version: 6.00 Build 0)  -->
<svg version="1.1" xmlns="http://www.w3.org/2000/svg" xmlns:xlink="http://www.w3.org/1999/xlink" x="0px" y="0px" width="24px"
	 height="24px" viewBox="0 0 24 24" enable-background="new 0 0 24 24" xml:space="preserve">
<g id="Bounding_Boxes">
	<path fill="none" d="M0,0h24v24H0V0z"/>
</g>
<g id="Sharp">
	<path d="M19.77,7.23l0.01-0.01L16.06,3.5L15,4.56l2.11,2.11c-1.05,0.4-1.76,1.47-1.58,2.71c0.16,1.1,1.1,1.99,2.2,2.11
		c0.47,0.05,0.88-0.03,1.27-0.2v8.21h-2V12h-3V3H4v18h10v-7.5h1.5l0,7.49h5V9C20.5,8.31,20.22,7.68,19.77,7.23z M12,10H6V5h6V10z
		 M18,10c-0.55,0-1-0.45-1-1s0.45-1,1-1s1,0.45,1,1S18.55,10,18,10z"/>
</g>
</svg>
