<?xml version="1.0" encoding="utf-8"?>
<!-- Generator: Adobe Illustrator 19.1.0, SVG Export Plug-In . SVG Version: 6.00 Build 0)  -->
<svg version="1.1" xmlns="http://www.w3.org/2000/svg" xmlns:xlink="http://www.w3.org/1999/xlink" x="0px" y="0px" width="24px"
	 height="24px" viewBox="0 0 24 24" enable-background="new 0 0 24 24" xml:space="preserve">
<g id="Bounding_Boxes">
	<path fill="none" d="M0,0h24v24H0V0z"/>
</g>
<g id="Sharp">
	<path d="M18,3v2h-2V3H8v2H6V3H4v18h2v-2h2v2h8v-2h2v2h2V3H18z M8,17H6v-2h2V17z M8,13H6v-2h2V13z M8,9H6V7h2V9z M18,17h-2v-2h2V17z
		 M18,13h-2v-2h2V13z M18,9h-2V7h2V9z"/>
</g>
</svg>
