<?xml version="1.0" encoding="utf-8"?>
<!-- Generator: Adobe Illustrator 19.1.0, SVG Export Plug-In . SVG Version: 6.00 Build 0)  -->
<svg version="1.1" xmlns="http://www.w3.org/2000/svg" xmlns:xlink="http://www.w3.org/1999/xlink" x="0px" y="0px" width="24px"
	 height="24px" viewBox="0 0 24 24" enable-background="new 0 0 24 24" xml:space="preserve">
<g id="Bounding_Boxes">
	<path fill="none" d="M0,0h24v24H0V0z"/>
</g>
<g id="Sharp">
	<path d="M20,8h-3V4H1v13h2c0,1.66,1.34,3,3,3s3-1.34,3-3h6c0,1.66,1.34,3,3,3s3-1.34,3-3h2v-5L20,8z M6,18c-0.55,0-1-0.45-1-1
		s0.45-1,1-1s1,0.45,1,1S6.55,18,6,18z M19.5,9.5l1.96,2.5H17V9.5H19.5z M18,18c-0.55,0-1-0.45-1-1s0.45-1,1-1s1,0.45,1,1
		S18.55,18,18,18z"/>
</g>
</svg>
