<?xml version="1.0" encoding="utf-8"?>
<!-- Generator: Adobe Illustrator 19.1.0, SVG Export Plug-In . SVG Version: 6.00 Build 0)  -->
<svg version="1.1" xmlns="http://www.w3.org/2000/svg" xmlns:xlink="http://www.w3.org/1999/xlink" x="0px" y="0px" width="24px"
	 height="24px" viewBox="0 0 24 24" enable-background="new 0 0 24 24" xml:space="preserve">
<g id="Bounding_Boxes">
	<g id="ui_x5F_spec_x5F_header_copy_3">
	</g>
	<path fill="none" d="M0,0h24v24H0V0z"/>
</g>
<g id="Sharp">
	<g id="ui_x5F_spec_x5F_header_copy_4">
	</g>
	<path d="M15,9H9v6h6V9z M13,13h-2v-2h2V13z M21,11V9h-2V5h-4V3h-2v2h-2V3H9v2H5v4H3v2h2v2H3v2h2v4h4v2h2v-2h2v2h2v-2h4v-4h2v-2h-2
		v-2H21z M17,17H7V7h10V17z"/>
</g>
</svg>
