<?xml version="1.0" encoding="utf-8"?>
<!-- Generator: Adobe Illustrator 19.1.0, SVG Export Plug-In . SVG Version: 6.00 Build 0)  -->
<svg version="1.1" xmlns="http://www.w3.org/2000/svg" xmlns:xlink="http://www.w3.org/1999/xlink" x="0px" y="0px" width="24px"
	 height="24px" viewBox="0 0 24 24" enable-background="new 0 0 24 24" xml:space="preserve">
<g id="Bounding_Boxes">
	<g id="ui_x5F_spec_x5F_header_copy_2">
	</g>
	<path fill="none" d="M0,0h24v24H0V0z M0,0h24v24H0V0z"/>
</g>
<g id="Sharp">
	<g>
		<path d="M22,16v-0.36c0-1.31-0.94-2.5-2.24-2.63C18.26,12.86,17,14.03,17,15.5V16h-1v6h7v-6H22z M21,16h-3v-0.5
			c0-0.83,0.67-1.5,1.5-1.5s1.5,0.67,1.5,1.5V16z"/>
		<path d="M19.5,11L19.5,11c0.15,0,0.3,0.01,0.46,0.02c0.01,0,0.03,0.01,0.04,0.01V1L1,20h13v-6h1.26c0.22-0.63,0.58-1.2,1.06-1.68
			C17.17,11.47,18.3,11,19.5,11z"/>
	</g>
</g>
</svg>
