<?xml version="1.0" encoding="utf-8"?>
<!-- Generator: Adobe Illustrator 19.1.0, SVG Export Plug-In . SVG Version: 6.00 Build 0)  -->
<svg version="1.1" xmlns="http://www.w3.org/2000/svg" xmlns:xlink="http://www.w3.org/1999/xlink" x="0px" y="0px" width="24px"
	 height="24px" viewBox="0 0 24 24" enable-background="new 0 0 24 24" xml:space="preserve">
<g id="Bounding_Boxes">
	<path fill="none" d="M0,0h24v24H0V0z"/>
</g>
<g id="Sharp">
	<path d="M23,12l-2.44-2.78l0.34-3.68l-3.61-0.82L15.4,1.54L12,3L8.6,1.54L6.71,4.72L3.1,5.53l0.34,3.68L1,12l2.44,2.78L3.1,18.47
		l3.61,0.82l1.89,3.18L12,21l3.4,1.46l1.89-3.18l3.61-0.82l-0.34-3.68L23,12z M13,17h-2v-2h2V17z M13,13h-2V7h2V13z"/>
</g>
</svg>
