<?xml version="1.0" encoding="utf-8"?>
<!-- Generator: Adobe Illustrator 19.1.0, SVG Export Plug-In . SVG Version: 6.00 Build 0)  -->
<svg version="1.1" xmlns="http://www.w3.org/2000/svg" xmlns:xlink="http://www.w3.org/1999/xlink" x="0px" y="0px" width="24px"
	 height="24px" viewBox="0 0 24 24" enable-background="new 0 0 24 24" xml:space="preserve">
<g id="Bounding_Boxes">
	<g id="ui_x5F_spec_x5F_header_copy_2">
	</g>
	<path fill="none" d="M0,0h24v24H0V0z M0,0h24v24H0V0z M0,0h24v24H0V0z M0,0h24v24H0V0z"/>
</g>
<g id="Sharp">
	<g>
		<path d="M8.9,6c0-1.71,1.39-3.1,3.1-3.1s3.1,1.39,3.1,3.1v2h-4.66L20,17.56V8h-3V6.22c0-2.61-1.91-4.94-4.51-5.19
			C9.96,0.78,7.77,2.44,7.17,4.73L8.9,6.46V6z"/>
		<polygon points="4.41,4.81 3,6.22 4.78,8 4,8 4,22 18.78,22 19.78,23 21.19,21.59 		"/>
	</g>
</g>
</svg>
