<?xml version="1.0" encoding="utf-8"?>
<!-- Generator: Adobe Illustrator 19.1.0, SVG Export Plug-In . SVG Version: 6.00 Build 0)  -->
<svg version="1.1" xmlns="http://www.w3.org/2000/svg" xmlns:xlink="http://www.w3.org/1999/xlink" x="0px" y="0px" width="24px"
	 height="24px" viewBox="0 0 24 24" enable-background="new 0 0 24 24" xml:space="preserve">
<g id="Bounding_Boxes">
	<path fill="none" d="M0,0h24v24H0V0z"/>
</g>
<g id="Sharp">
	<path d="M12,2C8.14,2,5,5.14,5,9c0,5.25,7,13,7,13s7-7.75,7-13C19,5.14,15.86,2,12,2z M12.88,15.75h-1.75V14h1.75V15.75z
		 M12.88,12.88h-1.75c0-2.84,2.62-2.62,2.62-4.38c0-0.96-0.79-1.75-1.75-1.75s-1.75,0.79-1.75,1.75H8.5C8.5,6.57,10.07,5,12,5
		s3.5,1.57,3.5,3.5C15.5,10.69,12.88,10.91,12.88,12.88z"/>
</g>
</svg>
