<?xml version="1.0" encoding="utf-8"?>
<!-- Generator: Adobe Illustrator 19.1.0, SVG Export Plug-In . SVG Version: 6.00 Build 0)  -->
<svg version="1.1" xmlns="http://www.w3.org/2000/svg" xmlns:xlink="http://www.w3.org/1999/xlink" x="0px" y="0px" width="24px"
	 height="24px" viewBox="0 0 24 24" enable-background="new 0 0 24 24" xml:space="preserve">
<g id="Bounding_Boxes">
	<g id="ui_x5F_spec_x5F_header_copy_2">
	</g>
	<path fill="none" d="M0,0h24v24H0V0z"/>
</g>
<g id="Sharp">
	<path d="M22,4h-5.17L15,2H9L7.17,4H2v16h20V4z M12,7c1.63,0,3.06,0.79,3.98,2H12c-1.66,0-3,1.34-3,3c0,0.35,0.07,0.69,0.18,1H7.1
		C7.04,12.68,7,12.34,7,12C7,9.24,9.24,7,12,7z M12,17c-1.63,0-3.06-0.79-3.98-2H12c1.66,0,3-1.34,3-3c0-0.35-0.07-0.69-0.18-1h2.08
		c0.07,0.32,0.1,0.66,0.1,1C17,14.76,14.76,17,12,17z"/>
</g>
</svg>
