<?xml version="1.0" encoding="utf-8"?>
<!-- Generator: Adobe Illustrator 19.1.0, SVG Export Plug-In . SVG Version: 6.00 Build 0)  -->
<svg version="1.1" xmlns="http://www.w3.org/2000/svg" xmlns:xlink="http://www.w3.org/1999/xlink" x="0px" y="0px" width="24px"
	 height="24px" viewBox="0 0 24 24" enable-background="new 0 0 24 24" xml:space="preserve">
<g id="Bounding_Boxes">
	<g id="ui_x5F_spec_x5F_header_copy_3" display="none">
	</g>
	<path fill="none" d="M0,0h24v24H0V0z"/>
</g>
<g id="Sharp">
	<g id="ui_x5F_spec_x5F_header_copy_4" display="none">
	</g>
	<path d="M22,5h-5.17L15,3H9L7.17,5H2v16h9v-2.09C8.17,18.43,6,15.97,6,13h2c0,2.21,1.79,4,4,4s4-1.79,4-4h2
		c0,2.97-2.17,5.43-5,5.91V21h9V5z M14,13c0,1.1-0.9,2-2,2s-2-0.9-2-2V9c0-1.1,0.9-2,2-2s2,0.9,2,2V13z"/>
</g>
</svg>
