<?xml version="1.0" encoding="utf-8"?>
<!-- Generator: Adobe Illustrator 19.1.0, SVG Export Plug-In . SVG Version: 6.00 Build 0)  -->
<svg version="1.1" xmlns="http://www.w3.org/2000/svg" xmlns:xlink="http://www.w3.org/1999/xlink" x="0px" y="0px" width="24px"
	 height="24px" viewBox="0 0 24 24" enable-background="new 0 0 24 24" xml:space="preserve">
<g id="Bounding_Boxes">
	<g id="ui_x5F_spec_x5F_header_copy_2">
	</g>
	<path fill="none" d="M0,0h24v24H0V0z"/>
</g>
<g id="Sharp">
	<g id="ui_x5F_spec_x5F_header_copy_4">
	</g>
	<g>
		<path d="M14.48,11.95C14.65,11.97,14.82,12,15,12c2.21,0,4-1.79,4-4c0-2.21-1.79-4-4-4s-4,1.79-4,4c0,0.18,0.03,0.35,0.05,0.52
			L14.48,11.95z"/>
		<path d="M16.69,14.16L22.53,20H23v-2C23,15.86,19.44,14.5,16.69,14.16z"/>
		<path d="M0,3.12l4,4V10H1v2h3v3h2v-3h2.88l2.51,2.51C9.19,15.11,7,16.3,7,18v2h9.88l4,4l1.41-1.41L1.41,1.71L0,3.12z M6.88,10H6
			V9.12L6.88,10z"/>
	</g>
</g>
</svg>
