<?xml version="1.0" encoding="utf-8"?>
<!-- Generator: Adobe Illustrator 19.1.0, SVG Export Plug-In . SVG Version: 6.00 Build 0)  -->
<svg version="1.1" xmlns="http://www.w3.org/2000/svg" xmlns:xlink="http://www.w3.org/1999/xlink" x="0px" y="0px" width="24px"
	 height="24px" viewBox="0 0 24 24" enable-background="new 0 0 24 24" xml:space="preserve">
<g id="Bounding_Boxes">
	<g id="ui_x5F_spec_x5F_header_copy_2">
	</g>
	<path fill="none" d="M0,0h24v24H0V0z"/>
</g>
<g id="Sharp">
	<path d="M15,12c2.21,0,4-1.79,4-4s-1.79-4-4-4s-4,1.79-4,4S12.79,12,15,12z M6,10V7H4v3H1v2h3v3h2v-3h3v-2H6z M15,14
		c-2.67,0-8,1.34-8,4v2h16v-2C23,15.34,17.67,14,15,14z"/>
</g>
</svg>
