<?xml version="1.0" encoding="utf-8"?>
<!-- Generator: Adobe Illustrator 19.1.0, SVG Export Plug-In . SVG Version: 6.00 Build 0)  -->
<svg version="1.1" xmlns="http://www.w3.org/2000/svg" xmlns:xlink="http://www.w3.org/1999/xlink" x="0px" y="0px" width="24px"
	 height="24px" viewBox="0 0 24 24" enable-background="new 0 0 24 24" xml:space="preserve">
<g id="Bounding_Boxes">
	<g id="ui_x5F_spec_x5F_header_copy_3">
	</g>
	<path fill="none" d="M0,0h24v24H0V0z M0,0h24v24H0V0z"/>
</g>
<g id="Sharp">
	<g id="ui_x5F_spec_x5F_header_copy_4">
	</g>
	<g>
		<polygon points="4.56,4 2.06,1.51 4.56,4 		"/>
		<rect x="5.56" y="3.59" width="0" height="2.83"/>
		<polygon points="24,8 16,8 16,12.61 18,14.61 18,10 22,10 22,17 20.39,17 23.39,20 24,20 		"/>
		<polygon points="22,6 22,4 7.39,4 9.39,6 		"/>
		<path d="M2.06,1.51L0.65,2.92L2,4.27V17H0v3h17.73l2.35,2.35l1.41-1.41L2.06,1.51z M4,17V6.27L14.73,17H4z"/>
	</g>
</g>
</svg>
