<?xml version="1.0" encoding="utf-8"?>
<!-- Generator: Adobe Illustrator 19.1.0, SVG Export Plug-In . SVG Version: 6.00 Build 0)  -->
<svg version="1.1" xmlns="http://www.w3.org/2000/svg" xmlns:xlink="http://www.w3.org/1999/xlink" x="0px" y="0px" width="24px"
	 height="24px" viewBox="0 0 24 24" enable-background="new 0 0 24 24" xml:space="preserve">
<g id="Bounding_Boxes">
	<g id="ui_x5F_spec_x5F_header_copy_2">
	</g>
	<path fill="none" d="M0,0h24v24H0V0z"/>
</g>
<g id="Sharp">
	<g id="ui_x5F_spec_x5F_header_copy_4">
	</g>
	<path d="M21,1H7v5h2V4h10v16H9v-2H7v5h14V1z M10.8,11V9.5C10.8,8.1,9.4,7,8,7S5.2,8.1,5.2,9.5V11C4.6,11,4,11,4,11v6h8v-6
		C12,11,11.4,11,10.8,11z M9.5,11h-3V9.5c0-0.8,0.7-1.3,1.5-1.3s1.5,0.5,1.5,1.3V11z"/>
</g>
</svg>
