<?xml version="1.0" encoding="utf-8"?>
<!-- Generator: Adobe Illustrator 19.1.0, SVG Export Plug-In . SVG Version: 6.00 Build 0)  -->
<svg version="1.1" xmlns="http://www.w3.org/2000/svg" xmlns:xlink="http://www.w3.org/1999/xlink" x="0px" y="0px" width="24px"
	 height="24px" viewBox="0 0 24 24" enable-background="new 0 0 24 24" xml:space="preserve">
<g id="Bounding_Boxes">
	<g id="ui_x5F_spec_x5F_header_copy_2">
	</g>
	<path fill="none" d="M0,0h24v24H0V0z"/>
</g>
<g id="Sharp">
	<g id="ui_x5F_spec_x5F_header_copy_4">
	</g>
	<path d="M21,15h2v2h-2V15z M21,19h2v2h-2V19z M21,11h2v2h-2V11z M13,3h2v2h-2V3z M21,7h2v2h-2V7z M1,7h2v2H1V7z M17,3h2v2h-2V3z
		 M17,19h2v2h-2V19z M3,3H1v2h2V3z M23,3h-2v2h2V3z M9,3h2v2H9V3z M5,3h2v2H5V3z M1,11v10h14V11H1z M3,19l2.5-3.21l1.79,2.15
		l2.5-3.22L13,19H3z"/>
</g>
</svg>
