<?xml version="1.0" encoding="utf-8"?>
<!-- Generator: Adobe Illustrator 19.1.0, SVG Export Plug-In . SVG Version: 6.00 Build 0)  -->
<svg version="1.1" xmlns="http://www.w3.org/2000/svg" xmlns:xlink="http://www.w3.org/1999/xlink" x="0px" y="0px" width="24px"
	 height="24px" viewBox="0 0 24 24" enable-background="new 0 0 24 24" xml:space="preserve">
<g id="Bounding_Boxes">
	<g id="ui_x5F_spec_x5F_header_copy_2">
	</g>
	<path fill="none" d="M0,0h24v24H0V0z"/>
</g>
<g id="Sharp">
	<g id="ui_x5F_spec_x5F_header_copy_4">
	</g>
	<path d="M22,2H6v16h16V2z M11.5,11H9v2H7.5V7h4V11z M16.5,11.5c0,0.83-0.67,1.5-1.5,1.5h-2.5V7H15c0.83,0,1.5,0.67,1.5,1.5V11.5z
		 M20.5,8.5H19v1h1.5V11H19v2h-1.5V7h3V8.5z M9,9.5h1v-1H9V9.5z M4,6H2v16h16v-2H4V6z M14,11.5h1v-3h-1V11.5z"/>
</g>
</svg>
