<?xml version="1.0" encoding="utf-8"?>
<!-- Generator: Adobe Illustrator 19.1.0, SVG Export Plug-In . SVG Version: 6.00 Build 0)  -->
<svg version="1.1" xmlns="http://www.w3.org/2000/svg" xmlns:xlink="http://www.w3.org/1999/xlink" x="0px" y="0px" width="24px"
	 height="24px" viewBox="0 0 24 24" enable-background="new 0 0 24 24" xml:space="preserve">
<g id="Bounding_Boxes">
	<path fill="none" d="M0,0h24v24H0V0z"/>
</g>
<g id="Sharp">
	<path d="M18,8c0-3.31-2.69-6-6-6S6,4.69,6,8c0,4.5,6,11,6,11S18,12.5,18,8z M10,8c0-1.1,0.9-2,2-2s2,0.9,2,2s-0.89,2-2,2
		C10.9,10,10,9.1,10,8z M5,20v2h14v-2H5z"/>
</g>
</svg>
