<?xml version="1.0" encoding="utf-8"?>
<!-- Generator: Adobe Illustrator 19.1.0, SVG Export Plug-In . SVG Version: 6.00 Build 0)  -->
<svg version="1.1" xmlns="http://www.w3.org/2000/svg" xmlns:xlink="http://www.w3.org/1999/xlink" x="0px" y="0px" width="24px"
	 height="24px" viewBox="0 0 24 24" enable-background="new 0 0 24 24" xml:space="preserve">
<g id="Bounding_Boxes">
	<g id="ui_x5F_spec_x5F_header_copy_2">
	</g>
	<path fill="none" d="M0,0h24v24H0V0z"/>
</g>
<g id="Sharp">
	<g>
		<path d="M18,14.49V9c0-1.1-0.9-2-2-2h0V3h-2v4h-3.88l7.69,7.69L18,14.49z"/>
		<polygon points="10,3 8,3 8,4.88 10,6.88 		"/>
		<path d="M4.12,3.84L2.71,5.25l3.34,3.34C6.02,8.72,6,8.86,6,8.99v5.51L9.5,18v3h5v-3l0.48-0.48l4.47,4.47l1.41-1.41L4.12,3.84z"/>
	</g>
</g>
</svg>
