<?xml version="1.0" encoding="utf-8"?>
<!-- Generator: Adobe Illustrator 19.1.0, SVG Export Plug-In . SVG Version: 6.00 Build 0)  -->
<svg version="1.1" xmlns="http://www.w3.org/2000/svg" xmlns:xlink="http://www.w3.org/1999/xlink" x="0px" y="0px" width="24px"
	 height="24px" viewBox="0 0 24 24" enable-background="new 0 0 24 24" xml:space="preserve">
<g id="Bounding_Boxes">
	<path fill="none" d="M0,0h24v24H0V0z"/>
</g>
<g id="Sharp">
	<path d="M21,5v14h2V5H21z M17,19h2V5h-2V19z M15,5H1v14h14V5z M8,7.75c1.24,0,2.25,1.01,2.25,2.25S9.24,12.25,8,12.25
		S5.75,11.24,5.75,10S6.76,7.75,8,7.75z M12.5,17h-9v-0.75c0-1.5,3-2.25,4.5-2.25s4.5,0.75,4.5,2.25V17z"/>
</g>
</svg>
