<?xml version="1.0" encoding="utf-8"?>
<!-- Generator: Adobe Illustrator 19.1.0, SVG Export Plug-In . SVG Version: 6.00 Build 0)  -->
<svg version="1.1" xmlns="http://www.w3.org/2000/svg" xmlns:xlink="http://www.w3.org/1999/xlink" x="0px" y="0px" width="24px"
	 height="24px" viewBox="0 0 24 24" enable-background="new 0 0 24 24" xml:space="preserve">
<g id="Bounding_Boxes">
	<g id="ui_x5F_spec_x5F_header_copy_3" display="none">
	</g>
	<path fill="none" d="M0,0h24v24H0V0z"/>
</g>
<g id="Sharp">
	<g id="ui_x5F_spec_x5F_header_copy_4" display="none">
	</g>
	<g>
		<circle cx="9" cy="9" r="4"/>
		<path d="M9,15c-2.67,0-8,1.34-8,4v2h16v-2C17,16.34,11.67,15,9,15z"/>
		<path d="M15.08,7.05c0.84,1.18,0.84,2.71,0,3.89l1.68,1.69c2.02-2.02,2.02-5.07,0-7.27L15.08,7.05z"/>
		<path d="M20.07,2l-1.63,1.63c2.77,3.02,2.77,7.56,0,10.74L20.07,16C23.97,12.11,23.98,6.05,20.07,2z"/>
	</g>
</g>
</svg>
