<?xml version="1.0" encoding="utf-8"?>
<!-- Generator: Adobe Illustrator 19.1.0, SVG Export Plug-In . SVG Version: 6.00 Build 0)  -->
<svg version="1.1" xmlns="http://www.w3.org/2000/svg" xmlns:xlink="http://www.w3.org/1999/xlink" x="0px" y="0px" width="24px"
	 height="24px" viewBox="0 0 24 24" enable-background="new 0 0 24 24" xml:space="preserve">
<g id="Bounding_Boxes">
	<g id="ui_x5F_spec_x5F_header_copy_3" display="none">
	</g>
	<path fill="none" d="M0,0h24v24H0V0z"/>
</g>
<g id="Sharp">
	<g id="ui_x5F_spec_x5F_header_copy_4" display="none">
	</g>
	<path d="M14,2H4v20h16V8L14,2z M12,18c-2.05,0-3.81-1.24-4.58-3h1.71c0.63,0.9,1.68,1.5,2.87,1.5c1.93,0,3.5-1.57,3.5-3.5
		S13.93,9.5,12,9.5c-1.35,0-2.52,0.78-3.1,1.9l1.6,1.6h-4V9l1.3,1.3C8.69,8.92,10.23,8,12,8c2.76,0,5,2.24,5,5S14.76,18,12,18z"/>
</g>
</svg>
