<?xml version="1.0" encoding="utf-8"?>
<!-- Generator: Adobe Illustrator 19.1.0, SVG Export Plug-In . SVG Version: 6.00 Build 0)  -->
<svg version="1.1" xmlns="http://www.w3.org/2000/svg" xmlns:xlink="http://www.w3.org/1999/xlink" x="0px" y="0px" width="24px"
	 height="24px" viewBox="0 0 24 24" enable-background="new 0 0 24 24" xml:space="preserve">
<g id="Bounding_Boxes">
	<g id="ui_x5F_spec_x5F_header_copy_3">
	</g>
	<path fill="none" d="M0,0h24v24H0V0z"/>
	<path fill="none" d="M0,0h24v24H0V0z"/>
</g>
<g id="Sharp">
	<g id="ui_x5F_spec_x5F_header_copy_4">
	</g>
	<path d="M20.2,5.9L21,5.1C19.6,3.7,17.8,3,16,3s-3.6,0.7-5,2.1l0.8,0.8C13,4.8,14.5,4.2,16,4.2S19,4.8,20.2,5.9z M19.3,6.7
		c-0.9-0.9-2.1-1.4-3.3-1.4s-2.4,0.5-3.3,1.4l0.8,0.8c0.7-0.7,1.6-1,2.5-1s1.8,0.3,2.5,1L19.3,6.7z M21,13h-4V9h-2v4H3v8h18V13z
		 M8,18H6v-2h2V18z M11.5,18h-2v-2h2V18z M15,18h-2v-2h2V18z"/>
</g>
</svg>
