<?xml version="1.0" encoding="utf-8"?>
<!-- Generator: Adobe Illustrator 19.1.0, SVG Export Plug-In . SVG Version: 6.00 Build 0)  -->
<svg version="1.1" xmlns="http://www.w3.org/2000/svg" xmlns:xlink="http://www.w3.org/1999/xlink" x="0px" y="0px" width="24px"
	 height="24px" viewBox="0 0 24 24" enable-background="new 0 0 24 24" xml:space="preserve">
<g id="Bounding_Boxes" display="none">
	<g id="ui_x5F_spec_x5F_header_copy_3" display="inline">
	</g>
	<path display="inline" fill="none" d="M0,0h24v24H0V0z"/>
</g>
<g id="Sharp">
	<g id="ui_x5F_spec_x5F_header_copy_4">
	</g>
	<path d="M21,3H3v18h18V3z M12,5h1.5v3l2-3h1.7l-2,3l2,3h-1.7l-2-3v3H12V5z M7,7.25h2.5V6.5H7V5h4v3.75H8.5V9.5H11V11H7V7.25z
		 M19,13l-6,6l-4-4l-4,4v-2.5l4-4l4,4l6-6V13z"/>
</g>
</svg>
