<?xml version="1.0" encoding="utf-8"?>
<!-- Generator: Adobe Illustrator 19.1.0, SVG Export Plug-In . SVG Version: 6.00 Build 0)  -->
<svg version="1.1" xmlns="http://www.w3.org/2000/svg" xmlns:xlink="http://www.w3.org/1999/xlink" x="0px" y="0px" width="24px"
	 height="24px" viewBox="0 0 24 24" enable-background="new 0 0 24 24" xml:space="preserve">
<g id="Bounding_Boxes">
	<g id="ui_x5F_spec_x5F_header_copy_3">
	</g>
	<path fill="none" d="M0,0h24v24H0V0z"/>
</g>
<g id="Sharp">
	<g id="ui_x5F_spec_x5F_header_copy_4">
	</g>
	<path d="M23,5H1v14h22V5z M19,17H5V7h14V17z M9,16h6v-5h-1l0-0.9c0-1-0.69-1.92-1.68-2.08C11.07,7.83,10,8.79,10,10v1H9V16z
		 M10.8,10c0-0.66,0.54-1.2,1.2-1.2s1.2,0.54,1.2,1.2v1h-2.4L10.8,10z"/>
</g>
</svg>
