<?xml version="1.0" encoding="utf-8"?>
<!-- Generator: Adobe Illustrator 19.1.0, SVG Export Plug-In . SVG Version: 6.00 Build 0)  -->
<svg version="1.1" xmlns="http://www.w3.org/2000/svg" xmlns:xlink="http://www.w3.org/1999/xlink" x="0px" y="0px" width="24px"
	 height="24px" viewBox="0 0 24 24" enable-background="new 0 0 24 24" xml:space="preserve">
<g id="Bounding_Boxes">
	<g id="ui_x5F_spec_x5F_header_copy_3">
	</g>
	<path fill="none" d="M0,0h24v24H0V0z"/>
</g>
<g id="Sharp">
	<g id="ui_x5F_spec_x5F_header_copy_4">
	</g>
	<path d="M9,16h6.5c1.38,0,2.5-1.12,2.5-2.5S16.88,11,15.5,11h-0.05C15.21,9.31,13.76,8,12,8c-1.4,0-2.6,0.83-3.16,2.02H8.68
		C7.17,10.18,6,11.45,6,13C6,14.66,7.34,16,9,16z M23,3H1v18h22V3z M21,19.01H3V4.99h18V19.01z"/>
</g>
</svg>
