<?xml version="1.0" encoding="utf-8"?>
<!-- Generator: Adobe Illustrator 19.1.0, SVG Export Plug-In . SVG Version: 6.00 Build 0)  -->
<svg version="1.1" xmlns="http://www.w3.org/2000/svg" xmlns:xlink="http://www.w3.org/1999/xlink" x="0px" y="0px" width="24px"
	 height="24px" viewBox="0 0 24 24" enable-background="new 0 0 24 24" xml:space="preserve">
<g id="Bounding_Boxes">
	<g id="ui_x5F_spec_x5F_header_copy_3" display="none">
	</g>
	<path fill="none" d="M0,0h24v24H0V0z"/>
</g>
<g id="Sharp">
	<g id="ui_x5F_spec_x5F_header_copy_4" display="none">
	</g>
	<path d="M16,9H8v14h8V9z M12,15c-1.1,0-2-0.9-2-2s0.9-2,2-2s2,0.9,2,2S13.1,15,12,15z M7.05,6.05l1.41,1.41C9.37,6.56,10.62,6,12,6
		s2.63,0.56,3.54,1.46l1.41-1.41C15.68,4.78,13.93,4,12,4S8.32,4.78,7.05,6.05z M12,0C8.96,0,6.21,1.23,4.22,3.22l1.41,1.41
		C7.26,3.01,9.51,2,12,2s4.74,1.01,6.36,2.64l1.41-1.41C17.79,1.23,15.04,0,12,0z"/>
</g>
</svg>
