<?xml version="1.0" encoding="utf-8"?>
<!-- Generator: Adobe Illustrator 19.1.0, SVG Export Plug-In . SVG Version: 6.00 Build 0)  -->
<svg version="1.1" xmlns="http://www.w3.org/2000/svg" xmlns:xlink="http://www.w3.org/1999/xlink" x="0px" y="0px" width="24px"
	 height="24px" viewBox="0 0 24 24" enable-background="new 0 0 24 24" xml:space="preserve">
<g id="Bounding_Boxes">
	<g id="ui_x5F_spec_x5F_header_copy_3" display="none">
	</g>
	<path fill="none" d="M0,0h24v24H0V0z"/>
</g>
<g id="Sharp">
	<g id="ui_x5F_spec_x5F_header_copy_4" display="none">
	</g>
	<path d="M5,2c0-0.55-0.45-1-1-1S3,1.45,3,2v4H1v6h6V6H5V2z M9,18.82h2V23h2v-4.18h2V14H9V18.82z M1,18.82h2V23h2v-4.18h2V14H1
		V18.82z M21,6V2c0-0.55-0.45-1-1-1s-1,0.45-1,1v4h-2v6h6V6H21z M13,2c0-0.55-0.45-1-1-1s-1,0.45-1,1v4H9v6h6V6h-2V2z M17,18.82h2
		V23h2v-4.18h2V14h-6V18.82z"/>
</g>
</svg>
