<?xml version="1.0" encoding="utf-8"?>
<!-- Generator: Adobe Illustrator 19.1.0, SVG Export Plug-In . SVG Version: 6.00 Build 0)  -->
<svg version="1.1" xmlns="http://www.w3.org/2000/svg" xmlns:xlink="http://www.w3.org/1999/xlink" x="0px" y="0px" width="24px"
	 height="24px" viewBox="0 0 24 24" enable-background="new 0 0 24 24" xml:space="preserve">
<g id="Bounding_Boxes">
	<g id="ui_x5F_spec_x5F_header_copy_3" display="none">
	</g>
	<path fill="none" d="M0,0h24v24H0V0z"/>
</g>
<g id="Sharp">
	<g id="ui_x5F_spec_x5F_header_copy_4" display="none">
	</g>
	<path d="M23,3H1v18h22V3z M21,19.01H3V4.99h18V19.01z M8,16h2.5l1.5,1.5l1.5-1.5H16v-2.5l1.5-1.5L16,10.5V8h-2.5L12,6.5L10.5,8H8
		v2.5L6.5,12L8,13.5V16z M12,9c1.66,0,3,1.34,3,3s-1.34,3-3,3V9z"/>
</g>
</svg>
