<?xml version="1.0" encoding="utf-8"?>
<!-- Generator: Adobe Illustrator 19.1.0, SVG Export Plug-In . SVG Version: 6.00 Build 0)  -->
<svg version="1.1" xmlns="http://www.w3.org/2000/svg" xmlns:xlink="http://www.w3.org/1999/xlink" x="0px" y="0px" width="24px"
	 height="24px" viewBox="0 0 24 24" enable-background="new 0 0 24 24" xml:space="preserve">
<g id="Bounding_Boxes">
	<g id="ui_x5F_spec_x5F_header_copy_3" display="none">
	</g>
	<path fill="none" d="M0,0h24v24H0V0z"/>
</g>
<g id="Sharp">
	<g id="ui_x5F_spec_x5F_header_copy_4" display="none">
	</g>
	<path d="M14,12c0-1.1-0.9-2-2-2s-2,0.9-2,2s0.9,2,2,2S14,13.1,14,12z M12,3c-4.97,0-9,4.03-9,9H0l4,4l4-4H5c0-3.87,3.13-7,7-7
		s7,3.13,7,7s-3.13,7-7,7c-1.51,0-2.91-0.49-4.06-1.3l-1.42,1.44C8.04,20.3,9.94,21,12,21c4.97,0,9-4.03,9-9S16.97,3,12,3z"/>
</g>
</svg>
