<?xml version="1.0" encoding="utf-8"?>
<!-- Generator: Adobe Illustrator 19.1.0, SVG Export Plug-In . SVG Version: 6.00 Build 0)  -->
<svg version="1.1" xmlns="http://www.w3.org/2000/svg" xmlns:xlink="http://www.w3.org/1999/xlink" x="0px" y="0px" width="24px"
	 height="24px" viewBox="0 0 24 24" enable-background="new 0 0 24 24" xml:space="preserve">
<g id="Bounding_Boxes">
	<g id="ui_x5F_spec_x5F_header_copy_3" display="none">
	</g>
	<path fill="none" d="M0,0h24v24H0V0z"/>
</g>
<g id="Sharp">
	<g id="ui_x5F_spec_x5F_header_copy_4" display="none">
	</g>
	<g>
		<path d="M17,18c-1.1,0-1.99,0.9-1.99,2c0,1.1,0.89,2,1.99,2s2-0.9,2-2C19,18.9,18.1,18,17,18z"/>
		<path d="M7,18c-1.1,0-1.99,0.9-1.99,2c0,1.1,0.89,2,1.99,2s2-0.9,2-2C9,18.9,8.1,18,7,18z"/>
		<path d="M7,15l1.1-2h7.45c0.75,0,1.41-0.41,1.75-1.03L21.7,4H5.21L4.27,2H1v2h2l3.6,7.59L3.62,17H19v-2H7z"/>
	</g>
</g>
</svg>
