<?xml version="1.0" encoding="utf-8"?>
<!-- Generator: Adobe Illustrator 19.1.0, SVG Export Plug-In . SVG Version: 6.00 Build 0)  -->
<svg version="1.1" xmlns="http://www.w3.org/2000/svg" xmlns:xlink="http://www.w3.org/1999/xlink" x="0px" y="0px" width="24px"
	 height="24px" viewBox="0 0 24 24" enable-background="new 0 0 24 24" xml:space="preserve">
<g id="Bounding_Boxes">
	<g id="ui_x5F_spec_x5F_header_copy_3">
	</g>
	<path fill="none" d="M0,0h24v24H0V0z"/>
</g>
<g id="Sharp">
	<g id="ui_x5F_spec_x5F_header_copy_4">
	</g>
	<g>
		<path d="M20.5,9.5c0.36,0,0.71,0.04,1.05,0.11L23.64,7C23.19,6.66,18.71,3,12,3C5.28,3,0.81,6.66,0.36,7L12,21.5l3.5-4.36V14.5
			C15.5,11.7,17.7,9.5,20.5,9.5z"/>
		<g>
			<path d="M23,16v-1.5c0-1.4-1.1-2.5-2.5-2.5S18,13.1,18,14.5V16c-0.5,0-1,0-1,0v6h7v-6C24,16,23.5,16,23,16z M22,16h-3v-1.5
				c0-0.8,0.7-1.5,1.5-1.5s1.5,0.7,1.5,1.5V16z"/>
		</g>
	</g>
</g>
</svg>
