<?xml version="1.0" encoding="utf-8"?>
<!-- Generator: Adobe Illustrator 19.1.0, SVG Export Plug-In . SVG Version: 6.00 Build 0)  -->
<svg version="1.1" xmlns="http://www.w3.org/2000/svg" xmlns:xlink="http://www.w3.org/1999/xlink" x="0px" y="0px" width="24px"
	 height="24px" viewBox="0 0 24 24" enable-background="new 0 0 24 24" xml:space="preserve">
<g id="Bounding_Boxes">
	<path fill="none" d="M0,0h24v24H0V0z"/>
</g>
<g id="Sharp">
	<g>
		<rect x="20.5" y="13" width="1.5" height="3"/>
		<path d="M14.5,8.65h1.53c1.05,0,1.97,0.74,1.97,2.05V12h1.5v-1.64c0-1.81-1.6-3.16-3.47-3.16H14.5c-1.02,0-1.85-0.98-1.85-2
			c0-1.02,0.83-1.75,1.85-1.75v-1.5c-1.85,0-3.35,1.5-3.35,3.35S12.65,8.65,14.5,8.65z"/>
		<polygon points="17,13 14.66,13 17,15.34 		"/>
		<path d="M18.85,4.73c0.62-0.61,1-1.45,1-2.38h-1.5c0,1.02-0.83,1.85-1.85,1.85v1.5c2.24,0,4,1.83,4,4.07V12H22V9.76
			C22,7.54,20.72,5.62,18.85,4.73z"/>
		<rect x="18" y="13" width="1.5" height="3"/>
		<polygon points="3.41,4.59 2,6 9,13 2,13 2,16 12,16 19,23 20.41,21.59 		"/>
	</g>
</g>
</svg>
