<?xml version="1.0" encoding="utf-8"?>
<!-- Generator: Adobe Illustrator 19.1.0, SVG Export Plug-In . SVG Version: 6.00 Build 0)  -->
<svg version="1.1" xmlns="http://www.w3.org/2000/svg" xmlns:xlink="http://www.w3.org/1999/xlink" x="0px" y="0px" width="24px"
	 height="24px" viewBox="0 0 24 24" enable-background="new 0 0 24 24" xml:space="preserve">
<g id="Bounding_Boxes">
	<path fill="none" d="M0,0h24v24H0V0z"/>
</g>
<g id="Sharp">
	<g>
		<path d="M9,11h3.63L9,15.2V17h6v-2h-3.63L15,10.8V9H9V11z"/>
		<g>
			<rect x="18" y="1.5" transform="matrix(0.6406 -0.7679 0.7679 0.6406 3.3738 16.2078)" width="2" height="6"/>
			<rect x="4" y="1.5" transform="matrix(-0.6406 -0.7679 0.7679 -0.6406 4.7472 11.2221)" width="2" height="6"/>
			<path d="M12,6c3.86,0,7,3.14,7,7s-3.14,7-7,7s-7-3.14-7-7S8.14,6,12,6 M12,4c-4.97,0-9,4.03-9,9s4.03,9,9,9s9-4.03,9-9
				S16.97,4,12,4L12,4z"/>
		</g>
	</g>
</g>
</svg>
