<?xml version="1.0" encoding="utf-8"?>
<!-- Generator: Adobe Illustrator 19.1.0, SVG Export Plug-In . SVG Version: 6.00 Build 0)  -->
<svg version="1.1" xmlns="http://www.w3.org/2000/svg" xmlns:xlink="http://www.w3.org/1999/xlink" x="0px" y="0px" width="24px"
	 height="24px" viewBox="0 0 24 24" enable-background="new 0 0 24 24" xml:space="preserve">
<g id="Bounding_Boxes">
	<g id="ui_x5F_spec_x5F_header_copy_3">
	</g>
	<path fill="none" d="M0,0h24v24H0V0z"/>
</g>
<g id="Sharp">
	<g id="ui_x5F_spec_x5F_header_copy_4">
	</g>
	<path d="M19,2H5v19.99h14V2z M12,4c1.1,0,2,0.9,2,2s-0.9,2-2,2c-1.11,0-2-0.9-2-2S10.89,4,12,4z M12,20c-2.76,0-5-2.24-5-5
		s2.24-5,5-5s5,2.24,5,5S14.76,20,12,20z M12,12c-1.66,0-3,1.34-3,3s1.34,3,3,3s3-1.34,3-3S13.66,12,12,12z"/>
</g>
</svg>
