<?xml version="1.0" encoding="utf-8"?>
<!-- Generator: Adobe Illustrator 19.1.0, SVG Export Plug-In . SVG Version: 6.00 Build 0)  -->
<svg version="1.1" xmlns="http://www.w3.org/2000/svg" xmlns:xlink="http://www.w3.org/1999/xlink" x="0px" y="0px" width="24px"
	 height="24px" viewBox="0 0 24 24" enable-background="new 0 0 24 24" xml:space="preserve">
<g id="Bounding_Boxes">
	<g id="ui_x5F_spec_x5F_header_copy_3">
	</g>
	<path fill="none" d="M0,0h24v24H0V0z"/>
</g>
<g id="Sharp">
	<g id="ui_x5F_spec_x5F_header_copy_4">
	</g>
	<g>
		<path d="M20,1H8v17.99h12V1z M14,3c1.1,0,2,0.89,2,2s-0.9,2-2,2s-2-0.89-2-2S12.9,3,14,3z M14,16.5c-2.21,0-4-1.79-4-4
			c0-2.21,1.79-4,4-4s4,1.79,4,4C18,14.71,16.21,16.5,14,16.5z"/>
		<circle cx="14" cy="12.5" r="2.5"/>
		<polygon points="6,5 4,5 4,23 16,23 16,21 6,21 		"/>
	</g>
</g>
</svg>
