<?xml version="1.0" encoding="utf-8"?>
<!-- Generator: Adobe Illustrator 19.1.0, SVG Export Plug-In . SVG Version: 6.00 Build 0)  -->
<svg version="1.1" xmlns="http://www.w3.org/2000/svg" xmlns:xlink="http://www.w3.org/1999/xlink" x="0px" y="0px" width="24px"
	 height="24px" viewBox="0 0 24 24" enable-background="new 0 0 24 24" xml:space="preserve">
<g id="Bounding_Boxes">
	<g id="ui_x5F_spec_x5F_header_copy_2">
	</g>
	<rect fill="none" width="24" height="24"/>
</g>
<g id="Sharp">
	<g id="ui_x5F_spec_x5F_header_copy_4">
	</g>
	<g>
		<polygon points="21.79,18 23.79,20 24,20 24,18 		"/>
		<path d="M13,9.13V7l4,3.74l-1.28,1.19l5.18,5.18L22,16V4.02H7.8l5.13,5.13C12.96,9.14,12.98,9.13,13,9.13z"/>
		<path d="M1.11,2.98L2,3.88v12.14l2,1.99L0,18v2h18.13l2.71,2.71l1.41-1.41L2.52,1.57L1.11,2.98z M9.08,10.95l1.59,1.59
			C9.13,12.92,7.96,13.71,7,15C7.31,13.52,7.94,12.07,9.08,10.95z"/>
	</g>
</g>
</svg>
