<?xml version="1.0" encoding="utf-8"?>
<!-- Generator: Adobe Illustrator 19.1.0, SVG Export Plug-In . SVG Version: 6.00 Build 0)  -->
<svg version="1.1" xmlns="http://www.w3.org/2000/svg" xmlns:xlink="http://www.w3.org/1999/xlink" x="0px" y="0px" width="24px"
	 height="24px" viewBox="0 0 24 24" enable-background="new 0 0 24 24" xml:space="preserve">
<g id="Bounding_Boxes">
	<g id="ui_x5F_spec_x5F_header_copy_2">
	</g>
	<path fill="none" d="M0,0h24v24H0V0z"/>
</g>
<g id="Sharp">
	<path d="M2,16v2c2.76,0,5,2.24,5,5h2C9,19.13,5.87,16,2,16z M2,20v3h3C5,21.34,3.66,20,2,20z M2,12v2c4.97,0,9,4.03,9,9h2
		C13,16.92,8.08,12,2,12z M5,1v9.37c0.69,0.16,1.36,0.37,2,0.64V5h10v13h-3.03c0.52,1.25,0.84,2.59,0.95,4H19V1H5z"/>
</g>
</svg>
