<?xml version="1.0" encoding="utf-8"?>
<!-- Generator: Adobe Illustrator 19.1.0, SVG Export Plug-In . SVG Version: 6.00 Build 0)  -->
<svg version="1.1" xmlns="http://www.w3.org/2000/svg" xmlns:xlink="http://www.w3.org/1999/xlink" x="0px" y="0px" width="24px"
	 height="24px" viewBox="0 0 24 24" enable-background="new 0 0 24 24" xml:space="preserve">
<g id="Bounding_Boxes">
	<g id="ui_x5F_spec_x5F_header_copy_2">
	</g>
	<path fill="none" d="M0,0h24v24H0V0z"/>
</g>
<g id="Sharp">
	<path d="M18.57,4H5.43L3,11v9h3v-2h12v2h3v-9L18.57,4z M6.5,15C5.67,15,5,14.33,5,13.5S5.67,12,6.5,12S8,12.67,8,13.5
		S7.33,15,6.5,15z M17.5,15c-0.83,0-1.5-0.67-1.5-1.5s0.67-1.5,1.5-1.5s1.5,0.67,1.5,1.5S18.33,15,17.5,15z M5,10l1.5-4.5h11L19,10
		H5z"/>
</g>
</svg>
