<?xml version="1.0" encoding="utf-8"?>
<!-- Generator: Adobe Illustrator 19.1.0, SVG Export Plug-In . SVG Version: 6.00 Build 0)  -->
<svg version="1.1" xmlns="http://www.w3.org/2000/svg" xmlns:xlink="http://www.w3.org/1999/xlink" x="0px" y="0px" width="24px"
	 height="24px" viewBox="0 0 24 24" enable-background="new 0 0 24 24" xml:space="preserve">
<g id="Bounding_Boxes">
	<g id="ui_x5F_spec_x5F_header_copy_2">
	</g>
	<path fill="none" d="M0,0h24v24H0V0z"/>
</g>
<g id="Sharp">
	<g id="ui_x5F_spec_x5F_header_copy_4">
	</g>
	<path d="M15,1H9v2h6V1z M11,14h2V8h-2V14z M19.03,7.39l1.42-1.42c-0.43-0.51-0.9-0.99-1.41-1.41l-1.42,1.42
		C16.07,4.74,14.12,4,12,4c-4.97,0-9,4.03-9,9s4.02,9,9,9s9-4.03,9-9C21,10.88,20.26,8.93,19.03,7.39z M12,20c-3.87,0-7-3.13-7-7
		s3.13-7,7-7s7,3.13,7,7S15.87,20,12,20z"/>
</g>
</svg>
