<?xml version="1.0" encoding="utf-8"?>
<!-- Generator: Adobe Illustrator 19.1.0, SVG Export Plug-In . SVG Version: 6.00 Build 0)  -->
<svg version="1.1" xmlns="http://www.w3.org/2000/svg" xmlns:xlink="http://www.w3.org/1999/xlink" x="0px" y="0px" width="24px"
	 height="24px" viewBox="0 0 24 24" enable-background="new 0 0 24 24" xml:space="preserve">
<g id="Bounding_Boxes">
	<g id="ui_x5F_spec_x5F_header_copy_3">
	</g>
	<path fill="none" d="M0,0h24v24H0V0z"/>
</g>
<g id="Sharp">
	<g id="ui_x5F_spec_x5F_header_copy_4">
	</g>
	<g>
		<path d="M15,4c-4.42,0-8,3.58-8,8s3.58,8,8,8s8-3.58,8-8S19.42,4,15,4z M15,18c-3.31,0-6-2.69-6-6s2.69-6,6-6s6,2.69,6,6
			S18.31,18,15,18z"/>
		<path d="M3,12c0-2.61,1.67-4.83,4-5.65V4.26C3.55,5.15,1,8.27,1,12s2.55,6.85,6,7.74v-2.09C4.67,16.83,3,14.61,3,12z"/>
	</g>
</g>
</svg>
