<?xml version="1.0" encoding="utf-8"?>
<!-- Generator: Adobe Illustrator 19.1.0, SVG Export Plug-In . SVG Version: 6.00 Build 0)  -->
<svg version="1.1" xmlns="http://www.w3.org/2000/svg" xmlns:xlink="http://www.w3.org/1999/xlink" x="0px" y="0px" width="24px"
	 height="24px" viewBox="0 0 24 24" enable-background="new 0 0 24 24" xml:space="preserve">
<g id="Bounding_Boxes">
	<path fill="none" d="M0,0h24v24H0V0z"/>
</g>
<g id="Sharp">
	<path d="M20,10h-3V8.86c1.72-0.45,3-2,3-3.86h-3V3H7v2H4c0,1.86,1.28,3.41,3,3.86V10H4c0,1.86,1.28,3.41,3,3.86V15H4
		c0,1.86,1.28,3.41,3,3.86V21h10v-2.14c1.72-0.45,3-2,3-3.86h-3v-1.14C18.72,13.41,20,11.86,20,10z M12,19c-1.11,0-2-0.9-2-2
		s0.89-2,2-2c1.1,0,2,0.9,2,2S13.11,19,12,19z M12,14c-1.11,0-2-0.9-2-2s0.89-2,2-2c1.1,0,2,0.9,2,2S13.11,14,12,14z M12,9
		c-1.11,0-2-0.9-2-2c0-1.11,0.89-2,2-2c1.1,0,2,0.89,2,2C14,8.1,13.11,9,12,9z"/>
</g>
</svg>
