<?xml version="1.0" encoding="utf-8"?>
<!-- Generator: Adobe Illustrator 19.1.0, SVG Export Plug-In . SVG Version: 6.00 Build 0)  -->
<svg version="1.1" xmlns="http://www.w3.org/2000/svg" xmlns:xlink="http://www.w3.org/1999/xlink" x="0px" y="0px" width="24px"
	 height="24px" viewBox="0 0 24 24" enable-background="new 0 0 24 24" xml:space="preserve">
<g id="Bounding_Boxes">
	<path fill="none" d="M0,0h24v24H0V0z"/>
</g>
<g id="Sharp">
	<path d="M12,2C8,2,4,2.5,4,6v9.5C4,17.43,5.57,19,7.5,19h0L6,20.5V21h2l2-2h4l2,2h2v-0.5L16.5,19h0c1.93,0,3.5-1.57,3.5-3.5V6
		C20,2.5,16,2,12,2z M7.5,17C6.67,17,6,16.33,6,15.5C6,14.67,6.67,14,7.5,14S9,14.67,9,15.5C9,16.33,8.33,17,7.5,17z M11,10H6V6h5
		V10z M16.5,17c-0.83,0-1.5-0.67-1.5-1.5c0-0.83,0.67-1.5,1.5-1.5s1.5,0.67,1.5,1.5C18,16.33,17.33,17,16.5,17z M18,10h-5V6h5V10z"
		/>
</g>
</svg>
