<?xml version="1.0" encoding="utf-8"?>
<!-- Generator: Adobe Illustrator 19.1.0, SVG Export Plug-In . SVG Version: 6.00 Build 0)  -->
<svg version="1.1" xmlns="http://www.w3.org/2000/svg" xmlns:xlink="http://www.w3.org/1999/xlink" x="0px" y="0px" width="24px"
	 height="24px" viewBox="0 0 24 24" enable-background="new 0 0 24 24" xml:space="preserve">
<g id="Bounding_Boxes">
	<g id="ui_x5F_spec_x5F_header_copy_2">
	</g>
	<path fill="none" d="M0,0h24v24H0V0z"/>
</g>
<g id="Sharp">
	<g>
		<polygon points="21,7 21,17.88 23,19.88 23,5 13.42,5 16.71,1.7 16,1 12,5 8,1 7.3,1.7 10.58,5 8.12,5 10.12,7 		"/>
		<path d="M2.41,2.13L2.27,2.27L1,3.54l1.53,1.53H1V21h17.46l1.99,1.99l1.26-1.26l0.15-0.15L2.41,2.13z M3,19V7h1.46l12,12H3z"/>
	</g>
</g>
</svg>
