<?xml version="1.0" encoding="utf-8"?>
<!-- Generator: Adobe Illustrator 19.1.0, SVG Export Plug-In . SVG Version: 6.00 Build 0)  -->
<svg version="1.1" xmlns="http://www.w3.org/2000/svg" xmlns:xlink="http://www.w3.org/1999/xlink" x="0px" y="0px" width="24px"
	 height="24px" viewBox="0 0 24 24" enable-background="new 0 0 24 24" xml:space="preserve">
<g id="Bounding_Boxes">
	<g id="ui_x5F_spec_x5F_header_copy_3">
	</g>
	<g>
		<defs>
			<rect id="SVGID_19_" width="24" height="24"/>
		</defs>
		<clipPath id="SVGID_2_">
			<use xlink:href="#SVGID_19_"  overflow="visible"/>
		</clipPath>
	</g>
</g>
<g id="Sharp">
	<g id="ui_x5F_spec_x5F_header_copy_4">
	</g>
	<g>
		<polygon points="11,8 11,13 15.25,15.52 16.02,14.24 12.5,12.15 12.5,8 		"/>
		<path d="M21,10V3l-2.64,2.64C16.74,4.01,14.49,3,12,3c-4.97,0-9,4.03-9,9s4.03,9,9,9c4.97,0,9-4.03,9-9h-2c0,3.86-3.14,7-7,7
			s-7-3.14-7-7s3.14-7,7-7c1.93,0,3.68,0.79,4.95,2.05L14,10H21z"/>
	</g>
</g>
</svg>
