<?xml version="1.0" encoding="utf-8"?>
<!-- Generator: Adobe Illustrator 19.1.0, SVG Export Plug-In . SVG Version: 6.00 Build 0)  -->
<svg version="1.1" xmlns="http://www.w3.org/2000/svg" xmlns:xlink="http://www.w3.org/1999/xlink" x="0px" y="0px" width="24px"
	 height="24px" viewBox="0 0 24 24" enable-background="new 0 0 24 24" xml:space="preserve">
<g id="Bounding_Boxes">
	<g id="ui_x5F_spec_x5F_header_copy_2">
	</g>
	<path fill="none" d="M0,0h24v24H0V0z"/>
</g>
<g id="Sharp">
	<g id="ui_x5F_spec_x5F_header_copy_4">
	</g>
	<path d="M12.65,10C11.83,7.67,9.61,6,7,6c-3.31,0-6,2.69-6,6s2.69,6,6,6c2.61,0,4.83-1.67,5.65-4H17v4h4v-4h2v-4H12.65z M7,14
		c-1.1,0-2-0.9-2-2s0.9-2,2-2s2,0.9,2,2S8.1,14,7,14z"/>
</g>
</svg>
