<?xml version="1.0" encoding="utf-8"?>
<!-- Generator: Adobe Illustrator 19.1.0, SVG Export Plug-In . SVG Version: 6.00 Build 0)  -->
<svg version="1.1" xmlns="http://www.w3.org/2000/svg" xmlns:xlink="http://www.w3.org/1999/xlink" x="0px" y="0px" width="24px"
	 height="24px" viewBox="0 0 24 24" enable-background="new 0 0 24 24" xml:space="preserve">
<g id="Bounding_Boxes">
	<g id="ui_x5F_spec_x5F_header_copy_2">
	</g>
	<path fill="none" d="M0,0h24v24H0V0z"/>
</g>
<g id="Sharp">
	<g>
		<path d="M19,13c0,2.08-0.8,3.97-2.1,5.39V17H14v-4H7v-2h3V8h4V3.46C13.05,3.16,12.05,3,11,3C5.48,3,1,7.48,1,13
			c0,5.52,4.48,10,10,10s10-4.48,10-10c0-0.34-0.02-0.67-0.05-1h-2.03C18.96,12.33,19,12.66,19,13z M10,20.93
			C6.05,20.44,3,17.08,3,13c0-0.62,0.08-1.21,0.21-1.79L8,16v3h2V20.93z"/>
		<path d="M22,4l0-0.36c0-1.31-0.94-2.5-2.24-2.63C18.26,0.86,17,2.03,17,3.5V4h-1v6h7V4H22z M21,4h-3V3.5C18,2.67,18.67,2,19.5,2
			S21,2.67,21,3.5V4z"/>
	</g>
</g>
</svg>
