<?xml version="1.0" encoding="utf-8"?>
<!-- Generator: Adobe Illustrator 19.1.0, SVG Export Plug-In . SVG Version: 6.00 Build 0)  -->
<svg version="1.1" xmlns="http://www.w3.org/2000/svg" xmlns:xlink="http://www.w3.org/1999/xlink" x="0px" y="0px" width="24px"
	 height="24px" viewBox="0 0 24 24" enable-background="new 0 0 24 24" xml:space="preserve">
<g id="Bounding_Boxes">
	<g id="ui_x5F_spec_x5F_header_copy_3">
	</g>
	<path fill="none" d="M0,0h24v24H0V0z"/>
</g>
<g id="Sharp">
	<g id="ui_x5F_spec_x5F_header_copy_4">
	</g>
	<path d="M4,4h7V2H2v9h2V4z M10,13l-4,5h12l-3-4l-2.03,2.71L10,13z M17,8.5C17,7.67,16.33,7,15.5,7S14,7.67,14,8.5s0.67,1.5,1.5,1.5
		S17,9.33,17,8.5z M22,2h-9v2h7v7h2V2z M20,20h-7v2h9v-9h-2V20z M4,13H2v9h9v-2H4V13z"/>
</g>
</svg>
