<?xml version="1.0" encoding="utf-8"?>
<!-- Generator: Adobe Illustrator 19.1.0, SVG Export Plug-In . SVG Version: 6.00 Build 0)  -->
<svg version="1.1" xmlns="http://www.w3.org/2000/svg" xmlns:xlink="http://www.w3.org/1999/xlink" x="0px" y="0px" width="24px"
	 height="24px" viewBox="0 0 24 24" enable-background="new 0 0 24 24" xml:space="preserve">
<g id="Bounding_Boxes">
	<g id="ui_x5F_spec_x5F_header_copy_3">
	</g>
	<path fill="none" d="M0,0h24v24H0V0z"/>
</g>
<g id="Sharp">
	<g id="ui_x5F_spec_x5F_header_copy_4">
	</g>
	<path d="M20,12c0-2.54-1.19-4.81-3.04-6.27L16,0H8L7.05,5.73C5.19,7.19,4,9.45,4,12s1.19,4.81,3.05,6.27L8,24h8l0.96-5.73
		C18.81,16.81,20,14.54,20,12z M6,12c0-3.31,2.69-6,6-6s6,2.69,6,6s-2.69,6-6,6S6,15.31,6,12z"/>
</g>
</svg>
