<?xml version="1.0" encoding="utf-8"?>
<!-- Generator: Adobe Illustrator 19.1.0, SVG Export Plug-In . SVG Version: 6.00 Build 0)  -->
<svg version="1.1" xmlns="http://www.w3.org/2000/svg" xmlns:xlink="http://www.w3.org/1999/xlink" x="0px" y="0px" width="24px"
	 height="24px" viewBox="0 0 24 24" enable-background="new 0 0 24 24" xml:space="preserve">
<g id="Bounding_Boxes">
	<g id="ui_x5F_spec_x5F_header_copy_2">
	</g>
	<path fill="none" d="M0,0h24v24H0V0z"/>
</g>
<g id="Sharp">
	<g id="ui_x5F_spec_x5F_header_copy_4">
	</g>
	<path d="M6.85,12.65h2.3L8,9L6.85,12.65z M22,7l-1.2,6.29L19.3,7h-1.6l-1.49,6.29L15,7h-0.76C12.77,5.17,10.53,4,8,4
		c-4.42,0-8,3.58-8,8s3.58,8,8,8c3.13,0,5.84-1.81,7.15-4.43l0.1,0.43H17l1.5-6.1L20,16h1.75l2.05-9H22z M10.3,16l-0.7-2H6.4l-0.7,2
		H3.8L7,7h2l3.2,9H10.3z"/>
</g>
</svg>
