<?xml version="1.0" encoding="utf-8"?>
<!-- Generator: Adobe Illustrator 19.1.0, SVG Export Plug-In . SVG Version: 6.00 Build 0)  -->
<svg version="1.1" xmlns="http://www.w3.org/2000/svg" xmlns:xlink="http://www.w3.org/1999/xlink" x="0px" y="0px" width="24px"
	 height="24px" viewBox="0 0 24 24" enable-background="new 0 0 24 24" xml:space="preserve">
<g id="Bounding_Boxes">
	<g id="ui_x5F_spec_x5F_header_copy_2">
	</g>
	<path fill="none" d="M0,0h24v24H0V0z"/>
</g>
<g id="Sharp">
	<g id="ui_x5F_spec_x5F_header_copy_4">
	</g>
	<path d="M3.55,19.09l1.41,1.41l1.79-1.8l-1.41-1.41L3.55,19.09z M11,23h2v-2.95h-2V23z M4,11.05H1v2h3V11.05z M15,6.86V2.05H9v4.81
		C7.21,7.9,6,9.83,6,12.05c0,3.31,2.69,6,6,6s6-2.69,6-6C18,9.83,16.79,7.9,15,6.86z M20,11.05v2h3v-2H20z M17.24,18.71l1.79,1.8
		l1.41-1.41l-1.8-1.79L17.24,18.71z"/>
</g>
</svg>
