<?xml version="1.0" encoding="utf-8"?>
<!-- Generator: Adobe Illustrator 19.1.0, SVG Export Plug-In . SVG Version: 6.00 Build 0)  -->
<svg version="1.1" xmlns="http://www.w3.org/2000/svg" xmlns:xlink="http://www.w3.org/1999/xlink" x="0px" y="0px" width="24px"
	 height="24px" viewBox="0 0 24 24" enable-background="new 0 0 24 24" xml:space="preserve">
<g id="Bounding_Boxes">
	<g id="ui_x5F_spec_x5F_header_copy_2">
	</g>
	<path fill="none" d="M0,0h24v24H0V0z"/>
</g>
<g id="Sharp">
	<g id="ui_x5F_spec_x5F_header_copy_4">
	</g>
	<path d="M5,15h14V9.05H5V15z M11,1v3h2V1H11z M19.04,3.6l-1.79,1.79l1.41,1.41l1.8-1.79L19.04,3.6z M13,23v-2.95h-2V23H13z
		 M20.45,19.09l-1.8-1.79l-1.41,1.41l1.79,1.8L20.45,19.09z M3.55,5.01L5.34,6.8l1.41-1.41L4.96,3.6L3.55,5.01z M4.96,20.5l1.79-1.8
		l-1.41-1.41l-1.79,1.79L4.96,20.5z"/>
</g>
</svg>
