<?xml version="1.0" encoding="utf-8"?>
<!-- Generator: Adobe Illustrator 19.1.0, SVG Export Plug-In . SVG Version: 6.00 Build 0)  -->
<svg version="1.1" xmlns="http://www.w3.org/2000/svg" xmlns:xlink="http://www.w3.org/1999/xlink" x="0px" y="0px" width="24px"
	 height="24px" viewBox="0 0 24 24" enable-background="new 0 0 24 24" xml:space="preserve">
<g id="Bounding_Boxes">
	<g id="ui_x5F_spec_x5F_header_copy_2">
	</g>
	<path fill="none" d="M0.01,0h24v24h-24V0z"/>
</g>
<g id="Sharp">
	<path d="M5.5,22v-7.5H4V7h7v7.5H9.5V22H5.5z M18,22v-6h3l-3-9H15l-3,9h3v6H18z M7.5,6c1.11,0,2-0.89,2-2s-0.89-2-2-2s-2,0.89-2,2
		S6.39,6,7.5,6z M16.5,6c1.11,0,2-0.89,2-2s-0.89-2-2-2s-2,0.89-2,2S15.39,6,16.5,6z"/>
</g>
</svg>
