<?xml version="1.0" encoding="utf-8"?>
<!-- Generator: Adobe Illustrator 19.1.0, SVG Export Plug-In . SVG Version: 6.00 Build 0)  -->
<svg version="1.1" xmlns="http://www.w3.org/2000/svg" xmlns:xlink="http://www.w3.org/1999/xlink" x="0px" y="0px" width="24px"
	 height="24px" viewBox="0 0 24 24" enable-background="new 0 0 24 24" xml:space="preserve">
<g id="Bounding_Boxes">
	<g id="ui_x5F_spec_x5F_header_copy_2">
	</g>
	<path fill="none" d="M0,0h24v24H0V0z"/>
</g>
<g id="Sharp">
	<path d="M13.5,0.67c0,0,0.74,2.65,0.74,4.8c0,2.06-1.35,3.73-3.41,3.73C8.76,9.2,7.2,7.53,7.2,5.47l0.03-0.36
		C5.21,7.51,4,10.62,4,14c0,4.42,3.58,8,8,8s8-3.58,8-8C20,8.61,17.41,3.8,13.5,0.67z M11.71,19c-1.78,0-3.22-1.4-3.22-3.14
		c0-1.62,1.05-2.76,2.81-3.12c1.77-0.36,3.6-1.21,4.62-2.58c0.39,1.29,0.59,2.65,0.59,4.04C16.51,16.85,14.36,19,11.71,19z"/>
</g>
</svg>
