<?xml version="1.0" encoding="utf-8"?>
<!-- Generator: Adobe Illustrator 19.1.0, SVG Export Plug-In . SVG Version: 6.00 Build 0)  -->
<svg version="1.1" xmlns="http://www.w3.org/2000/svg" xmlns:xlink="http://www.w3.org/1999/xlink" x="0px" y="0px" width="24px"
	 height="24px" viewBox="0 0 24 24" enable-background="new 0 0 24 24" xml:space="preserve">
<g id="Bounding_Boxes">
	<g id="ui_x5F_spec_x5F_header_copy_2">
	</g>
	<path fill="none" d="M0,0h24v24H0V0z M0,0h24v24H0V0z"/>
</g>
<g id="Sharp">
	<path d="M1,9l2,2c4.97-4.97,13.03-4.97,18,0l2-2C16.93,2.93,7.08,2.93,1,9z M9,17l3,3l3-3C13.35,15.34,10.66,15.34,9,17z M5,13l2,2
		c2.76-2.76,7.24-2.76,10,0l2-2C15.14,9.14,8.87,9.14,5,13z"/>
</g>
</svg>
