<?xml version="1.0" encoding="utf-8"?>
<!-- Generator: Adobe Illustrator 21.1.0, SVG Export Plug-In . SVG Version: 6.00 Build 0)  -->
<svg version="1.1" id="Layer_1" xmlns="http://www.w3.org/2000/svg" xmlns:xlink="http://www.w3.org/1999/xlink" x="0px" y="0px"
	 width="24px" height="24px" viewBox="0 0 24 24" enable-background="new 0 0 24 24" xml:space="preserve">
<g>
	<path d="M19,3H5C3.9,3,3,3.9,3,5v14c0,1.1,0.9,2,2,2h14c1.1,0,2-0.9,2-2V5C21,3.9,20.1,3,19,3z M12,13.5h-1V15H9.5v-1.5h-3V9H8v3
		h1.5V9H11v3h1V13.5z M18,15h-1.75l-1.75-2.25V15H13V9h1.5v2.25L16.25,9H18l-2.25,3L18,15z"/>
	<path fill="none" d="M0,0h24v24H0V0z"/>
</g>
</svg>
